<svg width="24" height="24" viewBox="0 0 24 24" fill="none" xmlns="http://www.w3.org/2000/svg">
<path d="M17.25 18.6733V17.5C17.25 16.3098 17.2489 15.4799 17.1772 14.8443C17.1073 14.2238 16.9781 13.8819 16.785 13.6303C16.6653 13.4743 16.5257 13.3347 16.3697 13.215C16.1181 13.0219 15.7762 12.8927 15.1557 12.8228C14.5201 12.7511 13.6902 12.75 12.5 12.75H11.5C10.3098 12.75 9.47987 12.7511 8.84426 12.8228C8.22376 12.8927 7.88193 13.0219 7.63029 13.215C7.47429 13.3347 7.33466 13.4743 7.21495 13.6303C7.02187 13.8819 6.89272 14.2238 6.82277 14.8443C6.75112 15.4799 6.75 16.3098 6.75 17.5V18.6733C7.52808 18.75 8.5327 18.75 10 18.75H14C15.4673 18.75 16.4719 18.75 17.25 18.6733Z" fill="#020203"/>
<path opacity="0.4" d="M1.5559 5.56864C1.25 6.5101 1.25 7.6734 1.25 10C1.25 12.3266 1.25 13.4899 1.5559 14.4314C2.13919 16.2265 3.50005 17.6559 5.25 18.331L5.25 17.4548C5.24999 16.3204 5.24997 15.4057 5.33221 14.6762C5.41725 13.9219 5.59807 13.2734 6.02493 12.7171C6.22443 12.4571 6.45715 12.2244 6.71714 12.0249C7.27343 11.5981 7.92195 11.4172 8.67622 11.3322C9.40571 11.25 10.3204 11.25 11.4548 11.25H12.5452C13.6796 11.25 14.5943 11.25 15.3238 11.3322C16.0781 11.4172 16.7266 11.5981 17.2829 12.0249C17.5429 12.2244 17.7756 12.4571 17.9751 12.7171C18.4019 13.2734 18.5828 13.9219 18.6678 14.6762C18.75 15.4057 18.75 16.3204 18.75 17.4548V18.331C20.5 17.6559 21.8608 16.2265 22.4441 14.4314C22.75 13.4899 22.75 12.3266 22.75 10C22.75 7.6734 22.75 6.5101 22.4441 5.56864C21.8259 3.66591 20.3341 2.17413 18.4314 1.5559C17.4899 1.25 16.3266 1.25 14 1.25H10C7.6734 1.25 6.5101 1.25 5.56864 1.5559C3.66591 2.17413 2.17413 3.66591 1.5559 5.56864Z" fill="#020203"/>
<path fill-rule="evenodd" clip-rule="evenodd" d="M12.4945 6.5C12.4945 5.94772 12.9422 5.5 13.4945 5.5H13.5035C14.0558 5.5 14.5035 5.94772 14.5035 6.5C14.5035 7.05228 14.0558 7.5 13.5035 7.5H13.4945C12.9422 7.5 12.4945 7.05228 12.4945 6.5Z" fill="#020203"/>
<path fill-rule="evenodd" clip-rule="evenodd" d="M16.4945 6.5C16.4945 5.94772 16.9422 5.5 17.4945 5.5H17.5035C18.0558 5.5 18.5035 5.94772 18.5035 6.5C18.5035 7.05228 18.0558 7.5 17.5035 7.5H17.4945C16.9422 7.5 16.4945 7.05228 16.4945 6.5Z" fill="#020203"/>
<path fill-rule="evenodd" clip-rule="evenodd" d="M15 20.25C15.4142 20.25 15.75 20.5858 15.75 21L15.75 22C15.75 22.4142 15.4142 22.75 15 22.75C14.5858 22.75 14.25 22.4142 14.25 22L14.25 21C14.25 20.5858 14.5858 20.25 15 20.25Z" fill="#020203"/>
<path fill-rule="evenodd" clip-rule="evenodd" d="M12 20.25C12.4142 20.25 12.75 20.5858 12.75 21L12.75 22C12.75 22.4142 12.4142 22.75 12 22.75C11.5858 22.75 11.25 22.4142 11.25 22L11.25 21C11.25 20.5858 11.5858 20.25 12 20.25Z" fill="#020203"/>
<path fill-rule="evenodd" clip-rule="evenodd" d="M9 20.25C9.41421 20.25 9.75 20.5858 9.75 21L9.75 22C9.75 22.4142 9.41421 22.75 9 22.75C8.58579 22.75 8.25 22.4142 8.25 22L8.25 21C8.25 20.5858 8.58579 20.25 9 20.25Z" fill="#020203"/>
</svg>
