<svg width="24" height="24" viewBox="0 0 24 24" fill="none" xmlns="http://www.w3.org/2000/svg">
<path d="M5 18.399C3.78114 17.7771 2.83025 16.7183 2.34678 15.4221C2 14.4923 2 13.3282 2 11C2 8.67179 2 7.50769 2.34678 6.57795C2.90427 5.08326 4.08326 3.90427 5.57795 3.34678C6.50769 3 7.67179 3 10 3H14C16.3282 3 17.4923 3 18.4221 3.34678C19.9167 3.90427 21.0957 5.08326 21.6532 6.57795C22 7.50769 22 8.67179 22 11C22 13.3282 22 14.4923 21.6532 15.4221C21.1698 16.7183 20.2189 17.7771 19 18.399" stroke="#020203" stroke-width="1.5" stroke-linecap="round"/>
<path d="M16 21L13.7143 18.0975C12.6667 16.6342 11.3333 16.6342 10.2857 18.0975L8 21" stroke="#020203" stroke-width="1.5" stroke-linecap="round"/>
</svg>
