<svg width="24" height="24" viewBox="0 0 24 24" fill="none" xmlns="http://www.w3.org/2000/svg">
<path fill-rule="evenodd" clip-rule="evenodd" d="M14.3137 17.6464L16.5892 20.536C16.8455 20.8614 16.7894 21.333 16.464 21.5892C16.1386 21.8455 15.667 21.7894 15.4108 21.464L13.1144 18.548L13.1045 18.5341C12.6575 17.9097 12.2611 17.75 12 17.75C11.7389 17.75 11.3425 17.9097 10.8955 18.5341L10.8856 18.548L8.58923 21.464C8.33296 21.7894 7.86141 21.8455 7.53598 21.5892C7.21056 21.333 7.1545 20.8614 7.41077 20.536L9.68629 17.6464C10.2857 16.8154 11.076 16.25 12 16.25C12.924 16.25 13.7143 16.8154 14.3137 17.6464Z" fill="#020203"/>
<path d="M1.5559 6.56864C1.25 7.5101 1.25 8.6734 1.25 11C1.25 13.3266 1.25 14.4899 1.5559 15.4314C2.17413 17.3341 3.66591 18.8259 5.56864 19.4441C5.93139 19.562 6.32708 19.6344 6.80955 19.679L9.07744 16.7773C9.83456 15.7195 10.8328 15 12 15C13.1672 15 14.1654 15.7195 14.9226 16.7773L17.1905 19.679C17.6729 19.6344 18.0686 19.562 18.4314 19.4441C20.3341 18.8259 21.8259 17.3341 22.4441 15.4314C22.75 14.4899 22.75 13.3266 22.75 11C22.75 8.6734 22.75 7.5101 22.4441 6.56864C21.8259 4.66591 20.3341 3.17413 18.4314 2.5559C17.4899 2.25 16.3266 2.25 14 2.25H10C7.6734 2.25 6.5101 2.25 5.56864 2.5559C3.66591 3.17413 2.17413 4.66591 1.5559 6.56864Z" fill="#020203"/>
</svg>
