<svg width="24" height="24" viewBox="0 0 24 24" fill="none" xmlns="http://www.w3.org/2000/svg">
<path opacity="0.4" fill-rule="evenodd" clip-rule="evenodd" d="M2.25 13C2.25 18.3848 6.61522 22.75 12 22.75C17.3848 22.75 21.75 18.3848 21.75 13C21.75 7.61522 17.3848 3.25 12 3.25C6.61522 3.25 2.25 7.61522 2.25 13Z" fill="#020203"/>
<path fill-rule="evenodd" clip-rule="evenodd" d="M18.4697 1.46967C18.7626 1.17678 19.2374 1.17678 19.5303 1.46967L22.5303 4.46967C22.8232 4.76256 22.8232 5.23744 22.5303 5.53033C22.2374 5.82322 21.7626 5.82322 21.4697 5.53033L18.4697 2.53033C18.1768 2.23744 18.1768 1.76256 18.4697 1.46967Z" fill="#020203"/>
<path fill-rule="evenodd" clip-rule="evenodd" d="M5.53033 1.46967C5.82322 1.76256 5.82322 2.23744 5.53033 2.53033L2.53033 5.53033C2.23744 5.82322 1.76256 5.82322 1.46967 5.53033C1.17678 5.23744 1.17678 4.76256 1.46967 4.46967L4.46967 1.46967C4.76256 1.17678 5.23744 1.17678 5.53033 1.46967Z" fill="#020203"/>
<path fill-rule="evenodd" clip-rule="evenodd" d="M12 8.75C12.4142 8.75 12.75 9.08579 12.75 9.5V12.1265C12.75 13.091 13.1784 14.0057 13.9194 14.6232L15.4801 15.9238C15.7983 16.189 15.8413 16.6619 15.5762 16.9801C15.311 17.2983 14.8381 17.3413 14.5199 17.0762L12.9591 15.7756C11.8762 14.8731 11.25 13.5362 11.25 12.1265V9.5C11.25 9.08579 11.5858 8.75 12 8.75Z" fill="#020203"/>
</svg>
