<svg width="24" height="24" viewBox="0 0 24 24" fill="none" xmlns="http://www.w3.org/2000/svg">
<path fill-rule="evenodd" clip-rule="evenodd" d="M1.25 12C1.25 11.5858 1.58579 11.25 2 11.25H4C4.41421 11.25 4.75 11.5858 4.75 12C4.75 12.4142 4.41421 12.75 4 12.75H2C1.58579 12.75 1.25 12.4142 1.25 12Z" fill="#020203"/>
<path fill-rule="evenodd" clip-rule="evenodd" d="M19.25 12C19.25 11.5858 19.5858 11.25 20 11.25H22C22.4142 11.25 22.75 11.5858 22.75 12C22.75 12.4142 22.4142 12.75 22 12.75H20C19.5858 12.75 19.25 12.4142 19.25 12Z" fill="#020203"/>
<path fill-rule="evenodd" clip-rule="evenodd" d="M9.25 12C9.25 11.5858 9.58579 11.25 10 11.25L14 11.25C14.4142 11.25 14.75 11.5858 14.75 12C14.75 12.4142 14.4142 12.75 14 12.75L10 12.75C9.58579 12.75 9.25 12.4142 9.25 12Z" fill="#020203"/>
<path d="M3 7.25C3 5.04086 4.79086 3.25 7 3.25C9.20914 3.25 11 5.04086 11 7.25V16.75C11 18.9591 9.20914 20.75 7 20.75C4.79086 20.75 3 18.9591 3 16.75V7.25Z" fill="#020203"/>
<path d="M13 9.25C13 7.04086 14.7909 5.25 17 5.25C19.2091 5.25 21 7.04086 21 9.25V14.75C21 16.9591 19.2091 18.75 17 18.75C14.7909 18.75 13 16.9591 13 14.75V9.25Z" fill="#020203"/>
</svg>
