<svg width="24" height="24" viewBox="0 0 24 24" fill="none" xmlns="http://www.w3.org/2000/svg">
<path fill-rule="evenodd" clip-rule="evenodd" d="M2 1.25C2.41421 1.25 2.75 1.58579 2.75 2V22C2.75 22.4142 2.41421 22.75 2 22.75C1.58579 22.75 1.25 22.4142 1.25 22V2C1.25 1.58579 1.58579 1.25 2 1.25Z" fill="#020203"/>
<path d="M5.25 17C5.25 14.7909 7.04086 13 9.25 13H14.75C16.9591 13 18.75 14.7909 18.75 17C18.75 19.2091 16.9591 21 14.75 21H9.25C7.04086 21 5.25 19.2091 5.25 17Z" fill="#020203"/>
<path d="M5.25 7C5.25 4.79086 7.04086 3 9.25 3H18.75C20.9591 3 22.75 4.79086 22.75 7C22.75 9.20914 20.9591 11 18.75 11H9.25C7.04086 11 5.25 9.20914 5.25 7Z" fill="#020203"/>
</svg>
