<svg width="24" height="24" viewBox="0 0 24 24" fill="none" xmlns="http://www.w3.org/2000/svg">
<path opacity="0.4" fill-rule="evenodd" clip-rule="evenodd" d="M1.25 22C1.25 21.5858 1.58579 21.25 2 21.25L22 21.25C22.4142 21.25 22.75 21.5858 22.75 22C22.75 22.4142 22.4142 22.75 22 22.75L2 22.75C1.58579 22.75 1.25 22.4142 1.25 22Z" fill="#020203"/>
<path d="M3 5.25C3 3.04086 4.79086 1.25 7 1.25C9.20914 1.25 11 3.04086 11 5.25V14.75C11 16.9591 9.20914 18.75 7 18.75C4.79086 18.75 3 16.9591 3 14.75V5.25Z" fill="#020203"/>
<path d="M13 9.25C13 7.04086 14.7909 5.25 17 5.25C19.2091 5.25 21 7.04086 21 9.25V14.75C21 16.9591 19.2091 18.75 17 18.75C14.7909 18.75 13 16.9591 13 14.75V9.25Z" fill="#020203"/>
</svg>
