<svg width="24" height="24" viewBox="0 0 24 24" fill="none" xmlns="http://www.w3.org/2000/svg">
<path opacity="0.4" d="M22 2V22" stroke="#020203" stroke-width="1.5" stroke-linecap="round"/>
<path d="M6 17C6 15.2051 7.45507 13.75 9.25 13.75H14.75C16.5449 13.75 18 15.2051 18 17C18 18.7949 16.5449 20.25 14.75 20.25H9.25C7.45507 20.25 6 18.7949 6 17Z" stroke="#020203" stroke-width="1.5"/>
<path d="M2 7C2 5.20507 3.45507 3.75 5.25 3.75H14.75C16.5449 3.75 18 5.20507 18 7C18 8.79493 16.5449 10.25 14.75 10.25H5.25C3.45507 10.25 2 8.79493 2 7Z" stroke="#020203" stroke-width="1.5"/>
</svg>
