<svg width="24" height="24" viewBox="0 0 24 24" fill="none" xmlns="http://www.w3.org/2000/svg">
<path opacity="0.4" fill-rule="evenodd" clip-rule="evenodd" d="M1.25 2C1.25 1.58579 1.58579 1.25 2 1.25L22 1.25C22.4142 1.25 22.75 1.58579 22.75 2C22.75 2.41421 22.4142 2.75 22 2.75L2 2.75C1.58579 2.75 1.25 2.41421 1.25 2Z" fill="#020203"/>
<path d="M3 9.25C3 7.04086 4.79086 5.25 7 5.25C9.20914 5.25 11 7.04086 11 9.25V18.75C11 20.9591 9.20914 22.75 7 22.75C4.79086 22.75 3 20.9591 3 18.75V9.25Z" fill="#020203"/>
<path d="M13 9.25C13 7.04086 14.7909 5.25 17 5.25C19.2091 5.25 21 7.04086 21 9.25V14.75C21 16.9591 19.2091 18.75 17 18.75C14.7909 18.75 13 16.9591 13 14.75V9.25Z" fill="#020203"/>
</svg>
