<svg width="24" height="24" viewBox="0 0 24 24" fill="none" xmlns="http://www.w3.org/2000/svg">
<path fill-rule="evenodd" clip-rule="evenodd" d="M12 1.25C12.4142 1.25 12.75 1.58579 12.75 2L12.75 4C12.75 4.41421 12.4142 4.75 12 4.75C11.5858 4.75 11.25 4.41421 11.25 4L11.25 2C11.25 1.58579 11.5858 1.25 12 1.25Z" fill="#020203"/>
<path fill-rule="evenodd" clip-rule="evenodd" d="M12 19.25C12.4142 19.25 12.75 19.5858 12.75 20L12.75 22C12.75 22.4142 12.4142 22.75 12 22.75C11.5858 22.75 11.25 22.4142 11.25 22L11.25 20C11.25 19.5858 11.5858 19.25 12 19.25Z" fill="#020203"/>
<path fill-rule="evenodd" clip-rule="evenodd" d="M12 9.25C12.4142 9.25 12.75 9.58579 12.75 10L12.75 14C12.75 14.4142 12.4142 14.75 12 14.75C11.5858 14.75 11.25 14.4142 11.25 14L11.25 10C11.25 9.58579 11.5858 9.25 12 9.25Z" fill="#020203"/>
<path d="M5.25 17C5.25 14.7909 7.04086 13 9.25 13H14.75C16.9591 13 18.75 14.7909 18.75 17C18.75 19.2091 16.9591 21 14.75 21H9.25C7.04086 21 5.25 19.2091 5.25 17Z" fill="#020203"/>
<path d="M3.25 7C3.25 4.79086 5.04086 3 7.25 3H16.75C18.9591 3 20.75 4.79086 20.75 7C20.75 9.20914 18.9591 11 16.75 11H7.25C5.04086 11 3.25 9.20914 3.25 7Z" fill="#020203"/>
</svg>
