<svg width="24" height="24" viewBox="0 0 24 24" fill="none" xmlns="http://www.w3.org/2000/svg">
<path d="M12 2L12 3" stroke="#020203" stroke-width="1.5" stroke-linecap="round"/>
<path d="M12 21L12 22" stroke="#020203" stroke-width="1.5" stroke-linecap="round"/>
<path d="M12 11L12 13" stroke="#020203" stroke-width="1.5" stroke-linecap="round"/>
<path d="M18 17C18 18.7949 16.5449 20.25 14.75 20.25H9.25C7.45507 20.25 6 18.7949 6 17C6 15.2051 7.45507 13.75 9.25 13.75H14.75C16.5449 13.75 18 15.2051 18 17Z" stroke="#020203" stroke-width="1.5"/>
<path d="M20 7C20 8.79493 18.5449 10.25 16.75 10.25H7.25C5.45507 10.25 4 8.79493 4 7C4 5.20507 5.45507 3.75 7.25 3.75L16.75 3.75C18.5449 3.75 20 5.20507 20 7Z" stroke="#020203" stroke-width="1.5"/>
</svg>
