<svg width="24" height="24" viewBox="0 0 24 24" fill="none" xmlns="http://www.w3.org/2000/svg">
<path opacity="0.4" d="M2 2L22 2" stroke="#020203" stroke-width="1.5" stroke-linecap="round"/>
<path d="M17 18C15.2051 18 13.75 16.5449 13.75 14.75V9.25C13.75 7.45507 15.2051 6 17 6C18.7949 6 20.25 7.45507 20.25 9.25V14.75C20.25 16.5449 18.7949 18 17 18Z" stroke="#020203" stroke-width="1.5"/>
<path d="M7 22C5.20507 22 3.75 20.5449 3.75 18.75V9.25C3.75 7.45507 5.20507 6 7 6C8.79493 6 10.25 7.45507 10.25 9.25V18.75C10.25 20.5449 8.79493 22 7 22Z" stroke="#020203" stroke-width="1.5"/>
</svg>
