<svg width="24" height="24" viewBox="0 0 24 24" fill="none" xmlns="http://www.w3.org/2000/svg">
<path fill-rule="evenodd" clip-rule="evenodd" d="M22 1.25C22.4142 1.25 22.75 1.58579 22.75 2V22C22.75 22.4142 22.4142 22.75 22 22.75C21.5858 22.75 21.25 22.4142 21.25 22V2C21.25 1.58579 21.5858 1.25 22 1.25Z" fill="#020203"/>
<path d="M5.25 17C5.25 14.7909 7.04086 13 9.25 13H14.75C16.9591 13 18.75 14.7909 18.75 17C18.75 19.2091 16.9591 21 14.75 21H9.25C7.04086 21 5.25 19.2091 5.25 17Z" fill="#020203"/>
<path d="M1.25 7C1.25 4.79086 3.04086 3 5.25 3H14.75C16.9591 3 18.75 4.79086 18.75 7C18.75 9.20914 16.9591 11 14.75 11H5.25C3.04086 11 1.25 9.20914 1.25 7Z" fill="#020203"/>
</svg>
