<svg width="24" height="24" viewBox="0 0 24 24" fill="none" xmlns="http://www.w3.org/2000/svg">
<path opacity="0.4" d="M1.25 12C1.25 17.9371 6.06294 22.75 12 22.75C17.9371 22.75 22.75 17.9371 22.75 12C22.75 6.06294 17.9371 1.25 12 1.25C6.06294 1.25 1.25 6.06294 1.25 12Z" fill="#020203"/>
<path fill-rule="evenodd" clip-rule="evenodd" d="M17.7115 9.76283C17.8425 10.1558 17.6301 10.5805 17.2372 10.7115L14.2372 11.7115C13.8442 11.8425 13.4195 11.6301 13.2885 11.2372C13.1575 10.8442 13.3699 10.4195 13.7628 10.2885L16.7628 9.28849C17.1558 9.1575 17.5805 9.36987 17.7115 9.76283Z" fill="#020203"/>
<path fill-rule="evenodd" clip-rule="evenodd" d="M6.28851 9.76283C6.41949 9.36987 6.84423 9.1575 7.23719 9.28849L10.2372 10.2885C10.6301 10.4195 10.8425 10.8442 10.7115 11.2372C10.5805 11.6301 10.1558 11.8425 9.76285 11.7115L6.76285 10.7115C6.36989 10.5805 6.15752 10.1558 6.28851 9.76283Z" fill="#020203"/>
<path fill-rule="evenodd" clip-rule="evenodd" d="M7.49451 11.5C7.49451 10.9477 7.94222 10.5 8.49451 10.5H8.50349C9.05577 10.5 9.50349 10.9477 9.50349 11.5C9.50349 12.0523 9.05577 12.5 8.50349 12.5H8.49451C7.94222 12.5 7.49451 12.0523 7.49451 11.5Z" fill="#020203"/>
<path fill-rule="evenodd" clip-rule="evenodd" d="M14.4945 11.5C14.4945 10.9477 14.9422 10.5 15.4945 10.5H15.5035C16.0558 10.5 16.5035 10.9477 16.5035 11.5C16.5035 12.0523 16.0558 12.5 15.5035 12.5H15.4945C14.9422 12.5 14.4945 12.0523 14.4945 11.5Z" fill="#020203"/>
<path fill-rule="evenodd" clip-rule="evenodd" d="M14.6645 17.4209C12.8757 16.5263 11.1243 16.5264 9.33541 17.4209C8.96493 17.6061 8.51442 17.456 8.32917 17.0855C8.14392 16.715 8.29407 16.2645 8.66455 16.0793C10.8757 14.9736 13.1242 14.9735 15.3354 16.0793C15.7059 16.2645 15.856 16.7151 15.6708 17.0855C15.4855 17.456 15.035 17.6061 14.6645 17.4209Z" fill="#020203"/>
</svg>
