<svg width="24" height="24" viewBox="0 0 24 24" fill="none" xmlns="http://www.w3.org/2000/svg">
<path fill-rule="evenodd" clip-rule="evenodd" d="M12 22.75C6.06294 22.75 1.25 17.9371 1.25 12C1.25 6.06294 6.06294 1.25 12 1.25C17.9371 1.25 22.75 6.06294 22.75 12C22.75 17.9371 17.9371 22.75 12 22.75ZM17.2372 10.7115C17.6301 10.5805 17.8425 10.1558 17.7115 9.76283C17.5805 9.36987 17.1558 9.1575 16.7628 9.28849L13.7628 10.2885C13.3699 10.4195 13.1575 10.8442 13.2885 11.2372C13.4195 11.6301 13.8442 11.8425 14.2372 11.7115L14.502 11.6232C14.5627 12.1174 14.9839 12.5 15.4945 12.5H15.5035C16.0558 12.5 16.5035 12.0523 16.5035 11.5C16.5035 11.3181 16.4549 11.1475 16.37 11.0006L17.2372 10.7115ZM6.28849 9.76283C6.41947 9.36987 6.84421 9.1575 7.23717 9.28849L10.2372 10.2885C10.6301 10.4195 10.8425 10.8442 10.7115 11.2372C10.5805 11.6301 10.1558 11.8425 9.76283 11.7115L9.49605 11.6226C9.43561 12.117 9.01427 12.5 8.50349 12.5H8.49451C7.94222 12.5 7.49451 12.0523 7.49451 11.5C7.49451 11.3179 7.5432 11.1471 7.62829 11L6.76283 10.7115C6.36987 10.5805 6.1575 10.1558 6.28849 9.76283ZM9.33543 17.4209C11.1243 16.5264 12.8757 16.5263 14.6645 17.4209C15.035 17.6061 15.4855 17.456 15.6708 17.0855C15.8561 16.7151 15.7059 16.2645 15.3355 16.0793C13.1243 14.9735 10.8757 14.9736 8.66457 16.0793C8.29409 16.2645 8.14394 16.715 8.32919 17.0855C8.51444 17.456 8.96495 17.6061 9.33543 17.4209Z" fill="#020203"/>
</svg>
