<svg width="24" height="24" viewBox="0 0 24 24" fill="none" xmlns="http://www.w3.org/2000/svg">
<path d="M10.0462 5.14868L11.4181 5.63363C11.7946 5.76671 12.2054 5.76671 12.5819 5.63363L13.9538 5.14868C15.5151 4.59681 17.2531 4.94088 18.4864 6.04598C20.4042 7.76448 21.5 10.2179 21.5 12.793V13.2104C21.5 15.774 20.5148 18.2396 18.7482 20.0973L18.5336 20.323C17.1186 21.811 14.9808 22.3651 13.0212 21.7518L12.4713 21.5797C12.1644 21.4836 11.8356 21.4836 11.5287 21.5797L10.9788 21.7518C9.01921 22.3651 6.88137 21.811 5.4664 20.323L5.25178 20.0973C3.48516 18.2396 2.5 15.774 2.5 13.2104V12.793C2.5 10.2179 3.59585 7.76448 5.51363 6.04598C6.74689 4.94088 8.48489 4.59681 10.0462 5.14868Z" stroke="#020203" stroke-width="1.5" stroke-linecap="round"/>
<path d="M13.5 2L13.4142 2.08579C12.5087 2.99129 12 4.21942 12 5.5" stroke="#020203" stroke-width="1.5" stroke-linecap="round"/>
</svg>
