<svg width="24" height="24" viewBox="0 0 24 24" fill="none" xmlns="http://www.w3.org/2000/svg">
<path d="M9.89891 4.47014L11.5625 5.05933C11.8455 5.15959 12.1545 5.15959 12.4375 5.05933L14.1011 4.47014C15.7895 3.87215 17.6697 4.24473 19.0025 5.44139C21.0694 7.2971 22.25 9.94385 22.25 12.7215V13.1833C22.25 15.9549 21.1863 18.6208 19.2784 20.6311L19.0538 20.8677C17.5248 22.4787 15.212 23.0787 13.0927 22.4141L12.3522 22.1819C12.1229 22.11 11.8771 22.11 11.6478 22.1819L10.9073 22.4141C8.78797 23.0787 6.47516 22.4787 4.94616 20.8677L4.72163 20.6311C2.81367 18.6208 1.75 15.9549 1.75 13.1833V12.7215C1.75 9.94385 2.93064 7.2971 4.99747 5.44139C6.33027 4.24473 8.21049 3.87215 9.89891 4.47014Z" fill="#020203"/>
<path fill-rule="evenodd" clip-rule="evenodd" d="M14.0303 1.46967C14.3232 1.76256 14.3232 2.23744 14.0303 2.53033L13.9445 2.61612C13.1797 3.38097 12.75 4.41833 12.75 5.5C12.75 5.91421 12.4142 6.25 12 6.25C11.5858 6.25 11.25 5.91421 11.25 5.5C11.25 4.02051 11.8377 2.60161 12.8839 1.55546L12.9697 1.46967C13.2626 1.17678 13.7374 1.17678 14.0303 1.46967Z" fill="#020203"/>
</svg>
