<svg width="24" height="24" viewBox="0 0 24 24" fill="none" xmlns="http://www.w3.org/2000/svg">
<path fill-rule="evenodd" clip-rule="evenodd" d="M3.25 10C3.25 14.8325 7.16751 18.75 12 18.75C16.8325 18.75 20.75 14.8325 20.75 10C20.75 5.16751 16.8325 1.25 12 1.25C7.16751 1.25 3.25 5.16751 3.25 10ZM5.25 10C5.25 6.27208 8.27208 3.25 12 3.25C15.7279 3.25 18.75 6.27208 18.75 10C18.75 13.7279 15.7279 16.75 12 16.75C8.27208 16.75 5.25 13.7279 5.25 10Z" fill="#020203"/>
<path opacity="0.4" fill-rule="evenodd" clip-rule="evenodd" d="M12 4.75C9.1005 4.75 6.75 7.1005 6.75 10C6.75 12.8995 9.1005 15.25 12 15.25C14.8995 15.25 17.25 12.8995 17.25 10C17.25 7.1005 14.8995 4.75 12 4.75ZM12 7.25C10.4812 7.25 9.25 8.48122 9.25 10C9.25 11.5188 10.4812 12.75 12 12.75C13.5188 12.75 14.75 11.5188 14.75 10C14.75 8.48122 13.5188 7.25 12 7.25Z" fill="#020203"/>
<path d="M10.75 10C10.75 9.30964 11.3096 8.75 12 8.75C12.6904 8.75 13.25 9.30964 13.25 10C13.25 10.6904 12.6904 11.25 12 11.25C11.3096 11.25 10.75 10.6904 10.75 10Z" fill="#020203"/>
<path opacity="0.32" fill-rule="evenodd" clip-rule="evenodd" d="M9.38586 16.3569C9.74105 16.57 9.85622 17.0307 9.64311 17.3859L6.64311 22.3859C6.43 22.7411 5.9693 22.8562 5.61412 22.6431C5.25893 22.43 5.14376 21.9693 5.35687 21.6141L8.35687 16.6141C8.56998 16.2589 9.03068 16.1438 9.38586 16.3569Z" fill="#020203"/>
<path opacity="0.32" fill-rule="evenodd" clip-rule="evenodd" d="M14.6141 16.3569C14.259 16.57 14.1438 17.0307 14.3569 17.3859L17.3569 22.3859C17.57 22.7411 18.0307 22.8562 18.3859 22.6431C18.7411 22.43 18.8562 21.9693 18.6431 21.6141L15.6431 16.6141C15.43 16.2589 14.9693 16.1438 14.6141 16.3569Z" fill="#020203"/>
<path fill-rule="evenodd" clip-rule="evenodd" d="M6.25 21C6.25 20.5858 6.58579 20.25 7 20.25H17C17.4142 20.25 17.75 20.5858 17.75 21C17.75 21.4142 17.4142 21.75 17 21.75H7C6.58579 21.75 6.25 21.4142 6.25 21Z" fill="#020203"/>
</svg>
