<svg width="24" height="24" viewBox="0 0 24 24" fill="none" xmlns="http://www.w3.org/2000/svg">
<path d="M4 10C4 14.4183 7.58172 18 12 18C16.4183 18 20 14.4183 20 10C20 5.58172 16.4183 2 12 2C7.58172 2 4 5.58172 4 10Z" stroke="#020203" stroke-width="1.5" stroke-linecap="round"/>
<path opacity="0.4" d="M7 10C7 12.7614 9.23858 15 12 15C14.7614 15 17 12.7614 17 10C17 7.23858 14.7614 5 12 5C9.23858 5 7 7.23858 7 10Z" stroke="#020203" stroke-width="1.5" stroke-linecap="round"/>
<path d="M10 10C10 11.1046 10.8954 12 12 12C13.1046 12 14 11.1046 14 10C14 8.89543 13.1046 8 12 8C10.8954 8 10 8.89543 10 10Z" stroke="#020203" stroke-width="1.5" stroke-linecap="round"/>
<path opacity="0.4" d="M7 21H17" stroke="#020203" stroke-width="1.5" stroke-linecap="round"/>
<path d="M6 22L8.7 17.5" stroke="#020203" stroke-width="1.5" stroke-linecap="round"/>
<path d="M18 22L15.3 17.5" stroke="#020203" stroke-width="1.5" stroke-linecap="round"/>
</svg>
