<svg width="24" height="24" viewBox="0 0 24 24" fill="none" xmlns="http://www.w3.org/2000/svg">
<path fill-rule="evenodd" clip-rule="evenodd" d="M18.5 18.25C18.9142 18.25 19.25 18.5858 19.25 19L19.25 22C19.25 22.4142 18.9142 22.75 18.5 22.75C18.0858 22.75 17.75 22.4142 17.75 22L17.75 19C17.75 18.5858 18.0858 18.25 18.5 18.25Z" fill="#020203"/>
<path fill-rule="evenodd" clip-rule="evenodd" d="M5.5 18.25C5.91421 18.25 6.25 18.5858 6.25 19L6.25 22C6.25 22.4142 5.91421 22.75 5.5 22.75C5.08579 22.75 4.75 22.4142 4.75 22L4.75 19C4.75 18.5858 5.08579 18.25 5.5 18.25Z" fill="#020203"/>
<path d="M15.3875 20.75C14.5324 19.9309 14 18.7776 14 17.5V15.75H10V17.5C10 18.7776 9.46757 19.9309 8.61248 20.75H15.3875Z" fill="#020203"/>
<path fill-rule="evenodd" clip-rule="evenodd" d="M9.82412 14.25H14.1759C14.7176 12.3729 16.4485 11 18.5 11C18.9337 11 19.3531 11.0614 19.75 11.1759V9C19.75 7.37317 19.75 6.55976 19.5933 5.88754C19.0745 3.6627 17.3373 1.9255 15.1125 1.40674C14.4402 1.25 13.6268 1.25 12 1.25C10.3732 1.25 9.55976 1.25 8.88754 1.40674C6.6627 1.9255 4.9255 3.6627 4.40674 5.88754C4.25 6.55976 4.25 7.37317 4.25 9V11.1759C4.64686 11.0614 5.06627 11 5.5 11C7.55155 11 9.28244 12.3729 9.82412 14.25ZM9.99451 5.5C9.44222 5.5 8.99451 5.94772 8.99451 6.5C8.99451 7.05228 9.44222 7.5 9.99451 7.5H10.0035C10.5558 7.5 11.0035 7.05228 11.0035 6.5C11.0035 5.94772 10.5558 5.5 10.0035 5.5H9.99451ZM8.99451 10.5C8.99451 9.94771 9.44222 9.5 9.99451 9.5H10.0035C10.5558 9.5 11.0035 9.94771 11.0035 10.5C11.0035 11.0523 10.5558 11.5 10.0035 11.5H9.99451C9.44222 11.5 8.99451 11.0523 8.99451 10.5ZM13.9926 5.5C13.4403 5.5 12.9926 5.94772 12.9926 6.5C12.9926 7.05228 13.4403 7.5 13.9926 7.5H14.0015C14.5538 7.5 15.0015 7.05228 15.0015 6.5C15.0015 5.94772 14.5538 5.5 14.0015 5.5H13.9926ZM12.9926 10.5C12.9926 9.94771 13.4403 9.5 13.9926 9.5H14.0015C14.5538 9.5 15.0015 9.94771 15.0015 10.5C15.0015 11.0523 14.5538 11.5 14.0015 11.5H13.9926C13.4403 11.5 12.9926 11.0523 12.9926 10.5Z" fill="#020203"/>
<path d="M2.25 15.5C2.25 13.7051 3.70507 12.25 5.5 12.25C7.29493 12.25 8.75 13.7051 8.75 15.5V17.5C8.75 19.2949 7.29493 20.75 5.5 20.75C3.70507 20.75 2.25 19.2949 2.25 17.5V15.5Z" fill="#020203"/>
<path d="M15.25 15.5C15.25 13.7051 16.7051 12.25 18.5 12.25C20.2949 12.25 21.75 13.7051 21.75 15.5V17.5C21.75 19.2949 20.2949 20.75 18.5 20.75C16.7051 20.75 15.25 19.2949 15.25 17.5V15.5Z" fill="#020203"/>
</svg>
