<svg width="24" height="24" viewBox="0 0 24 24" fill="none" xmlns="http://www.w3.org/2000/svg">
<path d="M18.5 20L18.5 22" stroke="#020203" stroke-width="1.5" stroke-linecap="round"/>
<path d="M5.5 20L5.5 22" stroke="#020203" stroke-width="1.5" stroke-linecap="round"/>
<path d="M19 13V9C19 7.37255 19 6.55882 18.8211 5.8912C18.3357 4.07947 16.9205 2.66434 15.1088 2.17889C14.4412 2 13.6274 2 12 2C10.3725 2 9.55882 2 8.8912 2.17889C7.07947 2.66434 5.66434 4.07947 5.17889 5.8912C5 6.55882 5 7.37255 5 9V13" stroke="#020203" stroke-width="1.5" stroke-linecap="round"/>
<path d="M8 15H16" stroke="#020203" stroke-width="1.5" stroke-linecap="round"/>
<path d="M9.99451 6.5H10.0035" stroke="#020203" stroke-width="2" stroke-linecap="round" stroke-linejoin="round"/>
<path d="M9.99451 10.5H10.0035" stroke="#020203" stroke-width="2" stroke-linecap="round" stroke-linejoin="round"/>
<path d="M13.9926 6.5H14.0015" stroke="#020203" stroke-width="2" stroke-linecap="round" stroke-linejoin="round"/>
<path d="M13.9926 10.5H14.0015" stroke="#020203" stroke-width="2" stroke-linecap="round" stroke-linejoin="round"/>
<path d="M5 20H19" stroke="#020203" stroke-width="1.5" stroke-linecap="round"/>
<path d="M3 15.5C3 14.1193 4.11929 13 5.5 13C6.88071 13 8 14.1193 8 15.5V17.5C8 18.8807 6.88071 20 5.5 20C4.11929 20 3 18.8807 3 17.5V15.5Z" stroke="#020203" stroke-width="1.5"/>
<path d="M16 15.5C16 14.1193 17.1193 13 18.5 13C19.8807 13 21 14.1193 21 15.5V17.5C21 18.8807 19.8807 20 18.5 20C17.1193 20 16 18.8807 16 17.5V15.5Z" stroke="#020203" stroke-width="1.5"/>
</svg>
