<svg width="24" height="24" viewBox="0 0 24 24" fill="none" xmlns="http://www.w3.org/2000/svg">
<path opacity="0.4" fill-rule="evenodd" clip-rule="evenodd" d="M12 3.10999C12.4142 3.10999 12.75 3.44577 12.75 3.85999L12.75 19.86C12.75 20.2742 12.4142 20.61 12 20.61C11.5858 20.61 11.25 20.2742 11.25 19.86L11.25 3.85999C11.25 3.44577 11.5858 3.10999 12 3.10999Z" fill="#020203"/>
<path fill-rule="evenodd" clip-rule="evenodd" d="M5.96967 14.8297C6.26256 14.5368 6.73744 14.5368 7.03033 14.8297L11.2929 19.0922C11.6834 19.4828 12.3166 19.4828 12.7071 19.0922L16.9697 14.8297C17.2626 14.5368 17.7374 14.5368 18.0303 14.8297C18.3232 15.1226 18.3232 15.5974 18.0303 15.8903L13.7678 20.1529C12.7915 21.1292 11.2085 21.1292 10.2322 20.1529L5.96967 15.8903C5.67678 15.5974 5.67678 15.1226 5.96967 14.8297Z" fill="#020203"/>
</svg>
