<svg width="24" height="24" viewBox="0 0 24 24" fill="none" xmlns="http://www.w3.org/2000/svg">
<path fill-rule="evenodd" clip-rule="evenodd" d="M3.25 3C3.25 2.58579 3.58579 2.25 4 2.25H20C20.4142 2.25 20.75 2.58579 20.75 3C20.75 3.41421 20.4142 3.75 20 3.75H4C3.58579 3.75 3.25 3.41421 3.25 3Z" fill="#020203"/>
<path fill-rule="evenodd" clip-rule="evenodd" d="M12.5303 7.96967C12.2374 7.67678 11.7626 7.67678 11.4697 7.96967L9.53033 9.90901C9.23744 10.2019 8.76256 10.2019 8.46967 9.90901C8.17678 9.61612 8.17678 9.14124 8.46967 8.84835L10.409 6.90901C11.2877 6.03033 12.7123 6.03033 13.591 6.90901L15.5303 8.84835C15.8232 9.14124 15.8232 9.61612 15.5303 9.90901C15.2374 10.2019 14.7626 10.2019 14.4697 9.90901L12.5303 7.96967Z" fill="#020203"/>
<path fill-rule="evenodd" clip-rule="evenodd" d="M12 6.25C12.4142 6.25 12.75 6.58579 12.75 7V21C12.75 21.4142 12.4142 21.75 12 21.75C11.5858 21.75 11.25 21.4142 11.25 21V7C11.25 6.58579 11.5858 6.25 12 6.25Z" fill="#020203"/>
</svg>
