<svg width="24" height="24" viewBox="0 0 24 24" fill="none" xmlns="http://www.w3.org/2000/svg">
<path opacity="0.4" fill-rule="evenodd" clip-rule="evenodd" d="M4.1377 11.2526L20.1377 11.2526C20.5519 11.2526 20.8877 11.5883 20.8877 12.0026C20.8877 12.4168 20.5519 12.7526 20.1377 12.7526L4.1377 12.7526C3.72348 12.7526 3.3877 12.4168 3.3877 12.0026C3.3877 11.5884 3.72348 11.2526 4.1377 11.2526Z" fill="#020203"/>
<path fill-rule="evenodd" clip-rule="evenodd" d="M9.16532 5.96967C9.45821 6.26256 9.45821 6.73744 9.16532 7.03033L4.90276 11.2929C4.51223 11.6834 4.51223 12.3166 4.90276 12.7071L9.16532 16.9697C9.45821 17.2626 9.45821 17.7374 9.16532 18.0303C8.87243 18.3232 8.39755 18.3232 8.10466 18.0303L3.8421 13.7678C2.86579 12.7915 2.86579 11.2085 3.8421 10.2322L8.10466 5.96967C8.39755 5.67678 8.87243 5.67678 9.16532 5.96967Z" fill="#020203"/>
</svg>
