<svg width="24" height="24" viewBox="0 0 24 24" fill="none" xmlns="http://www.w3.org/2000/svg">
<path opacity="0.4" fill-rule="evenodd" clip-rule="evenodd" d="M3.10986 11.9974C3.10986 11.5832 3.44565 11.2474 3.85986 11.2474H19.8599C20.2741 11.2474 20.6099 11.5832 20.6099 11.9974C20.6099 12.4117 20.2741 12.7474 19.8599 12.7474H3.85986C3.44565 12.7474 3.10986 12.4117 3.10986 11.9974Z" fill="#020203"/>
<path fill-rule="evenodd" clip-rule="evenodd" d="M14.8322 5.96967C15.1251 5.67678 15.6 5.67678 15.8929 5.96967L20.1554 10.2322C21.1318 11.2085 21.1318 12.7915 20.1554 13.7678L15.8929 18.0303C15.6 18.3232 15.1251 18.3232 14.8322 18.0303C14.5393 17.7374 14.5393 17.2626 14.8322 16.9697L19.0948 12.7071C19.4853 12.3166 19.4853 11.6834 19.0948 11.2929L14.8322 7.03033C14.5393 6.73744 14.5393 6.26256 14.8322 5.96967Z" fill="#020203"/>
</svg>
