<svg width="24" height="24" viewBox="0 0 24 24" fill="none" xmlns="http://www.w3.org/2000/svg">
<path opacity="0.4" fill-rule="evenodd" clip-rule="evenodd" d="M11.9961 3.38904C12.4103 3.38904 12.7461 3.72482 12.7461 4.13904V20.139C12.7461 20.5533 12.4103 20.889 11.9961 20.889C11.5819 20.889 11.2461 20.5533 11.2461 20.139V4.13904C11.2461 3.72482 11.5819 3.38904 11.9961 3.38904Z" fill="#020203"/>
<path fill-rule="evenodd" clip-rule="evenodd" d="M10.2313 3.84319C11.2076 2.86688 12.7905 2.86688 13.7668 3.8432L18.0294 8.10576C18.3222 8.39865 18.3222 8.87352 18.0294 9.16642C17.7365 9.45931 17.2616 9.45931 16.9687 9.16642L12.7061 4.90386C12.3156 4.51333 11.6824 4.51333 11.2919 4.90385L7.02935 9.16642C6.73646 9.45931 6.26159 9.45931 5.96869 9.16642C5.6758 8.87352 5.6758 8.39865 5.96869 8.10576L10.2313 3.84319Z" fill="#020203"/>
</svg>
