<svg width="24" height="24" viewBox="0 0 24 24" fill="none" xmlns="http://www.w3.org/2000/svg">
<path fill-rule="evenodd" clip-rule="evenodd" d="M3.25 21C3.25 20.5858 3.58579 20.25 4 20.25H20C20.4142 20.25 20.75 20.5858 20.75 21C20.75 21.4142 20.4142 21.75 20 21.75H4C3.58579 21.75 3.25 21.4142 3.25 21Z" fill="#020203"/>
<path fill-rule="evenodd" clip-rule="evenodd" d="M8.46967 14.091C8.76256 13.7981 9.23744 13.7981 9.53033 14.091L11.4697 16.0303C11.7626 16.3232 12.2374 16.3232 12.5303 16.0303L14.4697 14.091C14.7626 13.7981 15.2374 13.7981 15.5303 14.091C15.8232 14.3839 15.8232 14.8587 15.5303 15.1516L13.591 17.091C12.7123 17.9697 11.2877 17.9697 10.409 17.091L8.46967 15.1516C8.17678 14.8587 8.17678 14.3839 8.46967 14.091Z" fill="#020203"/>
<path fill-rule="evenodd" clip-rule="evenodd" d="M12 2.25C12.4142 2.25 12.75 2.58579 12.75 3V17C12.75 17.4142 12.4142 17.75 12 17.75C11.5858 17.75 11.25 17.4142 11.25 17V3C11.25 2.58579 11.5858 2.25 12 2.25Z" fill="#020203"/>
</svg>
