<svg width="24" height="24" viewBox="0 0 24 24" fill="none" xmlns="http://www.w3.org/2000/svg">
<path fill-rule="evenodd" clip-rule="evenodd" d="M8.25 12C8.25 11.5858 8.58579 11.25 9 11.25L15 11.25C15.4142 11.25 15.75 11.5858 15.75 12C15.75 12.4142 15.4142 12.75 15 12.75L9 12.75C8.58579 12.75 8.25 12.4142 8.25 12Z" fill="#020203"/>
<path fill-rule="evenodd" clip-rule="evenodd" d="M1.25 12C1.25 7.71979 4.71979 4.25 9 4.25H9.5C9.91421 4.25 10.25 4.58579 10.25 5C10.25 5.41421 9.91421 5.75 9.5 5.75H9C5.54822 5.75 2.75 8.54822 2.75 12C2.75 15.4518 5.54822 18.25 9 18.25H9.5C9.91421 18.25 10.25 18.5858 10.25 19C10.25 19.4142 9.91421 19.75 9.5 19.75H9C4.71979 19.75 1.25 16.2802 1.25 12Z" fill="#020203"/>
<path fill-rule="evenodd" clip-rule="evenodd" d="M13.75 5C13.75 4.58579 14.0858 4.25 14.5 4.25H15C19.2802 4.25 22.75 7.71979 22.75 12C22.75 16.2802 19.2802 19.75 15 19.75H14.5C14.0858 19.75 13.75 19.4142 13.75 19C13.75 18.5858 14.0858 18.25 14.5 18.25H15C18.4518 18.25 21.25 15.4518 21.25 12C21.25 8.54822 18.4518 5.75 15 5.75H14.5C14.0858 5.75 13.75 5.41421 13.75 5Z" fill="#020203"/>
</svg>
