<svg width="24" height="24" viewBox="0 0 24 24" fill="none" xmlns="http://www.w3.org/2000/svg">
<path fill-rule="evenodd" clip-rule="evenodd" d="M2 1.25C2.41421 1.25 2.75 1.58579 2.75 2V22C2.75 22.4142 2.41421 22.75 2 22.75C1.58579 22.75 1.25 22.4142 1.25 22V2C1.25 1.58579 1.58579 1.25 2 1.25Z" fill="#020203"/>
<path fill-rule="evenodd" clip-rule="evenodd" d="M22 1.25C22.4142 1.25 22.75 1.58579 22.75 2V22C22.75 22.4142 22.4142 22.75 22 22.75C21.5858 22.75 21.25 22.4142 21.25 22V2C21.25 1.58579 21.5858 1.25 22 1.25Z" fill="#020203"/>
<path fill-rule="evenodd" clip-rule="evenodd" d="M17 3.25C17.4142 3.25 17.75 3.58579 17.75 4L17.75 14C17.75 14.4142 17.4142 14.75 17 14.75C16.5858 14.75 16.25 14.4142 16.25 14L16.25 4C16.25 3.58579 16.5858 3.25 17 3.25Z" fill="#020203"/>
<path fill-rule="evenodd" clip-rule="evenodd" d="M12 3.25C12.4142 3.25 12.75 3.58579 12.75 4L12.75 14C12.75 14.4142 12.4142 14.75 12 14.75C11.5858 14.75 11.25 14.4142 11.25 14L11.25 4C11.25 3.58579 11.5858 3.25 12 3.25Z" fill="#020203"/>
<path fill-rule="evenodd" clip-rule="evenodd" d="M7 3.25C7.41421 3.25 7.75 3.58579 7.75 4L7.75 14C7.75 14.4142 7.41421 14.75 7 14.75C6.58579 14.75 6.25 14.4142 6.25 14L6.25 4C6.25 3.58579 6.58579 3.25 7 3.25Z" fill="#020203"/>
<path fill-rule="evenodd" clip-rule="evenodd" d="M1.25 19C1.25 18.5858 1.58579 18.25 2 18.25H22C22.4142 18.25 22.75 18.5858 22.75 19C22.75 19.4142 22.4142 19.75 22 19.75H2C1.58579 19.75 1.25 19.4142 1.25 19Z" fill="#020203"/>
<path opacity="0.4" fill-rule="evenodd" clip-rule="evenodd" d="M1.25 14C1.25 13.5858 1.58579 13.25 2 13.25H22C22.4142 13.25 22.75 13.5858 22.75 14C22.75 14.4142 22.4142 14.75 22 14.75H2C1.58579 14.75 1.25 14.4142 1.25 14Z" fill="#020203"/>
<path opacity="0.4" fill-rule="evenodd" clip-rule="evenodd" d="M21.7845 5.71837C15.402 3.80362 8.598 3.80362 2.21553 5.71837C1.81878 5.83739 1.40067 5.61225 1.28164 5.21551C1.16262 4.81876 1.38776 4.40065 1.7845 4.28163C8.44814 2.28254 15.5519 2.28254 22.2155 4.28163C22.6123 4.40065 22.8374 4.81876 22.7184 5.21551C22.5994 5.61225 22.1812 5.83739 21.7845 5.71837Z" fill="#020203"/>
</svg>
