<svg width="24" height="24" viewBox="0 0 24 24" fill="none" xmlns="http://www.w3.org/2000/svg">
<path fill-rule="evenodd" clip-rule="evenodd" d="M3 1.25C3.41421 1.25 3.75 1.58579 3.75 2V22C3.75 22.4142 3.41421 22.75 3 22.75C2.58579 22.75 2.25 22.4142 2.25 22V2C2.25 1.58579 2.58579 1.25 3 1.25Z" fill="#020203"/>
<path fill-rule="evenodd" clip-rule="evenodd" d="M21 1.25C21.4142 1.25 21.75 1.58579 21.75 2V22C21.75 22.4142 21.4142 22.75 21 22.75C20.5858 22.75 20.25 22.4142 20.25 22V2C20.25 1.58579 20.5858 1.25 21 1.25Z" fill="#020203"/>
<path fill-rule="evenodd" clip-rule="evenodd" d="M17 3.25C17.4142 3.25 17.75 3.58579 17.75 4L17.75 15C17.75 15.4142 17.4142 15.75 17 15.75C16.5858 15.75 16.25 15.4142 16.25 15L16.25 4C16.25 3.58579 16.5858 3.25 17 3.25Z" fill="#020203"/>
<path fill-rule="evenodd" clip-rule="evenodd" d="M12 3.25C12.4142 3.25 12.75 3.58579 12.75 4L12.75 15C12.75 15.4142 12.4142 15.75 12 15.75C11.5858 15.75 11.25 15.4142 11.25 15L11.25 4C11.25 3.58579 11.5858 3.25 12 3.25Z" fill="#020203"/>
<path fill-rule="evenodd" clip-rule="evenodd" d="M7 3.25C7.41421 3.25 7.75 3.58579 7.75 4L7.75 15C7.75 15.4142 7.41421 15.75 7 15.75C6.58579 15.75 6.25 15.4142 6.25 15L6.25 4C6.25 3.58579 6.58579 3.25 7 3.25Z" fill="#020203"/>
<path fill-rule="evenodd" clip-rule="evenodd" d="M1.25 22C1.25 21.5858 1.58579 21.25 2 21.25H4C4.41421 21.25 4.75 21.5858 4.75 22C4.75 22.4142 4.41421 22.75 4 22.75H2C1.58579 22.75 1.25 22.4142 1.25 22Z" fill="#020203"/>
<path fill-rule="evenodd" clip-rule="evenodd" d="M19.25 22C19.25 21.5858 19.5858 21.25 20 21.25H22C22.4142 21.25 22.75 21.5858 22.75 22C22.75 22.4142 22.4142 22.75 22 22.75H20C19.5858 22.75 19.25 22.4142 19.25 22Z" fill="#020203"/>
<path opacity="0.4" fill-rule="evenodd" clip-rule="evenodd" d="M2.25 15C2.25 14.5858 2.58579 14.25 3 14.25H21C21.4142 14.25 21.75 14.5858 21.75 15C21.75 15.4142 21.4142 15.75 21 15.75H3C2.58579 15.75 2.25 15.4142 2.25 15Z" fill="#020203"/>
<path opacity="0.4" fill-rule="evenodd" clip-rule="evenodd" d="M2.25 4C2.25 3.58579 2.58579 3.25 3 3.25H21C21.4142 3.25 21.75 3.58579 21.75 4C21.75 4.41421 21.4142 4.75 21 4.75H3C2.58579 4.75 2.25 4.41421 2.25 4Z" fill="#020203"/>
<path opacity="0.4" fill-rule="evenodd" clip-rule="evenodd" d="M2.25 10C2.25 9.58579 2.58579 9.25 3 9.25H21C21.4142 9.25 21.75 9.58579 21.75 10C21.75 10.4142 21.4142 10.75 21 10.75H3C2.58579 10.75 2.25 10.4142 2.25 10Z" fill="#020203"/>
</svg>
