<svg width="24" height="24" viewBox="0 0 24 24" fill="none" xmlns="http://www.w3.org/2000/svg">
<path fill-rule="evenodd" clip-rule="evenodd" d="M7.92911 22.75H16.071C20.5496 22.75 23.7865 18.4682 22.5652 14.1594L20.2462 5.97752C19.4535 3.18048 16.8998 1.25 13.9926 1.25H10.0076C7.10034 1.25 4.54666 3.18048 3.75389 5.97752L1.43491 14.1594C0.213644 18.4683 3.45048 22.75 7.92911 22.75ZM12.0001 11.75C14.0691 11.75 15.7457 10.0665 15.7501 8.00159C15.7509 7.58738 15.4159 7.25088 15.0017 7.25C14.5874 7.24912 14.2509 7.5842 14.2501 7.99841C14.2474 9.24024 13.2378 10.25 12.0001 10.25C10.7604 10.25 9.75006 9.24206 9.75006 8C9.75006 7.58579 9.41427 7.25 9.00006 7.25C8.58585 7.25 8.25006 7.58579 8.25006 8C8.25006 10.0716 9.93306 11.75 12.0001 11.75Z" fill="#020203"/>
</svg>
