<svg width="24" height="24" viewBox="0 0 24 24" fill="none" xmlns="http://www.w3.org/2000/svg">
<path opacity="0.4" d="M16.0709 22.75H7.92898C3.45036 22.75 0.213522 18.4683 1.43479 14.1594L3.75377 5.97752C4.54654 3.18048 7.10022 1.25 10.0074 1.25H13.9925C16.8997 1.25 19.4534 3.18048 20.2461 5.97752L22.5651 14.1594C23.7864 18.4682 20.5495 22.75 16.0709 22.75Z" fill="#020203"/>
<path fill-rule="evenodd" clip-rule="evenodd" d="M15.75 8.00159C15.7456 10.0665 14.069 11.75 12 11.75C9.933 11.75 8.25 10.0716 8.25 8C8.25 7.58579 8.58579 7.25 9 7.25C9.41421 7.25 9.75 7.58579 9.75 8C9.75 9.24206 10.7603 10.25 12 10.25C13.2377 10.25 14.2474 9.24024 14.25 7.99841C14.2509 7.5842 14.5874 7.24912 15.0016 7.25C15.4158 7.25088 15.7509 7.58738 15.75 8.00159Z" fill="#020203"/>
</svg>
