<svg width="24" height="24" viewBox="0 0 24 24" fill="none" xmlns="http://www.w3.org/2000/svg">
<path d="M9 20C9 18.8954 9.89543 18 11 18H13C14.1046 18 15 18.8954 15 20C15 21.1046 14.1046 22 13 22H11C9.89543 22 9 21.1046 9 20Z" stroke="#020203" stroke-width="1.5"/>
<path opacity="0.4" d="M13 18L16.5005 15.333C22.1545 11.0252 19.1081 2 12 2C4.89193 2 1.84552 11.0252 7.4995 15.333L11 18H13Z" stroke="#020203" stroke-width="1.5"/>
<path d="M6.5 14H17.5" stroke="#020203" stroke-width="1.5" stroke-linecap="round"/>
<path d="M9.19978 2.63391C7.80287 6.35898 8.09494 10.5074 9.99999 14" stroke="#020203" stroke-width="1.5" stroke-linecap="round"/>
<path d="M14.8002 2.63391C16.1971 6.35898 15.9051 10.5074 14 14" stroke="#020203" stroke-width="1.5" stroke-linecap="round"/>
</svg>
