<svg width="24" height="24" viewBox="0 0 24 24" fill="none" xmlns="http://www.w3.org/2000/svg">
<path d="M8.25 20C8.25 18.4812 9.48122 17.25 11 17.25H13C14.5188 17.25 15.75 18.4812 15.75 20C15.75 21.5188 14.5188 22.75 13 22.75H11C9.48122 22.75 8.25 21.5188 8.25 20Z" fill="#020203"/>
<path opacity="0.4" d="M13.5303 1.3835C13.0417 1.29609 12.531 1.25 12 1.25C11.469 1.25 10.9583 1.29609 10.4697 1.3835L9.90202 2.89726C8.63336 6.28035 8.83851 10.0329 10.4538 13.25H13.5462C15.1615 10.0329 15.3666 6.28035 14.098 2.89726L13.5303 1.3835Z" fill="#020203"/>
<path d="M15.2032 13.25C16.7112 9.81645 16.8305 5.91212 15.5025 2.37057L15.3375 1.93083C19.5967 3.79939 21.4519 9.1416 19.2332 13.25H15.2032Z" fill="#020203"/>
<path d="M4.76679 13.25C2.54803 9.1416 4.4033 3.79939 8.66243 1.93083L8.49753 2.37057C7.16945 5.91212 7.28875 9.81645 8.79673 13.25H4.76679Z" fill="#020203"/>
<path opacity="0.4" d="M13.9848 14.75C13.9945 14.7502 14.0042 14.7502 14.0139 14.75H18.1837C17.8751 15.0994 17.5287 15.4326 17.1429 15.7457L13.75 18.5H10.25L6.85702 15.7457C6.47131 15.4326 6.12485 15.0994 5.81625 14.75H9.98608C9.99578 14.7502 10.0055 14.7502 10.0152 14.75H13.9848Z" fill="#020203"/>
</svg>
