<svg width="24" height="24" viewBox="0 0 24 24" fill="none" xmlns="http://www.w3.org/2000/svg">
<path d="M12.75 9.63982C12.8995 9.72612 13.0637 9.8812 13.591 10.4085C14.1183 10.9359 14.2734 11.1001 14.3597 11.2495C14.6276 11.7136 14.6276 12.2854 14.3597 12.7495C14.2734 12.899 14.1183 13.0632 13.591 13.5905C13.0637 14.1178 12.8995 14.2729 12.75 14.3592C12.2859 14.6272 11.7141 14.6272 11.25 14.3592C11.1005 14.2729 10.9363 14.1178 10.409 13.5905C9.88167 13.0632 9.7266 12.899 9.6403 12.7495C9.37235 12.2854 9.37235 11.7136 9.6403 11.2495C9.7266 11.1001 9.88167 10.9359 10.409 10.4085C10.9363 9.8812 11.1005 9.72612 11.25 9.63982C11.7141 9.37188 12.2859 9.37188 12.75 9.63982Z" fill="#020203"/>
<path fill-rule="evenodd" clip-rule="evenodd" d="M20.6621 3.33746C17.9284 0.603795 13.4962 0.603795 10.7626 3.33746L3.33794 10.7621C0.604271 13.4958 0.604272 17.9279 3.33794 20.6616C6.07161 23.3953 10.5038 23.3953 13.2374 20.6616L20.6621 13.237C23.3957 10.5033 23.3957 6.07114 20.6621 3.33746ZM14.5787 9.27488C14.1571 8.85284 13.844 8.53942 13.5 8.34079C12.5718 7.80489 11.4282 7.80489 10.5 8.34079C10.1559 8.53942 9.84287 8.85284 9.42129 9.27488L9.27536 9.42081C8.85331 9.8424 8.5399 10.1555 8.34126 10.4995C7.80536 11.4277 7.80536 12.5713 8.34126 13.4995C8.5399 13.8436 8.85331 14.1566 9.27536 14.5782L9.42129 14.7242C9.84287 15.1462 10.1559 15.4596 10.5 15.6583C11.4282 16.1942 12.5718 16.1942 13.5 15.6583C13.844 15.4596 14.1571 15.1462 14.5787 14.7242L14.7246 14.5782C15.1467 14.1566 15.4601 13.8436 15.6587 13.4995C16.1946 12.5713 16.1946 11.4277 15.6587 10.4995C15.4601 10.1555 15.1467 9.8424 14.7247 9.42082L14.5787 9.27488ZM18.8943 8.28721C19.2848 8.67774 19.2848 9.3109 18.8943 9.70143C18.5038 10.0919 17.8699 10.0927 17.4794 9.70213C17.0888 9.31161 17.0888 8.67844 17.4794 8.28792C17.8699 7.8974 18.5038 7.89669 18.8943 8.28721ZM15.7123 6.51945C16.1028 6.12892 16.1028 5.49576 15.7123 5.10523C15.3218 4.71471 14.6886 4.71471 14.2981 5.10523C13.9076 5.49576 13.9069 6.12963 14.2974 6.52015C14.6879 6.91068 15.3218 6.90997 15.7123 6.51945ZM6.51992 14.2976C6.91045 14.6881 6.91045 15.3213 6.51992 15.7118C6.1294 16.1024 5.49553 16.1031 5.105 15.7125C4.71448 15.322 4.71448 14.6889 5.105 14.2983C5.49553 13.9078 6.1294 13.9071 6.51992 14.2976ZM9.7019 18.8938C10.0924 18.5033 10.0924 17.8701 9.7019 17.4796C9.31138 17.0891 8.67821 17.0891 8.28769 17.4796C7.89716 17.8701 7.89646 18.504 8.28698 18.8945C8.67751 19.285 9.31138 19.2843 9.7019 18.8938Z" fill="#020203"/>
</svg>
