<svg width="24" height="24" viewBox="0 0 24 24" fill="none" xmlns="http://www.w3.org/2000/svg">
<path opacity="0.4" d="M10.7626 3.33738C13.4962 0.603714 17.9284 0.603715 20.6621 3.33738C23.3957 6.07105 23.3957 10.5032 20.6621 13.2369L13.2374 20.6615C10.5038 23.3952 6.07161 23.3952 3.33794 20.6615C0.604272 17.9278 0.604272 13.4957 3.33794 10.762L10.7626 3.33738Z" fill="#020203"/>
<path d="M9.52513 9.52504C10.3495 8.70065 10.7617 8.28845 11.2305 8.11784C11.7275 7.93692 12.2725 7.93692 12.7696 8.11784C13.2383 8.28845 13.6505 8.70065 14.4749 9.52504C15.2993 10.3494 15.7115 10.7616 15.8821 11.2304C16.063 11.7275 16.063 12.2724 15.8821 12.7695C15.7115 13.2382 15.2993 13.6504 14.4749 14.4748C13.6505 15.2992 13.2383 15.7114 12.7696 15.882C12.2725 16.0629 11.7275 16.0629 11.2305 15.882C10.7617 15.7114 10.3495 15.2992 9.52513 14.4748C8.70073 13.6504 8.28853 13.2382 8.11793 12.7695C7.93701 12.2724 7.93701 11.7275 8.11793 11.2304C8.28853 10.7616 8.70073 10.3494 9.52513 9.52504Z" fill="#020203"/>
<path fill-rule="evenodd" clip-rule="evenodd" d="M18.8943 8.28761C19.2848 8.67813 19.2848 9.3113 18.8943 9.70182L18.8936 9.70253C18.5031 10.0931 17.8699 10.0931 17.4794 9.70253C17.0888 9.312 17.0888 8.67884 17.4794 8.28831L17.4801 8.28761C17.8706 7.89708 18.5038 7.89708 18.8943 8.28761Z" fill="#020203"/>
<path fill-rule="evenodd" clip-rule="evenodd" d="M15.7123 5.10563C16.1028 5.49615 16.1028 6.12932 15.7123 6.51984L15.7116 6.52055C15.3211 6.91107 14.6879 6.91107 14.2974 6.52055C13.9069 6.13003 13.9069 5.49686 14.2974 5.10634L14.2981 5.10563C14.6886 4.71511 15.3218 4.71511 15.7123 5.10563Z" fill="#020203"/>
<path fill-rule="evenodd" clip-rule="evenodd" d="M6.51992 14.298C6.91044 14.6885 6.91044 15.3217 6.51992 15.7122L6.51921 15.7129C6.12869 16.1035 5.49552 16.1035 5.105 15.7129C4.71447 15.3224 4.71447 14.6892 5.105 14.2987L5.1057 14.298C5.49623 13.9075 6.12939 13.9075 6.51992 14.298Z" fill="#020203"/>
<path fill-rule="evenodd" clip-rule="evenodd" d="M9.70191 17.48C10.0924 17.8705 10.0924 18.5037 9.70191 18.8942L9.7012 18.8949C9.31068 19.2854 8.67751 19.2854 8.28699 18.8949C7.89646 18.5044 7.89646 17.8712 8.28699 17.4807L8.2877 17.48C8.67822 17.0895 9.31138 17.0895 9.70191 17.48Z" fill="#020203"/>
</svg>
