<svg width="24" height="24" viewBox="0 0 24 24" fill="none" xmlns="http://www.w3.org/2000/svg">
<path opacity="0.4" d="M11.2929 3.86794C13.7337 1.42716 17.691 1.42716 20.1317 3.86794C22.5725 6.30872 22.5725 10.266 20.1317 12.7068L12.7071 20.1314C10.2663 22.5722 6.30905 22.5722 3.86827 20.1314C1.4275 17.6906 1.42749 13.7333 3.86827 11.2926L11.2929 3.86794Z" stroke="#020203" stroke-width="1.5"/>
<path d="M9.87869 9.87871C10.3719 9.38552 10.6185 9.13892 10.875 8.99082C11.5712 8.58889 12.4289 8.58889 13.125 8.99082C13.3815 9.13892 13.6281 9.38552 14.1213 9.87871C14.6145 10.3719 14.8611 10.6185 15.0092 10.875C15.4111 11.5712 15.4111 12.4289 15.0092 13.125C14.8611 13.3816 14.6145 13.6282 14.1213 14.1214C13.6281 14.6145 13.3815 14.8611 13.125 15.0093C12.4289 15.4112 11.5712 15.4112 10.875 15.0093C10.6185 14.8611 10.3719 14.6145 9.87869 14.1214C9.38549 13.6282 9.1389 13.3816 8.99079 13.125C8.58887 12.4289 8.58887 11.5712 8.99079 10.875C9.1389 10.6185 9.38549 10.3719 9.87869 9.87871Z" stroke="#020203" stroke-width="1.5"/>
<path d="M18.1865 8.99553L18.1872 8.99483" stroke="#020203" stroke-width="2" stroke-linecap="round" stroke-linejoin="round"/>
<path d="M15.0045 5.81382L15.0052 5.81311" stroke="#020203" stroke-width="2" stroke-linecap="round" stroke-linejoin="round"/>
<path d="M5.8121 15.0059L5.81281 15.0052" stroke="#020203" stroke-width="2" stroke-linecap="round" stroke-linejoin="round"/>
<path d="M8.99409 18.1879L8.9948 18.1872" stroke="#020203" stroke-width="2" stroke-linecap="round" stroke-linejoin="round"/>
</svg>
