<svg width="24" height="24" viewBox="0 0 24 24" fill="none" xmlns="http://www.w3.org/2000/svg">
<path opacity="0.4" fill-rule="evenodd" clip-rule="evenodd" d="M1.25 22C1.25 21.5858 1.58579 21.25 2 21.25L22 21.25C22.4142 21.25 22.75 21.5858 22.75 22C22.75 22.4142 22.4142 22.75 22 22.75L2 22.75C1.58579 22.75 1.25 22.4142 1.25 22Z" fill="#020203"/>
<path opacity="0.4" fill-rule="evenodd" clip-rule="evenodd" d="M6 11.25C6.41421 11.25 6.75 11.5858 6.75 12V18C6.75 18.4142 6.41421 18.75 6 18.75C5.58579 18.75 5.25 18.4142 5.25 18V12C5.25 11.5858 5.58579 11.25 6 11.25Z" fill="#020203"/>
<path fill-rule="evenodd" clip-rule="evenodd" d="M10 11.25C10.4142 11.25 10.75 11.5858 10.75 12V18C10.75 18.4142 10.4142 18.75 10 18.75C9.58579 18.75 9.25 18.4142 9.25 18V12C9.25 11.5858 9.58579 11.25 10 11.25Z" fill="#020203"/>
<path opacity="0.4" fill-rule="evenodd" clip-rule="evenodd" d="M14 11.25C14.4142 11.25 14.75 11.5858 14.75 12V18C14.75 18.4142 14.4142 18.75 14 18.75C13.5858 18.75 13.25 18.4142 13.25 18V12C13.25 11.5858 13.5858 11.25 14 11.25Z" fill="#020203"/>
<path fill-rule="evenodd" clip-rule="evenodd" d="M18 11.25C18.4142 11.25 18.75 11.5858 18.75 12V18C18.75 18.4142 18.4142 18.75 18 18.75C17.5858 18.75 17.25 18.4142 17.25 18V12C17.25 11.5858 17.5858 11.25 18 11.25Z" fill="#020203"/>
<path fill-rule="evenodd" clip-rule="evenodd" d="M10.2819 2.75C9.60449 2.75 8.94404 2.96165 8.39284 3.35537L4.11098 6.41384C3.25689 7.0239 2.75 8.00888 2.75 9.05847V11C2.75 11.4142 2.41421 11.75 2 11.75C1.58579 11.75 1.25 11.4142 1.25 11V9.05847C1.25 7.52445 1.99084 6.08487 3.23912 5.19324L7.52098 2.13477C8.32658 1.55933 9.29185 1.25 10.2819 1.25H13.7181C14.7081 1.25 15.6734 1.55933 16.479 2.13477L20.7609 5.19324C22.0092 6.08487 22.75 7.52445 22.75 9.05847V11C22.75 11.4142 22.4142 11.75 22 11.75C21.5858 11.75 21.25 11.4142 21.25 11V9.05847C21.25 8.00888 20.7431 7.0239 19.889 6.41384L15.6072 3.35537C15.056 2.96165 14.3955 2.75 13.7181 2.75H10.2819Z" fill="#020203"/>
<path fill-rule="evenodd" clip-rule="evenodd" d="M8.25012 8C8.25012 7.58579 8.58591 7.25 9.00012 7.25H15.0001C15.4143 7.25 15.7501 7.58579 15.7501 8C15.7501 8.41421 15.4143 8.75 15.0001 8.75H9.00012C8.58591 8.75 8.25012 8.41421 8.25012 8Z" fill="#020203"/>
</svg>
