<svg width="24" height="24" viewBox="0 0 24 24" fill="none" xmlns="http://www.w3.org/2000/svg">
<path d="M9.75 12C9.75 10.7574 10.7574 9.75 12 9.75C13.2426 9.75 14.25 10.7574 14.25 12C14.25 13.2426 13.2426 14.25 12 14.25C10.7574 14.25 9.75 13.2426 9.75 12Z" fill="#020203"/>
<path fill-rule="evenodd" clip-rule="evenodd" d="M15.75 2.27594C15.0086 2.25 14.1157 2.25 13 2.25H11C9.88427 2.25 8.99136 2.25 8.25 2.27594V5.25C8.25 8.01142 6.01142 10.25 3.25 10.25H1.25526C1.25 10.7661 1.25 11.3446 1.25 12C1.25 12.8758 1.25 13.6143 1.26254 14.25H3.25C6.01142 14.25 8.25 16.4886 8.25 19.25V21.7241C8.99136 21.75 9.88427 21.75 11 21.75H13C14.1157 21.75 15.0086 21.75 15.75 21.7241V18.75C15.75 15.9886 17.9886 13.75 20.75 13.75H22.7447C22.75 13.2339 22.75 12.6554 22.75 12C22.75 11.3446 22.75 10.7661 22.7447 10.25H20.75C17.9886 10.25 15.75 8.01142 15.75 5.25V2.27594ZM12 8.25C9.92893 8.25 8.25 9.92893 8.25 12C8.25 14.0711 9.92893 15.75 12 15.75C14.0711 15.75 15.75 14.0711 15.75 12C15.75 9.92893 14.0711 8.25 12 8.25Z" fill="#020203"/>
<path d="M22.7011 8.75C22.6508 7.89556 22.5491 7.25777 22.3429 6.69136C21.6605 4.81644 20.1836 3.33949 18.3086 2.65707C17.9875 2.5402 17.6435 2.45688 17.25 2.39748V5.25C17.25 7.183 18.817 8.75 20.75 8.75H22.7011Z" fill="#020203"/>
<path d="M5.69136 2.65707C6.01248 2.5402 6.35653 2.45688 6.75 2.39748V5.25C6.75 7.183 5.183 8.75 3.25 8.75H1.29895C1.34917 7.89556 1.45092 7.25777 1.65707 6.69136C2.33949 4.81644 3.81644 3.33949 5.69136 2.65707Z" fill="#020203"/>
<path d="M1.65707 17.3086C1.49323 16.8585 1.39533 16.3632 1.33684 15.75H3.25C5.183 15.75 6.75 17.317 6.75 19.25V21.6025C6.35653 21.5431 6.01248 21.4598 5.69136 21.3429C3.81644 20.6605 2.33949 19.1836 1.65707 17.3086Z" fill="#020203"/>
<path d="M22.7011 15.25H20.75C18.817 15.25 17.25 16.817 17.25 18.75V21.6025C17.6435 21.5431 17.9875 21.4598 18.3086 21.3429C20.1836 20.6605 21.6605 19.1836 22.3429 17.3086C22.5491 16.7422 22.6508 16.1044 22.7011 15.25Z" fill="#020203"/>
</svg>
