<svg width="24" height="24" viewBox="0 0 24 24" fill="none" xmlns="http://www.w3.org/2000/svg">
<path d="M10.75 10C10.75 9.30964 11.3096 8.75 12 8.75C12.6904 8.75 13.25 9.30964 13.25 10C13.25 10.6904 12.6904 11.25 12 11.25C11.3096 11.25 10.75 10.6904 10.75 10Z" fill="#020203"/>
<path fill-rule="evenodd" clip-rule="evenodd" d="M1.25 10C1.25 7.6734 1.25 6.5101 1.5559 5.56864C2.17413 3.66591 3.66591 2.17413 5.56864 1.5559C6.5101 1.25 7.6734 1.25 10 1.25H14C16.3266 1.25 17.4899 1.25 18.4314 1.5559C20.3341 2.17413 21.8259 3.66591 22.4441 5.56864C22.75 6.5101 22.75 7.6734 22.75 10C22.75 12.3266 22.75 13.4899 22.4441 14.4314C22.4349 14.4596 22.4256 14.4878 22.416 14.5158C21.4072 12.8575 19.5829 11.75 17.5 11.75C14.3244 11.75 11.75 14.3244 11.75 17.5C11.75 17.9293 11.797 18.3476 11.8863 18.75H10C7.6734 18.75 6.5101 18.75 5.56864 18.4441C3.66591 17.8259 2.17413 16.3341 1.5559 14.4314C1.25 13.4899 1.25 12.3266 1.25 10ZM12 7.25C10.4812 7.25 9.25 8.48122 9.25 10C9.25 11.5188 10.4812 12.75 12 12.75C13.5188 12.75 14.75 11.5188 14.75 10C14.75 8.48122 13.5188 7.25 12 7.25ZM6 7.25C6.41421 7.25 6.75 7.58579 6.75 8V12C6.75 12.4142 6.41421 12.75 6 12.75C5.58579 12.75 5.25 12.4142 5.25 12V8C5.25 7.58579 5.58579 7.25 6 7.25ZM18.75 8C18.75 7.58579 18.4142 7.25 18 7.25C17.5858 7.25 17.25 7.58579 17.25 8V10C17.25 10.4142 17.5858 10.75 18 10.75C18.4142 10.75 18.75 10.4142 18.75 10V8Z" fill="#020203"/>
<path fill-rule="evenodd" clip-rule="evenodd" d="M17.5 22C15.0147 22 13 19.9853 13 17.5C13 15.0147 15.0147 13 17.5 13C19.9853 13 22 15.0147 22 17.5C22 19.9853 19.9853 22 17.5 22ZM16 18.25C15.5858 18.25 15.25 17.9142 15.25 17.5C15.25 17.0858 15.5858 16.75 16 16.75H19C19.4142 16.75 19.75 17.0858 19.75 17.5C19.75 17.9142 19.4142 18.25 19 18.25H16Z" fill="#020203"/>
</svg>
