<svg width="24" height="24" viewBox="0 0 24 24" fill="none" xmlns="http://www.w3.org/2000/svg">
<path d="M2 12C2 9.20435 2 7.80653 2.45672 6.7039C3.06569 5.23373 4.23373 4.06569 5.7039 3.45672C6.80653 3 8.20435 3 11 3H13C15.7956 3 17.1935 3 18.2961 3.45672C19.7663 4.06569 20.9343 5.23373 21.5433 6.7039C22 7.80653 22 9.20435 22 12C22 14.7956 22 16.1935 21.5433 17.2961C20.9343 18.7663 19.7663 19.9343 18.2961 20.5433C17.1935 21 15.7956 21 13 21H11C8.20435 21 6.80653 21 5.7039 20.5433C4.23373 19.9343 3.06569 18.7663 2.45672 17.2961C2 16.1935 2 14.7956 2 12Z" stroke="#020203" stroke-width="1.5"/>
<path d="M9 12C9 13.6569 10.3431 15 12 15C13.6569 15 15 13.6569 15 12C15 10.3431 13.6569 9 12 9C10.3431 9 9 10.3431 9 12Z" stroke="#020203" stroke-width="1.5" stroke-linecap="round"/>
<path d="M21.5 14.5H20.75C18.4028 14.5 16.5 16.4028 16.5 18.75V20.5" stroke="#020203" stroke-width="1.5" stroke-linecap="round"/>
<path d="M2.5 15H3.25C5.59721 15 7.5 16.9028 7.5 19.25V20.5" stroke="#020203" stroke-width="1.5" stroke-linecap="round"/>
<path d="M2.5 9.5H3.25C5.59721 9.5 7.5 7.59721 7.5 5.25V3.5" stroke="#020203" stroke-width="1.5" stroke-linecap="round"/>
<path d="M16.5 3.5V5.25C16.5 7.59721 18.4028 9.5 20.75 9.5H21.5" stroke="#020203" stroke-width="1.5" stroke-linecap="round"/>
</svg>
