<svg width="24" height="24" viewBox="0 0 24 24" fill="none" xmlns="http://www.w3.org/2000/svg">
<path opacity="0.4" d="M1.5559 5.56864C1.25 6.5101 1.25 7.6734 1.25 10C1.25 12.3266 1.25 13.4899 1.5559 14.4314C2.17413 16.3341 3.66591 17.8259 5.56864 18.4441C6.5101 18.75 7.6734 18.75 10 18.75H11.8863C11.797 18.3476 11.75 17.9293 11.75 17.5C11.75 14.3244 14.3244 11.75 17.5 11.75C19.5829 11.75 21.4072 12.8575 22.416 14.5158C22.4256 14.4878 22.4349 14.4596 22.4441 14.4314C22.75 13.4899 22.75 12.3266 22.75 10C22.75 7.6734 22.75 6.5101 22.4441 5.56864C21.8259 3.66591 20.3341 2.17413 18.4314 1.5559C17.4899 1.25 16.3266 1.25 14 1.25H10C7.6734 1.25 6.5101 1.25 5.56864 1.5559C3.66591 2.17413 2.17413 3.66591 1.5559 5.56864Z" fill="#020203"/>
<path fill-rule="evenodd" clip-rule="evenodd" d="M17.5 22C15.0147 22 13 19.9853 13 17.5C13 15.0147 15.0147 13 17.5 13C19.9853 13 22 15.0147 22 17.5C22 19.9853 19.9853 22 17.5 22ZM16 18.25C15.5858 18.25 15.25 17.9142 15.25 17.5C15.25 17.0858 15.5858 16.75 16 16.75H19C19.4142 16.75 19.75 17.0858 19.75 17.5C19.75 17.9142 19.4142 18.25 19 18.25H16Z" fill="#020203"/>
<path d="M10 10C10 11.1046 10.8954 12 12 12C13.1046 12 14 11.1046 14 10C14 8.89543 13.1046 8 12 8C10.8954 8 10 8.89543 10 10Z" fill="#020203"/>
<path fill-rule="evenodd" clip-rule="evenodd" d="M6 7.25C6.41421 7.25 6.75 7.58579 6.75 8L6.75 12C6.75 12.4142 6.41421 12.75 6 12.75C5.58579 12.75 5.25 12.4142 5.25 12L5.25 8C5.25 7.58579 5.58579 7.25 6 7.25Z" fill="#020203"/>
<path fill-rule="evenodd" clip-rule="evenodd" d="M18 7.25C18.4142 7.25 18.75 7.58579 18.75 8L18.75 10C18.75 10.4142 18.4142 10.75 18 10.75C17.5858 10.75 17.25 10.4142 17.25 10L17.25 8C17.25 7.58579 17.5858 7.25 18 7.25Z" fill="#020203"/>
</svg>
