<svg width="24" height="24" viewBox="0 0 24 24" fill="none" xmlns="http://www.w3.org/2000/svg">
<path opacity="0.4" d="M9 17.9987C7.31737 17.9917 6.36392 17.9464 5.57795 17.6532C4.08326 17.0957 2.90427 15.9167 2.34678 14.4221C2 13.4923 2 12.3282 2 10C2 7.67179 2 6.50769 2.34678 5.57795C2.90427 4.08326 4.08326 2.90427 5.57795 2.34678C6.50769 2 7.67179 2 10 2H14C16.3282 2 17.4923 2 18.4221 2.34678C19.9167 2.90427 21.0957 4.08326 21.6532 5.57795C21.9464 6.36392 21.9917 7.31737 21.9987 9" stroke="#020203" stroke-width="1.5" stroke-linecap="round"/>
<path d="M13 17.5C13 19.9853 15.0147 22 17.5 22C19.9853 22 22 19.9853 22 17.5C22 15.0147 19.9853 13 17.5 13C15.0147 13 13 15.0147 13 17.5Z" stroke="#020203" stroke-width="1.5" stroke-linecap="round"/>
<path d="M10 10C10 11.1046 10.8954 12 12 12C13.1046 12 14 11.1046 14 10C14 8.89543 13.1046 8 12 8C10.8954 8 10 8.89543 10 10Z" stroke="#020203" stroke-width="1.5" stroke-linecap="round"/>
<path d="M15 20L20 15" stroke="#020203" stroke-width="1.5" stroke-linecap="round"/>
<path d="M6 8L6 12" stroke="#020203" stroke-width="1.5" stroke-linecap="round"/>
<path d="M18 8L18 10" stroke="#020203" stroke-width="1.5" stroke-linecap="round"/>
</svg>
