<svg width="24" height="24" viewBox="0 0 24 24" fill="none" xmlns="http://www.w3.org/2000/svg">
<path opacity="0.4" d="M1.25 12C1.25 9.6734 1.25 8.5101 1.5559 7.56864C2.17413 5.66591 3.66591 4.17413 5.56864 3.5559C6.5101 3.25 7.6734 3.25 10 3.25H14C16.3266 3.25 17.4899 3.25 18.4314 3.5559C20.3341 4.17413 21.8259 5.66591 22.4441 7.56864C22.75 8.5101 22.75 9.6734 22.75 12C22.75 14.3266 22.75 15.4899 22.4441 16.4314C21.8259 18.3341 20.3341 19.8259 18.4314 20.4441C17.4899 20.75 16.3266 20.75 14 20.75H10C7.6734 20.75 6.5101 20.75 5.56864 20.4441C3.66591 19.8259 2.17413 18.3341 1.5559 16.4314C1.25 15.4899 1.25 14.3266 1.25 12Z" fill="#020203"/>
<path d="M9.25 12C9.25 13.5188 10.4812 14.75 12 14.75C13.5188 14.75 14.75 13.5188 14.75 12C14.75 10.4812 13.5188 9.25 12 9.25C10.4812 9.25 9.25 10.4812 9.25 12Z" fill="#020203"/>
<path fill-rule="evenodd" clip-rule="evenodd" d="M6 9.25C6.41421 9.25 6.75 9.58579 6.75 10L6.75 14C6.75 14.4142 6.41421 14.75 6 14.75C5.58579 14.75 5.25 14.4142 5.25 14L5.25 10C5.25 9.58579 5.58579 9.25 6 9.25Z" fill="#020203"/>
<path fill-rule="evenodd" clip-rule="evenodd" d="M18 9.25C18.4142 9.25 18.75 9.58579 18.75 10L18.75 14C18.75 14.4142 18.4142 14.75 18 14.75C17.5858 14.75 17.25 14.4142 17.25 14L17.25 10C17.25 9.58579 17.5858 9.25 18 9.25Z" fill="#020203"/>
</svg>
