<svg width="24" height="24" viewBox="0 0 24 24" fill="none" xmlns="http://www.w3.org/2000/svg">
<path fill-rule="evenodd" clip-rule="evenodd" d="M4.39849 19.6016C4.1056 19.3087 4.1056 18.8338 4.39849 18.5409L18.5406 4.39876C18.8335 4.10587 19.3084 4.10587 19.6013 4.39876C19.8942 4.69166 19.8942 5.16653 19.6013 5.45942L5.45915 19.6016C5.16626 19.8945 4.69139 19.8945 4.39849 19.6016Z" fill="#020203"/>
<path opacity="0.4" fill-rule="evenodd" clip-rule="evenodd" d="M2.98431 12.884C3.2772 12.5911 3.75208 12.5911 4.04497 12.884L11.116 19.9551C11.4089 20.248 11.4089 20.7229 11.116 21.0158C10.8231 21.3087 10.3483 21.3087 10.0554 21.0158L2.98431 13.9447C2.69142 13.6518 2.69142 13.1769 2.98431 12.884Z" fill="#020203"/>
<path opacity="0.4" fill-rule="evenodd" clip-rule="evenodd" d="M12.8837 2.98455C13.1766 2.69165 13.6515 2.69165 13.9444 2.98455L21.0155 10.0556C21.3083 10.3485 21.3083 10.8234 21.0155 11.1163C20.7226 11.4092 20.2477 11.4092 19.9548 11.1163L12.8837 4.04521C12.5908 3.75231 12.5908 3.27744 12.8837 2.98455Z" fill="#020203"/>
<path fill-rule="evenodd" clip-rule="evenodd" d="M3.69134 15.0054C3.98423 14.7125 4.45911 14.7125 4.752 15.0054L8.99464 19.248C9.28754 19.5409 9.28754 20.0158 8.99464 20.3087C8.70175 20.6016 8.22688 20.6016 7.93398 20.3087L3.69134 16.066C3.39845 15.7731 3.39845 15.2983 3.69134 15.0054Z" fill="#020203"/>
<path fill-rule="evenodd" clip-rule="evenodd" d="M15.0051 3.69165C15.298 3.39876 15.7728 3.39876 16.0657 3.69165L20.3084 7.93429C20.6013 8.22719 20.6013 8.70206 20.3084 8.99496C20.0155 9.28785 19.5406 9.28785 19.2477 8.99496L15.0051 4.75231C14.7122 4.45942 14.7122 3.98455 15.0051 3.69165Z" fill="#020203"/>
</svg>
