<svg width="24" height="24" viewBox="0 0 24 24" fill="none" xmlns="http://www.w3.org/2000/svg">
<path fill-rule="evenodd" clip-rule="evenodd" d="M17.4287 2.46967C17.7216 2.17678 18.1965 2.17678 18.4894 2.46967L20.4287 4.40901C21.3074 5.28769 21.3074 6.71231 20.4287 7.59099L18.4894 9.53033C18.1965 9.82322 17.7216 9.82322 17.4287 9.53033C17.1358 9.23744 17.1358 8.76256 17.4287 8.46967L19.3681 6.53033C19.6609 6.23744 19.6609 5.76256 19.3681 5.46967L17.4287 3.53033C17.1358 3.23744 17.1358 2.76256 17.4287 2.46967Z" fill="#020203"/>
<path fill-rule="evenodd" clip-rule="evenodd" d="M17.4287 14.4697C17.7216 14.1768 18.1965 14.1768 18.4894 14.4697L20.4287 16.409C21.3074 17.2877 21.3074 18.7123 20.4287 19.591L18.4894 21.5303C18.1965 21.8232 17.7216 21.8232 17.4287 21.5303C17.1358 21.2374 17.1358 20.7626 17.4287 20.4697L19.3681 18.5303C19.6609 18.2374 19.6609 17.7626 19.3681 17.4697L17.4287 15.5303C17.1358 15.2374 17.1358 14.7626 17.4287 14.4697Z" fill="#020203"/>
<path fill-rule="evenodd" clip-rule="evenodd" d="M20.4 6.01056C20.4 6.42477 20.0642 6.76056 19.65 6.76056L14.65 6.76058C13.2838 6.76058 12.4056 7.09882 11.7899 7.55205C11.1611 8.01498 10.7379 8.64711 10.3641 9.35919C10.2349 9.60519 10.1203 9.84297 10.0029 10.0865C9.94654 10.2035 9.88951 10.3218 9.82992 10.443C9.65451 10.7998 9.46207 11.1701 9.23407 11.4997C8.7578 12.1883 8.07652 12.7606 7.00005 12.7605H3.64996C3.23575 12.7605 2.89996 12.4248 2.89996 12.0105C2.89996 11.5963 3.23575 11.2605 3.64996 11.2605H7.00007C7.4236 11.2605 7.69855 11.0828 8.0004 10.6464C8.16145 10.4136 8.31353 10.1276 8.48381 9.78122C8.53292 9.68135 8.58436 9.57466 8.63785 9.46372C8.76089 9.20855 8.89478 8.93088 9.03596 8.66196C9.4496 7.87405 10.0013 7.00617 10.9006 6.3441C11.8131 5.67234 13.0161 5.26058 14.65 5.26058L19.65 5.26056C20.0642 5.26056 20.4 5.59634 20.4 6.01056Z" fill="#020203"/>
<path fill-rule="evenodd" clip-rule="evenodd" d="M20.4 18.0107C20.4 18.425 20.0642 18.7607 19.65 18.7607H14.65C13.0168 18.7607 11.8521 18.3481 10.9946 17.6548C10.1553 16.9762 9.68954 16.0892 9.33901 15.3146C9.2488 15.1153 9.16772 14.9285 9.09163 14.7533C8.84948 14.1955 8.65785 13.7542 8.38323 13.3937C8.08645 13.0042 7.71607 12.7503 7.0012 12.75C7.00082 12.75 7.00044 12.75 7.00006 12.75L3.65236 12.7607C3.23815 12.762 2.90129 12.4273 2.89997 12.0131C2.89864 11.5989 3.23335 11.262 3.64757 11.2607L6.99766 11.25L7.00006 11.25C8.21415 11.25 9.01463 11.7474 9.57637 12.4846C9.97297 13.0052 10.2622 13.6754 10.5166 14.2648C10.5814 14.4151 10.644 14.5602 10.7056 14.6961C11.0351 15.4243 11.3831 16.0399 11.9377 16.4884C12.474 16.922 13.2831 17.2607 14.65 17.2607H19.65C20.0642 17.2607 20.4 17.5965 20.4 18.0107Z" fill="#020203"/>
</svg>
