<svg width="24" height="24" viewBox="0 0 24 24" fill="none" xmlns="http://www.w3.org/2000/svg">
<path opacity="0.4" d="M2 12C2 17.5228 6.47715 22 12 22C17.5228 22 22 17.5228 22 12C22 6.47715 17.5228 2 12 2C6.47715 2 2 6.47715 2 12Z" stroke="#020203" stroke-width="1.5" stroke-linecap="round"/>
<path d="M19 5.07031C16.6088 6.45355 15 9.03893 15 12.0001C15 14.9612 16.6088 17.5466 19 18.9298" stroke="#020203" stroke-width="1.5" stroke-linecap="round"/>
<path d="M5 5.07031C7.39121 6.45355 9 9.03893 9 12.0001C9 14.9532 7.39983 17.5327 5.01923 18.9186" stroke="#020203" stroke-width="1.5" stroke-linecap="round"/>
<path d="M15 9H17" stroke="#020203" stroke-width="1.5" stroke-linecap="round"/>
<path d="M7 9H9" stroke="#020203" stroke-width="1.5" stroke-linecap="round"/>
<path d="M14 12H16" stroke="#020203" stroke-width="1.5" stroke-linecap="round"/>
<path d="M8 12H10" stroke="#020203" stroke-width="1.5" stroke-linecap="round"/>
<path d="M15 15H17" stroke="#020203" stroke-width="1.5" stroke-linecap="round"/>
<path d="M7 15H9" stroke="#020203" stroke-width="1.5" stroke-linecap="round"/>
</svg>
