<svg width="24" height="24" viewBox="0 0 24 24" fill="none" xmlns="http://www.w3.org/2000/svg">
<path opacity="0.4" d="M4.79059 19.2306L2.01305 13.5122C0.158126 9.69323 2.93961 5.25 7.18522 5.25H16.8147C21.0604 5.25 23.8418 9.69323 21.9869 13.5122L19.2094 19.2306C18.1638 21.3834 15.9807 22.75 13.5875 22.75H10.4125C8.01929 22.75 5.83619 21.3834 4.79059 19.2306Z" fill="#020203"/>
<path fill-rule="evenodd" clip-rule="evenodd" d="M10 12.25C10.4142 12.25 10.75 12.5858 10.75 13V15C10.75 15.4142 10.4142 15.75 10 15.75C9.58579 15.75 9.25 15.4142 9.25 15V13C9.25 12.5858 9.58579 12.25 10 12.25Z" fill="#020203"/>
<path fill-rule="evenodd" clip-rule="evenodd" d="M14 12.25C14.4142 12.25 14.75 12.5858 14.75 13V15C14.75 15.4142 14.4142 15.75 14 15.75C13.5858 15.75 13.25 15.4142 13.25 15V13C13.25 12.5858 13.5858 12.25 14 12.25Z" fill="#020203"/>
<path fill-rule="evenodd" clip-rule="evenodd" d="M13.55 1.4C13.8814 1.15147 14.3515 1.21863 14.6 1.55L18.35 6.55C18.5985 6.88137 18.5314 7.35147 18.2 7.6C17.8686 7.84853 17.3985 7.78137 17.15 7.45L13.4 2.45C13.1515 2.11863 13.2186 1.64853 13.55 1.4Z" fill="#020203"/>
<path fill-rule="evenodd" clip-rule="evenodd" d="M10.45 1.4C10.7814 1.64853 10.8485 2.11863 10.6 2.45L6.84998 7.45C6.60145 7.78137 6.13135 7.84853 5.79998 7.6C5.46861 7.35147 5.40145 6.88137 5.64998 6.55L9.39998 1.55C9.64851 1.21863 10.1186 1.15147 10.45 1.4Z" fill="#020203"/>
</svg>
