<svg width="24" height="24" viewBox="0 0 24 24" fill="none" xmlns="http://www.w3.org/2000/svg">
<path d="M4.72861 4.08228C6.47047 2.48177 8.74193 1.4486 11.25 1.27576V11.2504H9.71831C9.44866 8.07388 7.48203 5.38113 4.72861 4.08228Z" fill="#020203"/>
<path d="M8.21168 11.2504C7.92947 8.50447 6.11477 6.2128 3.63709 5.24489C2.29119 6.90905 1.43193 8.98302 1.27576 11.2504H8.21168Z" fill="#020203"/>
<path d="M1.27581 12.7504H8.21168C7.92949 15.4961 6.11499 17.7877 3.63754 18.7557C2.29152 17.0916 1.43214 15.0177 1.27581 12.7504Z" fill="#020203"/>
<path d="M9.71831 12.7504H11.25V22.7242C8.74218 22.5514 6.47092 21.5184 4.72913 19.9182C7.48228 18.6193 9.44867 15.9266 9.71831 12.7504Z" fill="#020203"/>
<path d="M12.75 12.7504V22.7242C15.2579 22.5514 17.5291 21.5185 19.2709 19.9182C16.5177 18.6193 14.5513 15.9267 14.2817 12.7504H12.75Z" fill="#020203"/>
<path d="M15.7883 12.7504C16.0705 15.4961 17.885 17.7877 20.3625 18.7557C21.7085 17.0916 22.5679 15.0177 22.7242 12.7504H15.7883Z" fill="#020203"/>
<path d="M22.7243 11.2504H15.7883C16.0705 8.50445 17.8853 6.21278 20.363 5.24487C21.7089 6.90904 22.5681 8.98302 22.7243 11.2504Z" fill="#020203"/>
<path d="M14.2817 11.2504H12.75V1.27576C15.2581 1.4486 17.5296 2.48176 19.2714 4.08227C16.518 5.38111 14.5513 8.07387 14.2817 11.2504Z" fill="#020203"/>
</svg>
