<svg width="24" height="24" viewBox="0 0 24 24" fill="none" xmlns="http://www.w3.org/2000/svg">
<path d="M15.7883 12.7504C16.0705 15.4961 17.885 17.7877 20.3625 18.7557C21.7085 17.0916 22.5679 15.0177 22.7242 12.7504H15.7883Z" fill="#020203"/>
<path opacity="0.4" d="M22.7243 11.25H15.7883C16.0705 8.50409 17.8853 6.21241 20.363 5.24451C21.7089 6.90867 22.5681 8.98265 22.7243 11.25Z" fill="#020203"/>
<path opacity="0.4" d="M12.75 12.75V22.7239C15.2578 22.5511 17.5291 21.5181 19.2709 19.9179C16.5177 18.6189 14.5513 15.9263 14.2817 12.75H12.75Z" fill="#020203"/>
<path d="M14.2817 11.25H12.75V1.27539C15.2581 1.44824 17.5295 2.48139 19.2714 4.0819C16.518 5.38074 14.5513 8.0735 14.2817 11.25Z" fill="#020203"/>
<path d="M8.21168 11.25C7.92947 8.5041 6.11477 6.21244 3.63709 5.24452C2.29119 6.90869 1.43193 8.98266 1.27576 11.25H8.21168Z" fill="#020203"/>
<path d="M9.7183 12.75H11.25V22.7239C8.74217 22.5511 6.47091 21.5181 4.72913 19.9178C7.48227 18.6189 9.44867 15.9263 9.7183 12.75Z" fill="#020203"/>
<path opacity="0.4" d="M1.27582 12.75H8.21169C7.9295 15.4957 6.115 17.7873 3.63755 18.7553C2.29154 17.0912 1.43215 15.0173 1.27582 12.75Z" fill="#020203"/>
<path opacity="0.4" d="M4.72864 4.08191C6.47049 2.4814 8.74195 1.44824 11.2501 1.27539V11.25H9.71833C9.44868 8.07352 7.48206 5.38076 4.72864 4.08191Z" fill="#020203"/>
</svg>
