<svg width="24" height="24" viewBox="0 0 24 24" fill="none" xmlns="http://www.w3.org/2000/svg">
<path d="M4.7291 19.9182C6.64298 21.6766 9.19613 22.75 12 22.75C14.8038 22.75 17.357 21.6766 19.2709 19.9182C17.4415 19.0551 15.9595 17.5767 15.0918 15.75H15C14.5858 15.75 14.25 15.4142 14.25 15C14.25 14.7425 14.3798 14.5153 14.5775 14.3802C14.4294 13.8552 14.3292 13.3101 14.2816 12.75H14C13.5858 12.75 13.25 12.4142 13.25 12C13.25 11.5858 13.5858 11.25 14 11.25H14.2817C14.3293 10.6899 14.4296 10.1449 14.5777 9.61988C14.3799 9.48485 14.25 9.25759 14.25 9C14.25 8.58579 14.5858 8.25 15 8.25H15.0922C15.96 6.42342 17.442 4.9452 19.2714 4.08226C17.3575 2.32364 14.8041 1.25 12 1.25C9.19587 1.25 6.64252 2.32364 4.72858 4.08228C6.55791 4.94521 8.03994 6.42343 8.90775 8.25H8.99999C9.41421 8.25 9.74999 8.58579 9.74999 9C9.74999 9.25761 9.62011 9.48488 9.42227 9.61991C9.57035 10.1449 9.67067 10.6899 9.71824 11.25H9.99999C10.4142 11.25 10.75 11.5858 10.75 12C10.75 12.4142 10.4142 12.75 9.99999 12.75H9.7183C9.67078 13.3101 9.57049 13.8552 9.42244 14.3802C9.62019 14.5153 9.74999 14.7425 9.74999 15C9.74999 15.4142 9.41421 15.75 8.99999 15.75H8.9081C8.04042 17.5767 6.55843 19.0551 4.7291 19.9182Z" fill="#020203"/>
<path opacity="0.4" d="M20.3625 18.7557C18.8681 18.1718 17.6149 17.1063 16.7937 15.75H17C17.4142 15.75 17.75 15.4142 17.75 15C17.75 14.5858 17.4142 14.25 17 14.25H16.1058C15.9493 13.7701 15.8415 13.2681 15.7883 12.75H16C16.4142 12.75 16.75 12.4142 16.75 12C16.75 11.5858 16.4142 11.25 16 11.25H15.7883C15.8416 10.7319 15.9495 10.2299 16.106 9.75H17C17.4142 9.75 17.75 9.41421 17.75 9C17.75 8.58579 17.4142 8.25 17 8.25H16.7941C17.6154 6.89394 18.8686 5.82864 20.3629 5.24487C21.8559 7.09082 22.75 9.44099 22.75 12C22.75 14.5593 21.8557 16.9097 20.3625 18.7557Z" fill="#020203"/>
<path opacity="0.4" d="M7.20628 15.75C6.38512 17.1063 5.13192 18.1718 3.63751 18.7557C2.14433 16.9096 1.25 14.5593 1.25 12C1.25 9.441 2.14415 7.09083 3.63706 5.24489C5.13141 5.82866 6.38459 6.89395 7.20584 8.25H7C6.58579 8.25 6.25 8.58579 6.25 9C6.25 9.41421 6.58579 9.75 7 9.75H7.89394C8.0505 10.2299 8.15834 10.7319 8.21161 11.25H8C7.58579 11.25 7.25 11.5858 7.25 12C7.25 12.4142 7.58579 12.75 8 12.75H8.21169C8.15847 13.2681 8.05068 13.7701 7.89418 14.25H7C6.58579 14.25 6.25 14.5858 6.25 15C6.25 15.4142 6.58579 15.75 7 15.75H7.20628Z" fill="#020203"/>
</svg>
