<svg width="24" height="24" viewBox="0 0 24 24" fill="none" xmlns="http://www.w3.org/2000/svg">
<path opacity="0.4" d="M11 22H10.7082C8.43559 22 6.35802 20.716 5.34166 18.6833L2.61806 13.2361C0.955803 9.91156 3.37328 6 7.09019 6H16.9099C19.7856 6 21.8838 8.34112 21.9162 10.9404" stroke="#020203" stroke-width="1.5" stroke-linecap="round"/>
<path d="M13 17.5C13 19.9853 15.0147 22 17.5 22C19.9853 22 22 19.9853 22 17.5C22 15.0147 19.9853 13 17.5 13C15.0147 13 13 15.0147 13 17.5Z" stroke="#020203" stroke-width="1.5" stroke-linecap="round"/>
<path d="M15.75 17.2598L16.3661 17.8759C16.8543 18.364 17.6457 18.364 18.1339 17.8759L19.25 16.7598" stroke="#020203" stroke-width="1.5" stroke-linecap="round"/>
<path d="M14 2L17 6" stroke="#020203" stroke-width="1.5" stroke-linecap="round"/>
<path d="M10 2L7 6" stroke="#020203" stroke-width="1.5" stroke-linecap="round"/>
<path d="M10 13V15" stroke="#020203" stroke-width="1.5" stroke-linecap="round"/>
</svg>
