<svg width="24" height="24" viewBox="0 0 24 24" fill="none" xmlns="http://www.w3.org/2000/svg">
<path fill-rule="evenodd" clip-rule="evenodd" d="M4.79059 19.2306L2.01305 13.5122C0.158126 9.69323 2.93961 5.25 7.18522 5.25H16.8147C21.0604 5.25 23.8418 9.69323 21.9869 13.5122L21.867 13.759C20.8125 12.5292 19.2473 11.75 17.5002 11.75C14.3246 11.75 11.7502 14.3244 11.7502 17.5C11.7502 19.7293 13.0189 21.6624 14.8737 22.6164C14.4558 22.7043 14.0251 22.75 13.5875 22.75H10.4125C8.01929 22.75 5.83619 21.3834 4.79059 19.2306ZM10.7502 13C10.7502 12.5858 10.4144 12.25 10.0002 12.25C9.586 12.25 9.25021 12.5858 9.25021 13V15C9.25021 15.4142 9.586 15.75 10.0002 15.75C10.4144 15.75 10.7502 15.4142 10.7502 15V13Z" fill="#020203"/>
<path fill-rule="evenodd" clip-rule="evenodd" d="M13 17.5C13 19.9853 15.0147 22 17.5 22C19.9853 22 22 19.9853 22 17.5C22 15.0147 19.9853 13 17.5 13C15.0147 13 13 15.0147 13 17.5ZM19.5303 15.4697C19.8232 15.7626 19.8232 16.2374 19.5303 16.5303L18.5607 17.5L19.5303 18.4697C19.8232 18.7626 19.8232 19.2374 19.5303 19.5303C19.2374 19.8232 18.7626 19.8232 18.4697 19.5303L17.5 18.5607L16.5303 19.5303C16.2374 19.8232 15.7626 19.8232 15.4697 19.5303C15.1768 19.2374 15.1768 18.7626 15.4697 18.4697L16.4393 17.5L15.4697 16.5303C15.1768 16.2374 15.1768 15.7626 15.4697 15.4697C15.7626 15.1768 16.2374 15.1768 16.5303 15.4697L17.5 16.4393L18.4697 15.4697C18.7626 15.1768 19.2374 15.1768 19.5303 15.4697Z" fill="#020203"/>
<path fill-rule="evenodd" clip-rule="evenodd" d="M13.55 1.4C13.8814 1.15147 14.3515 1.21863 14.6 1.55L18.35 6.55C18.5985 6.88137 18.5314 7.35147 18.2 7.6C17.8686 7.84853 17.3985 7.78137 17.15 7.45L13.4 2.45C13.1515 2.11863 13.2186 1.64853 13.55 1.4Z" fill="#020203"/>
<path fill-rule="evenodd" clip-rule="evenodd" d="M10.45 1.4C10.7814 1.64853 10.8485 2.11863 10.6 2.45L6.85 7.45C6.60147 7.78137 6.13137 7.84853 5.8 7.6C5.46863 7.35147 5.40147 6.88137 5.65 6.55L9.4 1.55C9.64853 1.21863 10.1186 1.15147 10.45 1.4Z" fill="#020203"/>
</svg>
