<svg width="24" height="24" viewBox="0 0 24 24" fill="none" xmlns="http://www.w3.org/2000/svg">
<path opacity="0.4" d="M2 12C2 17.5228 6.47715 22 12 22C17.5228 22 22 17.5228 22 12C22 6.47715 17.5228 2 12 2C6.47715 2 2 6.47715 2 12Z" stroke="#020203" stroke-width="1.5" stroke-linecap="round"/>
<path d="M19 5.07026C16.6088 6.4535 15 9.03887 15 12C15 14.9611 16.6088 17.5465 19 18.9297" stroke="#020203" stroke-width="1.5" stroke-linecap="round"/>
<path d="M5 5.07026C7.39121 6.4535 9 9.03887 9 12C9 14.9532 7.39983 17.5326 5.01923 18.9186" stroke="#020203" stroke-width="1.5" stroke-linecap="round"/>
<path d="M12 2.24986L12 21.7508" stroke="#020203" stroke-width="1.5" stroke-linecap="round"/>
<path d="M2.26086 12L21.7519 12" stroke="#020203" stroke-width="1.5" stroke-linecap="round"/>
</svg>
