<svg width="24" height="24" viewBox="0 0 24 24" fill="none" xmlns="http://www.w3.org/2000/svg">
<path fill-rule="evenodd" clip-rule="evenodd" d="M1.46323 8.44867C1.25 9.20968 1.25 10.1398 1.25 12C1.25 13.8602 1.25 14.7903 1.46323 15.5513C2.00486 17.4845 3.51553 18.9951 5.44867 19.5368C6.20968 19.75 7.13979 19.75 9 19.75H12C13.8602 19.75 14.7903 19.75 15.5513 19.5368C17.4845 18.9951 18.9951 17.4845 19.5368 15.5513C19.75 14.7903 19.75 13.8602 19.75 12C19.75 10.1398 19.75 9.20968 19.5368 8.44867C18.9951 6.51553 17.4845 5.00486 15.5513 4.46323C14.7903 4.25 13.8602 4.25 12 4.25H9C7.13979 4.25 6.20968 4.25 5.44867 4.46323C3.51553 5.00486 2.00486 6.51553 1.46323 8.44867ZM6.75 10C6.75 9.58579 6.41421 9.25 6 9.25C5.58579 9.25 5.25 9.58579 5.25 10V14C5.25 14.4142 5.58579 14.75 6 14.75C6.41421 14.75 6.75 14.4142 6.75 14V10ZM9 9.25C9.41421 9.25 9.75 9.58579 9.75 10V14C9.75 14.4142 9.41421 14.75 9 14.75C8.58579 14.75 8.25 14.4142 8.25 14V10C8.25 9.58579 8.58579 9.25 9 9.25ZM12.75 10C12.75 9.58579 12.4142 9.25 12 9.25C11.5858 9.25 11.25 9.58579 11.25 10V14C11.25 14.4142 11.5858 14.75 12 14.75C12.4142 14.75 12.75 14.4142 12.75 14V10Z" fill="#020203"/>
<path fill-rule="evenodd" clip-rule="evenodd" d="M22 9.25C22.4142 9.25 22.75 9.58579 22.75 10V14C22.75 14.4142 22.4142 14.75 22 14.75C21.5858 14.75 21.25 14.4142 21.25 14V10C21.25 9.58579 21.5858 9.25 22 9.25Z" fill="#020203"/>
</svg>
