<svg width="24" height="24" viewBox="0 0 24 24" fill="none" xmlns="http://www.w3.org/2000/svg">
<path d="M2 12C2 10.1387 2 9.20808 2.24472 8.45492C2.73931 6.93273 3.93273 5.73931 5.45492 5.24472C6.20808 5 7.13872 5 9 5H12C13.8613 5 14.7919 5 15.5451 5.24472C17.0673 5.73931 18.2607 6.93273 18.7553 8.45492C19 9.20808 19 10.1387 19 12C19 13.8613 19 14.7919 18.7553 15.5451C18.2607 17.0673 17.0673 18.2607 15.5451 18.7553C14.7919 19 13.8613 19 12 19H9C7.13872 19 6.20808 19 5.45492 18.7553C3.93273 18.2607 2.73931 17.0673 2.24472 15.5451C2 14.7919 2 13.8613 2 12Z" stroke="#020203" stroke-width="1.5"/>
<path d="M22 10V14" stroke="#020203" stroke-width="1.5" stroke-linecap="round"/>
</svg>
