<svg width="24" height="24" viewBox="0 0 24 24" fill="none" xmlns="http://www.w3.org/2000/svg">
<path fill-rule="evenodd" clip-rule="evenodd" d="M1.46323 8.44867C1.25 9.20968 1.25 10.1398 1.25 12C1.25 13.8602 1.25 14.7903 1.46323 15.5513C2.00486 17.4845 3.51553 18.9951 5.44867 19.5368C6.20968 19.75 7.13979 19.75 9 19.75H12C13.8602 19.75 14.7903 19.75 15.5513 19.5368C17.4845 18.9951 18.9951 17.4845 19.5368 15.5513C19.75 14.7903 19.75 13.8602 19.75 12C19.75 10.1398 19.75 9.20968 19.5368 8.44867C18.9951 6.51553 17.4845 5.00486 15.5513 4.46323C14.7903 4.25 13.8602 4.25 12 4.25H9C7.13979 4.25 6.20968 4.25 5.44867 4.46323C3.51553 5.00486 2.00486 6.51553 1.46323 8.44867ZM10.6512 8.8721C10.8567 8.51247 10.7317 8.05433 10.3721 7.84882C10.0125 7.64331 9.55433 7.76826 9.34882 8.1279L8.41749 9.75772C7.6556 11.091 8.61833 12.75 10.154 12.75H10.846C11.2299 12.75 11.4706 13.1647 11.2801 13.4981L10.3488 15.1279C10.1433 15.4875 10.2683 15.9457 10.6279 16.1512C10.9875 16.3567 11.4457 16.2317 11.6512 15.8721L12.5825 14.2423C13.3444 12.909 12.3817 11.25 10.846 11.25H10.154C9.77007 11.25 9.52938 10.8353 9.71986 10.5019L10.6512 8.8721Z" fill="#020203"/>
<path fill-rule="evenodd" clip-rule="evenodd" d="M22 9.25C22.4142 9.25 22.75 9.58579 22.75 10V14C22.75 14.4142 22.4142 14.75 22 14.75C21.5858 14.75 21.25 14.4142 21.25 14V10C21.25 9.58579 21.5858 9.25 22 9.25Z" fill="#020203"/>
</svg>
