<svg width="24" height="24" viewBox="0 0 24 24" fill="none" xmlns="http://www.w3.org/2000/svg">
<path d="M12 5H9C7.13872 5 6.20808 5 5.45492 5.24472C3.93273 5.73931 2.73931 6.93273 2.24472 8.45492C2 9.20808 2 10.1387 2 12C2 13.8613 2 14.7919 2.24472 15.5451C2.68888 16.9121 3.69665 18.0139 5 18.5826L17.5 6.5L17.0001 6C16.5653 5.67392 16.0752 5.41695 15.5451 5.24472C14.7919 5 13.8613 5 12 5Z" fill="#020203"/>
<path fill-rule="evenodd" clip-rule="evenodd" d="M18.9476 9.25063C19.3614 9.23362 19.7107 9.55533 19.7277 9.9692C19.75 10.511 19.75 11.1682 19.75 11.9843V12C19.75 12.0546 19.75 12.1085 19.75 12.1618C19.7503 13.8681 19.7504 14.9093 19.4686 15.7768C18.8998 17.5274 17.5274 18.8998 15.7768 19.4686C14.9093 19.7504 13.8681 19.7503 12.1618 19.75C12.1085 19.75 12.0546 19.75 12 19.75H10C9.58579 19.75 9.25 19.4142 9.25 19C9.25 18.5858 9.58579 18.25 10 18.25H12C13.9197 18.25 14.7016 18.2407 15.3133 18.042C16.6072 17.6216 17.6216 16.6072 18.042 15.3133C18.2407 14.7016 18.25 13.9197 18.25 12C18.25 11.165 18.2499 10.5383 18.229 10.0308C18.212 9.61693 18.5337 9.26764 18.9476 9.25063Z" fill="#020203"/>
<path fill-rule="evenodd" clip-rule="evenodd" d="M21.5303 2.46967C21.8232 2.76256 21.8232 3.23744 21.5303 3.53033L3.53033 21.5303C3.23744 21.8232 2.76256 21.8232 2.46967 21.5303C2.17678 21.2374 2.17678 20.7626 2.46967 20.4697L20.4697 2.46967C20.7626 2.17678 21.2374 2.17678 21.5303 2.46967Z" fill="#020203"/>
<path fill-rule="evenodd" clip-rule="evenodd" d="M22 9.25C22.4142 9.25 22.75 9.58579 22.75 10V14C22.75 14.4142 22.4142 14.75 22 14.75C21.5858 14.75 21.25 14.4142 21.25 14V10C21.25 9.58579 21.5858 9.25 22 9.25Z" fill="#020203"/>
</svg>
