<svg width="24" height="24" viewBox="0 0 24 24" fill="none" xmlns="http://www.w3.org/2000/svg">
<path opacity="0.4" d="M1.25 12C1.25 10.1398 1.25 9.20968 1.46323 8.44867C2.00486 6.51553 3.51553 5.00486 5.44867 4.46323C6.20968 4.25 7.13979 4.25 9 4.25H12C13.8602 4.25 14.7903 4.25 15.5513 4.46323C17.4845 5.00486 18.9951 6.51553 19.5368 8.44867C19.75 9.20968 19.75 10.1398 19.75 12C19.75 13.8602 19.75 14.7903 19.5368 15.5513C18.9951 17.4845 17.4845 18.9951 15.5513 19.5368C14.7903 19.75 13.8602 19.75 12 19.75H9C7.13979 19.75 6.20968 19.75 5.44867 19.5368C3.51553 18.9951 2.00486 17.4845 1.46323 15.5513C1.25 14.7903 1.25 13.8602 1.25 12Z" fill="#020203"/>
<path fill-rule="evenodd" clip-rule="evenodd" d="M10.3721 7.84882C10.7317 8.05432 10.8567 8.51246 10.6512 8.8721L9.71983 10.5019C9.52936 10.8353 9.77004 11.25 10.154 11.25H10.846C12.3817 11.25 13.3444 12.909 12.5825 14.2423L11.6512 15.8721C11.4457 16.2317 10.9875 16.3567 10.6279 16.1512C10.2682 15.9457 10.1433 15.4875 10.3488 15.1279L11.2801 13.4981C11.4706 13.1647 11.2299 12.75 10.846 12.75H10.154C8.61831 12.75 7.65558 11.091 8.41747 9.75772L9.3488 8.12789C9.55431 7.76826 10.0124 7.64331 10.3721 7.84882Z" fill="#020203"/>
<path fill-rule="evenodd" clip-rule="evenodd" d="M22 9.25C22.4142 9.25 22.75 9.58579 22.75 10V14C22.75 14.4142 22.4142 14.75 22 14.75C21.5858 14.75 21.25 14.4142 21.25 14V10C21.25 9.58579 21.5858 9.25 22 9.25Z" fill="#020203"/>
</svg>
