<svg width="24" height="24" viewBox="0 0 24 24" fill="none" xmlns="http://www.w3.org/2000/svg">
<path d="M10 19H12C13.8613 19 14.7919 19 15.5451 18.7553C17.0673 18.2607 18.2607 17.0673 18.7553 15.5451C19 14.7919 19 13.8613 19 12C19 11.1708 19 10.5264 18.9784 10" stroke="#020203" stroke-width="1.5" stroke-linecap="round"/>
<path d="M17.0001 6C16.5653 5.67392 16.0752 5.41695 15.5451 5.24472C14.7919 5 13.8613 5 12 5H9C7.13872 5 6.20808 5 5.45492 5.24472C3.93273 5.73931 2.73931 6.93273 2.24472 8.45492C2 9.20808 2 10.1387 2 12C2 13.8613 2 14.7919 2.24472 15.5451C2.68888 16.9121 3.69665 18.0139 5 18.5826" stroke="#020203" stroke-width="1.5" stroke-linecap="round"/>
<path d="M21 3L3 21" stroke="#020203" stroke-width="1.5" stroke-linecap="round"/>
<path d="M22 10V14" stroke="#020203" stroke-width="1.5" stroke-linecap="round"/>
</svg>
