<svg width="24" height="24" viewBox="0 0 24 24" fill="none" xmlns="http://www.w3.org/2000/svg">
<path fill-rule="evenodd" clip-rule="evenodd" d="M19 19.25C19.4142 19.25 19.75 19.5858 19.75 20L19.75 22C19.75 22.4142 19.4142 22.75 19 22.75C18.5858 22.75 18.25 22.4142 18.25 22L18.25 20C18.25 19.5858 18.5858 19.25 19 19.25Z" fill="#020203"/>
<path d="M2.25 11.3368C3.17882 10.5055 4.40535 10 5.74995 10H6.24995V9C6.24995 6.92893 7.92888 5.25 9.99995 5.25H13.9999C16.071 5.25 17.7499 6.92893 17.7499 9V10H18.2499C19.5945 10 20.8211 10.5055 21.7499 11.3368C21.7489 8.81597 21.7294 7.50323 21.3429 6.44136C20.6605 4.56644 19.1835 3.08949 17.3086 2.40707C16.1902 2 14.7934 2 11.9999 2C9.20648 2 7.80974 2 6.69131 2.40707C4.81639 3.08949 3.33944 4.56644 2.65702 6.44136C2.27053 7.50323 2.25099 8.81597 2.25 11.3368Z" fill="#020203"/>
<path d="M16.2499 10V9C16.2499 7.75736 15.2426 6.75 13.9999 6.75H9.99995C8.75731 6.75 7.74995 7.75736 7.74995 9V10H16.2499Z" fill="#020203"/>
<path fill-rule="evenodd" clip-rule="evenodd" d="M5 19.25C5.41421 19.25 5.75 19.5858 5.75 20V22C5.75 22.4142 5.41421 22.75 5 22.75C4.58579 22.75 4.25 22.4142 4.25 22V20C4.25 19.5858 4.58579 19.25 5 19.25Z" fill="#020203"/>
<path fill-rule="evenodd" clip-rule="evenodd" d="M6.5 11.25C3.60051 11.25 1.25 13.6005 1.25 16.5C1.25 19.3995 3.60051 21.75 6.5 21.75H17.5C20.3995 21.75 22.75 19.3995 22.75 16.5C22.75 13.6005 20.3995 11.25 17.5 11.25H6.5ZM11 15.75C10.5858 15.75 10.25 16.0858 10.25 16.5C10.25 16.9142 10.5858 17.25 11 17.25H13C13.4142 17.25 13.75 16.9142 13.75 16.5C13.75 16.0858 13.4142 15.75 13 15.75H11Z" fill="#020203"/>
</svg>
