<svg width="24" height="24" viewBox="0 0 24 24" fill="none" xmlns="http://www.w3.org/2000/svg">
<path d="M2 16.5C2 14.0147 4.01472 12 6.5 12H17.5C19.9853 12 22 14.0147 22 16.5C22 18.9853 19.9853 21 17.5 21H6.5C4.01472 21 2 18.9853 2 16.5Z" stroke="#020203" stroke-width="1.5"/>
<path opacity="0.32" d="M11 16.5H13" stroke="#020203" stroke-width="1.5" stroke-linecap="round"/>
<path opacity="0.32" d="M19 21L19 22" stroke="#020203" stroke-width="1.5" stroke-linecap="round"/>
<path opacity="0.32" d="M5 21V22" stroke="#020203" stroke-width="1.5" stroke-linecap="round"/>
<path opacity="0.4" d="M21 13.5V11C21 8.20435 21 6.80653 20.5433 5.7039C19.9343 4.23373 18.7663 3.06569 17.2961 2.45672C16.1935 2 14.7956 2 12 2C9.20435 2 7.80653 2 6.7039 2.45672C5.23373 3.06569 4.06569 4.23373 3.45672 5.7039C3 6.80653 3 8.20435 3 11V13.5" stroke="#020203" stroke-width="1.5" stroke-linecap="round"/>
<path d="M7 12V9C7 7.34315 8.34315 6 10 6H14C15.6569 6 17 7.34315 17 9V12" stroke="#020203" stroke-width="1.5" stroke-linecap="round"/>
</svg>
