<svg width="24" height="24" viewBox="0 0 24 24" fill="none" xmlns="http://www.w3.org/2000/svg">
<path d="M5.56595 10.4064L5.89263 7.46636C6.23841 4.35435 8.86884 2 12 2C15.1312 2 17.7616 4.35435 18.1074 7.46636L18.434 10.4064C18.4767 10.7907 18.6489 11.1489 18.9223 11.4223L19.6163 12.1163C20.5023 13.0023 21 14.2039 21 15.4568C21 17.4137 19.4137 19 17.4568 19H6.54316C4.58633 19 3 17.4137 3 15.4568C3 14.2039 3.49773 13.0023 4.38369 12.1163L5.07771 11.4223C5.35107 11.1489 5.52326 10.7907 5.56595 10.4064Z" stroke="#020203" stroke-width="1.5" stroke-linecap="round"/>
<path d="M9.5 19V19.5C9.5 20.8807 10.6193 22 12 22C13.3807 22 14.5 20.8807 14.5 19.5V19" stroke="#020203" stroke-width="1.5" stroke-linecap="round"/>
</svg>
