<svg width="24" height="24" viewBox="0 0 24 24" fill="none" xmlns="http://www.w3.org/2000/svg">
<path d="M5.02164 10.4718L5.38661 7.17221C5.75949 3.80112 8.60834 1.25 12 1.25C15.3917 1.25 18.2405 3.80112 18.6134 7.17221L18.9784 10.4718C19.0187 10.8362 19.2112 11.1666 19.5085 11.3812L19.7674 11.5682C21.0125 12.4674 21.75 13.9097 21.75 15.4456C21.75 17.8228 19.8228 19.75 17.4456 19.75H6.55444C4.17717 19.75 2.25 17.8228 2.25 15.4456C2.25 13.9098 2.98753 12.4674 4.23261 11.5682L4.49153 11.3812C4.78876 11.1666 4.98133 10.8362 5.02164 10.4718Z" fill="#020203"/>
<path d="M9.5 19V19.5C9.5 20.8807 10.6193 22 12 22C13.3807 22 14.5 20.8807 14.5 19.5V19" stroke="#020203" stroke-width="1.5" stroke-linecap="round"/>
</svg>
