<svg width="24" height="24" viewBox="0 0 24 24" fill="none" xmlns="http://www.w3.org/2000/svg">
<path d="M9.5 6.25C9.5 5.2835 10.2835 4.5 11.25 4.5H12.75C13.7165 4.5 14.5 5.2835 14.5 6.25V7.75C14.5 8.7165 13.7165 9.5 12.75 9.5H11.25C10.2835 9.5 9.5 8.7165 9.5 7.75V6.25Z" stroke="#020203" stroke-width="1.5"/>
<path d="M9.5 7H5" stroke="#020203" stroke-width="1.5" stroke-linecap="round" stroke-linejoin="round"/>
<path d="M14.5 7H19" stroke="#020203" stroke-width="1.5" stroke-linecap="round" stroke-linejoin="round"/>
<path d="M3 16.25C3 15.2835 3.7835 14.5 4.75 14.5H6.25C7.2165 14.5 8 15.2835 8 16.25V17.75C8 18.7165 7.2165 19.5 6.25 19.5H4.75C3.7835 19.5 3 18.7165 3 17.75V16.25Z" stroke="#020203" stroke-width="1.5"/>
<path d="M16 16.25C16 15.2835 16.7835 14.5 17.75 14.5H19.25C20.2165 14.5 21 15.2835 21 16.25V17.75C21 18.7165 20.2165 19.5 19.25 19.5H17.75C16.7835 19.5 16 18.7165 16 17.75V16.25Z" stroke="#020203" stroke-width="1.5"/>
<path opacity="0.4" d="M9.5 7L9.1 7.3C6.83375 8.99969 5.5 11.6672 5.5 14.5" stroke="#020203" stroke-width="1.5" stroke-linecap="round" stroke-linejoin="round"/>
<path opacity="0.4" d="M14.5 7L14.9 7.3C17.1663 8.99969 18.5 11.6672 18.5 14.5" stroke="#020203" stroke-width="1.5" stroke-linecap="round" stroke-linejoin="round"/>
<circle opacity="0.4" cx="3.5" cy="7" r="1.5" stroke="#020203" stroke-width="1.5"/>
<circle opacity="0.4" cx="20.5" cy="7" r="1.5" stroke="#020203" stroke-width="1.5"/>
</svg>
