<svg width="24" height="24" viewBox="0 0 24 24" fill="none" xmlns="http://www.w3.org/2000/svg">
<path fill-rule="evenodd" clip-rule="evenodd" d="M4.25 7C4.25 6.58579 4.58579 6.25 5 6.25H9.5C9.91421 6.25 10.25 6.58579 10.25 7C10.25 7.41421 9.91421 7.75 9.5 7.75H5C4.58579 7.75 4.25 7.41421 4.25 7Z" fill="#020203"/>
<path fill-rule="evenodd" clip-rule="evenodd" d="M13.75 7C13.75 6.58579 14.0858 6.25 14.5 6.25H19C19.4142 6.25 19.75 6.58579 19.75 7C19.75 7.41421 19.4142 7.75 19 7.75H14.5C14.0858 7.75 13.75 7.41421 13.75 7Z" fill="#020203"/>
<path d="M2.25 16.25C2.25 14.8693 3.36929 13.75 4.75 13.75H6.25C7.63071 13.75 8.75 14.8693 8.75 16.25V17.75C8.75 19.1307 7.63071 20.25 6.25 20.25H4.75C3.36929 20.25 2.25 19.1307 2.25 17.75V16.25Z" fill="#020203"/>
<path d="M15.25 16.25C15.25 14.8693 16.3693 13.75 17.75 13.75H19.25C20.6307 13.75 21.75 14.8693 21.75 16.25V17.75C21.75 19.1307 20.6307 20.25 19.25 20.25H17.75C16.3693 20.25 15.25 19.1307 15.25 17.75V16.25Z" fill="#020203"/>
<path opacity="0.4" fill-rule="evenodd" clip-rule="evenodd" d="M10.1 6.55C10.3485 6.88137 10.2814 7.35147 9.95 7.6L9.55 7.9C7.4726 9.45805 6.25 11.9033 6.25 14.5C6.25 14.9142 5.91421 15.25 5.5 15.25C5.08579 15.25 4.75 14.9142 4.75 14.5C4.75 11.4311 6.19489 8.54133 8.65 6.7L9.05 6.4C9.38137 6.15147 9.85147 6.21863 10.1 6.55Z" fill="#020203"/>
<path opacity="0.4" fill-rule="evenodd" clip-rule="evenodd" d="M13.9 6.55C14.1485 6.21863 14.6186 6.15147 14.95 6.4L15.35 6.7C17.8051 8.54133 19.25 11.4311 19.25 14.5C19.25 14.9142 18.9142 15.25 18.5 15.25C18.0858 15.25 17.75 14.9142 17.75 14.5C17.75 11.9033 16.5274 9.45805 14.45 7.9L14.05 7.6C13.7186 7.35147 13.6515 6.88137 13.9 6.55Z" fill="#020203"/>
<path d="M8.75 6.25C8.75 4.86929 9.86929 3.75 11.25 3.75H12.75C14.1307 3.75 15.25 4.86929 15.25 6.25V7.75C15.25 9.13071 14.1307 10.25 12.75 10.25H11.25C9.86929 10.25 8.75 9.13071 8.75 7.75V6.25Z" fill="#020203"/>
<circle opacity="0.4" cx="3.5" cy="7" r="2" fill="#020203"/>
<circle opacity="0.4" cx="20.5" cy="7" r="2" fill="#020203"/>
</svg>
