<svg width="24" height="24" viewBox="0 0 24 24" fill="none" xmlns="http://www.w3.org/2000/svg">
<path d="M2 21.5L2.10557 21.4472C2.69377 21.1531 3.34237 21 4 21C4.65763 21 5.30623 21.1531 5.89443 21.4472L6.10557 21.5528C6.69377 21.8469 7.34237 22 8 22C8.65763 22 9.30623 21.8469 9.89443 21.5528L10.1056 21.4472C10.6938 21.1531 11.3424 21 12 21C12.6576 21 13.3062 21.1531 13.8944 21.4472L14.1056 21.5528C14.6938 21.8469 15.3424 22 16 22C16.6576 22 17.3062 21.8469 17.8944 21.5528L18.1056 21.4472C18.6938 21.1531 19.3424 21 20 21C20.6576 21 21.3062 21.1531 21.8944 21.4472L22 21.5" stroke="#020203" stroke-width="1.5" stroke-linecap="round"/>
<path d="M5.75 21.3L5.5 21L4.75 20C4.26317 19.3509 4 18.5614 4 17.75C4 15.6789 5.67893 14 7.75 14H16.25C18.3211 14 20 15.6789 20 17.75C20 18.5614 19.7368 19.3509 19.25 20L18.5 21L18.25 21.3" stroke="#020203" stroke-width="1.5" stroke-linecap="round"/>
<path d="M13.5 8.5V4.24303C13.5 3.49228 13.9571 2.81717 14.6541 2.53835C15.4432 2.22271 16.3458 2.48991 16.8359 3.18424L19.7741 7.34663C20.7093 8.67146 19.7618 10.5 18.1402 10.5H15.5C14.3954 10.5 13.5 9.60457 13.5 8.5Z" stroke="#020203" stroke-width="1.5" stroke-linecap="round"/>
<path d="M10.5 10.5V4.24303C10.5 3.49228 10.0429 2.81717 9.34586 2.53835C8.55676 2.22271 7.65416 2.48991 7.16405 3.18424L4.22589 7.34663C3.29071 8.67146 4.23818 10.5 5.85982 10.5H10.5Z" stroke="#020203" stroke-width="1.5" stroke-linecap="round"/>
<path d="M10.5 7V14" stroke="#020203" stroke-width="1.5" stroke-linecap="round"/>
</svg>
