<svg width="24" height="24" viewBox="0 0 24 24" fill="none" xmlns="http://www.w3.org/2000/svg">
<path fill-rule="evenodd" clip-rule="evenodd" d="M10.5 4.25C10.9142 4.25 11.25 4.58579 11.25 5L11.25 14C11.25 14.4142 10.9142 14.75 10.5 14.75C10.0858 14.75 9.75 14.4142 9.75 14L9.75 5C9.75 4.58579 10.0858 4.25 10.5 4.25Z" fill="#020203"/>
<path fill-rule="evenodd" clip-rule="evenodd" d="M6.21126 22.1414C5.35018 21.6195 4.24979 21.6195 3.38871 22.1414C3.03448 22.3561 2.57328 22.243 2.35859 21.8887C2.1439 21.5345 2.25703 21.0733 2.61126 20.8586C3.95019 20.0471 5.64979 20.0471 6.98871 20.8586C7.84979 21.3805 8.95018 21.3805 9.81126 20.8586C11.1502 20.0471 12.8498 20.0471 14.1887 20.8586C15.0498 21.3805 16.1502 21.3805 17.0113 20.8586C18.3502 20.0471 20.0498 20.0471 21.3887 20.8586C21.7429 21.0733 21.8561 21.5345 21.6414 21.8887C21.4267 22.243 20.9655 22.3561 20.6113 22.1414C19.7502 21.6195 18.6498 21.6195 17.7887 22.1414C16.4498 22.9529 14.7502 22.9529 13.4113 22.1414C12.5502 21.6195 11.4498 21.6195 10.5887 22.1414C9.24979 22.9529 7.55019 22.9529 6.21126 22.1414Z" fill="#020203"/>
<path opacity="0.4" d="M20.5208 19.2101C20.6718 18.7305 20.75 18.2278 20.75 17.7188C20.75 15.2508 18.7492 13.25 16.2812 13.25H7.71881C5.25075 13.25 3.25 15.2508 3.25 17.7188C3.25 18.2278 3.32822 18.7305 3.47925 19.2101C4.6358 18.8316 5.9259 18.9645 6.98873 19.6086C7.8498 20.1305 8.9502 20.1305 9.81127 19.6086C11.1502 18.7971 12.8498 18.7971 14.1887 19.6086C15.0498 20.1305 16.1502 20.1305 17.0113 19.6086C18.0741 18.9645 19.3642 18.8316 20.5208 19.2101Z" fill="#020203"/>
<path d="M14.2831 1.91114L14.6823 1.77697C15.615 1.46345 16.6432 1.79238 17.2208 2.58903L20.336 6.88584C21.6541 8.70395 20.3552 11.25 18.1096 11.25H15.5C13.9812 11.25 12.75 10.0188 12.75 8.5V4.04388C12.75 3.0775 13.3671 2.21905 14.2831 1.91114Z" fill="#020203"/>
<path d="M9.54655 1.85388L9.46253 1.82564C8.44034 1.48205 7.31303 1.83264 6.66599 2.69535L3.61001 6.77C2.22561 8.61586 3.54268 11.25 5.85001 11.25H11.25V4.22359C11.25 3.14983 10.5643 2.196 9.54655 1.85388Z" fill="#020203"/>
</svg>
