<svg width="24" height="24" viewBox="0 0 24 24" fill="none" xmlns="http://www.w3.org/2000/svg">
<path fill-rule="evenodd" clip-rule="evenodd" d="M3.25 7.5V18.9047C3.25 21.0284 4.9716 22.75 7.09529 22.75C7.68074 22.75 8.24854 22.5496 8.70431 22.1822L8.90359 22.0215C10.7108 20.5645 13.2892 20.5645 15.0964 22.0215L15.2957 22.1822C15.7515 22.5496 16.3193 22.75 16.9047 22.75C19.0284 22.75 20.75 21.0284 20.75 18.9047V7.5C20.75 4.04822 17.9518 1.25 14.5 1.25H9.5C6.04822 1.25 3.25 4.04822 3.25 7.5ZM9 7.25C8.58579 7.25 8.25 7.58579 8.25 8C8.25 8.41421 8.58579 8.75 9 8.75H15C15.4142 8.75 15.75 8.41421 15.75 8C15.75 7.58579 15.4142 7.25 15 7.25H9Z" fill="#020203"/>
</svg>
