<svg width="24" height="24" viewBox="0 0 24 24" fill="none" xmlns="http://www.w3.org/2000/svg">
<path d="M1.25925 9.75C1.25 10.4036 1.25 11.1459 1.25 12C1.25 13.3229 1.25 14.3775 1.28439 15.25H10.25V13C10.25 12.5858 10.5858 12.25 11 12.25C11.4142 12.25 11.75 12.5858 11.75 13V15.25H13.25V13C13.25 12.5858 13.5858 12.25 14 12.25C14.4142 12.25 14.75 12.5858 14.75 13V15.25H16.25V13C16.25 12.5858 16.5858 12.25 17 12.25C17.4142 12.25 17.75 12.5858 17.75 13V15.25H22.7156C22.75 14.3775 22.75 13.3229 22.75 12C22.75 11.1459 22.75 10.4036 22.7407 9.75H1.25925Z" fill="#020203"/>
<path d="M1.40526 16.75C1.48154 17.2953 1.59529 17.7578 1.76492 18.1835C2.50185 20.0331 3.96695 21.4982 5.8165 22.2351C7.10885 22.75 8.73923 22.75 12 22.75C15.2608 22.75 16.8912 22.75 18.1835 22.2351C20.0331 21.4982 21.4982 20.0331 22.2351 18.1835C22.4047 17.7578 22.5185 17.2953 22.5947 16.75H1.40526Z" fill="#020203"/>
<path d="M13.75 6V8.25H15.25V6C15.25 5.58579 15.5858 5.25 16 5.25C16.4142 5.25 16.75 5.58579 16.75 6V8.25H22.6907C22.6281 7.233 22.4995 6.48017 22.2351 5.8165C21.4982 3.96695 20.0331 2.50185 18.1835 1.76492C16.8912 1.25 15.2608 1.25 12 1.25C8.73923 1.25 7.10885 1.25 5.8165 1.76492C3.96695 2.50185 2.50185 3.96695 1.76492 5.8165C1.50049 6.48017 1.37185 7.233 1.30928 8.25H6.25V6C6.25 5.58579 6.58579 5.25 7 5.25C7.41421 5.25 7.75 5.58579 7.75 6V8.25H9.25V6C9.25 5.58579 9.58579 5.25 10 5.25C10.4142 5.25 10.75 5.58579 10.75 6V8.25H12.25V6C12.25 5.58579 12.5858 5.25 13 5.25C13.4142 5.25 13.75 5.58579 13.75 6Z" fill="#020203"/>
</svg>
