<svg width="24" height="24" viewBox="0 0 24 24" fill="none" xmlns="http://www.w3.org/2000/svg">
<path opacity="0.4" d="M3.25 18.9047V7.5C3.25 4.04822 6.04822 1.25 9.5 1.25H14.5C17.9518 1.25 20.75 4.04822 20.75 7.5V18.9047C20.75 21.0284 19.0284 22.75 16.9047 22.75C16.3193 22.75 15.7515 22.5496 15.2957 22.1822L15.0964 22.0215C13.2892 20.5645 10.7108 20.5645 8.90359 22.0215L8.70431 22.1822C8.24854 22.5496 7.68074 22.75 7.09529 22.75C4.9716 22.75 3.25 21.0284 3.25 18.9047Z" fill="#020203"/>
<path fill-rule="evenodd" clip-rule="evenodd" d="M8.25 8C8.25 7.58579 8.58579 7.25 9 7.25H15C15.4142 7.25 15.75 7.58579 15.75 8C15.75 8.41421 15.4142 8.75 15 8.75H9C8.58579 8.75 8.25 8.41421 8.25 8Z" fill="#020203"/>
</svg>
