<svg width="24" height="24" viewBox="0 0 24 24" fill="none" xmlns="http://www.w3.org/2000/svg">
<path fill-rule="evenodd" clip-rule="evenodd" d="M1.99451 3C1.99451 2.44772 2.44222 2 2.99451 2H3.00349C3.55577 2 4.00349 2.44772 4.00349 3C4.00349 3.55228 3.55577 4 3.00349 4H2.99451C2.44222 4 1.99451 3.55228 1.99451 3Z" fill="#020203"/>
<path fill-rule="evenodd" clip-rule="evenodd" d="M1.99451 7.5C1.99451 6.94772 2.44222 6.5 2.99451 6.5H3.00349C3.55577 6.5 4.00349 6.94772 4.00349 7.5C4.00349 8.05228 3.55577 8.5 3.00349 8.5H2.99451C2.44222 8.5 1.99451 8.05228 1.99451 7.5Z" fill="#020203"/>
<path fill-rule="evenodd" clip-rule="evenodd" d="M1.99451 12C1.99451 11.4477 2.44222 11 2.99451 11H3.00349C3.55577 11 4.00349 11.4477 4.00349 12C4.00349 12.5523 3.55577 13 3.00349 13H2.99451C2.44222 13 1.99451 12.5523 1.99451 12Z" fill="#020203"/>
<path fill-rule="evenodd" clip-rule="evenodd" d="M6.49255 12C6.49255 11.4477 6.94027 11 7.49255 11H7.50154C8.05382 11 8.50154 11.4477 8.50154 12C8.50154 12.5523 8.05382 13 7.50154 13H7.49255C6.94027 13 6.49255 12.5523 6.49255 12Z" fill="#020203"/>
<path fill-rule="evenodd" clip-rule="evenodd" d="M10.9906 12C10.9906 11.4477 11.4383 11 11.9906 11H11.9996C12.5519 11 12.9996 11.4477 12.9996 12C12.9996 12.5523 12.5519 13 11.9996 13H11.9906C11.4383 13 10.9906 12.5523 10.9906 12Z" fill="#020203"/>
<path fill-rule="evenodd" clip-rule="evenodd" d="M10.9906 7.5C10.9906 6.94772 11.4383 6.5 11.9906 6.5H11.9996C12.5519 6.5 12.9996 6.94772 12.9996 7.5C12.9996 8.05228 12.5519 8.5 11.9996 8.5H11.9906C11.4383 8.5 10.9906 8.05228 10.9906 7.5Z" fill="#020203"/>
<path fill-rule="evenodd" clip-rule="evenodd" d="M10.9906 16.5C10.9906 15.9477 11.4383 15.5 11.9906 15.5H11.9996C12.5519 15.5 12.9996 15.9477 12.9996 16.5C12.9996 17.0523 12.5519 17.5 11.9996 17.5H11.9906C11.4383 17.5 10.9906 17.0523 10.9906 16.5Z" fill="#020203"/>
<path fill-rule="evenodd" clip-rule="evenodd" d="M15.4886 12C15.4886 11.4477 15.9364 11 16.4886 11H16.4976C17.0499 11 17.4976 11.4477 17.4976 12C17.4976 12.5523 17.0499 13 16.4976 13H16.4886C15.9364 13 15.4886 12.5523 15.4886 12Z" fill="#020203"/>
<path fill-rule="evenodd" clip-rule="evenodd" d="M19.9867 12C19.9867 11.4477 20.4344 11 20.9867 11H20.9957C21.548 11 21.9957 11.4477 21.9957 12C21.9957 12.5523 21.548 13 20.9957 13H20.9867C20.4344 13 19.9867 12.5523 19.9867 12Z" fill="#020203"/>
<path fill-rule="evenodd" clip-rule="evenodd" d="M1.99451 16.5C1.99451 15.9477 2.44222 15.5 2.99451 15.5H3.00349C3.55577 15.5 4.00349 15.9477 4.00349 16.5C4.00349 17.0523 3.55577 17.5 3.00349 17.5H2.99451C2.44222 17.5 1.99451 17.0523 1.99451 16.5Z" fill="#020203"/>
<path fill-rule="evenodd" clip-rule="evenodd" d="M6.49255 3C6.49255 2.44772 6.94027 2 7.49255 2H7.50154C8.05382 2 8.50154 2.44772 8.50154 3C8.50154 3.55228 8.05382 4 7.50154 4H7.49255C6.94027 4 6.49255 3.55228 6.49255 3Z" fill="#020203"/>
<path fill-rule="evenodd" clip-rule="evenodd" d="M10.9906 3C10.9906 2.44772 11.4383 2 11.9906 2H11.9996C12.5519 2 12.9996 2.44772 12.9996 3C12.9996 3.55228 12.5519 4 11.9996 4H11.9906C11.4383 4 10.9906 3.55228 10.9906 3Z" fill="#020203"/>
<path fill-rule="evenodd" clip-rule="evenodd" d="M15.4945 3C15.4945 2.44772 15.9422 2 16.4945 2H16.5035C17.0558 2 17.5035 2.44772 17.5035 3C17.5035 3.55228 17.0558 4 16.5035 4H16.4945C15.9422 4 15.4945 3.55228 15.4945 3Z" fill="#020203"/>
<path fill-rule="evenodd" clip-rule="evenodd" d="M19.9945 3C19.9945 2.44772 20.4422 2 20.9945 2H21.0035C21.5558 2 22.0035 2.44772 22.0035 3C22.0035 3.55228 21.5558 4 21.0035 4H20.9945C20.4422 4 19.9945 3.55228 19.9945 3Z" fill="#020203"/>
<path fill-rule="evenodd" clip-rule="evenodd" d="M19.9945 7.5C19.9945 6.94772 20.4422 6.5 20.9945 6.5H21.0035C21.5558 6.5 22.0035 6.94772 22.0035 7.5C22.0035 8.05228 21.5558 8.5 21.0035 8.5H20.9945C20.4422 8.5 19.9945 8.05228 19.9945 7.5Z" fill="#020203"/>
<path fill-rule="evenodd" clip-rule="evenodd" d="M19.9945 16.5C19.9945 15.9477 20.4422 15.5 20.9945 15.5H21.0035C21.5558 15.5 22.0035 15.9477 22.0035 16.5C22.0035 17.0523 21.5558 17.5 21.0035 17.5H20.9945C20.4422 17.5 19.9945 17.0523 19.9945 16.5Z" fill="#020203"/>
<path fill-rule="evenodd" clip-rule="evenodd" d="M1.75 21.5C1.75 21.0858 2.08579 20.75 2.5 20.75H21.5C21.9142 20.75 22.25 21.0858 22.25 21.5C22.25 21.9142 21.9142 22.25 21.5 22.25H2.5C2.08579 22.25 1.75 21.9142 1.75 21.5Z" fill="#020203"/>
</svg>
