<svg width="24" height="24" viewBox="0 0 24 24" fill="none" xmlns="http://www.w3.org/2000/svg">
<path fill-rule="evenodd" clip-rule="evenodd" d="M1.99451 7.5C1.99451 6.94772 2.44222 6.5 2.99451 6.5H3.00349C3.55577 6.5 4.00349 6.94772 4.00349 7.5C4.00349 8.05228 3.55577 8.5 3.00349 8.5H2.99451C2.44222 8.5 1.99451 8.05228 1.99451 7.5Z" fill="#020203"/>
<path fill-rule="evenodd" clip-rule="evenodd" d="M1.75 2.5C1.75 2.08579 2.08579 1.75 2.5 1.75H21.5C21.9142 1.75 22.25 2.08579 22.25 2.5C22.25 2.91421 21.9142 3.25 21.5 3.25H2.5C2.08579 3.25 1.75 2.91421 1.75 2.5Z" fill="#020203"/>
<path fill-rule="evenodd" clip-rule="evenodd" d="M1.99451 12C1.99451 11.4477 2.44222 11 2.99451 11H3.00349C3.55577 11 4.00349 11.4477 4.00349 12C4.00349 12.5523 3.55577 13 3.00349 13H2.99451C2.44222 13 1.99451 12.5523 1.99451 12Z" fill="#020203"/>
<path fill-rule="evenodd" clip-rule="evenodd" d="M6.49255 12C6.49255 11.4477 6.94027 11 7.49255 11H7.50154C8.05382 11 8.50154 11.4477 8.50154 12C8.50154 12.5523 8.05382 13 7.50154 13H7.49255C6.94027 13 6.49255 12.5523 6.49255 12Z" fill="#020203"/>
<path fill-rule="evenodd" clip-rule="evenodd" d="M10.9906 12C10.9906 11.4477 11.4383 11 11.9906 11H11.9996C12.5519 11 12.9996 11.4477 12.9996 12C12.9996 12.5523 12.5519 13 11.9996 13H11.9906C11.4383 13 10.9906 12.5523 10.9906 12Z" fill="#020203"/>
<path fill-rule="evenodd" clip-rule="evenodd" d="M10.9906 7.5C10.9906 6.94772 11.4383 6.5 11.9906 6.5H11.9996C12.5519 6.5 12.9996 6.94772 12.9996 7.5C12.9996 8.05228 12.5519 8.5 11.9996 8.5H11.9906C11.4383 8.5 10.9906 8.05228 10.9906 7.5Z" fill="#020203"/>
<path fill-rule="evenodd" clip-rule="evenodd" d="M10.9906 16.5C10.9906 15.9477 11.4383 15.5 11.9906 15.5H11.9996C12.5519 15.5 12.9996 15.9477 12.9996 16.5C12.9996 17.0523 12.5519 17.5 11.9996 17.5H11.9906C11.4383 17.5 10.9906 17.0523 10.9906 16.5Z" fill="#020203"/>
<path fill-rule="evenodd" clip-rule="evenodd" d="M15.4886 12C15.4886 11.4477 15.9364 11 16.4886 11H16.4976C17.0499 11 17.4976 11.4477 17.4976 12C17.4976 12.5523 17.0499 13 16.4976 13H16.4886C15.9364 13 15.4886 12.5523 15.4886 12Z" fill="#020203"/>
<path fill-rule="evenodd" clip-rule="evenodd" d="M19.9867 12C19.9867 11.4477 20.4344 11 20.9867 11H20.9957C21.548 11 21.9957 11.4477 21.9957 12C21.9957 12.5523 21.548 13 20.9957 13H20.9867C20.4344 13 19.9867 12.5523 19.9867 12Z" fill="#020203"/>
<path fill-rule="evenodd" clip-rule="evenodd" d="M1.99451 16.5C1.99451 15.9477 2.44222 15.5 2.99451 15.5H3.00349C3.55577 15.5 4.00349 15.9477 4.00349 16.5C4.00349 17.0523 3.55577 17.5 3.00349 17.5H2.99451C2.44222 17.5 1.99451 17.0523 1.99451 16.5Z" fill="#020203"/>
<path fill-rule="evenodd" clip-rule="evenodd" d="M1.99451 21C1.99451 20.4477 2.44222 20 2.99451 20H3.00349C3.55577 20 4.00349 20.4477 4.00349 21C4.00349 21.5523 3.55577 22 3.00349 22H2.99451C2.44222 22 1.99451 21.5523 1.99451 21Z" fill="#020203"/>
<path fill-rule="evenodd" clip-rule="evenodd" d="M6.49255 21C6.49255 20.4477 6.94027 20 7.49255 20H7.50154C8.05382 20 8.50154 20.4477 8.50154 21C8.50154 21.5523 8.05382 22 7.50154 22H7.49255C6.94027 22 6.49255 21.5523 6.49255 21Z" fill="#020203"/>
<path fill-rule="evenodd" clip-rule="evenodd" d="M10.9906 21C10.9906 20.4477 11.4383 20 11.9906 20H11.9996C12.5519 20 12.9996 20.4477 12.9996 21C12.9996 21.5523 12.5519 22 11.9996 22H11.9906C11.4383 22 10.9906 21.5523 10.9906 21Z" fill="#020203"/>
<path fill-rule="evenodd" clip-rule="evenodd" d="M15.4886 21C15.4886 20.4477 15.9364 20 16.4886 20H16.4976C17.0499 20 17.4976 20.4477 17.4976 21C17.4976 21.5523 17.0499 22 16.4976 22H16.4886C15.9364 22 15.4886 21.5523 15.4886 21Z" fill="#020203"/>
<path fill-rule="evenodd" clip-rule="evenodd" d="M19.9867 21C19.9867 20.4477 20.4344 20 20.9867 20H20.9957C21.548 20 21.9957 20.4477 21.9957 21C21.9957 21.5523 21.548 22 20.9957 22H20.9867C20.4344 22 19.9867 21.5523 19.9867 21Z" fill="#020203"/>
<path fill-rule="evenodd" clip-rule="evenodd" d="M19.9945 7.5C19.9945 6.94772 20.4422 6.5 20.9945 6.5H21.0035C21.5558 6.5 22.0035 6.94772 22.0035 7.5C22.0035 8.05228 21.5558 8.5 21.0035 8.5H20.9945C20.4422 8.5 19.9945 8.05228 19.9945 7.5Z" fill="#020203"/>
<path fill-rule="evenodd" clip-rule="evenodd" d="M19.9945 16.5C19.9945 15.9477 20.4422 15.5 20.9945 15.5H21.0035C21.5558 15.5 22.0035 15.9477 22.0035 16.5C22.0035 17.0523 21.5558 17.5 21.0035 17.5H20.9945C20.4422 17.5 19.9945 17.0523 19.9945 16.5Z" fill="#020203"/>
</svg>
