<svg width="24" height="24" viewBox="0 0 24 24" fill="none" xmlns="http://www.w3.org/2000/svg">
<path d="M9.75 7.5C9.75 7.08579 10.0858 6.75 10.5 6.75C10.9142 6.75 11.25 7.08579 11.25 7.5C11.25 7.91421 10.9142 8.25 10.5 8.25C10.0858 8.25 9.75 7.91421 9.75 7.5Z" fill="#020203"/>
<path d="M16.5 8.75C16.0858 8.75 15.75 9.08579 15.75 9.5C15.75 9.91421 16.0858 10.25 16.5 10.25C16.9142 10.25 17.25 9.91421 17.25 9.5C17.25 9.08579 16.9142 8.75 16.5 8.75Z" fill="#020203"/>
<path d="M10.75 13.5C10.75 13.0858 11.0858 12.75 11.5 12.75C11.9142 12.75 12.25 13.0858 12.25 13.5C12.25 13.9142 11.9142 14.25 11.5 14.25C11.0858 14.25 10.75 13.9142 10.75 13.5Z" fill="#020203"/>
<path fill-rule="evenodd" clip-rule="evenodd" d="M12 22.75C6.06294 22.75 1.25 17.9371 1.25 12C1.25 6.06294 6.06294 1.25 12 1.25C17.9371 1.25 22.75 6.06294 22.75 12C22.75 17.9371 17.9371 22.75 12 22.75ZM10.5 5.25C9.25736 5.25 8.25 6.25736 8.25 7.5C8.25 8.74264 9.25736 9.75 10.5 9.75C11.7426 9.75 12.75 8.74264 12.75 7.5C12.75 6.25736 11.7426 5.25 10.5 5.25ZM14.25 9.5C14.25 8.25736 15.2574 7.25 16.5 7.25C17.7426 7.25 18.75 8.25736 18.75 9.5C18.75 10.7426 17.7426 11.75 16.5 11.75C15.2574 11.75 14.25 10.7426 14.25 9.5ZM11.5 11.25C10.2574 11.25 9.25 12.2574 9.25 13.5C9.25 14.7426 10.2574 15.75 11.5 15.75C12.7426 15.75 13.75 14.7426 13.75 13.5C13.75 12.2574 12.7426 11.25 11.5 11.25Z" fill="#020203"/>
</svg>
