<svg width="24" height="24" viewBox="0 0 24 24" fill="none" xmlns="http://www.w3.org/2000/svg">
<path d="M2 12C2 14 2 16 7 16H17C22 16 22 14 22 12" stroke="#020203" stroke-width="1.5" stroke-linecap="round" stroke-linejoin="round"/>
<path d="M2 14C2 11.6718 2 10.5077 2.34678 9.57795C2.90427 8.08326 4.08326 6.90427 5.57795 6.34678C6.50769 6 7.67179 6 10 6H14C16.3282 6 17.4923 6 18.4221 6.34678C19.9167 6.90427 21.0957 8.08326 21.6532 9.57795C22 10.5077 22 11.6718 22 14C22 16.3282 22 17.4923 21.6532 18.4221C21.0957 19.9167 19.9167 21.0957 18.4221 21.6532C17.4923 22 16.3282 22 14 22H10C7.67179 22 6.50769 22 5.57795 21.6532C4.08326 21.0957 2.90427 19.9167 2.34678 18.4221C2 17.4923 2 16.3282 2 14Z" stroke="#020203" stroke-width="1.5"/>
<path d="M7.02747 6C7.27619 3.75002 9.18372 2 11.5 2H12.5C14.8163 2 16.7238 3.75002 16.9725 6" stroke="#020203" stroke-width="1.5" stroke-linecap="round" stroke-linejoin="round"/>
<path d="M8 15L8 17" stroke="#020203" stroke-width="1.5" stroke-linecap="round"/>
<path d="M16 15L16 17" stroke="#020203" stroke-width="1.5" stroke-linecap="round"/>
</svg>
