<svg width="24" height="24" viewBox="0 0 24 24" fill="none" xmlns="http://www.w3.org/2000/svg">
<path opacity="0.4" d="M15.25 16.75V17C15.25 17.4142 15.5858 17.75 16 17.75C16.4142 17.75 16.75 17.4142 16.75 17V16.75H17C19.5832 16.75 21.3937 16.236 22.575 15.35C22.6344 15.3054 22.6921 15.2601 22.7479 15.214C22.7389 16.7635 22.6915 17.67 22.4442 18.4314C21.8259 20.3341 20.3342 21.8259 18.4314 22.4441C17.49 22.75 16.3267 22.75 14.0001 22.75H10.0001C7.67345 22.75 6.51015 22.75 5.5687 22.4441C3.66596 21.8259 2.17419 20.3341 1.55595 18.4314C1.30857 17.67 1.26125 16.7635 1.2522 15.2141C1.30802 15.2601 1.36561 15.3055 1.425 15.35C2.60632 16.236 4.41675 16.75 7 16.75H7.25V17C7.25 17.4142 7.58578 17.75 8 17.75C8.41421 17.75 8.75 17.4142 8.75 17V16.75H15.25Z" fill="#020203"/>
<path d="M1.25787 12.2241C1.30871 12.9377 1.61171 13.615 2.32502 14.15C3.14369 14.764 4.58327 15.25 7.00002 15.25H7.25002V15C7.25002 14.5858 7.5858 14.25 8.00002 14.25C8.41423 14.25 8.75002 14.5858 8.75002 15V15.25H15.25V15C15.25 14.5858 15.5858 14.25 16 14.25C16.4142 14.25 16.75 14.5858 16.75 15V15.25H17C19.4168 15.25 20.8563 14.764 21.675 14.15C22.3888 13.6147 22.6917 12.9368 22.7423 12.2227C22.7235 11.0073 22.66 10.2328 22.4442 9.56864C21.8259 7.66591 20.3342 6.17413 18.4314 5.5559C17.49 5.25 16.3267 5.25 14.0001 5.25H10.0001C7.67347 5.25 6.51017 5.25 5.56872 5.5559C3.66598 6.17413 2.17421 7.66591 1.55597 9.56864C1.3401 10.233 1.27657 11.0079 1.25787 12.2241Z" fill="#020203"/>
<path fill-rule="evenodd" clip-rule="evenodd" d="M11.5 2.75C9.42893 2.75 7.75 4.42893 7.75 6.5C7.75 6.91421 7.41421 7.25 7 7.25C6.58579 7.25 6.25 6.91421 6.25 6.5C6.25 3.60051 8.6005 1.25 11.5 1.25H12.5C15.3995 1.25 17.75 3.60051 17.75 6.5C17.75 6.91421 17.4142 7.25 17 7.25C16.5858 7.25 16.25 6.91421 16.25 6.5C16.25 4.42893 14.5711 2.75 12.5 2.75H11.5Z" fill="#020203"/>
</svg>
