<svg width="24" height="24" viewBox="0 0 24 24" fill="none" xmlns="http://www.w3.org/2000/svg">
<path fill-rule="evenodd" clip-rule="evenodd" d="M11.5 2.75C9.42893 2.75 7.75 4.42893 7.75 6.5C7.75 6.91421 7.41421 7.25 7 7.25C6.58579 7.25 6.25 6.91421 6.25 6.5C6.25 3.60051 8.6005 1.25 11.5 1.25H12.5C15.3995 1.25 17.75 3.60051 17.75 6.5C17.75 6.91421 17.4142 7.25 17 7.25C16.5858 7.25 16.25 6.91421 16.25 6.5C16.25 4.42893 14.5711 2.75 12.5 2.75H11.5Z" fill="#020203"/>
<path fill-rule="evenodd" clip-rule="evenodd" d="M1.25 14C1.25 11.6734 1.25 10.5101 1.5559 9.56864C2.17413 7.66591 3.66591 6.17413 5.56864 5.5559C6.5101 5.25 7.6734 5.25 10 5.25H14C16.3266 5.25 17.4899 5.25 18.4314 5.5559C20.3341 6.17413 21.8259 7.66591 22.4441 9.56864C22.75 10.5101 22.75 11.6734 22.75 14C22.75 16.3266 22.75 17.4899 22.4441 18.4314C21.8259 20.3341 20.3341 21.8259 18.4314 22.4441C17.4899 22.75 16.3266 22.75 14 22.75H10C7.6734 22.75 6.5101 22.75 5.56864 22.4441C3.66591 21.8259 2.17413 20.3341 1.5559 18.4314C1.25 17.4899 1.25 16.3266 1.25 14ZM12 11.25C12.4142 11.25 12.75 11.5858 12.75 12V13.25H14C14.4142 13.25 14.75 13.5858 14.75 14C14.75 14.4142 14.4142 14.75 14 14.75H12.75V16C12.75 16.4142 12.4142 16.75 12 16.75C11.5858 16.75 11.25 16.4142 11.25 16V14.75H10C9.58579 14.75 9.25 14.4142 9.25 14C9.25 13.5858 9.58579 13.25 10 13.25H11.25V12C11.25 11.5858 11.5858 11.25 12 11.25Z" fill="#020203"/>
</svg>
