<svg width="24" height="24" viewBox="0 0 24 24" fill="none" xmlns="http://www.w3.org/2000/svg">
<path d="M6.52444 14.0598L8.31904 13.6052C8.67708 13.5145 9.05137 13.6779 9.22881 14.0018C10.4576 16.245 13.682 16.2491 14.9108 14.0059C15.0893 13.6799 15.4669 13.5174 15.8264 13.6118L17.389 14.0223C21.0323 14.9793 23.3139 10.1983 20.2784 7.96787C20.0595 7.80702 19.9302 7.55159 19.9302 7.27994V6.70454C19.9302 4.58815 17.8858 3.07321 15.861 3.68927C15.4891 3.80243 15.0881 3.62292 14.9195 3.27262C13.7114 0.762218 10.1431 0.640323 8.82683 3.09573L8.4476 3.80317C8.42164 3.8516 8.3648 3.87541 8.31181 3.8609C5.96886 3.21932 3.72217 5.25495 4.19672 7.63735C4.20576 7.68273 4.18713 7.72916 4.14923 7.75571L3.76096 8.02773C0.69224 10.1776 2.89226 14.9798 6.52444 14.0598Z" fill="#020203"/>
<path d="M6.70581 15.2635L7.08675 15.6594C8.13622 16.7498 8.77334 18.1716 8.88873 19.6807L8.90222 19.8571C9.02444 21.4555 10.357 22.69 11.96 22.69C13.5628 22.69 14.8953 21.4558 15.0177 19.8577L15.0313 19.6805C15.147 18.1716 15.7842 16.7499 16.8336 15.6594L17.2433 15.2337L15.8264 14.8616C15.4669 14.7671 15.0893 14.9296 14.9108 15.2556C13.682 17.4988 10.4576 17.4947 9.22882 15.2515C9.05138 14.9276 8.67709 14.7642 8.31905 14.8549L6.70581 15.2635Z" fill="#020203"/>
</svg>
