<svg width="24" height="24" viewBox="0 0 24 24" fill="none" xmlns="http://www.w3.org/2000/svg">
<path opacity="0.4" d="M6.50043 13.99L8.25485 16.0371C9.05836 16.9747 9.50002 18.1687 9.50002 19.4035V19.49C9.50002 20.8707 10.6193 21.99 12 21.99C13.3807 21.99 14.5 20.8707 14.5 19.49L14.5 19.4037C14.5 18.1688 14.9417 16.9746 15.7455 16.0371L17.5004 13.99" stroke="#020203" stroke-width="1.5" stroke-linecap="round"/>
<path d="M6.54425 13.7102L8.49872 13.2397C8.83638 13.1584 9.18748 13.3095 9.36091 13.6105C10.5653 15.7001 13.5831 15.7038 14.7875 13.6141C14.962 13.3113 15.316 13.1609 15.6551 13.2456L17.3932 13.6795C20.739 14.5147 22.7522 10.0915 19.9249 8.11708C19.7168 7.97177 19.5928 7.73397 19.5928 7.48018V7.16541C19.5928 5.13205 17.6432 3.66636 15.6899 4.23121C15.3374 4.33314 14.9603 4.16598 14.7945 3.83862C13.6089 1.49701 10.2721 1.38396 8.98263 3.67006L8.60963 4.33138C8.58451 4.37591 8.53256 4.39796 8.48308 4.38508L8.21447 4.31517C6.07111 3.75734 4.08853 5.64693 4.54284 7.81461C4.55177 7.85724 4.53386 7.90102 4.4976 7.92516L4.12549 8.17293C1.2711 10.0735 3.21025 14.5128 6.54425 13.7102Z" stroke="#020203" stroke-width="1.30851"/>
</svg>
