<svg width="24" height="24" viewBox="0 0 24 24" fill="none" xmlns="http://www.w3.org/2000/svg">
<path opacity="0.4" d="M1.28439 8.75C1.25 9.62251 1.25 10.6771 1.25 12C1.25 15.2608 1.25 16.8912 1.76492 18.1835C2.50185 20.0331 3.96695 21.4982 5.8165 22.2351C7.10885 22.75 8.73923 22.75 12 22.75C15.2608 22.75 16.8912 22.75 18.1835 22.2351C20.0331 21.4982 21.4982 20.0331 22.2351 18.1835C22.75 16.8912 22.75 15.2608 22.75 12C22.75 10.6771 22.75 9.62251 22.7156 8.75H1.28439Z" fill="#020203"/>
<path d="M1.40527 7.25H22.5948C22.5185 6.70468 22.4047 6.24224 22.2351 5.8165C21.4982 3.96695 20.0331 2.50185 18.1835 1.76492C16.8912 1.25 15.2608 1.25 12 1.25C8.73924 1.25 7.10886 1.25 5.81651 1.76492C3.96696 2.50185 2.50186 3.96695 1.76493 5.8165C1.5953 6.24224 1.48155 6.70468 1.40527 7.25Z" fill="#020203"/>
</svg>
