<svg width="24" height="24" viewBox="0 0 24 24" fill="none" xmlns="http://www.w3.org/2000/svg">
<path opacity="0.4" d="M1.28439 8.75C1.25 9.62251 1.25 10.6771 1.25 12C1.25 15.2608 1.25 16.8912 1.76492 18.1835C2.50185 20.0331 3.96695 21.4982 5.8165 22.2351C7.10885 22.75 8.73923 22.75 12 22.75C15.2608 22.75 16.8912 22.75 18.1835 22.2351C20.0331 21.4982 21.4982 20.0331 22.2351 18.1835C22.75 16.8912 22.75 15.2608 22.75 12C22.75 10.6771 22.75 9.62251 22.7156 8.75H1.28439Z" fill="#020203"/>
<path fill-rule="evenodd" clip-rule="evenodd" d="M13.4686 11.469C13.7615 11.1761 14.2363 11.1761 14.5292 11.469L16.4686 13.4083C17.3472 14.287 17.3473 15.7116 16.4686 16.5903L14.5292 18.5297C14.2363 18.8226 13.7615 18.8226 13.4686 18.5297C13.1757 18.2368 13.1757 17.7619 13.4686 17.469L15.4079 15.5297C15.7008 15.2368 15.7008 14.7619 15.4079 14.469L13.4686 12.5297C13.1757 12.2368 13.1757 11.7619 13.4686 11.469Z" fill="#020203"/>
<path fill-rule="evenodd" clip-rule="evenodd" d="M10.529 11.469C10.8219 11.7619 10.8219 12.2368 10.529 12.5297L8.58966 14.469C8.29677 14.7619 8.29677 15.2368 8.58967 15.5297L10.529 17.469C10.8219 17.7619 10.8219 18.2368 10.529 18.5297C10.2361 18.8226 9.76124 18.8226 9.46834 18.5297L7.52901 16.5903C6.65033 15.7116 6.65032 14.287 7.529 13.4083L9.46834 11.469C9.76124 11.1761 10.2361 11.1761 10.529 11.469Z" fill="#020203"/>
<path d="M1.40527 7.25H22.5948C22.5185 6.70468 22.4047 6.24224 22.2351 5.8165C21.4982 3.96695 20.0331 2.50185 18.1835 1.76492C16.8912 1.25 15.2608 1.25 12 1.25C8.73924 1.25 7.10886 1.25 5.81651 1.76492C3.96696 2.50185 2.50186 3.96695 1.76493 5.8165C1.5953 6.24224 1.48155 6.70468 1.40527 7.25Z" fill="#020203"/>
</svg>
