<svg width="24" height="24" viewBox="0 0 24 24" fill="none" xmlns="http://www.w3.org/2000/svg">
<path fill-rule="evenodd" clip-rule="evenodd" d="M1.28439 8.75C1.25 9.62251 1.25 10.6771 1.25 12C1.25 15.2608 1.25 16.8912 1.76492 18.1835C2.50185 20.0331 3.96695 21.4982 5.8165 22.2351C7.10885 22.75 8.73923 22.75 12 22.75C15.2608 22.75 16.8912 22.75 18.1835 22.2351C20.0331 21.4982 21.4982 20.0331 22.2351 18.1835C22.75 16.8912 22.75 15.2608 22.75 12C22.75 10.6771 22.75 9.62251 22.7156 8.75H1.28439ZM14.5294 11.469C14.2365 11.1761 13.7616 11.1761 13.4687 11.469C13.1758 11.7619 13.1758 12.2368 13.4687 12.5297L15.408 14.469C15.7009 14.7619 15.7009 15.2368 15.408 15.5297L13.4687 17.469C13.1758 17.7619 13.1758 18.2368 13.4687 18.5297C13.7616 18.8226 14.2365 18.8226 14.5294 18.5297L16.4687 16.5903C17.3474 15.7116 17.3474 14.287 16.4687 13.4083L14.5294 11.469ZM10.5291 11.469C10.822 11.7619 10.822 12.2368 10.5291 12.5297L8.58979 14.469C8.29689 14.7619 8.29689 15.2368 8.58979 15.5297L10.5291 17.469C10.822 17.7619 10.822 18.2368 10.5291 18.5297C10.2362 18.8226 9.76136 18.8226 9.46847 18.5297L7.52913 16.5903C6.65045 15.7116 6.65045 14.287 7.52913 13.4083L9.46847 11.469C9.76136 11.1761 10.2362 11.1761 10.5291 11.469Z" fill="#020203"/>
<path d="M1.40526 7.25H22.5947C22.5185 6.70468 22.4047 6.24224 22.2351 5.8165C21.4982 3.96695 20.0331 2.50185 18.1835 1.76492C16.8912 1.25 15.2608 1.25 12 1.25C8.73923 1.25 7.10885 1.25 5.8165 1.76492C3.96695 2.50185 2.50185 3.96695 1.76492 5.8165C1.59529 6.24224 1.48154 6.70468 1.40526 7.25Z" fill="#020203"/>
</svg>
