<svg width="24" height="24" viewBox="0 0 24 24" fill="none" xmlns="http://www.w3.org/2000/svg">
<path opacity="0.4" d="M2 12C2 8.73646 2 7.10469 2.57265 5.83232C3.22448 4.38401 4.38401 3.22448 5.83232 2.57265C7.10469 2 8.73646 2 12 2C15.2635 2 16.8953 2 18.1677 2.57265C19.616 3.22448 20.7755 4.38401 21.4273 5.83232C22 7.10469 22 8.73646 22 12C22 15.2635 22 16.8953 21.4273 18.1677C20.7755 19.616 19.616 20.7755 18.1677 21.4273C16.8953 22 15.2635 22 12 22C8.73646 22 7.10469 22 5.83232 21.4273C4.38401 20.7755 3.22448 19.616 2.57265 18.1677C2 16.8953 2 15.2635 2 12Z" stroke="#020203" stroke-width="1.5"/>
<path d="M13.999 11.9993L15.9384 13.9387C16.5241 14.5245 16.5241 15.4742 15.9384 16.06L13.999 17.9993" stroke="#020203" stroke-width="1.5" stroke-linecap="round" stroke-linejoin="round"/>
<path d="M9.9988 17.9993L8.05946 16.06C7.47367 15.4742 7.47367 14.5245 8.05946 13.9387L9.9988 11.9993" stroke="#020203" stroke-width="1.5" stroke-linecap="round" stroke-linejoin="round"/>
<path d="M2.5 8L21.5 8" stroke="#020203" stroke-width="1.5" stroke-linecap="round"/>
</svg>
