<svg width="24" height="24" viewBox="0 0 24 24" fill="none" xmlns="http://www.w3.org/2000/svg">
<path d="M9 17C9 15.8954 9.89543 15 11 15C12.1046 15 13 15.8954 13 17V20C13 21.1046 12.1046 22 11 22C9.89543 22 9 21.1046 9 20V17Z" stroke="#020203" stroke-width="1.5"/>
<path d="M6 8C4.34315 8 3 6.65685 3 5C3 3.34315 4.34315 2 6 2H15C16.6569 2 18 3.34315 18 5C18 6.65685 16.6569 8 15 8H6Z" stroke="#020203" stroke-width="1.5"/>
<path d="M11 15V14C11 12.8954 11.8954 12 13 12H18.5C19.8807 12 21 10.8807 21 9.5V7.5C21 6.11929 19.8807 5 18.5 5H18" stroke="#020203" stroke-width="1.5" stroke-linecap="round"/>
</svg>
