<svg width="24" height="24" viewBox="0 0 24 24" fill="none" xmlns="http://www.w3.org/2000/svg">
<path d="M3.25 10.75V11.6323C3.25 13.2456 4.13251 14.7296 5.55 15.5L7.91764 16.7868C8.5847 17.1493 9 17.8477 9 18.6069V19.75C9 21.4069 10.3431 22.75 12 22.75C13.6569 22.75 15 21.4069 15 19.75V18.6069C15 17.8477 15.4153 17.1493 16.0824 16.7868L18.45 15.5C19.8675 14.7296 20.75 13.2456 20.75 11.6323V10.75H3.25Z" fill="#020203"/>
<path d="M3.25 9.25H20.75V6.27751C20.75 3.50089 18.4991 1.25 15.7225 1.25H8.27751C5.50089 1.25 3.25 3.50089 3.25 6.27751V9.25Z" fill="#020203"/>
</svg>
