<svg width="24" height="24" viewBox="0 0 24 24" fill="none" xmlns="http://www.w3.org/2000/svg">
<path d="M8.25 17C8.25 15.4812 9.48122 14.25 11 14.25C12.5188 14.25 13.75 15.4812 13.75 17V20C13.75 21.5188 12.5188 22.75 11 22.75C9.48122 22.75 8.25 21.5188 8.25 20V17Z" fill="#020203"/>
<path d="M6 8.75C3.92893 8.75 2.25 7.07107 2.25 5C2.25 2.92893 3.92893 1.25 6 1.25H15C17.0711 1.25 18.75 2.92893 18.75 5C18.75 7.07107 17.0711 8.75 15 8.75H6Z" fill="#020203"/>
<path opacity="0.4" fill-rule="evenodd" clip-rule="evenodd" d="M17.25 5C17.25 4.58579 17.5858 4.25 18 4.25H18.5C20.2949 4.25 21.75 5.70507 21.75 7.5V9.5C21.75 11.2949 20.2949 12.75 18.5 12.75H13C12.3096 12.75 11.75 13.3096 11.75 14V15C11.75 15.4142 11.4142 15.75 11 15.75C10.5858 15.75 10.25 15.4142 10.25 15V14C10.25 12.4812 11.4812 11.25 13 11.25H18.5C19.4665 11.25 20.25 10.4665 20.25 9.5V7.5C20.25 6.5335 19.4665 5.75 18.5 5.75H18C17.5858 5.75 17.25 5.41421 17.25 5Z" fill="#020203"/>
</svg>
