<svg width="24" height="24" viewBox="0 0 24 24" fill="none" xmlns="http://www.w3.org/2000/svg">
<path opacity="0.4" d="M4 11.494V6.64572C4 4.07996 6.07996 2 8.64572 2H15.3543C17.92 2 20 4.07996 20 6.64572V11.494C20 13.0388 19.1562 14.4603 17.8 15.2L15.5047 16.452C14.8853 16.7898 14.5 17.4389 14.5 18.1444V19.5C14.5 20.8807 13.3807 22 12 22C10.6193 22 9.5 20.8807 9.5 19.5V18.1444C9.5 17.4389 9.11466 16.7898 8.49533 16.452L6.2 15.2C4.84381 14.4603 4 13.0388 4 11.494Z" stroke="#020203" stroke-width="1.5" stroke-linecap="round"/>
<path d="M4.5 10H19.5" stroke="#020203" stroke-width="1.5" stroke-linecap="round"/>
</svg>
