<svg width="24" height="24" viewBox="0 0 24 24" fill="none" xmlns="http://www.w3.org/2000/svg">
<path d="M4 10V10.2585C4 12.0076 4.72397 13.6787 6 14.875L7.14169 15.9453C7.5225 16.3023 7.78874 16.7579 7.9156 17.2547C7.94331 17.2516 7.97147 17.25 8 17.25H11.25L11.25 12.6045C11.0742 12.5363 10.9057 12.4473 10.7435 12.344L9.60457 11.6373C9.2526 11.4189 9.14432 10.9565 9.36272 10.6046C9.58111 10.2526 10.0435 10.1443 10.3954 10.3627L11.5466 11.077C11.7725 11.2213 11.9098 11.25 12 11.25C12.0902 11.25 12.2275 11.2213 12.4534 11.0771L12.4617 11.0718L13.6046 10.3627C13.9565 10.1443 14.4189 10.2526 14.6373 10.6046C14.8557 10.9565 14.7474 11.4189 14.3954 11.6373L13.2565 12.344C13.0943 12.4473 12.9258 12.5363 12.75 12.6045V17.25H16C16.0285 17.25 16.0567 17.2516 16.0844 17.2547C16.2113 16.7579 16.4775 16.3023 16.8583 15.9453L18 14.875C19.276 13.6787 20 12.0076 20 10.2585V10C20 5.58172 16.4183 2 12 2C7.58172 2 4 5.58172 4 10Z" fill="#020203"/>
<path d="M15.9298 18.75C15.5787 20.6006 13.9528 22 12 22C10.0472 22 8.42125 20.6006 8.0702 18.75H15.9298Z" fill="#020203"/>
</svg>
