<svg width="24" height="24" viewBox="0 0 24 24" fill="none" xmlns="http://www.w3.org/2000/svg">
<path d="M1.44278 13.2697C2.06364 13.325 2.66998 13.4965 3.22984 13.7764L3.44099 13.882C3.92505 14.124 4.45881 14.25 5 14.25C5.5412 14.25 6.07496 14.124 6.55902 13.882L6.77017 13.7764C7.46251 13.4302 8.22594 13.25 9 13.25C9.77407 13.25 10.5375 13.4302 11.2298 13.7764L11.441 13.882C11.925 14.124 12.4588 14.25 13 14.25C13.5412 14.25 14.075 14.124 14.559 13.882L14.7702 13.7764C15.4625 13.4302 16.2259 13.25 17 13.25C17.7741 13.25 18.5375 13.4302 19.2298 13.7764L19.686 14.0045C20.0089 14.1659 20.365 14.25 20.7261 14.25H21.2929C21.5467 14.25 21.7902 14.1492 21.9697 13.9697C22.1625 13.7768 22.3841 13.6194 22.6244 13.5014C22.1808 11.7755 20.6144 10.5 18.75 10.5H5.25001C3.47012 10.5 1.96175 11.6625 1.44278 13.2697Z" fill="#020203"/>
<path d="M22.6633 15.3324C22.261 15.6026 21.7846 15.75 21.2929 15.75H20.7261C20.1321 15.75 19.5464 15.6117 19.0152 15.3461L18.559 15.118C18.075 14.876 17.5412 14.75 17 14.75C16.4588 14.75 15.925 14.876 15.441 15.118L15.2298 15.2236C14.5375 15.5698 13.7741 15.75 13 15.75C12.2259 15.75 11.4625 15.5698 10.7702 15.2236L10.559 15.118C10.075 14.876 9.5412 14.75 9 14.75C8.45881 14.75 7.92505 14.876 7.44099 15.118L7.22984 15.2236C6.5375 15.5698 5.77407 15.75 5 15.75C4.22594 15.75 3.46251 15.5698 2.77017 15.2236L2.55902 15.118C2.15219 14.9146 1.71025 14.7932 1.25829 14.7596C1.39205 16.8477 3.12807 18.5 5.25001 18.5H18.75C20.6737 18.5 22.2803 17.142 22.6633 15.3324Z" fill="#020203"/>
<path opacity="0.4" d="M21.7417 10.5948C21.5293 5.39796 17.2491 1.25 12 1.25C6.75094 1.25 2.47069 5.39795 2.25826 10.5948C2.99099 9.76984 4.05979 9.25 5.25 9.25H18.75C19.9402 9.25 21.009 9.76984 21.7417 10.5948Z" fill="#020203"/>
<path opacity="0.4" d="M2.38092 18.5372C2.92186 20.9484 5.07554 22.75 7.65 22.75H16.35C18.9245 22.75 21.0781 20.9484 21.6191 18.5372C20.8922 19.2853 19.8754 19.75 18.75 19.75H5.25C4.1246 19.75 3.10775 19.2853 2.38092 18.5372Z" fill="#020203"/>
<path fill-rule="evenodd" clip-rule="evenodd" d="M9 5.25C9.41421 5.25 9.75 5.58579 9.75 6L9.75 7C9.75 7.41421 9.41421 7.75 9 7.75C8.58579 7.75 8.25 7.41421 8.25 7L8.25 6C8.25 5.58579 8.58579 5.25 9 5.25Z" fill="#020203"/>
<path fill-rule="evenodd" clip-rule="evenodd" d="M12 5.25C12.4142 5.25 12.75 5.58579 12.75 6L12.75 7C12.75 7.41421 12.4142 7.75 12 7.75C11.5858 7.75 11.25 7.41421 11.25 7L11.25 6C11.25 5.58579 11.5858 5.25 12 5.25Z" fill="#020203"/>
<path fill-rule="evenodd" clip-rule="evenodd" d="M15 5.25C15.4142 5.25 15.75 5.58579 15.75 6L15.75 7C15.75 7.41421 15.4142 7.75 15 7.75C14.5858 7.75 14.25 7.41421 14.25 7L14.25 6C14.25 5.58579 14.5858 5.25 15 5.25Z" fill="#020203"/>
</svg>
