<svg width="24" height="24" viewBox="0 0 24 24" fill="none" xmlns="http://www.w3.org/2000/svg">
<path d="M2 14.5C2 12.567 3.567 11 5.5 11H18.5C20.433 11 22 12.567 22 14.5C22 16.433 20.433 18 18.5 18H5.5C3.567 18 2 16.433 2 14.5Z" stroke="#020203" stroke-width="1.5"/>
<path d="M2.5 14.2745C2.63401 14.3252 2.76567 14.3828 2.89443 14.4472L3.10557 14.5528C3.69377 14.8469 4.34237 15 5 15C5.65763 15 6.30623 14.8469 6.89443 14.5528L7.10557 14.4472C7.69377 14.1531 8.34237 14 9 14C9.65763 14 10.3062 14.1531 10.8944 14.4472L11.1056 14.5528C11.6938 14.8469 12.3424 15 13 15C13.6576 15 14.3062 14.8469 14.8944 14.5528L15.1056 14.4472C15.6938 14.1531 16.3424 14 17 14C17.6576 14 18.3062 14.1531 18.8944 14.4472L19.3506 14.6753C19.7777 14.8888 20.2486 15 20.726 15H21.2929C21.3625 15 21.4316 14.9958 21.5 14.9874" stroke="#020203" stroke-width="1.5" stroke-linecap="round"/>
<path opacity="0.4" d="M3 12V11C3 6.02944 7.02944 2 12 2C16.9706 2 21 6.02944 21 11V12" stroke="#020203" stroke-width="1.5" stroke-linecap="round"/>
<path opacity="0.4" d="M3 17V17.5C3 19.9853 5.01472 22 7.5 22H16.5C18.9853 22 21 19.9853 21 17.5V17" stroke="#020203" stroke-width="1.5" stroke-linecap="round"/>
<path d="M9 6.5L9 7.5" stroke="#020203" stroke-width="1.5" stroke-linecap="round"/>
<path d="M12 6.5L12 7.5" stroke="#020203" stroke-width="1.5" stroke-linecap="round"/>
<path d="M15 6.5L15 7.5" stroke="#020203" stroke-width="1.5" stroke-linecap="round"/>
</svg>
