<svg width="24" height="24" viewBox="0 0 24 24" fill="none" xmlns="http://www.w3.org/2000/svg">
<path d="M9.25 1.25C5.93629 1.25 3.25 3.93629 3.25 7.25V10.25H20.75V7.25C20.75 3.93629 18.0637 1.25 14.75 1.25H9.25Z" fill="#020203"/>
<path fill-rule="evenodd" clip-rule="evenodd" d="M20.75 11.75H3.25V14.25C3.25 17.5637 5.93629 20.25 9.25 20.25H14.75C18.0637 20.25 20.75 17.5637 20.75 14.25V11.75ZM7.25 15C7.25 14.5858 7.58579 14.25 8 14.25H9C9.41421 14.25 9.75 14.5858 9.75 15C9.75 15.4142 9.41421 15.75 9 15.75H8C7.58579 15.75 7.25 15.4142 7.25 15ZM15 14.25C14.5858 14.25 14.25 14.5858 14.25 15C14.25 15.4142 14.5858 15.75 15 15.75H16C16.4142 15.75 16.75 15.4142 16.75 15C16.75 14.5858 16.4142 14.25 16 14.25H15Z" fill="#020203"/>
<path d="M16.1631 21.1811C16.4112 21.6672 16.9167 22.0001 17.4999 22.0001C18.3284 22.0001 18.9999 21.3285 18.9999 20.5001V19.9342C18.1975 20.5775 17.2262 21.0188 16.1631 21.1811Z" fill="#020203"/>
<path d="M5 19.934V20.5004C5 21.3288 5.67157 22.0004 6.5 22.0004C7.08339 22.0004 7.58899 21.6673 7.83705 21.181C6.77388 21.0187 5.8025 20.5774 5 19.934Z" fill="#020203"/>
<path fill-rule="evenodd" clip-rule="evenodd" d="M4.75 6C4.75 5.58579 4.41421 5.25 4 5.25C3.43393 5.25 2.73127 5.34656 2.16167 5.79405C1.55621 6.26972 1.25 7.01952 1.25 8C1.25 8.41421 1.58579 8.75 2 8.75C2.41421 8.75 2.75 8.41421 2.75 8C2.75 7.33734 2.94379 7.08714 3.08833 6.97359C3.26873 6.83186 3.56607 6.75 4 6.75C4.41421 6.75 4.75 6.41421 4.75 6Z" fill="#020203"/>
<path fill-rule="evenodd" clip-rule="evenodd" d="M19.25 6C19.25 5.58579 19.5858 5.25 20 5.25C20.5661 5.25 21.2687 5.34656 21.8383 5.79405C22.4438 6.26972 22.75 7.01952 22.75 8C22.75 8.41421 22.4142 8.75 22 8.75C21.5858 8.75 21.25 8.41421 21.25 8C21.25 7.33734 21.0562 7.08714 20.9117 6.97359C20.7313 6.83186 20.4339 6.75 20 6.75C19.5858 6.75 19.25 6.41421 19.25 6Z" fill="#020203"/>
</svg>
