<svg width="24" height="24" viewBox="0 0 24 24" fill="none" xmlns="http://www.w3.org/2000/svg">
<path d="M4 7.25C4 4.35051 6.35051 2 9.25 2H14.75C17.6495 2 20 4.35051 20 7.25V14.25C20 17.1495 17.6495 19.5 14.75 19.5H9.25C6.35051 19.5 4 17.1495 4 14.25V7.25Z" stroke="#020203" stroke-width="1.5"/>
<path d="M16 19.5V20.5C16 21.3284 16.6716 22 17.5 22C18.3284 22 19 21.3284 19 20.5V17.5" stroke="#020203" stroke-width="1.5" stroke-linecap="round"/>
<path d="M5 17.5V20.5002C5 21.3286 5.67157 22.0002 6.5 22.0002C7.32843 22.0002 8 21.3286 8 20.5002V19.5" stroke="#020203" stroke-width="1.5" stroke-linecap="round"/>
<path d="M4 11H20" stroke="#020203" stroke-width="1.5" stroke-linecap="round"/>
<path d="M4.5 6H19.5" stroke="#020203" stroke-width="1.5" stroke-linecap="round"/>
<path d="M2 8C2 6.35685 3 6 4 6" stroke="#020203" stroke-width="1.5" stroke-linecap="round"/>
<path d="M8 15H9" stroke="#020203" stroke-width="1.5" stroke-linecap="round"/>
<path d="M15 15H16" stroke="#020203" stroke-width="1.5" stroke-linecap="round"/>
<path d="M22 8C22 6.35685 21 6 20 6" stroke="#020203" stroke-width="1.5" stroke-linecap="round"/>
</svg>
