<svg width="24" height="24" viewBox="0 0 24 24" fill="none" xmlns="http://www.w3.org/2000/svg">
<path opacity="0.4" d="M1.25 12C1.25 9.20653 1.25 7.80979 1.65707 6.69136C2.33949 4.81644 3.81644 3.33949 5.69136 2.65707C6.80979 2.25 8.20653 2.25 11 2.25H13C15.7935 2.25 17.1902 2.25 18.3086 2.65707C20.1836 3.33949 21.6605 4.81644 22.3429 6.69136C22.75 7.80979 22.75 9.20653 22.75 12C22.75 14.7935 22.75 16.1902 22.3429 17.3086C21.6605 19.1836 20.1836 20.6605 18.3086 21.3429C17.1902 21.75 15.7935 21.75 13 21.75H11C8.20653 21.75 6.80979 21.75 5.69136 21.3429C3.81644 20.6605 2.33949 19.1836 1.65707 17.3086C1.25 16.1902 1.25 14.7935 1.25 12Z" fill="#020203"/>
<path fill-rule="evenodd" clip-rule="evenodd" d="M15.25 9C15.25 8.58579 15.5858 8.25 16 8.25H18C18.4142 8.25 18.75 8.58579 18.75 9C18.75 9.41421 18.4142 9.75 18 9.75H16C15.5858 9.75 15.25 9.41421 15.25 9Z" fill="#020203"/>
<path fill-rule="evenodd" clip-rule="evenodd" d="M15.25 12C15.25 11.5858 15.5858 11.25 16 11.25H18C18.4142 11.25 18.75 11.5858 18.75 12C18.75 12.4142 18.4142 12.75 18 12.75H16C15.5858 12.75 15.25 12.4142 15.25 12Z" fill="#020203"/>
<path fill-rule="evenodd" clip-rule="evenodd" d="M15.25 15C15.25 14.5858 15.5858 14.25 16 14.25H18C18.4142 14.25 18.75 14.5858 18.75 15C18.75 15.4142 18.4142 15.75 18 15.75H16C15.5858 15.75 15.25 15.4142 15.25 15Z" fill="#020203"/>
<path d="M6 10.5C6 12.1569 7.34315 13.5 9 13.5C10.6569 13.5 12 12.1569 12 10.5C12 8.84315 10.6569 7.5 9 7.5C7.34315 7.5 6 8.84315 6 10.5Z" fill="#020203"/>
<path fill-rule="evenodd" clip-rule="evenodd" d="M9 13.75C7.75736 13.75 6.75 14.7574 6.75 16C6.75 16.4142 6.41421 16.75 6 16.75C5.58579 16.75 5.25 16.4142 5.25 16C5.25 13.9289 6.92893 12.25 9 12.25C11.0711 12.25 12.75 13.9289 12.75 16C12.75 16.4142 12.4142 16.75 12 16.75C11.5858 16.75 11.25 16.4142 11.25 16C11.25 14.7574 10.2426 13.75 9 13.75Z" fill="#020203"/>
</svg>
