<svg width="24" height="24" viewBox="0 0 24 24" fill="none" xmlns="http://www.w3.org/2000/svg">
<path d="M9 8.75C8.0335 8.75 7.25 9.5335 7.25 10.5C7.25 11.4665 8.0335 12.25 9 12.25C9.9665 12.25 10.75 11.4665 10.75 10.5C10.75 9.5335 9.9665 8.75 9 8.75Z" fill="#020203"/>
<path fill-rule="evenodd" clip-rule="evenodd" d="M1.65707 6.69136C1.25 7.80979 1.25 9.20653 1.25 12C1.25 14.7935 1.25 16.1902 1.65707 17.3086C2.33949 19.1836 3.81644 20.6605 5.69136 21.3429C6.80979 21.75 8.20653 21.75 11 21.75H13C15.7935 21.75 17.1902 21.75 18.3086 21.3429C20.1836 20.6605 21.6605 19.1836 22.3429 17.3086C22.75 16.1902 22.75 14.7935 22.75 12C22.75 9.20653 22.75 7.80979 22.3429 6.69136C21.6605 4.81644 20.1836 3.33949 18.3086 2.65707C17.1902 2.25 15.7935 2.25 13 2.25H11C8.20653 2.25 6.80979 2.25 5.69136 2.65707C3.81644 3.33949 2.33949 4.81644 1.65707 6.69136ZM16 8.25C15.5858 8.25 15.25 8.58579 15.25 9C15.25 9.41421 15.5858 9.75 16 9.75H18C18.4142 9.75 18.75 9.41421 18.75 9C18.75 8.58579 18.4142 8.25 18 8.25H16ZM15.25 12C15.25 11.5858 15.5858 11.25 16 11.25H18C18.4142 11.25 18.75 11.5858 18.75 12C18.75 12.4142 18.4142 12.75 18 12.75H16C15.5858 12.75 15.25 12.4142 15.25 12ZM16 14.25C15.5858 14.25 15.25 14.5858 15.25 15C15.25 15.4142 15.5858 15.75 16 15.75H18C18.4142 15.75 18.75 15.4142 18.75 15C18.75 14.5858 18.4142 14.25 18 14.25H16ZM11.1564 12.9316C11.8272 12.3363 12.25 11.4675 12.25 10.5C12.25 8.70507 10.7949 7.25 9 7.25C7.20507 7.25 5.75 8.70507 5.75 10.5C5.75 11.4675 6.17276 12.3363 6.84363 12.9316C5.87975 13.6103 5.25 14.7316 5.25 16C5.25 16.4142 5.58579 16.75 6 16.75C6.41421 16.75 6.75 16.4142 6.75 16C6.75 14.7574 7.75736 13.75 9 13.75C10.2426 13.75 11.25 14.7574 11.25 16C11.25 16.4142 11.5858 16.75 12 16.75C12.4142 16.75 12.75 16.4142 12.75 16C12.75 14.7316 12.1203 13.6103 11.1564 12.9316Z" fill="#020203"/>
</svg>
