<svg width="24" height="24" viewBox="0 0 24 24" fill="none" xmlns="http://www.w3.org/2000/svg">
<path opacity="0.4" d="M2 12C2 9.20435 2 7.80653 2.45672 6.7039C3.06569 5.23373 4.23373 4.06569 5.7039 3.45672C6.80653 3 8.20435 3 11 3H13C15.7956 3 17.1935 3 18.2961 3.45672C19.7663 4.06569 20.9343 5.23373 21.5433 6.7039C22 7.80653 22 9.20435 22 12C22 14.7956 22 16.1935 21.5433 17.2961C20.9343 18.7663 19.7663 19.9343 18.2961 20.5433C17.1935 21 15.7956 21 13 21H11C8.20435 21 6.80653 21 5.7039 20.5433C4.23373 19.9343 3.06569 18.7663 2.45672 17.2961C2 16.1935 2 14.7956 2 12Z" stroke="#020203" stroke-width="1.5"/>
<path d="M16 9H18" stroke="#020203" stroke-width="1.5" stroke-linecap="round"/>
<path d="M16 12H18" stroke="#020203" stroke-width="1.5" stroke-linecap="round"/>
<path d="M16 15H18" stroke="#020203" stroke-width="1.5" stroke-linecap="round"/>
<path d="M6.5 10.5C6.5 11.8807 7.61929 13 9 13C10.3807 13 11.5 11.8807 11.5 10.5C11.5 9.11929 10.3807 8 9 8C7.61929 8 6.5 9.11929 6.5 10.5Z" stroke="#020203" stroke-width="1.5" stroke-linecap="round"/>
<path d="M6 16C6 14.3431 7.34315 13 9 13C10.6569 13 12 14.3431 12 16" stroke="#020203" stroke-width="1.5" stroke-linecap="round"/>
</svg>
