<svg width="24" height="24" viewBox="0 0 24 24" fill="none" xmlns="http://www.w3.org/2000/svg">
<path fill-rule="evenodd" clip-rule="evenodd" d="M3.25 7.5C3.25 4.04822 6.04822 1.25 9.5 1.25H14.5C17.9518 1.25 20.75 4.04822 20.75 7.5V9.25H3.25V7.5ZM14 5.25C13.5858 5.25 13.25 5.58579 13.25 6C13.25 6.41421 13.5858 6.75 14 6.75H16C16.4142 6.75 16.75 6.41421 16.75 6C16.75 5.58579 16.4142 5.25 16 5.25H14Z" fill="#020203"/>
<path fill-rule="evenodd" clip-rule="evenodd" d="M3.25 10.75H20.75V16.5C20.75 19.9518 17.9518 22.75 14.5 22.75H9.5C6.04822 22.75 3.25 19.9518 3.25 16.5V10.75ZM6.99451 14C6.99451 13.4477 7.44222 13 7.99451 13H8.00349C8.55577 13 9.00349 13.4477 9.00349 14C9.00349 14.5523 8.55577 15 8.00349 15H7.99451C7.44222 15 6.99451 14.5523 6.99451 14ZM7.99451 17C7.44222 17 6.99451 17.4477 6.99451 18C6.99451 18.5523 7.44222 19 7.99451 19H8.00349C8.55577 19 9.00349 18.5523 9.00349 18C9.00349 17.4477 8.55577 17 8.00349 17H7.99451ZM10.9926 14C10.9926 13.4477 11.4403 13 11.9926 13H12.0015C12.5538 13 13.0015 13.4477 13.0015 14C13.0015 14.5523 12.5538 15 12.0015 15H11.9926C11.4403 15 10.9926 14.5523 10.9926 14ZM11.9926 17C11.4403 17 10.9926 17.4477 10.9926 18C10.9926 18.5523 11.4403 19 11.9926 19H12.0015C12.5538 19 13.0015 18.5523 13.0015 18C13.0015 17.4477 12.5538 17 12.0015 17H11.9926ZM14.9906 14C14.9906 13.4477 15.4383 13 15.9906 13H15.9996C16.5519 13 16.9996 13.4477 16.9996 14C16.9996 14.5523 16.5519 15 15.9996 15H15.9906C15.4383 15 14.9906 14.5523 14.9906 14ZM15.9906 17C15.4383 17 14.9906 17.4477 14.9906 18C14.9906 18.5523 15.4383 19 15.9906 19H15.9996C16.5519 19 16.9996 18.5523 16.9996 18C16.9996 17.4477 16.5519 17 15.9996 17H15.9906Z" fill="#020203"/>
</svg>
