<svg width="24" height="24" viewBox="0 0 24 24" fill="none" xmlns="http://www.w3.org/2000/svg">
<path d="M9.25 14.7098C9.25 14.064 9.59697 13.5585 10.003 13.3548C10.349 13.1813 10.8693 13.1626 11.4485 13.791C11.5905 13.9451 11.7905 14.0327 12 14.0327C12.2095 14.0327 12.4095 13.9451 12.5515 13.791C13.1307 13.1626 13.651 13.1813 13.997 13.3548C14.403 13.5585 14.75 14.064 14.75 14.7098C14.75 15.3635 14.3852 16.1361 13.7878 16.7691C13.1813 17.4119 12.4899 17.75 12 17.75C11.5101 17.75 10.8187 17.4119 10.2122 16.7691C9.6148 16.1361 9.25 15.3635 9.25 14.7098Z" fill="#020203"/>
<path fill-rule="evenodd" clip-rule="evenodd" d="M2.25 13C2.25 11.6212 2.25 10.5827 2.29895 9.75H21.7011C21.75 10.5827 21.75 11.6212 21.75 13C21.75 15.7935 21.75 17.1902 21.3429 18.3086C20.6605 20.1836 19.1836 21.6605 17.3086 22.3429C16.1902 22.75 14.7935 22.75 12 22.75C9.20653 22.75 7.80979 22.75 6.69136 22.3429C4.81644 21.6605 3.33949 20.1836 2.65707 18.3086C2.25 17.1902 2.25 15.7935 2.25 13ZM9.33038 12.0141C10.162 11.5969 11.1376 11.6627 12 12.2825C12.8624 11.6627 13.838 11.5969 14.6696 12.0141C15.6248 12.4932 16.25 13.545 16.25 14.7098C16.25 15.8666 15.6426 16.9892 14.8788 17.7986C14.1243 18.5982 13.0656 19.25 12 19.25C10.9344 19.25 9.87573 18.5982 9.12118 17.7986C8.35742 16.9892 7.75 15.8666 7.75 14.7098C7.75 13.545 8.37525 12.4932 9.33038 12.0141Z" fill="#020203"/>
<path d="M21.3429 7.69136C21.4076 7.86906 21.462 8.05377 21.5078 8.25H2.49224C2.538 8.05377 2.5924 7.86906 2.65707 7.69136C3.33949 5.81644 4.81644 4.33949 6.69136 3.65707C7.80979 3.25 9.20653 3.25 12 3.25C14.7935 3.25 16.1902 3.25 17.3086 3.65707C19.1836 4.33949 20.6605 5.81644 21.3429 7.69136Z" fill="#020203"/>
<path fill-rule="evenodd" clip-rule="evenodd" d="M8 1.25C8.41421 1.25 8.75 1.58579 8.75 2V5C8.75 5.41421 8.41421 5.75 8 5.75C7.58579 5.75 7.25 5.41421 7.25 5V2C7.25 1.58579 7.58579 1.25 8 1.25Z" fill="#020203"/>
<path fill-rule="evenodd" clip-rule="evenodd" d="M16 1.25C16.4142 1.25 16.75 1.58579 16.75 2V5C16.75 5.41421 16.4142 5.75 16 5.75C15.5858 5.75 15.25 5.41421 15.25 5V2C15.25 1.58579 15.5858 1.25 16 1.25Z" fill="#020203"/>
</svg>
