<svg width="24" height="24" viewBox="0 0 24 24" fill="none" xmlns="http://www.w3.org/2000/svg">
<path fill-rule="evenodd" clip-rule="evenodd" d="M2.29895 9.75C2.25 10.5827 2.25 11.6212 2.25 13C2.25 15.7935 2.25 17.1902 2.65707 18.3086C3.33949 20.1836 4.81644 21.6605 6.69136 22.3429C7.80979 22.75 9.20653 22.75 12 22.75C14.7935 22.75 16.1902 22.75 17.3086 22.3429C19.1836 21.6605 20.6605 20.1836 21.3429 18.3086C21.75 17.1902 21.75 15.7935 21.75 13C21.75 11.6212 21.75 10.5827 21.7011 9.75H2.29895ZM9.5 14.75C9.08579 14.75 8.75 15.0858 8.75 15.5C8.75 15.9142 9.08579 16.25 9.5 16.25H11.25V18C11.25 18.4142 11.5858 18.75 12 18.75C12.4142 18.75 12.75 18.4142 12.75 18V16.25H14.5C14.9142 16.25 15.25 15.9142 15.25 15.5C15.25 15.0858 14.9142 14.75 14.5 14.75H12.75V13C12.75 12.5858 12.4142 12.25 12 12.25C11.5858 12.25 11.25 12.5858 11.25 13V14.75H9.5Z" fill="#020203"/>
<path d="M2.49224 8.25H21.5078C21.462 8.05377 21.4076 7.86906 21.3429 7.69136C20.6605 5.81644 19.1836 4.33949 17.3086 3.65707C16.1902 3.25 14.7935 3.25 12 3.25C9.20653 3.25 7.80979 3.25 6.69136 3.65707C4.81644 4.33949 3.33949 5.81644 2.65707 7.69136C2.5924 7.86906 2.538 8.05377 2.49224 8.25Z" fill="#020203"/>
<path fill-rule="evenodd" clip-rule="evenodd" d="M8 1.25C8.41421 1.25 8.75 1.58579 8.75 2V5C8.75 5.41421 8.41421 5.75 8 5.75C7.58579 5.75 7.25 5.41421 7.25 5V2C7.25 1.58579 7.58579 1.25 8 1.25Z" fill="#020203"/>
<path fill-rule="evenodd" clip-rule="evenodd" d="M16 1.25C16.4142 1.25 16.75 1.58579 16.75 2V5C16.75 5.41421 16.4142 5.75 16 5.75C15.5858 5.75 15.25 5.41421 15.25 5V2C15.25 1.58579 15.5858 1.25 16 1.25Z" fill="#020203"/>
</svg>
