<svg width="24" height="24" viewBox="0 0 24 24" fill="none" xmlns="http://www.w3.org/2000/svg">
<path d="M2.65707 7.69136C2.5924 7.86906 2.538 8.05377 2.49224 8.25H21.5078C21.462 8.05377 21.4076 7.86906 21.3429 7.69136C20.6605 5.81644 19.1836 4.33949 17.3086 3.65707C16.1902 3.25 14.7935 3.25 12 3.25C9.20653 3.25 7.80979 3.25 6.69136 3.65707C4.81644 4.33949 3.33949 5.81644 2.65707 7.69136Z" fill="#020203"/>
<path fill-rule="evenodd" clip-rule="evenodd" d="M2.25 13C2.25 11.6212 2.25 10.5827 2.29895 9.75H21.7011C21.75 10.5827 21.75 11.6212 21.75 13C21.75 15.7935 21.75 17.1902 21.3429 18.3086C20.6605 20.1836 19.1836 21.6605 17.3086 22.3429C16.1902 22.75 14.7935 22.75 12 22.75C9.20653 22.75 7.80979 22.75 6.69136 22.3429C4.81644 21.6605 3.33949 20.1836 2.65707 18.3086C2.25 17.1902 2.25 15.7935 2.25 13ZM15.5857 13.9685C15.8444 13.6451 15.792 13.1731 15.4685 12.9144C15.1451 12.6556 14.6731 12.7081 14.4144 13.0315L11.6958 16.4297C11.3788 16.826 10.7677 16.7995 10.4862 16.3772L9.62406 15.084C9.39429 14.7394 8.92864 14.6462 8.58399 14.876C8.23935 15.1058 8.14622 15.5714 8.37598 15.9161L9.23808 17.2092C10.0828 18.4763 11.9159 18.5558 12.8672 17.3667L15.5857 13.9685Z" fill="#020203"/>
<path fill-rule="evenodd" clip-rule="evenodd" d="M8 1.25C8.41421 1.25 8.75 1.58579 8.75 2V5C8.75 5.41421 8.41421 5.75 8 5.75C7.58579 5.75 7.25 5.41421 7.25 5V2C7.25 1.58579 7.58579 1.25 8 1.25Z" fill="#020203"/>
<path fill-rule="evenodd" clip-rule="evenodd" d="M16 1.25C16.4142 1.25 16.75 1.58579 16.75 2V5C16.75 5.41421 16.4142 5.75 16 5.75C15.5858 5.75 15.25 5.41421 15.25 5V2C15.25 1.58579 15.5858 1.25 16 1.25Z" fill="#020203"/>
</svg>
