<svg width="24" height="24" viewBox="0 0 24 24" fill="none" xmlns="http://www.w3.org/2000/svg">
<path d="M8.75 5.96558V5C8.75 2.92893 7.07107 1.25 5 1.25C2.92893 1.25 1.25 2.92893 1.25 5V5.83551C1.25 7.40302 1.59442 8.95138 2.25889 10.3711L2.89437 11.7289C2.97239 11.8955 3.17715 11.9586 3.3354 11.8646L6.44174 10.0204C7.87277 9.17081 8.75 7.62981 8.75 5.96558Z" fill="#020203"/>
<path d="M18.035 15.25L19.0009 15.2502C21.0716 15.2505 22.75 16.9292 22.75 18.9999C22.75 21.0708 21.0712 22.7496 19.0003 22.7496H18.1642C16.5962 22.7496 15.0473 22.4049 13.6272 21.7401L12.5351 21.2288C12.227 21.0846 12.1105 20.706 12.2842 20.4135L13.9793 17.5583C14.8291 16.127 16.3705 15.2497 18.035 15.25Z" fill="#020203"/>
<path fill-rule="evenodd" clip-rule="evenodd" d="M3.19075 10.6858C3.55626 10.491 4.01054 10.6293 4.20542 10.9948C6.20969 14.7541 9.29248 17.8286 13.0581 19.8229C13.4242 20.0167 13.5637 20.4706 13.3699 20.8367C13.176 21.2027 12.7221 21.3423 12.3561 21.1485C8.32605 19.0142 5.0268 15.7237 2.88179 11.7005C2.68692 11.335 2.82525 10.8807 3.19075 10.6858Z" fill="#020203"/>
<path fill-rule="evenodd" clip-rule="evenodd" d="M13.25 7C13.25 6.58579 13.5858 6.25 14 6.25H20C20.4142 6.25 20.75 6.58579 20.75 7C20.75 7.41421 20.4142 7.75 20 7.75H14C13.5858 7.75 13.25 7.41421 13.25 7Z" fill="#020203"/>
<path fill-rule="evenodd" clip-rule="evenodd" d="M17 3.25C17.4142 3.25 17.75 3.58579 17.75 4V10C17.75 10.4142 17.4142 10.75 17 10.75C16.5858 10.75 16.25 10.4142 16.25 10V4C16.25 3.58579 16.5858 3.25 17 3.25Z" fill="#020203"/>
</svg>
