<svg width="24" height="24" viewBox="0 0 24 24" fill="none" xmlns="http://www.w3.org/2000/svg">
<path d="M8.75 5.96558V5C8.75 2.92893 7.07107 1.25 5 1.25C2.92893 1.25 1.25 2.92893 1.25 5V5.83551C1.25 7.40302 1.59442 8.95138 2.25889 10.3711L2.89437 11.7289C2.97239 11.8955 3.17715 11.9586 3.3354 11.8646L6.44174 10.0204C7.87277 9.17081 8.75 7.62981 8.75 5.96558Z" fill="#020203"/>
<path d="M18.035 15.25L19.0009 15.2502C21.0716 15.2505 22.75 16.9292 22.75 18.9999C22.75 21.0708 21.0712 22.7496 19.0003 22.7496H18.1642C16.5962 22.7496 15.0473 22.4049 13.6272 21.7401L12.5351 21.2288C12.227 21.0846 12.1105 20.706 12.2842 20.4135L13.9793 17.5583C14.8291 16.127 16.3705 15.2497 18.035 15.25Z" fill="#020203"/>
<path opacity="0.4" fill-rule="evenodd" clip-rule="evenodd" d="M3.19075 10.6858C3.55626 10.491 4.01054 10.6293 4.20542 10.9948C4.97635 12.4408 5.90684 13.7855 6.97439 15.0063C7.24705 15.3181 7.2153 15.7919 6.90349 16.0646C6.59167 16.3373 6.11786 16.3055 5.8452 15.9937C4.70269 14.6871 3.70685 13.248 2.88179 11.7005C2.68692 11.335 2.82525 10.8807 3.19075 10.6858ZM8.42105 17.5378C8.68435 17.2181 9.15701 17.1723 9.47677 17.4356C10.5817 18.3454 11.7806 19.1463 13.0581 19.8229C13.4242 20.0167 13.5637 20.4706 13.3699 20.8367C13.176 21.2027 12.7221 21.3423 12.3561 21.1485C10.9889 20.4244 9.70575 19.5673 8.52328 18.5936C8.20352 18.3303 8.15775 17.8576 8.42105 17.5378Z" fill="#020203"/>
<path fill-rule="evenodd" clip-rule="evenodd" d="M20.6 5.55C20.8485 5.88137 20.7814 6.35147 20.45 6.6L4.44998 18.6C4.11861 18.8485 3.64851 18.7814 3.39998 18.45C3.15145 18.1186 3.21861 17.6485 3.54998 17.4L19.55 5.4C19.8814 5.15147 20.3515 5.21863 20.6 5.55Z" fill="#020203"/>
</svg>
