<svg width="24" height="24" viewBox="0 0 24 24" fill="none" xmlns="http://www.w3.org/2000/svg">
<path d="M3.51469 11.2929L2.92382 10.008C2.31515 8.68434 2 7.24471 2 5.78784V5C2 3.34315 3.34315 2 5 2C6.65685 2 8 3.34315 8 5V5.98257C8 7.25026 7.39649 8.44222 6.37472 9.19256L3.51469 11.2929ZM3.51469 11.2929C4.31838 12.8104 5.29158 14.2209 6.41013 15.5M12.7071 20.4852L13.9905 21.0756C15.3145 21.6847 16.7546 22 18.2119 22H18.9998C20.6567 22 22 20.6567 22 18.9998C22 17.343 20.657 15.9998 19.0002 15.9995L18.0176 15.9994C16.7493 15.9991 15.5566 16.603 14.8061 17.6255L12.7071 20.4852ZM12.7071 20.4852C11.3847 19.7849 10.1437 18.9559 9 18.0142" stroke="#020203" stroke-width="1.5" stroke-linecap="round" stroke-linejoin="round"/>
<path d="M20 6L4 18" stroke="#020203" stroke-width="1.5" stroke-linecap="round"/>
</svg>
