<svg width="24" height="24" viewBox="0 0 24 24" fill="none" xmlns="http://www.w3.org/2000/svg">
<path d="M18.0177 15.999L19.0003 15.9992C20.6571 15.9995 22 17.3426 22 18.9994C22 20.6564 20.6568 21.9997 18.9998 21.9997H18.212C16.7546 21.9997 15.3145 21.6843 13.9905 21.0753L12.7071 20.4849L14.8061 17.6252C15.5567 16.6027 16.7493 15.9988 18.0177 15.999Z" stroke="#020203" stroke-width="1.5" stroke-linejoin="round"/>
<path d="M8 5.98257V5C8 3.34315 6.65685 2 5 2C3.34315 2 2 3.34315 2 5V5.78784C2 7.24471 2.31515 8.68434 2.92382 10.008L3.51469 11.2929L6.37472 9.19256C7.39649 8.44222 8 7.25026 8 5.98257Z" stroke="#020203" stroke-width="1.5" stroke-linejoin="round"/>
<path opacity="0.4" d="M2.92383 10.0078L3.51469 11.2927C5.58854 15.2087 8.7911 18.4112 12.7071 20.4851L13.9905 21.0755" stroke="#020203" stroke-width="1.5" stroke-linejoin="round"/>
<path d="M15 4V10" stroke="#020203" stroke-width="1.5" stroke-linecap="round" stroke-linejoin="round"/>
<path d="M19 4V10" stroke="#020203" stroke-width="1.5" stroke-linecap="round" stroke-linejoin="round"/>
</svg>
