<svg width="24" height="24" viewBox="0 0 24 24" fill="none" xmlns="http://www.w3.org/2000/svg">
<path d="M8.75 5.96558V5C8.75 2.92893 7.07107 1.25 5 1.25C2.92893 1.25 1.25 2.92893 1.25 5V5.83551C1.25 7.40302 1.59442 8.95138 2.25889 10.3711L2.89437 11.7289C2.97239 11.8955 3.17715 11.9586 3.3354 11.8646L6.44174 10.0204C7.87277 9.17081 8.75 7.62981 8.75 5.96558Z" fill="#020203"/>
<path d="M18.035 15.2504L19.0009 15.2506C21.0715 15.2509 22.7499 16.9296 22.7499 19.0003C22.7499 21.0712 21.0711 22.75 19.0002 22.75H18.1641C16.5961 22.75 15.0473 22.4054 13.6272 21.7406L12.5351 21.2293C12.227 21.085 12.1105 20.7065 12.2841 20.4139L13.9793 17.5588C14.829 16.1275 16.3704 15.2502 18.035 15.2504Z" fill="#020203"/>
<path opacity="0.4" fill-rule="evenodd" clip-rule="evenodd" d="M3.19075 10.6854C3.55626 10.4906 4.01054 10.6289 4.20542 10.9944C6.20969 14.7536 9.29248 17.8282 13.0581 19.8225C13.4242 20.0163 13.5637 20.4702 13.3699 20.8363C13.176 21.2023 12.7221 21.3419 12.3561 21.148C8.32605 19.0138 5.0268 15.7233 2.88179 11.7001C2.68692 11.3346 2.82525 10.8803 3.19075 10.6854Z" fill="#020203"/>
</svg>
