<svg width="24" height="24" viewBox="0 0 24 24" fill="none" xmlns="http://www.w3.org/2000/svg">
<path d="M8.75 5.96558V5C8.75 2.92893 7.07107 1.25 5 1.25C2.92893 1.25 1.25 2.92893 1.25 5V5.83551C1.25 7.40302 1.59442 8.95138 2.25889 10.3711L2.89437 11.7289C2.97239 11.8955 3.17715 11.9586 3.3354 11.8646L6.44174 10.0204C7.87277 9.17081 8.75 7.62981 8.75 5.96558Z" fill="#020203"/>
<path d="M18.035 15.25L19.0009 15.2502C21.0716 15.2505 22.75 16.9292 22.75 18.9999C22.75 21.0708 21.0712 22.7496 19.0003 22.7496H18.1642C16.5962 22.7496 15.0473 22.4049 13.6272 21.7401L12.5351 21.2288C12.227 21.0846 12.1105 20.706 12.2842 20.4135L13.9793 17.5583C14.8291 16.127 16.3705 15.2497 18.035 15.25Z" fill="#020203"/>
<path opacity="0.4" fill-rule="evenodd" clip-rule="evenodd" d="M3.19072 10.6858C3.55623 10.491 4.01051 10.6293 4.20539 10.9948C6.20966 14.7541 9.29245 17.8286 13.0581 19.8229C13.4241 20.0167 13.5637 20.4706 13.3699 20.8367C13.176 21.2027 12.7221 21.3423 12.3561 21.1485C8.32602 19.0142 5.02677 15.7237 2.88176 11.7005C2.68689 11.335 2.82521 10.8807 3.19072 10.6858Z" fill="#020203"/>
<path fill-rule="evenodd" clip-rule="evenodd" d="M16.8242 10.4283C16.3685 9.06123 15.1301 7.82276 13.763 7.36711C13.3701 7.23613 13.1577 6.8114 13.2886 6.41843C13.4196 6.02547 13.8444 5.81309 14.2373 5.94407C16.0523 6.54902 17.6423 8.13897 18.2473 9.9539C18.3782 10.3469 18.1659 10.7716 17.7729 10.9026C17.38 11.0336 16.9552 10.8212 16.8242 10.4283Z" fill="#020203"/>
<path fill-rule="evenodd" clip-rule="evenodd" d="M19.3521 8.82026C18.8732 6.67625 17.1148 4.91787 14.9708 4.43908C14.5665 4.34881 14.312 3.94791 14.4022 3.54365C14.4925 3.1394 14.8934 2.88486 15.2977 2.97514C18.009 3.58061 20.2104 5.78202 20.816 8.4933C20.9063 8.89755 20.6518 9.29846 20.2475 9.38875C19.8433 9.47903 19.4424 9.22452 19.3521 8.82026Z" fill="#020203"/>
</svg>
