<svg width="24" height="24" viewBox="0 0 24 24" fill="none" xmlns="http://www.w3.org/2000/svg">
<path d="M18.0177 15.9994L19.0003 15.9995C20.6571 15.9998 22 17.343 22 18.9998C22 20.6567 20.6568 22 18.9998 22H18.212C16.7546 22 15.3145 21.6847 13.9905 21.0756L12.7071 20.4852L14.8061 17.6255C15.5567 16.603 16.7493 15.9991 18.0177 15.9994Z" stroke="#020203" stroke-width="1.5" stroke-linejoin="round"/>
<path d="M8 5.98257V5C8 3.34315 6.65685 2 5 2C3.34315 2 2 3.34315 2 5V5.78784C2 7.24471 2.31515 8.68434 2.92382 10.008L3.51469 11.2929L6.37472 9.19256C7.39649 8.44222 8 7.25026 8 5.98257Z" stroke="#020203" stroke-width="1.5" stroke-linejoin="round"/>
<path opacity="0.4" d="M2.92383 10.008L3.51469 11.2929C5.58854 15.2088 8.7911 18.4114 12.7071 20.4853L13.9905 21.0756" stroke="#020203" stroke-width="1.5" stroke-linejoin="round"/>
</svg>
