<svg width="24" height="24" viewBox="0 0 24 24" fill="none" xmlns="http://www.w3.org/2000/svg">
<path d="M8.75 13C8.75 11.2051 10.2051 9.75 12 9.75C13.7949 9.75 15.25 11.2051 15.25 13C15.25 14.7949 13.7949 16.25 12 16.25C10.2051 16.25 8.75 14.7949 8.75 13Z" fill="#020203"/>
<path fill-rule="evenodd" clip-rule="evenodd" d="M7.8216 3.21079L7.19024 3.84704C6.82174 4.2184 6.35119 4.47185 5.83834 4.57522C3.1695 5.11312 1.25 7.4581 1.25 10.1806V15C1.25 18.7279 4.27208 21.75 8 21.75H16C19.7279 21.75 22.75 18.7279 22.75 15V10.1806C22.75 7.4581 20.8305 5.11312 18.1617 4.57522C17.6488 4.47185 17.1783 4.2184 16.8098 3.84704L16.1784 3.21079C15.5682 2.59586 14.7378 2.25 13.8714 2.25H10.1286C9.26225 2.25 8.4318 2.59586 7.8216 3.21079ZM12 8.25C9.37665 8.25 7.25 10.3766 7.25 13C7.25 15.6234 9.37665 17.75 12 17.75C14.6234 17.75 16.75 15.6234 16.75 13C16.75 10.3766 14.6234 8.25 12 8.25Z" fill="#020203"/>
</svg>
