<svg width="24" height="24" viewBox="0 0 24 24" fill="none" xmlns="http://www.w3.org/2000/svg">
<path opacity="0.4" d="M7.19024 3.84704L7.8216 3.21079C8.4318 2.59586 9.26225 2.25 10.1286 2.25H13.8714C14.7378 2.25 15.5682 2.59586 16.1784 3.21079L16.8098 3.84704C17.1783 4.2184 17.6488 4.47185 18.1617 4.57522C20.8305 5.11312 22.75 7.4581 22.75 10.1806V15C22.75 18.7279 19.7279 21.75 16 21.75H8C4.27208 21.75 1.25 18.7279 1.25 15V10.1806C1.25 7.4581 3.1695 5.11312 5.83834 4.57522C6.35119 4.47185 6.82174 4.2184 7.19024 3.84704Z" fill="#020203"/>
<path d="M8 13C8 15.2091 9.79086 17 12 17C14.2091 17 16 15.2091 16 13C16 10.7909 14.2091 9 12 9C9.79086 9 8 10.7909 8 13Z" fill="#020203"/>
</svg>
