<svg width="24" height="24" viewBox="0 0 24 24" fill="none" xmlns="http://www.w3.org/2000/svg">
<path opacity="0.32" d="M7.56203 4.43797L8.12132 3.87868C8.68393 3.31607 9.44699 3 10.2426 3H13.7574C14.553 3 15.3161 3.31607 15.8787 3.87868L16.438 4.43797C16.8044 4.80444 17.2712 5.05424 17.7794 5.15588C20.2335 5.6467 22 7.80149 22 10.3042V15C22 18.3137 19.3137 21 16 21H8C4.68629 21 2 18.3137 2 15V10.3042C2 7.80149 3.7665 5.6467 6.22061 5.15588C6.72881 5.05424 7.19556 4.80444 7.56203 4.43797Z" stroke="#020203" stroke-width="1.5" stroke-linecap="round" stroke-linejoin="round"/>
<path d="M8 13C8 15.2091 9.79086 17 12 17C14.2091 17 16 15.2091 16 13C16 10.7909 14.2091 9 12 9C9.79086 9 8 10.7909 8 13Z" stroke="#020203" stroke-width="1.5" stroke-linecap="round"/>
</svg>
