<svg width="24" height="24" viewBox="0 0 24 24" fill="none" xmlns="http://www.w3.org/2000/svg">
<path d="M16.9497 16.5962C14.3137 19.2322 10.0398 19.2322 7.40379 16.5962C4.76775 13.9602 4.76775 9.68629 7.40379 7.05025C10.0398 4.41421 14.3137 4.41421 16.9497 7.05025C19.5858 9.68629 19.5858 13.9602 16.9497 16.5962Z" stroke="#020203" stroke-width="1.5"/>
<path opacity="0.4" d="M5.45919 9.70225H3.78323C2.31418 9.70225 1.57848 7.92611 2.61725 6.88733C3.05889 6.44569 3.21044 5.78445 3.01294 5.19193C2.5678 3.85653 3.8561 2.56823 5.1915 3.01336C5.78403 3.21087 6.44527 3.05932 6.88691 2.61768C7.92568 1.5789 9.70183 2.3146 9.70183 3.78365V5.45961" stroke="#020203" stroke-width="1.5" stroke-linecap="round"/>
<path opacity="0.4" d="M18.5407 14.2984L20.2167 14.2984C21.6857 14.2984 22.4214 16.0746 21.3827 17.1134C20.941 17.555 20.7895 18.2162 20.987 18.8088C21.4321 20.1442 20.1438 21.4325 18.8084 20.9873C18.2159 20.7898 17.5547 20.9414 17.113 21.383C16.0742 22.4218 14.2981 21.6861 14.2981 20.217V18.5411" stroke="#020203" stroke-width="1.5" stroke-linecap="round"/>
</svg>
