<svg width="24" height="24" viewBox="0 0 24 24" fill="none" xmlns="http://www.w3.org/2000/svg">
<path d="M17.4832 17.1231C14.5543 20.052 9.80556 20.052 6.87663 17.1231C3.9477 14.1942 3.9477 9.44544 6.87663 6.5165C9.80556 3.58757 14.5543 3.58757 17.4832 6.5165C20.4122 9.44544 20.4122 14.1942 17.4832 17.1231Z" fill="#020203"/>
<path opacity="0.4" d="M13.7084 20.1758C15.4076 20.0301 17.0667 19.3071 18.367 18.0067C19.5703 16.8035 20.2792 15.2931 20.4938 13.728L20.7922 13.7533C22.489 13.8973 23.2427 15.9595 22.0385 17.1637C21.7376 17.4646 21.63 17.9121 21.7569 18.3183C22.4117 20.4137 20.4204 22.4049 18.3251 21.7501C17.9189 21.6232 17.4714 21.7308 17.1705 22.0317C15.9663 23.2359 13.9041 22.4823 13.7601 20.7854L13.7084 20.1758Z" fill="#020203"/>
<path opacity="0.4" d="M10.2714 3.50639L10.2461 3.20805C10.1021 1.5112 8.03992 0.757584 6.83575 1.96175C6.53484 2.26266 6.08734 2.37028 5.68117 2.24335C3.5858 1.58855 1.59455 3.5798 2.24936 5.67517C2.37628 6.08134 2.26866 6.52884 1.96776 6.82974C0.763585 8.03391 1.5172 10.0961 3.21405 10.2401L3.82363 10.2919C3.96934 8.5926 4.69238 6.93354 5.99274 5.63319C7.19597 4.42996 8.70632 3.72102 10.2714 3.50639Z" fill="#020203"/>
</svg>
