<svg width="24" height="24" viewBox="0 0 24 24" fill="none" xmlns="http://www.w3.org/2000/svg">
<path opacity="0.4" d="M1.25 12C1.25 9.20653 1.25 7.80979 1.65707 6.69136C2.33949 4.81644 3.81644 3.33949 5.69136 2.65707C6.80979 2.25 8.20653 2.25 11 2.25H13C15.7935 2.25 17.1902 2.25 18.3086 2.65707C20.1836 3.33949 21.6605 4.81644 22.3429 6.69136C22.75 7.80979 22.75 9.20653 22.75 12C22.75 14.7935 22.75 16.1902 22.3429 17.3086C21.6605 19.1836 20.1836 20.6605 18.3086 21.3429C17.1902 21.75 15.7935 21.75 13 21.75H11C8.20653 21.75 6.80979 21.75 5.69136 21.3429C3.81644 20.6605 2.33949 19.1836 1.65707 17.3086C1.25 16.1902 1.25 14.7935 1.25 12Z" fill="#020203"/>
<path fill-rule="evenodd" clip-rule="evenodd" d="M9.5 9.75C8.25736 9.75 7.25 10.7574 7.25 12C7.25 13.2426 8.25736 14.25 9.5 14.25C9.76432 14.25 10.0164 14.2047 10.2501 14.1222C10.6406 13.9841 11.0691 14.1888 11.2071 14.5794C11.3452 14.9699 11.1405 15.3984 10.7499 15.5364C10.358 15.675 9.93695 15.75 9.5 15.75C7.42893 15.75 5.75 14.0711 5.75 12C5.75 9.92893 7.42893 8.25 9.5 8.25C9.93695 8.25 10.358 8.32505 10.7499 8.46358C11.1405 8.60161 11.3452 9.0301 11.2071 9.42064C11.0691 9.81118 10.6406 10.0159 10.2501 9.87784C10.0164 9.79526 9.76432 9.75 9.5 9.75Z" fill="#020203"/>
<path fill-rule="evenodd" clip-rule="evenodd" d="M16.5 9.75C15.2574 9.75 14.25 10.7574 14.25 12C14.25 13.2426 15.2574 14.25 16.5 14.25C16.7643 14.25 17.0164 14.2047 17.2501 14.1222C17.6406 13.9841 18.0691 14.1888 18.2071 14.5794C18.3452 14.9699 18.1405 15.3984 17.7499 15.5364C17.358 15.675 16.937 15.75 16.5 15.75C14.4289 15.75 12.75 14.0711 12.75 12C12.75 9.92893 14.4289 8.25 16.5 8.25C16.937 8.25 17.358 8.32505 17.7499 8.46358C18.1405 8.60161 18.3452 9.0301 18.2071 9.42064C18.0691 9.81118 17.6406 10.0159 17.2501 9.87784C17.0164 9.79526 16.7643 9.75 16.5 9.75Z" fill="#020203"/>
</svg>
