<svg width="24" height="24" viewBox="0 0 24 24" fill="none" xmlns="http://www.w3.org/2000/svg">
<path opacity="0.4" fill-rule="evenodd" clip-rule="evenodd" d="M1.25 14.5C1.25 11.6005 3.60051 9.25 6.5 9.25H17.5C20.3995 9.25 22.75 11.6005 22.75 14.5C22.75 17.3995 20.3995 19.75 17.5 19.75H6.5C3.60051 19.75 1.25 17.3995 1.25 14.5Z" fill="#020203"/>
<path fill-rule="evenodd" clip-rule="evenodd" d="M5.25 14.5C5.25 14.0858 5.58579 13.75 6 13.75H8C8.41421 13.75 8.75 14.0858 8.75 14.5C8.75 14.9142 8.41421 15.25 8 15.25H6C5.58579 15.25 5.25 14.9142 5.25 14.5Z" fill="#020203"/>
<path fill-rule="evenodd" clip-rule="evenodd" d="M15.25 14.5C15.25 14.0858 15.5858 13.75 16 13.75H18C18.4142 13.75 18.75 14.0858 18.75 14.5C18.75 14.9142 18.4142 15.25 18 15.25H16C15.5858 15.25 15.25 14.9142 15.25 14.5Z" fill="#020203"/>
<path d="M2.367 10.0122L2.61911 8.83482C3.15691 6.32325 3.42581 5.06747 4.05057 4.10272C4.77272 2.98758 5.83143 2.13157 7.07306 1.65891C8.14723 1.25 9.43149 1.25 12 1.25C14.5685 1.25 15.8527 1.25 16.9269 1.65891C18.1685 2.13157 19.2273 2.98758 19.9494 4.10272C20.5742 5.06746 20.8431 6.32322 21.3808 8.83472L21.633 10.0122C20.6719 8.7871 19.1778 8 17.5 8H6.49999C4.82213 8 3.3281 8.7871 2.367 10.0122Z" fill="#020203"/>
<path d="M2.25 18.8328V20.25C2.25 21.6307 3.36929 22.75 4.75 22.75H5.25C6.36941 22.75 7.31698 22.0143 7.63555 21H6.5C4.75242 21 3.20428 20.1461 2.25 18.8328Z" fill="#020203"/>
<path d="M16.3 21C16.5316 22.1411 17.5405 23 18.75 23H19.25C20.6307 23 21.75 21.8807 21.75 20.5V18.8328C20.7957 20.1461 19.2476 21 17.5 21H16.3Z" fill="#020203"/>
</svg>
