<svg width="24" height="24" viewBox="0 0 24 24" fill="none" xmlns="http://www.w3.org/2000/svg">
<path fill-rule="evenodd" clip-rule="evenodd" d="M12 1.25C12.4142 1.25 12.75 1.58579 12.75 2L12.75 4C12.75 4.41421 12.4142 4.75 12 4.75C11.5858 4.75 11.25 4.41421 11.25 4L11.25 2C11.25 1.58579 11.5858 1.25 12 1.25Z" fill="#020203"/>
<path fill-rule="evenodd" clip-rule="evenodd" d="M14.5303 1.46967C14.8232 1.76256 14.8232 2.23744 14.5303 2.53033L12.5303 4.53033C12.2374 4.82322 11.7626 4.82322 11.4697 4.53033C11.1768 4.23744 11.1768 3.76256 11.4697 3.46967L13.4697 1.46967C13.7626 1.17678 14.2374 1.17678 14.5303 1.46967Z" fill="#020203"/>
<path fill-rule="evenodd" clip-rule="evenodd" d="M9.46967 1.46967C9.76256 1.17678 10.2374 1.17678 10.5303 1.46967L12.5303 3.46967C12.8232 3.76256 12.8232 4.23744 12.5303 4.53033C12.2374 4.82322 11.7626 4.82322 11.4697 4.53033L9.46967 2.53033C9.17678 2.23744 9.17678 1.76256 9.46967 1.46967Z" fill="#020203"/>
<path opacity="0.4" d="M15.428 20.7973L18.7683 14.5097C21.4801 9.40505 17.7803 3.25 12 3.25C6.21971 3.25 2.51988 9.40505 5.23173 14.5097L8.57199 20.7973C10.0316 23.5447 13.9684 23.5447 15.428 20.7973Z" fill="#020203"/>
<path d="M6.42187 16.75H10C10.4142 16.75 10.75 16.4142 10.75 16C10.75 15.5858 10.4142 15.25 10 15.25H5.625L6.42187 16.75Z" fill="#020203"/>
<path d="M4.87772 13.75H10C10.4142 13.75 10.75 13.4142 10.75 13C10.75 12.5858 10.4142 12.25 10 12.25H4.44421C4.53469 12.7522 4.67793 13.2543 4.87772 13.75Z" fill="#020203"/>
<path d="M4.32733 10.75H10C10.4142 10.75 10.75 10.4142 10.75 10C10.75 9.58579 10.4142 9.25 10 9.25H4.51258C4.402 9.73896 4.33889 10.2412 4.32733 10.75Z" fill="#020203"/>
</svg>
