<svg width="24" height="24" viewBox="0 0 24 24" fill="none" xmlns="http://www.w3.org/2000/svg">
<path fill-rule="evenodd" clip-rule="evenodd" d="M1.25 2C1.25 1.58579 1.58579 1.25 2 1.25C3.52074 1.25 4.81858 2.34944 5.06859 3.84949L5.24289 4.8953L5.93736 10.914C5.98484 11.3255 5.68976 11.6976 5.27828 11.7451C4.86679 11.7925 4.49473 11.4975 4.44725 11.086L3.7571 5.1047L3.589 4.09609C3.45954 3.31932 2.78748 2.75 2 2.75C1.58579 2.75 1.25 2.41421 1.25 2Z" fill="#020203"/>
<path opacity="0.4" d="M4.87 14.7407L4.24997 9.22148C3.95281 6.5998 5.99551 4.29999 8.58805 4.29999H17.9095C20.8278 4.29999 22.9134 7.17455 22.0552 10.0139L20.3869 15.5331C19.8269 17.3858 18.1454 18.65 16.2412 18.65H9.21366C7.01046 18.65 5.12254 16.9687 4.87 14.7407Z" fill="#020203"/>
<path fill-rule="evenodd" clip-rule="evenodd" d="M10.25 9.75C10.6642 9.75 11 10.0858 11 10.5L11 12.5C11 12.9142 10.6642 13.25 10.25 13.25C9.83579 13.25 9.5 12.9142 9.5 12.5L9.5 10.5C9.5 10.0858 9.83579 9.75 10.25 9.75Z" fill="#020203"/>
<path fill-rule="evenodd" clip-rule="evenodd" d="M13.25 9.75C13.6642 9.75 14 10.0858 14 10.5L14 12.5C14 12.9142 13.6642 13.25 13.25 13.25C12.8358 13.25 12.5 12.9142 12.5 12.5L12.5 10.5C12.5 10.0858 12.8358 9.75 13.25 9.75Z" fill="#020203"/>
<path fill-rule="evenodd" clip-rule="evenodd" d="M16.25 9.75C16.6642 9.75 17 10.0858 17 10.5L17 12.5C17 12.9142 16.6642 13.25 16.25 13.25C15.8358 13.25 15.5 12.9142 15.5 12.5L15.5 10.5C15.5 10.0858 15.8358 9.75 16.25 9.75Z" fill="#020203"/>
<path fill-rule="evenodd" clip-rule="evenodd" d="M9 23C8.44772 23 8 22.5523 8 22L8 21.999C8 21.4467 8.44772 20.999 9 20.999C9.55228 20.999 10 21.4467 10 21.999L10 22C10 22.5523 9.55228 23 9 23Z" fill="#020203"/>
<path fill-rule="evenodd" clip-rule="evenodd" d="M17 23C16.4477 23 16 22.5523 16 22L16 21.999C16 21.4467 16.4477 20.999 17 20.999C17.5523 20.999 18 21.4467 18 21.999L18 22C18 22.5523 17.5523 23 17 23Z" fill="#020203"/>
</svg>
