<svg width="24" height="24" viewBox="0 0 24 24" fill="none" xmlns="http://www.w3.org/2000/svg">
<path d="M5.59134 14.4585L5.01442 9.4585C4.74038 7.08346 6.59726 5 8.98806 5H17.5841C20.2754 5 22.1987 7.60413 21.4073 10.1763L19.8688 15.1763C19.3524 16.8547 17.8017 18 16.0457 18H9.56498C7.53323 18 5.82423 16.4769 5.59134 14.4585Z" stroke="#020203" stroke-width="1.5" stroke-linecap="round"/>
<path d="M5.19231 11L4.5 5L4.3288 3.97279C4.13906 2.83438 3.15411 2 2 2" stroke="#020203" stroke-width="1.5" stroke-linecap="round"/>
<path d="M10.25 10.5L10.25 12.5" stroke="#020203" stroke-width="1.5" stroke-linecap="round"/>
<path d="M13.25 10.5L13.25 12.5" stroke="#020203" stroke-width="1.5" stroke-linecap="round"/>
<path d="M16.25 10.5L16.25 12.5" stroke="#020203" stroke-width="1.5" stroke-linecap="round"/>
<path d="M9 22L9 21.999" stroke="#020203" stroke-width="2" stroke-linecap="round" stroke-linejoin="round"/>
<path d="M17 22L17 21.999" stroke="#020203" stroke-width="2" stroke-linecap="round" stroke-linejoin="round"/>
</svg>
