<svg width="24" height="24" viewBox="0 0 24 24" fill="none" xmlns="http://www.w3.org/2000/svg">
<path fill-rule="evenodd" clip-rule="evenodd" d="M12 17.25C12.4142 17.25 12.75 17.5858 12.75 18V22C12.75 22.4142 12.4142 22.75 12 22.75C11.5858 22.75 11.25 22.4142 11.25 22V18C11.25 17.5858 11.5858 17.25 12 17.25Z" fill="#020203"/>
<path opacity="0.4" fill-rule="evenodd" clip-rule="evenodd" d="M11.376 19.584C11.6057 19.2393 12.0714 19.1462 12.416 19.376L15.416 21.376C15.7607 21.6057 15.8538 22.0714 15.624 22.416C15.3943 22.7607 14.9286 22.8538 14.584 22.624L11.584 20.624C11.2393 20.3943 11.1462 19.9286 11.376 19.584Z" fill="#020203"/>
<path opacity="0.4" fill-rule="evenodd" clip-rule="evenodd" d="M12.624 19.584C12.3943 19.2393 11.9286 19.1462 11.584 19.376L8.58399 21.376C8.23934 21.6057 8.14621 22.0714 8.37597 22.416C8.60574 22.7607 9.07139 22.8538 9.41604 22.624L12.416 20.624C12.7607 20.3943 12.8538 19.9286 12.624 19.584Z" fill="#020203"/>
<path d="M4.25 15C4.25 12.9289 5.92893 11.25 8 11.25H16C18.0711 11.25 19.75 12.9289 19.75 15C19.75 17.0711 18.0711 18.75 16 18.75H8C5.92893 18.75 4.25 17.0711 4.25 15Z" fill="#020203"/>
<path opacity="0.4" d="M18.75 11.2005V8C18.75 6.37228 18.75 5.55842 18.5623 4.8928C18.0901 3.21847 16.7815 1.90993 15.1072 1.43772C14.4416 1.25 13.6277 1.25 12 1.25C10.3723 1.25 9.55842 1.25 8.8928 1.43772C7.21847 1.90993 5.90993 3.21847 5.43772 4.8928C5.25 5.55842 5.25 6.37228 5.25 8V11.2005C5.93487 10.4621 6.91347 10 8 10H16C17.0865 10 18.0651 10.4621 18.75 11.2005Z" fill="#020203"/>
</svg>
