<svg width="24" height="24" viewBox="0 0 24 24" fill="none" xmlns="http://www.w3.org/2000/svg">
<path d="M2 22V2" stroke="#020203" stroke-width="1.5" stroke-linecap="round"/>
<path d="M5 19C5 17.8954 5.89543 17 7 17H13C14.1046 17 15 17.8954 15 19C15 20.1046 14.1046 21 13 21H7C5.89543 21 5 20.1046 5 19Z" stroke="#020203" stroke-width="1.5"/>
<path d="M5 12C5 10.8954 5.89543 10 7 10H17C18.1046 10 19 10.8954 19 12C19 13.1046 18.1046 14 17 14H7C5.89543 14 5 13.1046 5 12Z" stroke="#020203" stroke-width="1.5"/>
<path d="M5 5C5 3.89543 5.89543 3 7 3H20C21.1046 3 22 3.89543 22 5C22 6.10457 21.1046 7 20 7H7C5.89543 7 5 6.10457 5 5Z" stroke="#020203" stroke-width="1.5"/>
</svg>
