<svg width="24" height="24" viewBox="0 0 24 24" fill="none" xmlns="http://www.w3.org/2000/svg">
<path fill-rule="evenodd" clip-rule="evenodd" d="M3 1.25C3.41421 1.25 3.75 1.58579 3.75 2V16C3.75 18.8994 6.10098 21.25 9.00057 21.25H21C21.4142 21.25 21.75 21.5858 21.75 22C21.75 22.4142 21.4142 22.75 21 22.75H9.00057C5.27274 22.75 2.25 19.728 2.25 16V2C2.25 1.58579 2.58579 1.25 3 1.25Z" fill="#020203"/>
<path d="M12 6C12 8.20914 13.7909 10 16 10C18.2091 10 20 8.20914 20 6C20 3.79086 18.2091 2 16 2C13.7909 2 12 3.79086 12 6Z" fill="#020203"/>
<path d="M15 15.5C15 16.8807 16.1193 18 17.5 18C18.8807 18 20 16.8807 20 15.5C20 14.1193 18.8807 13 17.5 13C16.1193 13 15 14.1193 15 15.5Z" fill="#020203"/>
<path d="M6 13C6 14.6569 7.34315 16 9 16C10.6569 16 12 14.6569 12 13C12 11.3431 10.6569 10 9 10C7.34315 10 6 11.3431 6 13Z" fill="#020203"/>
</svg>
