<svg width="24" height="24" viewBox="0 0 24 24" fill="none" xmlns="http://www.w3.org/2000/svg">
<path d="M2 22H22" stroke="#020203" stroke-width="1.5" stroke-linecap="round"/>
<path opacity="0.4" d="M5 9C6.10457 9 7 9.89543 7 11V17C7 18.1046 6.10457 19 5 19C3.89543 19 3 18.1046 3 17V11C3 9.89543 3.89543 9 5 9Z" stroke="#020203" stroke-width="1.5"/>
<path d="M12 5C13.1046 5 14 5.89543 14 7V17C14 18.1046 13.1046 19 12 19C10.8954 19 10 18.1046 10 17V7C10 5.89543 10.8954 5 12 5Z" stroke="#020203" stroke-width="1.5"/>
<path opacity="0.4" d="M19 2C20.1046 2 21 2.89543 21 4V17C21 18.1046 20.1046 19 19 19C17.8954 19 17 18.1046 17 17V4C17 2.89543 17.8954 2 19 2Z" stroke="#020203" stroke-width="1.5"/>
</svg>
