<svg width="24" height="24" viewBox="0 0 24 24" fill="none" xmlns="http://www.w3.org/2000/svg">
<path fill-rule="evenodd" clip-rule="evenodd" d="M3 1.25C3.41421 1.25 3.75 1.58579 3.75 2V16C3.75 18.8994 6.10098 21.25 9.00057 21.25H21C21.4142 21.25 21.75 21.5858 21.75 22C21.75 22.4142 21.4142 22.75 21 22.75H9.00057C5.27274 22.75 2.25 19.728 2.25 16V2C2.25 1.58579 2.58579 1.25 3 1.25Z" fill="#020203"/>
<path fill-rule="evenodd" clip-rule="evenodd" d="M8 12.25C8.41421 12.25 8.75 12.5858 8.75 13L8.75 18C8.75 18.4142 8.41421 18.75 8 18.75C7.58579 18.75 7.25 18.4142 7.25 18L7.25 13C7.25 12.5858 7.58579 12.25 8 12.25Z" fill="#020203"/>
<path fill-rule="evenodd" clip-rule="evenodd" d="M11.5 10.25C11.9142 10.25 12.25 10.5858 12.25 11L12.25 18C12.25 18.4142 11.9142 18.75 11.5 18.75C11.0858 18.75 10.75 18.4142 10.75 18L10.75 11C10.75 10.5858 11.0858 10.25 11.5 10.25Z" fill="#020203"/>
<path fill-rule="evenodd" clip-rule="evenodd" d="M15 8.25C15.4142 8.25 15.75 8.58579 15.75 9L15.75 18C15.75 18.4142 15.4142 18.75 15 18.75C14.5858 18.75 14.25 18.4142 14.25 18L14.25 9C14.25 8.58579 14.5858 8.25 15 8.25Z" fill="#020203"/>
<path fill-rule="evenodd" clip-rule="evenodd" d="M18.5 6.25C18.9142 6.25 19.25 6.58579 19.25 7L19.25 18C19.25 18.4142 18.9142 18.75 18.5 18.75C18.0858 18.75 17.75 18.4142 17.75 18L17.75 7C17.75 6.58579 18.0858 6.25 18.5 6.25Z" fill="#020203"/>
</svg>
