<svg width="24" height="24" viewBox="0 0 24 24" fill="none" xmlns="http://www.w3.org/2000/svg">
<path fill-rule="evenodd" clip-rule="evenodd" d="M3 13.25C3.41421 13.25 3.75 13.5858 3.75 14L3.75 22C3.75 22.4142 3.41421 22.75 3 22.75C2.58579 22.75 2.25 22.4142 2.25 22L2.25 14C2.25 13.5858 2.58579 13.25 3 13.25Z" fill="#020203"/>
<path fill-rule="evenodd" clip-rule="evenodd" d="M9 1.25C9.41421 1.25 9.75 1.58579 9.75 2L9.75 22C9.75 22.4142 9.41421 22.75 9 22.75C8.58579 22.75 8.25 22.4142 8.25 22L8.25 2C8.25 1.58579 8.58579 1.25 9 1.25Z" fill="#020203"/>
<path fill-rule="evenodd" clip-rule="evenodd" d="M15 5.25C15.4142 5.25 15.75 5.58579 15.75 6L15.75 22C15.75 22.4142 15.4142 22.75 15 22.75C14.5858 22.75 14.25 22.4142 14.25 22L14.25 6C14.25 5.58579 14.5858 5.25 15 5.25Z" fill="#020203"/>
<path fill-rule="evenodd" clip-rule="evenodd" d="M21 9.25C21.4142 9.25 21.75 9.58579 21.75 10L21.75 22C21.75 22.4142 21.4142 22.75 21 22.75C20.5858 22.75 20.25 22.4142 20.25 22L20.25 10C20.25 9.58579 20.5858 9.25 21 9.25Z" fill="#020203"/>
</svg>
