<svg width="24" height="24" viewBox="0 0 24 24" fill="none" xmlns="http://www.w3.org/2000/svg">
<path opacity="0.4" d="M3 2V16C3 19.3137 5.68686 22 9.00057 22H21" stroke="#020203" stroke-width="1.5" stroke-linecap="round"/>
<path opacity="0.4" d="M12 6C12 8.20914 13.7909 10 16 10C18.2091 10 20 8.20914 20 6C20 3.79086 18.2091 2 16 2C13.7909 2 12 3.79086 12 6Z" stroke="#020203" stroke-width="1.5" stroke-linecap="round"/>
<path d="M15 15.5C15 16.8807 16.1193 18 17.5 18C18.8807 18 20 16.8807 20 15.5C20 14.1193 18.8807 13 17.5 13C16.1193 13 15 14.1193 15 15.5Z" stroke="#020203" stroke-width="1.5" stroke-linecap="round"/>
<path d="M6 13C6 14.6569 7.34315 16 9 16C10.6569 16 12 14.6569 12 13C12 11.3431 10.6569 10 9 10C7.34315 10 6 11.3431 6 13Z" stroke="#020203" stroke-width="1.5" stroke-linecap="round"/>
</svg>
