<svg width="24" height="24" viewBox="0 0 24 24" fill="none" xmlns="http://www.w3.org/2000/svg">
<path d="M3 2V16C3 19.3137 5.68686 22 9.00057 22H21" stroke="#020203" stroke-width="1.5" stroke-linecap="round"/>
<path d="M13 5C13 7.20914 14.7909 9 17 9C19.2091 9 21 7.20914 21 5C21 2.79086 19.2091 1 17 1C14.7909 1 13 2.79086 13 5Z" stroke="#020203" stroke-width="1.5" stroke-linecap="round"/>
<path d="M16 14.5C16 15.8807 17.1193 17 18.5 17C19.8807 17 21 15.8807 21 14.5C21 13.1193 19.8807 12 18.5 12C17.1193 12 16 13.1193 16 14.5Z" stroke="#020203" stroke-width="1.5" stroke-linecap="round"/>
<path d="M7 12C7 13.6569 8.34315 15 10 15C11.6569 15 13 13.6569 13 12C13 10.3431 11.6569 9 10 9C8.34315 9 7 10.3431 7 12Z" stroke="#020203" stroke-width="1.5" stroke-linecap="round"/>
</svg>
