<svg width="24" height="24" viewBox="0 0 24 24" fill="none" xmlns="http://www.w3.org/2000/svg">
<path fill-rule="evenodd" clip-rule="evenodd" d="M2 1.25C2.41421 1.25 2.75 1.58579 2.75 2V22C2.75 22.4142 2.41421 22.75 2 22.75C1.58579 22.75 1.25 22.4142 1.25 22V2C1.25 1.58579 1.58579 1.25 2 1.25Z" fill="#020203"/>
<path d="M13 16.25C14.5188 16.25 15.75 17.4812 15.75 19C15.75 20.5188 14.5188 21.75 13 21.75H7C5.48122 21.75 4.25 20.5188 4.25 19C4.25 17.4812 5.48122 16.25 7 16.25H13Z" fill="#020203"/>
<path d="M17 9.24997C18.5188 9.24997 19.75 10.4812 19.75 12C19.75 13.5188 18.5188 14.75 17 14.75H7C5.48122 14.75 4.25 13.5188 4.25 12C4.25 10.4812 5.48122 9.24997 7 9.24997H17Z" fill="#020203"/>
<path d="M20 2.24997C21.5188 2.24997 22.75 3.48119 22.75 4.99997C22.75 6.51875 21.5188 7.74997 20 7.74997H7C5.48122 7.74997 4.25 6.51875 4.25 4.99997C4.25 3.48119 5.48122 2.24997 7 2.24997H20Z" fill="#020203"/>
</svg>
