<svg width="24" height="24" viewBox="0 0 24 24" fill="none" xmlns="http://www.w3.org/2000/svg">
<path fill-rule="evenodd" clip-rule="evenodd" d="M1.25 22C1.25 21.5858 1.58579 21.25 2 21.25H22C22.4142 21.25 22.75 21.5858 22.75 22C22.75 22.4142 22.4142 22.75 22 22.75H2C1.58579 22.75 1.25 22.4142 1.25 22Z" fill="#020203"/>
<path d="M2.25 11C2.25 9.48122 3.48122 8.25 5 8.25C6.51878 8.25 7.75 9.48122 7.75 11V17C7.75 18.5188 6.51878 19.75 5 19.75C3.48122 19.75 2.25 18.5188 2.25 17V11Z" fill="#020203"/>
<path d="M9.25 7C9.25 5.48122 10.4812 4.25 12 4.25C13.5188 4.25 14.75 5.48122 14.75 7V17C14.75 18.5188 13.5188 19.75 12 19.75C10.4812 19.75 9.25 18.5188 9.25 17V7Z" fill="#020203"/>
<path d="M16.25 4C16.25 2.48122 17.4812 1.25 19 1.25C20.5188 1.25 21.75 2.48122 21.75 4V17C21.75 18.5188 20.5188 19.75 19 19.75C17.4812 19.75 16.25 18.5188 16.25 17V4Z" fill="#020203"/>
</svg>
