<svg width="24" height="24" viewBox="0 0 24 24" fill="none" xmlns="http://www.w3.org/2000/svg">
<path opacity="0.4" d="M8 9.5C11.5899 9.5 14.5 12.4101 14.5 16C14.5 19.5899 11.5899 22.5 8 22.5C4.41015 22.5 1.5 19.5899 1.5 16C1.5 12.4101 4.41015 9.5 8 9.5Z" fill="#020203"/>
<path opacity="0.4" d="M13.192 21.8639C14.042 22.2716 14.9943 22.5 16 22.5C19.5898 22.5 22.5 19.5899 22.5 16C22.5 12.4101 19.5898 9.5 16 9.5C14.9943 9.5 14.042 9.72839 13.192 10.1361C14.7655 11.5971 15.75 13.6836 15.75 16C15.75 18.3164 14.7655 20.4029 13.192 21.8639Z" fill="#020203"/>
<path fill-rule="evenodd" clip-rule="evenodd" d="M14.7425 1.89393C14.8011 2.30398 14.5162 2.68388 14.1061 2.74246C10.6502 3.23616 8.2488 6.43799 8.7425 9.89393C8.80108 10.304 8.51616 10.6839 8.10611 10.7425C7.69606 10.801 7.31616 10.5161 7.25758 10.1061C6.64672 5.83002 9.61793 1.8684 13.894 1.25753C14.304 1.19896 14.6839 1.48388 14.7425 1.89393Z" fill="#020203"/>
<path fill-rule="evenodd" clip-rule="evenodd" d="M14.3354 1.32918C14.7059 1.51442 14.856 1.96492 14.6708 2.33541C13.6208 4.43543 14.0324 6.97173 15.6926 8.63195L16.5303 9.46967C16.8232 9.76256 16.8232 10.2374 16.5303 10.5303C16.2374 10.8232 15.7625 10.8232 15.4696 10.5303L14.6319 9.69261C12.5152 7.57585 11.9904 4.34209 13.3292 1.66459C13.5144 1.2941 13.9649 1.14393 14.3354 1.32918Z" fill="#020203"/>
</svg>
