<svg width="24" height="24" viewBox="0 0 24 24" fill="none" xmlns="http://www.w3.org/2000/svg">
<path opacity="0.4" d="M12.3045 11.2728C13.3232 10.4753 14.6061 10 16 10C19.3137 10 22 12.6863 22 16C22 19.3137 19.3137 22 16 22C14.6061 22 13.3232 21.5247 12.3045 20.7272M14 16C14 12.6863 11.3137 10 8 10C4.68629 10 2 12.6863 2 16C2 19.3137 4.68629 22 8 22C11.3137 22 14 19.3137 14 16Z" stroke="#020203" stroke-width="1.5" stroke-linecap="round"/>
<path d="M14 2C10.134 2.55229 7.44772 6.13401 8.00001 10" stroke="#020203" stroke-width="1.5" stroke-linecap="round"/>
<path d="M16 10L15.1623 9.16228C13.2738 7.2738 12.8056 4.38876 14 2" stroke="#020203" stroke-width="1.5" stroke-linecap="round"/>
</svg>
