<svg width="24" height="24" viewBox="0 0 24 24" fill="none" xmlns="http://www.w3.org/2000/svg">
<path d="M8 10C11.3137 10 14 12.6863 14 16C14 19.3137 11.3137 22 8 22C4.68629 22 2 19.3137 2 16C2 12.6863 4.68629 10 8 10Z" stroke="#020203" stroke-width="1.5" stroke-linecap="round"/>
<path d="M12.3046 11.2728C13.3232 10.4753 14.6061 10 16 10C19.3137 10 22 12.6863 22 16C22 19.3137 19.3137 22 16 22C14.6061 22 13.3232 21.5247 12.3046 20.7272" stroke="#020203" stroke-width="1.5" stroke-linecap="round"/>
<path d="M13.9999 2C10.134 2.55229 7.44766 6.13401 7.99995 10" stroke="#020203" stroke-width="1.5" stroke-linecap="round"/>
<path d="M16 10L15.1622 9.16228C13.2737 7.2738 12.8056 4.38876 14 2" stroke="#020203" stroke-width="1.5" stroke-linecap="round"/>
</svg>
