<svg width="24" height="24" viewBox="0 0 24 24" fill="none" xmlns="http://www.w3.org/2000/svg">
<path fill-rule="evenodd" clip-rule="evenodd" d="M11.1502 13.2988C11.7025 13.1194 12.2975 13.1194 12.8498 13.2988C13.2098 13.4158 13.5094 13.6205 13.8 13.8672C14.0786 14.1037 14.3939 14.419 14.7715 14.7967L17.5303 17.5555C17.8232 17.8484 17.8232 18.3232 17.5303 18.6161C17.2374 18.909 16.7626 18.909 16.4697 18.6161L13.7324 15.8789C13.3276 15.4741 13.0555 15.2028 12.8292 15.0107C12.6096 14.8243 12.4829 14.7568 12.3863 14.7254C12.1352 14.6438 11.8648 14.6438 11.6137 14.7254C11.5171 14.7568 11.3904 14.8243 11.1708 15.0107C10.9444 15.2028 10.6724 15.4741 10.2676 15.8789L7.53033 18.6161C7.23744 18.909 6.76256 18.909 6.46967 18.6161C6.17678 18.3232 6.17678 17.8484 6.46967 17.5555L9.22845 14.7967C9.60615 14.419 9.9214 14.1037 10.2 13.8672C10.4906 13.6205 10.7902 13.4158 11.1502 13.2988Z" fill="#020203"/>
<path fill-rule="evenodd" clip-rule="evenodd" d="M11.1502 5.29881C11.7025 5.11935 12.2975 5.11935 12.8498 5.29881C13.2098 5.41578 13.5094 5.62052 13.8 5.86719C14.0786 6.1037 14.3939 6.41897 14.7715 6.79668L17.5303 9.55546C17.8232 9.84835 17.8232 10.3232 17.5303 10.6161C17.2374 10.909 16.7626 10.909 16.4697 10.6161L13.7324 7.87886C13.3276 7.47409 13.0555 7.20282 12.8292 7.0107C12.6096 6.82426 12.4829 6.7568 12.3863 6.72539C12.1352 6.64382 11.8648 6.64382 11.6137 6.72539C11.5171 6.7568 11.3904 6.82426 11.1708 7.0107C10.9444 7.20282 10.6724 7.47409 10.2676 7.87886L7.53033 10.6161C7.23744 10.909 6.76256 10.909 6.46967 10.6161C6.17678 10.3232 6.17678 9.84835 6.46967 9.55546L9.22845 6.79667C9.60615 6.41896 9.9214 6.1037 10.2 5.86719C10.4906 5.62052 10.7902 5.41578 11.1502 5.29881Z" fill="#020203"/>
</svg>
