<svg width="24" height="24" viewBox="0 0 24 24" fill="none" xmlns="http://www.w3.org/2000/svg">
<path fill-rule="evenodd" clip-rule="evenodd" d="M11.1502 4.38459C11.7025 4.20514 12.2975 4.20514 12.8498 4.38459C13.2098 4.50156 13.5094 4.7063 13.8 4.95297C14.0786 5.18948 14.3939 5.50475 14.7715 5.88246L17.5303 8.64124C17.8232 8.93414 17.8232 9.40901 17.5303 9.7019C17.2374 9.9948 16.7626 9.9948 16.4697 9.7019L13.7324 6.96464C13.3276 6.55988 13.0555 6.28861 12.8292 6.09648C12.6096 5.91004 12.4829 5.84259 12.3863 5.81118C12.1352 5.72961 11.8648 5.72961 11.6137 5.81118C11.5171 5.84259 11.3904 5.91004 11.1708 6.09648C10.9444 6.28861 10.6724 6.55988 10.2676 6.96464L7.53033 9.7019C7.23744 9.9948 6.76256 9.9948 6.46967 9.7019C6.17678 9.40901 6.17678 8.93414 6.46967 8.64124L9.22845 5.88246C9.60615 5.50475 9.9214 5.18948 10.2 4.95297C10.4906 4.7063 10.7902 4.50156 11.1502 4.38459Z" fill="#020203"/>
<path fill-rule="evenodd" clip-rule="evenodd" d="M6.46967 14.2997C6.76256 14.0068 7.23744 14.0068 7.53033 14.2997L10.2676 17.0369C10.6724 17.4417 10.9445 17.713 11.1708 17.9051C11.3904 18.0915 11.5171 18.159 11.6137 18.1904C11.8648 18.272 12.1352 18.272 12.3863 18.1904C12.4829 18.159 12.6096 18.0915 12.8292 17.9051C13.0556 17.713 13.3276 17.4417 13.7324 17.0369L16.4697 14.2997C16.7626 14.0068 17.2374 14.0068 17.5303 14.2997C17.8232 14.5926 17.8232 15.0674 17.5303 15.3603L14.7715 18.1191C14.3939 18.4968 14.0786 18.8121 13.8 19.0486C13.5094 19.2953 13.2098 19.5 12.8498 19.617C12.2975 19.7964 11.7025 19.7964 11.1502 19.617C10.7902 19.5 10.4906 19.2953 10.2 19.0486C9.9214 18.8121 9.60615 18.4968 9.22846 18.1191L6.46967 15.3603C6.17678 15.0674 6.17678 14.5926 6.46967 14.2997Z" fill="#020203"/>
</svg>
