<svg width="24" height="24" viewBox="0 0 24 24" fill="none" xmlns="http://www.w3.org/2000/svg">
<path fill-rule="evenodd" clip-rule="evenodd" d="M6.46967 5.38389C6.76256 5.09099 7.23744 5.09099 7.53033 5.38389L10.2676 8.12115C10.6724 8.52591 10.9445 8.79718 11.1708 8.9893C11.3904 9.17574 11.5171 9.2432 11.6137 9.27461C11.8648 9.35618 12.1352 9.35618 12.3863 9.27461C12.4829 9.2432 12.6096 9.17574 12.8292 8.9893C13.0556 8.79718 13.3276 8.52591 13.7324 8.12114L16.4697 5.38389C16.7626 5.09099 17.2374 5.09099 17.5303 5.38389C17.8232 5.67678 17.8232 6.15165 17.5303 6.44455L14.7715 9.20333C14.3939 9.58104 14.0786 9.89631 13.8 10.1328C13.5094 10.3795 13.2098 10.5842 12.8498 10.7012C12.2975 10.8807 11.7025 10.8807 11.1502 10.7012C10.7902 10.5842 10.4906 10.3795 10.2 10.1328C9.9214 9.89631 9.60615 9.58104 9.22846 9.20333L6.46967 6.44455C6.17678 6.15165 6.17678 5.67678 6.46967 5.38389Z" fill="#020203"/>
<path opacity="0.4" fill-rule="evenodd" clip-rule="evenodd" d="M6.46967 13.3839C6.76256 13.091 7.23744 13.091 7.53033 13.3839L10.2676 16.1211C10.6724 16.5259 10.9445 16.7972 11.1708 16.9893C11.3904 17.1757 11.5171 17.2432 11.6137 17.2746C11.8648 17.3562 12.1352 17.3562 12.3863 17.2746C12.4829 17.2432 12.6096 17.1757 12.8292 16.9893C13.0556 16.7972 13.3276 16.5259 13.7324 16.1211L16.4697 13.3839C16.7626 13.091 17.2374 13.091 17.5303 13.3839C17.8232 13.6768 17.8232 14.1517 17.5303 14.4445L14.7715 17.2033C14.3939 17.581 14.0786 17.8963 13.8 18.1328C13.5094 18.3795 13.2098 18.5842 12.8498 18.7012C12.2975 18.8807 11.7025 18.8807 11.1502 18.7012C10.7902 18.5842 10.4906 18.3795 10.2 18.1328C9.9214 17.8963 9.60615 17.581 9.22846 17.2033L6.46967 14.4445C6.17678 14.1517 6.17678 13.6768 6.46967 13.3839Z" fill="#020203"/>
</svg>
