<svg width="24" height="24" viewBox="0 0 24 24" fill="none" xmlns="http://www.w3.org/2000/svg">
<path fill-rule="evenodd" clip-rule="evenodd" d="M18.6218 6.46967C18.9147 6.76256 18.9147 7.23744 18.6218 7.53033L15.8846 10.2676C15.4798 10.6724 15.2085 10.9445 15.0164 11.1708C14.83 11.3904 14.7625 11.5171 14.7311 11.6137C14.6495 11.8648 14.6495 12.1352 14.7311 12.3863C14.7625 12.4829 14.83 12.6096 15.0164 12.8292C15.2085 13.0556 15.4798 13.3276 15.8846 13.7324L18.6218 16.4697C18.9147 16.7626 18.9147 17.2374 18.6218 17.5303C18.3289 17.8232 17.8541 17.8232 17.5612 17.5303L14.8024 14.7715C14.4247 14.3939 14.1094 14.0786 13.8729 13.8C13.6262 13.5094 13.4215 13.2098 13.3045 12.8498C13.1251 12.2975 13.1251 11.7025 13.3045 11.1502C13.4215 10.7902 13.6262 10.4906 13.8729 10.2C14.1094 9.9214 14.4247 9.60615 14.8024 9.22845L17.5612 6.46967C17.8541 6.17678 18.3289 6.17678 18.6218 6.46967Z" fill="#020203"/>
<path fill-rule="evenodd" clip-rule="evenodd" d="M10.6218 6.46967C10.9147 6.76256 10.9147 7.23744 10.6218 7.53033L7.88456 10.2676C7.4798 10.6724 7.20853 10.9445 7.01641 11.1708C6.82997 11.3904 6.76251 11.5171 6.7311 11.6137C6.64953 11.8648 6.64953 12.1352 6.7311 12.3863C6.76251 12.4829 6.82997 12.6096 7.01641 12.8292C7.20853 13.0556 7.4798 13.3276 7.88457 13.7324L10.6218 16.4697C10.9147 16.7626 10.9147 17.2374 10.6218 17.5303C10.3289 17.8232 9.85406 17.8232 9.56116 17.5303L6.80238 14.7715C6.42467 14.3939 6.1094 14.0786 5.8729 13.8C5.62622 13.5094 5.42149 13.2098 5.30452 12.8498C5.12506 12.2975 5.12506 11.7025 5.30452 11.1502C5.42149 10.7902 5.62622 10.4906 5.8729 10.2C6.1094 9.9214 6.42467 9.60615 6.80238 9.22845L9.56116 6.46967C9.85406 6.17678 10.3289 6.17678 10.6218 6.46967Z" fill="#020203"/>
</svg>
