<svg width="24" height="24" viewBox="0 0 24 24" fill="none" xmlns="http://www.w3.org/2000/svg">
<path opacity="0.4" fill-rule="evenodd" clip-rule="evenodd" d="M13.3897 6.46967C13.6826 6.17678 14.1575 6.17678 14.4504 6.46967L17.2092 9.22845C17.5869 9.60615 17.9021 9.9214 18.1386 10.2C18.3853 10.4906 18.5901 10.7902 18.707 11.1502C18.8865 11.7025 18.8865 12.2975 18.707 12.8498C18.5901 13.2098 18.3853 13.5094 18.1386 13.8C17.9021 14.0786 17.5869 14.3938 17.2092 14.7715L14.4504 17.5303C14.1575 17.8232 13.6826 17.8232 13.3897 17.5303C13.0968 17.2374 13.0968 16.7626 13.3897 16.4697L16.127 13.7324C16.5317 13.3276 16.803 13.0555 16.9951 12.8292C17.1816 12.6096 17.249 12.4829 17.2804 12.3863C17.362 12.1352 17.362 11.8648 17.2804 11.6137C17.249 11.5171 17.1816 11.3904 16.9951 11.1708C16.803 10.9444 16.5317 10.6724 16.127 10.2676L13.3897 7.53033C13.0968 7.23744 13.0968 6.76256 13.3897 6.46967Z" fill="#020203"/>
<path fill-rule="evenodd" clip-rule="evenodd" d="M5.38971 6.46967C5.68261 6.17678 6.15748 6.17678 6.45037 6.46967L9.20916 9.22845C9.58687 9.60615 9.90213 9.9214 10.1386 10.2C10.3853 10.4906 10.5901 10.7902 10.707 11.1502C10.8865 11.7025 10.8865 12.2975 10.707 12.8498C10.5901 13.2098 10.3853 13.5094 10.1386 13.8C9.90214 14.0786 9.58687 14.3938 9.20916 14.7715L6.45037 17.5303C6.15748 17.8232 5.68261 17.8232 5.38971 17.5303C5.09682 17.2374 5.09682 16.7626 5.38971 16.4697L8.12697 13.7324C8.53174 13.3276 8.80301 13.0555 8.99513 12.8292C9.18157 12.6096 9.24903 12.4829 9.28044 12.3863C9.36201 12.1352 9.36201 11.8648 9.28044 11.6137C9.24903 11.5171 9.18157 11.3904 8.99513 11.1708C8.80301 10.9444 8.53174 10.6724 8.12697 10.2676L5.38971 7.53033C5.09682 7.23744 5.09682 6.76256 5.38971 6.46967Z" fill="#020203"/>
</svg>
