<svg width="24" height="24" viewBox="0 0 24 24" fill="none" xmlns="http://www.w3.org/2000/svg">
<g clip-path="url(#clip0_130_3975)">
<path d="M8.12245 15.1791C8.41535 14.8862 8.41535 14.4113 8.12245 14.1184C7.82956 13.8255 7.35469 13.8255 7.06179 14.1184L8.12245 15.1791ZM5.00285 17.0924L4.80551 17.816L4.80551 17.816L5.00285 17.0924ZM4.05839 16.8349L3.86105 17.5584L4.05839 16.8349ZM2.52354 17.2425L3.05387 17.7728L3.05387 17.7728L2.52354 17.2425ZM2.49747 17.2685L1.96714 16.7382L1.96714 16.7382L2.49747 17.2685ZM4.07861 19.8269L3.84143 19.1154H3.84143L4.07861 19.8269ZM4.23335 19.7753L4.94487 20.0125C5.0347 19.743 4.96456 19.4458 4.76368 19.245C4.56281 19.0441 4.26568 18.9739 3.99618 19.0638L4.23335 19.7753ZM4.18177 19.93L4.89328 20.1672L4.89328 20.1672L4.18177 19.93ZM7.17378 19.9503L6.45021 20.1476L7.17378 19.9503ZM6.9162 19.0058L7.63977 18.8084L7.63977 18.8084L6.9162 19.0058ZM9.89022 16.9468C10.1831 16.654 10.1831 16.1791 9.89022 15.8862C9.59733 15.5933 9.12245 15.5933 8.82956 15.8862L9.89022 16.9468ZM7.06179 14.1184L4.67074 16.5095L5.7314 17.5701L8.12245 15.1791L7.06179 14.1184ZM5.20019 16.3689L4.25573 16.1113L3.86105 17.5584L4.80551 17.816L5.20019 16.3689ZM1.99321 16.7121L1.96714 16.7382L3.0278 17.7989L3.05387 17.7728L1.99321 16.7121ZM4.31578 20.5384L4.47052 20.4868L3.99618 19.0638L3.84143 19.1154L4.31578 20.5384ZM3.52184 19.5381L3.47026 19.6929L4.89328 20.1672L4.94487 20.0125L3.52184 19.5381ZM7.27044 22.0415L7.29651 22.0154L6.23585 20.9548L6.20978 20.9808L7.27044 22.0415ZM7.89735 19.7529L7.63977 18.8084L6.19263 19.2031L6.45021 20.1476L7.89735 19.7529ZM7.49917 19.3379L9.89022 16.9468L8.82956 15.8862L6.43851 18.2772L7.49917 19.3379ZM7.63977 18.8084C7.6913 18.9974 7.63764 19.1994 7.49917 19.3379L6.43851 18.2772C6.19636 18.5194 6.10252 18.8727 6.19263 19.2031L7.63977 18.8084ZM7.29651 22.0154C7.88824 21.4237 8.11754 20.5603 7.89735 19.7529L6.45021 20.1476C6.52876 20.4356 6.44696 20.7437 6.23585 20.9548L7.29651 22.0154ZM4.0247 22.0415C4.92098 22.9378 6.37415 22.9378 7.27044 22.0415L6.20978 20.9808C5.89928 21.2913 5.39586 21.2913 5.08536 20.9808L4.0247 22.0415ZM1.96714 19.9839C2.58183 20.5986 3.49107 20.8133 4.31578 20.5384L3.84143 19.1154C3.55573 19.2106 3.24075 19.1362 3.0278 18.9233L1.96714 19.9839ZM1.96714 16.7382C1.07085 17.6345 1.07085 19.0877 1.96714 19.9839L3.0278 18.9233C2.7173 18.6128 2.7173 18.1094 3.0278 17.7989L1.96714 16.7382ZM4.25573 16.1113C3.44838 15.8911 2.58494 16.1204 1.99321 16.7121L3.05387 17.7728C3.26498 17.5617 3.57302 17.4799 3.86105 17.5584L4.25573 16.1113ZM3.47026 19.6929C3.19536 20.5176 3.41 21.4268 4.0247 22.0415L5.08536 20.9808C4.87241 20.7679 4.79805 20.4529 4.89328 20.1672L3.47026 19.6929ZM4.67074 16.5095C4.80921 16.371 5.01126 16.3173 5.20019 16.3689L4.80551 17.816C5.13591 17.9061 5.48925 17.8123 5.7314 17.5701L4.67074 16.5095Z" fill="#020203"/>
<path opacity="0.4" d="M17.2331 14.2441L17.0559 13.5153L17.0559 13.5153L17.2331 14.2441ZM15.5937 14.6429L15.771 15.3716L15.771 15.3716L15.5937 14.6429ZM14.1946 15.2564L13.7786 14.6324L13.7786 14.6324L14.1946 15.2564ZM13.0935 15.9905L12.6775 15.3665L13.0935 15.9905ZM8.01883 10.9158L7.3948 10.4998H7.3948L8.01883 10.9158ZM8.75291 9.81471L9.37694 10.2307H9.37695L8.75291 9.81471ZM9.36649 8.41566L10.0952 8.59292L9.36649 8.41566ZM9.76527 6.7762L9.03652 6.59894L9.76527 6.7762ZM17.0559 13.5153L15.4164 13.9141L15.771 15.3716L17.4104 14.9728L17.0559 13.5153ZM13.7786 14.6324L12.6775 15.3665L13.5096 16.6146L14.6107 15.8805L13.7786 14.6324ZM8.64287 11.3318L9.37694 10.2307L8.12887 9.39869L7.3948 10.4998L8.64287 11.3318ZM10.0952 8.59292L10.494 6.95347L9.03652 6.59894L8.63774 8.2384L10.0952 8.59292ZM9.37695 10.2307C9.71016 9.73092 9.95326 9.17661 10.0952 8.59292L8.63774 8.2384C8.53715 8.6519 8.36493 9.0446 8.12887 9.39869L9.37695 10.2307ZM15.4164 13.9141C14.8327 14.0561 14.2784 14.2992 13.7786 14.6324L14.6107 15.8805C14.9648 15.6444 15.3574 15.4722 15.771 15.3716L15.4164 13.9141ZM19.613 4.39636C22.6095 7.39284 21.1735 12.5137 17.0559 13.5153L17.4104 14.9728C22.6651 13.6947 24.4976 7.15965 20.6736 3.3357L19.613 4.39636ZM20.6736 3.3357C16.8497 -0.488244 10.3147 1.34428 9.03652 6.59894L10.494 6.95347C11.4956 2.83586 16.6165 1.39988 19.613 4.39636L20.6736 3.3357ZM9.00638 15.003C8.02572 14.0223 7.87358 12.4858 8.64287 11.3318L7.3948 10.4998C6.22888 12.2487 6.45947 14.5774 7.94572 16.0636L9.00638 15.003ZM7.94572 16.0636C9.43198 17.5499 11.7607 17.7805 13.5096 16.6146L12.6775 15.3665C11.5236 16.1358 9.98704 15.9836 9.00638 15.003L7.94572 16.0636Z" fill="#020203"/>
<path d="M17.8413 7.57365L17.8477 7.58" stroke="#020203" stroke-width="2" stroke-linecap="round" stroke-linejoin="round"/>
<path d="M16.4271 10.4018L16.4335 10.4081" stroke="#020203" stroke-width="2" stroke-linecap="round" stroke-linejoin="round"/>
<path d="M15.013 7.57365L15.0193 7.58" stroke="#020203" stroke-width="2" stroke-linecap="round" stroke-linejoin="round"/>
</g>
<defs>
<clipPath id="clip0_130_3975">
<rect width="24" height="24" fill="white"/>
</clipPath>
</defs>
</svg>
