<svg width="24" height="24" viewBox="0 0 24 24" fill="none" xmlns="http://www.w3.org/2000/svg">
<g clip-path="url(#clip0_130_3962)">
<path fill-rule="evenodd" clip-rule="evenodd" d="M8.12245 14.1184C8.41535 14.4113 8.41535 14.8862 8.12245 15.1791L5.7314 17.5701C5.48925 17.8123 5.13591 17.9061 4.80551 17.816L3.86105 17.5584C3.57302 17.4799 3.26498 17.5617 3.05387 17.7728L3.0278 17.7989C2.7173 18.1094 2.7173 18.6128 3.0278 18.9233C3.24075 19.1362 3.55573 19.2106 3.84143 19.1154L3.99618 19.0638C4.26568 18.9739 4.56281 19.0441 4.76368 19.245C4.96456 19.4458 5.0347 19.743 4.94487 20.0125L4.89328 20.1672C4.79805 20.4529 4.87241 20.7679 5.08536 20.9808C5.39586 21.2913 5.89928 21.2913 6.20978 20.9808L6.23585 20.9548C6.44696 20.7437 6.52876 20.4356 6.45021 20.1476L6.19263 19.2031C6.10252 18.8727 6.19636 18.5194 6.43851 18.2772L8.82956 15.8862C9.12245 15.5933 9.59733 15.5933 9.89022 15.8862C10.1831 16.1791 10.1831 16.654 9.89022 16.9468L7.7231 19.114L7.89735 19.7529C8.11754 20.5603 7.88824 21.4237 7.29651 22.0154L7.27044 22.0415C6.37415 22.9378 4.92098 22.9378 4.0247 22.0415C3.64264 21.6594 3.41513 21.1636 3.36365 20.645C2.84504 20.5935 2.3492 20.366 1.96714 19.9839C1.07085 19.0877 1.07085 17.6345 1.96714 16.7382L1.99321 16.7121C2.58494 16.1204 3.44838 15.8911 4.25573 16.1113L4.89467 16.2855L7.06179 14.1184C7.35469 13.8255 7.82956 13.8255 8.12245 14.1184Z" fill="#020203"/>
<path fill-rule="evenodd" clip-rule="evenodd" d="M17.5665 14.9207L15.8965 15.3675C15.4091 15.4978 14.944 15.7004 14.5166 15.9684L13.3857 16.6777C11.6506 17.7658 9.39383 17.5105 7.94565 16.0623C6.49746 14.6141 6.24218 12.3574 7.33029 10.6223L8.03953 9.49133C8.30756 9.06393 8.51012 8.59883 8.6405 8.11147L9.08722 6.44151C10.4651 1.29056 16.9032 -0.43594 20.6736 3.3344C24.4439 7.10474 22.7174 13.5428 17.5665 14.9207ZM18.5484 6.86635C18.1579 6.47582 17.5247 6.47582 17.1342 6.86635C16.7437 7.25687 16.7437 7.89004 17.1342 8.28056L17.1406 8.28691C17.5311 8.67744 18.1643 8.67744 18.5548 8.28691C18.9453 7.89639 18.9453 7.26322 18.5548 6.8727L18.5484 6.86635ZM15.72 9.69447C16.1106 9.30395 16.7437 9.30395 17.1343 9.69447L17.1406 9.70082C17.5311 10.0913 17.5311 10.7245 17.1406 11.115C16.7501 11.5056 16.1169 11.5056 15.7264 11.115L15.72 11.1087C15.3295 10.7182 15.3295 10.085 15.72 9.69447ZM15.7201 6.86635C15.3295 6.47582 14.6964 6.47582 14.3059 6.86635C13.9153 7.25687 13.9153 7.89004 14.3059 8.28056L14.3122 8.28691C14.7027 8.67744 15.3359 8.67744 15.7264 8.28691C16.1169 7.89639 16.1169 7.26322 15.7264 6.8727L15.7201 6.86635Z" fill="#020203"/>
</g>
<defs>
<clipPath id="clip0_130_3962">
<rect width="24" height="24" fill="white"/>
</clipPath>
</defs>
</svg>
