<svg width="24" height="24" viewBox="0 0 24 24" fill="none" xmlns="http://www.w3.org/2000/svg">
<path d="M12 1.25C12.7879 1.25 13.4424 1.25 14 1.26188V6.25H10V1.26188C10.5576 1.25 11.2121 1.25 12 1.25Z" fill="#020203"/>
<path d="M8.5 7.75V11.25H3.25V10C3.25 9.09121 3.25 8.35992 3.26823 7.75H8.5Z" fill="#020203"/>
<path fill-rule="evenodd" clip-rule="evenodd" d="M3.25 12.75L14.75 12.75L20.75 12.75V14C20.75 16.3266 20.75 17.4899 20.4441 18.4314C19.8259 20.3341 18.3341 21.8259 16.4314 22.4441C15.4899 22.75 14.3266 22.75 12 22.75C9.6734 22.75 8.5101 22.75 7.56864 22.4441C5.66591 21.8259 4.17413 20.3341 3.5559 18.4314C3.25 17.4899 3.25 16.3266 3.25 14V12.75ZM9 17.25C8.58579 17.25 8.25 17.5858 8.25 18C8.25 18.4142 8.58579 18.75 9 18.75H15C15.4142 18.75 15.75 18.4142 15.75 18C15.75 17.5858 15.4142 17.25 15 17.25H9Z" fill="#020203"/>
<path d="M10 7.75V11.25H14V7.75H10Z" fill="#020203"/>
<path d="M20.75 11.25H15.5V7.75H20.7318C20.75 8.35992 20.75 9.09121 20.75 10V11.25Z" fill="#020203"/>
<path d="M8.5 6.25V1.35509C8.15275 1.40005 7.85074 1.46424 7.56864 1.5559C5.66591 2.17413 4.17413 3.66591 3.5559 5.56864C3.48693 5.78089 3.43352 6.00441 3.39214 6.25H8.5Z" fill="#020203"/>
<path d="M20.6079 6.25C20.5665 6.00441 20.5131 5.78089 20.4441 5.56864C19.8259 3.66591 18.3341 2.17413 16.4314 1.5559C16.1493 1.46424 15.8473 1.40005 15.5 1.35509V6.25H20.6079Z" fill="#020203"/>
</svg>
