<svg width="24" height="24" viewBox="0 0 24 24" fill="none" xmlns="http://www.w3.org/2000/svg">
<path fill-rule="evenodd" clip-rule="evenodd" d="M1.25 12C1.25 17.9371 6.06294 22.75 12 22.75C17.9371 22.75 22.75 17.9371 22.75 12C22.75 6.06294 17.9371 1.25 12 1.25C6.06294 1.25 1.25 6.06294 1.25 12ZM12.75 8.52961L14.4697 10.2493C14.7626 10.5422 15.2374 10.5422 15.5303 10.2493C15.8232 9.95639 15.8232 9.48151 15.5303 9.18862L13.591 7.24928C12.7123 6.3706 11.2877 6.3706 10.409 7.24928L8.46967 9.18862C8.17678 9.48151 8.17678 9.95639 8.46967 10.2493C8.76256 10.5422 9.23744 10.5422 9.53033 10.2493L11.25 8.52961V16.6584C11.25 17.0726 11.5858 17.4084 12 17.4084C12.4142 17.4084 12.75 17.0726 12.75 16.6584V8.52961Z" fill="#020203"/>
</svg>
