<svg width="24" height="24" viewBox="0 0 24 24" fill="none" xmlns="http://www.w3.org/2000/svg">
<path d="M10.1691 13.25H13.4377L13.7155 10.75H10.4469L10.1691 13.25Z" fill="#020203"/>
<path fill-rule="evenodd" clip-rule="evenodd" d="M1.25 12C1.25 17.9371 6.06294 22.75 12 22.75C17.9371 22.75 22.75 17.9371 22.75 12C22.75 6.06294 17.9371 1.25 12 1.25C6.06294 1.25 1.25 6.06294 1.25 12ZM10.1918 6.25459C10.6034 6.30033 10.9001 6.67114 10.8544 7.08282L10.6136 9.25H13.8822L14.1414 6.91718C14.1871 6.5055 14.5579 6.20885 14.9696 6.25459C15.3813 6.30033 15.6779 6.67114 15.6322 7.08282L15.3914 9.25H17C17.4142 9.25 17.75 9.58579 17.75 10C17.75 10.4142 17.4142 10.75 17 10.75H15.2247L14.9469 13.25H17C17.4142 13.25 17.75 13.5858 17.75 14C17.75 14.4142 17.4142 14.75 17 14.75H14.7803L14.5211 17.0828C14.4753 17.4945 14.1045 17.7912 13.6928 17.7454C13.2812 17.6997 12.9845 17.3289 13.0303 16.9172L13.271 14.75H10.0024L9.74325 17.0828C9.6975 17.4945 9.32669 17.7912 8.91501 17.7454C8.50333 17.6997 8.20668 17.3289 8.25242 16.9172L8.49322 14.75H7C6.58579 14.75 6.25 14.4142 6.25 14C6.25 13.5858 6.58579 13.25 7 13.25H8.65988L8.93766 10.75H7C6.58579 10.75 6.25 10.4142 6.25 10C6.25 9.58579 6.58579 9.25 7 9.25H9.10433L9.36353 6.91718C9.40927 6.5055 9.78009 6.20885 10.1918 6.25459Z" fill="#020203"/>
</svg>
