<svg width="24" height="24" viewBox="0 0 24 24" fill="none" xmlns="http://www.w3.org/2000/svg">
<path opacity="0.4" d="M1.25 12C1.25 17.9371 6.06294 22.75 12 22.75C17.9371 22.75 22.75 17.9371 22.75 12C22.75 6.06294 17.9371 1.25 12 1.25C6.06294 1.25 1.25 6.06294 1.25 12Z" fill="#020203"/>
<path d="M5.75 15C5.75 16.5188 6.98122 17.75 8.5 17.75C10.0188 17.75 11.25 16.5188 11.25 15C11.25 13.4812 10.0188 12.25 8.5 12.25C6.98122 12.25 5.75 13.4812 5.75 15Z" fill="#020203"/>
<path d="M12.75 15C12.75 16.5188 13.9812 17.75 15.5 17.75C17.0188 17.75 18.25 16.5188 18.25 15C18.25 13.4812 17.0188 12.25 15.5 12.25C13.9812 12.25 12.75 13.4812 12.75 15Z" fill="#020203"/>
<path fill-rule="evenodd" clip-rule="evenodd" d="M14.8728 6.19577L14.9473 6.21219C15.4809 6.32978 15.9302 6.4288 16.2924 6.54415C16.6742 6.66575 17.0204 6.82323 17.3229 7.09097C17.5557 7.29712 17.7519 7.54128 17.9031 7.81305C18.0995 8.16602 18.1788 8.53802 18.2153 8.93706C18.25 9.31556 18.25 9.77569 18.25 10.3221L18.25 15C18.25 15.4142 17.9142 15.75 17.5 15.75C17.0858 15.75 16.75 15.4142 16.75 15V10.3554C16.75 9.76689 16.7493 9.3759 16.7216 9.07396C16.6951 8.78487 16.6482 8.64277 16.5923 8.5423C16.5236 8.41877 16.4344 8.30779 16.3286 8.21408C16.2425 8.13787 16.1138 8.06151 15.8372 7.97341C15.5483 7.8814 15.1666 7.79653 14.5919 7.66986C13.7407 7.48224 13.1619 7.35575 12.7167 7.3074C12.2813 7.26013 12.0814 7.30224 11.9524 7.36511C11.7843 7.44703 11.6367 7.56563 11.5205 7.71216C11.4314 7.82461 11.3472 8.01075 11.2997 8.4461C11.2511 8.89131 11.25 9.48376 11.25 10.3554V15C11.25 15.4142 10.9142 15.75 10.5 15.75C10.0858 15.75 9.75 15.4142 9.75 15L9.75 10.3125C9.74998 9.49456 9.74997 8.81961 9.80854 8.28326C9.86921 7.72769 10.0015 7.21366 10.3452 6.78021C10.6008 6.45784 10.9255 6.19694 11.2953 6.01671C11.7926 5.77437 12.323 5.75584 12.8786 5.81617C13.415 5.87442 14.0741 6.01971 14.8728 6.19577Z" fill="#020203"/>
</svg>
