<svg width="24" height="24" viewBox="0 0 24 24" fill="none" xmlns="http://www.w3.org/2000/svg">
<path d="M7.25 15C7.25 14.3096 7.80964 13.75 8.5 13.75C9.19036 13.75 9.75 14.3096 9.75 15C9.75 15.6904 9.19036 16.25 8.5 16.25C7.80964 16.25 7.25 15.6904 7.25 15Z" fill="#020203"/>
<path d="M15.5 13.75C14.8096 13.75 14.25 14.3096 14.25 15C14.25 15.6904 14.8096 16.25 15.5 16.25C16.1904 16.25 16.75 15.6904 16.75 15C16.75 14.3096 16.1904 13.75 15.5 13.75Z" fill="#020203"/>
<path fill-rule="evenodd" clip-rule="evenodd" d="M12 22.75C6.06294 22.75 1.25 17.9371 1.25 12C1.25 6.06294 6.06294 1.25 12 1.25C17.9371 1.25 22.75 6.06294 22.75 12C22.75 17.9371 17.9371 22.75 12 22.75ZM8.5 12.25C6.98122 12.25 5.75 13.4812 5.75 15C5.75 16.5188 6.98122 17.75 8.5 17.75C10.0188 17.75 11.25 16.5188 11.25 15C11.25 15 11.25 15 11.25 15V10.3554C11.25 9.48377 11.2511 8.89131 11.2997 8.4461C11.3472 8.01075 11.4314 7.82461 11.5205 7.71216C11.6367 7.56563 11.7843 7.44704 11.9524 7.36511C12.0814 7.30224 12.2813 7.26013 12.7167 7.30741C13.1619 7.35575 13.7407 7.48224 14.5919 7.66986C15.1666 7.79653 15.5483 7.8814 15.8372 7.97341C16.1138 8.06151 16.2425 8.13787 16.3286 8.21408C16.4344 8.30779 16.5236 8.41877 16.5923 8.5423C16.6482 8.64277 16.6951 8.78487 16.7216 9.07396C16.7493 9.3759 16.75 9.7669 16.75 10.3554V12.5499C16.375 12.3581 15.9501 12.25 15.5 12.25C13.9812 12.25 12.75 13.4812 12.75 15C12.75 16.5188 13.9812 17.75 15.5 17.75C17.0188 17.75 18.25 16.5188 18.25 15C18.25 15 18.25 15 18.25 15V10.3221C18.25 9.77569 18.25 9.31556 18.2153 8.93706C18.1788 8.53802 18.0995 8.16602 17.9031 7.81305C17.7519 7.54128 17.5557 7.29712 17.3229 7.09097C17.0204 6.82323 16.6742 6.66576 16.2924 6.54415C15.9302 6.42881 15.4809 6.32978 14.9473 6.21219L14.8728 6.19577C14.0741 6.01971 13.415 5.87442 12.8786 5.81617C12.323 5.75584 11.7926 5.77437 11.2953 6.01671C10.9255 6.19694 10.6008 6.45784 10.3452 6.78021C10.0015 7.21366 9.86921 7.72769 9.80854 8.28326C9.74997 8.8196 9.74998 9.49454 9.75 10.3124L9.75 12.5499C9.37497 12.3581 8.95011 12.25 8.5 12.25Z" fill="#020203"/>
</svg>
