<svg width="24" height="24" viewBox="0 0 24 24" fill="none" xmlns="http://www.w3.org/2000/svg">
<path fill-rule="evenodd" clip-rule="evenodd" d="M1.25 12C1.25 17.9371 6.06294 22.75 12 22.75C17.9371 22.75 22.75 17.9371 22.75 12C22.75 6.06294 17.9371 1.25 12 1.25C6.06294 1.25 1.25 6.06294 1.25 12ZM12 7.75C12.4142 7.75 12.75 8.08579 12.75 8.5V11.5C12.75 11.9142 12.4142 12.25 12 12.25C11.5858 12.25 11.25 11.9142 11.25 11.5V8.5C11.25 8.08579 11.5858 7.75 12 7.75ZM11 15.5C11 16.0523 11.4477 16.5 12 16.5C12.5523 16.5 13 16.0523 13 15.5V15.499C13 14.9467 12.5523 14.499 12 14.499C11.4477 14.499 11 14.9467 11 15.499V15.5Z" fill="#020203"/>
</svg>
