<svg width="24" height="24" viewBox="0 0 24 24" fill="none" xmlns="http://www.w3.org/2000/svg">
<path opacity="0.4" d="M1.25 12C1.25 17.9371 6.06294 22.75 12 22.75C17.9371 22.75 22.75 17.9371 22.75 12C22.75 6.06294 17.9371 1.25 12 1.25C6.06294 1.25 1.25 6.06294 1.25 12Z" fill="#020203"/>
<path d="M1.27576 12.75C1.25868 12.5022 1.25 12.2521 1.25 12C1.25 11.7479 1.25868 11.4978 1.27576 11.25H4.91886C5.54028 11.25 6.09198 10.8524 6.28849 10.2628L6.39112 9.95493C6.73051 8.93676 7.68334 8.25 8.75658 8.25C10.1337 8.25 11.25 9.36634 11.25 10.7434V13.2566C11.25 13.8052 11.6948 14.25 12.2434 14.25C12.671 14.25 13.0506 13.9764 13.1859 13.5707L13.2885 13.2628C13.6892 12.0608 14.8141 11.25 16.0811 11.25H18C18.4142 11.25 18.75 11.5858 18.75 12C18.75 12.4142 18.4142 12.75 18 12.75H16.0811C15.4597 12.75 14.908 13.1476 14.7115 13.7372L14.6089 14.0451C14.2695 15.0632 13.3167 15.75 12.2434 15.75C10.8663 15.75 9.75 14.6337 9.75 13.2566V10.7434C9.75 10.1948 9.30523 9.75 8.75658 9.75C8.32899 9.75 7.94936 10.0236 7.81415 10.4293L7.71151 10.7372C7.31083 11.9392 6.18593 12.75 4.91886 12.75H1.27576Z" fill="#020203"/>
</svg>
