<svg width="24" height="24" viewBox="0 0 24 24" fill="none" xmlns="http://www.w3.org/2000/svg">
<path opacity="0.4" d="M1.25 12C1.25 17.9371 6.06294 22.75 12 22.75C17.9371 22.75 22.75 17.9371 22.75 12C22.75 6.06294 17.9371 1.25 12 1.25C6.06294 1.25 1.25 6.06294 1.25 12Z" fill="#020203"/>
<path fill-rule="evenodd" clip-rule="evenodd" d="M12 6.59C12.4142 6.59 12.75 6.92578 12.75 7.34V16.34C12.75 16.7542 12.4142 17.09 12 17.09C11.5858 17.09 11.25 16.7542 11.25 16.34V7.34C11.25 6.92578 11.5858 6.59 12 6.59Z" fill="#020203"/>
<path fill-rule="evenodd" clip-rule="evenodd" d="M8.46967 13.7497C8.76256 13.4568 9.23744 13.4568 9.53033 13.7497L11.4697 15.689C11.7626 15.9819 12.2374 15.9819 12.5303 15.689L14.4697 13.7497C14.7626 13.4568 15.2374 13.4568 15.5303 13.7497C15.8232 14.0426 15.8232 14.5174 15.5303 14.8103L13.591 16.7497C12.7123 17.6283 11.2877 17.6283 10.409 16.7497L8.46967 14.8103C8.17678 14.5174 8.17678 14.0426 8.46967 13.7497Z" fill="#020203"/>
</svg>
