<svg width="24" height="24" viewBox="0 0 24 24" fill="none" xmlns="http://www.w3.org/2000/svg">
<path opacity="0.4" d="M1.25 12C1.25 17.9371 6.06294 22.75 12 22.75C17.9371 22.75 22.75 17.9371 22.75 12C22.75 6.06294 17.9371 1.25 12 1.25C6.06294 1.25 1.25 6.06294 1.25 12Z" fill="#020203"/>
<path fill-rule="evenodd" clip-rule="evenodd" d="M11.5423 6.27117C13.0389 6.11776 14.7948 6.80981 15.4103 8.62388C15.5434 9.01613 15.3333 9.442 14.941 9.57508C14.5488 9.70816 14.1229 9.49806 13.9898 9.10581C13.6553 8.11977 12.6863 7.66177 11.6953 7.76335C10.6999 7.86539 10.0001 8.48081 10.0001 9.38479C10.0001 10.1884 10.4091 10.6838 10.7224 10.8695L10.732 10.8752L10.732 10.8752C11.002 11.0407 11.1765 11.1182 11.3706 11.1717C11.493 11.2054 11.632 11.2322 11.8179 11.2584C11.9963 11.2774 12.1616 11.2962 12.317 11.3177C12.3209 11.3182 12.3248 11.3186 12.3287 11.319C12.351 11.3213 12.373 11.3246 12.3947 11.3289C12.6036 11.3598 12.7952 11.3968 12.9781 11.4472C13.3449 11.5483 13.6493 11.695 13.9975 11.9081C14.7621 12.3637 15.45 13.3468 15.45 14.6801C15.45 16.5962 13.8998 17.6408 12.4078 17.7938C10.9112 17.9472 9.15525 17.2551 8.53978 15.4411C8.4067 15.0488 8.6168 14.6229 9.00906 14.4899C9.40131 14.3568 9.82718 14.5669 9.96026 14.9591C10.2948 15.9452 11.2638 16.4032 12.2548 16.3016C13.2502 16.1995 13.95 15.5841 13.95 14.6801C13.95 13.8765 13.541 13.3811 13.2277 13.1955L13.2181 13.1898L13.2181 13.1897C12.9481 13.0242 12.7735 12.9467 12.5795 12.8933C12.4571 12.8595 12.318 12.8327 12.1322 12.8066C11.9538 12.7876 11.7885 12.7687 11.6331 12.7472C11.6292 12.7468 11.6253 12.7464 11.6214 12.746C11.5991 12.7436 11.5771 12.7403 11.5554 12.7361C11.3464 12.7051 11.1549 12.6681 10.972 12.6178C10.6052 12.5166 10.3007 12.3699 9.95259 12.1569C9.18798 11.7012 8.50007 10.7181 8.50007 9.38479C8.50007 7.46874 10.0503 6.42412 11.5423 6.27117Z" fill="#020203"/>
<path fill-rule="evenodd" clip-rule="evenodd" d="M12 5.25C12.4142 5.25 12.75 5.58579 12.75 6V7C12.75 7.41421 12.4142 7.75 12 7.75C11.5858 7.75 11.25 7.41421 11.25 7V6C11.25 5.58579 11.5858 5.25 12 5.25Z" fill="#020203"/>
<path fill-rule="evenodd" clip-rule="evenodd" d="M11.25 18V17H12.75V18C12.75 18.4142 12.4142 18.75 12 18.75C11.5858 18.75 11.25 18.4142 11.25 18Z" fill="#020203"/>
</svg>
