<svg width="24" height="24" viewBox="0 0 24 24" fill="none" xmlns="http://www.w3.org/2000/svg">
<path opacity="0.4" d="M2 12C2 17.5228 6.47715 22 12 22C17.5228 22 22 17.5228 22 12C22 6.47715 17.5228 2 12 2C6.47715 2 2 6.47715 2 12Z" stroke="#020203" stroke-width="1.5" stroke-linecap="round"/>
<path d="M2.5 12H4.91886C5.8631 12 6.70141 11.3958 7 10.5L7.10263 10.1921C7.33994 9.48019 8.00616 9 8.75658 9C9.71945 9 10.5 9.78055 10.5 10.7434V13.2566C10.5 14.2194 11.2806 15 12.2434 15C12.9938 15 13.6601 14.5198 13.8974 13.8079L14 13.5C14.2986 12.6042 15.1369 12 16.0811 12H18" stroke="#020203" stroke-width="1.5" stroke-linecap="round" stroke-linejoin="round"/>
</svg>
