<svg width="24" height="24" viewBox="0 0 24 24" fill="none" xmlns="http://www.w3.org/2000/svg">
<path opacity="0.4" d="M1.25 12C1.25 17.9371 6.06294 22.75 12 22.75C17.9371 22.75 22.75 17.9371 22.75 12C22.75 6.06294 17.9371 1.25 12 1.25C6.06294 1.25 1.25 6.06294 1.25 12Z" fill="#020203"/>
<path d="M18.25 10.251V13.749C18.25 16.1739 15.5222 17.5969 13.5335 16.2094L10.7327 14.2553C9.164 13.1609 9.164 10.8391 10.7327 9.74465L13.5335 7.79061C15.5222 6.40311 18.25 7.82606 18.25 10.251Z" fill="#020203"/>
<path fill-rule="evenodd" clip-rule="evenodd" d="M6.5 7.25C6.91421 7.25 7.25 7.58579 7.25 8L7.25 16C7.25 16.4142 6.91421 16.75 6.5 16.75C6.08579 16.75 5.75 16.4142 5.75 16L5.75 8C5.75 7.58579 6.08579 7.25 6.5 7.25Z" fill="#020203"/>
</svg>
