<svg width="24" height="24" viewBox="0 0 24 24" fill="none" xmlns="http://www.w3.org/2000/svg">
<path d="M1.27576 12.75C1.6608 18.3372 6.31506 22.75 12 22.75C17.9371 22.75 22.75 17.9371 22.75 12C22.75 6.06294 17.9371 1.25 12 1.25C6.31506 1.25 1.6608 5.66285 1.27576 11.25H4.91874C5.54016 11.25 6.09186 10.8524 6.28837 10.2628L6.391 9.95493C6.73039 8.93676 7.68322 8.25 8.75646 8.25C10.1335 8.25 11.2499 9.36634 11.2499 10.7434V13.2566C11.2499 13.8052 11.6946 14.25 12.2433 14.25C12.6709 14.25 13.0505 13.9764 13.1857 13.5707L13.2884 13.2628C13.689 12.0608 14.814 11.25 16.081 11.25H17.9999C18.4141 11.25 18.7499 11.5858 18.7499 12C18.7499 12.4142 18.4141 12.75 17.9999 12.75H16.081C15.4596 12.75 14.9079 13.1476 14.7114 13.7372L14.6088 14.0451C14.2694 15.0632 13.3165 15.75 12.2433 15.75C10.8662 15.75 9.74988 14.6337 9.74988 13.2566V10.7434C9.74988 10.1948 9.30511 9.75 8.75646 9.75C8.32887 9.75 7.94924 10.0236 7.81403 10.4293L7.71139 10.7372C7.31071 11.9392 6.1858 12.75 4.91874 12.75H1.27576Z" fill="#020203"/>
</svg>
