<svg width="24" height="24" viewBox="0 0 24 24" fill="none" xmlns="http://www.w3.org/2000/svg">
<path opacity="0.4" d="M1.25 12C1.25 17.9371 6.06294 22.75 12 22.75C17.9371 22.75 22.75 17.9371 22.75 12C22.75 6.06294 17.9371 1.25 12 1.25C6.06294 1.25 1.25 6.06294 1.25 12Z" fill="#020203"/>
<path fill-rule="evenodd" clip-rule="evenodd" d="M8 13C7.44772 13 7 12.5523 7 12L7 11.999C7 11.4467 7.44772 10.999 8 10.999C8.55228 10.999 9 11.4467 9 11.999L9 12C9 12.5523 8.55228 13 8 13Z" fill="#020203"/>
<path fill-rule="evenodd" clip-rule="evenodd" d="M12 13C11.4477 13 11 12.5523 11 12L11 11.999C11 11.4467 11.4477 10.999 12 10.999C12.5523 10.999 13 11.4467 13 11.999L13 12C13 12.5523 12.5523 13 12 13Z" fill="#020203"/>
<path fill-rule="evenodd" clip-rule="evenodd" d="M16 13C15.4477 13 15 12.5523 15 12L15 11.999C15 11.4467 15.4477 10.999 16 10.999C16.5523 10.999 17 11.4467 17 11.999L17 12C17 12.5523 16.5523 13 16 13Z" fill="#020203"/>
</svg>
