<svg width="24" height="24" viewBox="0 0 24 24" fill="none" xmlns="http://www.w3.org/2000/svg">
<path fill-rule="evenodd" clip-rule="evenodd" d="M12 22.75C6.06294 22.75 1.25 17.9371 1.25 12C1.25 6.06294 6.06294 1.25 12 1.25C17.9371 1.25 22.75 6.06294 22.75 12C22.75 17.9371 17.9371 22.75 12 22.75ZM17.0857 9.46852C17.3444 9.14507 17.292 8.67311 16.9685 8.41435C16.6451 8.15559 16.1731 8.20803 15.9143 8.53148L11.623 13.8957C11.0945 14.5563 10.0761 14.5121 9.60684 13.8082L8.12404 11.584C7.89427 11.2393 7.42862 11.1462 7.08397 11.376C6.73933 11.6057 6.6462 12.0714 6.87596 12.416L8.35877 14.6402C9.39118 16.1889 11.6316 16.2861 12.7943 14.8327L17.0857 9.46852Z" fill="#020203"/>
</svg>
