<svg width="24" height="24" viewBox="0 0 24 24" fill="none" xmlns="http://www.w3.org/2000/svg">
<path d="M2 12C2 17.5228 6.47715 22 12 22C17.5228 22 22 17.5228 22 12C22 6.47715 17.5228 2 12 2C6.47715 2 2 6.47715 2 12Z" stroke="#020203" stroke-width="1.5" stroke-linecap="round"/>
<path d="M8 12C8 10.8359 8 10.2538 8.17339 9.78897C8.45213 9.04163 9.04163 8.45213 9.78897 8.17339C10.2538 8 10.8359 8 12 8C13.1641 8 13.7462 8 14.211 8.17339C14.9584 8.45213 15.5479 9.04163 15.8266 9.78897C16 10.2538 16 10.8359 16 12C16 13.1641 16 13.7462 15.8266 14.211C15.5479 14.9584 14.9584 15.5479 14.211 15.8266C13.7462 16 13.1641 16 12 16C10.8359 16 10.2538 16 9.78897 15.8266C9.04163 15.5479 8.45213 14.9584 8.17339 14.211C8 13.7462 8 13.1641 8 12Z" stroke="#020203" stroke-width="1.5"/>
</svg>
