<svg width="24" height="24" viewBox="0 0 24 24" fill="none" xmlns="http://www.w3.org/2000/svg">
<path opacity="0.4" d="M1.25 12C1.25 17.9371 6.06294 22.75 12 22.75C17.9371 22.75 22.75 17.9371 22.75 12C22.75 6.06294 17.9371 1.25 12 1.25C6.06294 1.25 1.25 6.06294 1.25 12Z" fill="#020203"/>
<path fill-rule="evenodd" clip-rule="evenodd" d="M16.9685 8.41435C17.292 8.6731 17.3444 9.14507 17.0857 9.46852L12.7943 14.8327C11.6316 16.2861 9.3912 16.1889 8.35879 14.6402L6.87598 12.416C6.64622 12.0714 6.73935 11.6057 7.08399 11.376C7.42864 11.1462 7.89429 11.2393 8.12406 11.584L9.60686 13.8082C10.0761 14.5121 11.0945 14.5563 11.623 13.8957L15.9144 8.53148C16.1731 8.20803 16.6451 8.15559 16.9685 8.41435Z" fill="#020203"/>
</svg>
