<svg width="24" height="24" viewBox="0 0 24 24" fill="none" xmlns="http://www.w3.org/2000/svg">
<path opacity="0.4" d="M1.25 12C1.25 17.9371 6.06294 22.75 12 22.75C17.9371 22.75 22.75 17.9371 22.75 12C22.75 6.06294 17.9371 1.25 12 1.25C6.06294 1.25 1.25 6.06294 1.25 12Z" fill="#020203"/>
<path d="M7 14.5C7 16.433 8.567 18 10.5 18C12.433 18 14 16.433 14 14.5C14 12.567 12.433 11 10.5 11C8.567 11 7 12.567 7 14.5Z" fill="#020203"/>
<path fill-rule="evenodd" clip-rule="evenodd" d="M16.544 8.72114C15.2691 8.35689 14 9.31415 14 10.6401V14.5C14 14.9142 13.6642 15.25 13.25 15.25C12.8358 15.25 12.5 14.9142 12.5 14.5V10.6401C12.5 8.31759 14.7229 6.64083 16.956 7.27886C17.3543 7.39265 17.5849 7.80776 17.4711 8.20604C17.3573 8.60432 16.9422 8.83494 16.544 8.72114Z" fill="#020203"/>
</svg>
