<svg width="24" height="24" viewBox="0 0 24 24" fill="none" xmlns="http://www.w3.org/2000/svg">
<path fill-rule="evenodd" clip-rule="evenodd" d="M12 22.75C6.06294 22.75 1.25 17.9371 1.25 12C1.25 6.06294 6.06294 1.25 12 1.25C17.9371 1.25 22.75 6.06294 22.75 12C22.75 17.9371 17.9371 22.75 12 22.75ZM7 12C7 12.5523 7.44772 13 8 13C8.55228 13 9 12.5523 9 12V11.999C9 11.4467 8.55228 10.999 8 10.999C7.44772 10.999 7 11.4467 7 11.999V12ZM12 13C11.4477 13 11 12.5523 11 12V11.999C11 11.4467 11.4477 10.999 12 10.999C12.5523 10.999 13 11.4467 13 11.999V12C13 12.5523 12.5523 13 12 13ZM15 12C15 12.5523 15.4477 13 16 13C16.5523 13 17 12.5523 17 12V11.999C17 11.4467 16.5523 10.999 16 10.999C15.4477 10.999 15 11.4467 15 11.999V12Z" fill="#020203"/>
</svg>
