<svg width="24" height="24" viewBox="0 0 24 24" fill="none" xmlns="http://www.w3.org/2000/svg">
<path opacity="0.4" d="M2 12C2 17.5228 6.47715 22 12 22C17.5228 22 22 17.5228 22 12C22 6.47715 17.5228 2 12 2C6.47715 2 2 6.47715 2 12Z" stroke="#020203" stroke-width="1.5" stroke-linecap="round"/>
<path d="M7.25 14C7.25 15.6569 8.59315 17 10.25 17C11.9069 17 13.25 15.6569 13.25 14C13.25 12.3431 11.9069 11 10.25 11C8.59315 11 7.25 12.3431 7.25 14Z" stroke="#020203" stroke-width="1.5" stroke-linecap="round"/>
<path d="M13.25 14V10.6401C13.25 8.81587 14.996 7.49886 16.75 8" stroke="#020203" stroke-width="1.5" stroke-linecap="round"/>
</svg>
