<svg width="24" height="24" viewBox="0 0 24 24" fill="none" xmlns="http://www.w3.org/2000/svg">
<path fill-rule="evenodd" clip-rule="evenodd" d="M12 22.75C6.06294 22.75 1.25 17.9371 1.25 12C1.25 6.06294 6.06294 1.25 12 1.25C17.9371 1.25 22.75 6.06294 22.75 12C22.75 17.9371 17.9371 22.75 12 22.75ZM15.4103 8.62388C14.9565 7.28634 13.8827 6.55877 12.75 6.33031V6C12.75 5.58579 12.4142 5.25 12 5.25C11.5858 5.25 11.25 5.58579 11.25 6V6.31249C9.85458 6.56413 8.50005 7.59374 8.50005 9.3848C8.50005 10.7181 9.18796 11.7012 9.95257 12.1569C10.3007 12.3699 10.6051 12.5166 10.972 12.6178C11.1549 12.6682 11.3464 12.7051 11.5554 12.7361C11.577 12.7403 11.599 12.7436 11.6214 12.746L11.6331 12.7472C11.7885 12.7687 11.9537 12.7876 12.1321 12.8066C12.318 12.8327 12.457 12.8595 12.5795 12.8933C12.7735 12.9468 12.9481 13.0242 13.2181 13.1897L13.2276 13.1955C13.541 13.3811 13.95 13.8765 13.95 14.6801C13.95 15.5841 13.2502 16.1995 12.2548 16.3016C11.2638 16.4032 10.2948 15.9452 9.96024 14.9591C9.82716 14.5669 9.40129 14.3568 9.00904 14.4899C8.61678 14.6229 8.40668 15.0488 8.53976 15.4411C9.00022 16.7982 10.099 17.5274 11.25 17.7444V18C11.25 18.4142 11.5858 18.75 12 18.75C12.4142 18.75 12.75 18.4142 12.75 18V17.7431C14.1276 17.4761 15.45 16.4498 15.45 14.6801C15.45 13.3468 14.7621 12.3637 13.9975 11.9081C13.6493 11.695 13.3449 11.5483 12.978 11.4472C12.7952 11.3968 12.6036 11.3598 12.3946 11.3289C12.373 11.3246 12.351 11.3213 12.3287 11.319L12.317 11.3177C12.1615 11.2962 11.9963 11.2774 11.8179 11.2584C11.632 11.2322 11.493 11.2054 11.3706 11.1717C11.1765 11.1182 11.002 11.0407 10.732 10.8752L10.7224 10.8695C10.4091 10.6838 10 10.1884 10 9.3848C10 8.48082 10.6998 7.8654 11.6953 7.76335C12.6863 7.66177 13.6553 8.11977 13.9898 9.10581C14.1229 9.49806 14.5488 9.70816 14.941 9.57508C15.3333 9.442 15.5434 9.01614 15.4103 8.62388Z" fill="#020203"/>
</svg>
