<svg width="24" height="24" viewBox="0 0 24 24" fill="none" xmlns="http://www.w3.org/2000/svg">
<path d="M7.97597 9.30448C7.47957 8.94991 6.79004 9.30475 6.79004 9.91478V14.0852C6.79004 14.6952 7.47957 15.0501 7.97597 14.6955L10.8953 12.6103C11.314 12.3112 11.314 11.6888 10.8953 11.3897L7.97597 9.30448Z" fill="#020203"/>
<path d="M12.79 9.91478C12.79 9.30475 13.4796 8.94991 13.976 9.30448L16.8953 11.3897C17.314 11.6888 17.314 12.3112 16.8953 12.6103L13.976 14.6955C13.4796 15.0501 12.79 14.6952 12.79 14.0852V9.91478Z" fill="#020203"/>
<path fill-rule="evenodd" clip-rule="evenodd" d="M1.25 12C1.25 17.9371 6.06294 22.75 12 22.75C17.9371 22.75 22.75 17.9371 22.75 12C22.75 6.06294 17.9371 1.25 12 1.25C6.06294 1.25 1.25 6.06294 1.25 12ZM5.29004 9.91478C5.29004 8.0847 7.35862 7.02017 8.84783 8.08388L11.2915 9.8294C11.3547 8.05189 13.3819 7.03682 14.8478 8.08388L17.7671 10.1691C19.0234 11.0664 19.0234 12.9336 17.7671 13.8309L14.8478 15.9161C13.3819 16.9632 11.3547 15.9481 11.2915 14.1706L8.84783 15.9161C7.35862 16.9798 5.29004 15.9153 5.29004 14.0852V9.91478Z" fill="#020203"/>
</svg>
