<svg width="24" height="24" viewBox="0 0 24 24" fill="none" xmlns="http://www.w3.org/2000/svg">
<path opacity="0.4" d="M1.25 12C1.25 17.9371 6.06294 22.75 12 22.75C17.9371 22.75 22.75 17.9371 22.75 12C22.75 6.06294 17.9371 1.25 12 1.25C6.06294 1.25 1.25 6.06294 1.25 12Z" fill="#020203"/>
<path d="M5.75 13.749V10.251C5.75 7.82606 8.47779 6.40311 10.4665 7.79062L13.2673 9.74465C14.836 10.8391 14.836 13.1609 13.2673 14.2554L10.4665 16.2094C8.47779 17.5969 5.75 16.1739 5.75 13.749Z" fill="#020203"/>
<path fill-rule="evenodd" clip-rule="evenodd" d="M17.5 7.25C17.9142 7.25 18.25 7.58579 18.25 8L18.25 16C18.25 16.4142 17.9142 16.75 17.5 16.75C17.0858 16.75 16.75 16.4142 16.75 16L16.75 8C16.75 7.58579 17.0858 7.25 17.5 7.25Z" fill="#020203"/>
</svg>
