<svg width="24" height="24" viewBox="0 0 24 24" fill="none" xmlns="http://www.w3.org/2000/svg">
<path opacity="0.4" d="M1.25 12C1.25 17.9371 6.06294 22.75 12 22.75C17.9371 22.75 22.75 17.9371 22.75 12C22.75 6.06294 17.9371 1.25 12 1.25C6.06294 1.25 1.25 6.06294 1.25 12Z" fill="#020203"/>
<path fill-rule="evenodd" clip-rule="evenodd" d="M6.90918 11.9993C6.90918 11.5851 7.24497 11.2493 7.65918 11.2493H16.6592C17.0734 11.2493 17.4092 11.5851 17.4092 11.9993C17.4092 12.4136 17.0734 12.7493 16.6592 12.7493H7.65918C7.24497 12.7493 6.90918 12.4136 6.90918 11.9993Z" fill="#020203"/>
<path fill-rule="evenodd" clip-rule="evenodd" d="M10.2498 8.46901C10.5427 8.76191 10.5427 9.23678 10.2498 9.52967L8.31049 11.469C8.0176 11.7619 8.0176 12.2368 8.31049 12.5297L10.2498 14.469C10.5427 14.7619 10.5427 15.2368 10.2498 15.5297C9.95694 15.8226 9.48206 15.8226 9.18917 15.5297L7.24983 13.5903C6.37115 12.7117 6.37115 11.287 7.24983 10.4084L9.18917 8.46901C9.48206 8.17612 9.95694 8.17612 10.2498 8.46901Z" fill="#020203"/>
</svg>
