<svg width="24" height="24" viewBox="0 0 24 24" fill="none" xmlns="http://www.w3.org/2000/svg">
<path d="M2 12C2 17.5228 6.47715 22 12 22C17.5228 22 22 17.5228 22 12C22 6.47715 17.5228 2 12 2C6.47715 2 2 6.47715 2 12Z" stroke="#020203" stroke-width="1.5" stroke-linecap="round"/>
<path d="M14.7 8.86485C13.75 6.06473 9.25005 6.56476 9.25005 9.3848C9.25005 10.4548 9.80005 11.1947 10.34 11.5147C10.96 11.8947 11.3 11.9647 12.25 12.0648M9.25 15.2001C10.2 18.0002 14.7 17.5002 14.7 14.6801C14.7 13.6102 14.15 12.8702 13.61 12.5502C12.99 12.1702 12.65 12.1002 11.7 12.0001" stroke="#020203" stroke-width="1.5" stroke-linecap="round"/>
<path d="M12 6V6.5" stroke="#020203" stroke-width="1.5" stroke-linecap="round"/>
<path d="M12 17.5V18" stroke="#020203" stroke-width="1.5" stroke-linecap="round" stroke-linejoin="round"/>
</svg>
