<svg width="24" height="24" viewBox="0 0 24 24" fill="none" xmlns="http://www.w3.org/2000/svg">
<path opacity="0.4" d="M1.25 12C1.25 17.9371 6.06294 22.75 12 22.75C17.9371 22.75 22.75 17.9371 22.75 12C22.75 6.06294 17.9371 1.25 12 1.25C6.06294 1.25 1.25 6.06294 1.25 12Z" fill="#020203"/>
<path fill-rule="evenodd" clip-rule="evenodd" d="M10.192 6.25458C10.6037 6.30033 10.9003 6.67114 10.8546 7.08282L9.74346 17.0828C9.69772 17.4945 9.32691 17.7912 8.91523 17.7454C8.50355 17.6997 8.2069 17.3289 8.25264 16.9172L9.36375 6.91717C9.40949 6.50549 9.78031 6.20884 10.192 6.25458Z" fill="#020203"/>
<path fill-rule="evenodd" clip-rule="evenodd" d="M14.9698 6.25458C15.3815 6.30033 15.6782 6.67114 15.6324 7.08282L14.5213 17.0828C14.4756 17.4945 14.1047 17.7912 13.6931 17.7454C13.2814 17.6997 12.9847 17.3289 13.0305 16.9172L14.1416 6.91717C14.1873 6.50549 14.5581 6.20884 14.9698 6.25458Z" fill="#020203"/>
<path fill-rule="evenodd" clip-rule="evenodd" d="M6.25 10C6.25 9.58579 6.58579 9.25 7 9.25L17 9.25C17.4142 9.25 17.75 9.58579 17.75 10C17.75 10.4142 17.4142 10.75 17 10.75L7 10.75C6.58579 10.75 6.25 10.4142 6.25 10Z" fill="#020203"/>
<path fill-rule="evenodd" clip-rule="evenodd" d="M6.25 14C6.25 13.5858 6.58579 13.25 7 13.25L17 13.25C17.4142 13.25 17.75 13.5858 17.75 14C17.75 14.4142 17.4142 14.75 17 14.75L7 14.75C6.58579 14.75 6.25 14.4142 6.25 14Z" fill="#020203"/>
</svg>
