<svg width="24" height="24" viewBox="0 0 24 24" fill="none" xmlns="http://www.w3.org/2000/svg">
<path d="M10.0511 8.8761C10.1852 8.82607 10.3642 8.78976 10.6787 8.77023C10.9993 8.75034 11.4086 8.75 12 8.75C12.5914 8.75 13.0007 8.75034 13.3213 8.77023C13.6358 8.78976 13.8148 8.82607 13.9489 8.8761C14.4925 9.07882 14.9212 9.50755 15.1239 10.0511C15.1739 10.1852 15.2102 10.3642 15.2298 10.6787C15.2497 10.9993 15.25 11.4086 15.25 12C15.25 12.5914 15.2497 13.0007 15.2298 13.3213C15.2102 13.6358 15.1739 13.8148 15.1239 13.9489C14.9212 14.4925 14.4925 14.9212 13.9489 15.1239C13.8148 15.1739 13.6358 15.2102 13.3213 15.2298C13.0007 15.2497 12.5914 15.25 12 15.25C11.4086 15.25 10.9993 15.2497 10.6787 15.2298C10.3642 15.2102 10.1852 15.1739 10.0511 15.1239C9.50755 14.9212 9.07882 14.4925 8.8761 13.9489C8.82607 13.8148 8.78976 13.6358 8.77023 13.3213C8.75034 13.0007 8.75 12.5914 8.75 12C8.75 11.4086 8.75034 10.9993 8.77023 10.6787C8.78976 10.3642 8.82607 10.1852 8.8761 10.0511C9.07882 9.50755 9.50755 9.07882 10.0511 8.8761Z" fill="#020203"/>
<path fill-rule="evenodd" clip-rule="evenodd" d="M12 22.75C6.06294 22.75 1.25 17.9371 1.25 12C1.25 6.06294 6.06294 1.25 12 1.25C17.9371 1.25 22.75 6.06294 22.75 12C22.75 17.9371 17.9371 22.75 12 22.75ZM11.9761 7.25C11.4143 7.25 10.9583 7.24999 10.5858 7.27311C10.2021 7.29693 9.85762 7.34732 9.52688 7.47068C8.57571 7.82544 7.82544 8.57571 7.47068 9.52688C7.34732 9.85762 7.29693 10.2021 7.27311 10.5858C7.24999 10.9583 7.25 11.4143 7.25 11.9761V12.0239C7.25 12.5857 7.24999 13.0417 7.27311 13.4142C7.29693 13.7979 7.34732 14.1424 7.47068 14.4731C7.82544 15.4243 8.57571 16.1746 9.52688 16.5293C9.85762 16.6527 10.2021 16.7031 10.5858 16.7269C10.9583 16.75 11.4143 16.75 11.9761 16.75H12.0239C12.5857 16.75 13.0417 16.75 13.4142 16.7269C13.7979 16.7031 14.1424 16.6527 14.4731 16.5293C15.4243 16.1746 16.1746 15.4243 16.5293 14.4731C16.6527 14.1424 16.7031 13.7979 16.7269 13.4142C16.75 13.0417 16.75 12.5857 16.75 12.0239V11.9761C16.75 11.4143 16.75 10.9583 16.7269 10.5858C16.7031 10.2021 16.6527 9.85762 16.5293 9.52688C16.1746 8.57571 15.4243 7.82544 14.4731 7.47068C14.1424 7.34732 13.7979 7.29693 13.4142 7.27311C13.0417 7.24999 12.5857 7.25 12.0239 7.25H11.9761Z" fill="#020203"/>
</svg>
