<svg width="24" height="24" viewBox="0 0 24 24" fill="none" xmlns="http://www.w3.org/2000/svg">
<path d="M2 12C2 17.5228 6.47715 22 12 22C17.5228 22 22 17.5228 22 12C22 6.47715 17.5228 2 12 2C6.47715 2 2 6.47715 2 12Z" stroke="#020203" stroke-width="1.5" stroke-linecap="round"/>
<path d="M6.5 15C6.5 16.1046 7.39543 17 8.5 17C9.60457 17 10.5 16.1046 10.5 15C10.5 13.8954 9.60457 13 8.5 13C7.39543 13 6.5 13.8954 6.5 15Z" stroke="#020203" stroke-width="1.5" stroke-linecap="round"/>
<path d="M13.5 15C13.5 16.1046 14.3954 17 15.5 17C16.6046 17 17.5 16.1046 17.5 15C17.5 13.8954 16.6046 13 15.5 13C14.3954 13 13.5 13.8954 13.5 15Z" stroke="#020203" stroke-width="1.5" stroke-linecap="round"/>
<path d="M10.5 15V10.3554C10.5 8.64653 10.5 7.79209 10.9329 7.24618C11.1187 7.01174 11.3549 6.82199 11.6238 6.69091C12.2501 6.3857 13.0845 6.56962 14.7533 6.93744C15.8759 7.18486 16.4372 7.30857 16.8257 7.65253C16.9951 7.80245 17.1378 7.98002 17.2477 8.17768C17.5 8.63112 17.5 9.20588 17.5 10.3554V13.9714" stroke="#020203" stroke-width="1.5" stroke-linecap="round"/>
<path d="M10.5 15V10.3554C10.5 8.64656 10.5 7.79212 10.9329 7.24621C11.1187 7.01177 11.3549 6.82202 11.6238 6.69094C12.2501 6.38574 13.0845 6.56965 14.7533 6.93747C15.8759 7.18489 16.4372 7.3086 16.8257 7.65256C16.9951 7.80249 17.1378 7.98005 17.2477 8.17771C17.5 8.63115 17.5 9.20591 17.5 10.3554V15" stroke="#020203" stroke-width="1.5" stroke-linecap="round"/>
</svg>
