<svg width="24" height="24" viewBox="0 0 24 24" fill="none" xmlns="http://www.w3.org/2000/svg">
<path opacity="0.4" d="M1.25 12C1.25 17.9371 6.06294 22.75 12 22.75C17.9371 22.75 22.75 17.9371 22.75 12C22.75 6.06294 17.9371 1.25 12 1.25C6.06294 1.25 1.25 6.06294 1.25 12Z" fill="#020203"/>
<path d="M11.96 9.91478V14.0852C11.96 15.3053 10.5809 16.015 9.58809 15.3058L6.66879 13.2206C5.83127 12.6224 5.83127 11.3776 6.66879 10.7794L9.58809 8.69418C10.5809 7.98504 11.96 8.69473 11.96 9.91478Z" fill="#020203"/>
<path d="M17.96 9.91478V14.0852C17.96 15.3053 16.5809 16.015 15.5881 15.3058L12.6688 13.2206C11.8313 12.6224 11.8313 11.3776 12.6688 10.7794L15.5881 8.69418C16.5809 7.98504 17.96 8.69473 17.96 9.91478Z" fill="#020203"/>
</svg>
