<svg width="24" height="24" viewBox="0 0 24 24" fill="none" xmlns="http://www.w3.org/2000/svg">
<path opacity="0.4" d="M2 12C2 17.5228 6.47715 22 12 22C17.5228 22 22 17.5228 22 12C22 6.47715 17.5228 2 12 2C6.47715 2 2 6.47715 2 12Z" stroke="#020203" stroke-width="1.5" stroke-linecap="round"/>
<path d="M9 13C8.44772 13 8 13.4477 8 14C8 14.5523 8.44772 15 9 15C9.55228 15 10 14.5523 10 14C10 13.4477 9.55228 13 9 13Z" fill="#020203"/>
<path d="M12 13C11.4477 13 11 13.4477 11 14C11 14.5523 11.4477 15 12 15C12.5523 15 13 14.5523 13 14C13 13.4477 12.5523 13 12 13Z" fill="#020203"/>
<path d="M18 13C17.4477 13 17 13.4477 17 14C17 14.5523 17.4477 15 18 15C18.5523 15 19 14.5523 19 14C19 13.4477 18.5523 13 18 13Z" fill="#020203"/>
<path d="M6 9V15" stroke="#020203" stroke-width="1.5" stroke-linecap="round"/>
<path d="M9 9V11" stroke="#020203" stroke-width="1.5" stroke-linecap="round"/>
<path d="M12 9V11" stroke="#020203" stroke-width="1.5" stroke-linecap="round"/>
<path d="M15 9V15" stroke="#020203" stroke-width="1.5" stroke-linecap="round"/>
<path d="M18 9V11" stroke="#020203" stroke-width="1.5" stroke-linecap="round"/>
</svg>
