<svg width="24" height="24" viewBox="0 0 24 24" fill="none" xmlns="http://www.w3.org/2000/svg">
<path opacity="0.4" d="M1.25 12C1.25 17.9371 6.06294 22.75 12 22.75C17.9371 22.75 22.75 17.9371 22.75 12C22.75 6.06294 17.9371 1.25 12 1.25C6.06294 1.25 1.25 6.06294 1.25 12Z" fill="#020203"/>
<path fill-rule="evenodd" clip-rule="evenodd" d="M8.75 6.63148C7.62439 7.14345 6.76641 8.12733 6.42225 9.33693C6.26001 9.90715 6.26001 10.6048 6.26001 12C6.26001 13.3952 6.26001 14.0928 6.42225 14.6631C6.825 16.0786 7.93142 17.185 9.34694 17.5878C9.91716 17.75 10.6148 17.75 12.01 17.75C13.4052 17.75 14.1029 17.75 14.6731 17.5878C16.0886 17.185 17.195 16.0786 17.5978 14.6631C17.76 14.0928 17.76 13.3952 17.76 12C17.76 10.6048 17.76 9.90715 17.5978 9.33693C17.2516 8.12017 16.3855 7.13181 15.25 6.62243V8C15.25 9.51878 14.0188 10.75 12.5 10.75H11.5C9.98122 10.75 8.75 9.51878 8.75 8V6.63148ZM9.25 14C9.25 13.5858 9.58579 13.25 10 13.25H11C11.4142 13.25 11.75 13.5858 11.75 14C11.75 14.4142 11.4142 14.75 11 14.75H10C9.58579 14.75 9.25 14.4142 9.25 14Z" fill="#020203"/>
<path d="M13.75 6.27556C13.3136 6.25 12.7635 6.25 12.01 6.25C11.2449 6.25 10.6896 6.25 10.25 6.27675V8C10.25 8.69036 10.8096 9.25 11.5 9.25H12.5C13.1904 9.25 13.75 8.69036 13.75 8V6.27556Z" fill="#020203"/>
</svg>
