<svg width="24" height="24" viewBox="0 0 24 24" fill="none" xmlns="http://www.w3.org/2000/svg">
<path d="M2 12C2 17.5228 6.47715 22 12 22C17.5228 22 22 17.5228 22 12C22 6.47715 17.5228 2 12 2C6.47715 2 2 6.47715 2 12Z" stroke="#020203" stroke-width="1.5" stroke-linecap="round"/>
<path d="M11.96 9.91478V14.0852C11.96 15.3053 10.5809 16.015 9.58809 15.3058L6.66879 13.2206C5.83127 12.6224 5.83127 11.3776 6.66879 10.7794L9.58809 8.69418C10.5809 7.98504 11.96 8.69473 11.96 9.91478Z" stroke="#020203" stroke-width="1.5" stroke-linecap="round"/>
<path d="M17.96 9.91478V14.0852C17.96 15.3053 16.5809 16.015 15.5881 15.3058L12.6688 13.2206C11.8313 12.6224 11.8313 11.3776 12.6688 10.7794L15.5881 8.69418C16.5809 7.98504 17.96 8.69473 17.96 9.91478Z" stroke="#020203" stroke-width="1.5" stroke-linecap="round"/>
</svg>
