<svg width="24" height="24" viewBox="0 0 24 24" fill="none" xmlns="http://www.w3.org/2000/svg">
<path d="M7.25 10.2042C7.25 9.00612 8.58522 8.29153 9.58205 8.95609L12.2758 10.7519C13.1664 11.3457 13.1664 12.6543 12.2758 13.2481L9.58205 15.0439C8.58522 15.7085 7.25 14.9939 7.25 13.7958V10.2042Z" fill="#020203"/>
<path fill-rule="evenodd" clip-rule="evenodd" d="M1.25 12C1.25 17.9371 6.06294 22.75 12 22.75C17.9371 22.75 22.75 17.9371 22.75 12C22.75 6.06294 17.9371 1.25 12 1.25C6.06294 1.25 1.25 6.06294 1.25 12ZM17.5 7.25C17.9142 7.25 18.25 7.58579 18.25 8V16C18.25 16.4142 17.9142 16.75 17.5 16.75C17.0858 16.75 16.75 16.4142 16.75 16V8C16.75 7.58579 17.0858 7.25 17.5 7.25ZM10.4141 7.70801C8.42044 6.3789 5.75 7.80808 5.75 10.2042V13.7958C5.75 16.1919 8.42044 17.6211 10.4141 16.292L13.1079 14.4962C14.8891 13.3087 14.8891 10.6913 13.1079 9.50385L10.4141 7.70801Z" fill="#020203"/>
</svg>
