<svg width="24" height="24" viewBox="0 0 24 24" fill="none" xmlns="http://www.w3.org/2000/svg">
<path opacity="0.4" d="M1.25 12C1.25 17.9371 6.06294 22.75 12 22.75C17.9371 22.75 22.75 17.9371 22.75 12C22.75 6.06294 17.9371 1.25 12 1.25C6.06294 1.25 1.25 6.06294 1.25 12Z" fill="#020203"/>
<path fill-rule="evenodd" clip-rule="evenodd" d="M12 6.9084C12.4142 6.9084 12.75 7.24419 12.75 7.6584V16.6584C12.75 17.0726 12.4142 17.4084 12 17.4084C11.5858 17.4084 11.25 17.0726 11.25 16.6584V7.6584C11.25 7.24419 11.5858 6.9084 12 6.9084Z" fill="#020203"/>
<path fill-rule="evenodd" clip-rule="evenodd" d="M12.5303 8.30994C12.2374 8.01705 11.7626 8.01705 11.4697 8.30994L9.53033 10.2493C9.23744 10.5422 8.76256 10.5422 8.46967 10.2493C8.17678 9.95639 8.17678 9.48151 8.46967 9.18862L10.409 7.24928C11.2877 6.3706 12.7123 6.3706 13.591 7.24928L15.5303 9.18862C15.8232 9.48151 15.8232 9.95639 15.5303 10.2493C15.2374 10.5422 14.7626 10.5422 14.4697 10.2493L12.5303 8.30994Z" fill="#020203"/>
</svg>
