<svg width="24" height="24" viewBox="0 0 24 24" fill="none" xmlns="http://www.w3.org/2000/svg">
<path d="M2 12C2 17.5228 6.47715 22 12 22C17.5228 22 22 17.5228 22 12C22 6.47715 17.5228 2 12 2C6.47715 2 2 6.47715 2 12Z" stroke="#020203" stroke-width="1.5" stroke-linecap="round"/>
<path d="M7 12C7 10.6036 7 9.90533 7.19641 9.34402C7.5482 8.33866 8.33866 7.5482 9.34402 7.19641C9.90533 7 10.6036 7 12 7C13.3964 7 14.0947 7 14.656 7.19641C15.6613 7.5482 16.4518 8.33866 16.8036 9.34402C17 9.90533 17 10.6036 17 12C17 13.3964 17 14.0947 16.8036 14.656C16.4518 15.6613 15.6613 16.4518 14.656 16.8036C14.0947 17 13.3964 17 12 17C10.6036 17 9.90533 17 9.34402 16.8036C8.33866 16.4518 7.5482 15.6613 7.19641 14.656C7 14.0947 7 13.3964 7 12Z" stroke="#020203" stroke-width="1.5"/>
<path d="M10 14H11" stroke="#020203" stroke-width="1.5" stroke-linecap="round"/>
<path d="M9.5 7.5V8C9.5 9.10457 10.3954 10 11.5 10H12.5C13.6046 10 14.5 9.10457 14.5 8V7.5" stroke="#020203" stroke-width="1.5" stroke-linecap="round"/>
</svg>
