<svg width="24" height="24" viewBox="0 0 24 24" fill="none" xmlns="http://www.w3.org/2000/svg">
<path opacity="0.4" d="M1.25 12C1.25 17.9371 6.06294 22.75 12 22.75C17.9371 22.75 22.75 17.9371 22.75 12C22.75 6.06294 17.9371 1.25 12 1.25C6.06294 1.25 1.25 6.06294 1.25 12Z" fill="#020203"/>
<path d="M7.25 12C7.25 10.8373 7.25 10.2559 7.38679 9.78108C7.72004 8.62434 8.62434 7.72004 9.78108 7.38679C10.2559 7.25 10.8373 7.25 12 7.25C13.1627 7.25 13.7441 7.25 14.2189 7.38679C15.3757 7.72004 16.28 8.62434 16.6132 9.78108C16.75 10.2559 16.75 10.8373 16.75 12C16.75 13.1627 16.75 13.7441 16.6132 14.2189C16.28 15.3757 15.3757 16.28 14.2189 16.6132C13.7441 16.75 13.1627 16.75 12 16.75C10.8373 16.75 10.2559 16.75 9.78108 16.6132C8.62434 16.28 7.72004 15.3757 7.38679 14.2189C7.25 13.7441 7.25 13.1627 7.25 12Z" fill="#020203"/>
</svg>
