<svg width="24" height="24" viewBox="0 0 24 24" fill="none" xmlns="http://www.w3.org/2000/svg">
<path d="M10.024 14.6955C10.5204 15.0501 11.21 14.6952 11.21 14.0852V9.91478C11.21 9.30475 10.5204 8.94991 10.024 9.30448L7.10473 11.3897C6.68597 11.6888 6.68597 12.3112 7.10473 12.6103L10.024 14.6955Z" fill="#020203"/>
<path d="M17.21 14.0852C17.21 14.6952 16.5204 15.0501 16.024 14.6955L13.1047 12.6103C12.686 12.3112 12.686 11.6888 13.1047 11.3897L16.024 9.30448C16.5204 8.94991 17.21 9.30475 17.21 9.91478V14.0852Z" fill="#020203"/>
<path fill-rule="evenodd" clip-rule="evenodd" d="M1.25 12C1.25 17.9371 6.06294 22.75 12 22.75C17.9371 22.75 22.75 17.9371 22.75 12C22.75 6.06294 17.9371 1.25 12 1.25C6.06294 1.25 1.25 6.06294 1.25 12ZM12.7085 14.1706C12.6453 15.9481 10.6181 16.9632 9.15217 15.9161L6.23287 13.8309C4.97659 12.9336 4.97659 11.0664 6.23287 10.1691L9.15217 8.08388C10.6181 7.03682 12.6453 8.05189 12.7085 9.8294L15.1522 8.08388C16.6414 7.02017 18.71 8.0847 18.71 9.91478V14.0852C18.71 15.9153 16.6414 16.9798 15.1522 15.9161L12.7085 14.1706Z" fill="#020203"/>
</svg>
