<svg width="24" height="24" viewBox="0 0 24 24" fill="none" xmlns="http://www.w3.org/2000/svg">
<path opacity="0.4" d="M1.25 12C1.25 17.9371 6.06294 22.75 12 22.75C17.9371 22.75 22.75 17.9371 22.75 12C22.75 6.06294 17.9371 1.25 12 1.25C6.06294 1.25 1.25 6.06294 1.25 12Z" fill="#020203"/>
<path fill-rule="evenodd" clip-rule="evenodd" d="M6.59082 11.9993C6.59082 11.5851 6.92661 11.2493 7.34082 11.2493H16.3408C16.755 11.2493 17.0908 11.5851 17.0908 11.9993C17.0908 12.4136 16.755 12.7493 16.3408 12.7493H7.34082C6.92661 12.7493 6.59082 12.4136 6.59082 11.9993Z" fill="#020203"/>
<path fill-rule="evenodd" clip-rule="evenodd" d="M13.7499 8.46901C14.0428 8.17612 14.5177 8.17612 14.8106 8.46901L16.7499 10.4084C17.6286 11.287 17.6286 12.7117 16.7499 13.5903L14.8106 15.5297C14.5177 15.8226 14.0428 15.8226 13.7499 15.5297C13.4571 15.2368 13.4571 14.7619 13.7499 14.469L15.6893 12.5297C15.9822 12.2368 15.9822 11.7619 15.6893 11.469L13.7499 9.52967C13.4571 9.23678 13.4571 8.76191 13.7499 8.46901Z" fill="#020203"/>
</svg>
