<svg width="24" height="24" viewBox="0 0 24 24" fill="none" xmlns="http://www.w3.org/2000/svg">
<path d="M16.75 10.2042C16.75 9.00612 15.4148 8.29153 14.4179 8.95609L11.7242 10.7519C10.8336 11.3457 10.8336 12.6543 11.7242 13.2481L14.4179 15.0439C15.4148 15.7085 16.75 14.9939 16.75 13.7958V10.2042Z" fill="#020203"/>
<path fill-rule="evenodd" clip-rule="evenodd" d="M1.25 12C1.25 17.9371 6.06294 22.75 12 22.75C17.9371 22.75 22.75 17.9371 22.75 12C22.75 6.06294 17.9371 1.25 12 1.25C6.06294 1.25 1.25 6.06294 1.25 12ZM13.5859 7.70801C15.5796 6.3789 18.25 7.80808 18.25 10.2042V13.7958C18.25 16.1919 15.5796 17.6211 13.5859 16.292L10.8921 14.4962C9.11095 13.3087 9.11095 10.6913 10.8921 9.50385L13.5859 7.70801ZM7.25 8C7.25 7.58579 6.91421 7.25 6.5 7.25C6.08579 7.25 5.75 7.58579 5.75 8L5.75 16C5.75 16.4142 6.08579 16.75 6.5 16.75C6.91421 16.75 7.25 16.4142 7.25 16L7.25 8Z" fill="#020203"/>
</svg>
