<svg width="24" height="24" viewBox="0 0 24 24" fill="none" xmlns="http://www.w3.org/2000/svg">
<path opacity="0.4" d="M2 12C2 17.5228 6.47715 22 12 22C17.5228 22 22 17.5228 22 12C22 6.47715 17.5228 2 12 2C6.47715 2 2 6.47715 2 12Z" stroke="#020203" stroke-width="1.5" stroke-linecap="round"/>
<path d="M6.04004 14.0852V9.91478C6.04004 8.69473 7.41909 7.98504 8.4119 8.69418L11.3312 10.7794C12.1687 11.3776 12.1687 12.6224 11.3312 13.2206L8.4119 15.3058C7.41909 16.015 6.04004 15.3053 6.04004 14.0852Z" stroke="#020203" stroke-width="1.5" stroke-linecap="round"/>
<path d="M12.04 14.0852V9.91478C12.04 8.69473 13.4191 7.98504 14.4119 8.69418L17.3312 10.7794C18.1687 11.3776 18.1687 12.6224 17.3312 13.2206L14.4119 15.3058C13.4191 16.015 12.04 15.3053 12.04 14.0852Z" stroke="#020203" stroke-width="1.5" stroke-linecap="round"/>
</svg>
