<svg width="24" height="24" viewBox="0 0 24 24" fill="none" xmlns="http://www.w3.org/2000/svg">
<path d="M6.19898 21.052C7.87246 22.1267 9.86344 22.75 12 22.75C14.1366 22.75 16.1275 22.1267 17.801 21.052C16.726 19.0482 14.6201 17.75 12.2798 17.75H11.7202C9.37994 17.75 7.27405 19.0482 6.19898 21.052Z" fill="#020203"/>
<path d="M12 6.75C10.2051 6.75 8.75 8.20507 8.75 10C8.75 11.7949 10.2051 13.25 12 13.25C13.7949 13.25 15.25 11.7949 15.25 10C15.25 8.20507 13.7949 6.75 12 6.75Z" fill="#020203"/>
<path fill-rule="evenodd" clip-rule="evenodd" d="M4.98597 20.1468C2.69829 18.1754 1.25 15.2568 1.25 12C1.25 6.06294 6.06294 1.25 12 1.25C17.9371 1.25 22.75 6.06294 22.75 12C22.75 15.2568 21.3017 18.1754 19.014 20.1468C17.6517 17.7748 15.1034 16.25 12.2798 16.25H11.7202C8.89663 16.25 6.34834 17.7748 4.98597 20.1468ZM7.25 10C7.25 7.37665 9.37665 5.25 12 5.25C14.6234 5.25 16.75 7.37665 16.75 10C16.75 12.6234 14.6234 14.75 12 14.75C9.37665 14.75 7.25 12.6234 7.25 10Z" fill="#020203"/>
</svg>
