<svg width="24" height="24" viewBox="0 0 24 24" fill="none" xmlns="http://www.w3.org/2000/svg">
<path d="M10.25 7.78345C10.6306 7.75348 11.1643 7.75 12 7.75C12.8357 7.75 13.3694 7.75348 13.75 7.78345V8C13.75 8.69036 13.1904 9.25 12.5 9.25H11.5C10.8096 9.25 10.25 8.69036 10.25 8V7.78345Z" fill="#020203"/>
<path fill-rule="evenodd" clip-rule="evenodd" d="M8.77331 8.35965C8.3792 8.67763 8.07559 9.10227 7.90432 9.59173C7.76061 10.0024 7.75 10.5408 7.75 12C7.75 13.4592 7.76061 13.9976 7.90432 14.4083C8.18073 15.1982 8.8018 15.8193 9.59173 16.0957C10.0024 16.2394 10.5408 16.25 12 16.25C13.4592 16.25 13.9976 16.2394 14.4083 16.0957C15.1982 15.8193 15.8193 15.1982 16.0957 14.4083C16.2394 13.9976 16.25 13.4592 16.25 12C16.25 10.5408 16.2394 10.0024 16.0957 9.59173C15.9244 9.10227 15.6208 8.67763 15.2267 8.35965C15.0505 9.70849 13.8969 10.75 12.5 10.75H11.5C10.1031 10.75 8.94949 9.70849 8.77331 8.35965ZM9.25 14C9.25 13.5858 9.58579 13.25 10 13.25H11C11.4142 13.25 11.75 13.5858 11.75 14C11.75 14.4142 11.4142 14.75 11 14.75H10C9.58579 14.75 9.25 14.4142 9.25 14Z" fill="#020203"/>
<path fill-rule="evenodd" clip-rule="evenodd" d="M12 22.75C6.06294 22.75 1.25 17.9371 1.25 12C1.25 6.06294 6.06294 1.25 12 1.25C17.9371 1.25 22.75 6.06294 22.75 12C22.75 17.9371 17.9371 22.75 12 22.75ZM11.843 6.24997C10.5983 6.24957 9.77988 6.2493 9.09631 6.4885C7.87551 6.91567 6.91567 7.87551 6.4885 9.09631C6.2493 9.77988 6.24957 10.5983 6.24997 11.843V12.157C6.24957 13.4017 6.2493 14.2201 6.4885 14.9037C6.91567 16.1245 7.87551 17.0843 9.09631 17.5115C9.77988 17.7507 10.5982 17.7504 11.843 17.75H12.157C13.4017 17.7504 14.2201 17.7507 14.9037 17.5115C16.1245 17.0843 17.0843 16.1245 17.5115 14.9037C17.7507 14.2201 17.7504 13.4018 17.75 12.157V11.843C17.7504 10.5983 17.7507 9.77988 17.5115 9.09631C17.0843 7.87551 16.1245 6.91567 14.9037 6.4885C14.2201 6.2493 13.4017 6.24957 12.157 6.24997H11.843Z" fill="#020203"/>
</svg>
