<svg width="24" height="24" viewBox="0 0 24 24" fill="none" xmlns="http://www.w3.org/2000/svg">
<path opacity="0.4" d="M1.25 12C1.25 17.9371 6.06294 22.75 12 22.75C17.9371 22.75 22.75 17.9371 22.75 12C22.75 6.06294 17.9371 1.25 12 1.25C6.06294 1.25 1.25 6.06294 1.25 12Z" fill="#020203"/>
<path fill-rule="evenodd" clip-rule="evenodd" d="M13.4687 8.469C13.7616 8.17611 14.2365 8.17611 14.5294 8.469L16.4687 10.4083C17.3474 11.287 17.3474 12.7116 16.4687 13.5903L14.5294 15.5297C14.2365 15.8226 13.7616 15.8226 13.4687 15.5297C13.1758 15.2368 13.1758 14.7619 13.4687 14.469L15.408 12.5297C15.7009 12.2368 15.7009 11.7619 15.408 11.469L13.4687 9.52966C13.1758 9.23677 13.1758 8.76189 13.4687 8.469Z" fill="#020203"/>
<path fill-rule="evenodd" clip-rule="evenodd" d="M10.5291 8.469C10.822 8.76189 10.822 9.23677 10.5291 9.52966L8.58979 11.469C8.29689 11.7619 8.29689 12.2368 8.58979 12.5297L10.5291 14.469C10.822 14.7619 10.822 15.2368 10.5291 15.5297C10.2362 15.8226 9.76136 15.8226 9.46847 15.5297L7.52913 13.5903C6.65045 12.7116 6.65045 11.287 7.52913 10.4083L9.46847 8.469C9.76136 8.17611 10.2362 8.17611 10.5291 8.469Z" fill="#020203"/>
</svg>
