<svg width="24" height="24" viewBox="0 0 24 24" fill="none" xmlns="http://www.w3.org/2000/svg">
<path opacity="0.4" d="M6.01281 4.19816C6.00433 4.29756 6 4.39815 6 4.49974C6 6.43274 7.567 7.99974 9.5 7.99974H14.5C16.433 7.99974 18 6.43274 18 4.49974C18 4.39815 17.9957 4.29756 17.9872 4.19816C19.0665 4.88983 19.9061 5.91609 20.3654 7.1365C20.75 8.15826 20.75 9.43884 20.75 12V14C20.75 16.5612 20.75 17.8417 20.3654 18.8635C19.7568 20.4806 18.4806 21.7568 16.8635 22.3654C15.8417 22.75 14.5612 22.75 12 22.75C9.43884 22.75 8.15826 22.75 7.1365 22.3654C5.51941 21.7568 4.24319 20.4806 3.63456 18.8635C3.25 17.8417 3.25 16.5612 3.25 14V12C3.25 9.43884 3.25 8.15826 3.63456 7.1365C4.09389 5.91609 4.93345 4.88983 6.01281 4.19816Z" fill="#020203"/>
<path fill-rule="evenodd" clip-rule="evenodd" d="M14.5303 11.4697C14.8232 11.7626 14.8232 12.2374 14.5303 12.5303L10.5303 16.5303C10.2374 16.8232 9.76256 16.8232 9.46967 16.5303C9.17678 16.2374 9.17678 15.7626 9.46967 15.4697L13.4697 11.4697C13.7626 11.1768 14.2374 11.1768 14.5303 11.4697Z" fill="#020203"/>
<path fill-rule="evenodd" clip-rule="evenodd" d="M9.46967 11.4697C9.76256 11.1768 10.2374 11.1768 10.5303 11.4697L14.5303 15.4697C14.8232 15.7626 14.8232 16.2374 14.5303 16.5303C14.2374 16.8232 13.7626 16.8232 13.4697 16.5303L9.46967 12.5303C9.17678 12.2374 9.17678 11.7626 9.46967 11.4697Z" fill="#020203"/>
<path d="M7.25 4C7.25 2.48122 8.48122 1.25 10 1.25H14C15.5188 1.25 16.75 2.48122 16.75 4C16.75 5.51878 15.5188 6.75 14 6.75H10C8.48122 6.75 7.25 5.51878 7.25 4Z" fill="#020203"/>
</svg>
