<svg width="24" height="24" viewBox="0 0 24 24" fill="none" xmlns="http://www.w3.org/2000/svg">
<path fill-rule="evenodd" clip-rule="evenodd" d="M6 4.49974C6 4.39815 6.00433 4.29756 6.01281 4.19816C4.93345 4.88983 4.09389 5.91609 3.63456 7.1365C3.25 8.15826 3.25 9.43884 3.25 12V14C3.25 16.5612 3.25 17.8417 3.63456 18.8635C4.24319 20.4806 5.51941 21.7568 7.1365 22.3654C8.15826 22.75 9.43884 22.75 12 22.75C14.5612 22.75 15.8417 22.75 16.8635 22.3654C18.4806 21.7568 19.7568 20.4806 20.3654 18.8635C20.75 17.8417 20.75 16.5612 20.75 14V12C20.75 9.43884 20.75 8.15826 20.3654 7.1365C19.9061 5.91609 19.0665 4.88983 17.9872 4.19816C17.9957 4.29756 18 4.39815 18 4.49974C18 6.43274 16.433 7.99974 14.5 7.99974H9.5C7.567 7.99974 6 6.43274 6 4.49974ZM15.5857 12.4684C15.8444 12.145 15.792 11.673 15.4685 11.4143C15.1451 11.1555 14.6731 11.2079 14.4143 11.5314L11.6958 14.9295C11.3787 15.3259 10.7677 15.2994 10.4861 14.877L9.62404 13.5839C9.39427 13.2392 8.92862 13.1461 8.58397 13.3759C8.23933 13.6056 8.1462 14.0713 8.37596 14.4159L9.23807 15.7091C10.0828 16.9762 11.9158 17.0557 12.8671 15.8666L15.5857 12.4684Z" fill="#020203"/>
<path d="M7.25 4C7.25 2.48122 8.48122 1.25 10 1.25H14C15.5188 1.25 16.75 2.48122 16.75 4C16.75 5.51878 15.5188 6.75 14 6.75H10C8.48122 6.75 7.25 5.51878 7.25 4Z" fill="#020203"/>
</svg>
