<svg width="24" height="24" viewBox="0 0 24 24" fill="none" xmlns="http://www.w3.org/2000/svg">
<path d="M6 4.49983C6 4.39823 6.00433 4.29764 6.01281 4.19824C4.93345 4.88992 4.09389 5.91617 3.63456 7.13658C3.25 8.15835 3.25 9.43892 3.25 12.0001V14.0001C3.25 16.5612 3.25 17.8418 3.63456 18.8636C4.24319 20.4807 5.51941 21.7569 7.1365 22.3655C8.15826 22.7501 9.43884 22.7501 12 22.7501C14.5612 22.7501 15.8417 22.7501 16.8635 22.3655C16.9669 22.3266 17.0689 22.285 17.1695 22.2407C14.1476 22.0694 11.75 19.5647 11.75 16.5C11.75 13.3244 14.3244 10.75 17.5 10.75C18.7061 10.75 19.8254 11.1213 20.75 11.7559C20.7496 9.35648 20.7376 8.12535 20.3654 7.13658C19.9061 5.91617 19.0665 4.88992 17.9872 4.19824C17.9957 4.29764 18 4.39823 18 4.49983C18 6.43282 16.433 7.99983 14.5 7.99983H9.5C7.567 7.99983 6 6.43282 6 4.49983Z" fill="#020203"/>
<path d="M7.25 4C7.25 2.48122 8.48122 1.25 10 1.25H14C15.5188 1.25 16.75 2.48122 16.75 4C16.75 5.51878 15.5188 6.75 14 6.75H10C8.48122 6.75 7.25 5.51878 7.25 4Z" fill="#020203"/>
<path fill-rule="evenodd" clip-rule="evenodd" d="M17.5 21C15.0147 21 13 18.9853 13 16.5C13 14.0147 15.0147 12 17.5 12C19.9853 12 22 14.0147 22 16.5C22 18.9853 19.9853 21 17.5 21ZM19.7803 16.2901C20.0732 15.9972 20.0732 15.5223 19.7803 15.2294C19.4874 14.9365 19.0126 14.9365 18.7197 15.2294L17.6036 16.3456C17.4083 16.5408 17.0917 16.5408 16.8964 16.3456L16.2803 15.7294C15.9874 15.4365 15.5126 15.4365 15.2197 15.7294C14.9268 16.0223 14.9268 16.4972 15.2197 16.7901L15.8358 17.4062C16.6168 18.1873 17.8832 18.1873 18.6642 17.4062L19.7803 16.2901Z" fill="#020203"/>
</svg>
