<svg width="24" height="24" viewBox="0 0 24 24" fill="none" xmlns="http://www.w3.org/2000/svg">
<path d="M15 2.02832C16.4143 2.07724 17.3629 2.21034 18.1677 2.57255C19.616 3.22438 20.7755 4.38391 21.4273 5.83222C22 7.10459 22 8.73636 22 11.9999C22 15.2634 22 16.8952 21.4273 18.1676C20.7755 19.6159 19.616 20.7754 18.1677 21.4272C17.3629 21.7895 16.4143 21.9226 15 21.9715" stroke="#020203" stroke-width="1.5" stroke-linecap="round"/>
<path d="M9 2.02832C7.58568 2.07724 6.63711 2.21034 5.83232 2.57255C4.38401 3.22438 3.22448 4.38391 2.57265 5.83222C2 7.10459 2 8.73636 2 11.9999C2 15.2634 2 16.8952 2.57265 18.1676C3.22448 19.6159 4.38401 20.7754 5.83232 21.4272C6.63711 21.7895 7.58569 21.9226 9.00003 21.9715" stroke="#020203" stroke-width="1.5" stroke-linecap="round"/>
<path d="M7 17.5L7 21.5" stroke="#020203" stroke-width="1.5" stroke-linecap="round"/>
<path d="M7 2.5L7 6.5" stroke="#020203" stroke-width="1.5" stroke-linecap="round"/>
<path d="M17 17.5L17 21.5" stroke="#020203" stroke-width="1.5" stroke-linecap="round"/>
<path d="M17 2.5L17 6.5" stroke="#020203" stroke-width="1.5" stroke-linecap="round"/>
<path d="M12 3.5V4.5" stroke="#020203" stroke-width="1.5" stroke-linecap="round"/>
<path d="M12 7.5V8.5" stroke="#020203" stroke-width="1.5" stroke-linecap="round"/>
<path d="M12 11.5V12.5" stroke="#020203" stroke-width="1.5" stroke-linecap="round"/>
<path d="M12 15.5V16.5" stroke="#020203" stroke-width="1.5" stroke-linecap="round"/>
<path d="M12 19.5V20.5" stroke="#020203" stroke-width="1.5" stroke-linecap="round"/>
<path d="M3 7L9 7" stroke="#020203" stroke-width="1.5" stroke-linecap="round"/>
<path d="M15 7L21 7" stroke="#020203" stroke-width="1.5" stroke-linecap="round"/>
<path d="M3 17H9" stroke="#020203" stroke-width="1.5" stroke-linecap="round"/>
<path d="M15 17L21 17" stroke="#020203" stroke-width="1.5" stroke-linecap="round"/>
</svg>
