<svg width="24" height="24" viewBox="0 0 24 24" fill="none" xmlns="http://www.w3.org/2000/svg">
<path opacity="0.4" d="M12 1.25C13.8729 1.25 15.208 1.25 16.25 1.34757V6.25H15C14.5858 6.25 14.25 6.58579 14.25 7C14.25 7.41421 14.5858 7.75 15 7.75H22.6524C22.75 8.79205 22.75 10.1271 22.75 12C22.75 13.8729 22.75 15.208 22.6524 16.25H17L15 16.25C14.5858 16.25 14.25 16.5858 14.25 17C14.25 17.4142 14.5858 17.75 15 17.75H16.25V22.6524C15.208 22.75 13.8729 22.75 12 22.75C10.1271 22.75 8.79205 22.75 7.75 22.6524V17.75H9C9.41421 17.75 9.75 17.4142 9.75 17C9.75 16.5858 9.41421 16.25 9 16.25L7 16.25L1.34757 16.25C1.25 15.208 1.25 13.8729 1.25 12C1.25 10.1271 1.25 8.79205 1.34757 7.75H9C9.41421 7.75 9.75 7.41421 9.75 7C9.75 6.58579 9.41421 6.25 9 6.25H7.75V1.34757C8.79205 1.25 10.1271 1.25 12 1.25Z" fill="#020203"/>
<path d="M6.24999 22.3849V17.75H1.61505C1.6594 17.8996 1.70913 18.0435 1.76491 18.1835C2.50184 20.0331 3.96694 21.4982 5.81649 22.2351C5.95647 22.2909 6.10043 22.3406 6.24999 22.3849Z" fill="#020203"/>
<path d="M17.75 22.3849C17.8996 22.3406 18.0435 22.2909 18.1835 22.2351C20.0331 21.4982 21.4982 20.0331 22.2351 18.1835C22.2909 18.0435 22.3406 17.8996 22.3849 17.75H17.75V22.3849Z" fill="#020203"/>
<path d="M22.3849 6.25H17.75V1.61506C17.8996 1.65941 18.0435 1.70914 18.1835 1.76492C20.0331 2.50185 21.4982 3.96695 22.2351 5.8165C22.2909 5.95649 22.3406 6.10044 22.3849 6.25Z" fill="#020203"/>
<path d="M5.81649 1.76492C5.95647 1.70914 6.10043 1.65941 6.24999 1.61506V6.25H1.61505C1.6594 6.10044 1.70913 5.95649 1.76491 5.8165C2.50184 3.96695 3.96694 2.50185 5.81649 1.76492Z" fill="#020203"/>
<path d="M12.75 1.25026V2.5C12.75 2.91421 12.4142 3.25 12 3.25C11.5858 3.25 11.25 2.91421 11.25 2.5V1.25026C11.4901 1.25 11.7398 1.25 12 1.25C12.2602 1.25 12.5099 1.25 12.75 1.25026Z" fill="#020203"/>
<path fill-rule="evenodd" clip-rule="evenodd" d="M12 4.75C12.4142 4.75 12.75 5.08579 12.75 5.5V6.5C12.75 6.91421 12.4142 7.25 12 7.25C11.5858 7.25 11.25 6.91421 11.25 6.5V5.5C11.25 5.08579 11.5858 4.75 12 4.75Z" fill="#020203"/>
<path fill-rule="evenodd" clip-rule="evenodd" d="M12 8.75C12.4142 8.75 12.75 9.08579 12.75 9.5V10.5C12.75 10.9142 12.4142 11.25 12 11.25C11.5858 11.25 11.25 10.9142 11.25 10.5V9.5C11.25 9.08579 11.5858 8.75 12 8.75Z" fill="#020203"/>
<path fill-rule="evenodd" clip-rule="evenodd" d="M12 12.75C12.4142 12.75 12.75 13.0858 12.75 13.5V14.5C12.75 14.9142 12.4142 15.25 12 15.25C11.5858 15.25 11.25 14.9142 11.25 14.5V13.5C11.25 13.0858 11.5858 12.75 12 12.75Z" fill="#020203"/>
<path fill-rule="evenodd" clip-rule="evenodd" d="M12 16.75C12.4142 16.75 12.75 17.0858 12.75 17.5V18.5C12.75 18.9142 12.4142 19.25 12 19.25C11.5858 19.25 11.25 18.9142 11.25 18.5V17.5C11.25 17.0858 11.5858 16.75 12 16.75Z" fill="#020203"/>
<path d="M12.75 22.7497C12.5099 22.75 12.2602 22.75 12 22.75C11.7398 22.75 11.4901 22.75 11.25 22.7497V21.5C11.25 21.0858 11.5858 20.75 12 20.75C12.4142 20.75 12.75 21.0858 12.75 21.5V22.7497Z" fill="#020203"/>
</svg>
