<svg width="24" height="24" viewBox="0 0 24 24" fill="none" xmlns="http://www.w3.org/2000/svg">
<g opacity="0.4">
<path d="M5.81651 1.76492C5.9565 1.70914 6.10045 1.65941 6.25002 1.61506V6.29268C6.17182 6.26504 6.08767 6.25 6.00002 6.25H1.61507C1.65942 6.10044 1.70916 5.95649 1.76493 5.8165C2.50186 3.96695 3.96696 2.50185 5.81651 1.76492Z" fill="#020203"/>
<path d="M6.00002 7.75C6.08767 7.75 6.17182 7.73496 6.25002 7.70732V11.25H1.25027C1.2519 9.76185 1.26357 8.6473 1.34759 7.75H6.00002Z" fill="#020203"/>
<path d="M1.25027 12.75H6.25002V16.2927C6.17182 16.265 6.08767 16.25 6.00002 16.25H1.34759C1.26357 15.3527 1.2519 14.2382 1.25027 12.75Z" fill="#020203"/>
<path d="M6.00002 17.75C6.08767 17.75 6.17182 17.735 6.25002 17.7073V22.3849C6.10045 22.3406 5.9565 22.2909 5.81651 22.2351C3.96696 21.4982 2.50186 20.0331 1.76493 18.1835C1.70916 18.0435 1.65942 17.8996 1.61507 17.75H6.00002Z" fill="#020203"/>
</g>
<path d="M16.25 1.34757C15.208 1.25 13.8729 1.25 12 1.25C10.1271 1.25 8.79205 1.25 7.75 1.34757V11.25H16.25V1.34757Z" fill="#020203"/>
<path d="M16.25 12.75H7.75V22.6524C8.79205 22.75 10.1271 22.75 12 22.75C13.8729 22.75 15.208 22.75 16.25 22.6524V12.75Z" fill="#020203"/>
<g opacity="0.4">
<path d="M17.75 22.3849C17.8996 22.3406 18.0435 22.2909 18.1835 22.2351C20.033 21.4982 21.4982 20.0331 22.2351 18.1835C22.2909 18.0435 22.3406 17.8996 22.3849 17.75H18C17.9123 17.75 17.8282 17.735 17.75 17.7073V22.3849Z" fill="#020203"/>
<path d="M17.75 16.2927V12.75H22.7497C22.7481 14.2382 22.7364 15.3527 22.6524 16.25H18C17.9123 16.25 17.8282 16.265 17.75 16.2927Z" fill="#020203"/>
<path d="M17.75 11.25V7.70732C17.8282 7.73496 17.9123 7.75 18 7.75H22.6524C22.7364 8.6473 22.7481 9.76185 22.7497 11.25H17.75Z" fill="#020203"/>
<path d="M17.75 6.29268C17.8282 6.26504 17.9123 6.25 18 6.25H22.3849C22.3406 6.10044 22.2909 5.95649 22.2351 5.8165C21.4982 3.96695 20.033 2.50185 18.1835 1.76492C18.0435 1.70914 17.8996 1.65941 17.75 1.61506V6.29268Z" fill="#020203"/>
</g>
</svg>
