<svg width="24" height="24" viewBox="0 0 24 24" fill="none" xmlns="http://www.w3.org/2000/svg">
<path opacity="0.4" d="M8 4.17871C7.6869 4.24093 7.4095 4.32476 7.15057 4.43773C5.93661 4.96738 4.96769 5.93629 4.43805 7.15025C4 8.15427 4 9.43607 4 11.9997V13.9997C4 16.5633 4 17.8451 4.43805 18.8491C4.96769 20.0631 5.93661 21.032 7.15057 21.5616C8.15458 21.9997 9.43639 21.9997 12 21.9997C14.5636 21.9997 15.8454 21.9997 16.8494 21.5616C18.0634 21.032 19.0323 20.0631 19.562 18.8491C20 17.8451 20 16.5633 20 13.9997V11.9997C20 9.43607 20 8.15427 19.562 7.15025C19.0323 5.93629 18.0634 4.96738 16.8494 4.43773C16.5905 4.32476 16.3131 4.24093 16 4.17871" stroke="#020203" stroke-width="1.5" stroke-linecap="round"/>
<path d="M14 11.5L10 15.5" stroke="#020203" stroke-width="1.5" stroke-linecap="round" stroke-linejoin="round"/>
<path d="M10 11.5L14 15.5" stroke="#020203" stroke-width="1.5" stroke-linecap="round" stroke-linejoin="round"/>
<path d="M8 4C8 2.89543 8.89543 2 10 2H14C15.1046 2 16 2.89543 16 4C16 5.10457 15.1046 6 14 6H10C8.89543 6 8 5.10457 8 4Z" stroke="#020203" stroke-width="1.5"/>
</svg>
