<svg width="24" height="24" viewBox="0 0 24 24" fill="none" xmlns="http://www.w3.org/2000/svg">
<path fill-rule="evenodd" clip-rule="evenodd" d="M6.01281 4.19824C6.00433 4.29764 6 4.39823 6 4.49983C6 6.43282 7.567 7.99983 9.5 7.99983H14.5C16.433 7.99983 18 6.43282 18 4.49983C18 4.39823 17.9957 4.29764 17.9872 4.19824C19.0665 4.88992 19.9061 5.91617 20.3654 7.13658C20.75 8.15835 20.75 9.43892 20.75 12.0001V14.0001C20.75 16.5612 20.75 17.8418 20.3654 18.8636C19.7568 20.4807 18.4806 21.7569 16.8635 22.3655C15.8417 22.7501 14.5612 22.7501 12 22.7501C9.43884 22.7501 8.15826 22.7501 7.1365 22.3655C5.51941 21.7569 4.24319 20.4807 3.63456 18.8636C3.25 17.8418 3.25 16.5612 3.25 14.0001V12.0001C3.25 9.43892 3.25 8.15835 3.63456 7.13658C4.09389 5.91617 4.93345 4.88992 6.01281 4.19824ZM12 11.75C12.4142 11.75 12.75 12.0858 12.75 12.5V13.75H14C14.4142 13.75 14.75 14.0858 14.75 14.5C14.75 14.9142 14.4142 15.25 14 15.25H12.75V16.5C12.75 16.9142 12.4142 17.25 12 17.25C11.5858 17.25 11.25 16.9142 11.25 16.5V15.25H10C9.58579 15.25 9.25 14.9142 9.25 14.5C9.25 14.0858 9.58579 13.75 10 13.75H11.25V12.5C11.25 12.0858 11.5858 11.75 12 11.75Z" fill="#020203"/>
<path d="M7.25 4C7.25 2.48122 8.48122 1.25 10 1.25H14C15.5188 1.25 16.75 2.48122 16.75 4C16.75 5.51878 15.5188 6.75 14 6.75H10C8.48122 6.75 7.25 5.51878 7.25 4Z" fill="#020203"/>
</svg>
