<svg width="24" height="24" viewBox="0 0 24 24" fill="none" xmlns="http://www.w3.org/2000/svg">
<path opacity="0.4" d="M6.01281 4.19816C6.00433 4.29756 6 4.39815 6 4.49974C6 6.43274 7.567 7.99974 9.5 7.99974H14.5C16.433 7.99974 18 6.43274 18 4.49974C18 4.39815 17.9957 4.29756 17.9872 4.19816C19.0665 4.88983 19.9061 5.91609 20.3654 7.1365C20.75 8.15826 20.75 9.43884 20.75 12V14C20.75 16.5612 20.75 17.8417 20.3654 18.8635C19.7568 20.4806 18.4806 21.7568 16.8635 22.3654C15.8417 22.75 14.5612 22.75 12 22.75C9.43884 22.75 8.15826 22.75 7.1365 22.3654C5.51941 21.7568 4.24319 20.4806 3.63456 18.8635C3.25 17.8417 3.25 16.5612 3.25 14V12C3.25 9.43884 3.25 8.15826 3.63456 7.1365C4.09389 5.91609 4.93345 4.88983 6.01281 4.19816Z" fill="#020203"/>
<path fill-rule="evenodd" clip-rule="evenodd" d="M8.25 12.2002C8.25 11.786 8.58579 11.4502 9 11.4502H15C15.4142 11.4502 15.75 11.786 15.75 12.2002C15.75 12.6144 15.4142 12.9502 15 12.9502H9C8.58579 12.9502 8.25 12.6144 8.25 12.2002Z" fill="#020203"/>
<path fill-rule="evenodd" clip-rule="evenodd" d="M8.25 16.2002C8.25 15.786 8.58579 15.4502 9 15.4502H12.9999C13.4141 15.4502 13.7499 15.786 13.7499 16.2002C13.7499 16.6144 13.4141 16.9502 12.9999 16.9502H9C8.58579 16.9502 8.25 16.6144 8.25 16.2002Z" fill="#020203"/>
<path d="M7.25 4C7.25 2.48122 8.48122 1.25 10 1.25H14C15.5188 1.25 16.75 2.48122 16.75 4C16.75 5.51878 15.5188 6.75 14 6.75H10C8.48122 6.75 7.25 5.51878 7.25 4Z" fill="#020203"/>
</svg>
