<svg width="24" height="24" viewBox="0 0 24 24" fill="none" xmlns="http://www.w3.org/2000/svg">
<path d="M7 4.17871C6.6869 4.24093 6.4095 4.32476 6.15057 4.43773C4.93661 4.96738 3.96769 5.93629 3.43805 7.15025C3 8.15427 3 9.43607 3 11.9997V13.9997C3 16.5633 3 17.8451 3.43805 18.8491C3.96769 20.0631 4.93661 21.032 6.15057 21.5616C7.15458 21.9997 8.43639 21.9997 11 21.9997C13.5636 21.9997 14.8454 21.9997 15.8494 21.5616C16.1987 21.4092 16.5277 21.2205 16.8318 21" stroke="#020203" stroke-width="1.5" stroke-linecap="round"/>
<path d="M19 11.9997C19 9.43607 19 8.15427 18.562 7.15025C18.0323 5.93629 17.0634 4.96738 15.8494 4.43773C15.5905 4.32476 15.3131 4.24093 15 4.17871" stroke="#020203" stroke-width="1.5" stroke-linecap="round"/>
<path d="M7 4C7 2.89543 7.89543 2 9 2H13C14.1046 2 15 2.89543 15 4C15 5.10457 14.1046 6 13 6H9C7.89543 6 7 5.10457 7 4Z" stroke="#020203" stroke-width="1.5"/>
<path d="M13 16.5C13 18.9853 15.0147 21 17.5 21C19.9853 21 22 18.9853 22 16.5C22 14.0147 19.9853 12 17.5 12C15.0147 12 13 14.0147 13 16.5Z" stroke="#020203" stroke-width="1.5" stroke-linecap="round"/>
<path d="M15.75 16.26L16.3661 16.8761C16.8543 17.3643 17.6457 17.3643 18.1339 16.8761L19.25 15.76" stroke="#020203" stroke-width="1.5" stroke-linecap="round"/>
</svg>
