<svg width="24" height="24" viewBox="0 0 24 24" fill="none" xmlns="http://www.w3.org/2000/svg">
<path fill-rule="evenodd" clip-rule="evenodd" d="M12 22.75C6.06294 22.75 1.25 17.9371 1.25 12C1.25 6.06294 6.06294 1.25 12 1.25C17.9371 1.25 22.75 6.06294 22.75 12C22.75 17.9371 17.9371 22.75 12 22.75ZM12.25 8.5C12.25 8.08579 12.5858 7.75 13 7.75C13.4142 7.75 13.75 8.08579 13.75 8.5V11.1265C13.75 12.5362 13.1238 13.8731 12.0409 14.7756L10.4801 16.0762C10.1619 16.3413 9.68901 16.2983 9.42383 15.9801C9.15866 15.6619 9.20165 15.189 9.51986 14.9238L11.0806 13.6232C11.8216 13.0057 12.25 12.091 12.25 11.1265V8.5Z" fill="#020203"/>
</svg>
