<svg width="24" height="24" viewBox="0 0 24 24" fill="none" xmlns="http://www.w3.org/2000/svg">
<path opacity="0.4" d="M1.25 12C1.25 17.9371 6.06294 22.75 12 22.75C17.9371 22.75 22.75 17.9371 22.75 12C22.75 6.06294 17.9371 1.25 12 1.25C6.06294 1.25 1.25 6.06294 1.25 12Z" fill="#020203"/>
<path fill-rule="evenodd" clip-rule="evenodd" d="M12 7.75C12.4142 7.75 12.75 8.08579 12.75 8.5V11.1265C12.75 12.091 13.1784 13.0057 13.9194 13.6232L15.4801 14.9238C15.7983 15.189 15.8413 15.6619 15.5762 15.9801C15.311 16.2983 14.8381 16.3413 14.5199 16.0762L12.9591 14.7756C11.8762 13.8731 11.25 12.5362 11.25 11.1265V8.5C11.25 8.08579 11.5858 7.75 12 7.75Z" fill="#020203"/>
</svg>
