<svg width="24" height="24" viewBox="0 0 24 24" fill="none" xmlns="http://www.w3.org/2000/svg">
<path opacity="0.4" d="M1.25 12C1.25 17.9371 6.06294 22.75 12 22.75C17.9371 22.75 22.75 17.9371 22.75 12C22.75 6.06294 17.9371 1.25 12 1.25C6.06294 1.25 1.25 6.06294 1.25 12Z" fill="#020203"/>
<path fill-rule="evenodd" clip-rule="evenodd" d="M13 7.75C12.5858 7.75 12.25 8.08579 12.25 8.5V11.1265C12.25 12.091 11.8216 13.0057 11.0806 13.6232L9.51986 14.9238C9.20165 15.189 9.15866 15.6619 9.42383 15.9801C9.68901 16.2983 10.1619 16.3413 10.4801 16.0762L12.0409 14.7756C13.1238 13.8731 13.75 12.5362 13.75 11.1265V8.5C13.75 8.08579 13.4142 7.75 13 7.75Z" fill="#020203"/>
</svg>
