<svg width="24" height="24" viewBox="0 0 24 24" fill="none" xmlns="http://www.w3.org/2000/svg">
<path fill-rule="evenodd" clip-rule="evenodd" d="M12 22.75C6.06294 22.75 1.25 17.9371 1.25 12C1.25 6.06294 6.06294 1.25 12 1.25C17.9371 1.25 22.75 6.06294 22.75 12C22.75 17.9371 17.9371 22.75 12 22.75ZM12.75 8.5C12.75 8.08579 12.4142 7.75 12 7.75C11.5858 7.75 11.25 8.08579 11.25 8.5V11.1265C11.25 12.5362 11.8762 13.8731 12.9591 14.7756L14.5199 16.0762C14.8381 16.3413 15.311 16.2983 15.5762 15.9801C15.8413 15.6619 15.7983 15.189 15.4801 14.9238L13.9194 13.6232C13.1784 13.0057 12.75 12.091 12.75 11.1265V8.5Z" fill="#020203"/>
</svg>
