<svg width="24" height="24" viewBox="0 0 24 24" fill="none" xmlns="http://www.w3.org/2000/svg">
<path fill-rule="evenodd" clip-rule="evenodd" d="M12 5.25C11.3096 5.25 10.75 4.69036 10.75 4C10.75 3.30964 11.3096 2.75 12 2.75C12.6904 2.75 13.25 3.30964 13.25 4C13.25 4.69036 12.6904 5.25 12 5.25ZM9.25 4C9.25 5.51878 10.4812 6.75 12 6.75C13.5188 6.75 14.75 5.51878 14.75 4C14.75 2.48122 13.5188 1.25 12 1.25C10.4812 1.25 9.25 2.48122 9.25 4Z" fill="#020203"/>
<path fill-rule="evenodd" clip-rule="evenodd" d="M1.25 15.5C1.25 11.4959 4.49594 8.25 8.5 8.25H15.5C19.5041 8.25 22.75 11.4959 22.75 15.5C22.75 19.5041 19.5041 22.75 15.5 22.75H8.5C4.49593 22.75 1.25 19.5041 1.25 15.5ZM9.46967 12.9697C9.76256 12.6768 10.2374 12.6768 10.5303 12.9697L12 14.4393L13.4697 12.9697C13.7626 12.6768 14.2374 12.6768 14.5303 12.9697C14.8232 13.2626 14.8232 13.7374 14.5303 14.0303L13.0607 15.5L14.5303 16.9697C14.8232 17.2626 14.8232 17.7374 14.5303 18.0303C14.2374 18.3232 13.7626 18.3232 13.4697 18.0303L12 16.5607L10.5303 18.0303C10.2374 18.3232 9.76256 18.3232 9.46967 18.0303C9.17678 17.7374 9.17678 17.2626 9.46967 16.9697L10.9393 15.5L9.46967 14.0303C9.17678 13.7374 9.17678 13.2626 9.46967 12.9697Z" fill="#020203"/>
<path fill-rule="evenodd" clip-rule="evenodd" d="M11.0305 5.05461C11.4145 5.20977 11.6001 5.6469 11.4449 6.03095L9.94648 9.73968C9.79131 10.1237 9.35419 10.3093 8.97013 10.1541C8.58608 9.99895 8.40053 9.56183 8.5557 9.17777L10.0541 5.46904C10.2093 5.08499 10.6464 4.89944 11.0305 5.05461Z" fill="#020203"/>
<path fill-rule="evenodd" clip-rule="evenodd" d="M12.9691 5.05462C13.3531 4.89945 13.7902 5.085 13.9454 5.46905L15.4438 9.17778C15.599 9.56184 15.4135 9.99896 15.0294 10.1541C14.6454 10.3093 14.2082 10.1237 14.0531 9.73969L12.5546 6.03096C12.3995 5.64691 12.585 5.20978 12.9691 5.05462Z" fill="#020203"/>
</svg>
