<svg width="24" height="24" viewBox="0 0 24 24" fill="none" xmlns="http://www.w3.org/2000/svg">
<path fill-rule="evenodd" clip-rule="evenodd" d="M11.9998 1.25C12.414 1.25 12.7498 1.58579 12.7498 2V22C12.7498 22.4142 12.414 22.75 11.9998 22.75C11.5855 22.75 11.2498 22.4142 11.2498 22V2C11.2498 1.58579 11.5855 1.25 11.9998 1.25Z" fill="#020203"/>
<path opacity="0.4" fill-rule="evenodd" clip-rule="evenodd" d="M8.46943 9.46967C8.76232 9.17678 9.23719 9.17678 9.53009 9.46967L12.5301 12.4697C12.823 12.7626 12.823 13.2374 12.5301 13.5303C12.2372 13.8232 11.7623 13.8232 11.4694 13.5303L8.46943 10.5303C8.17653 10.2374 8.17653 9.76256 8.46943 9.46967Z" fill="#020203"/>
<path opacity="0.4" fill-rule="evenodd" clip-rule="evenodd" d="M15.5301 12.4697C15.823 12.7626 15.823 13.2374 15.5301 13.5303L12.5301 16.5303C12.2372 16.8232 11.7623 16.8232 11.4694 16.5303C11.1765 16.2374 11.1765 15.7626 11.4694 15.4697L14.4694 12.4697C14.7623 12.1768 15.2372 12.1768 15.5301 12.4697Z" fill="#020203"/>
<path opacity="0.4" fill-rule="evenodd" clip-rule="evenodd" d="M15.4497 4.4C15.7811 4.64853 15.8483 5.11863 15.5997 5.45L12.5997 9.45C12.3512 9.78137 11.8811 9.84853 11.5497 9.6C11.2184 9.35147 11.1512 8.88137 11.3997 8.55L14.3997 4.55C14.6483 4.21863 15.1184 4.15147 15.4497 4.4Z" fill="#020203"/>
<path fill-rule="evenodd" clip-rule="evenodd" d="M7.24976 22C7.24976 21.5858 7.58554 21.25 7.99976 21.25H15.9998C16.414 21.25 16.7498 21.5858 16.7498 22C16.7498 22.4142 16.414 22.75 15.9998 22.75H7.99976C7.58554 22.75 7.24976 22.4142 7.24976 22Z" fill="#020203"/>
</svg>
