<svg width="24" height="24" viewBox="0 0 24 24" fill="none" xmlns="http://www.w3.org/2000/svg">
<path d="M1.5 15.8926V16.2748C1.5 18.7464 3.47231 20.75 5.90527 20.75H18.0947C20.5277 20.75 22.5 18.7464 22.5 16.2748V15.8926C22.5 13.2077 20.1562 11.35 17.775 11.6654V11.15V10.6167C17.775 7.3766 15.1894 4.75 12 4.75C8.81056 4.75 6.225 7.3766 6.225 10.6167V11.15V11.6654C3.84376 11.35 1.5 13.2077 1.5 15.8926Z" fill="#020203"/>
<path d="M8.22625 3.83838C6.30149 4.7899 4.975 6.79591 4.975 9.11667V10.1654C4.1171 10.0518 3.26406 10.2202 2.52374 10.6078C1.88409 9.83057 1.5 8.83514 1.5 7.75C1.5 5.26472 3.51472 3.25 6 3.25C6.80986 3.25 7.56976 3.46394 8.22625 3.83838Z" fill="#020203"/>
</svg>
