<svg width="24" height="24" viewBox="0 0 24 24" fill="none" xmlns="http://www.w3.org/2000/svg">
<path opacity="0.4" d="M9.46487 5.75C8.77325 4.5544 7.48056 3.75 6 3.75C3.79086 3.75 2 5.54086 2 7.75C2 9.78981 3.52684 11.473 5.5 11.7191" stroke="#020203" stroke-width="1.5" stroke-linecap="round"/>
<path d="M8 12.25C5.34024 10.6985 2 12.617 2 15.6962V16.0545C2 18.3716 3.87839 20.25 6.19549 20.25H17.8045C20.1216 20.25 22 18.3716 22 16.0545V15.6962C22 12.617 18.6598 10.6985 16 12.25M6.5 11.25V10.75C6.5 7.71243 8.96243 5.25 12 5.25C15.0376 5.25 17.5 7.71243 17.5 10.75V11.25" stroke="#020203" stroke-width="1.5" stroke-linecap="round"/>
</svg>
