<svg width="24" height="24" viewBox="0 0 24 24" fill="none" xmlns="http://www.w3.org/2000/svg">
<path fill-rule="evenodd" clip-rule="evenodd" d="M16.4736 7.46966C16.7665 7.17677 17.2414 7.17678 17.5342 7.46968L19.7447 9.6802C20.0438 9.97934 20.2998 10.2353 20.493 10.4629C20.6964 10.7025 20.8739 10.9595 20.976 11.2738C21.1294 11.7458 21.1294 12.2542 20.976 12.7262C20.8739 13.0405 20.6964 13.2975 20.493 13.5371C20.2998 13.7647 20.0438 14.0207 19.7447 14.3198L17.5342 16.5303C17.2414 16.8232 16.7665 16.8232 16.4736 16.5303C16.1807 16.2375 16.1807 15.7626 16.4736 15.4697L18.6633 13.2799C18.9888 12.9543 19.2007 12.7416 19.3495 12.5663C19.4926 12.3977 19.5328 12.3137 19.5494 12.2627C19.6049 12.092 19.6049 11.908 19.5494 11.7373C19.5328 11.6863 19.4926 11.6023 19.3495 11.4337C19.2007 11.2584 18.9888 11.0457 18.6633 10.7201L16.4736 8.53032C16.1807 8.23742 16.1807 7.76254 16.4736 7.46966Z" fill="#020203"/>
<path fill-rule="evenodd" clip-rule="evenodd" d="M7.53422 16.5303C7.24132 16.8232 6.76645 16.8232 6.47356 16.5303L4.26315 14.3198C3.964 14.0207 3.70802 13.7647 3.5148 13.5371C3.31144 13.2975 3.13393 13.0405 3.03181 12.7262C2.87846 12.2542 2.87846 11.7458 3.03181 11.2738C3.13393 10.9595 3.31144 10.7025 3.5148 10.4629C3.70802 10.2353 3.964 9.97934 4.26314 9.6802L6.47356 7.46968C6.76645 7.17678 7.24132 7.17677 7.53422 7.46966C7.82712 7.76254 7.82713 8.23742 7.53425 8.53032L5.34454 10.7201C5.01899 11.0457 4.80713 11.2584 4.65833 11.4337C4.51521 11.6023 4.47497 11.6863 4.4584 11.7373C4.40293 11.908 4.40293 12.092 4.4584 12.2627C4.47497 12.3137 4.51521 12.3977 4.65833 12.5663C4.80713 12.7416 5.01899 12.9543 5.34454 13.2799L7.53425 15.4697C7.82713 15.7626 7.82712 16.2375 7.53422 16.5303Z" fill="#020203"/>
<path fill-rule="evenodd" clip-rule="evenodd" d="M13.1858 7.2724C13.5876 7.37286 13.832 7.78006 13.7315 8.1819L11.7315 16.1819C11.631 16.5837 11.2238 16.8281 10.822 16.7276C10.4202 16.6271 10.1758 16.2199 10.2763 15.8181L12.2763 7.8181C12.3768 7.41625 12.784 7.17193 13.1858 7.2724Z" fill="#020203"/>
</svg>
