<svg width="24" height="24" viewBox="0 0 24 24" fill="none" xmlns="http://www.w3.org/2000/svg">
<path fill-rule="evenodd" clip-rule="evenodd" d="M9.53589 6.46967C9.82878 6.76256 9.82878 7.23744 9.53589 7.53033L6.79863 10.2676C6.39386 10.6724 6.12259 10.9445 5.93047 11.1708C5.74403 11.3904 5.67657 11.5171 5.64516 11.6137C5.56359 11.8648 5.56359 12.1352 5.64516 12.3863C5.67657 12.4829 5.74403 12.6096 5.93047 12.8292C6.12259 13.0556 6.39386 13.3276 6.79863 13.7324L9.53589 16.4697C9.82878 16.7626 9.82878 17.2374 9.53589 17.5303C9.24299 17.8232 8.76812 17.8232 8.47523 17.5303L5.71644 14.7715C5.33873 14.3939 5.02347 14.0786 4.78696 13.8C4.54029 13.5094 4.33555 13.2098 4.21858 12.8498C4.03912 12.2975 4.03912 11.7025 4.21858 11.1502C4.33555 10.7902 4.54029 10.4906 4.78696 10.2C5.02347 9.9214 5.33873 9.60615 5.71645 9.22845L8.47523 6.46967C8.76812 6.17678 9.24299 6.17678 9.53589 6.46967Z" fill="#020203"/>
<path opacity="0.4" fill-rule="evenodd" clip-rule="evenodd" d="M14.475 6.46967C14.7679 6.17678 15.2428 6.17678 15.5357 6.46967L18.2945 9.22845C18.6722 9.60615 18.9875 9.9214 19.224 10.2C19.4706 10.4906 19.6754 10.7902 19.7923 11.1502C19.9718 11.7025 19.9718 12.2975 19.7923 12.8498C19.6754 13.2098 19.4706 13.5094 19.224 13.8C18.9875 14.0786 18.6722 14.3938 18.2945 14.7715L15.5357 17.5303C15.2428 17.8232 14.7679 17.8232 14.475 17.5303C14.1821 17.2374 14.1821 16.7626 14.475 16.4697L17.2123 13.7324C17.6171 13.3276 17.8883 13.0555 18.0805 12.8292C18.2669 12.6096 18.3344 12.4829 18.3658 12.3863C18.4473 12.1352 18.4473 11.8648 18.3658 11.6137C18.3344 11.5171 18.2669 11.3904 18.0805 11.1708C17.8883 10.9444 17.6171 10.6724 17.2123 10.2676L14.475 7.53033C14.1821 7.23744 14.1821 6.76256 14.475 6.46967Z" fill="#020203"/>
</svg>
