<svg width="24" height="24" viewBox="0 0 24 24" fill="none" xmlns="http://www.w3.org/2000/svg">
<path d="M18 9H19.1922C20.7429 9 22 10.2571 22 11.8078C22 13.0962 21.1231 14.2192 19.8732 14.5317L18 15" stroke="#020203" stroke-width="1.5" stroke-linecap="round"/>
<path d="M2 13V10.8182C2 8.70946 3.70946 7 5.81818 7H14.1818C16.2905 7 18 8.70946 18 10.8182V13C18 17.4183 14.4183 21 10 21C5.58172 21 2 17.4183 2 13Z" stroke="#020203" stroke-width="1.5" stroke-linecap="round"/>
<path d="M7 3L7 4" stroke="#020203" stroke-width="1.5" stroke-linecap="round"/>
<path d="M10 3L10 4" stroke="#020203" stroke-width="1.5" stroke-linecap="round"/>
<path d="M13 3L13 4" stroke="#020203" stroke-width="1.5" stroke-linecap="round"/>
</svg>
