<svg width="24" height="24" viewBox="0 0 24 24" fill="none" xmlns="http://www.w3.org/2000/svg">
<path fill-rule="evenodd" clip-rule="evenodd" d="M17.25 9C17.25 8.58579 17.5858 8.25 18 8.25H19.1922C21.1571 8.25 22.75 9.84287 22.75 11.8078C22.75 13.4403 21.6389 14.8634 20.0551 15.2593L18.1819 15.7276C17.78 15.8281 17.3728 15.5837 17.2724 15.1819C17.1719 14.7801 17.4162 14.3729 17.8181 14.2724L19.6913 13.8041C20.6074 13.5751 21.25 12.752 21.25 11.8078C21.25 10.6713 20.3287 9.75 19.1922 9.75H18C17.5858 9.75 17.25 9.41421 17.25 9Z" fill="#020203"/>
<path d="M1.25 13V10.7278C1.25 8.25477 3.25477 6.25 5.72778 6.25H14.2722C16.7452 6.25 18.75 8.25477 18.75 10.7278V13C18.75 17.8325 14.8325 21.75 10 21.75C5.16751 21.75 1.25 17.8325 1.25 13Z" fill="#020203"/>
<path fill-rule="evenodd" clip-rule="evenodd" d="M7 2.25C7.41421 2.25 7.75 2.58579 7.75 3L7.75 4C7.75 4.41421 7.41421 4.75 7 4.75C6.58579 4.75 6.25 4.41421 6.25 4L6.25 3C6.25 2.58579 6.58579 2.25 7 2.25Z" fill="#020203"/>
<path fill-rule="evenodd" clip-rule="evenodd" d="M10 2.25C10.4142 2.25 10.75 2.58579 10.75 3L10.75 4C10.75 4.41421 10.4142 4.75 10 4.75C9.58579 4.75 9.25 4.41421 9.25 4L9.25 3C9.25 2.58579 9.58579 2.25 10 2.25Z" fill="#020203"/>
<path fill-rule="evenodd" clip-rule="evenodd" d="M13 2.25C13.4142 2.25 13.75 2.58579 13.75 3L13.75 4C13.75 4.41421 13.4142 4.75 13 4.75C12.5858 4.75 12.25 4.41421 12.25 4L12.25 3C12.25 2.58579 12.5858 2.25 13 2.25Z" fill="#020203"/>
</svg>
