<svg width="24" height="24" viewBox="0 0 24 24" fill="none" xmlns="http://www.w3.org/2000/svg">
<path d="M2 14C2 18.4183 5.58172 22 10 22C14.4183 22 18 18.4183 18 14C18 9.58172 14.4183 6 10 6C5.58172 6 2 9.58172 2 14Z" stroke="#020203" stroke-width="1.5" stroke-linecap="round"/>
<path d="M12 11.4823C11.3028 9.25661 8.00004 9.65405 8.00004 11.8955C8.00004 12.746 8.4037 13.3341 8.80003 13.5885C9.25507 13.8905 9.50461 13.9461 10.2019 14.0257M8 16.5177C8.69724 18.7434 12 18.3459 12 16.1045C12 15.254 11.5963 14.6659 11.2 14.4115C10.7449 14.1095 10.4954 14.0539 9.79815 13.9743" stroke="#020203" stroke-width="1.5" stroke-linecap="round"/>
<path d="M10 18.5V19" stroke="#020203" stroke-width="1.5" stroke-linecap="round" stroke-linejoin="round"/>
<path d="M10 9V9.5" stroke="#020203" stroke-width="1.5" stroke-linecap="round" stroke-linejoin="round"/>
<path d="M7 6.50235C8.26456 3.8404 10.9778 2 14.1209 2C18.4724 2 22 5.5276 22 9.87912C22 13.0222 20.1596 15.7354 17.4976 17" stroke="#020203" stroke-width="1.5" stroke-linecap="round"/>
</svg>
