<svg width="24" height="24" viewBox="0 0 24 24" fill="none" xmlns="http://www.w3.org/2000/svg">
<path opacity="0.4" d="M1.25 14C1.25 18.8325 5.16751 22.75 10 22.75C14.8325 22.75 18.75 18.8325 18.75 14C18.75 9.16751 14.8325 5.25 10 5.25C5.16751 5.25 1.25 9.16751 1.25 14Z" fill="#020203"/>
<path fill-rule="evenodd" clip-rule="evenodd" d="M9.6558 9.2683C10.8657 9.13398 12.2429 9.74881 12.7157 11.258C12.8395 11.6533 12.6195 12.0741 12.2242 12.198C11.8289 12.3218 11.4081 12.1017 11.2843 11.7065C11.0599 10.9901 10.4371 10.6908 9.82131 10.7591C9.20606 10.8274 8.75004 11.2344 8.75004 11.8955C8.75004 12.5074 9.03752 12.8497 9.20511 12.9573L9.21485 12.9635L9.2148 12.9636C9.40236 13.0881 9.51056 13.1378 9.62463 13.1718C9.70094 13.1946 9.79013 13.2136 9.91694 13.233C10.0449 13.2477 10.1664 13.2627 10.2829 13.2801C10.2842 13.2803 10.2856 13.2804 10.2869 13.2806C10.3089 13.2831 10.3305 13.2865 10.3517 13.2908C10.5105 13.3165 10.6602 13.3478 10.8044 13.3908C11.1015 13.4795 11.3446 13.6077 11.6103 13.7837C12.233 14.1862 12.75 15.0185 12.75 16.1045C12.75 17.6848 11.5546 18.5973 10.3442 18.7317C9.13429 18.866 7.75711 18.2512 7.2843 16.742C7.16047 16.3467 7.38052 15.9259 7.77579 15.802C8.17106 15.6782 8.59187 15.8983 8.7157 16.2935C8.94014 17.0099 9.56293 17.3092 10.1787 17.2409C10.7939 17.1726 11.25 16.7656 11.25 16.1045C11.25 15.4926 10.9625 15.1503 10.7949 15.0427L10.7852 15.0365L10.7852 15.0364C10.5976 14.9119 10.4894 14.8622 10.3754 14.8282C10.2991 14.8054 10.2099 14.7865 10.0831 14.767C9.9551 14.7523 9.83358 14.7373 9.7171 14.7199C9.71576 14.7197 9.71442 14.7196 9.71308 14.7194C9.69115 14.7169 9.66955 14.7135 9.64832 14.7092C9.48948 14.6835 9.33981 14.6522 9.1956 14.6092C8.89847 14.5205 8.65543 14.3923 8.38967 14.2163C7.76696 13.8138 7.25004 12.9815 7.25004 11.8955C7.25004 10.3152 8.44538 9.40268 9.6558 9.2683Z" fill="#020203"/>
<path fill-rule="evenodd" clip-rule="evenodd" d="M10 17.75C10.4142 17.75 10.75 18.0858 10.75 18.5V19C10.75 19.4142 10.4142 19.75 10 19.75C9.58579 19.75 9.25 19.4142 9.25 19V18.5C9.25 18.0858 9.58579 17.75 10 17.75Z" fill="#020203"/>
<path fill-rule="evenodd" clip-rule="evenodd" d="M10 8.25C10.4142 8.25 10.75 8.58579 10.75 9V9.5C10.75 9.91421 10.4142 10.25 10 10.25C9.58579 10.25 9.25 9.91421 9.25 9.5V9C9.25 8.58579 9.58579 8.25 10 8.25Z" fill="#020203"/>
<path d="M7.30342 4.36779C8.16128 4.12814 9.06567 4 10 4C15.5228 4 20 8.47715 20 14C20 14.9343 19.8719 15.8387 19.6322 16.6966C21.5386 15.0915 22.75 12.6872 22.75 10C22.75 5.16751 18.8325 1.25 14 1.25C11.3128 1.25 8.90851 2.46136 7.30342 4.36779Z" fill="#020203"/>
</svg>
