<svg width="24" height="24" viewBox="0 0 24 24" fill="none" xmlns="http://www.w3.org/2000/svg">
<path d="M6 8C6 11.3137 8.68629 14 12 14C15.3137 14 18 11.3137 18 8C18 4.68629 15.3137 2 12 2C8.68629 2 6 4.68629 6 8Z" stroke="#020203" stroke-width="1.5" stroke-linecap="round"/>
<path d="M18 10.3414C20.3304 11.1651 22 13.3876 22 16C22 19.3137 19.3137 22 16 22C12.6863 22 10 19.3137 10 16C10 15.2987 10.1203 14.6255 10.3414 14" stroke="#020203" stroke-width="1.5" stroke-linecap="round"/>
<path d="M6 10.3414C3.66962 11.1651 2 13.3876 2 16C2 19.3137 4.68629 22 8 22C9.39104 22 10.6715 21.5266 11.6891 20.7322" stroke="#020203" stroke-width="1.5" stroke-linecap="round"/>
</svg>
