<svg width="24" height="24" viewBox="0 0 24 24" fill="none" xmlns="http://www.w3.org/2000/svg">
<path d="M5 8.5C5 12.0899 7.91015 15 11.5 15C15.0899 15 18 12.0899 18 8.5C18 4.91015 15.0899 2 11.5 2C7.91015 2 5 4.91015 5 8.5Z" fill="#020203"/>
<path opacity="0.4" d="M4.09719 10.8016C5.0772 13.9585 8.02088 16.251 11.5 16.251C12.5601 16.251 13.5706 16.0381 14.4909 15.6528C14.4969 15.7678 14.5 15.8835 14.5 16C14.5 19.5899 11.5899 22.5 8 22.5C4.41015 22.5 1.5 19.5899 1.5 16C1.5 13.8747 2.52001 11.9876 4.09719 10.8016Z" fill="#020203"/>
<path opacity="0.4" d="M15.687 15.0232C17.357 13.949 18.5876 12.251 19.0498 10.2584C21.1025 11.351 22.5 13.5123 22.5 16C22.5 19.5898 19.5899 22.5 16 22.5C14.9289 22.5 13.9182 22.2409 13.0273 21.7819C14.6904 20.4063 15.7501 18.3269 15.7501 16C15.7501 15.6689 15.7286 15.3429 15.687 15.0232Z" fill="#020203"/>
</svg>
