<svg width="24" height="24" viewBox="0 0 24 24" fill="none" xmlns="http://www.w3.org/2000/svg">
<path opacity="0.4" d="M1.25 6C1.25 3.37665 3.37665 1.25 6 1.25C8.62335 1.25 10.75 3.37665 10.75 6V18C10.75 20.6234 8.62335 22.75 6 22.75C3.37665 22.75 1.25 20.6234 1.25 18V6Z" fill="#020203"/>
<path fill-rule="evenodd" clip-rule="evenodd" d="M4.99451 17.5C4.99451 16.9477 5.44222 16.5 5.99451 16.5H6.00349C6.55577 16.5 7.00349 16.9477 7.00349 17.5C7.00349 18.0523 6.55577 18.5 6.00349 18.5H5.99451C5.44222 18.5 4.99451 18.0523 4.99451 17.5Z" fill="#020203"/>
<path d="M11.951 18.6844L17.9088 12.7267C19.7638 10.8717 19.7638 7.86414 17.9088 6.00915C16.2927 4.39308 13.8019 4.18493 11.9605 5.38469C11.9866 5.58611 12 5.79149 12 6V18C12 18.2324 11.9833 18.4609 11.951 18.6844Z" fill="#020203"/>
<path d="M10.3588 22.75H18C20.6234 22.75 22.75 20.6233 22.75 18C22.75 15.9252 21.4198 14.1611 19.5656 13.5141C19.4417 13.6748 19.3061 13.8293 19.1588 13.9767L10.6735 22.4619C10.5719 22.5635 10.4669 22.6595 10.3588 22.75Z" fill="#020203"/>
</svg>
