<svg width="24" height="24" viewBox="0 0 24 24" fill="none" xmlns="http://www.w3.org/2000/svg">
<path opacity="0.4" d="M16.4604 6.17679C17.5344 5.10285 19.2756 5.10285 20.3495 6.17679C21.4234 7.25074 21.4234 8.99194 20.3495 10.0659L9.03579 21.3796C7.96185 22.4535 6.22065 22.4535 5.1467 21.3796C4.07276 20.3056 4.07276 18.5644 5.1467 17.4905L16.4604 6.17679Z" fill="#020203"/>
<path fill-rule="evenodd" clip-rule="evenodd" d="M2.33228 10.0522C2.62517 9.7593 3.10005 9.7593 3.39294 10.0522L6.57492 13.2342C6.86781 13.5271 6.86781 14.0019 6.57492 14.2948C6.28203 14.5877 5.80715 14.5877 5.51426 14.2948L2.33228 11.1128C2.03939 10.82 2.03939 10.3451 2.33228 10.0522Z" fill="#020203"/>
<path fill-rule="evenodd" clip-rule="evenodd" d="M4.50403 7.88007C4.79693 7.58718 5.2718 7.58718 5.56469 7.88007L8.74667 11.0621C9.03957 11.3549 9.03957 11.8298 8.74667 12.1227C8.45378 12.4156 7.97891 12.4156 7.68601 12.1227L4.50403 8.94073C4.21114 8.64784 4.21114 8.17296 4.50403 7.88007Z" fill="#020203"/>
<path fill-rule="evenodd" clip-rule="evenodd" d="M8.84729 3.53681C9.14019 3.24392 9.61506 3.24392 9.90795 3.53681L13.0899 6.71879C13.3828 7.01168 13.3828 7.48656 13.0899 7.77945C12.797 8.07234 12.3222 8.07234 12.0293 7.77945L8.84729 4.59747C8.5544 4.30458 8.5544 3.8297 8.84729 3.53681Z" fill="#020203"/>
<path fill-rule="evenodd" clip-rule="evenodd" d="M11.09 1.29413C11.3829 1.00124 11.8577 1.00124 12.1506 1.29413L15.3326 4.47611C15.6255 4.76901 15.6255 5.24388 15.3326 5.53677C15.0397 5.82967 14.5648 5.82967 14.272 5.53677L11.09 2.35479C10.7971 2.0619 10.7971 1.58703 11.09 1.29413Z" fill="#020203"/>
<path fill-rule="evenodd" clip-rule="evenodd" d="M6.67536 5.70868C6.96825 5.41579 7.44313 5.41579 7.73602 5.70868L10.918 8.89066C11.2109 9.18356 11.2109 9.65843 10.918 9.95132C10.6251 10.2442 10.1502 10.2442 9.85734 9.95132L6.67536 6.76934C6.38247 6.47645 6.38247 6.00158 6.67536 5.70868Z" fill="#020203"/>
</svg>
