<svg width="24" height="24" viewBox="0 0 24 24" fill="none" xmlns="http://www.w3.org/2000/svg">
<path d="M2 11.5C2 9.17293 2 8.0094 2.31842 7.07136C2.91801 5.30502 4.30502 3.91801 6.07136 3.31842C7.0094 3 8.17293 3 10.5 3H13.5C15.8271 3 16.9906 3 17.9286 3.31842C19.695 3.91801 21.082 5.30502 21.6816 7.07136C22 8.0094 22 9.17293 22 11.5C22 13.8271 22 14.9906 21.6816 15.9286C21.082 17.695 19.695 19.082 17.9286 19.6816C16.9906 20 15.8271 20 13.5 20H10.5C8.17293 20 7.0094 20 6.07136 19.6816C4.30502 19.082 2.91801 17.695 2.31842 15.9286C2 14.9906 2 13.8271 2 11.5Z" stroke="#020203" stroke-width="1.5"/>
<path d="M2 11L22 11" stroke="#020203" stroke-width="1.5" stroke-linecap="round"/>
<path d="M12 11L12 20" stroke="#020203" stroke-width="1.5" stroke-linecap="round"/>
<path d="M18 20L18 21" stroke="#020203" stroke-width="1.5" stroke-linecap="round"/>
<path d="M6 20L6 21" stroke="#020203" stroke-width="1.5" stroke-linecap="round"/>
<path d="M6.5 15.5H7.5" stroke="#020203" stroke-width="1.5" stroke-linecap="round"/>
<path d="M16.5 15.5H17.5" stroke="#020203" stroke-width="1.5" stroke-linecap="round"/>
<path d="M11.5 7H12.5" stroke="#020203" stroke-width="1.5" stroke-linecap="round"/>
</svg>
