<svg width="24" height="24" viewBox="0 0 24 24" fill="none" xmlns="http://www.w3.org/2000/svg">
<path fill-rule="evenodd" clip-rule="evenodd" d="M1.25 14.4647V12C1.25 8.73923 1.25 7.10885 1.76492 5.8165C2.50185 3.96695 3.96695 2.50185 5.8165 1.76492C7.10885 1.25 8.73923 1.25 12 1.25C15.2608 1.25 16.8912 1.25 18.1835 1.76492C20.033 2.50185 21.4982 3.96695 22.2351 5.8165C22.75 7.10885 22.75 8.73923 22.75 12V14.4647C22.75 14.7604 22.75 14.9082 22.7443 15.0332C22.615 17.8742 20.3411 20.1482 17.5 20.2774C17.3751 20.2831 17.2272 20.2831 16.9315 20.2831C16.8812 20.2831 16.856 20.2831 16.8315 20.2836C16.2953 20.2941 15.7767 20.4768 15.3523 20.8046C15.3329 20.8196 15.3133 20.8354 15.2741 20.8669L14.5851 21.421C13.7664 22.0794 13.357 22.4086 12.9136 22.5648C12.3223 22.7731 11.6777 22.7731 11.0864 22.5648C10.643 22.4086 10.2336 22.0794 9.41488 21.421L8.72592 20.8669C8.68679 20.8355 8.66706 20.8196 8.64769 20.8046C8.22326 20.4768 7.70466 20.2941 7.16846 20.2836C7.14396 20.2831 7.11879 20.2831 7.06846 20.2831C6.77277 20.2831 6.62492 20.2831 6.49997 20.2774C3.65891 20.1482 1.38497 17.8742 1.25569 15.0332C1.25 14.9082 1.25 14.7604 1.25 14.4647ZM8.25 9.5C8.25 9.08579 8.58579 8.75 9 8.75H15C15.4142 8.75 15.75 9.08579 15.75 9.5C15.75 9.91421 15.4142 10.25 15 10.25H9C8.58579 10.25 8.25 9.91421 8.25 9.5ZM9 12.75C8.58579 12.75 8.25 13.0858 8.25 13.5C8.25 13.9142 8.58579 14.25 9 14.25H15C15.4142 14.25 15.75 13.9142 15.75 13.5C15.75 13.0858 15.4142 12.75 15 12.75H9Z" fill="#020203"/>
</svg>
