<svg width="24" height="24" viewBox="0 0 24 24" fill="none" xmlns="http://www.w3.org/2000/svg">
<path d="M2 14.2846V11.77C2 8.74138 2 7.22707 2.49478 6.03256C3.15449 4.43988 4.41988 3.17449 6.01256 2.51478C7.20707 2.02 8.72138 2.02 11.75 2.02H12.25C15.2786 2.02 16.7929 2.02 17.9874 2.51478C19.5801 3.17449 20.8455 4.43988 21.5052 6.03256C22 7.22707 22 8.74138 22 11.77V14.2846C22 14.7353 22 14.9607 21.9855 15.1509C21.7975 17.6118 19.8418 19.5675 17.3809 19.7555C17.1907 19.77 16.9653 19.77 16.5146 19.77C16.4261 19.77 16.3818 19.77 16.3388 19.7715C15.8014 19.79 15.2842 19.9813 14.8641 20.317C14.8305 20.3439 14.7969 20.3727 14.7297 20.4303L14.4405 20.6782C13.6716 21.3372 13.2871 21.6667 12.8674 21.822C12.3077 22.0291 11.6923 22.0291 11.1326 21.822C10.7129 21.6667 10.3284 21.3372 9.55953 20.6782L9.27034 20.4303C9.20312 20.3727 9.16952 20.3439 9.13593 20.317C8.71581 19.9813 8.19864 19.79 7.66117 19.7715C7.61819 19.77 7.57393 19.77 7.48541 19.77C7.03466 19.77 6.80929 19.77 6.61913 19.7555C4.15815 19.5675 2.20254 17.6118 2.01453 15.1509C2 14.9607 2 14.7353 2 14.2846Z" stroke="#020203" stroke-width="1.5" stroke-linecap="round"/>
<path d="M7.99451 12H8.00349" stroke="#020203" stroke-width="2" stroke-linecap="round" stroke-linejoin="round"/>
<path d="M11.9945 12H12.0035" stroke="#020203" stroke-width="2" stroke-linecap="round" stroke-linejoin="round"/>
<path d="M15.9945 12H16.0035" stroke="#020203" stroke-width="2" stroke-linecap="round" stroke-linejoin="round"/>
</svg>
