<svg width="24" height="24" viewBox="0 0 24 24" fill="none" xmlns="http://www.w3.org/2000/svg">
<path d="M17.5 12.25C14.3244 12.25 11.75 9.67564 11.75 6.5C11.75 4.18544 13.1176 2.19028 15.0887 1.27849C14.2482 1.25 13.2425 1.25 12 1.25C8.73923 1.25 7.10885 1.25 5.8165 1.76492C3.96695 2.50185 2.50185 3.96695 1.76492 5.8165C1.25 7.10885 1.25 8.73923 1.25 12V14.4647C1.25 14.7604 1.25 14.9082 1.25569 15.0332C1.38497 17.8742 3.65891 20.1482 6.49997 20.2774C6.62492 20.2831 6.77277 20.2831 7.06846 20.2831C7.11879 20.2831 7.14396 20.2831 7.16846 20.2836C7.70466 20.2941 8.22326 20.4768 8.64769 20.8046C8.66706 20.8196 8.68679 20.8355 8.72592 20.8669L9.41488 21.421C10.2336 22.0794 10.643 22.4086 11.0864 22.5648C11.6777 22.7731 12.3223 22.7731 12.9136 22.5648C13.357 22.4086 13.7664 22.0794 14.5851 21.421L15.2741 20.8669C15.3132 20.8355 15.3329 20.8196 15.3523 20.8046C15.7767 20.4768 16.2953 20.2941 16.8315 20.2836C16.856 20.2831 16.8812 20.2831 16.9315 20.2831C17.2272 20.2831 17.3751 20.2831 17.5 20.2774C20.3411 20.1482 22.615 17.8742 22.7443 15.0332C22.75 14.9082 22.75 14.7604 22.75 14.4647V12C22.75 10.7575 22.75 9.7518 22.7215 8.91127C21.8097 10.8824 19.8146 12.25 17.5 12.25Z" fill="#020203"/>
<path d="M13 6.5C13 8.98528 15.0147 11 17.5 11C19.9853 11 22 8.98528 22 6.5C22 4.01472 19.9853 2 17.5 2C15.0147 2 13 4.01472 13 6.5Z" fill="#020203"/>
</svg>
