<svg width="24" height="24" viewBox="0 0 24 24" fill="none" xmlns="http://www.w3.org/2000/svg">
<path opacity="0.4" d="M10 21.0538C9.86774 20.9424 9.72225 20.8177 9.55953 20.6782L9.27034 20.4303C9.20312 20.3727 9.16952 20.3439 9.13593 20.317C8.71581 19.9813 8.19864 19.79 7.66117 19.7715C7.61819 19.77 7.57393 19.77 7.48541 19.77C7.03466 19.77 6.80929 19.77 6.61913 19.7555C4.15815 19.5675 2.20254 17.6119 2.01453 15.1509C2 14.9607 2 14.7354 2 14.2846V11.77C2 8.7414 2 7.22709 2.49478 6.03258C3.15449 4.43989 4.41988 3.17451 6.01256 2.5148C7.20707 2.02002 8.72138 2.02002 11.75 2.02002H12.25C15.2786 2.02002 16.7929 2.02002 17.9874 2.5148C19.5801 3.17451 20.8455 4.43989 21.5052 6.03258C21.8574 6.88279 21.9589 7.89502 21.9882 9.5" stroke="#020203" stroke-width="1.5" stroke-linecap="round"/>
<path d="M13 17.5C13 19.9853 15.0147 22 17.5 22C19.9853 22 22 19.9853 22 17.5C22 15.0147 19.9853 13 17.5 13C15.0147 13 13 15.0147 13 17.5Z" stroke="#020203" stroke-width="1.5" stroke-linecap="round"/>
<path d="M15.75 17.2598L16.3661 17.8759C16.8543 18.364 17.6457 18.364 18.1339 17.8759L19.25 16.7598" stroke="#020203" stroke-width="1.5" stroke-linecap="round"/>
<path d="M9 9H15" stroke="#020203" stroke-width="1.5" stroke-linecap="round"/>
<path d="M9 13H10" stroke="#020203" stroke-width="1.5" stroke-linecap="round"/>
</svg>
