<svg width="24" height="24" viewBox="0 0 24 24" fill="none" xmlns="http://www.w3.org/2000/svg">
<path d="M2 5.5C2 7.433 3.567 9 5.5 9H9V5.5C9 3.567 7.433 2 5.5 2C3.567 2 2 3.567 2 5.5Z" stroke="#020203" stroke-width="1.5" stroke-linecap="round"/>
<path d="M2 18.5C2 20.433 3.567 22 5.5 22C7.433 22 9 20.433 9 18.5V15L5.5 15C3.567 15 2 16.567 2 18.5Z" stroke="#020203" stroke-width="1.5" stroke-linecap="round"/>
<path d="M18.5 2C16.567 2 15 3.567 15 5.5L15 9H18.5C20.433 9 22 7.433 22 5.5C22 3.567 20.433 2 18.5 2Z" stroke="#020203" stroke-width="1.5" stroke-linecap="round"/>
<path d="M15.0002 18.5001C15.0002 20.4331 16.5672 22.0001 18.5002 22.0001C20.4331 22.0001 22.0002 20.4331 22.0002 18.5001C22.0002 16.5671 20.4331 15.0001 18.5002 15.0001L15 15L15.0002 18.5001Z" stroke="#020203" stroke-width="1.5" stroke-linecap="round"/>
<path opacity="0.4" d="M9 7V17.5" stroke="#020203" stroke-width="1.5" stroke-linecap="round"/>
<path opacity="0.4" d="M15 6.5V17.5001" stroke="#020203" stroke-width="1.5" stroke-linecap="round"/>
<path opacity="0.4" d="M9 9L15 9" stroke="#020203" stroke-width="1.5" stroke-linecap="round"/>
<path opacity="0.4" d="M9 15L15 15" stroke="#020203" stroke-width="1.5" stroke-linecap="round"/>
</svg>
