<svg width="24" height="24" viewBox="0 0 24 24" fill="none" xmlns="http://www.w3.org/2000/svg">
<path d="M1.75 5.75C1.75 7.95914 3.54086 9.75 5.75 9.75H9.75V5.75C9.75 3.54086 7.95914 1.75 5.75 1.75C3.54086 1.75 1.75 3.54086 1.75 5.75Z" fill="#020203"/>
<path d="M22.25 5.75C22.25 7.95914 20.4591 9.75 18.25 9.75H14.25V5.75C14.25 3.54086 16.0409 1.75 18.25 1.75C20.4591 1.75 22.25 3.54086 22.25 5.75Z" fill="#020203"/>
<path d="M22.25 18.25C22.25 16.0409 20.4591 14.25 18.25 14.25H14.25V18.25C14.25 20.4591 16.0409 22.25 18.25 22.25C20.4591 22.25 22.25 20.4591 22.25 18.25Z" fill="#020203"/>
<path d="M1.75 18.25C1.75 16.0409 3.54086 14.25 5.75 14.25H9.75V18.25C9.75 20.4591 7.95914 22.25 5.75 22.25C3.54086 22.25 1.75 20.4591 1.75 18.25Z" fill="#020203"/>
<path fill-rule="evenodd" clip-rule="evenodd" d="M9 6.25C9.41421 6.25 9.75 6.58579 9.75 7V17.5C9.75 17.9142 9.41421 18.25 9 18.25C8.58579 18.25 8.25 17.9142 8.25 17.5V7C8.25 6.58579 8.58579 6.25 9 6.25Z" fill="#020203"/>
<path fill-rule="evenodd" clip-rule="evenodd" d="M15 5.75C15.4142 5.75 15.75 6.08579 15.75 6.5V17.5001C15.75 17.9143 15.4142 18.2501 15 18.2501C14.5858 18.2501 14.25 17.9143 14.25 17.5001V6.5C14.25 6.08579 14.5858 5.75 15 5.75Z" fill="#020203"/>
<path fill-rule="evenodd" clip-rule="evenodd" d="M8.25 9C8.25 8.58579 8.58579 8.25 9 8.25L15 8.25C15.4142 8.25 15.75 8.58579 15.75 9C15.75 9.41421 15.4142 9.75 15 9.75L9 9.75C8.58579 9.75 8.25 9.41421 8.25 9Z" fill="#020203"/>
<path fill-rule="evenodd" clip-rule="evenodd" d="M8.25 15C8.25 14.5858 8.58579 14.25 9 14.25L15 14.25C15.4142 14.25 15.75 14.5858 15.75 15C15.75 15.4142 15.4142 15.75 15 15.75L9 15.75C8.58579 15.75 8.25 15.4142 8.25 15Z" fill="#020203"/>
</svg>
