<svg width="24" height="24" viewBox="0 0 24 24" fill="none" xmlns="http://www.w3.org/2000/svg">
<path opacity="0.4" d="M1.25 14.4647V12C1.25 8.73923 1.25 7.10885 1.76492 5.8165C2.50185 3.96695 3.96695 2.50185 5.8165 1.76492C7.10885 1.25 8.73923 1.25 12 1.25C15.2608 1.25 16.8912 1.25 18.1835 1.76492C20.033 2.50185 21.4982 3.96695 22.2351 5.8165C22.75 7.10885 22.75 8.73923 22.75 12V14.4647C22.75 14.7604 22.75 14.9082 22.7443 15.0332C22.615 17.8742 20.3411 20.1482 17.5 20.2774C17.3751 20.2831 17.2272 20.2831 16.9315 20.2831C16.8812 20.2831 16.856 20.2831 16.8315 20.2836C16.2953 20.2941 15.7767 20.4768 15.3523 20.8046C15.3329 20.8196 15.3133 20.8354 15.2741 20.8669L14.5851 21.421C13.7664 22.0794 13.357 22.4086 12.9136 22.5648C12.3223 22.7731 11.6777 22.7731 11.0864 22.5648C10.643 22.4086 10.2336 22.0794 9.41488 21.421L8.72592 20.8669C8.68679 20.8355 8.66706 20.8196 8.64769 20.8046C8.22326 20.4768 7.70466 20.2941 7.16846 20.2836C7.14396 20.2831 7.11879 20.2831 7.06846 20.2831C6.77277 20.2831 6.62492 20.2831 6.49997 20.2774C3.65891 20.1482 1.38497 17.8742 1.25569 15.0332C1.25 14.9082 1.25 14.7604 1.25 14.4647Z" fill="#020203"/>
<path fill-rule="evenodd" clip-rule="evenodd" d="M6.99451 12C6.99451 11.4477 7.44222 11 7.99451 11H8.00349C8.55577 11 9.00349 11.4477 9.00349 12C9.00349 12.5523 8.55577 13 8.00349 13H7.99451C7.44222 13 6.99451 12.5523 6.99451 12Z" fill="#020203"/>
<path fill-rule="evenodd" clip-rule="evenodd" d="M10.9945 12C10.9945 11.4477 11.4422 11 11.9945 11H12.0035C12.5558 11 13.0035 11.4477 13.0035 12C13.0035 12.5523 12.5558 13 12.0035 13H11.9945C11.4422 13 10.9945 12.5523 10.9945 12Z" fill="#020203"/>
<path fill-rule="evenodd" clip-rule="evenodd" d="M14.9945 12C14.9945 11.4477 15.4422 11 15.9945 11H16.0035C16.5558 11 17.0035 11.4477 17.0035 12C17.0035 12.5523 16.5558 13 16.0035 13H15.9945C15.4422 13 14.9945 12.5523 14.9945 12Z" fill="#020203"/>
</svg>
