<svg width="24" height="24" viewBox="0 0 24 24" fill="none" xmlns="http://www.w3.org/2000/svg">
<path opacity="0.4" d="M10 2.00488C8.08712 2.02273 6.95112 2.10603 6.01256 2.4948C4.41988 3.15451 3.15449 4.41989 2.49478 6.01257C2 7.20708 2 8.7214 2 11.75V14.2646C2 14.7154 2 14.9407 2.01453 15.1309C2.20254 17.5919 4.15815 19.5475 6.61913 19.7355C6.80929 19.75 7.03466 19.75 7.48541 19.75C7.57393 19.75 7.61819 19.75 7.66117 19.7515C8.19864 19.77 8.71581 19.9613 9.13593 20.297C9.16952 20.3239 9.20312 20.3527 9.27034 20.4103L9.55953 20.6582C10.3284 21.3172 10.7129 21.6467 11.1326 21.802C11.6923 22.0091 12.3077 22.0091 12.8674 21.802C13.2871 21.6467 13.6716 21.3172 14.4405 20.6582L14.7297 20.4103C14.7969 20.3527 14.8305 20.3239 14.8641 20.297C15.2842 19.9613 15.8014 19.77 16.3388 19.7515C16.3818 19.75 16.4261 19.75 16.5146 19.75C16.9653 19.75 17.1907 19.75 17.3809 19.7355C19.8418 19.5475 21.7975 17.5919 21.9855 15.1309C22 14.9407 22 14.7154 22 14.2646V14" stroke="#020203" stroke-width="1.5" stroke-linecap="round"/>
<path d="M13 6.5C13 8.98528 15.0147 11 17.5 11C19.9853 11 22 8.98528 22 6.5C22 4.01472 19.9853 2 17.5 2C15.0147 2 13 4.01472 13 6.5Z" stroke="#020203" stroke-width="1.5" stroke-linecap="round"/>
</svg>
