<svg width="24" height="24" viewBox="0 0 24 24" fill="none" xmlns="http://www.w3.org/2000/svg">
<path fill-rule="evenodd" clip-rule="evenodd" d="M1.53355 7.06408C1.30602 7.82408 1.26105 8.72296 1.25217 10.25H22.7478C22.7389 8.72296 22.6939 7.82408 22.4664 7.06408C21.8149 4.88774 20.1122 3.18512 17.9359 2.53357C16.9887 2.25 15.8258 2.25 13.5 2.25H10.5C8.17416 2.25 7.01125 2.25 6.06406 2.53357C3.88772 3.18512 2.1851 4.88774 1.53355 7.06408ZM11.5 6.25C11.0858 6.25 10.75 6.58579 10.75 7C10.75 7.41421 11.0858 7.75 11.5 7.75H12.5C12.9142 7.75 13.25 7.41421 13.25 7C13.25 6.58579 12.9142 6.25 12.5 6.25H11.5Z" fill="#020203"/>
<path opacity="0.32" d="M11.25 11.75H1.25C1.25036 13.9104 1.26033 15.0233 1.53356 15.9359C2.18511 18.1123 3.88772 19.8149 6.06406 20.4664C7.01126 20.75 8.17417 20.75 10.5 20.75H11.25L11.25 11.75Z" fill="#020203"/>
<path opacity="0.32" d="M12.75 20.75L12.75 11.75H22.75C22.7496 13.9104 22.7396 15.0233 22.4664 15.9359C21.8149 18.1123 20.1122 19.8149 17.9359 20.4664C16.9887 20.75 15.8258 20.75 13.5 20.75H12.75Z" fill="#020203"/>
<path fill-rule="evenodd" clip-rule="evenodd" d="M5.75 15.5C5.75 15.0858 6.08579 14.75 6.5 14.75H7.5C7.91421 14.75 8.25 15.0858 8.25 15.5C8.25 15.9142 7.91421 16.25 7.5 16.25H6.5C6.08579 16.25 5.75 15.9142 5.75 15.5Z" fill="#020203"/>
<path fill-rule="evenodd" clip-rule="evenodd" d="M15.75 15.5C15.75 15.0858 16.0858 14.75 16.5 14.75H17.5C17.9142 14.75 18.25 15.0858 18.25 15.5C18.25 15.9142 17.9142 16.25 17.5 16.25H16.5C16.0858 16.25 15.75 15.9142 15.75 15.5Z" fill="#020203"/>
<path fill-rule="evenodd" clip-rule="evenodd" d="M18 18.25C18.4142 18.25 18.75 18.5858 18.75 19L18.75 21C18.75 21.4142 18.4142 21.75 18 21.75C17.5858 21.75 17.25 21.4142 17.25 21L17.25 19C17.25 18.5858 17.5858 18.25 18 18.25Z" fill="#020203"/>
<path fill-rule="evenodd" clip-rule="evenodd" d="M6 18.25C6.41421 18.25 6.75 18.5858 6.75 19L6.75 21C6.75 21.4142 6.41421 21.75 6 21.75C5.58579 21.75 5.25 21.4142 5.25 21L5.25 19C5.25 18.5858 5.58579 18.25 6 18.25Z" fill="#020203"/>
</svg>
