<svg width="24" height="24" viewBox="0 0 24 24" fill="none" xmlns="http://www.w3.org/2000/svg">
<path opacity="0.4" d="M1.25 12V14.4647C1.25 14.7604 1.25 14.9082 1.25569 15.0332C1.38497 17.8742 3.65891 20.1482 6.49997 20.2774C6.62492 20.2831 6.77277 20.2831 7.06846 20.2831C7.11879 20.2831 7.14396 20.2831 7.16846 20.2836C7.70466 20.2941 8.22326 20.4768 8.64769 20.8046C8.66706 20.8196 8.68679 20.8355 8.72592 20.8669L9.41488 21.421C10.2336 22.0794 10.643 22.4086 11.0864 22.5648C11.6777 22.7731 12.3223 22.7731 12.9136 22.5648C13.2096 22.4606 13.4905 22.2792 13.8881 21.9742C12.584 20.9201 11.75 19.3075 11.75 17.5C11.75 14.3244 14.3244 11.75 17.5 11.75C19.8297 11.75 21.8357 13.1355 22.7392 15.1274C22.7412 15.0961 22.7429 15.0646 22.7443 15.0332C22.75 14.9082 22.75 14.7604 22.75 14.4647V12C22.75 8.73923 22.75 7.10885 22.2351 5.8165C21.4982 3.96695 20.033 2.50185 18.1835 1.76492C16.8912 1.25 15.2608 1.25 12 1.25C8.73923 1.25 7.10885 1.25 5.8165 1.76492C3.96695 2.50185 2.50185 3.96695 1.76492 5.8165C1.25 7.10885 1.25 8.73923 1.25 12Z" fill="#020203"/>
<path fill-rule="evenodd" clip-rule="evenodd" d="M8.25 9C8.25 8.58579 8.58579 8.25 9 8.25H15C15.4142 8.25 15.75 8.58579 15.75 9C15.75 9.41421 15.4142 9.75 15 9.75H9C8.58579 9.75 8.25 9.41421 8.25 9Z" fill="#020203"/>
<path fill-rule="evenodd" clip-rule="evenodd" d="M8.25 13C8.25 12.5858 8.58579 12.25 9 12.25H10C10.4142 12.25 10.75 12.5858 10.75 13C10.75 13.4142 10.4142 13.75 10 13.75H9C8.58579 13.75 8.25 13.4142 8.25 13Z" fill="#020203"/>
<path fill-rule="evenodd" clip-rule="evenodd" d="M17.5 22C15.0147 22 13 19.9853 13 17.5C13 15.0147 15.0147 13 17.5 13C19.9853 13 22 15.0147 22 17.5C22 19.9853 19.9853 22 17.5 22ZM16 18.25C15.5858 18.25 15.25 17.9142 15.25 17.5C15.25 17.0858 15.5858 16.75 16 16.75H19C19.4142 16.75 19.75 17.0858 19.75 17.5C19.75 17.9142 19.4142 18.25 19 18.25H16Z" fill="#020203"/>
</svg>
