<svg width="24" height="24" viewBox="0 0 24 24" fill="none" xmlns="http://www.w3.org/2000/svg">
<path d="M2.77028 8.32972L5.01967 6.08033L10.9393 12L5.01967 17.9197L2.77028 15.6703C1.79686 14.6969 1.25 13.3766 1.25 12C1.25 10.6234 1.79686 9.30314 2.77028 8.32972Z" fill="#020203"/>
<path d="M6.08033 18.9803L8.32972 21.2297C9.30314 22.2031 10.6234 22.75 12 22.75C13.3766 22.75 14.6969 22.2031 15.6703 21.2297L17.9197 18.9803L12 13.0607L6.08033 18.9803Z" fill="#020203"/>
<path d="M13.0607 12L18.9803 17.9197L21.2297 15.6703C22.2031 14.6969 22.75 13.3766 22.75 12C22.75 10.6234 22.2031 9.30314 21.2297 8.32972L18.9803 6.08033L13.0607 12Z" fill="#020203"/>
<path d="M17.9197 5.01967L15.6703 2.77028C14.6969 1.79686 13.3766 1.25 12 1.25C10.6234 1.25 9.30314 1.79686 8.32972 2.77028L6.08033 5.01967L12 10.9393L17.9197 5.01967Z" fill="#020203"/>
</svg>
