<svg width="24" height="24" viewBox="0 0 24 24" fill="none" xmlns="http://www.w3.org/2000/svg">
<path opacity="0.4" d="M2 12C2 17.5228 6.47715 22 12 22C17.5228 22 22 17.5228 22 12C22 6.47715 17.5228 2 12 2C6.47715 2 2 6.47715 2 12Z" stroke="#020203" stroke-width="1.5" stroke-linecap="round"/>
<path d="M17 9.55556L16.25 9.55555V9.55556L17 9.55556ZM17 10.4444L17.75 10.4444V10.4444L17 10.4444ZM14.75 10.4444V9.55556H13.25V10.4444H14.75ZM14.75 9.55556C14.75 9.39154 14.8175 9.17134 14.9555 9.00271C15.0781 8.85277 15.2478 8.75 15.5 8.75V7.25C14.7522 7.25 14.1719 7.59168 13.7945 8.05285C13.4325 8.49532 13.25 9.0529 13.25 9.55556H14.75ZM13.25 10.4444C13.25 10.9471 13.4325 11.5047 13.7945 11.9472C14.1719 12.4083 14.7522 12.75 15.5 12.75V11.25C15.2478 11.25 15.0781 11.1472 14.9555 10.9973C14.8175 10.8287 14.75 10.6085 14.75 10.4444H13.25ZM17.75 9.55556C17.75 9.0529 17.5675 8.49532 17.2055 8.05285C16.8281 7.59168 16.2478 7.25 15.5 7.25V8.75C15.7522 8.75 15.9219 8.85277 16.0445 9.00271C16.1825 9.17134 16.25 9.39154 16.25 9.55555L17.75 9.55556ZM16.25 9.55556L16.25 10.4444L17.75 10.4444L17.75 9.55556L16.25 9.55556ZM16.25 10.4444C16.25 10.6085 16.1825 10.8287 16.0445 10.9973C15.9219 11.1472 15.7522 11.25 15.5 11.25V12.75C16.2478 12.75 16.8281 12.4083 17.2055 11.9472C17.5675 11.5047 17.75 10.9471 17.75 10.4444L16.25 10.4444Z" fill="#020203"/>
<path d="M10 9.55556L9.25 9.55555V9.55556L10 9.55556ZM10 10.4444L10.75 10.4444V10.4444L10 10.4444ZM7.75 10.4444V9.55556H6.25V10.4444H7.75ZM7.75 9.55556C7.75 9.39154 7.81749 9.17134 7.95547 9.00271C8.07814 8.85277 8.24779 8.75 8.5 8.75V7.25C7.75221 7.25 7.17185 7.59168 6.79453 8.05285C6.43251 8.49532 6.25 9.0529 6.25 9.55556H7.75ZM6.25 10.4444C6.25 10.9471 6.43251 11.5047 6.79453 11.9472C7.17185 12.4083 7.75221 12.75 8.5 12.75V11.25C8.24779 11.25 8.07814 11.1472 7.95547 10.9973C7.81749 10.8287 7.75 10.6085 7.75 10.4444H6.25ZM10.75 9.55556C10.75 9.0529 10.5675 8.49532 10.2055 8.05285C9.82815 7.59168 9.24779 7.25 8.5 7.25V8.75C8.75221 8.75 8.92185 8.85277 9.04453 9.00271C9.18251 9.17134 9.25 9.39154 9.25 9.55555L10.75 9.55556ZM9.25 9.55556L9.25 10.4444L10.75 10.4444L10.75 9.55556L9.25 9.55556ZM9.25 10.4444C9.25 10.6085 9.18251 10.8287 9.04453 10.9973C8.92185 11.1472 8.75221 11.25 8.5 11.25V12.75C9.24779 12.75 9.82815 12.4083 10.2055 11.9472C10.5675 11.5047 10.75 10.9471 10.75 10.4444L9.25 10.4444Z" fill="#020203"/>
<path d="M9 16H15" stroke="#020203" stroke-width="1.5" stroke-linecap="round"/>
</svg>
