<svg width="24" height="24" viewBox="0 0 24 24" fill="none" xmlns="http://www.w3.org/2000/svg">
<path opacity="0.4" d="M14.6609 2.98157C16.4182 1.22422 19.2675 1.22422 21.0248 2.98157C22.7822 4.73893 22.7822 7.58818 21.0248 9.34554L10.595 19.7754C8.83765 21.5327 5.9884 21.5327 4.23104 19.7754C2.47369 18.018 2.47369 15.1688 4.23104 13.4114L14.6609 2.98157Z" fill="#020203"/>
<path fill-rule="evenodd" clip-rule="evenodd" d="M17.6761 6.87951C17.8071 7.27247 17.5947 7.69721 17.2018 7.82819L16.9778 7.90284C16.4644 8.07398 15.9979 8.36231 15.6152 8.745C15.2325 9.12768 14.9442 9.5942 14.773 10.1076L14.6984 10.3316C14.4536 11.0659 14.0412 11.7332 13.4939 12.2805C12.9465 12.8279 12.2792 13.2403 11.5449 13.485L11.321 13.5597L11.0838 12.8482L11.321 13.5597C10.8075 13.7308 10.341 14.0192 9.95832 14.4018C9.57564 14.7845 9.28731 15.2511 9.11617 15.7645L9.07884 15.8765C8.94786 16.2694 8.52312 16.4818 8.13016 16.3508C7.7372 16.2198 7.52483 15.7951 7.65582 15.4021L7.69314 15.2901L8.40466 15.5273L7.69314 15.2901C7.93792 14.5558 8.35032 13.8885 8.89766 13.3412C9.445 12.7938 10.1123 12.3815 10.8466 12.1367L11.0706 12.062C11.584 11.8909 12.0505 11.6026 12.4332 11.2199C12.8159 10.8372 13.1042 10.3707 13.2753 9.85724L13.35 9.63328C13.5948 8.89894 14.0072 8.23168 14.5545 7.68434C15.1019 7.13699 15.7691 6.7246 16.5035 6.47982L16.7395 7.18796L16.5035 6.47982L16.7274 6.40517C17.1204 6.27418 17.5451 6.48655 17.6761 6.87951Z" fill="#020203"/>
<path fill-rule="evenodd" clip-rule="evenodd" d="M5.22088 18.7854C5.5333 19.0978 5.5333 19.6043 5.22088 19.9167L2.22088 22.9167C1.90846 23.2292 1.40193 23.2292 1.08951 22.9167C0.777089 22.6043 0.777089 22.0978 1.08951 21.7854L4.08951 18.7854C4.40193 18.473 4.90846 18.473 5.22088 18.7854Z" fill="#020203"/>
</svg>
