<svg width="24" height="24" viewBox="0 0 24 24" fill="none" xmlns="http://www.w3.org/2000/svg">
<path opacity="0.4" d="M15.5664 3.13085C17.0308 1.66638 19.4052 1.66638 20.8697 3.13085C22.3341 4.59532 22.3341 6.96968 20.8697 8.43415L10.4398 18.864C8.97536 20.3284 6.60099 20.3284 5.13653 18.864C3.67206 17.3995 3.67206 15.0251 5.13653 13.5607L15.5664 3.13085Z" stroke="#020203" stroke-width="1.5"/>
<path d="M8.74252 15.2582L8.77985 15.1463C8.98781 14.5224 9.33817 13.9555 9.80318 13.4905C10.2682 13.0255 10.8351 12.6751 11.459 12.4671L11.6829 12.3925C12.3068 12.1845 12.8737 11.8342 13.3387 11.3691C13.8037 10.9041 14.1541 10.3372 14.3621 9.71335L14.4367 9.4894C14.6447 8.86552 14.995 8.29862 15.46 7.83361C15.9251 7.3686 16.4919 7.01824 17.1158 6.81028L17.3398 6.73562" stroke="#020203" stroke-width="1.5" stroke-linecap="round"/>
<path d="M5.0304 18.971L2.0304 21.971" stroke="#020203" stroke-width="1.6" stroke-linecap="round"/>
</svg>
