<svg width="24" height="24" viewBox="0 0 24 24" fill="none" xmlns="http://www.w3.org/2000/svg">
<path d="M15.566 3.12808C17.0305 1.66361 19.4049 1.66361 20.8693 3.12808C22.3338 4.59254 22.3338 6.96691 20.8693 8.43138L10.4395 18.8612C8.97503 20.3257 6.60066 20.3257 5.13619 18.8612C3.67173 17.3967 3.67173 15.0224 5.13619 13.5579L15.566 3.12808Z" stroke="#020203" stroke-width="1.5"/>
<path d="M8.74213 15.2555L8.77945 15.1435C8.98741 14.5196 9.33777 13.9527 9.80279 13.4877C10.2678 13.0227 10.8347 12.6723 11.4586 12.4644L11.6825 12.3897C12.3064 12.1817 12.8733 11.8314 13.3383 11.3664C13.8033 10.9014 14.1537 10.3345 14.3617 9.71058L14.4363 9.48663C14.6443 8.86274 14.9946 8.29585 15.4596 7.83084C15.9247 7.36582 16.4915 7.01546 17.1154 6.8075L17.3394 6.73285" stroke="#020203" stroke-width="1.5" stroke-linecap="round"/>
<path d="M5.03003 18.9672L2.03003 21.9672" stroke="#020203" stroke-width="1.6" stroke-linecap="round"/>
</svg>
