<svg width="24" height="24" viewBox="0 0 24 24" fill="none" xmlns="http://www.w3.org/2000/svg">
<path fill-rule="evenodd" clip-rule="evenodd" d="M21.0248 2.97138C19.2675 1.21402 16.4182 1.21402 14.6609 2.97138L4.23104 13.4012C2.47369 15.1586 2.47369 18.0078 4.23104 19.7652C5.9884 21.5225 8.83765 21.5225 10.595 19.7652L21.0248 9.33534C22.7822 7.57798 22.7822 4.72874 21.0248 2.97138ZM9.11618 15.7541C9.28732 15.2406 9.57565 14.7741 9.95833 14.3914C10.341 14.0087 10.8075 13.7204 11.321 13.5493L11.5449 13.4746C12.2793 13.2298 12.9465 12.8175 13.4939 12.2701C14.0412 11.7228 14.4536 11.0555 14.6984 10.3212L14.773 10.0972C14.9442 9.58378 15.2325 9.11726 15.6152 8.73458C15.9979 8.35189 16.4644 8.06356 16.9778 7.89242L17.2018 7.81777C17.5947 7.68679 17.8071 7.26205 17.6761 6.86909C17.5451 6.47613 17.1204 6.26376 16.7274 6.39475L16.5035 6.4694C15.7691 6.71418 15.1019 7.12657 14.5545 7.67391C14.0072 8.22126 13.5948 8.88852 13.35 9.62286L13.2754 9.84682C13.1042 10.3602 12.8159 10.8268 12.4332 11.2094C12.0505 11.5921 11.584 11.8805 11.0706 12.0516L10.8466 12.1263C10.1123 12.371 9.44502 12.7834 8.89767 13.3308C8.35033 13.8781 7.93794 14.5454 7.69316 15.2797L7.65583 15.3917C7.52484 15.7847 7.73721 16.2094 8.13017 16.3404C8.52313 16.4714 8.94787 16.259 9.07886 15.866L9.11618 15.7541Z" fill="#020203"/>
<path fill-rule="evenodd" clip-rule="evenodd" d="M5.22088 18.7752C5.5333 19.0876 5.5333 19.5941 5.22088 19.9065L2.22088 22.9065C1.90846 23.219 1.40193 23.219 1.08951 22.9065C0.777089 22.5941 0.777089 22.0876 1.08951 21.7752L4.08951 18.7752C4.40193 18.4628 4.90846 18.4628 5.22088 18.7752Z" fill="#020203"/>
</svg>
