<svg width="24" height="24" viewBox="0 0 24 24" fill="none" xmlns="http://www.w3.org/2000/svg">
<path d="M9.59173 7.90432C10.0024 7.76061 10.5408 7.75 12 7.75C13.4592 7.75 13.9976 7.76061 14.4083 7.90432C15.1982 8.18073 15.8193 8.8018 16.0957 9.59173C16.2394 10.0024 16.25 10.5408 16.25 12C16.25 13.4592 16.2394 13.9976 16.0957 14.4083C15.8193 15.1982 15.1982 15.8193 14.4083 16.0957C13.9976 16.2394 13.4592 16.25 12 16.25C10.5408 16.25 10.0024 16.2394 9.59173 16.0957C8.8018 15.8193 8.18073 15.1982 7.90432 14.4083C7.76061 13.9976 7.75 13.4592 7.75 12C7.75 10.5408 7.76061 10.0024 7.90432 9.59173C8.18073 8.8018 8.8018 8.18073 9.59173 7.90432Z" fill="#020203"/>
<path fill-rule="evenodd" clip-rule="evenodd" d="M2.65707 6.69136C2.25 7.80979 2.25 9.20653 2.25 12C2.25 14.7935 2.25 16.1902 2.65707 17.3086C3.33949 19.1836 4.81644 20.6605 6.69136 21.3429C7.80979 21.75 9.20653 21.75 12 21.75C14.7935 21.75 16.1902 21.75 17.3086 21.3429C19.1836 20.6605 20.6605 19.1836 21.3429 17.3086C21.75 16.1902 21.75 14.7935 21.75 12C21.75 9.20653 21.75 7.80979 21.3429 6.69136C20.6605 4.81644 19.1836 3.33949 17.3086 2.65707C16.1902 2.25 14.7935 2.25 12 2.25C9.20653 2.25 7.80979 2.25 6.69136 2.65707C4.81644 3.33949 3.33949 4.81644 2.65707 6.69136ZM11.843 6.24997C10.5983 6.24957 9.77988 6.2493 9.09631 6.4885C7.87551 6.91567 6.91567 7.87551 6.4885 9.09631C6.2493 9.77988 6.24957 10.5983 6.24997 11.843V12.157C6.24957 13.4017 6.2493 14.2201 6.4885 14.9037C6.91567 16.1245 7.87551 17.0843 9.09631 17.5115C9.77988 17.7507 10.5982 17.7504 11.843 17.75H12.157C13.4017 17.7504 14.2201 17.7507 14.9037 17.5115C16.1245 17.0843 17.0843 16.1245 17.5115 14.9037C17.7507 14.2201 17.7504 13.4018 17.75 12.157V11.843C17.7504 10.5983 17.7507 9.77988 17.5115 9.09631C17.0843 7.87551 16.1245 6.91567 14.9037 6.4885C14.2201 6.2493 13.4017 6.24957 12.157 6.24997H11.843Z" fill="#020203"/>
<path fill-rule="evenodd" clip-rule="evenodd" d="M1.25 9C1.25 8.58579 1.58579 8.25 2 8.25H4C4.41421 8.25 4.75 8.58579 4.75 9C4.75 9.41421 4.41421 9.75 4 9.75H2C1.58579 9.75 1.25 9.41421 1.25 9Z" fill="#020203"/>
<path fill-rule="evenodd" clip-rule="evenodd" d="M19.25 9C19.25 8.58579 19.5858 8.25 20 8.25H22C22.4142 8.25 22.75 8.58579 22.75 9C22.75 9.41421 22.4142 9.75 22 9.75H20C19.5858 9.75 19.25 9.41421 19.25 9Z" fill="#020203"/>
<path fill-rule="evenodd" clip-rule="evenodd" d="M1.25 12C1.25 11.5858 1.58579 11.25 2 11.25H4C4.41421 11.25 4.75 11.5858 4.75 12C4.75 12.4142 4.41421 12.75 4 12.75H2C1.58579 12.75 1.25 12.4142 1.25 12Z" fill="#020203"/>
<path fill-rule="evenodd" clip-rule="evenodd" d="M19.25 12C19.25 11.5858 19.5858 11.25 20 11.25H22C22.4142 11.25 22.75 11.5858 22.75 12C22.75 12.4142 22.4142 12.75 22 12.75H20C19.5858 12.75 19.25 12.4142 19.25 12Z" fill="#020203"/>
<path fill-rule="evenodd" clip-rule="evenodd" d="M1.25 15C1.25 14.5858 1.58579 14.25 2 14.25H4C4.41421 14.25 4.75 14.5858 4.75 15C4.75 15.4142 4.41421 15.75 4 15.75H2C1.58579 15.75 1.25 15.4142 1.25 15Z" fill="#020203"/>
<path fill-rule="evenodd" clip-rule="evenodd" d="M19.25 15C19.25 14.5858 19.5858 14.25 20 14.25H22C22.4142 14.25 22.75 14.5858 22.75 15C22.75 15.4142 22.4142 15.75 22 15.75H20C19.5858 15.75 19.25 15.4142 19.25 15Z" fill="#020203"/>
<path fill-rule="evenodd" clip-rule="evenodd" d="M9 19.25C9.41421 19.25 9.75 19.5858 9.75 20L9.75 22C9.75 22.4142 9.41421 22.75 9 22.75C8.58579 22.75 8.25 22.4142 8.25 22L8.25 20C8.25 19.5858 8.58579 19.25 9 19.25Z" fill="#020203"/>
<path fill-rule="evenodd" clip-rule="evenodd" d="M9 1.25C9.41421 1.25 9.75 1.58579 9.75 2L9.75 4C9.75 4.41421 9.41421 4.75 9 4.75C8.58579 4.75 8.25 4.41421 8.25 4L8.25 2C8.25 1.58579 8.58579 1.25 9 1.25Z" fill="#020203"/>
<path fill-rule="evenodd" clip-rule="evenodd" d="M12 19.25C12.4142 19.25 12.75 19.5858 12.75 20L12.75 22C12.75 22.4142 12.4142 22.75 12 22.75C11.5858 22.75 11.25 22.4142 11.25 22L11.25 20C11.25 19.5858 11.5858 19.25 12 19.25Z" fill="#020203"/>
<path fill-rule="evenodd" clip-rule="evenodd" d="M12 1.25C12.4142 1.25 12.75 1.58579 12.75 2L12.75 4C12.75 4.41421 12.4142 4.75 12 4.75C11.5858 4.75 11.25 4.41421 11.25 4L11.25 2C11.25 1.58579 11.5858 1.25 12 1.25Z" fill="#020203"/>
<path fill-rule="evenodd" clip-rule="evenodd" d="M15 19.25C15.4142 19.25 15.75 19.5858 15.75 20L15.75 22C15.75 22.4142 15.4142 22.75 15 22.75C14.5858 22.75 14.25 22.4142 14.25 22L14.25 20C14.25 19.5858 14.5858 19.25 15 19.25Z" fill="#020203"/>
<path fill-rule="evenodd" clip-rule="evenodd" d="M15 1.25C15.4142 1.25 15.75 1.58579 15.75 2L15.75 4C15.75 4.41421 15.4142 4.75 15 4.75C14.5858 4.75 14.25 4.41421 14.25 4L14.25 2C14.25 1.58579 14.5858 1.25 15 1.25Z" fill="#020203"/>
</svg>
