<svg width="24" height="24" viewBox="0 0 24 24" fill="none" xmlns="http://www.w3.org/2000/svg">
<path opacity="0.4" d="M2.25 12C2.25 9.20653 2.25 7.80979 2.65707 6.69136C3.33949 4.81644 4.81644 3.33949 6.69136 2.65707C7.80979 2.25 9.20653 2.25 12 2.25C14.7935 2.25 16.1902 2.25 17.3086 2.65707C19.1836 3.33949 20.6605 4.81644 21.3429 6.69136C21.75 7.80979 21.75 9.20653 21.75 12C21.75 14.7935 21.75 16.1902 21.3429 17.3086C20.6605 19.1836 19.1836 20.6605 17.3086 21.3429C16.1902 21.75 14.7935 21.75 12 21.75C9.20653 21.75 7.80979 21.75 6.69136 21.3429C4.81644 20.6605 3.33949 19.1836 2.65707 17.3086C2.25 16.1902 2.25 14.7935 2.25 12Z" fill="#020203"/>
<path d="M7 12C7 10.6036 7 9.90533 7.19641 9.34402C7.5482 8.33866 8.33866 7.5482 9.34402 7.19641C9.90533 7 10.6036 7 12 7C13.3964 7 14.0947 7 14.656 7.19641C15.6613 7.5482 16.4518 8.33866 16.8036 9.34402C17 9.90533 17 10.6036 17 12C17 13.3964 17 14.0947 16.8036 14.656C16.4518 15.6613 15.6613 16.4518 14.656 16.8036C14.0947 17 13.3964 17 12 17C10.6036 17 9.90533 17 9.34402 16.8036C8.33866 16.4518 7.5482 15.6613 7.19641 14.656C7 14.0947 7 13.3964 7 12Z" fill="#020203"/>
<path fill-rule="evenodd" clip-rule="evenodd" d="M1.25 9C1.25 8.58579 1.58579 8.25 2 8.25H4C4.41421 8.25 4.75 8.58579 4.75 9C4.75 9.41421 4.41421 9.75 4 9.75H2C1.58579 9.75 1.25 9.41421 1.25 9Z" fill="#020203"/>
<path fill-rule="evenodd" clip-rule="evenodd" d="M19.25 9C19.25 8.58579 19.5858 8.25 20 8.25H22C22.4142 8.25 22.75 8.58579 22.75 9C22.75 9.41421 22.4142 9.75 22 9.75H20C19.5858 9.75 19.25 9.41421 19.25 9Z" fill="#020203"/>
<path fill-rule="evenodd" clip-rule="evenodd" d="M1.25 12C1.25 11.5858 1.58579 11.25 2 11.25H4C4.41421 11.25 4.75 11.5858 4.75 12C4.75 12.4142 4.41421 12.75 4 12.75H2C1.58579 12.75 1.25 12.4142 1.25 12Z" fill="#020203"/>
<path fill-rule="evenodd" clip-rule="evenodd" d="M19.25 12C19.25 11.5858 19.5858 11.25 20 11.25H22C22.4142 11.25 22.75 11.5858 22.75 12C22.75 12.4142 22.4142 12.75 22 12.75H20C19.5858 12.75 19.25 12.4142 19.25 12Z" fill="#020203"/>
<path fill-rule="evenodd" clip-rule="evenodd" d="M1.25 15C1.25 14.5858 1.58579 14.25 2 14.25H4C4.41421 14.25 4.75 14.5858 4.75 15C4.75 15.4142 4.41421 15.75 4 15.75H2C1.58579 15.75 1.25 15.4142 1.25 15Z" fill="#020203"/>
<path fill-rule="evenodd" clip-rule="evenodd" d="M19.25 15C19.25 14.5858 19.5858 14.25 20 14.25H22C22.4142 14.25 22.75 14.5858 22.75 15C22.75 15.4142 22.4142 15.75 22 15.75H20C19.5858 15.75 19.25 15.4142 19.25 15Z" fill="#020203"/>
<path fill-rule="evenodd" clip-rule="evenodd" d="M9 19.25C9.41421 19.25 9.75 19.5858 9.75 20L9.75 22C9.75 22.4142 9.41421 22.75 9 22.75C8.58579 22.75 8.25 22.4142 8.25 22L8.25 20C8.25 19.5858 8.58579 19.25 9 19.25Z" fill="#020203"/>
<path fill-rule="evenodd" clip-rule="evenodd" d="M9 1.25C9.41421 1.25 9.75 1.58579 9.75 2L9.75 4C9.75 4.41421 9.41421 4.75 9 4.75C8.58579 4.75 8.25 4.41421 8.25 4L8.25 2C8.25 1.58579 8.58579 1.25 9 1.25Z" fill="#020203"/>
<path fill-rule="evenodd" clip-rule="evenodd" d="M12 19.25C12.4142 19.25 12.75 19.5858 12.75 20L12.75 22C12.75 22.4142 12.4142 22.75 12 22.75C11.5858 22.75 11.25 22.4142 11.25 22L11.25 20C11.25 19.5858 11.5858 19.25 12 19.25Z" fill="#020203"/>
<path fill-rule="evenodd" clip-rule="evenodd" d="M12 1.25C12.4142 1.25 12.75 1.58579 12.75 2L12.75 4C12.75 4.41421 12.4142 4.75 12 4.75C11.5858 4.75 11.25 4.41421 11.25 4L11.25 2C11.25 1.58579 11.5858 1.25 12 1.25Z" fill="#020203"/>
<path fill-rule="evenodd" clip-rule="evenodd" d="M15 19.25C15.4142 19.25 15.75 19.5858 15.75 20L15.75 22C15.75 22.4142 15.4142 22.75 15 22.75C14.5858 22.75 14.25 22.4142 14.25 22L14.25 20C14.25 19.5858 14.5858 19.25 15 19.25Z" fill="#020203"/>
<path fill-rule="evenodd" clip-rule="evenodd" d="M15 1.25C15.4142 1.25 15.75 1.58579 15.75 2L15.75 4C15.75 4.41421 15.4142 4.75 15 4.75C14.5858 4.75 14.25 4.41421 14.25 4L14.25 2C14.25 1.58579 14.5858 1.25 15 1.25Z" fill="#020203"/>
</svg>
