<svg width="23" height="22" viewBox="0 0 23 22" fill="none" xmlns="http://www.w3.org/2000/svg">
<path fill-rule="evenodd" clip-rule="evenodd" d="M0.262545 7.75C0.25 8.38569 0.25 9.1242 0.25 10C0.25 12.7935 0.25 14.1902 0.657075 15.3086C1.33949 17.1836 2.81644 18.6605 4.69136 19.3429C5.80979 19.75 7.20653 19.75 10 19.75H12C12.2172 19.75 12.4259 19.75 12.6268 19.7498C11.4736 18.6982 10.75 17.1836 10.75 15.5C10.75 12.3244 13.3244 9.75 16.5 9.75C18.8056 9.75 20.7943 11.107 21.7109 13.066C21.75 12.2652 21.75 11.279 21.75 10C21.75 9.1242 21.75 8.38569 21.7375 7.75H0.262545ZM5 14.25C4.58579 14.25 4.25 14.5858 4.25 15C4.25 15.4142 4.58579 15.75 5 15.75H7C7.41421 15.75 7.75 15.4142 7.75 15C7.75 14.5858 7.41421 14.25 7 14.25H5Z" fill="#020203"/>
<path d="M0.336839 6.25H21.6632C21.6047 5.63675 21.5068 5.14152 21.3429 4.69136C20.6605 2.81644 19.1836 1.33949 17.3086 0.657075C16.1902 0.25 14.7935 0.25 12 0.25H10C7.20653 0.25 5.80979 0.25 4.69136 0.657075C2.81644 1.33949 1.33949 2.81644 0.657075 4.69136C0.493232 5.14152 0.395335 5.63675 0.336839 6.25Z" fill="#020203"/>
<path fill-rule="evenodd" clip-rule="evenodd" d="M12 15.5C12 17.9853 14.0147 20 16.5 20C18.9853 20 21 17.9853 21 15.5C21 13.0147 18.9853 11 16.5 11C14.0147 11 12 13.0147 12 15.5ZM16.5 17.75C16.9142 17.75 17.25 17.4142 17.25 17V16.25H18C18.4142 16.25 18.75 15.9142 18.75 15.5C18.75 15.0858 18.4142 14.75 18 14.75H17.25V14C17.25 13.5858 16.9142 13.25 16.5 13.25C16.0858 13.25 15.75 13.5858 15.75 14V14.75H15C14.5858 14.75 14.25 15.0858 14.25 15.5C14.25 15.9142 14.5858 16.25 15 16.25H15.75V17C15.75 17.4142 16.0858 17.75 16.5 17.75Z" fill="#020203"/>
</svg>
