<svg width="24" height="24" viewBox="0 0 24 24" fill="none" xmlns="http://www.w3.org/2000/svg">
<path fill-rule="evenodd" clip-rule="evenodd" d="M1.26254 9.75C1.25 10.3857 1.25 11.1242 1.25 12C1.25 14.7935 1.25 16.1902 1.65707 17.3086C2.33949 19.1836 3.81644 20.6605 5.69136 21.3429C6.80979 21.75 8.20653 21.75 11 21.75H13C13.2172 21.75 13.4259 21.75 13.6268 21.7498C12.4736 20.6982 11.75 19.1836 11.75 17.5C11.75 14.3244 14.3244 11.75 17.5 11.75C19.8056 11.75 21.7943 13.107 22.7109 15.066C22.75 14.2652 22.75 13.279 22.75 12C22.75 11.1242 22.75 10.3857 22.7375 9.75H1.26254ZM6 16.25C5.58579 16.25 5.25 16.5858 5.25 17C5.25 17.4142 5.58579 17.75 6 17.75H8C8.41421 17.75 8.75 17.4142 8.75 17C8.75 16.5858 8.41421 16.25 8 16.25H6Z" fill="#020203"/>
<path d="M1.33684 8.25H22.6632C22.6047 7.63675 22.5068 7.14152 22.3429 6.69136C21.6605 4.81644 20.1836 3.33949 18.3086 2.65707C17.1902 2.25 15.7935 2.25 13 2.25H11C8.20653 2.25 6.80979 2.25 5.69136 2.65707C3.81644 3.33949 2.33949 4.81644 1.65707 6.69136C1.49323 7.14152 1.39533 7.63675 1.33684 8.25Z" fill="#020203"/>
<path fill-rule="evenodd" clip-rule="evenodd" d="M17.5 22C15.0147 22 13 19.9853 13 17.5C13 15.0147 15.0147 13 17.5 13C19.9853 13 22 15.0147 22 17.5C22 19.9853 19.9853 22 17.5 22ZM19.7803 17.2803C20.0732 16.9874 20.0732 16.5126 19.7803 16.2197C19.4874 15.9268 19.0126 15.9268 18.7197 16.2197L17.6036 17.3358C17.4083 17.531 17.0917 17.531 16.8964 17.3358L16.2803 16.7197C15.9874 16.4268 15.5126 16.4268 15.2197 16.7197C14.9268 17.0126 14.9268 17.4874 15.2197 17.7803L15.8358 18.3964C16.6168 19.1775 17.8832 19.1775 18.6642 18.3964L19.7803 17.2803Z" fill="#020203"/>
</svg>
