<svg width="24" height="24" viewBox="0 0 24 24" fill="none" xmlns="http://www.w3.org/2000/svg">
<path opacity="0.4" fill-rule="evenodd" clip-rule="evenodd" d="M1.26254 9.75C1.25 10.3857 1.25 11.1242 1.25 12C1.25 14.7935 1.25 16.1902 1.65707 17.3086C2.33949 19.1836 3.81644 20.6605 5.69136 21.3429C6.80979 21.75 8.20653 21.75 11 21.75H13C13.2172 21.75 13.4259 21.75 13.6268 21.7498C12.4736 20.6982 11.75 19.1836 11.75 17.5C11.75 14.3244 14.3244 11.75 17.5 11.75C19.8056 11.75 21.7943 13.107 22.7109 15.066C22.75 14.2652 22.75 13.279 22.75 12C22.75 11.1242 22.75 10.3857 22.7375 9.75H1.26254Z" fill="#020203"/>
<path fill-rule="evenodd" clip-rule="evenodd" d="M5.25 17C5.25 16.5858 5.58579 16.25 6 16.25L8 16.25C8.41421 16.25 8.75 16.5858 8.75 17C8.75 17.4142 8.41421 17.75 8 17.75L6 17.75C5.58579 17.75 5.25 17.4142 5.25 17Z" fill="#020203"/>
<path d="M1.33685 8.25H22.6632C22.6047 7.63675 22.5068 7.14152 22.3429 6.69136C21.6605 4.81644 20.1836 3.33949 18.3086 2.65707C17.1902 2.25 15.7935 2.25 13 2.25H11C8.20654 2.25 6.80981 2.25 5.69138 2.65707C3.81645 3.33949 2.3395 4.81644 1.65709 6.69136C1.49325 7.14152 1.39535 7.63675 1.33685 8.25Z" fill="#020203"/>
<path fill-rule="evenodd" clip-rule="evenodd" d="M17.5 22C15.0147 22 13 19.9853 13 17.5C13 15.0147 15.0147 13 17.5 13C19.9853 13 22 15.0147 22 17.5C22 19.9853 19.9853 22 17.5 22ZM16 18.25C15.5858 18.25 15.25 17.9142 15.25 17.5C15.25 17.0858 15.5858 16.75 16 16.75H19C19.4142 16.75 19.75 17.0858 19.75 17.5C19.75 17.9142 19.4142 18.25 19 18.25H16Z" fill="#020203"/>
</svg>
