<svg width="22" height="20" viewBox="0 0 22 20" fill="none" xmlns="http://www.w3.org/2000/svg">
<path fill-rule="evenodd" clip-rule="evenodd" d="M0.262545 7.75C0.25 8.38569 0.25 9.1242 0.25 10C0.25 12.7935 0.25 14.1902 0.657075 15.3086C1.33949 17.1836 2.81644 18.6605 4.69136 19.3429C5.80979 19.75 7.20653 19.75 10 19.75H12C12.2172 19.75 12.4259 19.75 12.6268 19.7498C11.4736 18.6982 10.75 17.1836 10.75 15.5C10.75 12.3244 13.3244 9.75 16.5 9.75C18.8056 9.75 20.7943 11.107 21.7109 13.066C21.75 12.2652 21.75 11.279 21.75 10C21.75 9.1242 21.75 8.38569 21.7375 7.75H0.262545ZM5 14.25C4.58579 14.25 4.25 14.5858 4.25 15C4.25 15.4142 4.58579 15.75 5 15.75H7C7.41421 15.75 7.75 15.4142 7.75 15C7.75 14.5858 7.41421 14.25 7 14.25H5Z" fill="#020203"/>
<path d="M0.336839 6.25H21.6632C21.6047 5.63675 21.5068 5.14152 21.3429 4.69136C20.6605 2.81644 19.1836 1.33949 17.3086 0.657075C16.1902 0.25 14.7935 0.25 12 0.25H10C7.20653 0.25 5.80979 0.25 4.69136 0.657075C2.81644 1.33949 1.33949 2.81644 0.657075 4.69136C0.493232 5.14152 0.395335 5.63675 0.336839 6.25Z" fill="#020203"/>
<path fill-rule="evenodd" clip-rule="evenodd" d="M12 15.5C12 17.9853 14.0147 20 16.5 20C18.9853 20 21 17.9853 21 15.5C21 13.0147 18.9853 11 16.5 11C14.0147 11 12 13.0147 12 15.5ZM18.5303 13.4697C18.8232 13.7626 18.8232 14.2374 18.5303 14.5303L17.5607 15.5L18.5303 16.4697C18.8232 16.7626 18.8232 17.2374 18.5303 17.5303C18.2374 17.8232 17.7626 17.8232 17.4697 17.5303L16.5 16.5607L15.5303 17.5303C15.2374 17.8232 14.7626 17.8232 14.4697 17.5303C14.1768 17.2374 14.1768 16.7626 14.4697 16.4697L15.4393 15.5L14.4697 14.5303C14.1768 14.2374 14.1768 13.7626 14.4697 13.4697C14.7626 13.1768 15.2374 13.1768 15.5303 13.4697L16.5 14.4393L17.4697 13.4697C17.7626 13.1768 18.2374 13.1768 18.5303 13.4697Z" fill="#020203"/>
</svg>
