<svg width="24" height="24" viewBox="0 0 24 24" fill="none" xmlns="http://www.w3.org/2000/svg">
<path opacity="0.4" fill-rule="evenodd" clip-rule="evenodd" d="M1.26254 9.75C1.25 10.3857 1.25 11.1242 1.25 12C1.25 14.7935 1.25 16.1902 1.65707 17.3086C2.33949 19.1836 3.81644 20.6605 5.69136 21.3429C6.80979 21.75 8.20653 21.75 11 21.75H13C15.7935 21.75 17.1902 21.75 18.3086 21.3429C20.1836 20.6605 21.6605 19.1836 22.3429 17.3086C22.75 16.1902 22.75 14.7935 22.75 12C22.75 11.1242 22.75 10.3857 22.7375 9.75H1.26254Z" fill="#020203"/>
<path fill-rule="evenodd" clip-rule="evenodd" d="M6.25 17C6.25 16.5858 6.58579 16.25 7 16.25L9 16.25C9.41421 16.25 9.75 16.5858 9.75 17C9.75 17.4142 9.41421 17.75 9 17.75L7 17.75C6.58579 17.75 6.25 17.4142 6.25 17Z" fill="#020203"/>
<path d="M1.33685 8.25C1.39535 7.63675 1.49325 7.14152 1.65709 6.69136C2.3395 4.81644 3.81645 3.33949 5.69138 2.65707C6.80981 2.25 8.20654 2.25 11 2.25H13C15.7935 2.25 17.1902 2.25 18.3086 2.65707C20.1836 3.33949 21.6605 4.81644 22.3429 6.69136C22.5068 7.14152 22.6047 7.63675 22.6632 8.25H1.33685Z" fill="#020203"/>
</svg>
