<svg width="24" height="24" viewBox="0 0 24 24" fill="none" xmlns="http://www.w3.org/2000/svg">
<path d="M1.65707 6.69136C1.49323 7.14152 1.39533 7.63675 1.33684 8.25H22.6632C22.6047 7.63675 22.5068 7.14152 22.3429 6.69136C21.6605 4.81644 20.1836 3.33949 18.3086 2.65707C17.1902 2.25 15.7935 2.25 13 2.25H11C8.20653 2.25 6.80979 2.25 5.69136 2.65707C3.81644 3.33949 2.33949 4.81644 1.65707 6.69136Z" fill="#020203"/>
<path fill-rule="evenodd" clip-rule="evenodd" d="M1.25 12C1.25 11.1242 1.25 10.3857 1.26254 9.75H22.7375C22.75 10.3857 22.75 11.1242 22.75 12C22.75 13.279 22.75 14.2652 22.7109 15.066C21.7943 13.107 19.8056 11.75 17.5 11.75C14.3244 11.75 11.75 14.3244 11.75 17.5C11.75 19.1836 12.4736 20.6982 13.6268 21.7498C13.4259 21.75 13.2172 21.75 13 21.75H11C8.20653 21.75 6.80979 21.75 5.69136 21.3429C3.81644 20.6605 2.33949 19.1836 1.65707 17.3086C1.25 16.1902 1.25 14.7935 1.25 12ZM6 16.25C5.58579 16.25 5.25 16.5858 5.25 17C5.25 17.4142 5.58579 17.75 6 17.75H8C8.41421 17.75 8.75 17.4142 8.75 17C8.75 16.5858 8.41421 16.25 8 16.25H6Z" fill="#020203"/>
<path d="M13.8319 20.1074C13.3081 19.3718 13 18.4719 13 17.5C13 15.0147 15.0147 13 17.5 13C18.4719 13 19.3718 13.3081 20.1074 13.8319L13.8319 20.1074Z" fill="#020203"/>
<path d="M14.8926 21.1681C15.6282 21.6919 16.5281 22 17.5 22C19.9853 22 22 19.9853 22 17.5C22 16.5281 21.6919 15.6282 21.1681 14.8926L14.8926 21.1681Z" fill="#020203"/>
</svg>
