<svg width="24" height="24" viewBox="0 0 24 24" fill="none" xmlns="http://www.w3.org/2000/svg">
<path opacity="0.4" d="M2 13V11C2 10.6118 2 10.19 2.01517 9.75H21.9848C22 10.19 22 10.6118 22 11V13C22 13.2878 22 13.594 21.9938 13.9124C20.9402 12.5944 19.3187 11.75 17.5 11.75C14.3244 11.75 11.75 14.3244 11.75 17.5C11.75 18.817 12.1928 20.0306 12.9376 21H9C2 21 2 16 2 13Z" fill="#020203"/>
<path fill-rule="evenodd" clip-rule="evenodd" d="M5.25 17C5.25 16.5858 5.58579 16.25 6 16.25L8 16.25C8.41421 16.25 8.75 16.5858 8.75 17C8.75 17.4142 8.41421 17.75 8 17.75L6 17.75C5.58579 17.75 5.25 17.4142 5.25 17Z" fill="#020203"/>
<path fill-rule="evenodd" clip-rule="evenodd" d="M2.14075 8.25H21.8593C21.4825 5.65063 20.0967 3 15 3H9.00003C3.90335 3 2.51755 5.65063 2.14075 8.25Z" fill="#020203"/>
<path d="M13.8319 20.1074C13.3081 19.3718 13 18.4719 13 17.5C13 15.0147 15.0147 13 17.5 13C18.4719 13 19.3718 13.3081 20.1074 13.8319L13.8319 20.1074Z" fill="#020203"/>
<path d="M14.8926 21.1681C15.6282 21.6919 16.5281 22 17.5 22C19.9853 22 22 19.9853 22 17.5C22 16.5281 21.6919 15.6282 21.1681 14.8926L14.8926 21.1681Z" fill="#020203"/>
</svg>
