<svg width="24" height="24" viewBox="0 0 24 24" fill="none" xmlns="http://www.w3.org/2000/svg">
<path d="M8.75 10.75V15.5C8.75 16.4665 9.5335 17.25 10.5 17.25H13.5C14.4665 17.25 15.25 16.4665 15.25 15.5V10.75H8.75Z" fill="#020203"/>
<path d="M15.25 9.25V8.5C15.25 7.5335 14.4665 6.75 13.5 6.75H10.5C9.5335 6.75 8.75 7.5335 8.75 8.5V9.25H15.25Z" fill="#020203"/>
<path fill-rule="evenodd" clip-rule="evenodd" d="M1.25 12C1.25 8.73923 1.25 7.10885 1.76492 5.8165C2.50185 3.96695 3.96695 2.50185 5.8165 1.76492C7.10885 1.25 8.73923 1.25 12 1.25C15.2608 1.25 16.8912 1.25 18.1835 1.76492C20.0331 2.50185 21.4982 3.96695 22.2351 5.8165C22.75 7.10885 22.75 8.73923 22.75 12C22.75 15.2608 22.75 16.8912 22.2351 18.1835C21.4982 20.0331 20.0331 21.4982 18.1835 22.2351C16.8912 22.75 15.2608 22.75 12 22.75C8.73923 22.75 7.10885 22.75 5.8165 22.2351C3.96695 21.4982 2.50185 20.0331 1.76492 18.1835C1.25 16.8912 1.25 15.2608 1.25 12ZM5.25 10C5.25 9.58579 5.58579 9.25 6 9.25H7.25V8.5C7.25 6.70507 8.70507 5.25 10.5 5.25H13.5C15.2949 5.25 16.75 6.70507 16.75 8.5V9.25H18C18.4142 9.25 18.75 9.58579 18.75 10C18.75 10.4142 18.4142 10.75 18 10.75H16.75V15.5C16.75 17.2949 15.2949 18.75 13.5 18.75H10.5C8.70507 18.75 7.25 17.2949 7.25 15.5V10.75H6C5.58579 10.75 5.25 10.4142 5.25 10Z" fill="#020203"/>
</svg>
