<svg width="24" height="24" viewBox="0 0 24 24" fill="none" xmlns="http://www.w3.org/2000/svg">
<path opacity="0.4" fill-rule="evenodd" clip-rule="evenodd" d="M7.75 6C7.75 5.58579 8.08579 5.25 8.5 5.25H12C15.7279 5.25 18.75 8.27208 18.75 12V16C18.75 16.4142 18.4142 16.75 18 16.75C17.5858 16.75 17.25 16.4142 17.25 16V12C17.25 9.10051 14.8995 6.75 12 6.75H8.5C8.08579 6.75 7.75 6.41421 7.75 6Z" fill="#020203"/>
<path fill-rule="evenodd" clip-rule="evenodd" d="M1.25 6C1.25 5.58579 1.58579 5.25 2 5.25H5C5.41421 5.25 5.75 5.58579 5.75 6C5.75 6.41421 5.41421 6.75 5 6.75H2C1.58579 6.75 1.25 6.41421 1.25 6Z" fill="#020203"/>
<path fill-rule="evenodd" clip-rule="evenodd" d="M18 18.25C18.4142 18.25 18.75 18.5858 18.75 19V22C18.75 22.4142 18.4142 22.75 18 22.75C17.5858 22.75 17.25 22.4142 17.25 22V19C17.25 18.5858 17.5858 18.25 18 18.25Z" fill="#020203"/>
<path fill-rule="evenodd" clip-rule="evenodd" d="M5 1.25C5.41421 1.25 5.75 1.58579 5.75 2V13C5.75 15.8995 8.10051 18.25 11 18.25H22C22.4142 18.25 22.75 18.5858 22.75 19C22.75 19.4142 22.4142 19.75 22 19.75H11C7.27208 19.75 4.25 16.7279 4.25 13V2C4.25 1.58579 4.58579 1.25 5 1.25Z" fill="#020203"/>
</svg>
