<svg width="24" height="24" viewBox="0 0 24 24" fill="none" xmlns="http://www.w3.org/2000/svg">
<path fill-rule="evenodd" clip-rule="evenodd" d="M5.25 21.69C5.25 21.2758 5.58579 20.94 6 20.94L18 20.94C18.4142 20.94 18.75 21.2758 18.75 21.69C18.75 22.1042 18.4142 22.44 18 22.44L6 22.44C5.58579 22.44 5.25 22.1042 5.25 21.69Z" fill="#020203"/>
<path opacity="0.4" d="M4.60565 16.3285L1.63406 9.73994C0.567644 7.37549 3.24116 5.07853 5.41797 6.48898L6.64827 7.28615C7.22275 7.65839 7.99407 7.42112 8.26001 6.79035L9.92674 2.83728C10.7002 1.0028 13.2998 1.00281 14.0732 2.83729L15.74 6.79036C16.0059 7.42112 16.7772 7.65839 17.3517 7.28615L18.582 6.48898C20.7588 5.07853 23.4323 7.3755 22.3659 9.73994L19.3943 16.3285C18.5456 18.2103 16.6729 19.42 14.6086 19.42H9.3914C7.32709 19.42 5.45437 18.2103 4.60565 16.3285Z" fill="#020203"/>
<path fill-rule="evenodd" clip-rule="evenodd" d="M12 15.001C11.4477 15.001 11 14.5533 11 14.001L11 14C11 13.4477 11.4477 13 12 13C12.5523 13 13 13.4477 13 14L13 14.001C13 14.5533 12.5523 15.001 12 15.001Z" fill="#020203"/>
</svg>
