<svg width="24" height="24" viewBox="0 0 24 24" fill="none" xmlns="http://www.w3.org/2000/svg">
<path fill-rule="evenodd" clip-rule="evenodd" d="M5.25 21.69C5.25 21.2758 5.58579 20.94 6 20.94L18 20.94C18.4142 20.94 18.75 21.2758 18.75 21.69C18.75 22.1042 18.4142 22.44 18 22.44L6 22.44C5.58579 22.44 5.25 22.1042 5.25 21.69Z" fill="#020203"/>
<path fill-rule="evenodd" clip-rule="evenodd" d="M1.63406 9.73993L4.60565 16.3285C5.45437 18.2103 7.32709 19.42 9.3914 19.42H14.6086C16.6729 19.42 18.5456 18.2103 19.3943 16.3285L22.3659 9.73993C23.4323 7.37549 20.7588 5.07852 18.582 6.48897L17.3517 7.28614C16.7772 7.65838 16.0059 7.42111 15.74 6.79035L14.0732 2.83728C13.2998 1.0028 10.7002 1.0028 9.92674 2.83728L8.26001 6.79035C7.99407 7.42111 7.22275 7.65838 6.64827 7.28614L5.41797 6.48897C3.24116 5.07852 0.567644 7.37549 1.63406 9.73993ZM11 14.001C11 14.5533 11.4477 15.001 12 15.001C12.5523 15.001 13 14.5533 13 14.001V14C13 13.4477 12.5523 13 12 13C11.4477 13 11 13.4477 11 14V14.001Z" fill="#020203"/>
</svg>
