<svg width="24" height="24" viewBox="0 0 24 24" fill="none" xmlns="http://www.w3.org/2000/svg">
<path d="M6 21.69L18 21.69" stroke="#020203" stroke-width="1.5" stroke-linecap="round"/>
<path opacity="0.4" d="M5.16773 15.759L2.35914 9.58013C1.49453 7.678 3.75847 5.89105 5.40775 7.17382L6.39927 7.945C7.19518 8.56404 8.36296 8.23722 8.72191 7.29497L10.131 3.59607C10.7852 1.87872 13.2147 1.87872 13.869 3.59606L15.2781 7.29496C15.637 8.23722 16.8048 8.56404 17.6007 7.945L18.5922 7.17382C20.2415 5.89105 22.5054 7.678 21.6408 9.58013L18.8323 15.759C18.0209 17.544 16.2411 18.69 14.2804 18.69H9.71956C7.75884 18.69 5.97908 17.544 5.16773 15.759Z" stroke="#020203" stroke-width="1.5" stroke-linecap="round" stroke-linejoin="round"/>
<path d="M12 14.001L12 14" stroke="#020203" stroke-width="2" stroke-linecap="round" stroke-linejoin="round"/>
</svg>
