<svg width="24" height="24" viewBox="0 0 24 24" fill="none" xmlns="http://www.w3.org/2000/svg">
<path d="M2 12C3.38071 12 4.5 10.8807 4.5 9.5V6C4.5 4.34315 5.84315 3 7.5 3" stroke="#020203" stroke-width="1.5" stroke-linecap="round"/>
<path d="M2 12C3.38071 12 4.5 13.1193 4.5 14.5V18C4.5 19.6569 5.84315 21 7.5 21" stroke="#020203" stroke-width="1.5" stroke-linecap="round"/>
<path d="M22 12C20.6193 12 19.5 13.1193 19.5 14.5V18C19.5 19.6569 18.1569 21 16.5 21" stroke="#020203" stroke-width="1.5" stroke-linecap="round"/>
<path d="M10 12H14" stroke="#020203" stroke-width="1.5" stroke-linecap="round" stroke-linejoin="round"/>
<path d="M22 12C20.6193 12 19.5 10.8807 19.5 9.5V6C19.5 4.34315 18.1569 3 16.5 3" stroke="#020203" stroke-width="1.5" stroke-linecap="round"/>
</svg>
