<svg width="24" height="24" viewBox="0 0 24 24" fill="none" xmlns="http://www.w3.org/2000/svg">
<path fill-rule="evenodd" clip-rule="evenodd" d="M3.75 6C3.75 3.92893 5.42893 2.25 7.5 2.25C7.91421 2.25 8.25 2.58579 8.25 3C8.25 3.41421 7.91421 3.75 7.5 3.75C6.25736 3.75 5.25 4.75736 5.25 6V9.5C5.25 11.2949 3.79493 12.75 2 12.75C1.58579 12.75 1.25 12.4142 1.25 12C1.25 11.5858 1.58579 11.25 2 11.25C2.9665 11.25 3.75 10.4665 3.75 9.5V6Z" fill="#020203"/>
<path fill-rule="evenodd" clip-rule="evenodd" d="M1.25 12C1.25 11.5858 1.58579 11.25 2 11.25C3.79493 11.25 5.25 12.7051 5.25 14.5V18C5.25 19.2426 6.25736 20.25 7.5 20.25C7.91421 20.25 8.25 20.5858 8.25 21C8.25 21.4142 7.91421 21.75 7.5 21.75C5.42893 21.75 3.75 20.0711 3.75 18V14.5C3.75 13.5335 2.9665 12.75 2 12.75C1.58579 12.75 1.25 12.4142 1.25 12Z" fill="#020203"/>
<path fill-rule="evenodd" clip-rule="evenodd" d="M22 12.75C21.0335 12.75 20.25 13.5335 20.25 14.5V18C20.25 20.0711 18.5711 21.75 16.5 21.75C16.0858 21.75 15.75 21.4142 15.75 21C15.75 20.5858 16.0858 20.25 16.5 20.25C17.7426 20.25 18.75 19.2426 18.75 18V14.5C18.75 12.7051 20.2051 11.25 22 11.25C22.4142 11.25 22.75 11.5858 22.75 12C22.75 12.4142 22.4142 12.75 22 12.75Z" fill="#020203"/>
<path fill-rule="evenodd" clip-rule="evenodd" d="M15.75 3C15.75 2.58579 16.0858 2.25 16.5 2.25C18.5711 2.25 20.25 3.92893 20.25 6V9.5C20.25 10.4665 21.0335 11.25 22 11.25C22.4142 11.25 22.75 11.5858 22.75 12C22.75 12.4142 22.4142 12.75 22 12.75C20.2051 12.75 18.75 11.2949 18.75 9.5V6C18.75 4.75736 17.7426 3.75 16.5 3.75C16.0858 3.75 15.75 3.41421 15.75 3Z" fill="#020203"/>
<path fill-rule="evenodd" clip-rule="evenodd" d="M15.4685 9.41435C15.792 9.6731 15.8444 10.1451 15.5857 10.4685L12.8672 13.8667C11.9159 15.0558 10.0828 14.9762 9.23808 13.7092L8.37598 12.416C8.14622 12.0714 8.23935 11.6057 8.58399 11.376C8.92864 11.1462 9.39429 11.2393 9.62406 11.584L10.4862 12.8771C10.7677 13.2995 11.3788 13.326 11.6958 12.9296L14.4144 9.53148C14.6731 9.20803 15.1451 9.15559 15.4685 9.41435Z" fill="#020203"/>
</svg>
