<svg width="24" height="24" viewBox="0 0 24 24" fill="none" xmlns="http://www.w3.org/2000/svg">
<path fill-rule="evenodd" clip-rule="evenodd" d="M13.1443 3.04866C13.6967 2.8692 14.2916 2.8692 14.8439 3.04866C15.2039 3.16563 15.5036 3.37036 15.7941 3.61704C16.0727 3.85355 16.388 4.16881 16.7657 4.54652L19.5245 7.30531C19.8174 7.5982 19.8174 8.07307 19.5245 8.36597C19.2316 8.65886 18.7567 8.65886 18.4638 8.36597L15.7265 5.6287C15.3218 5.22394 15.0497 4.95267 14.8234 4.76055C14.6038 4.57411 14.4771 4.50665 14.3804 4.47524C14.1294 4.39367 13.8589 4.39367 13.6079 4.47524C13.5112 4.50665 13.3845 4.57411 13.1649 4.76055C12.9386 4.95267 12.6665 5.22394 12.2617 5.62871L9.52447 8.36597C9.23158 8.65886 8.7567 8.65886 8.46381 8.36597C8.17092 8.07307 8.17092 7.5982 8.46381 7.30531L11.2226 4.54652C11.6003 4.16881 11.9155 3.85355 12.1941 3.61704C12.4847 3.37037 12.7844 3.16563 13.1443 3.04866Z" fill="#020203"/>
<path fill-rule="evenodd" clip-rule="evenodd" d="M13.9942 3.58594C14.4084 3.58595 14.7441 3.92174 14.7441 4.33595L13.9941 4.33594L13.2441 4.33592C13.2441 3.92171 13.5799 3.58593 13.9942 3.58594ZM13.9941 4.33594L13.2441 4.33592V15.336C13.2442 16.7501 12.9468 17.799 12.3834 18.4849C11.8428 19.1429 10.9578 19.5859 9.4939 19.5859H4.99414C4.57993 19.5859 4.24414 19.9217 4.24414 20.3359C4.24414 20.7502 4.57993 21.0859 4.99414 21.0859H9.49391C11.2803 21.0859 12.6455 20.5289 13.5425 19.437C14.4166 18.3728 14.7442 16.9218 14.7441 15.3359V4.33595L13.9941 4.33594Z" fill="#020203"/>
</svg>
