<svg width="24" height="24" viewBox="0 0 24 24" fill="none" xmlns="http://www.w3.org/2000/svg">
<path fill-rule="evenodd" clip-rule="evenodd" d="M9.15448 3.04881C9.7068 2.86935 10.3017 2.86935 10.8541 3.04881C11.2141 3.16578 11.5137 3.37052 11.8043 3.61719C12.0829 3.8537 12.3981 4.16897 12.7758 4.54668L15.5346 7.30546C15.8275 7.59835 15.8275 8.07323 15.5346 8.36612C15.2417 8.65901 14.7668 8.65901 14.4739 8.36612L11.7367 5.62886C11.3319 5.22409 11.0598 4.95282 10.8335 4.7607C10.6139 4.57426 10.4872 4.5068 10.3905 4.47539C10.1395 4.39382 9.86906 4.39382 9.618 4.47539C9.52134 4.5068 9.39465 4.57426 9.17503 4.7607C8.94872 4.95282 8.67663 5.22409 8.27186 5.62886L5.5346 8.36612C5.24171 8.65901 4.76684 8.65901 4.47394 8.36612C4.18105 8.07323 4.18105 7.59835 4.47394 7.30546L7.23273 4.54667C7.61042 4.16896 7.92567 3.8537 8.20427 3.61719C8.49483 3.37052 8.79448 3.16578 9.15448 3.04881Z" fill="#020203"/>
<path opacity="0.4" fill-rule="evenodd" clip-rule="evenodd" d="M10.0043 3.58577C10.4185 3.58576 10.7543 3.92154 10.7543 4.33576L10.0043 4.33577L9.25427 4.33578C9.25426 3.92157 9.59004 3.58578 10.0043 3.58577ZM10.0043 4.33577L9.25427 4.33578V15.3357C9.25422 16.9216 9.58178 18.3727 10.4559 19.4368C11.3529 20.5288 12.7181 21.0858 14.5045 21.0858H19.0043C19.4185 21.0858 19.7543 20.75 19.7543 20.3358C19.7543 19.9216 19.4185 19.5858 19.0043 19.5858H14.5045C13.0406 19.5858 12.1556 19.1427 11.615 18.4847C11.0516 17.7989 10.7542 16.7499 10.7543 15.3358V4.33576L10.0043 4.33577Z" fill="#020203"/>
</svg>
