<svg width="24" height="24" viewBox="0 0 24 24" fill="none" xmlns="http://www.w3.org/2000/svg">
<path fill-rule="evenodd" clip-rule="evenodd" d="M15.6383 4.46965C15.9312 4.17676 16.406 4.17676 16.6989 4.46965L19.4577 7.22844C19.8354 7.60613 20.1507 7.92139 20.3872 8.19998C20.6339 8.49055 20.8386 8.7902 20.9556 9.15019C21.135 9.70251 21.135 10.2975 20.9556 10.8498C20.8386 11.2098 20.6339 11.5094 20.3872 11.8C20.1507 12.0786 19.8354 12.3938 19.4577 12.7715L16.6989 15.5303C16.406 15.8232 15.9312 15.8232 15.6383 15.5303C15.3454 15.2374 15.3454 14.7625 15.6383 14.4697L18.3755 11.7324C18.7803 11.3276 19.0516 11.0555 19.2437 10.8292C19.4301 10.6096 19.4976 10.4829 19.529 10.3863C19.6106 10.1352 19.6106 9.86477 19.529 9.61371C19.4976 9.51705 19.4301 9.39036 19.2437 9.17075C19.0516 8.94443 18.7803 8.67234 18.3755 8.26757L15.6383 5.53031C15.3454 5.23742 15.3454 4.76255 15.6383 4.46965Z" fill="#020203"/>
<path opacity="0.4" fill-rule="evenodd" clip-rule="evenodd" d="M4.56753 10.4517C5.63169 9.57749 7.08275 9.24993 8.66862 9.24998H19.6685L19.6686 9.99998L19.6685 10.75H8.66856C7.25444 10.7499 6.20551 11.0473 5.51966 11.6107C4.86162 12.1513 4.41859 13.0363 4.41858 14.5002V19C4.41858 19.4142 4.08279 19.75 3.66858 19.75C3.25437 19.75 2.91858 19.4142 2.91858 19V14.5002C2.91859 12.7138 3.47557 11.3487 4.56753 10.4517ZM20.4186 9.99997C20.4186 10.4142 20.0827 10.75 19.6685 10.75L19.6686 9.99998L19.6685 9.24998C20.0827 9.24998 20.4186 9.58576 20.4186 9.99997Z" fill="#020203"/>
</svg>
