<svg width="24" height="24" viewBox="0 0 24 24" fill="none" xmlns="http://www.w3.org/2000/svg">
<path fill-rule="evenodd" clip-rule="evenodd" d="M8.36011 4.46967C8.653 4.76256 8.653 5.23744 8.36011 5.53033L5.62285 8.26759C5.21808 8.67236 4.94681 8.94445 4.75469 9.17076C4.56825 9.39038 4.50079 9.51706 4.46938 9.61373C4.38781 9.86478 4.38781 10.1352 4.46938 10.3863C4.50079 10.4829 4.56825 10.6096 4.75469 10.8292C4.94681 11.0556 5.21808 11.3276 5.62285 11.7324L8.36011 14.4697C8.653 14.7626 8.653 15.2374 8.36011 15.5303C8.06721 15.8232 7.59234 15.8232 7.29945 15.5303L4.54066 12.7715C4.16295 12.3939 3.84769 12.0786 3.61118 11.8C3.36451 11.5094 3.15977 11.2098 3.0428 10.8498C2.86334 10.2975 2.86334 9.70252 3.0428 9.1502C3.15977 8.79021 3.36451 8.49056 3.61118 8.2C3.84769 7.9214 4.16295 7.60615 4.54066 7.22845L7.29945 4.46967C7.59234 4.17678 8.06721 4.17678 8.36011 4.46967Z" fill="#020203"/>
<path opacity="0.4" fill-rule="evenodd" clip-rule="evenodd" d="M3.57996 9.99999C3.57996 9.58577 3.91576 9.24999 4.32997 9.25L4.32996 10L4.32994 10.75C3.91573 10.75 3.57995 10.4142 3.57996 9.99999ZM4.32996 10L4.32994 10.75H15.33C16.7441 10.75 17.793 11.0473 18.4789 11.6107C19.1369 12.1513 19.5799 13.0363 19.58 14.5002V19C19.58 19.4142 19.9157 19.75 20.33 19.75C20.7442 19.75 21.08 19.4142 21.08 19V14.5002C21.0799 12.7138 20.523 11.3487 19.431 10.4517C18.3668 9.5775 16.9158 9.24995 15.3299 9.25H4.32997L4.32996 10Z" fill="#020203"/>
</svg>
