<svg width="24" height="24" viewBox="0 0 24 24" fill="none" xmlns="http://www.w3.org/2000/svg">
<path fill-rule="evenodd" clip-rule="evenodd" d="M8.47391 15.6339C8.76681 15.341 9.24168 15.341 9.53457 15.6339L12.2718 18.3711C12.6766 18.7759 12.9487 19.0472 13.175 19.2393C13.3946 19.4257 13.5213 19.4932 13.618 19.5246C13.869 19.6062 14.1395 19.6062 14.3905 19.5246C14.4872 19.4932 14.6139 19.4257 14.8335 19.2393C15.0598 19.0472 15.3319 18.7759 15.7367 18.3711L18.4739 15.6339C18.7668 15.341 19.2417 15.341 19.5346 15.6339C19.8275 15.9268 19.8275 16.4017 19.5346 16.6945L16.7758 19.4533C16.3981 19.831 16.0828 20.1463 15.8042 20.3828C15.5137 20.6295 15.214 20.8342 14.854 20.9512C14.3017 21.1307 13.7068 21.1307 13.1544 20.9512C12.7945 20.8342 12.4948 20.6295 12.2042 20.3828C11.9256 20.1463 11.6104 19.831 11.2327 19.4533L8.47391 16.6945C8.18102 16.4017 8.18102 15.9268 8.47391 15.6339Z" fill="#020203"/>
<path fill-rule="evenodd" clip-rule="evenodd" d="M4.25424 3.66422C4.25424 3.25 4.59003 2.91422 5.00424 2.91422H9.50401C11.2904 2.91423 12.6556 3.47121 13.5526 4.56317C14.4267 5.62733 14.7543 7.07839 14.7542 8.66425V19.6641L14.0042 19.6642L13.2542 19.6642V8.6642C13.2543 7.25008 12.9569 6.20114 12.3935 5.5153C11.8529 4.85726 10.9679 4.41422 9.50401 4.41422H5.00424C4.59003 4.41422 4.25424 4.07843 4.25424 3.66422ZM14.0043 20.4142C13.59 20.4142 13.2542 20.0784 13.2542 19.6642L14.0042 19.6642L14.7542 19.6641C14.7542 20.0784 14.4185 20.4142 14.0043 20.4142Z" fill="#020203"/>
</svg>
