<svg width="24" height="24" viewBox="0 0 24 24" fill="none" xmlns="http://www.w3.org/2000/svg">
<path fill-rule="evenodd" clip-rule="evenodd" d="M4.46381 15.634C4.7567 15.3411 5.23158 15.3411 5.52447 15.634L8.26173 18.3713C8.6665 18.7761 8.93859 19.0473 9.1649 19.2395C9.38452 19.4259 9.51121 19.4934 9.60787 19.5248C9.85892 19.6063 10.1294 19.6063 10.3804 19.5248C10.4771 19.4934 10.6038 19.4259 10.8234 19.2395C11.0497 19.0473 11.3218 18.7761 11.7266 18.3713L14.4638 15.634C14.7567 15.3411 15.2316 15.3411 15.5245 15.634C15.8174 15.9269 15.8174 16.4018 15.5245 16.6947L12.7657 19.4535C12.388 19.8312 12.0727 20.1465 11.7941 20.383C11.5036 20.6296 11.2039 20.8344 10.8439 20.9513C10.2916 21.1308 9.69666 21.1308 9.14434 20.9513C8.78435 20.8344 8.4847 20.6296 8.19414 20.383C7.91554 20.1465 7.60029 19.8312 7.2226 19.4535L4.46381 16.6947C4.17092 16.4018 4.17092 15.9269 4.46381 15.634Z" fill="#020203"/>
<path opacity="0.4" fill-rule="evenodd" clip-rule="evenodd" d="M11.6049 5.51515C11.0415 6.20099 10.7441 7.24992 10.7441 8.66404V19.664L9.99414 19.6641L9.24414 19.664V8.6641C9.24409 7.07823 9.57164 5.62717 10.4458 4.56301C11.3428 3.47105 12.7079 2.91407 14.4944 2.91406H18.9941C19.4084 2.91406 19.7441 3.24985 19.7441 3.66406C19.7441 4.07828 19.4084 4.41406 18.9941 4.41406H14.4944C13.0305 4.41407 12.1454 4.8571 11.6049 5.51515ZM9.99413 20.4141C9.57991 20.4141 9.24413 20.0782 9.24414 19.664L9.99414 19.6641L10.7441 19.664C10.7441 20.0782 10.4083 20.4141 9.99413 20.4141Z" fill="#020203"/>
</svg>
