<svg width="24" height="24" viewBox="0 0 24 24" fill="none" xmlns="http://www.w3.org/2000/svg">
<path fill-rule="evenodd" clip-rule="evenodd" d="M12 8.75C10.2051 8.75 8.75 10.2051 8.75 12C8.75 13.7949 10.2051 15.25 12 15.25C13.7949 15.25 15.25 13.7949 15.25 12C15.25 10.2051 13.7949 8.75 12 8.75ZM11 12C11 12.5523 11.4477 13 12 13C12.5523 13 13 12.5523 13 12V11.999C13 11.4467 12.5523 10.999 12 10.999C11.4477 10.999 11 11.4467 11 11.999V12Z" fill="#020203"/>
<path fill-rule="evenodd" clip-rule="evenodd" d="M4.75 12C4.75 7.99594 7.99594 4.75 12 4.75C16.0041 4.75 19.25 7.99594 19.25 12C19.25 16.0041 16.0041 19.25 12 19.25C7.99594 19.25 4.75 16.0041 4.75 12ZM7.25 12C7.25 9.37665 9.37665 7.25 12 7.25C14.6234 7.25 16.75 9.37665 16.75 12C16.75 14.6234 14.6234 16.75 12 16.75C9.37665 16.75 7.25 14.6234 7.25 12Z" fill="#020203"/>
<path fill-rule="evenodd" clip-rule="evenodd" d="M12 22.749C6.06294 22.749 1.25 17.9361 1.25 11.999C1.25 6.06196 6.06294 1.24902 12 1.24902C17.9371 1.24902 22.75 6.06196 22.75 11.999C22.75 17.9361 17.9371 22.749 12 22.749ZM12 3.25C7.16751 3.25 3.25 7.16751 3.25 12C3.25 16.8325 7.16751 20.75 12 20.75C16.8325 20.75 20.75 16.8325 20.75 12C20.75 7.16751 16.8325 3.25 12 3.25Z" fill="#020203"/>
</svg>
