<svg width="24" height="24" viewBox="0 0 24 24" fill="none" xmlns="http://www.w3.org/2000/svg">
<path d="M9.75 12C9.75 10.7574 10.7574 9.75 12 9.75C13.2426 9.75 14.25 10.7574 14.25 12C14.25 13.2426 13.2426 14.25 12 14.25C10.7574 14.25 9.75 13.2426 9.75 12Z" fill="#020203"/>
<path fill-rule="evenodd" clip-rule="evenodd" d="M12 22.75C6.06294 22.75 1.25 17.9371 1.25 12C1.25 6.06294 6.06294 1.25 12 1.25C17.9371 1.25 22.75 6.06294 22.75 12C22.75 17.9371 17.9371 22.75 12 22.75ZM12 8.25C9.92893 8.25 8.25 9.92893 8.25 12C8.25 14.0711 9.92893 15.75 12 15.75C14.0711 15.75 15.75 14.0711 15.75 12C15.75 11.2506 15.5302 10.5525 15.1515 9.96678L17.2545 8.05496C17.561 7.77632 17.5836 7.30199 17.3049 6.9955C17.0263 6.689 16.552 6.66641 16.2455 6.94504L14.1018 8.89389C13.5023 8.48744 12.7789 8.25 12 8.25ZM4.5 12.001C4.5 12.5533 4.94772 13.001 5.5 13.001C6.05228 13.001 6.5 12.5533 6.5 12.001V12C6.5 11.4477 6.05228 11 5.5 11C4.94772 11 4.5 11.4477 4.5 12V12.001ZM7.25 17.5C6.69772 17.5 6.25 17.0523 6.25 16.5V16.499C6.25 15.9467 6.69772 15.499 7.25 15.499C7.80228 15.499 8.25 15.9467 8.25 16.499V16.5C8.25 17.0523 7.80228 17.5 7.25 17.5ZM15.75 16.5C15.75 17.0523 16.1977 17.5 16.75 17.5C17.3023 17.5 17.75 17.0523 17.75 16.5V16.499C17.75 15.9467 17.3023 15.499 16.75 15.499C16.1977 15.499 15.75 15.9467 15.75 16.499V16.5ZM18.5 13.001C17.9477 13.001 17.5 12.5533 17.5 12.001V12C17.5 11.4477 17.9477 11 18.5 11C19.0523 11 19.5 11.4477 19.5 12V12.001C19.5 12.5533 19.0523 13.001 18.5 13.001ZM11 5.50098C11 6.05326 11.4477 6.50098 12 6.50098C12.5523 6.50098 13 6.05326 13 5.50098C13 4.94869 12.5523 4.49998 12 4.49998C11.4477 4.49998 11 4.94869 11 5.50098ZM12 19.5C11.4477 19.5 11 19.0523 11 18.5C11 17.9477 11.4477 17.499 12 17.499C12.5523 17.499 13 17.9467 13 18.499C13 19.0513 12.5523 19.5 12 19.5ZM6.25 7.5C6.25 8.05228 6.69772 8.5 7.25 8.5C7.80228 8.5 8.25 8.05228 8.25 7.5C8.25 6.94772 7.80228 6.499 7.25 6.499C6.69772 6.499 6.25 6.94772 6.25 7.5Z" fill="#020203"/>
</svg>
