<svg width="24" height="24" viewBox="0 0 24 24" fill="none" xmlns="http://www.w3.org/2000/svg">
<path opacity="0.4" d="M1.25 12C1.25 17.9371 6.06294 22.75 12 22.75C17.9371 22.75 22.75 17.9371 22.75 12C22.75 6.06294 17.9371 1.25 12 1.25C6.06294 1.25 1.25 6.06294 1.25 12Z" fill="#020203"/>
<path d="M8.25 12C8.25 9.92893 9.92893 8.25 12 8.25C14.0711 8.25 15.75 9.92893 15.75 12C15.75 14.0711 14.0711 15.75 12 15.75C9.92893 15.75 8.25 14.0711 8.25 12Z" fill="#020203"/>
<path fill-rule="evenodd" clip-rule="evenodd" d="M17.3049 6.9955C17.5836 7.30199 17.561 7.77633 17.2545 8.05496L15.0545 10.055C14.748 10.3336 14.2737 10.311 13.995 10.0045C13.7164 9.69801 13.739 9.22368 14.0455 8.94505L16.2455 6.94505C16.552 6.66642 17.0263 6.689 17.3049 6.9955Z" fill="#020203"/>
<path fill-rule="evenodd" clip-rule="evenodd" d="M5.5 13.001C4.94772 13.001 4.5 12.5533 4.5 12.001L4.5 12C4.5 11.4477 4.94772 11 5.5 11C6.05228 11 6.5 11.4477 6.5 12L6.5 12.001C6.5 12.5533 6.05228 13.001 5.5 13.001Z" fill="#020203"/>
<path fill-rule="evenodd" clip-rule="evenodd" d="M7.25 17.5C6.69772 17.5 6.25 17.0523 6.25 16.5L6.25 16.499C6.25 15.9467 6.69772 15.499 7.25 15.499C7.80228 15.499 8.25 15.9467 8.25 16.499L8.25 16.5C8.25 17.0523 7.80228 17.5 7.25 17.5Z" fill="#020203"/>
<path fill-rule="evenodd" clip-rule="evenodd" d="M16.75 17.5C16.1977 17.5 15.75 17.0523 15.75 16.5L15.75 16.499C15.75 15.9467 16.1977 15.499 16.75 15.499C17.3023 15.499 17.75 15.9467 17.75 16.499L17.75 16.5C17.75 17.0523 17.3023 17.5 16.75 17.5Z" fill="#020203"/>
<path fill-rule="evenodd" clip-rule="evenodd" d="M18.5 13.001C17.9477 13.001 17.5 12.5533 17.5 12.001L17.5 12C17.5 11.4477 17.9477 11 18.5 11C19.0523 11 19.5 11.4477 19.5 12L19.5 12.001C19.5 12.5533 19.0523 13.001 18.5 13.001Z" fill="#020203"/>
<path fill-rule="evenodd" clip-rule="evenodd" d="M12 6.50098C11.4477 6.50098 11 6.05326 11 5.50098L11 5.49998C11 4.94769 11.4477 4.49998 12 4.49998C12.5523 4.49998 13 4.94769 13 5.49998L13 5.50098C13 6.05326 12.5523 6.50098 12 6.50098Z" fill="#020203"/>
<path fill-rule="evenodd" clip-rule="evenodd" d="M12 19.5C11.4477 19.5 11 19.0523 11 18.5L11 18.499C11 17.9467 11.4477 17.499 12 17.499C12.5523 17.499 13 17.9467 13 18.499L13 18.5C13 19.0523 12.5523 19.5 12 19.5Z" fill="#020203"/>
<path fill-rule="evenodd" clip-rule="evenodd" d="M7.25 8.5C6.69772 8.5 6.25 8.05228 6.25 7.5L6.25 7.499C6.25 6.94672 6.69772 6.499 7.25 6.499C7.80228 6.499 8.25 6.94672 8.25 7.499L8.25 7.5C8.25 8.05228 7.80228 8.5 7.25 8.5Z" fill="#020203"/>
</svg>
