<svg width="24" height="24" viewBox="0 0 24 24" fill="none" xmlns="http://www.w3.org/2000/svg">
<path d="M14.75 12C14.75 11.3096 15.3096 10.75 16 10.75C16.6904 10.75 17.25 11.3096 17.25 12C17.25 12.6904 16.6904 13.25 16 13.25C15.3096 13.25 14.75 12.6904 14.75 12Z" fill="#020203"/>
<path fill-rule="evenodd" clip-rule="evenodd" d="M12 22.75C6.06294 22.75 1.25 17.9371 1.25 12C1.25 6.06294 6.06294 1.25 12 1.25C17.9371 1.25 22.75 6.06294 22.75 12C22.75 17.9371 17.9371 22.75 12 22.75ZM16 9.25C14.4812 9.25 13.25 10.4812 13.25 12C13.25 13.5188 14.4812 14.75 16 14.75C17.5188 14.75 18.75 13.5188 18.75 12C18.75 10.4812 17.5188 9.25 16 9.25ZM5.25 12C5.25 11.5858 5.58579 11.25 6 11.25H7C7.41421 11.25 7.75 11.5858 7.75 12C7.75 12.4142 7.41421 12.75 7 12.75H6C5.58579 12.75 5.25 12.4142 5.25 12ZM12.75 10C12.75 9.74007 12.6154 9.49867 12.3943 9.36201C12.1732 9.22536 11.8971 9.21293 11.6646 9.32918L9.66459 10.3292C9.29411 10.5144 9.14394 10.9649 9.32918 11.3354C9.51442 11.7059 9.96493 11.8561 10.3354 11.6708L11.25 11.2135V14C11.25 14.4142 11.5858 14.75 12 14.75C12.4142 14.75 12.75 14.4142 12.75 14V10Z" fill="#020203"/>
</svg>
