<svg width="24" height="24" viewBox="0 0 24 24" fill="none" xmlns="http://www.w3.org/2000/svg">
<path d="M2 12C2 17.5228 6.47715 22 12 22C17.5228 22 22 17.5228 22 12C22 6.47715 17.5228 2 12 2C6.47715 2 2 6.47715 2 12Z" stroke="#020203" stroke-width="1.5" stroke-linecap="round"/>
<path d="M14 12C14 13.1046 14.8954 14 16 14C17.1046 14 18 13.1046 18 12C18 10.8954 17.1046 10 16 10C14.8954 10 14 10.8954 14 12Z" stroke="#020203" stroke-width="1.5" stroke-linecap="round"/>
<path d="M6 12H7" stroke="#020203" stroke-width="1.5" stroke-linecap="round"/>
<path d="M10 11L12 10V14" stroke="#020203" stroke-width="1.5" stroke-linecap="round" stroke-linejoin="round"/>
</svg>
