<svg width="24" height="24" viewBox="0 0 24 24" fill="none" xmlns="http://www.w3.org/2000/svg">
<path opacity="0.4" d="M1.25 12C1.25 17.9371 6.06294 22.75 12 22.75C17.9371 22.75 22.75 17.9371 22.75 12C22.75 6.06294 17.9371 1.25 12 1.25C6.06294 1.25 1.25 6.06294 1.25 12Z" fill="#020203"/>
<path fill-rule="evenodd" clip-rule="evenodd" d="M5.25 12C5.25 11.5858 5.58579 11.25 6 11.25H7C7.41421 11.25 7.75 11.5858 7.75 12C7.75 12.4142 7.41421 12.75 7 12.75H6C5.58579 12.75 5.25 12.4142 5.25 12Z" fill="#020203"/>
<path fill-rule="evenodd" clip-rule="evenodd" d="M12.3943 9.36201C12.6154 9.49867 12.75 9.74007 12.75 10V14C12.75 14.4142 12.4142 14.75 12 14.75C11.5858 14.75 11.25 14.4142 11.25 14V11.2135L10.3354 11.6708C9.96491 11.8561 9.5144 11.7059 9.32916 11.3354C9.14392 10.9649 9.29409 10.5144 9.66457 10.3292L11.6646 9.32918C11.8971 9.21293 12.1732 9.22536 12.3943 9.36201Z" fill="#020203"/>
<path fill-rule="evenodd" clip-rule="evenodd" d="M16 10.75C15.3096 10.75 14.75 11.3096 14.75 12C14.75 12.6904 15.3096 13.25 16 13.25C16.6904 13.25 17.25 12.6904 17.25 12C17.25 11.3096 16.6904 10.75 16 10.75ZM13.25 12C13.25 10.4812 14.4812 9.25 16 9.25C17.5188 9.25 18.75 10.4812 18.75 12C18.75 13.5188 17.5188 14.75 16 14.75C14.4812 14.75 13.25 13.5188 13.25 12Z" fill="#020203"/>
</svg>
