<svg width="24" height="24" viewBox="0 0 24 24" fill="none" xmlns="http://www.w3.org/2000/svg">
<path opacity="0.4" d="M2 12C2 17.5228 6.47715 22 12 22C17.5228 22 22 17.5228 22 12C22 6.47715 17.5228 2 12 2C6.47715 2 2 6.47715 2 12Z" stroke="#020203" stroke-width="1.5" stroke-linecap="round"/>
<path d="M10.829 8.72409L14.4208 7.74451C15.5406 7.43913 16.568 8.46658 16.2626 9.58633L15.2831 13.1781C15.0036 14.2029 14.203 15.0036 13.1781 15.2831L9.58634 16.2626C8.46659 16.568 7.43913 15.5406 7.74451 14.4208L8.72409 10.829C9.00359 9.8042 9.8042 9.00359 10.829 8.72409Z" stroke="#020203" stroke-width="1.5" stroke-linecap="round"/>
<path d="M12 12L12 11.999" stroke="#020203" stroke-width="2" stroke-linecap="round" stroke-linejoin="round"/>
</svg>
