<svg width="24" height="24" viewBox="0 0 24 24" fill="none" xmlns="http://www.w3.org/2000/svg">
<path fill-rule="evenodd" clip-rule="evenodd" d="M15.5391 9.389C15.6918 8.82912 15.178 8.31539 14.6182 8.46809L11.0264 9.44767C10.2577 9.65729 9.65729 10.2577 9.44767 11.0264L8.46809 14.6182C8.31539 15.178 8.82912 15.6918 9.389 15.5391L12.9808 14.5595C13.7494 14.3499 14.3499 13.7494 14.5595 12.9808L15.5391 9.389ZM11 12C11 12.5523 11.4477 13 12 13C12.5523 13 13 12.5523 13 12V11.999C13 11.4467 12.5523 10.999 12 10.999C11.4477 10.999 11 11.4467 11 11.999V12Z" fill="#020203"/>
<path fill-rule="evenodd" clip-rule="evenodd" d="M1.25 12C1.25 17.9371 6.06294 22.75 12 22.75C17.9371 22.75 22.75 17.9371 22.75 12C22.75 6.06294 17.9371 1.25 12 1.25C6.06294 1.25 1.25 6.06294 1.25 12ZM14.2235 7.02094C15.9031 6.56286 17.4443 8.10405 16.9862 9.78367L16.0066 13.3755C15.6573 14.6565 14.6565 15.6573 13.3755 16.0066L9.78367 16.9862C8.10405 17.4443 6.56286 15.9031 7.02094 14.2235L8.00052 10.6317C8.34989 9.35066 9.35066 8.34989 10.6317 8.00052L14.2235 7.02094Z" fill="#020203"/>
</svg>
