<svg width="24" height="24" viewBox="0 0 24 24" fill="none" xmlns="http://www.w3.org/2000/svg">
<path opacity="0.4" d="M1.25 12C1.25 17.9371 6.06294 22.75 12 22.75C17.9371 22.75 22.75 17.9371 22.75 12C22.75 6.06294 17.9371 1.25 12 1.25C6.06294 1.25 1.25 6.06294 1.25 12Z" fill="#020203"/>
<path fill-rule="evenodd" clip-rule="evenodd" d="M14.4208 7.74451L10.829 8.72409C9.8042 9.00359 9.00359 9.8042 8.72409 10.829L7.74451 14.4208C7.43913 15.5406 8.46659 16.568 9.58634 16.2626L13.1781 15.2831C14.203 15.0036 15.0036 14.203 15.2831 13.1781L16.2626 9.58634C16.568 8.46659 15.5406 7.43913 14.4208 7.74451ZM11 12C11 12.5523 11.4477 13 12 13C12.5523 13 13 12.5523 13 12C13 11.4477 12.5523 10.999 12 10.999C11.4477 10.999 11 11.4477 11 12Z" fill="#020203"/>
</svg>
