<svg width="24" height="24" viewBox="0 0 24 24" fill="none" xmlns="http://www.w3.org/2000/svg">
<path d="M4 15.5C4 14.1055 4 13.4082 4.13815 12.8328C4.57707 11.0045 6.00453 9.57707 7.83277 9.13815C8.40821 9 9.10547 9 10.5 9H13.5C14.8945 9 15.5918 9 16.1672 9.13815C17.9955 9.57707 19.4229 11.0045 19.8618 12.8328C20 13.4082 20 14.1055 20 15.5C20 16.8945 20 17.5918 19.8618 18.1672C19.4229 19.9955 17.9955 21.4229 16.1672 21.8618C15.5918 22 14.8945 22 13.5 22H10.5C9.10547 22 8.40821 22 7.83277 21.8618C6.00453 21.4229 4.57707 19.9955 4.13815 18.1672C4 17.5918 4 16.8945 4 15.5Z" stroke="#020203" stroke-width="1.5"/>
<path d="M9 9V7.5C9 6.16667 10 5 12 5C14 5 15 6.16667 15 7.5V9" stroke="#020203" stroke-width="1.5" stroke-linecap="round"/>
<path d="M12 2L12 5" stroke="#020203" stroke-width="1.5" stroke-linecap="round"/>
<path d="M16 2H9C7.5 2 6.77895 2.58984 6 4" stroke="#020203" stroke-width="1.5" stroke-linecap="round"/>
</svg>
