<svg width="24" height="24" viewBox="0 0 24 24" fill="none" xmlns="http://www.w3.org/2000/svg">
<path d="M3.25 15.5C3.25 14.1059 3.25 13.4089 3.37027 12.8301C3.83617 10.5881 5.58806 8.83617 7.83013 8.37027C8.40888 8.25 9.10592 8.25 10.5 8.25H13.5C14.8941 8.25 15.5911 8.25 16.1699 8.37027C18.4119 8.83617 20.1638 10.5881 20.6297 12.8301C20.75 13.4089 20.75 14.1059 20.75 15.5C20.75 16.8941 20.75 17.5911 20.6297 18.1699C20.1638 20.4119 18.4119 22.1638 16.1699 22.6297C15.5911 22.75 14.8941 22.75 13.5 22.75H10.5C9.10592 22.75 8.40888 22.75 7.83013 22.6297C5.58806 22.1638 3.83617 20.4119 3.37027 18.1699C3.25 17.5911 3.25 16.8941 3.25 15.5Z" fill="#020203"/>
<path d="M9.047 7.00945C9.43381 7 9.90301 7 10.5001 7H13.5001C14.0971 7 14.5663 7 14.9531 7.00945C14.7342 5.89306 13.7499 5 12.0001 5C10.2502 5 9.26587 5.89306 9.047 7.00945Z" fill="#020203"/>
<path fill-rule="evenodd" clip-rule="evenodd" d="M12 1.25C12.4142 1.25 12.75 1.58579 12.75 2L12.75 5C12.75 5.41421 12.4142 5.75 12 5.75C11.5858 5.75 11.25 5.41421 11.25 5L11.25 2C11.25 1.58579 11.5858 1.25 12 1.25Z" fill="#020203"/>
<path fill-rule="evenodd" clip-rule="evenodd" d="M6.80118 1.85561C7.42725 1.41987 8.14619 1.25 9.00002 1.25H16C16.4142 1.25 16.75 1.58579 16.75 2C16.75 2.41421 16.4142 2.75 16 2.75H9.00002C8.35384 2.75 7.96226 2.87505 7.65807 3.08677C7.33417 3.3122 7.02683 3.69225 6.65652 4.36264C6.45623 4.72522 5.99995 4.85678 5.63737 4.6565C5.2748 4.45622 5.14324 3.99993 5.34352 3.63736C5.75215 2.89759 6.19481 2.27765 6.80118 1.85561Z" fill="#020203"/>
</svg>
