<svg width="24" height="24" viewBox="0 0 24 24" fill="none" xmlns="http://www.w3.org/2000/svg">
<path opacity="0.4" fill-rule="evenodd" clip-rule="evenodd" d="M1.25 21C1.25 20.5858 1.58579 20.25 2 20.25L22 20.25C22.4142 20.25 22.75 20.5858 22.75 21C22.75 21.4142 22.4142 21.75 22 21.75L2 21.75C1.58579 21.75 1.25 21.4142 1.25 21Z" fill="#020203"/>
<path opacity="0.4" fill-rule="evenodd" clip-rule="evenodd" d="M1.25 3C1.25 2.58579 1.58579 2.25 2 2.25L22 2.25C22.4142 2.25 22.75 2.58579 22.75 3C22.75 3.41421 22.4142 3.75 22 3.75L2 3.75C1.58579 3.75 1.25 3.41421 1.25 3Z" fill="#020203"/>
<path d="M1.25 12C1.25 8.82436 3.82436 6.25 7 6.25H17C20.1756 6.25 22.75 8.82436 22.75 12C22.75 15.1756 20.1756 17.75 17 17.75H7C3.82436 17.75 1.25 15.1756 1.25 12Z" fill="#020203"/>
</svg>
