<svg width="24" height="24" viewBox="0 0 24 24" fill="none" xmlns="http://www.w3.org/2000/svg">
<path fill-rule="evenodd" clip-rule="evenodd" d="M3 1.25C3.41421 1.25 3.75 1.58579 3.75 2V22C3.75 22.4142 3.41421 22.75 3 22.75C2.58579 22.75 2.25 22.4142 2.25 22V2C2.25 1.58579 2.58579 1.25 3 1.25Z" fill="#020203"/>
<path fill-rule="evenodd" clip-rule="evenodd" d="M21 1.25C21.4142 1.25 21.75 1.58579 21.75 2V22C21.75 22.4142 21.4142 22.75 21 22.75C20.5858 22.75 20.25 22.4142 20.25 22V2C20.25 1.58579 20.5858 1.25 21 1.25Z" fill="#020203"/>
<path d="M6.25 7C6.25 3.82436 8.82436 1.25 12 1.25C15.1756 1.25 17.75 3.82436 17.75 7V17C17.75 20.1756 15.1756 22.75 12 22.75C8.82436 22.75 6.25 20.1756 6.25 17V7Z" fill="#020203"/>
</svg>
