<svg width="24" height="24" viewBox="0 0 24 24" fill="none" xmlns="http://www.w3.org/2000/svg">
<path fill-rule="evenodd" clip-rule="evenodd" d="M3.5559 5.56864C3.25 6.5101 3.25 7.6734 3.25 10V14C3.25 16.3266 3.25 17.4899 3.5559 18.4314C4.17413 20.3341 5.66591 21.8259 7.56864 22.4441C8.5101 22.75 9.6734 22.75 12 22.75C14.3266 22.75 15.4899 22.75 16.4314 22.4441C18.3341 21.8259 19.8259 20.3341 20.4441 18.4314C20.75 17.4899 20.75 16.3266 20.75 14V10C20.75 7.6734 20.75 6.5101 20.4441 5.56864C19.8259 3.66591 18.3341 2.17413 16.4314 1.5559C15.4899 1.25 14.3266 1.25 12 1.25C9.6734 1.25 8.5101 1.25 7.56864 1.5559C5.66591 2.17413 4.17413 3.66591 3.5559 5.56864ZM9 11.25C8.58579 11.25 8.25 11.5858 8.25 12C8.25 12.4142 8.58579 12.75 9 12.75H15C15.4142 12.75 15.75 12.4142 15.75 12C15.75 11.5858 15.4142 11.25 15 11.25H9ZM8.25 8C8.25 7.58579 8.58579 7.25 9 7.25H15C15.4142 7.25 15.75 7.58579 15.75 8C15.75 8.41421 15.4142 8.75 15 8.75H9C8.58579 8.75 8.25 8.41421 8.25 8ZM9 15.25C8.58579 15.25 8.25 15.5858 8.25 16C8.25 16.4142 8.58579 16.75 9 16.75H12.9999C13.4141 16.75 13.7499 16.4142 13.7499 16C13.7499 15.5858 13.4141 15.25 12.9999 15.25H9Z" fill="#020203"/>
</svg>
