<svg width="24" height="24" viewBox="0 0 24 24" fill="none" xmlns="http://www.w3.org/2000/svg">
<path opacity="0.4" d="M3.25 10C3.25 7.6734 3.25 6.5101 3.5559 5.56864C4.17413 3.66591 5.66591 2.17413 7.56864 1.5559C8.5101 1.25 9.6734 1.25 12 1.25C14.3266 1.25 15.4899 1.25 16.4314 1.5559C18.3341 2.17413 19.8259 3.66591 20.4441 5.56864C20.75 6.5101 20.75 7.6734 20.75 10V14C20.75 16.3266 20.75 17.4899 20.4441 18.4314C19.8259 20.3341 18.3341 21.8259 16.4314 22.4441C15.4899 22.75 14.3266 22.75 12 22.75C9.6734 22.75 8.5101 22.75 7.56864 22.4441C5.66591 21.8259 4.17413 20.3341 3.5559 18.4314C3.25 17.4899 3.25 16.3266 3.25 14V10Z" fill="#020203"/>
<path fill-rule="evenodd" clip-rule="evenodd" d="M8.25 12C8.25 11.5858 8.58579 11.25 9 11.25H15C15.4142 11.25 15.75 11.5858 15.75 12C15.75 12.4142 15.4142 12.75 15 12.75H9C8.58579 12.75 8.25 12.4142 8.25 12Z" fill="#020203"/>
<path fill-rule="evenodd" clip-rule="evenodd" d="M8.25 8C8.25 7.58579 8.58579 7.25 9 7.25H15C15.4142 7.25 15.75 7.58579 15.75 8C15.75 8.41421 15.4142 8.75 15 8.75H9C8.58579 8.75 8.25 8.41421 8.25 8Z" fill="#020203"/>
<path fill-rule="evenodd" clip-rule="evenodd" d="M8.25 16C8.25 15.5858 8.58579 15.25 9 15.25H12.9999C13.4141 15.25 13.7499 15.5858 13.7499 16C13.7499 16.4142 13.4141 16.75 12.9999 16.75H9C8.58579 16.75 8.25 16.4142 8.25 16Z" fill="#020203"/>
</svg>
