<svg width="24" height="24" viewBox="0 0 24 24" fill="none" xmlns="http://www.w3.org/2000/svg">
<path fill-rule="evenodd" clip-rule="evenodd" d="M4.46323 5.44867C4.25 6.20968 4.25 7.13979 4.25 9V22.75H19.75V9C19.75 7.13979 19.75 6.20968 19.5368 5.44867C18.9951 3.51553 17.4845 2.00486 15.5513 1.46323C14.7903 1.25 13.8602 1.25 12 1.25C10.1398 1.25 9.20968 1.25 8.44867 1.46323C6.51553 2.00486 5.00486 3.51553 4.46323 5.44867ZM14 11.25C13.5858 11.25 13.25 11.5858 13.25 12C13.25 12.4142 13.5858 12.75 14 12.75H15C15.4142 12.75 15.75 12.4142 15.75 12C15.75 11.5858 15.4142 11.25 15 11.25H14Z" fill="#020203"/>
<path fill-rule="evenodd" clip-rule="evenodd" d="M2.25 22C2.25 21.5858 2.58579 21.25 3 21.25H21C21.4142 21.25 21.75 21.5858 21.75 22C21.75 22.4142 21.4142 22.75 21 22.75H3C2.58579 22.75 2.25 22.4142 2.25 22Z" fill="#020203"/>
</svg>
