<svg width="24" height="24" viewBox="0 0 24 24" fill="none" xmlns="http://www.w3.org/2000/svg">
<path fill-rule="evenodd" clip-rule="evenodd" d="M12 7C11.4477 7 11 6.55228 11 6L11 5.999C11 5.44672 11.4477 4.999 12 4.999C12.5523 4.999 13 5.44672 13 5.999L13 6C13 6.55228 12.5523 7 12 7Z" fill="#020203"/>
<path opacity="0.4" fill-rule="evenodd" clip-rule="evenodd" d="M12 13.001C11.4477 13.001 11 12.5533 11 12.001L11 12C11 11.4477 11.4477 11 12 11C12.5523 11 13 11.4477 13 12L13 12.001C13 12.5533 12.5523 13.001 12 13.001Z" fill="#020203"/>
<path fill-rule="evenodd" clip-rule="evenodd" d="M12 19.002C11.4477 19.002 11 18.5542 11 18.002L11 18.001C11 17.4487 11.4477 17.001 12 17.001C12.5523 17.001 13 17.4487 13 18.001L13 18.002C13 18.5542 12.5523 19.002 12 19.002Z" fill="#020203"/>
</svg>
