<svg width="24" height="24" viewBox="0 0 24 24" fill="none" xmlns="http://www.w3.org/2000/svg">
<path fill-rule="evenodd" clip-rule="evenodd" d="M6 13C5.44772 13 5 12.5523 5 12L5 11.999C5 11.4467 5.44772 10.999 6 10.999C6.55228 10.999 7 11.4467 7 11.999V12C7 12.5523 6.55228 13 6 13Z" fill="#020203"/>
<path fill-rule="evenodd" clip-rule="evenodd" d="M12 13C11.4477 13 11 12.5523 11 12V11.999C11 11.4467 11.4477 10.999 12 10.999C12.5523 10.999 13 11.4467 13 11.999V12C13 12.5523 12.5523 13 12 13Z" fill="#020203"/>
<path fill-rule="evenodd" clip-rule="evenodd" d="M18 13C17.4477 13 17 12.5523 17 12V11.999C17 11.4467 17.4477 10.999 18 10.999C18.5523 10.999 19 11.4467 19 11.999V12C19 12.5523 18.5523 13 18 13Z" fill="#020203"/>
</svg>
