<svg width="24" height="24" viewBox="0 0 24 24" fill="none" xmlns="http://www.w3.org/2000/svg">
<path opacity="0.4" fill-rule="evenodd" clip-rule="evenodd" d="M6.55024 6.54926C6.84313 6.25637 7.318 6.25637 7.6109 6.54926L16.6109 15.5493C16.9038 15.8422 16.9038 16.317 16.6109 16.6099C16.318 16.9028 15.8431 16.9028 15.5502 16.6099L6.55024 7.60992C6.25734 7.31703 6.25734 6.84215 6.55024 6.54926Z" fill="#020203"/>
<path fill-rule="evenodd" clip-rule="evenodd" d="M16.9106 9.08957C17.3249 9.08957 17.6606 9.42536 17.6606 9.83957V13.7411C17.6606 14.2752 17.6607 14.7211 17.6309 15.0853C17.5999 15.4652 17.5327 15.8218 17.3609 16.1591C17.0973 16.6766 16.6766 17.0973 16.1591 17.3609C15.8218 17.5327 15.4652 17.5999 15.0853 17.6309C14.7211 17.6607 14.2752 17.6606 13.7411 17.6606H9.83957C9.42536 17.6606 9.08957 17.3249 9.08957 16.9106C9.08957 16.4964 9.42536 16.1606 9.83957 16.1606L13.7106 16.1606C14.2831 16.1606 14.6673 16.1601 14.9632 16.1359C15.2503 16.1124 15.3876 16.0705 15.4781 16.0244C15.7133 15.9046 15.9046 15.7133 16.0244 15.4781C16.0705 15.3876 16.1124 15.2503 16.1359 14.9632C16.1601 14.6673 16.1606 14.2831 16.1606 13.7106V9.83957C16.1606 9.42536 16.4964 9.08957 16.9106 9.08957Z" fill="#020203"/>
</svg>
