<svg width="24" height="24" viewBox="0 0 24 24" fill="none" xmlns="http://www.w3.org/2000/svg">
<path fill-rule="evenodd" clip-rule="evenodd" d="M17.4415 6.54975C17.7344 6.84264 17.7344 7.31752 17.4415 7.61041L8.44146 16.6104C8.14857 16.9033 7.6737 16.9033 7.3808 16.6104C7.08791 16.3175 7.08791 15.8426 7.3808 15.5497L16.3808 6.54975C16.6737 6.25685 17.1486 6.25685 17.4415 6.54975Z" fill="#020203"/>
<path fill-rule="evenodd" clip-rule="evenodd" d="M7.07983 9.08908C7.49405 9.08908 7.82983 9.42487 7.82983 9.83908L7.82983 13.7102C7.82983 14.2826 7.83042 14.6668 7.85459 14.9627C7.87805 15.2498 7.91993 15.3871 7.96608 15.4776C8.08592 15.7128 8.27714 15.9041 8.51235 16.0239C8.60291 16.0701 8.74019 16.1119 9.02731 16.1354C9.32319 16.1596 9.70741 16.1601 10.2798 16.1601H14.1509C14.5651 16.1601 14.9009 16.4959 14.9009 16.9101C14.9009 17.3244 14.5651 17.6601 14.1509 17.6601H10.2494C9.71525 17.6602 9.2694 17.6602 8.90516 17.6304C8.52528 17.5994 8.16862 17.5323 7.83136 17.3604C7.31391 17.0968 6.89322 16.6761 6.62957 16.1586C6.45772 15.8214 6.39061 15.4647 6.35957 15.0848C6.32981 14.7206 6.32982 14.2747 6.32983 13.7406L6.32983 9.83908C6.32983 9.42487 6.66562 9.08908 7.07983 9.08908Z" fill="#020203"/>
</svg>
