<svg width="24" height="24" viewBox="0 0 24 24" fill="none" xmlns="http://www.w3.org/2000/svg">
<path fill-rule="evenodd" clip-rule="evenodd" d="M8.25 22C8.25 21.5858 8.58579 21.25 9 21.25H15C15.4142 21.25 15.75 21.5858 15.75 22C15.75 22.4142 15.4142 22.75 15 22.75H9C8.58579 22.75 8.25 22.4142 8.25 22Z" fill="#020203"/>
<path fill-rule="evenodd" clip-rule="evenodd" d="M12 15.25C12.4142 15.25 12.75 15.5858 12.75 16V21.5C12.75 21.9142 12.4142 22.25 12 22.25C11.5858 22.25 11.25 21.9142 11.25 21.5V16C11.25 15.5858 11.5858 15.25 12 15.25Z" fill="#020203"/>
<path d="M5.34604 9.07788L6.02041 4.35727C6.27512 2.57433 7.80297 1.25 9.60401 1.25H14.396C16.1971 1.25 17.7249 2.57434 17.9796 4.35728L18.654 9.07789C19.2325 13.1272 16.0904 16.75 12 16.75C7.90963 16.75 4.76757 13.1272 5.34604 9.07788Z" fill="#020203"/>
</svg>
