<svg width="24" height="24" viewBox="0 0 24 24" fill="none" xmlns="http://www.w3.org/2000/svg">
<path fill-rule="evenodd" clip-rule="evenodd" d="M22.7497 11.25C22.7467 8.48122 22.7089 7.00574 22.2351 5.8165C21.4981 3.96695 20.033 2.50185 18.1835 1.76492C16.8911 1.25 15.2608 1.25 12 1.25C8.73921 1.25 7.10883 1.25 5.81648 1.76492C3.96693 2.50185 2.50183 3.96695 1.7649 5.8165C1.29107 7.00574 1.25326 8.48122 1.25024 11.25H22.7497ZM15.25 7.5C15.25 7.08579 15.5858 6.75 16 6.75H18C18.4142 6.75 18.75 7.08579 18.75 7.5C18.75 7.91421 18.4142 8.25 18 8.25H16C15.5858 8.25 15.25 7.91421 15.25 7.5ZM10 5.75C10.4142 5.75 10.75 6.08579 10.75 6.5V8.5C10.75 8.91421 10.4142 9.25 10 9.25C9.58578 9.25 9.25 8.91421 9.25 8.5V6.5C9.25 6.08579 9.58578 5.75 10 5.75ZM6 5.75C6.41421 5.75 6.75 6.08579 6.75 6.5V8.5C6.75 8.91421 6.41421 9.25 6 9.25C5.58578 9.25 5.25 8.91421 5.25 8.5V6.5C5.25 6.08579 5.58578 5.75 6 5.75Z" fill="#020203"/>
<path fill-rule="evenodd" clip-rule="evenodd" d="M1.25024 12.75C1.25326 15.5188 1.29107 16.9943 1.7649 18.1835C2.50183 20.0331 3.96693 21.4982 5.81648 22.2351C7.10883 22.75 8.73921 22.75 12 22.75C15.2608 22.75 16.8911 22.75 18.1835 22.2351C20.033 21.4982 21.4981 20.0331 22.2351 18.1835C22.7089 16.9943 22.7467 15.5188 22.7497 12.75H1.25024ZM16 15.75C15.5858 15.75 15.25 16.0858 15.25 16.5C15.25 16.9142 15.5858 17.25 16 17.25H18C18.4142 17.25 18.75 16.9142 18.75 16.5C18.75 16.0858 18.4142 15.75 18 15.75H16ZM10.75 15.5C10.75 15.0858 10.4142 14.75 10 14.75C9.58578 14.75 9.25 15.0858 9.25 15.5V17.5C9.25 17.9142 9.58578 18.25 10 18.25C10.4142 18.25 10.75 17.9142 10.75 17.5V15.5ZM6.75 15.5C6.75 15.0858 6.41421 14.75 6 14.75C5.58578 14.75 5.25 15.0858 5.25 15.5V17.5C5.25 17.9142 5.58578 18.25 6 18.25C6.41421 18.25 6.75 17.9142 6.75 17.5V15.5Z" fill="#020203"/>
</svg>
