<svg width="24" height="24" viewBox="0 0 24 24" fill="none" xmlns="http://www.w3.org/2000/svg">
<path opacity="0.4" d="M22.7497 12.75H1.25024C1.25326 15.5188 1.29107 16.9943 1.7649 18.1835C2.50183 20.0331 3.96693 21.4982 5.81648 22.2351C7.10883 22.75 8.73921 22.75 12 22.75C15.2608 22.75 16.8911 22.75 18.1835 22.2351C20.033 21.4982 21.4981 20.0331 22.2351 18.1835C22.7089 16.9943 22.7467 15.5188 22.7497 12.75Z" fill="#020203"/>
<path fill-rule="evenodd" clip-rule="evenodd" d="M15.25 16.5C15.25 16.0858 15.5858 15.75 16 15.75H18C18.4142 15.75 18.75 16.0858 18.75 16.5C18.75 16.9142 18.4142 17.25 18 17.25H16C15.5858 17.25 15.25 16.9142 15.25 16.5Z" fill="#020203"/>
<path fill-rule="evenodd" clip-rule="evenodd" d="M10 14.75C10.4142 14.75 10.75 15.0858 10.75 15.5L10.75 17.5C10.75 17.9142 10.4142 18.25 10 18.25C9.58579 18.25 9.25 17.9142 9.25 17.5L9.25 15.5C9.25 15.0858 9.58579 14.75 10 14.75Z" fill="#020203"/>
<path fill-rule="evenodd" clip-rule="evenodd" d="M22.2351 5.8165C22.7089 7.00574 22.7467 8.48122 22.7497 11.25H1.25024C1.25326 8.48122 1.29107 7.00574 1.7649 5.8165C2.50183 3.96695 3.96693 2.50185 5.81648 1.76492C7.10883 1.25 8.73921 1.25 12 1.25C15.2608 1.25 16.8911 1.25 18.1835 1.76492C20.033 2.50185 21.4981 3.96695 22.2351 5.8165ZM16 6.75C15.5858 6.75 15.25 7.08579 15.25 7.5C15.25 7.91421 15.5858 8.25 16 8.25H18C18.4142 8.25 18.75 7.91421 18.75 7.5C18.75 7.08579 18.4142 6.75 18 6.75H16ZM10 5.75C10.4142 5.75 10.75 6.08579 10.75 6.5V8.5C10.75 8.91421 10.4142 9.25 10 9.25C9.58579 9.25 9.25 8.91421 9.25 8.5V6.5C9.25 6.08579 9.58579 5.75 10 5.75ZM6.75 6.5C6.75 6.08579 6.41421 5.75 6 5.75C5.58579 5.75 5.25 6.08579 5.25 6.5L5.25 8.5C5.25 8.91421 5.58579 9.25 6 9.25C6.41421 9.25 6.75 8.91421 6.75 8.5V6.5Z" fill="#020203"/>
<path fill-rule="evenodd" clip-rule="evenodd" d="M6 14.75C6.41421 14.75 6.75 15.0858 6.75 15.5L6.75 17.5C6.75 17.9142 6.41421 18.25 6 18.25C5.58579 18.25 5.25 17.9142 5.25 17.5L5.25 15.5C5.25 15.0858 5.58579 14.75 6 14.75Z" fill="#020203"/>
</svg>
