<svg width="24" height="24" viewBox="0 0 24 24" fill="none" xmlns="http://www.w3.org/2000/svg">
<path d="M4 15.3667V19C4 20.5 4.99206 21 6 21C7 21 8 20.5 8 19V15.9998H7.5C6.57104 15.9998 6.10657 15.9998 5.71753 15.9412C5.10313 15.8485 4.52438 15.6508 4 15.3667Z" fill="#020203"/>
<path d="M6.75 8.5C6.75 7.80964 7.30964 7.25 8 7.25C8.69036 7.25 9.25 7.80964 9.25 8.5C9.25 9.19036 8.69036 9.75 8 9.75C7.30964 9.75 6.75 9.19036 6.75 8.5Z" fill="#020203"/>
<path fill-rule="evenodd" clip-rule="evenodd" d="M10.1739 2.25H7.5C6.57104 2.25 6.10657 2.25 5.71753 2.30864C3.43984 2.65194 1.65194 4.43984 1.30864 6.71753C1.25 7.10657 1.25 7.57104 1.25 8.5C1.25 9.42896 1.25 9.89343 1.30864 10.2825C1.65194 12.5602 3.43984 14.3481 5.71753 14.6914C6.10657 14.75 6.57104 14.75 7.5 14.75H10.1739C10.9953 14.75 11.406 14.75 11.8035 14.6781C12.1171 14.6213 12.4239 14.5314 12.7186 14.4098C13.0919 14.2557 13.4376 14.034 14.129 13.5905C15.1138 12.9587 15.6062 12.6428 15.9573 12.2142C16.2335 11.8772 16.4443 11.4916 16.5789 11.0772C16.75 10.5502 16.75 9.96515 16.75 8.79514V8.20486C16.75 7.03485 16.75 6.44984 16.5789 5.92285C16.4443 5.50844 16.2335 5.1228 15.9573 4.78576C15.6062 4.35716 15.1138 4.04129 14.129 3.40954C13.4376 2.96603 13.0919 2.74427 12.7186 2.59021C12.4239 2.46862 12.1171 2.37869 11.8035 2.32192C11.406 2.25 10.9953 2.25 10.1739 2.25ZM8 5.75C6.48122 5.75 5.25 6.98122 5.25 8.5C5.25 10.0188 6.48122 11.25 8 11.25C9.51878 11.25 10.75 10.0188 10.75 8.5C10.75 6.98122 9.51878 5.75 8 5.75Z" fill="#020203"/>
<path fill-rule="evenodd" clip-rule="evenodd" d="M19.25 5.5C19.25 5.08579 19.5858 4.75 20 4.75L22 4.75C22.4142 4.75 22.75 5.08579 22.75 5.5C22.75 5.91421 22.4142 6.25 22 6.25L20 6.25C19.5858 6.25 19.25 5.91421 19.25 5.5Z" fill="#020203"/>
<path fill-rule="evenodd" clip-rule="evenodd" d="M19.25 8.5C19.25 8.08579 19.5858 7.75 20 7.75L22 7.75C22.4142 7.75 22.75 8.08579 22.75 8.5C22.75 8.91421 22.4142 9.25 22 9.25H20C19.5858 9.25 19.25 8.91421 19.25 8.5Z" fill="#020203"/>
<path fill-rule="evenodd" clip-rule="evenodd" d="M19.25 11.5C19.25 11.0858 19.5858 10.75 20 10.75H22C22.4142 10.75 22.75 11.0858 22.75 11.5C22.75 11.9142 22.4142 12.25 22 12.25H20C19.5858 12.25 19.25 11.9142 19.25 11.5Z" fill="#020203"/>
</svg>
