<svg width="24" height="24" viewBox="0 0 24 24" fill="none" xmlns="http://www.w3.org/2000/svg">
<path d="M7.5 3H9.93871C10.7033 3 11.0856 3 11.4565 3.06245C11.7897 3.11854 12.1155 3.21199 12.4278 3.34101C12.7754 3.48465 13.0996 3.68727 13.748 4.09248C14.5676 4.60474 14.9774 4.86087 15.2752 5.20732C15.5418 5.51761 15.7422 5.87918 15.864 6.26979C16 6.70591 16 7.18917 16 8.1557V8.8443C16 9.81083 16 10.2941 15.864 10.7302C15.7422 11.1208 15.5418 11.4824 15.2752 11.7927C14.9774 12.1391 14.5676 12.3953 13.748 12.9075C13.0996 13.3127 12.7754 13.5154 12.4278 13.659C12.1155 13.788 11.7897 13.8815 11.4565 13.9376C11.0856 14 10.7033 14 9.93871 14H7.5C6.57087 14 6.1063 14 5.71858 13.9316C3.85553 13.6031 2.39687 12.1445 2.06837 10.2814C2 9.8937 2 9.42913 2 8.5C2 7.57087 2 7.1063 2.06837 6.71858C2.39687 4.85553 3.85553 3.39687 5.71858 3.06837C6.1063 3 6.57087 3 7.5 3Z" stroke="#020203" stroke-width="1.5" stroke-linecap="round"/>
<path opacity="0.4" d="M8 14V19C8 20.5 7 21 6 21C4.99206 21 4 20.5 4 19V14" stroke="#020203" stroke-width="1.5" stroke-miterlimit="10" stroke-linecap="round" stroke-linejoin="round"/>
<path d="M6 8.5C6 9.60457 6.89543 10.5 8 10.5C9.10457 10.5 10 9.60457 10 8.5C10 7.39543 9.10457 6.5 8 6.5C6.89543 6.5 6 7.39543 6 8.5Z" stroke="#020203" stroke-width="1.5" stroke-linecap="round"/>
<path opacity="0.4" d="M20 5.5L22 5.5" stroke="#020203" stroke-width="1.5" stroke-linecap="round"/>
<path d="M20 8.5H22" stroke="#020203" stroke-width="1.5" stroke-linecap="round"/>
<path opacity="0.4" d="M20 11.5H22" stroke="#020203" stroke-width="1.5" stroke-linecap="round"/>
</svg>
