<svg width="24" height="24" viewBox="0 0 24 24" fill="none" xmlns="http://www.w3.org/2000/svg">
<path opacity="0.4" d="M3.25 14C3.25 9.16751 7.16751 5.25 12 5.25C16.8325 5.25 20.75 9.16751 20.75 14C20.75 18.8325 16.8325 22.75 12 22.75C7.16751 22.75 3.25 18.8325 3.25 14Z" fill="#020203"/>
<path fill-rule="evenodd" clip-rule="evenodd" d="M10.4142 2.75C9.70762 2.75 9.02997 3.03069 8.53033 3.53033C8.03069 4.02997 7.75 4.70762 7.75 5.41421V9C7.75 9.41421 7.41421 9.75 7 9.75C6.58579 9.75 6.25 9.41421 6.25 9V5.41421C6.25 4.3098 6.68873 3.25061 7.46967 2.46967C8.25061 1.68873 9.3098 1.25 10.4142 1.25H13.5858C14.6902 1.25 15.7494 1.68873 16.5303 2.46967C17.3113 3.25061 17.75 4.3098 17.75 5.41421V9C17.75 9.41421 17.4142 9.75 17 9.75C16.5858 9.75 16.25 9.41421 16.25 9V5.41421C16.25 4.70762 15.9693 4.02997 15.4697 3.53033M15.4697 3.53033C14.97 3.03069 14.2924 2.75 13.5858 2.75H10.4142" fill="#020203"/>
</svg>
