<svg width="24" height="24" viewBox="0 0 24 24" fill="none" xmlns="http://www.w3.org/2000/svg">
<path d="M14.6734 3.72138L5.5934 12.8013C4.66125 13.7335 4.19518 14.1995 3.84635 14.7424C3.61284 15.1058 3.41926 15.4934 3.26897 15.8984C3.04446 16.5034 2.95178 17.1559 2.76643 18.4611C2.59721 19.6527 2.5126 20.2485 2.73097 20.673C2.87405 20.9511 3.10049 21.1775 3.37862 21.3206C3.8031 21.539 4.39889 21.4544 5.59049 21.2852C6.89564 21.0998 7.54822 21.0071 8.1532 20.7826C8.55818 20.6323 8.94574 20.4387 9.30915 20.2052C9.85204 19.8564 10.3181 19.3903 11.2502 18.4582L20.3302 9.37823C21.8923 7.81613 21.8923 5.28347 20.3302 3.72138C18.7681 2.15928 16.2355 2.15928 14.6734 3.72138Z" stroke="#020203" stroke-width="1.5"/>
<path d="M15 21.45H21" stroke="#020203" stroke-width="1.5" stroke-linecap="round" stroke-linejoin="round"/>
<path d="M14 5L19 10" stroke="#020203" stroke-width="1.5" stroke-linecap="round" stroke-linejoin="round"/>
</svg>
