<svg width="24" height="24" viewBox="0 0 24 24" fill="none" xmlns="http://www.w3.org/2000/svg">
<path opacity="0.4" d="M14.6734 3.72138L5.59341 12.8013C4.66127 13.7335 4.1952 14.1995 3.84636 14.7424C3.61286 15.1058 3.41927 15.4934 3.26899 15.8984C3.04448 16.5034 2.9518 17.1559 2.76645 18.4611C2.59722 19.6527 2.51261 20.2485 2.73099 20.673C2.87407 20.9511 3.10051 21.1775 3.37863 21.3206C3.80312 21.539 4.39891 21.4544 5.5905 21.2852C6.89565 21.0998 7.54823 21.0071 8.15322 20.7826C8.55819 20.6323 8.94575 20.4387 9.30916 20.2052C9.85205 19.8564 10.3181 19.3903 11.2503 18.4582L20.3302 9.37823C21.8923 7.81613 21.8923 5.28347 20.3302 3.72138C18.7681 2.15928 16.2355 2.15928 14.6734 3.72138Z" stroke="#020203" stroke-width="1.5"/>
<path d="M14 5L19 10" stroke="#020203" stroke-width="1.5" stroke-linecap="round" stroke-linejoin="round"/>
</svg>
