<svg width="24" height="24" viewBox="0 0 24 24" fill="none" xmlns="http://www.w3.org/2000/svg">
<path fill-rule="evenodd" clip-rule="evenodd" d="M14.25 21.4502C14.25 21.036 14.5858 20.7002 15 20.7002H21C21.4142 20.7002 21.75 21.036 21.75 21.4502C21.75 21.8644 21.4142 22.2002 21 22.2002H15C14.5858 22.2002 14.25 21.8644 14.25 21.4502Z" fill="#020203"/>
<path d="M13.6672 3.60535L14.0717 3.20081C15.9267 1.34582 18.9342 1.34582 20.7892 3.20081C22.6442 5.0558 22.6442 8.06334 20.7892 9.91833L20.3847 10.3229L13.6672 3.60535Z" fill="#020203"/>
<path d="M12.6065 4.66601L4.93023 12.3423C4.08304 13.1895 3.65944 13.6131 3.32049 14.089C2.85131 14.7479 2.49986 15.483 2.28174 16.2618C2.12415 16.8245 2.06047 17.4201 1.93309 18.6114C1.80947 19.7676 1.74765 20.3458 1.89948 20.7874C2.10988 21.3994 2.59067 21.8802 3.20265 22.0906C3.64429 22.2424 4.2224 22.1806 5.3786 22.057C6.56989 21.9296 7.16559 21.8659 7.72824 21.7083C8.50707 21.4902 9.2422 21.1387 9.901 20.6696C10.3769 20.3306 10.8005 19.907 11.6477 19.0599L19.324 11.3835L12.6065 4.66601Z" fill="#020203"/>
</svg>
