<svg width="24" height="24" viewBox="0 0 24 24" fill="none" xmlns="http://www.w3.org/2000/svg">
<path d="M13.6672 3.60578L14.0717 3.20124C15.9267 1.34625 18.9343 1.34625 20.7893 3.20124C22.6442 5.05623 22.6442 8.06377 20.7893 9.91876L20.3847 10.3233L13.6672 3.60578Z" fill="#020203"/>
<path opacity="0.4" d="M12.6065 4.66601L4.93024 12.3423C4.08306 13.1895 3.65945 13.6131 3.3205 14.089C2.85133 14.7479 2.49988 15.483 2.28175 16.2618C2.12417 16.8245 2.06048 17.4201 1.93311 18.6114C1.80948 19.7676 1.74766 20.3458 1.8995 20.7874C2.10989 21.3994 2.59069 21.8802 3.20267 22.0906C3.64431 22.2424 4.22241 22.1806 5.37862 22.057C6.5699 21.9296 7.16561 21.8659 7.72826 21.7083C8.50708 21.4902 9.24221 21.1387 9.90102 20.6696C10.377 20.3306 10.8006 19.907 11.6477 19.0599L19.3241 11.3835L12.6065 4.66601Z" fill="#020203"/>
</svg>
