<svg width="24" height="24" viewBox="0 0 24 24" fill="none" xmlns="http://www.w3.org/2000/svg">
<path fill-rule="evenodd" clip-rule="evenodd" d="M6.95001 21.6302C6.95001 21.2159 7.2858 20.8802 7.70001 20.8802H20.2C20.6142 20.8802 20.95 21.2159 20.95 21.6302C20.95 22.0444 20.6142 22.3802 20.2 22.3802H7.70001C7.2858 22.3802 6.95001 22.0444 6.95001 21.6302Z" fill="#020203"/>
<path d="M4.35583 20.977C6.23035 22.8515 9.26954 22.8515 11.1441 20.977L15.5201 16.601L7.38834 8.4693L3.01233 12.8453C1.13782 14.7198 1.13782 17.759 3.01233 19.6335L4.35583 20.977Z" fill="#020203"/>
<path d="M16.5807 15.5404L20.9728 11.1482C22.8474 9.27372 22.8474 6.23453 20.9728 4.36002L19.6293 3.01651C17.7548 1.142 14.7156 1.142 12.8411 3.01651L8.449 7.40863L16.5807 15.5404Z" fill="#020203"/>
</svg>
