<svg width="24" height="24" viewBox="0 0 24 24" fill="none" xmlns="http://www.w3.org/2000/svg">
<path fill-rule="evenodd" clip-rule="evenodd" d="M7.90901 12.9697C8.2019 13.2626 8.2019 13.7374 7.90901 14.0303L5.96967 15.9697C5.67678 16.2626 5.67678 16.7374 5.96967 17.0303L7.90901 18.9697C8.2019 19.2626 8.2019 19.7374 7.90901 20.0303C7.61612 20.3232 7.14124 20.3232 6.84835 20.0303L4.90901 18.091C4.03033 17.2123 4.03033 15.7877 4.90901 14.909L6.84835 12.9697C7.14124 12.6768 7.61612 12.6768 7.90901 12.9697Z" fill="#020203"/>
<path opacity="0.4" fill-rule="evenodd" clip-rule="evenodd" d="M5.25 16.5C5.25 16.0858 5.58579 15.75 6 15.75H19C19.4142 15.75 19.75 16.0858 19.75 16.5C19.75 16.9142 19.4142 17.25 19 17.25H6C5.58579 17.25 5.25 16.9142 5.25 16.5Z" fill="#020203"/>
<path fill-rule="evenodd" clip-rule="evenodd" d="M16.0898 3.96967C16.3827 3.67678 16.8576 3.67678 17.1504 3.96967L19.0898 5.90901C19.9685 6.78769 19.9685 8.21231 19.0898 9.09099L17.1504 11.0303C16.8576 11.3232 16.3827 11.3232 16.0898 11.0303C15.7969 10.7374 15.7969 10.2626 16.0898 9.96967L18.0291 8.03033C18.322 7.73744 18.322 7.26256 18.0291 6.96967L16.0898 5.03033C15.7969 4.73744 15.7969 4.26256 16.0898 3.96967Z" fill="#020203"/>
<path opacity="0.4" fill-rule="evenodd" clip-rule="evenodd" d="M18 8.25L5 8.25C4.58579 8.25 4.25 7.91421 4.25 7.5C4.25 7.08579 4.58579 6.75 5 6.75L18 6.75C18.4142 6.75 18.75 7.08579 18.75 7.5C18.75 7.91421 18.4142 8.25 18 8.25Z" fill="#020203"/>
</svg>
