<svg width="24" height="24" viewBox="0 0 24 24" fill="none" xmlns="http://www.w3.org/2000/svg">
<path fill-rule="evenodd" clip-rule="evenodd" d="M20.3158 8.35542C20.6717 8.14366 21.132 8.26058 21.3438 8.61657C21.6615 9.15067 21.9419 9.72382 22.1797 10.3355C22.5937 11.4 22.5937 12.5999 22.1797 13.6645C20.0641 19.1048 14.6582 21.372 9.86304 20.4812C9.45579 20.4056 9.18698 20.0141 9.26263 19.6069C9.33827 19.1996 9.72974 18.9308 10.137 19.0065C14.312 19.782 18.9586 17.8088 20.7817 13.1208C21.0597 12.406 21.0597 11.594 20.7817 10.8792C20.5735 10.3438 20.3294 9.84536 20.0546 9.38343C19.8428 9.02744 19.9598 8.56718 20.3158 8.35542Z" fill="#020203"/>
<path fill-rule="evenodd" clip-rule="evenodd" d="M21.5303 2.46967C21.8232 2.76256 21.8232 3.23744 21.5303 3.53033L3.53033 21.5303C3.23744 21.8232 2.76256 21.8232 2.46967 21.5303C2.17678 21.2374 2.17678 20.7626 2.46967 20.4697L20.4697 2.46967C20.7626 2.17678 21.2374 2.17678 21.5303 2.46967Z" fill="#020203"/>
<path opacity="0.4" d="M2.46479 13.2576C2.1784 12.4437 2.1784 11.5563 2.46479 10.7424C4.79718 4.11349 12.4034 2.43568 17.5 5.68873L5.5 17.6672C4.18791 16.5864 3.11894 15.1167 2.46479 13.2576Z" fill="#020203"/>
<path d="M12 8.5C10.067 8.5 8.5 10.067 8.5 12C8.5 12.7436 8.73191 13.4331 9.12734 14L14 9.12734C13.4331 8.73191 12.7436 8.5 12 8.5Z" fill="#020203"/>
</svg>
