<svg width="24" height="24" viewBox="0 0 24 24" fill="none" xmlns="http://www.w3.org/2000/svg">
<path fill-rule="evenodd" clip-rule="evenodd" d="M20.3158 8.35542C20.6717 8.14366 21.132 8.26058 21.3438 8.61657C21.6615 9.15067 21.9419 9.72382 22.1797 10.3355C22.5937 11.4 22.5937 12.5999 22.1797 13.6645C20.0641 19.1048 14.6582 21.372 9.86304 20.4812C9.45579 20.4056 9.18698 20.0141 9.26263 19.6069C9.33827 19.1996 9.72974 18.9308 10.137 19.0065C14.312 19.782 18.9586 17.8088 20.7817 13.1208C21.0597 12.406 21.0597 11.594 20.7817 10.8792C20.5735 10.3438 20.3294 9.84536 20.0546 9.38343C19.8428 9.02744 19.9598 8.56718 20.3158 8.35542Z" fill="#020203"/>
<path fill-rule="evenodd" clip-rule="evenodd" d="M21.5303 2.46967C21.8232 2.76256 21.8232 3.23744 21.5303 3.53033L3.53033 21.5303C3.23744 21.8232 2.76256 21.8232 2.46967 21.5303C2.17678 21.2374 2.17678 20.7626 2.46967 20.4697L20.4697 2.46967C20.7626 2.17678 21.2374 2.17678 21.5303 2.46967Z" fill="#020203"/>
<path d="M2.46479 10.7424C2.1784 11.5563 2.1784 12.4437 2.46479 13.2576C3.11894 15.1167 4.18791 16.5864 5.5 17.6672L8.6201 14.5527C8.58051 14.5163 8.54425 14.475 8.51221 14.4291C8.03182 13.7404 7.75 12.902 7.75 12C7.75 9.65279 9.65279 7.75 12 7.75C12.902 7.75 13.7404 8.03182 14.4291 8.51221C14.4772 8.54575 14.5201 8.58392 14.5578 8.62569L17.5 5.68873C12.4034 2.43568 4.79718 4.11349 2.46479 10.7424Z" fill="#020203"/>
<path d="M13.4921 9.68947C13.0626 9.41138 12.5511 9.25 12 9.25C10.4812 9.25 9.25 10.4812 9.25 12C9.25 12.5494 9.41034 13.0593 9.68678 13.4879L13.4921 9.68947Z" fill="#020203"/>
</svg>
