<svg width="24" height="24" viewBox="0 0 24 24" fill="none" xmlns="http://www.w3.org/2000/svg">
<path d="M9.25 12C9.25 10.4812 10.4812 9.25 12 9.25C13.5188 9.25 14.75 10.4812 14.75 12C14.75 13.5188 13.5188 14.75 12 14.75C10.4812 14.75 9.25 13.5188 9.25 12Z" fill="#020203"/>
<path fill-rule="evenodd" clip-rule="evenodd" d="M22.1735 13.5212C18.4839 22.8372 5.1489 22.8063 1.76885 13.3736C1.45042 12.485 1.45042 11.5133 1.76885 10.6247C5.1489 1.19203 18.4839 1.16114 22.1735 10.4771C22.5581 11.448 22.5581 12.5503 22.1735 13.5212ZM12 7.75C9.65279 7.75 7.75 9.65279 7.75 12C7.75 14.3472 9.65279 16.25 12 16.25C14.3472 16.25 16.25 14.3472 16.25 12C16.25 9.65279 14.3472 7.75 12 7.75Z" fill="#020203"/>
</svg>
