<svg width="24" height="24" viewBox="0 0 24 24" fill="none" xmlns="http://www.w3.org/2000/svg">
<path opacity="0.4" d="M20.6992 9C20.9954 9.49801 21.2577 10.0338 21.4807 10.6073C21.8267 11.497 21.8267 12.503 21.4807 13.3926C19.5113 18.4568 14.4851 20.577 10 19.7438" stroke="#020203" stroke-width="1.5" stroke-linecap="round" stroke-linejoin="round"/>
<path opacity="0.4" d="M17.5 5.68873C12.4034 2.43568 4.79718 4.11349 2.46479 10.7424C2.1784 11.5563 2.1784 12.4437 2.46479 13.2576C3.11894 15.1167 4.18791 16.5864 5.5 17.6672" stroke="#020203" stroke-width="1.5" stroke-linecap="round" stroke-linejoin="round"/>
<path d="M21 3L3 21" stroke="#020203" stroke-width="1.5" stroke-linecap="round"/>
<path d="M9.12734 14C8.73191 13.4331 8.5 12.7436 8.5 12C8.5 10.067 10.067 8.5 12 8.5C12.7436 8.5 13.4331 8.73191 14 9.12734" stroke="#020203" stroke-width="1.5" stroke-linecap="round"/>
</svg>
