<svg width="24" height="24" viewBox="0 0 24 24" fill="none" xmlns="http://www.w3.org/2000/svg">
<path opacity="0.4" fill-rule="evenodd" clip-rule="evenodd" d="M2.25 8C2.25 5.92893 3.92893 4.25 6 4.25C6.41421 4.25 6.75 4.58579 6.75 5C6.75 5.41421 6.41421 5.75 6 5.75C4.75736 5.75 3.75 6.75736 3.75 8V8.5C3.75 10.5711 5.42893 12.25 7.5 12.25C9.57107 12.25 11.25 13.9289 11.25 16V20.5C11.25 20.9142 11.5858 21.25 12 21.25C12.4142 21.25 12.75 20.9142 12.75 20.5V16C12.75 13.9289 14.4289 12.25 16.5 12.25C18.5711 12.25 20.25 10.5711 20.25 8.5V8C20.25 6.75736 19.2426 5.75 18 5.75C17.5858 5.75 17.25 5.41421 17.25 5C17.25 4.58579 17.5858 4.25 18 4.25C20.0711 4.25 21.75 5.92893 21.75 8V8.5C21.75 11.3995 19.3995 13.75 16.5 13.75C15.2574 13.75 14.25 14.7574 14.25 16V20.5C14.25 21.7426 13.2426 22.75 12 22.75C10.7574 22.75 9.75 21.7426 9.75 20.5V16C9.75 14.7574 8.74264 13.75 7.5 13.75C4.60051 13.75 2.25 11.3995 2.25 8.5V8Z" fill="#020203"/>
<path fill-rule="evenodd" clip-rule="evenodd" d="M10.25 15C10.25 14.5858 10.5858 14.25 11 14.25H13C13.4142 14.25 13.75 14.5858 13.75 15C13.75 15.4142 13.4142 15.75 13 15.75H11C10.5858 15.75 10.25 15.4142 10.25 15Z" fill="#020203"/>
<path d="M18 5.5C18 7.42889 16.485 9 14.625 9H9.375C8.445 9 7.60496 8.61111 6.98996 7.97333C6.37496 7.33555 6 6.46444 6 5.5C6 3.57111 7.515 2 9.375 2H14.625C15.555 2 16.395 2.38889 17.01 3.02667C17.625 3.66445 18 4.53556 18 5.5Z" stroke="#020203" stroke-width="1.5" stroke-linecap="round" stroke-linejoin="round"/>
</svg>
