<svg width="24" height="24" viewBox="0 0 24 24" fill="none" xmlns="http://www.w3.org/2000/svg">
<path d="M18 5C19.6569 5 21 6.34315 21 8V8.5C21 10.9853 18.9853 13 16.5 13C14.8431 13 13.5 14.3431 13.5 16V20.5C13.5 21.3284 12.8284 22 12 22C11.1716 22 10.5 21.3284 10.5 20.5V16C10.5 14.3431 9.15685 13 7.5 13C5.01472 13 3 10.9853 3 8.5V8C3 6.34315 4.34315 5 6 5" stroke="#020203" stroke-width="1.5" stroke-linecap="round"/>
<path d="M11 15H13" stroke="#020203" stroke-width="1.5" stroke-linecap="round"/>
<path d="M18 5.5C18 7.42889 16.485 9 14.625 9H9.375C8.445 9 7.60496 8.61111 6.98996 7.97333C6.37496 7.33555 6 6.46444 6 5.5C6 3.57111 7.515 2 9.375 2H14.625C15.555 2 16.395 2.38889 17.01 3.02667C17.625 3.66445 18 4.53556 18 5.5Z" stroke="#020203" stroke-width="1.5" stroke-linecap="round" stroke-linejoin="round"/>
</svg>
