<svg width="24" height="24" viewBox="0 0 24 24" fill="none" xmlns="http://www.w3.org/2000/svg">
<path fill-rule="evenodd" clip-rule="evenodd" d="M9 1.25C5.82436 1.25 3.25 3.82436 3.25 7V17C3.25 20.1756 5.82436 22.75 9 22.75H15C18.1756 22.75 20.75 20.1756 20.75 17V9.90126C20.75 8.49314 20.1843 7.14404 19.1801 6.15699L15.7195 2.75573C14.7377 1.79074 13.4161 1.25 12.0394 1.25H9ZM12.75 6C12.75 5.58579 12.4142 5.25 12 5.25C11.5858 5.25 11.25 5.58579 11.25 6V7C11.25 9.07107 12.9289 10.75 15 10.75H16C16.4142 10.75 16.75 10.4142 16.75 10C16.75 9.58579 16.4142 9.25 16 9.25H15C13.7574 9.25 12.75 8.24264 12.75 7V6Z" fill="#020203"/>
</svg>
