<svg width="24" height="24" viewBox="0 0 24 24" fill="none" xmlns="http://www.w3.org/2000/svg">
<path opacity="0.4" d="M3.25 7C3.25 3.82436 5.82436 1.25 9 1.25H12.0394C13.4161 1.25 14.7377 1.79074 15.7195 2.75573L19.1801 6.15699C20.1843 7.14404 20.75 8.49314 20.75 9.90126V17C20.75 20.1756 18.1756 22.75 15 22.75H9C5.82436 22.75 3.25 20.1756 3.25 17V7Z" fill="#020203"/>
<path fill-rule="evenodd" clip-rule="evenodd" d="M12 5.25C12.4142 5.25 12.75 5.58579 12.75 6V7C12.75 8.24264 13.7574 9.25 15 9.25H16C16.4142 9.25 16.75 9.58579 16.75 10C16.75 10.4142 16.4142 10.75 16 10.75H15C12.9289 10.75 11.25 9.07107 11.25 7V6C11.25 5.58579 11.5858 5.25 12 5.25Z" fill="#020203"/>
</svg>
