<svg width="24" height="24" viewBox="0 0 24 24" fill="none" xmlns="http://www.w3.org/2000/svg">
<path d="M14.46 19.0206V19.8265C14.46 19.9978 14.46 20.0834 14.4555 20.162C14.3987 21.1547 13.8104 22.0393 12.917 22.4757C12.8463 22.5103 12.7673 22.5434 12.6094 22.6096C12.2864 22.7451 12.1249 22.8129 12.0012 22.8513C10.3657 23.3595 8.67641 22.2362 8.51241 20.5315C8.5 20.4025 8.5 20.2274 8.5 19.8771V18.5551C8.5 17.6277 8.5 17.164 8.43258 16.7181C8.30977 15.9059 8.0215 15.1275 7.58561 14.4313C7.34629 14.049 7.04423 13.6971 6.44015 12.9935L3.37638 9.42469C2.48827 8.39018 2 7.07183 2 5.70841C2 3.66031 3.66031 2 5.7084 2H17.8723C19.8758 2 21.5 3.62416 21.5 5.62767C21.5 7.03767 20.9663 8.39541 20.0062 9.428L16.9303 12.7361C16.0786 13.6521 15.6528 14.11 15.337 14.6281C14.9759 15.2203 14.7203 15.8706 14.5815 16.5501C14.46 17.1445 14.46 17.7699 14.46 19.0206Z" fill="#020203"/>
</svg>
