<svg width="24" height="24" viewBox="0 0 24 24" fill="none" xmlns="http://www.w3.org/2000/svg">
<path opacity="0.4" d="M14 18.6421V19.376C14 19.5184 14 19.5896 13.9956 19.656C13.9536 20.2865 13.6161 20.8602 13.0853 21.2031C13.0294 21.2392 12.9672 21.2737 12.8427 21.3429C12.5193 21.5226 12.3576 21.6124 12.2367 21.6603C11.0252 22.1403 9.6856 21.3521 9.51684 20.0599C9.5 19.931 9.5 19.746 9.5 19.376V17.9747C9.5 16.8441 9.5 16.2788 9.39949 15.7366C9.28416 15.1144 9.07113 14.5144 8.76831 13.9588C8.50441 13.4746 8.14793 13.0359 7.43496 12.1584L3.91172 7.82207C3.32194 7.09619 3 6.18941 3 5.25414C3 3.56736 4.36741 2.19995 6.05419 2.19995H18.002C19.6577 2.19995 21 3.54222 21 5.19799C21 6.16625 20.6486 7.1016 20.011 7.83029L16.5959 11.7332C15.4985 12.9874 14.9497 13.6145 14.5967 14.3459C14.4395 14.6715 14.312 15.0107 14.2159 15.3593C14 16.1422 14 16.9755 14 18.6421Z" stroke="#020203" stroke-width="1.5"/>
</svg>
