<svg width="24" height="24" viewBox="0 0 24 24" fill="none" xmlns="http://www.w3.org/2000/svg">
<path d="M14 18.6422V19.3761C14 19.5185 14 19.5897 13.9956 19.6561C13.9536 20.2866 13.6161 20.8602 13.0853 21.2031C13.0294 21.2392 12.9672 21.2738 12.8427 21.3429C12.5193 21.5226 12.3576 21.6124 12.2367 21.6603C11.0252 22.1403 9.6856 21.3521 9.51684 20.06C9.5 19.931 9.5 19.746 9.5 19.3761V17.9748C9.5 16.8441 9.5 16.2788 9.39949 15.7366C9.28416 15.1145 9.07113 14.5144 8.76831 13.9588C8.50441 13.4747 8.14793 13.0359 7.43496 12.1584L3.91172 7.82212C3.32194 7.09624 3 6.18946 3 5.25419C3 3.56741 4.36741 2.2 6.05419 2.2H18.002C19.6577 2.2 21 3.54227 21 5.19804C21 6.1663 20.6486 7.10165 20.011 7.83034L16.5959 11.7332C15.4985 12.9874 14.9497 13.6146 14.5967 14.3459C14.4395 14.6716 14.312 15.0108 14.2159 15.3594C14 16.1423 14 16.9756 14 18.6422Z" stroke="#020203" stroke-width="1.5"/>
</svg>
