<svg width="24" height="24" viewBox="0 0 24 24" fill="none" xmlns="http://www.w3.org/2000/svg">
<path fill-rule="evenodd" clip-rule="evenodd" d="M17.25 5C17.25 4.58579 17.6231 4.25 18.0833 4.25L21.4167 4.25C21.8769 4.25 22.25 4.58579 22.25 5C22.25 5.41421 21.8769 5.75 21.4167 5.75L18.0833 5.75C17.6231 5.75 17.25 5.41421 17.25 5Z" fill="#020203"/>
<path fill-rule="evenodd" clip-rule="evenodd" d="M17.25 19C17.25 18.5858 17.6231 18.25 18.0833 18.25L21.4167 18.25C21.8769 18.25 22.25 18.5858 22.25 19C22.25 19.4142 21.8769 19.75 21.4167 19.75L18.0833 19.75C17.6231 19.75 17.25 19.4142 17.25 19Z" fill="#020203"/>
<path fill-rule="evenodd" clip-rule="evenodd" d="M1.75 12C1.75 11.5858 2.1231 11.25 2.58333 11.25L5.91667 11.25C6.3769 11.25 6.75 11.5858 6.75 12C6.75 12.4142 6.3769 12.75 5.91667 12.75L2.58333 12.75C2.1231 12.75 1.75 12.4142 1.75 12Z" fill="#020203"/>
<path d="M8 8.25C5.92893 8.25 4.25 9.92893 4.25 12C4.25 14.0711 5.92893 15.75 8 15.75C10.0711 15.75 11.75 14.0711 11.75 12C11.75 9.92893 10.0711 8.25 8 8.25Z" fill="#020203"/>
<path d="M16 1.25C13.9289 1.25 12.25 2.92893 12.25 5C12.25 7.07107 13.9289 8.75 16 8.75C18.0711 8.75 19.75 7.07107 19.75 5C19.75 2.92893 18.0711 1.25 16 1.25Z" fill="#020203"/>
<path d="M16 15.25C13.9289 15.25 12.25 16.9289 12.25 19C12.25 21.0711 13.9289 22.75 16 22.75C18.0711 22.75 19.75 21.0711 19.75 19C19.75 16.9289 18.0711 15.25 16 15.25Z" fill="#020203"/>
<path fill-rule="evenodd" clip-rule="evenodd" d="M1.25 5C1.25 4.58579 1.58579 4.25 2 4.25L9 4.25C9.41421 4.25 9.75 4.58579 9.75 5C9.75 5.41421 9.41421 5.75 9 5.75L2 5.75C1.58579 5.75 1.25 5.41421 1.25 5Z" fill="#020203"/>
<path fill-rule="evenodd" clip-rule="evenodd" d="M1.25 19C1.25 18.5858 1.58579 18.25 2 18.25L9 18.25C9.41421 18.25 9.75 18.5858 9.75 19C9.75 19.4142 9.41421 19.75 9 19.75L2 19.75C1.58579 19.75 1.25 19.4142 1.25 19Z" fill="#020203"/>
<path fill-rule="evenodd" clip-rule="evenodd" d="M14.25 12C14.25 11.5858 14.5858 11.25 15 11.25L22 11.25C22.4142 11.25 22.75 11.5858 22.75 12C22.75 12.4142 22.4142 12.75 22 12.75L15 12.75C14.5858 12.75 14.25 12.4142 14.25 12Z" fill="#020203"/>
</svg>
