<svg width="24" height="24" viewBox="0 0 24 24" fill="none" xmlns="http://www.w3.org/2000/svg">
<path d="M2 5L9 5" stroke="#020203" stroke-width="1.5" stroke-linecap="round"/>
<path d="M2 19L9 19" stroke="#020203" stroke-width="1.5" stroke-linecap="round"/>
<path d="M15 12L22 12" stroke="#020203" stroke-width="1.5" stroke-linecap="round"/>
<path d="M19 5L22 5" stroke="#020203" stroke-width="1.5" stroke-linecap="round"/>
<path d="M19 19L22 19" stroke="#020203" stroke-width="1.5" stroke-linecap="round"/>
<path d="M2 12L5 12" stroke="#020203" stroke-width="1.5" stroke-linecap="round"/>
<path d="M16 2C14.3431 2 13 3.34315 13 5C13 6.65685 14.3431 8 16 8C17.6569 8 19 6.65685 19 5C19 3.34315 17.6569 2 16 2Z" stroke="#020203" stroke-width="1.5" stroke-linecap="round"/>
<path d="M16 16C14.3431 16 13 17.3431 13 19C13 20.6569 14.3431 22 16 22C17.6569 22 19 20.6569 19 19C19 17.3431 17.6569 16 16 16Z" stroke="#020203" stroke-width="1.5" stroke-linecap="round"/>
<path d="M8 9C6.34315 9 5 10.3431 5 12C5 13.6569 6.34315 15 8 15C9.65685 15 11 13.6569 11 12C11 10.3431 9.65685 9 8 9Z" stroke="#020203" stroke-width="1.5" stroke-linecap="round"/>
</svg>
