<svg width="24" height="24" viewBox="0 0 24 24" fill="none" xmlns="http://www.w3.org/2000/svg">
<path opacity="0.4" d="M14.71 18.5306V19.3365C14.71 19.5078 14.71 19.5934 14.7055 19.672C14.6487 20.6647 14.0604 21.5493 13.167 21.9857C13.0963 22.0203 13.0173 22.0534 12.8594 22.1196C12.5364 22.2551 12.3749 22.3229 12.2512 22.3613C10.6157 22.8695 8.92641 21.7462 8.76241 20.0415C8.75 19.9125 8.75 19.7374 8.75 19.3871V18.0651C8.75 17.1377 8.75 16.674 8.68258 16.2281C8.55977 15.4159 8.2715 14.6375 7.83561 13.9413C7.59629 13.559 7.29423 13.2071 6.69015 12.5035L3.62638 8.93468C2.73827 7.90018 2.25 6.58183 2.25 5.2184C2.25 3.17031 3.91031 1.51 5.9584 1.51H18.1223C20.1258 1.51 21.75 3.13416 21.75 5.13767C21.75 6.54766 21.2163 7.90541 20.2562 8.938L17.1803 12.2461C16.3286 13.162 15.9028 13.62 15.587 14.1381C15.2259 14.7303 14.9703 15.3806 14.8315 16.0601C14.71 16.6545 14.71 17.2799 14.71 18.5306Z" fill="#020203"/>
</svg>
