<svg width="24" height="24" viewBox="0 0 24 24" fill="none" xmlns="http://www.w3.org/2000/svg">
<path d="M4 2V16C4 18.2091 5.79086 20 8 20H11" stroke="#020203" stroke-width="1.5" stroke-linecap="round"/>
<path d="M4 4.25L11 4.25" stroke="#020203" stroke-width="1.5" stroke-linecap="round"/>
<path d="M4 12L11 12" stroke="#020203" stroke-width="1.5" stroke-linecap="round"/>
<path d="M11 12C11 10.7574 12.0074 9.75 13.25 9.75H17.75C18.9926 9.75 20 10.7574 20 12C20 13.2426 18.9926 14.25 17.75 14.25H13.25C12.0074 14.25 11 13.2426 11 12Z" stroke="#020203" stroke-width="1.5"/>
<path d="M11 4.25C11 3.00736 12.0074 2 13.25 2H17.75C18.9926 2 20 3.00736 20 4.25C20 5.49264 18.9926 6.5 17.75 6.5H13.25C12.0074 6.5 11 5.49264 11 4.25Z" stroke="#020203" stroke-width="1.5"/>
<path d="M11 19.75C11 18.5074 12.0074 17.5 13.25 17.5H17.75C18.9926 17.5 20 18.5074 20 19.75C20 20.9926 18.9926 22 17.75 22H13.25C12.0074 22 11 20.9926 11 19.75Z" stroke="#020203" stroke-width="1.5"/>
</svg>
