<svg width="24" height="24" viewBox="0 0 24 24" fill="none" xmlns="http://www.w3.org/2000/svg">
<path d="M18 4C18 5.10457 18.8954 6 20 6C21.1046 6 22 5.10457 22 4C22 2.89543 21.1046 2 20 2C18.8954 2 18 2.89543 18 4Z" stroke="#020203" stroke-width="1.5" stroke-linecap="round"/>
<path d="M18 12C18 13.1046 18.8954 14 20 14C21.1046 14 22 13.1046 22 12C22 10.8954 21.1046 10 20 10C18.8954 10 18 10.8954 18 12Z" stroke="#020203" stroke-width="1.5" stroke-linecap="round"/>
<path d="M2 12C2 13.1046 2.89543 14 4 14C5.10457 14 6 13.1046 6 12C6 10.8954 5.10457 10 4 10C2.89543 10 2 10.8954 2 12Z" stroke="#020203" stroke-width="1.5" stroke-linecap="round"/>
<path d="M18 20C18 21.1046 18.8954 22 20 22C21.1046 22 22 21.1046 22 20C22 18.8954 21.1046 18 20 18C18.8954 18 18 18.8954 18 20Z" stroke="#020203" stroke-width="1.5" stroke-linecap="round"/>
<path opacity="0.4" d="M6 12H18M18 20H15C12.7909 20 11 18.2091 11 16V8C11 5.79086 12.7909 4 15 4H18" stroke="#020203" stroke-width="1.5" stroke-linecap="round"/>
</svg>
