<svg width="24" height="24" viewBox="0 0 24 24" fill="none" xmlns="http://www.w3.org/2000/svg">
<path fill-rule="evenodd" clip-rule="evenodd" d="M5.25 12C5.25 11.5858 5.58579 11.25 6 11.25L18 11.25C18.4142 11.25 18.75 11.5858 18.75 12C18.75 12.4142 18.4142 12.75 18 12.75L6 12.75C5.58579 12.75 5.25 12.4142 5.25 12Z" fill="#020203"/>
<path fill-rule="evenodd" clip-rule="evenodd" d="M11 11.25C11.4142 11.25 11.75 11.5858 11.75 12V16C11.75 17.7949 13.2051 19.25 15 19.25H18.5C18.9142 19.25 19.25 19.5858 19.25 20C19.25 20.4142 18.9142 20.75 18.5 20.75H15C12.3766 20.75 10.25 18.6234 10.25 16V12C10.25 11.5858 10.5858 11.25 11 11.25Z" fill="#020203"/>
<path fill-rule="evenodd" clip-rule="evenodd" d="M11 12.75C11.4142 12.75 11.75 12.4142 11.75 12V8C11.75 6.20507 13.2051 4.75 15 4.75H18.5C18.9142 4.75 19.25 4.41421 19.25 4C19.25 3.58579 18.9142 3.25 18.5 3.25H15C12.3766 3.25 10.25 5.37665 10.25 8V12C10.25 12.4142 10.5858 12.75 11 12.75Z" fill="#020203"/>
<path d="M17.25 12C17.25 13.5188 18.4812 14.75 20 14.75C21.5188 14.75 22.75 13.5188 22.75 12C22.75 10.4812 21.5188 9.25 20 9.25C18.4812 9.25 17.25 10.4812 17.25 12Z" fill="#020203"/>
<path d="M1.25 12C1.25 13.5188 2.48122 14.75 4 14.75C5.51878 14.75 6.75 13.5188 6.75 12C6.75 10.4812 5.51878 9.25 4 9.25C2.48122 9.25 1.25 10.4812 1.25 12Z" fill="#020203"/>
<path d="M17.25 4C17.25 5.51878 18.4812 6.75 20 6.75C21.5188 6.75 22.75 5.51878 22.75 4C22.75 2.48122 21.5188 1.25 20 1.25C18.4812 1.25 17.25 2.48122 17.25 4Z" fill="#020203"/>
<path d="M17.25 20C17.25 21.5188 18.4812 22.75 20 22.75C21.5188 22.75 22.75 21.5188 22.75 20C22.75 18.4812 21.5188 17.25 20 17.25C18.4812 17.25 17.25 18.4812 17.25 20Z" fill="#020203"/>
</svg>
