<svg width="24" height="24" viewBox="0 0 24 24" fill="none" xmlns="http://www.w3.org/2000/svg">
<path d="M11 12C11 10.7574 12.0074 9.75 13.25 9.75H17.75C18.9926 9.75 20 10.7574 20 12C20 13.2426 18.9926 14.25 17.75 14.25H13.25C12.0074 14.25 11 13.2426 11 12Z" stroke="#020203" stroke-width="1.5"/>
<path d="M11 4.25C11 3.00736 12.0074 2 13.25 2H17.75C18.9926 2 20 3.00736 20 4.25C20 5.49264 18.9926 6.5 17.75 6.5H13.25C12.0074 6.5 11 5.49264 11 4.25Z" stroke="#020203" stroke-width="1.5"/>
<path d="M11 19.75C11 18.5074 12.0074 17.5 13.25 17.5H17.75C18.9926 17.5 20 18.5074 20 19.75C20 20.9926 18.9926 22 17.75 22H13.25C12.0074 22 11 20.9926 11 19.75Z" stroke="#020203" stroke-width="1.5"/>
<g opacity="0.4">
<path fill-rule="evenodd" clip-rule="evenodd" d="M4 1.25C4.41421 1.25 4.75 1.58579 4.75 2V16C4.75 17.7949 6.20507 19.25 8 19.25H11C11.4142 19.25 11.75 19.5858 11.75 20C11.75 20.4142 11.4142 20.75 11 20.75H8C5.37665 20.75 3.25 18.6234 3.25 16V2C3.25 1.58579 3.58579 1.25 4 1.25Z" fill="#020203"/>
<path fill-rule="evenodd" clip-rule="evenodd" d="M3.25 4.25C3.25 3.83579 3.58579 3.5 4 3.5H11C11.4142 3.5 11.75 3.83579 11.75 4.25C11.75 4.66421 11.4142 5 11 5H4C3.58579 5 3.25 4.66421 3.25 4.25Z" fill="#020203"/>
<path fill-rule="evenodd" clip-rule="evenodd" d="M3.25 12C3.25 11.5858 3.58579 11.25 4 11.25H11C11.4142 11.25 11.75 11.5858 11.75 12C11.75 12.4142 11.4142 12.75 11 12.75H4C3.58579 12.75 3.25 12.4142 3.25 12Z" fill="#020203"/>
</g>
</svg>
