<svg width="24" height="24" viewBox="0 0 24 24" fill="none" xmlns="http://www.w3.org/2000/svg">
<path fill-rule="evenodd" clip-rule="evenodd" d="M4 1.25C4.41421 1.25 4.75 1.58579 4.75 2V16C4.75 17.7949 6.20507 19.25 8 19.25H12C12.4142 19.25 12.75 19.5858 12.75 20C12.75 20.4142 12.4142 20.75 12 20.75H8C5.37665 20.75 3.25 18.6234 3.25 16V2C3.25 1.58579 3.58579 1.25 4 1.25Z" fill="#020203"/>
<path fill-rule="evenodd" clip-rule="evenodd" d="M3.25 4.25C3.25 3.83579 3.58579 3.5 4 3.5L12 3.5C12.4142 3.5 12.75 3.83579 12.75 4.25C12.75 4.66421 12.4142 5 12 5L4 5C3.58579 5 3.25 4.66421 3.25 4.25Z" fill="#020203"/>
<path fill-rule="evenodd" clip-rule="evenodd" d="M3.25 12C3.25 11.5858 3.58579 11.25 4 11.25L12 11.25C12.4142 11.25 12.75 11.5858 12.75 12C12.75 12.4142 12.4142 12.75 12 12.75L4 12.75C3.58579 12.75 3.25 12.4142 3.25 12Z" fill="#020203"/>
<path d="M17.75 22.75H13.25C11.5931 22.75 10.25 21.4069 10.25 19.75C10.25 18.0931 11.5931 16.75 13.25 16.75H17.75C19.4069 16.75 20.75 18.0931 20.75 19.75C20.75 21.4069 19.4069 22.75 17.75 22.75Z" fill="#020203"/>
<path d="M17.75 15H13.25C11.5931 15 10.25 13.6569 10.25 12C10.25 10.3431 11.5931 9 13.25 9H17.75C19.4069 9 20.75 10.3431 20.75 12C20.75 13.6569 19.4069 15 17.75 15Z" fill="#020203"/>
<path d="M17.75 7.25H13.25C11.5931 7.25 10.25 5.90685 10.25 4.25C10.25 2.59315 11.5931 1.25 13.25 1.25H17.75C19.4069 1.25 20.75 2.59315 20.75 4.25C20.75 5.90685 19.4069 7.25 17.75 7.25Z" fill="#020203"/>
</svg>
