<svg width="24" height="24" viewBox="0 0 24 24" fill="none" xmlns="http://www.w3.org/2000/svg">
<path opacity="0.32" fill-rule="evenodd" clip-rule="evenodd" d="M2 13.25C2.41421 13.25 2.75 13.5858 2.75 14V15.5C2.75 18.6756 5.32436 21.25 8.5 21.25H10C10.4142 21.25 10.75 21.5858 10.75 22C10.75 22.4142 10.4142 22.75 10 22.75H8.5C4.49594 22.75 1.25 19.5041 1.25 15.5V14C1.25 13.5858 1.58579 13.25 2 13.25Z" fill="#020203"/>
<path opacity="0.32" fill-rule="evenodd" clip-rule="evenodd" d="M8.5 2.75C5.32436 2.75 2.75 5.32436 2.75 8.5V10C2.75 10.4142 2.41421 10.75 2 10.75C1.58579 10.75 1.25 10.4142 1.25 10V8.5C1.25 4.49594 4.49594 1.25 8.5 1.25H10C10.4142 1.25 10.75 1.58579 10.75 2C10.75 2.41421 10.4142 2.75 10 2.75H8.5Z" fill="#020203"/>
<path opacity="0.32" fill-rule="evenodd" clip-rule="evenodd" d="M13.25 2C13.25 1.58579 13.5858 1.25 14 1.25H15.5C19.5041 1.25 22.75 4.49594 22.75 8.5V10C22.75 10.4142 22.4142 10.75 22 10.75C21.5858 10.75 21.25 10.4142 21.25 10V8.5C21.25 5.32436 18.6756 2.75 15.5 2.75H14C13.5858 2.75 13.25 2.41421 13.25 2Z" fill="#020203"/>
<path opacity="0.32" fill-rule="evenodd" clip-rule="evenodd" d="M22 13.25C22.4142 13.25 22.75 13.5858 22.75 14V15.5C22.75 19.5041 19.5041 22.75 15.5 22.75H14C13.5858 22.75 13.25 22.4142 13.25 22C13.25 21.5858 13.5858 21.25 14 21.25H15.5C18.6756 21.25 21.25 18.6756 21.25 15.5V14C21.25 13.5858 21.5858 13.25 22 13.25Z" fill="#020203"/>
<path d="M7.5 12C7.5 14.4853 9.51472 16.5 12 16.5C14.4853 16.5 16.5 14.4853 16.5 12C16.5 9.51472 14.4853 7.5 12 7.5C9.51472 7.5 7.5 9.51472 7.5 12Z" fill="#020203"/>
</svg>
