<svg width="24" height="24" viewBox="0 0 24 24" fill="none" xmlns="http://www.w3.org/2000/svg">
<path d="M8 12C8 14.2091 9.79086 16 12 16C14.2091 16 16 14.2091 16 12C16 9.79086 14.2091 8 12 8C9.79086 8 8 9.79086 8 12Z" stroke="#020203" stroke-width="1.5" stroke-linecap="round"/>
<path opacity="0.32" d="M10 22H8.5C4.91015 22 2 19.0899 2 15.5V14" stroke="#020203" stroke-width="1.5" stroke-linecap="round"/>
<path opacity="0.32" d="M2 10V8.5C2 4.91015 4.91015 2 8.5 2H10" stroke="#020203" stroke-width="1.5" stroke-linecap="round"/>
<path opacity="0.32" d="M14 2H15.5C19.0899 2 22 4.91015 22 8.5V10" stroke="#020203" stroke-width="1.5" stroke-linecap="round"/>
<path opacity="0.32" d="M22 14V15.5C22 19.0899 19.0899 22 15.5 22H14" stroke="#020203" stroke-width="1.5" stroke-linecap="round"/>
</svg>
