<svg width="24" height="24" viewBox="0 0 24 24" fill="none" xmlns="http://www.w3.org/2000/svg">
<path d="M2 9.36396V11.1818C2 14.7482 2 16.5314 2.73393 17.8755C3.28517 18.885 4.11498 19.7148 5.12451 20.2661C6.46859 21 8.25179 21 11.8182 21H14.3636C15.8846 21 16.6451 21 17.2754 20.8629C19.5707 20.3636 21.3636 18.5707 21.8629 16.2754C22 15.6451 22 14.8846 22 13.3636V11.9497C22 9.21608 19.7839 7 17.0503 7C15.7375 7 14.4785 6.47851 13.5503 5.55025L12.864 4.86396C12.4713 4.47126 12.2749 4.27491 12.0662 4.10671C11.3199 3.50534 10.4165 3.13114 9.46353 3.02866C9.197 3 8.91932 3 8.36396 3C7.0962 3 6.46232 3 5.93692 3.11432C4.02435 3.53048 2.53048 5.02435 2.11432 6.93692C2 7.46232 2 8.0962 2 9.36396Z" stroke="#020203" stroke-width="1.5" stroke-linecap="round"/>
<path d="M9 16H15" stroke="#020203" stroke-width="1.5" stroke-linecap="round"/>
</svg>
