<svg width="24" height="24" viewBox="0 0 24 24" fill="none" xmlns="http://www.w3.org/2000/svg">
<path opacity="0.4" fill-rule="evenodd" clip-rule="evenodd" d="M1.25 11.22V9.35272C1.25 8.09575 1.25 7.46727 1.34787 6.94361C1.78406 4.6098 3.6098 2.78406 5.94361 2.34787C6.46727 2.25 7.09575 2.25 8.35272 2.25C8.83416 2.25 9.07488 2.25 9.30614 2.27153C10.3155 2.36551 11.2724 2.76404 12.05 3.41428C12.2282 3.56327 12.3977 3.73413 12.7368 4.07585L13.6666 5.01281C13.7566 5.10358 13.8017 5.14896 13.8462 5.19164C14.7464 6.05521 15.937 6.55105 17.1841 6.58181C17.2457 6.58333 17.3097 6.58333 17.4375 6.58333C17.7277 6.58333 17.8727 6.58333 17.9953 6.58935C20.5639 6.71553 22.6178 8.76948 22.744 11.338C22.75 11.4606 22.75 11.6057 22.75 11.8958V13.0372C22.75 14.8618 22.75 15.7741 22.5747 16.5282C21.9921 19.0348 20.0348 20.9921 17.5282 21.5747C16.7741 21.75 15.8618 21.75 14.0372 21.75H11.78C8.25413 21.75 6.4912 21.75 5.12599 21.1076C3.70473 20.4388 2.56121 19.2953 1.89242 17.874C1.25 16.5088 1.25 14.7459 1.25 11.22Z" fill="#020203"/>
<path fill-rule="evenodd" clip-rule="evenodd" d="M8.25 16C8.25 15.5858 8.58579 15.25 9 15.25H15C15.4142 15.25 15.75 15.5858 15.75 16C15.75 16.4142 15.4142 16.75 15 16.75H9C8.58579 16.75 8.25 16.4142 8.25 16Z" fill="#020203"/>
</svg>
