<svg width="24" height="24" viewBox="0 0 24 24" fill="none" xmlns="http://www.w3.org/2000/svg">
<path d="M11.25 2.25H11C8.20653 2.25 6.80979 2.25 5.69136 2.65707C4.55399 3.07104 3.56307 3.7774 2.80713 4.6876C5.18236 6.25223 6.75 8.94304 6.75 12C6.75 15.057 5.18236 17.7478 2.80713 19.3124C3.56307 20.2226 4.55399 20.929 5.69136 21.3429C6.80979 21.75 8.20653 21.75 11 21.75H11.25V15C11.25 14.9685 11.2519 14.9374 11.2557 14.9069C9.95889 14.5759 9 13.3999 9 12C9 10.6001 9.95889 9.42409 11.2557 9.09305C11.2519 9.06256 11.25 9.03151 11.25 9V2.25Z" fill="#020203"/>
<path d="M12.7443 9.09305C14.0411 9.42409 15 10.6001 15 12C15 13.3999 14.0411 14.5759 12.7443 14.9069C12.7481 14.9374 12.75 14.9685 12.75 15V21.75H13C15.7935 21.75 17.1902 21.75 18.3086 21.3429C19.446 20.929 20.4369 20.2226 21.1929 19.3124C18.8176 17.7478 17.25 15.057 17.25 12C17.25 8.94304 18.8176 6.25223 21.1929 4.6876C20.4369 3.7774 19.446 3.07104 18.3086 2.65707C17.1902 2.25 15.7935 2.25 13 2.25H12.75V9C12.75 9.03151 12.7481 9.06256 12.7443 9.09305Z" fill="#020203"/>
<path d="M1.65707 6.69136C1.25 7.80979 1.25 9.20653 1.25 12C1.25 14.7935 1.25 16.1902 1.65707 17.3086C1.75097 17.5666 1.85992 17.8171 1.98287 18.059C3.95102 16.7626 5.25 14.533 5.25 12C5.25 9.46702 3.95102 7.23743 1.98287 5.94104C1.85992 6.18292 1.75097 6.43338 1.65707 6.69136Z" fill="#020203"/>
<path d="M22.0171 5.94104C20.049 7.23743 18.75 9.46702 18.75 12C18.75 14.533 20.049 16.7626 22.0171 18.059C22.1401 17.8171 22.249 17.5666 22.3429 17.3086C22.75 16.1902 22.75 14.7935 22.75 12C22.75 9.20653 22.75 7.80979 22.3429 6.69136C22.249 6.43338 22.1401 6.18292 22.0171 5.94104Z" fill="#020203"/>
<path d="M12 13.5C11.1716 13.5 10.5 12.8284 10.5 12C10.5 11.1716 11.1716 10.5 12 10.5C12.8284 10.5 13.5 11.1716 13.5 12C13.5 12.8284 12.8284 13.5 12 13.5Z" fill="#020203"/>
</svg>
