<svg width="24" height="24" viewBox="0 0 24 24" fill="none" xmlns="http://www.w3.org/2000/svg">
<path d="M1.76492 5.8165C1.25 7.10885 1.25 8.73923 1.25 12C1.25 12.0844 1.25 12.1677 1.25001 12.25H22.75C22.75 12.1677 22.75 12.0844 22.75 12C22.75 8.73923 22.75 7.10885 22.2351 5.8165C21.4982 3.96695 20.0331 2.50185 18.1835 1.76492C16.8912 1.25 15.2608 1.25 12 1.25C8.73923 1.25 7.10885 1.25 5.8165 1.76492C3.96695 2.50185 2.50185 3.96695 1.76492 5.8165Z" fill="#020203"/>
<path opacity="0.4" d="M22.746 13.75H1.25395C1.27005 15.8911 1.35161 17.1462 1.76491 18.1835C2.50184 20.0331 3.96694 21.4982 5.81649 22.2351C7.10884 22.75 8.73923 22.75 12 22.75C15.2608 22.75 16.8911 22.75 18.1835 22.2351C20.033 21.4982 21.4981 20.0331 22.2351 18.1835C22.6484 17.1462 22.7299 15.8911 22.746 13.75Z" fill="#020203"/>
<path fill-rule="evenodd" clip-rule="evenodd" d="M12.25 17.5C12.25 17.0858 12.5858 16.75 13 16.75H14C14.4142 16.75 14.75 17.0858 14.75 17.5C14.75 17.9142 14.4142 18.25 14 18.25H13C12.5858 18.25 12.25 17.9142 12.25 17.5Z" fill="#020203"/>
<path fill-rule="evenodd" clip-rule="evenodd" d="M16.25 17.5C16.25 17.0858 16.5858 16.75 17 16.75H18C18.4142 16.75 18.75 17.0858 18.75 17.5C18.75 17.9142 18.4142 18.25 18 18.25H17C16.5858 18.25 16.25 17.9142 16.25 17.5Z" fill="#020203"/>
<path fill-rule="evenodd" clip-rule="evenodd" d="M5.4955 17.5C5.4955 16.9477 5.94321 16.5 6.4955 16.5H6.5045C7.05678 16.5 7.5045 16.9477 7.5045 17.5C7.5045 18.0523 7.05678 18.5 6.5045 18.5H6.4955C5.94321 18.5 5.4955 18.0523 5.4955 17.5Z" fill="#020203"/>
</svg>
