<svg width="24" height="24" viewBox="0 0 24 24" fill="none" xmlns="http://www.w3.org/2000/svg">
<path d="M11.25 1.27576C7.12897 1.55976 3.6468 4.16639 2.10307 7.7961L7.50907 10.2095C7.66732 9.97763 7.86269 9.76776 8.09201 9.5894L10.3117 7.86301C10.5978 7.64047 10.9169 7.48205 11.25 7.38775V1.27576Z" fill="#020203"/>
<path d="M12.75 7.38775C13.0831 7.48205 13.4022 7.64047 13.6883 7.86301L15.908 9.5894C16.1373 9.76776 16.3327 9.97763 16.4909 10.2095L21.8969 7.7961C20.3532 4.16639 16.871 1.55976 12.75 1.27576V7.38775Z" fill="#020203"/>
<path d="M1.25 12C1.25 15.1939 2.64289 18.0625 4.85436 20.0315L8.13898 15.8632C8.0261 15.6654 7.93655 15.4511 7.87449 15.2236L7.12725 12.4837C7.05097 12.204 7.02056 11.9195 7.03287 11.6396L1.61293 9.21997C1.3762 10.1067 1.25 11.0386 1.25 12Z" fill="#020203"/>
<path d="M12 22.75C9.79592 22.75 7.74677 22.0867 6.04128 20.9488L9.21756 16.918C9.61024 17.1309 10.0579 17.25 10.5276 17.25H13.4724C13.9347 17.25 14.3757 17.1347 14.7639 16.928L17.8713 21.0065C16.1834 22.1091 14.1666 22.75 12 22.75Z" fill="#020203"/>
<path d="M19.067 20.1008L15.8513 15.8801C15.9688 15.6776 16.0617 15.4576 16.1255 15.2236L16.8728 12.4837C16.949 12.204 16.9794 11.9195 16.9671 11.6396L22.3871 9.21997C22.6238 10.1067 22.75 11.0386 22.75 12C22.75 15.2316 21.324 18.1302 19.067 20.1008Z" fill="#020203"/>
<path d="M11.2326 9.04703L9.01292 10.7734C8.6146 11.0832 8.44162 11.6022 8.5744 12.089L9.32164 14.8289C9.46995 15.3727 9.9639 15.75 10.5276 15.75H13.4724C14.0361 15.75 14.53 15.3727 14.6784 14.8289L15.4256 12.089C15.5584 11.6022 15.3854 11.0832 14.9871 10.7734L12.7674 9.04703C12.316 8.69595 11.684 8.69595 11.2326 9.04703Z" fill="#020203"/>
</svg>
