<svg width="24" height="24" viewBox="0 0 24 24" fill="none" xmlns="http://www.w3.org/2000/svg">
<path d="M2 12C2 17.5228 6.47715 22 12 22C17.5228 22 22 17.5228 22 12C22 6.47715 17.5228 2 12 2C6.47715 2 2 6.47715 2 12Z" stroke="#020203" stroke-width="1.5" stroke-linecap="round"/>
<path d="M8.55249 10.1814L10.7721 8.45502C11.4944 7.89329 12.5057 7.89329 13.2279 8.45502L15.4475 10.1814C16.0849 10.6771 16.3616 11.5074 16.1492 12.2863L15.402 15.0262C15.1646 15.8964 14.3743 16.5 13.4724 16.5H10.5276C9.62571 16.5 8.83539 15.8964 8.59808 15.0262L7.85084 12.2864C7.6384 11.5074 7.91516 10.6771 8.55249 10.1814Z" stroke="#020203" stroke-width="1.5" stroke-linecap="round"/>
<path d="M12 7.5V2.5" stroke="#020203" stroke-width="1.5" stroke-linecap="round"/>
<path d="M16.56 11L21 9.01785" stroke="#020203" stroke-width="1.5" stroke-linecap="round"/>
<path d="M8.7868 16.2529L6.23004 19.5" stroke="#020203" stroke-width="1.5" stroke-linecap="round"/>
<path d="M7.44 11L3 9.01785" stroke="#020203" stroke-width="1.5" stroke-linecap="round"/>
<path d="M15.1932 16.2539L17.6664 19.5" stroke="#020203" stroke-width="1.5" stroke-linecap="round"/>
</svg>
