<svg width="24" height="24" viewBox="0 0 24 24" fill="none" xmlns="http://www.w3.org/2000/svg">
<path d="M11.2326 9.04703L9.01291 10.7734C8.61458 11.0832 8.4416 11.6022 8.57438 12.089L9.32162 14.8289C9.46994 15.3727 9.96388 15.75 10.5276 15.75H13.4724C14.0361 15.75 14.53 15.3727 14.6783 14.8289L15.4256 12.089C15.5584 11.6022 15.3854 11.0832 14.9871 10.7734L12.7674 9.04703C12.316 8.69595 11.6839 8.69595 11.2326 9.04703Z" fill="#020203"/>
<path d="M1.25 11.9996C1.25 15.1936 2.64289 18.0622 4.85436 20.0311L8.13898 15.8629C8.0261 15.665 7.93655 15.4507 7.87449 15.2232L7.12725 12.4833C7.05097 12.2036 7.02056 11.9191 7.03287 11.6392L1.61293 9.2196C1.3762 10.1064 1.25 11.0383 1.25 11.9996Z" fill="#020203"/>
<path opacity="0.4" d="M12 22.7496C9.79591 22.7496 7.74675 22.0863 6.04126 20.9484L9.21754 16.9176C9.61023 17.1306 10.0579 17.2496 10.5276 17.2496H13.4724C13.9347 17.2496 14.3757 17.1343 14.7639 16.9276L17.8713 21.0061C16.1834 22.1087 14.1665 22.7496 12 22.7496Z" fill="#020203"/>
<path d="M19.067 20.1004L15.8513 15.8798C15.9687 15.6772 16.0617 15.4572 16.1255 15.2232L16.8727 12.4833C16.949 12.2036 16.9794 11.9191 16.9671 11.6392L22.387 9.2196C22.6238 10.1064 22.75 11.0383 22.75 11.9996C22.75 15.2312 21.324 18.1298 19.067 20.1004Z" fill="#020203"/>
<path opacity="0.4" d="M12.75 7.38738C13.0831 7.48168 13.4022 7.6401 13.6883 7.86264L15.908 9.58903C16.1373 9.7674 16.3327 9.97726 16.4909 10.2091L21.8969 7.79573C20.3532 4.16603 16.871 1.55939 12.75 1.27539V7.38738Z" fill="#020203"/>
<path opacity="0.4" d="M11.25 1.27539C7.12899 1.55939 3.64682 4.16603 2.10309 7.79573L7.50909 10.2091C7.66734 9.97726 7.86271 9.7674 8.09204 9.58903L10.3117 7.86264C10.5978 7.6401 10.9169 7.48168 11.25 7.38738V1.27539Z" fill="#020203"/>
</svg>
