<svg width="24" height="24" viewBox="0 0 24 24" fill="none" xmlns="http://www.w3.org/2000/svg">
<path d="M2 12C2 9.20435 2 7.80653 2.45672 6.7039C3.06569 5.23373 4.23373 4.06569 5.7039 3.45672C6.80653 3 8.20435 3 11 3H13C15.7956 3 17.1935 3 18.2961 3.45672C19.7663 4.06569 20.9343 5.23373 21.5433 6.7039C22 7.80653 22 9.20435 22 12C22 14.7956 22 16.1935 21.5433 17.2961C20.9343 18.7663 19.7663 19.9343 18.2961 20.5433C17.1935 21 15.7956 21 13 21H11C8.20435 21 6.80653 21 5.7039 20.5433C4.23373 19.9343 3.06569 18.7663 2.45672 17.2961C2 16.1935 2 14.7956 2 12Z" stroke="#020203" stroke-width="1.5"/>
<path d="M20.7084 6C19.0475 7.46589 18 9.61061 18 12C18 14.3894 19.0475 16.5341 20.7084 18" stroke="#020203" stroke-width="1.5" stroke-linecap="round"/>
<path d="M3.29166 6C4.9525 7.46589 6.00001 9.61061 6.00001 12C6.00001 14.3894 4.9525 16.5341 3.29166 18" stroke="#020203" stroke-width="1.5" stroke-linecap="round"/>
<path d="M12 3L12 9" stroke="#020203" stroke-width="1.5" stroke-linecap="round"/>
<path d="M12 15L12 21" stroke="#020203" stroke-width="1.5" stroke-linecap="round"/>
<path d="M12 14.25C10.7574 14.25 9.75 13.2426 9.75 12C9.75 10.7574 10.7574 9.75 12 9.75C13.2426 9.75 14.25 10.7574 14.25 12C14.25 13.2426 13.2426 14.25 12 14.25Z" stroke="#020203" stroke-width="1.5" stroke-linecap="round"/>
</svg>
