<svg width="24" height="24" viewBox="0 0 24 24" fill="none" xmlns="http://www.w3.org/2000/svg">
<path d="M1.25 12C1.25 8.73923 1.25 7.10885 1.76492 5.8165C2.50185 3.96695 3.96695 2.50185 5.8165 1.76492C7.10885 1.25 8.73923 1.25 12 1.25C15.2608 1.25 16.8912 1.25 18.1835 1.76492C20.0331 2.50185 21.4982 3.96695 22.2351 5.8165C22.75 7.10885 22.75 8.73923 22.75 12C22.75 12.0844 22.75 12.1677 22.75 12.25H1.25001C1.25 12.1677 1.25 12.0844 1.25 12Z" fill="#020203"/>
<path fill-rule="evenodd" clip-rule="evenodd" d="M1.25396 13.75C1.27006 15.8911 1.35162 17.1462 1.76492 18.1835C2.50185 20.0331 3.96695 21.4982 5.8165 22.2351C7.10885 22.75 8.73923 22.75 12 22.75C15.2608 22.75 16.8912 22.75 18.1835 22.2351C20.0331 21.4982 21.4982 20.0331 22.2351 18.1835C22.6484 17.1462 22.7299 15.8911 22.746 13.75H1.25396ZM12.25 17.5C12.25 17.0858 12.5858 16.75 13 16.75H14C14.4142 16.75 14.75 17.0858 14.75 17.5C14.75 17.9142 14.4142 18.25 14 18.25H13C12.5858 18.25 12.25 17.9142 12.25 17.5ZM17 16.75C16.5858 16.75 16.25 17.0858 16.25 17.5C16.25 17.9142 16.5858 18.25 17 18.25H18C18.4142 18.25 18.75 17.9142 18.75 17.5C18.75 17.0858 18.4142 16.75 18 16.75H17ZM5.4955 17.5C5.4955 16.9477 5.94322 16.5 6.4955 16.5H6.5045C7.05678 16.5 7.5045 16.9477 7.5045 17.5C7.5045 18.0523 7.05678 18.5 6.5045 18.5H6.4955C5.94322 18.5 5.4955 18.0523 5.4955 17.5Z" fill="#020203"/>
</svg>
