<svg width="24" height="24" viewBox="0 0 24 24" fill="none" xmlns="http://www.w3.org/2000/svg">
<path fill-rule="evenodd" clip-rule="evenodd" d="M4.46323 5.44867C4.25 6.20968 4.25 7.13979 4.25 9V10.25L19.75 10.25V9C19.75 7.13979 19.75 6.20968 19.5368 5.44867C18.9951 3.51553 17.4845 2.00486 15.5513 1.46323C14.7903 1.25 13.8602 1.25 12 1.25C10.1398 1.25 9.20968 1.25 8.44867 1.46323C6.51553 2.00486 5.00486 3.51553 4.46323 5.44867ZM9 6.25C8.58579 6.25 8.25 6.58579 8.25 7C8.25 7.41421 8.58579 7.75 9 7.75H10C10.4142 7.75 10.75 7.41421 10.75 7C10.75 6.58579 10.4142 6.25 10 6.25H9Z" fill="#020203"/>
<path fill-rule="evenodd" clip-rule="evenodd" d="M19.75 11.75L4.25 11.75V14C4.25 15.8602 4.25 16.7903 4.46323 17.5513C5.00486 19.4845 6.51553 20.9951 8.44867 21.5368C9.20968 21.75 10.1398 21.75 12 21.75C13.8602 21.75 14.7903 21.75 15.5513 21.5368C17.4845 20.9951 18.9951 19.4845 19.5368 17.5513C19.75 16.7903 19.75 15.8602 19.75 14V11.75ZM8.25 15C8.25 14.5858 8.58579 14.25 9 14.25H10C10.4142 14.25 10.75 14.5858 10.75 15C10.75 15.4142 10.4142 15.75 10 15.75H9C8.58579 15.75 8.25 15.4142 8.25 15Z" fill="#020203"/>
<path fill-rule="evenodd" clip-rule="evenodd" d="M16 19.25C16.4142 19.25 16.75 19.5858 16.75 20L16.75 22C16.75 22.4142 16.4142 22.75 16 22.75C15.5858 22.75 15.25 22.4142 15.25 22L15.25 20C15.25 19.5858 15.5858 19.25 16 19.25Z" fill="#020203"/>
<path fill-rule="evenodd" clip-rule="evenodd" d="M8 19.25C8.41421 19.25 8.75 19.5858 8.75 20L8.75 22C8.75 22.4142 8.41421 22.75 8 22.75C7.58579 22.75 7.25 22.4142 7.25 22L7.25 20C7.25 19.5858 7.58579 19.25 8 19.25Z" fill="#020203"/>
</svg>
