<svg width="24" height="24" viewBox="0 0 24 24" fill="none" xmlns="http://www.w3.org/2000/svg">
<path d="M9.5 22H14.5C15.8945 22 16.5918 22 17.1672 21.8618C18.9955 21.4229 20.4229 19.9955 20.8618 18.1672C21 17.5918 21 16.8945 21 15.5V13.8541C21 11.1733 18.8267 9 16.1459 9C15.3923 9 14.6392 9.18041 13.9652 9.51742C12.724 10.138 11.2617 10.2232 9.96248 9.73593L8.71863 9.26949C8.24342 9.09128 7.74003 9 7.2325 9C4.89496 9 3 10.895 3 13.2325V15.5C3 16.8945 3 17.5918 3.13815 18.1672C3.57707 19.9955 5.00453 21.4229 6.83277 21.8618C7.40821 22 8.10547 22 9.5 22Z" stroke="#020203" stroke-width="1.5" stroke-linecap="round"/>
<path d="M8 17V16C8 14.8954 8.89543 14 10 14C11.1046 14 12 14.8954 12 16V17" stroke="#020203" stroke-width="1.5" stroke-linecap="round"/>
<path d="M12 17V16C12 14.8954 12.8954 14 14 14C15.1046 14 16 14.8954 16 16V17" stroke="#020203" stroke-width="1.5" stroke-linecap="round"/>
<path d="M4 10.25V6C4 4.89543 4.89543 4 6 4C7.10457 4 8 4.89543 8 6V9" stroke="#020203" stroke-width="1.5" stroke-linecap="round"/>
<path d="M8 9V5C8 3.89543 8.89543 3 10 3C11.1046 3 12 3.89543 12 5V10" stroke="#020203" stroke-width="1.5" stroke-linecap="round"/>
<path d="M12 10V7C12 5.89543 12.8954 5 14 5C15.1046 5 16 5.89543 16 7V8.75" stroke="#020203" stroke-width="1.5" stroke-linecap="round"/>
<path d="M16 8.75V4C16 2.89543 16.8954 2 18 2C19.1046 2 20 2.89543 20 4V10.75" stroke="#020203" stroke-width="1.5" stroke-linecap="round"/>
</svg>
