<svg width="24" height="24" viewBox="0 0 24 24" fill="none" xmlns="http://www.w3.org/2000/svg">
<path opacity="0.4" d="M8.54245 22.75H15.4575C15.9613 22.75 16.2131 22.75 16.4257 22.7342C19.2656 22.5234 21.5234 20.2656 21.7342 17.4257C21.75 17.2131 21.75 16.9613 21.75 16.4575V13.9198C21.75 10.7885 19.2115 8.25 16.0802 8.25C15.5333 8.25 14.9928 8.3687 14.4962 8.5979L14.1453 8.75987C13.9398 8.8547 13.8371 8.90212 13.736 8.94376C12.6109 9.40723 11.3598 9.46552 10.1966 9.10867C10.0921 9.07661 9.98536 9.03895 9.77197 8.96364L8.28156 8.43761C7.92975 8.31344 7.55938 8.25 7.1863 8.25C4.46006 8.25 2.25 10.4601 2.25 13.1863V16.4575C2.25 16.9613 2.25 17.2131 2.26578 17.4257C2.47659 20.2656 4.7344 22.5234 7.57435 22.7342C7.78688 22.75 8.03874 22.75 8.54245 22.75Z" fill="#020203"/>
<path fill-rule="evenodd" clip-rule="evenodd" d="M10 14.75C9.30964 14.75 8.75 15.3096 8.75 16V17C8.75 17.4142 8.41421 17.75 8 17.75C7.58579 17.75 7.25 17.4142 7.25 17V16C7.25 14.4812 8.48122 13.25 10 13.25C11.5188 13.25 12.75 14.4812 12.75 16V17C12.75 17.4142 12.4142 17.75 12 17.75C11.5858 17.75 11.25 17.4142 11.25 17V16C11.25 15.3096 10.6904 14.75 10 14.75Z" fill="#020203"/>
<path fill-rule="evenodd" clip-rule="evenodd" d="M14 14.75C13.3096 14.75 12.75 15.3096 12.75 16V17C12.75 17.4142 12.4142 17.75 12 17.75C11.5858 17.75 11.25 17.4142 11.25 17V16C11.25 14.4812 12.4812 13.25 14 13.25C15.5188 13.25 16.75 14.4812 16.75 16V17C16.75 17.4142 16.4142 17.75 16 17.75C15.5858 17.75 15.25 17.4142 15.25 17V16C15.25 15.3096 14.6904 14.75 14 14.75Z" fill="#020203"/>
<path d="M15.33 4.6898L15.3147 4.03122C15.2792 2.50577 16.5061 1.25 18.032 1.25C19.5331 1.25 20.75 2.4669 20.75 3.96803V9.45336C19.7272 7.97128 18.0171 7 16.0802 7C15.5333 7 14.9928 7.1187 14.4962 7.3479L14.1453 7.50987C13.9398 7.6047 13.8371 7.65212 13.736 7.69376C12.6109 8.15723 11.3598 8.21552 10.1966 7.85867C10.0921 7.82661 9.98534 7.78894 9.77195 7.71363L8.28156 7.18761C7.92975 7.06344 7.55938 7 7.1863 7C5.57913 7 4.15135 7.76806 3.25 8.95716V6C3.25 4.48122 4.48122 3.25 6 3.25C6.58347 3.25 7.12451 3.43171 7.56959 3.74163C8.03657 2.85472 8.9673 2.25 10.0393 2.25C11.3887 2.25 12.5192 3.20963 12.7746 4.4911C13.1093 4.33635 13.482 4.25 13.875 4.25C14.4132 4.25 14.9135 4.41196 15.33 4.6898Z" fill="#020203"/>
</svg>
