<svg width="24" height="24" viewBox="0 0 24 24" fill="none" xmlns="http://www.w3.org/2000/svg">
<path opacity="0.4" d="M2.25 11C2.25 7.73531 2.25 6.10296 2.84483 4.83888C3.46408 3.5229 4.5229 2.46408 5.83888 1.84483C7.10296 1.25 8.73531 1.25 12 1.25C15.2647 1.25 16.897 1.25 18.1611 1.84483C19.4771 2.46408 20.5359 3.5229 21.1552 4.83888C21.75 6.10296 21.75 7.73531 21.75 11V13C21.75 16.2647 21.75 17.897 21.1552 19.1611C20.5359 20.4771 19.4771 21.5359 18.1611 22.1552C16.897 22.75 15.2647 22.75 12 22.75C8.73531 22.75 7.10296 22.75 5.83888 22.1552C4.5229 21.5359 3.46408 20.4771 2.84483 19.1611C2.25 17.897 2.25 16.2647 2.25 13V11Z" fill="#020203"/>
<path d="M6 9C6 6.79086 7.79086 5 10 5H14C16.2091 5 18 6.79086 18 9C18 11.2091 16.2091 13 14 13H10C7.79086 13 6 11.2091 6 9Z" fill="#020203"/>
<path fill-rule="evenodd" clip-rule="evenodd" d="M9.03033 15.4697C9.32322 15.7626 9.32322 16.2374 9.03033 16.5303L7.03033 18.5303C6.73744 18.8232 6.26256 18.8232 5.96967 18.5303C5.67678 18.2374 5.67678 17.7626 5.96967 17.4697L7.96967 15.4697C8.26256 15.1768 8.73744 15.1768 9.03033 15.4697Z" fill="#020203"/>
<path fill-rule="evenodd" clip-rule="evenodd" d="M5.96967 15.4697C6.26256 15.1768 6.73744 15.1768 7.03033 15.4697L9.03033 17.4697C9.32322 17.7626 9.32322 18.2374 9.03033 18.5303C8.73744 18.8232 8.26256 18.8232 7.96967 18.5303L5.96967 16.5303C5.67678 16.2374 5.67678 15.7626 5.96967 15.4697Z" fill="#020203"/>
<path fill-rule="evenodd" clip-rule="evenodd" d="M15.9926 17C15.9926 16.4477 16.4403 16 16.9926 16H17.0015C17.5538 16 18.0015 16.4477 18.0015 17C18.0015 17.5523 17.5538 18 17.0015 18H16.9926C16.4403 18 15.9926 17.5523 15.9926 17Z" fill="#020203"/>
<path fill-rule="evenodd" clip-rule="evenodd" d="M11.9926 17C11.9926 16.4477 12.4403 16 12.9926 16H13.0015C13.5538 16 14.0015 16.4477 14.0015 17C14.0015 17.5523 13.5538 18 13.0015 18H12.9926C12.4403 18 11.9926 17.5523 11.9926 17Z" fill="#020203"/>
</svg>
