<svg width="24" height="24" viewBox="0 0 24 24" fill="none" xmlns="http://www.w3.org/2000/svg">
<path d="M6.75 9C6.75 7.20507 8.20507 5.75 10 5.75H14C15.7949 5.75 17.25 7.20507 17.25 9C17.25 10.7949 15.7949 12.25 14 12.25H10C8.20507 12.25 6.75 10.7949 6.75 9Z" fill="#020203"/>
<path fill-rule="evenodd" clip-rule="evenodd" d="M2.84483 4.83888C2.25 6.10296 2.25 7.73531 2.25 11V13C2.25 16.2647 2.25 17.897 2.84483 19.1611C3.46408 20.4771 4.5229 21.5359 5.83888 22.1552C7.10296 22.75 8.73531 22.75 12 22.75C15.2647 22.75 16.897 22.75 18.1611 22.1552C19.4771 21.5359 20.5359 20.4771 21.1552 19.1611C21.75 17.897 21.75 16.2647 21.75 13V11C21.75 7.73531 21.75 6.10296 21.1552 4.83888C20.5359 3.5229 19.4771 2.46408 18.1611 1.84483C16.897 1.25 15.2647 1.25 12 1.25C8.73531 1.25 7.10296 1.25 5.83888 1.84483C4.5229 2.46408 3.46408 3.5229 2.84483 4.83888ZM10 4.25C7.37665 4.25 5.25 6.37665 5.25 9C5.25 11.6234 7.37665 13.75 10 13.75H14C16.6234 13.75 18.75 11.6234 18.75 9C18.75 6.37665 16.6234 4.25 14 4.25H10ZM9.03033 15.4697C9.32322 15.7626 9.32322 16.2374 9.03033 16.5303L8.56066 17L9.03033 17.4697C9.32322 17.7626 9.32322 18.2374 9.03033 18.5303C8.73744 18.8232 8.26256 18.8232 7.96967 18.5303L7.5 18.0607L7.03033 18.5303C6.73744 18.8232 6.26256 18.8232 5.96967 18.5303C5.67678 18.2374 5.67678 17.7626 5.96967 17.4697L6.43934 17L5.96967 16.5303C5.67678 16.2374 5.67678 15.7626 5.96967 15.4697C6.26256 15.1768 6.73744 15.1768 7.03033 15.4697L7.5 15.9393L7.96967 15.4697C8.26256 15.1768 8.73744 15.1768 9.03033 15.4697ZM15.9926 17C15.9926 16.4477 16.4403 16 16.9926 16H17.0015C17.5538 16 18.0015 16.4477 18.0015 17C18.0015 17.5523 17.5538 18 17.0015 18H16.9926C16.4403 18 15.9926 17.5523 15.9926 17ZM12.9926 16C12.4403 16 11.9926 16.4477 11.9926 17C11.9926 17.5523 12.4403 18 12.9926 18H13.0015C13.5538 18 14.0015 17.5523 14.0015 17C14.0015 16.4477 13.5538 16 13.0015 16H12.9926Z" fill="#020203"/>
</svg>
