<svg width="24" height="24" viewBox="0 0 24 24" fill="none" xmlns="http://www.w3.org/2000/svg">
<path opacity="0.4" d="M10.5131 21.9757H13.4869C16.7728 21.9757 18.4157 21.9757 19.6213 21.2335C20.2873 20.8235 20.8478 20.263 21.2578 19.597C22 18.3914 22 16.7273 22 13.3992C22 11.6149 22 10.7228 21.7645 9.90726C21.6083 9.36625 21.3767 8.84993 21.0766 8.37349C20.6241 7.65527 19.9662 7.06938 18.6503 5.89761C16.1379 3.66038 14.8817 2.54177 13.4408 2.18534C12.4945 1.95124 11.5055 1.95124 10.5592 2.18534C9.11833 2.54177 7.86213 3.66038 5.34974 5.89761C4.03385 7.06938 3.37589 7.65527 2.92342 8.37349C2.62327 8.84993 2.39168 9.36625 2.23548 9.90726C2 10.7228 2 11.6149 2 13.3992C2 16.7273 2 18.3914 2.7422 19.597C3.15221 20.263 3.71273 20.8235 4.37872 21.2335C5.58429 21.9757 7.22723 21.9757 10.5131 21.9757Z" stroke="#020203" stroke-width="1.5" stroke-linecap="round"/>
<path d="M11 7.5H13" stroke="#020203" stroke-width="1.5" stroke-linecap="round" stroke-linejoin="round"/>
<path d="M7 21.5V15.5C7 13.567 8.567 12 10.5 12H13.5C15.433 12 17 13.567 17 15.5V21.5" stroke="#020203" stroke-width="1.5" stroke-linecap="round"/>
<path d="M7 15.5H17" stroke="#020203" stroke-width="1.5" stroke-linecap="round" stroke-linejoin="round"/>
<path d="M7 19.5H17" stroke="#020203" stroke-width="1.5" stroke-linecap="round" stroke-linejoin="round"/>
</svg>
