<svg width="24" height="24" viewBox="0 0 24 24" fill="none" xmlns="http://www.w3.org/2000/svg">
<path d="M10.7584 22.7503H13.2416C14.4279 22.7503 15.4138 22.7503 16.25 22.7218V20.25H7.75V22.7218C8.58623 22.7503 9.57215 22.7503 10.7584 22.7503Z" fill="#020203"/>
<path fill-rule="evenodd" clip-rule="evenodd" d="M6.25 15.5C6.25 13.1528 8.15279 11.25 10.5 11.25H13.5C15.8472 11.25 17.75 13.1528 17.75 15.5V22.6166C18.5969 22.5137 19.2521 22.3315 19.8239 22.0091C20.7379 21.4938 21.4935 20.7383 22.0088 19.8242C22.75 18.5096 22.75 16.7537 22.75 13.2419C22.75 11.4028 22.75 10.4833 22.5046 9.63357C22.3321 9.03609 22.0713 8.46771 21.7309 7.94721C21.2469 7.20699 20.5499 6.60722 19.1558 5.40769L19.0116 5.28358C16.2289 2.88915 14.8375 1.69194 13.2353 1.36889C12.42 1.20451 11.58 1.20451 10.7647 1.36889C9.16247 1.69194 7.77111 2.88915 4.9884 5.28358L4.84417 5.40769C3.45011 6.60722 2.75308 7.20699 2.26906 7.94721C1.92871 8.46771 1.66794 9.03609 1.49539 9.63357C1.25 10.4833 1.25 11.4028 1.25 13.2419C1.25 16.7537 1.25 18.5096 1.9912 19.8242C2.50651 20.7383 3.26209 21.4938 4.1761 22.0091C4.74789 22.3315 5.40313 22.5137 6.25 22.6166V15.5ZM10.25 7.5C10.25 7.08579 10.5858 6.75 11 6.75H13C13.4142 6.75 13.75 7.08579 13.75 7.5C13.75 7.91421 13.4142 8.25 13 8.25H11C10.5858 8.25 10.25 7.91421 10.25 7.5Z" fill="#020203"/>
<path d="M7.75 18.75V16.25H16.25V18.75H7.75Z" fill="#020203"/>
<path d="M7.85352 14.75H16.1465C15.82 13.5957 14.7588 12.75 13.5 12.75H10.5C9.24122 12.75 8.17998 13.5957 7.85352 14.75Z" fill="#020203"/>
</svg>
