<svg width="24" height="24" viewBox="0 0 24 24" fill="none" xmlns="http://www.w3.org/2000/svg">
<path d="M15 5.5C15 7.433 16.567 9 18.5 9C20.433 9 22 7.433 22 5.5C22 3.567 20.433 2 18.5 2C16.567 2 15 3.567 15 5.5Z" stroke="#020203" stroke-width="1.5" stroke-linecap="round"/>
<path d="M8.5 18.5C8.5 20.433 10.067 22 12 22C13.933 22 15.5 20.433 15.5 18.5C15.5 16.567 13.933 15 12 15C10.067 15 8.5 16.567 8.5 18.5Z" stroke="#020203" stroke-width="1.5" stroke-linecap="round"/>
<path d="M2 5.5C2 7.433 3.567 9 5.5 9C7.433 9 9 7.433 9 5.5C9 3.567 7.433 2 5.5 2C3.567 2 2 3.567 2 5.5Z" stroke="#020203" stroke-width="1.5" stroke-linecap="round"/>
<path opacity="0.4" d="M5.5 9V9.25C5.5 11.0449 6.95507 12.5 8.75 12.5H9.5C10.8807 12.5 12 13.6193 12 15C12 13.6193 13.1193 12.5 14.5 12.5H15.25C17.0449 12.5 18.5 11.0449 18.5 9.25V9" stroke="#020203" stroke-width="1.5" stroke-linecap="round"/>
</svg>
