<svg width="24" height="24" viewBox="0 0 24 24" fill="none" xmlns="http://www.w3.org/2000/svg">
<path d="M2 6.5C2 8.98528 4.01472 11 6.5 11C8.98528 11 11 8.98528 11 6.5C11 4.01472 8.98528 2 6.5 2C4.01472 2 2 4.01472 2 6.5Z" stroke="#020203" stroke-width="1.5" stroke-linecap="round"/>
<path opacity="0.4" d="M6.5 22V11V13C6.5 15.7614 8.73858 18 11.5 18H13" stroke="#020203" stroke-width="1.5" stroke-linecap="round"/>
<path d="M13 17.5C13 19.9853 15.0147 22 17.5 22C19.9853 22 22 19.9853 22 17.5C22 15.0147 19.9853 13 17.5 13C15.0147 13 13 15.0147 13 17.5Z" stroke="#020203" stroke-width="1.5" stroke-linecap="round"/>
</svg>
