<svg width="24" height="24" viewBox="0 0 24 24" fill="none" xmlns="http://www.w3.org/2000/svg">
<g opacity="0.4">
<path fill-rule="evenodd" clip-rule="evenodd" d="M6.5 10.25C6.91421 10.25 7.25 10.5858 7.25 11V22C7.25 22.4142 6.91421 22.75 6.5 22.75C6.08579 22.75 5.75 22.4142 5.75 22V11C5.75 10.5858 6.08579 10.25 6.5 10.25Z" fill="#020203"/>
<path fill-rule="evenodd" clip-rule="evenodd" d="M6.5 10.25C6.91421 10.25 7.25 10.5858 7.25 11V13C7.25 15.3472 9.15279 17.25 11.5 17.25H13.5C13.9142 17.25 14.25 17.5858 14.25 18C14.25 18.4142 13.9142 18.75 13.5 18.75H11.5C8.32436 18.75 5.75 16.1756 5.75 13V11C5.75 10.5858 6.08579 10.25 6.5 10.25Z" fill="#020203"/>
</g>
<path d="M1.25 6.5C1.25 9.3995 3.6005 11.75 6.5 11.75C9.3995 11.75 11.75 9.3995 11.75 6.5C11.75 3.6005 9.3995 1.25 6.5 1.25C3.6005 1.25 1.25 3.6005 1.25 6.5Z" fill="#020203"/>
<path d="M12.25 17.5C12.25 20.3995 14.6005 22.75 17.5 22.75C20.3995 22.75 22.75 20.3995 22.75 17.5C22.75 14.6005 20.3995 12.25 17.5 12.25C14.6005 12.25 12.25 14.6005 12.25 17.5Z" fill="#020203"/>
</svg>
