<svg width="24" height="24" viewBox="0 0 24 24" fill="none" xmlns="http://www.w3.org/2000/svg">
<g opacity="0.4">
<path fill-rule="evenodd" clip-rule="evenodd" d="M5.5 7.75C5.91421 7.75 6.25 8.08579 6.25 8.5V9.25C6.25 10.6307 7.36929 11.75 8.75 11.75H9.5C11.2949 11.75 12.75 13.2051 12.75 15V15.5C12.75 15.9142 12.4142 16.25 12 16.25C11.5858 16.25 11.25 15.9142 11.25 15.5V15C11.25 14.0335 10.4665 13.25 9.5 13.25H8.75C6.54086 13.25 4.75 11.4591 4.75 9.25V8.5C4.75 8.08579 5.08579 7.75 5.5 7.75Z" fill="#020203"/>
<path fill-rule="evenodd" clip-rule="evenodd" d="M18.5 7.75C18.9142 7.75 19.25 8.08579 19.25 8.5V9.25C19.25 11.4591 17.4591 13.25 15.25 13.25H14.5C13.5335 13.25 12.75 14.0335 12.75 15V15.5C12.75 15.9142 12.4142 16.25 12 16.25C11.5858 16.25 11.25 15.9142 11.25 15.5V15C11.25 13.2051 12.7051 11.75 14.5 11.75H15.25C16.6307 11.75 17.75 10.6307 17.75 9.25V8.5C17.75 8.08579 18.0858 7.75 18.5 7.75Z" fill="#020203"/>
</g>
<path d="M14.25 5.5C14.25 7.84721 16.1528 9.75 18.5 9.75C20.8472 9.75 22.75 7.84721 22.75 5.5C22.75 3.15279 20.8472 1.25 18.5 1.25C16.1528 1.25 14.25 3.15279 14.25 5.5Z" fill="#020203"/>
<path d="M1.25 5.5C1.25 7.84721 3.15279 9.75 5.5 9.75C7.84721 9.75 9.75 7.84721 9.75 5.5C9.75 3.15279 7.84721 1.25 5.5 1.25C3.15279 1.25 1.25 3.15279 1.25 5.5Z" fill="#020203"/>
<path d="M7.75 18.5C7.75 20.8472 9.65279 22.75 12 22.75C14.3472 22.75 16.25 20.8472 16.25 18.5C16.25 16.1528 14.3472 14.25 12 14.25C9.65279 14.25 7.75 16.1528 7.75 18.5Z" fill="#020203"/>
</svg>
