<svg width="24" height="24" viewBox="0 0 24 24" fill="none" xmlns="http://www.w3.org/2000/svg">
<path d="M6.25 12C6.25 15.1756 8.82436 17.75 12 17.75C15.1756 17.75 17.75 15.1756 17.75 12C17.75 8.82436 15.1756 6.25 12 6.25C8.82436 6.25 6.25 8.82436 6.25 12Z" fill="#020203"/>
<path opacity="0.4" fill-rule="evenodd" clip-rule="evenodd" d="M12 16.25C12.4142 16.25 12.75 16.5858 12.75 17L12.75 22C12.75 22.4142 12.4142 22.75 12 22.75C11.5858 22.75 11.25 22.4142 11.25 22L11.25 17C11.25 16.5858 11.5858 16.25 12 16.25Z" fill="#020203"/>
<path opacity="0.4" fill-rule="evenodd" clip-rule="evenodd" d="M12 1.25C12.4142 1.25 12.75 1.58579 12.75 2L12.75 7C12.75 7.41421 12.4142 7.75 12 7.75C11.5858 7.75 11.25 7.41421 11.25 7L11.25 2C11.25 1.58579 11.5858 1.25 12 1.25Z" fill="#020203"/>
</svg>
