<svg width="24" height="24" viewBox="0 0 24 24" fill="none" xmlns="http://www.w3.org/2000/svg">
<path fill-rule="evenodd" clip-rule="evenodd" d="M12 17.25C12.4142 17.25 12.75 17.5858 12.75 18L12.75 22C12.75 22.4142 12.4142 22.75 12 22.75C11.5858 22.75 11.25 22.4142 11.25 22L11.25 18C11.25 17.5858 11.5858 17.25 12 17.25Z" fill="#020203"/>
<path d="M11.75 10C11.75 8.48122 12.9812 7.25 14.5 7.25C16.0188 7.25 17.25 8.48122 17.25 10C17.25 11.5188 16.0188 12.75 14.5 12.75C12.9812 12.75 11.75 11.5188 11.75 10Z" fill="#020203"/>
<path fill-rule="evenodd" clip-rule="evenodd" d="M1.25 10C1.25 7.6734 1.25 6.5101 1.5559 5.56864C2.17413 3.66591 3.66591 2.17413 5.56864 1.5559C6.5101 1.25 7.6734 1.25 10 1.25H14C16.3266 1.25 17.4899 1.25 18.4314 1.5559C20.3341 2.17413 21.8259 3.66591 22.4441 5.56864C22.75 6.5101 22.75 7.6734 22.75 10C22.75 12.3266 22.75 13.4899 22.4441 14.4314C21.8259 16.3341 20.3341 17.8259 18.4314 18.4441C17.4899 18.75 16.3266 18.75 14 18.75H10C7.6734 18.75 6.5101 18.75 5.56864 18.4441C3.66591 17.8259 2.17413 16.3341 1.5559 14.4314C1.25 13.4899 1.25 12.3266 1.25 10ZM5.25 10C5.25 9.58579 5.58579 9.25 6 9.25H7C7.41421 9.25 7.75 9.58579 7.75 10C7.75 10.4142 7.41421 10.75 7 10.75H6C5.58579 10.75 5.25 10.4142 5.25 10ZM14.5 5.75C12.1528 5.75 10.25 7.65279 10.25 10C10.25 12.3472 12.1528 14.25 14.5 14.25C16.8472 14.25 18.75 12.3472 18.75 10C18.75 7.65279 16.8472 5.75 14.5 5.75Z" fill="#020203"/>
</svg>
