<svg width="24" height="24" viewBox="0 0 24 24" fill="none" xmlns="http://www.w3.org/2000/svg">
<circle opacity="0.4" cx="7" cy="9.5" r="3" fill="#020203"/>
<circle opacity="0.4" cx="17" cy="9.5" r="3" fill="#020203"/>
<circle cx="12" cy="9.5" r="3" fill="#020203"/>
<circle cx="12" cy="9.5" r="3" fill="#020203"/>
<path d="M14.5 12.4092C13.9626 13.2176 13.0435 13.7503 12 13.7503C10.9565 13.7503 10.0374 13.2176 9.49996 12.4092C8.9625 13.2175 8.04346 13.7502 7 13.7502C6.86487 13.7502 6.73183 13.7413 6.60143 13.724C6.53527 13.9716 6.5 14.2319 6.5 14.5003C6.5 16.1572 7.84315 17.5003 9.5 17.5003C10.5435 17.5003 11.4625 16.9676 12 16.1592C12.5375 16.9676 13.4565 17.5003 14.5 17.5003C16.1569 17.5003 17.5 16.1572 17.5 14.5003C17.5 14.2319 17.4647 13.9716 17.3986 13.724C17.2682 13.7413 17.1351 13.7502 17 13.7502C15.9565 13.7502 15.0375 13.2175 14.5 12.4092Z" fill="#020203"/>
<path opacity="0.4" d="M12 17.4092C11.4625 18.2175 10.5435 18.7503 9.5 18.7503C9.36486 18.7503 9.2318 18.7413 9.1014 18.724C9.03526 18.9716 9 19.2318 9 19.5003C9 21.1571 10.3431 22.5003 12 22.5003C13.6569 22.5003 15 21.1571 15 19.5003C15 19.2318 14.9647 18.9716 14.8986 18.724C14.7682 18.7413 14.6351 18.7503 14.5 18.7503C13.4565 18.7503 12.5375 18.2175 12 17.4092Z" fill="#020203"/>
<path fill-rule="evenodd" clip-rule="evenodd" d="M15.1417 1.57286C15.3776 1.91333 15.2929 2.38058 14.9524 2.61648C13.6095 3.54692 12.9321 5.11872 12.7817 6.57693C12.7393 6.98895 12.3708 7.28853 11.9588 7.24605C11.5468 7.20357 11.2472 6.83512 11.2897 6.42309C11.4708 4.66647 12.2957 2.63241 14.0981 1.38353C14.4386 1.14762 14.9058 1.23239 15.1417 1.57286Z" fill="#020203"/>
</svg>
