<svg width="24" height="24" viewBox="0 0 24 24" fill="none" xmlns="http://www.w3.org/2000/svg">
<path d="M1.25 16.75C1.25 14.817 2.817 13.25 4.75 13.25H7.25C9.183 13.25 10.75 14.817 10.75 16.75V19.25C10.75 21.183 9.183 22.75 7.25 22.75H4.75C2.817 22.75 1.25 21.183 1.25 19.25V16.75Z" fill="#020203"/>
<path d="M1.25 4.75C1.25 2.817 2.817 1.25 4.75 1.25H7.25C9.183 1.25 10.75 2.817 10.75 4.75V7.25C10.75 9.183 9.183 10.75 7.25 10.75H4.75C2.817 10.75 1.25 9.183 1.25 7.25V4.75Z" fill="#020203"/>
<path d="M13.25 16.75C13.25 14.817 14.817 13.25 16.75 13.25H19.25C21.183 13.25 22.75 14.817 22.75 16.75V19.25C22.75 21.183 21.183 22.75 19.25 22.75H16.75C14.817 22.75 13.25 21.183 13.25 19.25V16.75Z" fill="#020203"/>
<path fill-rule="evenodd" clip-rule="evenodd" d="M18 1.25C18.4142 1.25 18.75 1.58579 18.75 2V10C18.75 10.4142 18.4142 10.75 18 10.75C17.5858 10.75 17.25 10.4142 17.25 10V2C17.25 1.58579 17.5858 1.25 18 1.25Z" fill="#020203"/>
<path fill-rule="evenodd" clip-rule="evenodd" d="M13.25 6C13.25 5.58579 13.5858 5.25 14 5.25L22 5.25C22.4142 5.25 22.75 5.58579 22.75 6C22.75 6.41421 22.4142 6.75 22 6.75L14 6.75C13.5858 6.75 13.25 6.41421 13.25 6Z" fill="#020203"/>
</svg>
