<svg width="24" height="24" viewBox="0 0 24 24" fill="none" xmlns="http://www.w3.org/2000/svg">
<path opacity="0.4" d="M2 5C2 3.34315 3.34315 2 5 2H7C8.65685 2 10 3.34315 10 5V19C10 20.6569 8.65685 22 7 22H5C3.34315 22 2 20.6569 2 19V5Z" stroke="#020203" stroke-width="1.5"/>
<path d="M14 16.75C14 15.2312 15.2312 14 16.75 14H19.25C20.7688 14 22 15.2312 22 16.75V19.25C22 20.7688 20.7688 22 19.25 22H16.75C15.2312 22 14 20.7688 14 19.25V16.75Z" stroke="#020203" stroke-width="1.5"/>
<path d="M14 4.75C14 3.23122 15.2312 2 16.75 2H19.25C20.7688 2 22 3.23122 22 4.75V7.25C22 8.76878 20.7688 10 19.25 10H16.75C15.2312 10 14 8.76878 14 7.25V4.75Z" stroke="#020203" stroke-width="1.5"/>
</svg>
