<svg width="24" height="24" viewBox="0 0 24 24" fill="none" xmlns="http://www.w3.org/2000/svg">
<path opacity="0.4" d="M1.25 12C1.25 8.73923 1.25 7.10885 1.76492 5.8165C2.50185 3.96695 3.96695 2.50185 5.8165 1.76492C7.10885 1.25 8.73923 1.25 12 1.25C15.2608 1.25 16.8912 1.25 18.1835 1.76492C20.0331 2.50185 21.4982 3.96695 22.2351 5.8165C22.75 7.10885 22.75 8.73923 22.75 12C22.75 15.2608 22.75 16.8912 22.2351 18.1835C21.4982 20.0331 20.0331 21.4982 18.1835 22.2351C16.8912 22.75 15.2608 22.75 12 22.75C8.73923 22.75 7.10885 22.75 5.8165 22.2351C3.96695 21.4982 2.50185 20.0331 1.76492 18.1835C1.25 16.8912 1.25 15.2608 1.25 12Z" fill="#020203"/>
<path fill-rule="evenodd" clip-rule="evenodd" d="M10.9945 7C10.9945 6.44772 11.4422 6 11.9945 6H12.0035C12.5558 6 13.0035 6.44772 13.0035 7C13.0035 7.55228 12.5558 8 12.0035 8H11.9945C11.4422 8 10.9945 7.55228 10.9945 7Z" fill="#020203"/>
<path fill-rule="evenodd" clip-rule="evenodd" d="M10.9945 12C10.9945 11.4477 11.4422 11 11.9945 11H12.0035C12.5558 11 13.0035 11.4477 13.0035 12C13.0035 12.5523 12.5558 13 12.0035 13H11.9945C11.4422 13 10.9945 12.5523 10.9945 12Z" fill="#020203"/>
<path fill-rule="evenodd" clip-rule="evenodd" d="M10.9945 17C10.9945 16.4477 11.4422 16 11.9945 16H12.0035C12.5558 16 13.0035 16.4477 13.0035 17C13.0035 17.5523 12.5558 18 12.0035 18H11.9945C11.4422 18 10.9945 17.5523 10.9945 17Z" fill="#020203"/>
<path fill-rule="evenodd" clip-rule="evenodd" d="M5.99451 12C5.99451 11.4477 6.44222 11 6.99451 11H7.00349C7.55577 11 8.00349 11.4477 8.00349 12C8.00349 12.5523 7.55577 13 7.00349 13H6.99451C6.44222 13 5.99451 12.5523 5.99451 12Z" fill="#020203"/>
<path fill-rule="evenodd" clip-rule="evenodd" d="M15.9945 12C15.9945 11.4477 16.4422 11 16.9945 11H17.0035C17.5558 11 18.0035 11.4477 18.0035 12C18.0035 12.5523 17.5558 13 17.0035 13H16.9945C16.4422 13 15.9945 12.5523 15.9945 12Z" fill="#020203"/>
</svg>
