<svg width="24" height="24" viewBox="0 0 24 24" fill="none" xmlns="http://www.w3.org/2000/svg">
<path fill-rule="evenodd" clip-rule="evenodd" d="M1.76492 5.8165C1.25 7.10885 1.25 8.73923 1.25 12C1.25 15.2608 1.25 16.8912 1.76492 18.1835C2.50185 20.0331 3.96695 21.4982 5.8165 22.2351C7.10885 22.75 8.73923 22.75 12 22.75C15.2608 22.75 16.8912 22.75 18.1835 22.2351C20.0331 21.4982 21.4982 20.0331 22.2351 18.1835C22.75 16.8912 22.75 15.2608 22.75 12C22.75 8.73923 22.75 7.10885 22.2351 5.8165C21.4982 3.96695 20.0331 2.50185 18.1835 1.76492C16.8912 1.25 15.2608 1.25 12 1.25C8.73923 1.25 7.10885 1.25 5.8165 1.76492C3.96695 2.50185 2.50185 3.96695 1.76492 5.8165ZM11.9945 6C11.4422 6 10.9945 6.44772 10.9945 7C10.9945 7.55228 11.4422 8 11.9945 8H12.0035C12.5558 8 13.0035 7.55228 13.0035 7C13.0035 6.44772 12.5558 6 12.0035 6H11.9945ZM10.9945 12C10.9945 11.4477 11.4422 11 11.9945 11H12.0035C12.5558 11 13.0035 11.4477 13.0035 12C13.0035 12.5523 12.5558 13 12.0035 13H11.9945C11.4422 13 10.9945 12.5523 10.9945 12ZM11.9945 16C11.4422 16 10.9945 16.4477 10.9945 17C10.9945 17.5523 11.4422 18 11.9945 18H12.0035C12.5558 18 13.0035 17.5523 13.0035 17C13.0035 16.4477 12.5558 16 12.0035 16H11.9945ZM5.99451 12C5.99451 11.4477 6.44222 11 6.99451 11H7.00349C7.55577 11 8.00349 11.4477 8.00349 12C8.00349 12.5523 7.55577 13 7.00349 13H6.99451C6.44222 13 5.99451 12.5523 5.99451 12ZM16.9945 11C16.4422 11 15.9945 11.4477 15.9945 12C15.9945 12.5523 16.4422 13 16.9945 13H17.0035C17.5558 13 18.0035 12.5523 18.0035 12C18.0035 11.4477 17.5558 11 17.0035 11H16.9945Z" fill="#020203"/>
</svg>
