<svg width="24" height="24" viewBox="0 0 24 24" fill="none" xmlns="http://www.w3.org/2000/svg">
<path opacity="0.4" d="M1.25 16.75C1.25 14.817 2.817 13.25 4.75 13.25H7.25C9.183 13.25 10.75 14.817 10.75 16.75V19.25C10.75 21.183 9.183 22.75 7.25 22.75H4.75C2.817 22.75 1.25 21.183 1.25 19.25V16.75Z" fill="#020203"/>
<path d="M1.25 4.75C1.25 2.817 2.817 1.25 4.75 1.25H7.25C9.183 1.25 10.75 2.817 10.75 4.75V7.25C10.75 9.183 9.183 10.75 7.25 10.75H4.75C2.817 10.75 1.25 9.183 1.25 7.25V4.75Z" fill="#020203"/>
<path opacity="0.4" d="M13.25 4.75C13.25 2.817 14.817 1.25 16.75 1.25H19.25C21.183 1.25 22.75 2.817 22.75 4.75V7.25C22.75 9.183 21.183 10.75 19.25 10.75H16.75C14.817 10.75 13.25 9.183 13.25 7.25V4.75Z" fill="#020203"/>
<path d="M13.25 16.75C13.25 14.817 14.817 13.25 16.75 13.25H19.25C21.183 13.25 22.75 14.817 22.75 16.75V19.25C22.75 21.183 21.183 22.75 19.25 22.75H16.75C14.817 22.75 13.25 21.183 13.25 19.25V16.75Z" fill="#020203"/>
</svg>
