<svg width="24" height="24" viewBox="0 0 24 24" fill="none" xmlns="http://www.w3.org/2000/svg">
<path fill-rule="evenodd" clip-rule="evenodd" d="M4.96232 15.8803C5.3046 15.647 5.77118 15.7353 6.00446 16.0776C6.51775 16.8307 7.16932 17.4823 7.92243 17.9956C8.26471 18.2289 8.35306 18.6954 8.11978 19.0377C7.8865 19.38 7.41992 19.4683 7.07764 19.2351C6.16943 18.6161 5.38397 17.8306 4.76497 16.9224C4.53169 16.5801 4.62005 16.1135 4.96232 15.8803Z" fill="#020203"/>
<path fill-rule="evenodd" clip-rule="evenodd" d="M8.11978 4.96229C8.35306 5.30457 8.26471 5.77115 7.92243 6.00443C7.16932 6.51772 6.51775 7.16929 6.00446 7.9224C5.77118 8.26467 5.3046 8.35303 4.96232 8.11975C4.62005 7.88647 4.53169 7.41989 4.76497 7.07761C5.38397 6.1694 6.16943 5.38394 7.07764 4.76494C7.41992 4.53166 7.8865 4.62002 8.11978 4.96229Z" fill="#020203"/>
<path fill-rule="evenodd" clip-rule="evenodd" d="M19.0377 15.8803C19.3799 16.1135 19.4683 16.5801 19.235 16.9224C18.616 17.8306 17.8306 18.6161 16.9223 19.2351C16.5801 19.4683 16.1135 19.38 15.8802 19.0377C15.6469 18.6954 15.7353 18.2289 16.0776 17.9956C16.8307 17.4823 17.4822 16.8307 17.9955 16.0776C18.2288 15.7353 18.6954 15.647 19.0377 15.8803Z" fill="#020203"/>
<path fill-rule="evenodd" clip-rule="evenodd" d="M15.8802 4.96229C16.1135 4.62002 16.5801 4.53166 16.9223 4.76494C17.8305 5.38393 18.616 6.16936 19.235 7.07755C19.4683 7.41983 19.3799 7.88641 19.0376 8.11969C18.6954 8.35298 18.2288 8.26462 17.9955 7.92235C17.4822 7.16926 16.8307 6.51771 16.0776 6.00443C15.7353 5.77115 15.6469 5.30457 15.8802 4.96229Z" fill="#020203"/>
<path d="M9.5 20C9.5 18.6193 10.6193 17.5 12 17.5C13.3807 17.5 14.5 18.6193 14.5 20C14.5 21.3807 13.3807 22.5 12 22.5C10.6193 22.5 9.5 21.3807 9.5 20Z" fill="#020203"/>
<path d="M9.5 4C9.5 2.61929 10.6193 1.5 12 1.5C13.3807 1.5 14.5 2.61929 14.5 4C14.5 5.38071 13.3807 6.5 12 6.5C10.6193 6.5 9.5 5.38071 9.5 4Z" fill="#020203"/>
<path d="M17.5 12C17.5 10.6193 18.6193 9.5 20 9.5C21.3807 9.5 22.5 10.6193 22.5 12C22.5 13.3807 21.3807 14.5 20 14.5C18.6193 14.5 17.5 13.3807 17.5 12Z" fill="#020203"/>
<path d="M1.5 12C1.5 10.6193 2.61929 9.5 4 9.5C5.38071 9.5 6.5 10.6193 6.5 12C6.5 13.3807 5.38071 14.5 4 14.5C2.61929 14.5 1.5 13.3807 1.5 12Z" fill="#020203"/>
</svg>
