<svg width="24" height="24" viewBox="0 0 24 24" fill="none" xmlns="http://www.w3.org/2000/svg">
<path d="M2 12C2 10.8954 2.89543 10 4 10C5.10457 10 6 10.8954 6 12C6 13.1046 5.10457 14 4 14C2.89543 14 2 13.1046 2 12Z" stroke="#020203" stroke-width="1.5"/>
<path d="M10 4C10 2.89543 10.8954 2 12 2C13.1046 2 14 2.89543 14 4C14 5.10457 13.1046 6 12 6C10.8954 6 10 5.10457 10 4Z" stroke="#020203" stroke-width="1.5"/>
<path d="M10 20C10 18.8954 10.8954 18 12 18C13.1046 18 14 18.8954 14 20C14 21.1046 13.1046 22 12 22C10.8954 22 10 21.1046 10 20Z" stroke="#020203" stroke-width="1.5"/>
<path d="M18 12C18 10.8954 18.8954 10 20 10C21.1046 10 22 10.8954 22 12C22 13.1046 21.1046 14 20 14C18.8954 14 18 13.1046 18 12Z" stroke="#020203" stroke-width="1.5"/>
<path opacity="0.4" d="M7.50002 18.6153C6.66936 18.0492 5.95085 17.3307 5.3847 16.5" stroke="#020203" stroke-width="1.5" stroke-linecap="round"/>
<path opacity="0.4" d="M7.50002 5.38467C6.66936 5.95082 5.95085 6.66933 5.3847 7.49999" stroke="#020203" stroke-width="1.5" stroke-linecap="round"/>
<path opacity="0.4" d="M18.6153 16.5C18.0492 17.3307 17.3307 18.0492 16.5 18.6153" stroke="#020203" stroke-width="1.5" stroke-linecap="round"/>
<path opacity="0.4" d="M16.5 5.38467C17.3306 5.95081 18.0491 6.6693 18.6153 7.49994" stroke="#020203" stroke-width="1.5" stroke-linecap="round"/>
</svg>
