<svg width="24" height="24" viewBox="0 0 24 24" fill="none" xmlns="http://www.w3.org/2000/svg">
<path d="M8 6C8 3.79086 9.79086 2 12 2C14.2091 2 16 3.79086 16 6V12C16 14.2091 14.2091 16 12 16C9.79086 16 8 14.2091 8 12V6Z" stroke="#020203" stroke-width="1.5"/>
<path d="M12 5C11.4477 5 11 5.44772 11 6C11 6.55228 11.4477 7 12 7C12.5523 7 13 6.55228 13 6C13 5.44772 12.5523 5 12 5Z" fill="#020203"/>
<path d="M12 8C11.4477 8 11 8.44772 11 9C11 9.55228 11.4477 10 12 10C12.5523 10 13 9.55228 13 9C13 8.44772 12.5523 8 12 8Z" fill="#020203"/>
<path d="M12 11C11.4477 11 11 11.4477 11 12C11 12.5523 11.4477 13 12 13C12.5523 13 13 12.5523 13 12C13 11.4477 12.5523 11 12 11Z" fill="#020203"/>
<path d="M15.5 6L17 6" stroke="#020203" stroke-width="1.5" stroke-linecap="round"/>
<path d="M7 6L8.5 6" stroke="#020203" stroke-width="1.5" stroke-linecap="round"/>
<path d="M15.5 9L17 9" stroke="#020203" stroke-width="1.5" stroke-linecap="round"/>
<path d="M7 9L8.5 9" stroke="#020203" stroke-width="1.5" stroke-linecap="round"/>
<path d="M15.5 12L17 12" stroke="#020203" stroke-width="1.5" stroke-linecap="round"/>
<path d="M7 12L8.5 12" stroke="#020203" stroke-width="1.5" stroke-linecap="round"/>
<path d="M14 15.5V20C14 21.1046 13.1046 22 12 22C10.8954 22 10 21.1046 10 20V15.5" stroke="#020203" stroke-width="1.5" stroke-linecap="round"/>
</svg>
