<svg width="24" height="24" viewBox="0 0 24 24" fill="none" xmlns="http://www.w3.org/2000/svg">
<path opacity="0.4" d="M7.25 6C7.25 3.37665 9.37665 1.25 12 1.25C14.6234 1.25 16.75 3.37665 16.75 6V12C16.75 14.6234 14.6234 16.75 12 16.75C9.37665 16.75 7.25 14.6234 7.25 12V6Z" fill="#020203"/>
<path d="M12 5C11.4477 5 11 5.44772 11 6C11 6.55228 11.4477 7 12 7C12.5523 7 13 6.55228 13 6C13 5.44772 12.5523 5 12 5Z" fill="#020203"/>
<path d="M12 8C11.4477 8 11 8.44772 11 9C11 9.55228 11.4477 10 12 10C12.5523 10 13 9.55228 13 9C13 8.44772 12.5523 8 12 8Z" fill="#020203"/>
<path d="M12 11C11.4477 11 11 11.4477 11 12C11 12.5523 11.4477 13 12 13C12.5523 13 13 12.5523 13 12C13 11.4477 12.5523 11 12 11Z" fill="#020203"/>
<path fill-rule="evenodd" clip-rule="evenodd" d="M14.75 6C14.75 5.58579 15.0858 5.25 15.5 5.25L17 5.25C17.4142 5.25 17.75 5.58579 17.75 6C17.75 6.41421 17.4142 6.75 17 6.75L15.5 6.75C15.0858 6.75 14.75 6.41421 14.75 6Z" fill="#020203"/>
<path fill-rule="evenodd" clip-rule="evenodd" d="M6.25 6C6.25 5.58579 6.58579 5.25 7 5.25L8.5 5.25C8.91421 5.25 9.25 5.58579 9.25 6C9.25 6.41421 8.91421 6.75 8.5 6.75L7 6.75C6.58579 6.75 6.25 6.41421 6.25 6Z" fill="#020203"/>
<path fill-rule="evenodd" clip-rule="evenodd" d="M14.75 9C14.75 8.58579 15.0858 8.25 15.5 8.25L17 8.25C17.4142 8.25 17.75 8.58579 17.75 9C17.75 9.41421 17.4142 9.75 17 9.75L15.5 9.75C15.0858 9.75 14.75 9.41421 14.75 9Z" fill="#020203"/>
<path fill-rule="evenodd" clip-rule="evenodd" d="M6.25 9C6.25 8.58579 6.58579 8.25 7 8.25L8.5 8.25C8.91421 8.25 9.25 8.58579 9.25 9C9.25 9.41421 8.91421 9.75 8.5 9.75L7 9.75C6.58579 9.75 6.25 9.41421 6.25 9Z" fill="#020203"/>
<path fill-rule="evenodd" clip-rule="evenodd" d="M14.75 12C14.75 11.5858 15.0858 11.25 15.5 11.25L17 11.25C17.4142 11.25 17.75 11.5858 17.75 12C17.75 12.4142 17.4142 12.75 17 12.75L15.5 12.75C15.0858 12.75 14.75 12.4142 14.75 12Z" fill="#020203"/>
<path fill-rule="evenodd" clip-rule="evenodd" d="M6.25 12C6.25 11.5858 6.58579 11.25 7 11.25L8.5 11.25C8.91421 11.25 9.25 11.5858 9.25 12C9.25 12.4142 8.91421 12.75 8.5 12.75L7 12.75C6.58579 12.75 6.25 12.4142 6.25 12Z" fill="#020203"/>
<path d="M10 17.5596V20C10 21.1045 10.8954 22 12 22C13.1046 22 14 21.1045 14 20V17.5596C13.3921 17.8422 12.7145 17.9999 12 17.9999C11.2855 17.9999 10.6079 17.8422 10 17.5596Z" fill="#020203"/>
</svg>
