<svg width="24" height="24" viewBox="0 0 24 24" fill="none" xmlns="http://www.w3.org/2000/svg">
<path fill-rule="evenodd" clip-rule="evenodd" d="M12 3.75C10.2051 3.75 8.75 5.20507 8.75 7C8.75 8.79493 10.2051 10.25 12 10.25C13.7949 10.25 15.25 8.79493 15.25 7C15.25 5.20507 13.7949 3.75 12 3.75ZM7.25 7C7.25 4.37665 9.37665 2.25 12 2.25C14.6234 2.25 16.75 4.37665 16.75 7C16.75 9.62335 14.6234 11.75 12 11.75C9.37665 11.75 7.25 9.62335 7.25 7Z" fill="#020203"/>
<path opacity="0.4" fill-rule="evenodd" clip-rule="evenodd" d="M8 6.25C8.41421 6.25 8.75 6.58579 8.75 7L8.75 15C8.75 15.4142 8.41421 15.75 8 15.75C7.58579 15.75 7.25 15.4142 7.25 15L7.25 7C7.25 6.58579 7.58579 6.25 8 6.25Z" fill="#020203"/>
<path opacity="0.4" fill-rule="evenodd" clip-rule="evenodd" d="M16 6.25023C16.4142 6.25023 16.75 6.58602 16.75 7.00023V15C16.75 15.4142 16.4142 15.75 16 15.75C15.5858 15.75 15.25 15.4142 15.25 15V7.00023C15.25 6.58602 15.5858 6.25023 16 6.25023Z" fill="#020203"/>
<path d="M5.25 16C5.25 14.4812 6.48122 13.25 8 13.25C9.51878 13.25 10.75 14.4812 10.75 16V20C10.75 21.5188 9.51878 22.75 8 22.75C6.48122 22.75 5.25 21.5188 5.25 20V16Z" fill="#020203"/>
<path d="M13.25 16C13.25 14.4812 14.4812 13.25 16 13.25C17.5188 13.25 18.75 14.4812 18.75 16V20C18.75 21.5188 17.5188 22.75 16 22.75C14.4812 22.75 13.25 21.5188 13.25 20V16Z" fill="#020203"/>
</svg>
