<svg width="24" height="24" viewBox="0 0 24 24" fill="none" xmlns="http://www.w3.org/2000/svg">
<path d="M8 6C8 8.20914 9.79086 10 12 10C14.2091 10 16 8.20914 16 6C16 3.79086 14.2091 2 12 2C9.79086 2 8 3.79086 8 6Z" stroke="#020203" stroke-width="1.5" stroke-linecap="round"/>
<path d="M8 6V14" stroke="#020203" stroke-width="1.5" stroke-linecap="round"/>
<path d="M16 6V14" stroke="#020203" stroke-width="1.5" stroke-linecap="round"/>
<path d="M6 16C6 14.8954 6.89543 14 8 14C9.10457 14 10 14.8954 10 16V20C10 21.1046 9.10457 22 8 22C6.89543 22 6 21.1046 6 20V16Z" stroke="#020203" stroke-width="1.5"/>
<path d="M14 16C14 14.8954 14.8954 14 16 14C17.1046 14 18 14.8954 18 16V20C18 21.1046 17.1046 22 16 22C14.8954 22 14 21.1046 14 20V16Z" stroke="#020203" stroke-width="1.5"/>
</svg>
