<svg width="24" height="24" viewBox="0 0 24 24" fill="none" xmlns="http://www.w3.org/2000/svg">
<path d="M10 19.4382V20C10 21.1046 10.8954 22 12 22C13.1046 22 14 21.1046 14 20V19.4382C12.699 19.8285 11.301 19.8285 10 19.4382Z" fill="#020203"/>
<path fill-rule="evenodd" clip-rule="evenodd" d="M17.7742 4.64545C19.8882 7.90216 19.8882 12.0978 17.7742 15.3546C15.0601 19.5358 8.93988 19.5358 6.22577 15.3546C4.11176 12.0978 4.11176 7.90216 6.22577 4.64545C8.93988 0.464243 15.0601 0.464244 17.7742 4.64545ZM13.5303 5.96965C13.8232 6.26254 13.8232 6.73742 13.5303 7.03031L10.5303 10.0303C10.2374 10.3232 9.76257 10.3232 9.46967 10.0303C9.17678 9.73742 9.17678 9.26254 9.46967 8.96965L12.4697 5.96965C12.7626 5.67676 13.2374 5.67676 13.5303 5.96965ZM14.5303 11.0303C14.8232 10.7374 14.8232 10.2625 14.5303 9.96965C14.2374 9.67676 13.7626 9.67676 13.4697 9.96965L10.4697 12.9697C10.1768 13.2625 10.1768 13.7374 10.4697 14.0303C10.7626 14.3232 11.2374 14.3232 11.5303 14.0303L14.5303 11.0303Z" fill="#020203"/>
</svg>
