<svg width="24" height="24" viewBox="0 0 24 24" fill="none" xmlns="http://www.w3.org/2000/svg">
<path opacity="0.4" d="M2 12C2 17.5228 6.47715 22 12 22C17.5228 22 22 17.5228 22 12C22 6.47715 17.5228 2 12 2C6.47715 2 2 6.47715 2 12Z" stroke="#020203" stroke-width="1.5" stroke-linecap="round"/>
<path d="M7 11C7 11 7.47384 10 8.5 10C9.52616 10 10 11 10 11" stroke="#020203" stroke-width="1.5" stroke-linecap="round"/>
<path d="M14 11C14 11 14.4738 10 15.5 10C16.5262 10 17 11 17 11" stroke="#020203" stroke-width="1.5" stroke-linecap="round"/>
<path d="M9 16C11 17 13 17 15 16" stroke="#020203" stroke-width="1.5" stroke-linecap="round"/>
</svg>
