<svg width="24" height="24" viewBox="0 0 24 24" fill="none" xmlns="http://www.w3.org/2000/svg">
<path fill-rule="evenodd" clip-rule="evenodd" d="M1.25 12C1.25 17.9371 6.06294 22.75 12 22.75C17.9371 22.75 22.75 17.9371 22.75 12C22.75 6.06294 17.9371 1.25 12 1.25C6.06294 1.25 1.25 6.06294 1.25 12ZM9.31968 11.317L9.32557 11.3281C9.50516 11.6974 9.94916 11.854 10.3212 11.6778C10.6955 11.5004 10.8551 11.0532 10.6778 10.6788L10.6356 10.597C10.613 10.5557 10.5813 10.501 10.5402 10.4373C10.4589 10.3112 10.3364 10.1432 10.1686 9.97317C9.83431 9.63443 9.27868 9.25 8.5 9.25C7.72132 9.25 7.16569 9.63443 6.83138 9.97317C6.66362 10.1432 6.54106 10.3112 6.45976 10.4373C6.41871 10.501 6.38703 10.5557 6.36441 10.597L6.32224 10.6788C6.14487 11.0532 6.30453 11.5004 6.67885 11.6778C7.05084 11.854 7.49484 11.6974 7.67443 11.3281L7.68032 11.317C7.68762 11.3037 7.70098 11.2803 7.72038 11.2502C7.76 11.1888 7.82003 11.1068 7.899 11.0268C8.05815 10.8656 8.25252 10.75 8.5 10.75C8.74748 10.75 8.94185 10.8656 9.101 11.0268C9.17997 11.1068 9.24 11.1888 9.27962 11.2502C9.29902 11.2803 9.31238 11.3037 9.31968 11.317ZM16.3197 11.317L16.3256 11.3281C16.5052 11.6974 16.9492 11.854 17.3212 11.6778C17.6955 11.5004 17.8551 11.0532 17.6778 10.6788L17.6356 10.597C17.613 10.5557 17.5813 10.501 17.5402 10.4373C17.4589 10.3112 17.3364 10.1432 17.1686 9.97317C16.8343 9.63443 16.2787 9.25 15.5 9.25C14.7213 9.25 14.1657 9.63443 13.8314 9.97317C13.6636 10.1432 13.5411 10.3112 13.4598 10.4373C13.423 10.4943 13.3937 10.5442 13.3718 10.5837L13.3222 10.6788C13.1449 11.0532 13.3045 11.5004 13.6788 11.6778C14.0508 11.854 14.4948 11.6974 14.6744 11.3281L14.6803 11.317C14.6876 11.3037 14.701 11.2803 14.7204 11.2502C14.76 11.1888 14.82 11.1068 14.899 11.0268C15.0582 10.8656 15.2525 10.75 15.5 10.75C15.7475 10.75 15.9418 10.8656 16.101 11.0268C16.18 11.1068 16.24 11.1888 16.2796 11.2502C16.299 11.2803 16.3124 11.3037 16.3197 11.317ZM9.33541 15.3292C8.96493 15.1439 8.51442 15.2941 8.32918 15.6646C8.14394 16.0351 8.29411 16.4856 8.66459 16.6708C10.8757 17.7764 13.1243 17.7764 15.3354 16.6708C15.7059 16.4856 15.8561 16.0351 15.6708 15.6646C15.4856 15.2941 15.0351 15.1439 14.6646 15.3292C12.8757 16.2236 11.1243 16.2236 9.33541 15.3292Z" fill="#020203"/>
</svg>
