<svg width="24" height="24" viewBox="0 0 24 24" fill="none" xmlns="http://www.w3.org/2000/svg">
<path opacity="0.4" d="M1.25 12C1.25 17.9371 6.06294 22.75 12 22.75C17.9371 22.75 22.75 17.9371 22.75 12C22.75 6.06294 17.9371 1.25 12 1.25C6.06294 1.25 1.25 6.06294 1.25 12Z" fill="#020203"/>
<path fill-rule="evenodd" clip-rule="evenodd" d="M7.6775 11.3217C7.67648 11.3238 7.67545 11.326 7.67442 11.3281L7.67596 11.3249L7.67678 11.3232L7.6775 11.3217Z" fill="#020203"/>
<path d="M7.67442 11.3281L7.6775 11.3217L7.67678 11.3232L7.67596 11.3249L7.67442 11.3281L7.68031 11.317C7.68761 11.3037 7.70097 11.2803 7.72037 11.2502C7.75999 11.1888 7.82002 11.1068 7.89899 11.0268C8.05814 10.8656 8.25251 10.75 8.49999 10.75C8.74747 10.75 8.94184 10.8656 9.10099 11.0268C9.17996 11.1068 9.23999 11.1888 9.27961 11.2502C9.29901 11.2803 9.31238 11.3037 9.31967 11.317L9.32557 11.3281C9.50515 11.6974 9.94915 11.854 10.3211 11.6778C10.6955 11.5004 10.8551 11.0532 10.6778 10.6788L10.6356 10.597C10.613 10.5557 10.5813 10.501 10.5402 10.4373C10.4589 10.3112 10.3364 10.1432 10.1686 9.97317C9.8343 9.63443 9.27867 9.25 8.49999 9.25C7.72131 9.25 7.16568 9.63443 6.83137 9.97317C6.66361 10.1432 6.54105 10.3112 6.45976 10.4373L6.32223 10.6788C6.14486 11.0532 6.30452 11.5004 6.67884 11.6778C7.05083 11.854 7.49483 11.6974 7.67442 11.3281Z" fill="#020203"/>
<path fill-rule="evenodd" clip-rule="evenodd" d="M14.6775 11.3217C14.6765 11.3238 14.6755 11.326 14.6744 11.3281L14.676 11.3249L14.6768 11.3232L14.6775 11.3217Z" fill="#020203"/>
<path d="M14.6744 11.3281L14.6775 11.3217L14.6768 11.3232L14.676 11.3249L14.6744 11.3281L14.6803 11.317C14.6876 11.3037 14.701 11.2803 14.7204 11.2502C14.76 11.1888 14.82 11.1068 14.899 11.0268C15.0581 10.8656 15.2525 10.75 15.5 10.75C15.7475 10.75 15.9418 10.8656 16.101 11.0268C16.18 11.1068 16.24 11.1888 16.2796 11.2502C16.299 11.2803 16.3124 11.3037 16.3197 11.317L16.3256 11.3281C16.5051 11.6974 16.9492 11.854 17.3211 11.6778C17.6955 11.5004 17.8551 11.0532 17.6778 10.6788L17.6356 10.597C17.613 10.5557 17.5813 10.501 17.5402 10.4373C17.4589 10.3112 17.3364 10.1432 17.1686 9.97317C16.8343 9.63443 16.2787 9.25 15.5 9.25C14.7213 9.25 14.1657 9.63443 13.8314 9.97317C13.6636 10.1432 13.541 10.3112 13.4598 10.4373L13.3222 10.6788C13.1449 11.0532 13.3045 11.5004 13.6788 11.6778C14.0508 11.854 14.4948 11.6974 14.6744 11.3281Z" fill="#020203"/>
<path fill-rule="evenodd" clip-rule="evenodd" d="M8.32919 15.6646C8.51443 15.2941 8.96494 15.1439 9.33542 15.3292C11.1243 16.2236 12.8757 16.2236 14.6646 15.3292C15.0351 15.1439 15.4856 15.2941 15.6708 15.6646C15.8561 16.0351 15.7059 16.4856 15.3354 16.6708C13.1243 17.7764 10.8757 17.7764 8.6646 16.6708C8.29412 16.4856 8.14395 16.0351 8.32919 15.6646Z" fill="#020203"/>
</svg>
