<svg width="24" height="24" viewBox="0 0 24 24" fill="none" xmlns="http://www.w3.org/2000/svg">
<path opacity="0.4" fill-rule="evenodd" clip-rule="evenodd" d="M10.0746 1.25372C10.4868 1.29493 10.7875 1.66246 10.7463 2.07462L8.74627 22.0746C8.70506 22.4868 8.33753 22.7875 7.92537 22.7463C7.51321 22.7051 7.2125 22.3375 7.25372 21.9254L9.25372 1.92537C9.29493 1.51321 9.66246 1.2125 10.0746 1.25372Z" fill="#020203"/>
<path opacity="0.4" fill-rule="evenodd" clip-rule="evenodd" d="M16.0746 1.25372C16.4868 1.29493 16.7875 1.66246 16.7463 2.07462L14.7463 22.0746C14.7051 22.4868 14.3375 22.7875 13.9254 22.7463C13.5132 22.7051 13.2125 22.3375 13.2537 21.9254L15.2537 1.92537C15.2949 1.51321 15.6625 1.2125 16.0746 1.25372Z" fill="#020203"/>
<path fill-rule="evenodd" clip-rule="evenodd" d="M1.25 9C1.25 8.58579 1.58579 8.25 2 8.25H22C22.4142 8.25 22.75 8.58579 22.75 9C22.75 9.41421 22.4142 9.75 22 9.75H2C1.58579 9.75 1.25 9.41421 1.25 9Z" fill="#020203"/>
<path fill-rule="evenodd" clip-rule="evenodd" d="M1.25 15C1.25 14.5858 1.58579 14.25 2 14.25H22C22.4142 14.25 22.75 14.5858 22.75 15C22.75 15.4142 22.4142 15.75 22 15.75H2C1.58579 15.75 1.25 15.4142 1.25 15Z" fill="#020203"/>
</svg>
