<svg width="24" height="24" viewBox="0 0 24 24" fill="none" xmlns="http://www.w3.org/2000/svg">
<path opacity="0.4" d="M1.25 12C1.25 9.20653 1.25 7.80979 1.65707 6.69136C2.33949 4.81644 3.81644 3.33949 5.69136 2.65707C6.80979 2.25 8.20653 2.25 11 2.25H13C15.7935 2.25 17.1902 2.25 18.3086 2.65707C20.1836 3.33949 21.6605 4.81644 22.3429 6.69136C22.75 7.80979 22.75 9.20653 22.75 12C22.75 14.7935 22.75 16.1902 22.3429 17.3086C21.6605 19.1836 20.1836 20.6605 18.3086 21.3429C17.1902 21.75 15.7935 21.75 13 21.75H11C8.20653 21.75 6.80979 21.75 5.69136 21.3429C3.81644 20.6605 2.33949 19.1836 1.65707 17.3086C1.25 16.1902 1.25 14.7935 1.25 12Z" fill="#020203"/>
<path fill-rule="evenodd" clip-rule="evenodd" d="M15 9.75C14.3096 9.75 13.75 10.3096 13.75 11V13C13.75 13.6904 14.3096 14.25 15 14.25C15.7082 14.25 16.3751 13.9166 16.8 13.35L16.9 13.2167C17.1272 12.9137 17.25 12.5453 17.25 12.1667V11.8333C17.25 11.4547 17.1272 11.0863 16.9 10.7833L16.8 10.65C16.3751 10.0834 15.7082 9.75 15 9.75ZM12.25 11C12.25 9.48122 13.4812 8.25 15 8.25C16.1803 8.25 17.2918 8.80573 18 9.75L18.1 9.88333C18.5219 10.4459 18.75 11.1301 18.75 11.8333V12.1667C18.75 12.8699 18.5219 13.5541 18.1 14.1167L18 14.25C17.2918 15.1943 16.1803 15.75 15 15.75C13.4812 15.75 12.25 14.5188 12.25 13V11Z" fill="#020203"/>
<path fill-rule="evenodd" clip-rule="evenodd" d="M5.25 12C5.25 11.5858 5.58579 11.25 6 11.25H10C10.4142 11.25 10.75 11.5858 10.75 12C10.75 12.4142 10.4142 12.75 10 12.75H6C5.58579 12.75 5.25 12.4142 5.25 12Z" fill="#020203"/>
<path fill-rule="evenodd" clip-rule="evenodd" d="M6 8.25C6.41421 8.25 6.75 8.58579 6.75 9L6.75 15C6.75 15.4142 6.41421 15.75 6 15.75C5.58579 15.75 5.25 15.4142 5.25 15L5.25 9C5.25 8.58579 5.58579 8.25 6 8.25Z" fill="#020203"/>
<path fill-rule="evenodd" clip-rule="evenodd" d="M10 8.25C10.4142 8.25 10.75 8.58579 10.75 9L10.75 15C10.75 15.4142 10.4142 15.75 10 15.75C9.58579 15.75 9.25 15.4142 9.25 15L9.25 9C9.25 8.58579 9.58579 8.25 10 8.25Z" fill="#020203"/>
</svg>
