<svg width="24" height="24" viewBox="0 0 24 24" fill="none" xmlns="http://www.w3.org/2000/svg">
<path opacity="0.4" d="M2 12C2 9.20435 2 7.80653 2.45672 6.7039C3.06569 5.23373 4.23373 4.06569 5.7039 3.45672C6.80653 3 8.20435 3 11 3H13C15.7956 3 17.1935 3 18.2961 3.45672C19.7663 4.06569 20.9343 5.23373 21.5433 6.7039C22 7.80653 22 9.20435 22 12C22 14.7956 22 16.1935 21.5433 17.2961C20.9343 18.7663 19.7663 19.9343 18.2961 20.5433C17.1935 21 15.7956 21 13 21H11C8.20435 21 6.80653 21 5.7039 20.5433C4.23373 19.9343 3.06569 18.7663 2.45672 17.2961C2 16.1935 2 14.7956 2 12Z" stroke="#020203" stroke-width="1.5"/>
<path d="M13 13V11C13 9.89543 13.8954 9 15 9C15.9443 9 16.8334 9.44458 17.4 10.2L17.5 10.3333C17.8246 10.7661 18 11.2924 18 11.8333V12.1667C18 12.7076 17.8246 13.2339 17.5 13.6667L17.4 13.8C16.8334 14.5554 15.9443 15 15 15C13.8954 15 13 14.1046 13 13Z" stroke="#020203" stroke-width="1.5"/>
<path d="M6 12H10" stroke="#020203" stroke-width="1.5" stroke-linecap="round"/>
<path d="M6 9L6 15" stroke="#020203" stroke-width="1.5" stroke-linecap="round"/>
<path d="M10 9L10 15" stroke="#020203" stroke-width="1.5" stroke-linecap="round"/>
</svg>
