<svg width="24" height="24" viewBox="0 0 24 24" fill="none" xmlns="http://www.w3.org/2000/svg">
<path opacity="0.4" d="M11.1345 3.54195L11.7429 4.20168C11.8814 4.35186 12.1186 4.35186 12.2571 4.20168L12.8655 3.54195C13.6365 2.70598 14.7218 2.23047 15.859 2.23047C21.8171 2.23047 25.0368 9.21372 21.1677 13.7446L15.8238 20.0025C13.8165 22.3532 10.1835 22.3532 8.17613 20.0025L2.83226 13.7446C-1.03679 9.21373 2.1829 2.23047 8.14094 2.23047C9.27813 2.23047 10.3635 2.70598 11.1345 3.54195Z" fill="#020203"/>
<path d="M2.11631 12.75C1.82655 12.2654 1.60504 11.7628 1.44739 11.2518C1.46477 11.2506 1.48232 11.25 1.50001 11.25H4.91887C5.54029 11.25 6.09199 10.8524 6.2885 10.2628L6.39113 9.95493C6.73052 8.93676 7.68335 8.25 8.75659 8.25C10.1337 8.25 11.25 9.36634 11.25 10.7434V13.2566C11.25 13.8052 11.6948 14.25 12.2434 14.25C12.671 14.25 13.0506 13.9764 13.1859 13.5707L13.2885 13.2628C13.6892 12.0608 14.8141 11.25 16.0811 11.25H17C17.4142 11.25 17.75 11.5858 17.75 12C17.75 12.4142 17.4142 12.75 17 12.75H16.0811C15.4597 12.75 14.908 13.1476 14.7115 13.7372L14.6089 14.0451C14.2695 15.0632 13.3167 15.75 12.2434 15.75C10.8663 15.75 9.75001 14.6337 9.75001 13.2566V10.7434C9.75001 10.1948 9.30524 9.75 8.75659 9.75C8.329 9.75 7.94937 10.0236 7.81415 10.4293L7.71152 10.7372C7.31084 11.9392 6.18593 12.75 4.91887 12.75H2.11631Z" fill="#020203"/>
</svg>
