<svg width="24" height="24" viewBox="0 0 24 24" fill="none" xmlns="http://www.w3.org/2000/svg">
<path d="M11.3389 4.75362L11.7045 5.21067C11.856 5.40005 12.1441 5.40005 12.2956 5.21067L12.6612 4.75361C13.5074 3.69584 14.7886 3.08008 16.1432 3.08008C21.2112 3.08008 23.9556 9.01468 20.6733 12.8762L15.0384 19.5056C13.446 21.379 10.5541 21.379 8.96172 19.5056L3.32675 12.8762C0.0444469 9.01467 2.78884 3.08008 7.85687 3.08008C9.21148 3.08008 10.4927 3.69584 11.3389 4.75362Z" stroke="#020203" stroke-width="1.5" stroke-linecap="round"/>
<path d="M3 12H4.91886C5.8631 12 6.7014 11.3958 7 10.5L7.10263 10.1921C7.33994 9.48019 8.00616 9 8.75658 9C9.71945 9 10.5 9.78055 10.5 10.7434V13.2566C10.5 14.2194 11.2806 15 12.2434 15C12.9938 15 13.6601 14.5198 13.8974 13.8079L14 13.5C14.2986 12.6042 15.1369 12 16.0811 12H17" stroke="#020203" stroke-width="1.5" stroke-linecap="round" stroke-linejoin="round"/>
</svg>
