<svg width="24" height="24" viewBox="0 0 24 24" fill="none" xmlns="http://www.w3.org/2000/svg">
<path opacity="0.4" d="M11.3389 4.75362L11.7045 5.21067C11.856 5.40005 12.1441 5.40005 12.2956 5.21067L12.6612 4.75361C13.5074 3.69584 14.7886 3.08008 16.1432 3.08008C21.2112 3.08008 23.9556 9.01468 20.6733 12.8762L15.0384 19.5056C13.446 21.379 10.5541 21.379 8.96172 19.5056L3.32675 12.8762C0.0444469 9.01467 2.78884 3.08008 7.85687 3.08008C9.21148 3.08008 10.4927 3.69584 11.3389 4.75362Z" stroke="#020203" stroke-width="1.5" stroke-linecap="round"/>
<path d="M17 12H16.0811C15.1369 12 14.2986 12.6042 14 13.5L13.8974 13.8079C13.6601 14.5198 12.9938 15 12.2434 15C11.2806 15 10.5 14.2194 10.5 13.2566V10.7434C10.5 9.78055 9.71945 9 8.75658 9C8.00616 9 7.33994 9.48019 7.10263 10.1921L7 10.5C6.7014 11.3958 5.8631 12 4.91886 12H3.5" stroke="#020203" stroke-width="1.5" stroke-linecap="round" stroke-linejoin="round"/>
</svg>
