<svg width="24" height="24" viewBox="0 0 24 24" fill="none" xmlns="http://www.w3.org/2000/svg">
<path d="M11.7429 4.20168L11.1345 3.54195C10.3635 2.70598 9.27813 2.23047 8.14094 2.23047C3.20191 2.23047 0.14465 7.02928 1.44738 11.2518C1.46476 11.2506 1.48231 11.25 1.5 11.25H4.91886C5.54028 11.25 6.09198 10.8524 6.28849 10.2628L6.39112 9.95493C6.73051 8.93676 7.68334 8.25 8.75658 8.25C10.1337 8.25 11.25 9.36634 11.25 10.7434V13.2566C11.25 13.8052 11.6948 14.25 12.2434 14.25C12.671 14.25 13.0506 13.9764 13.1859 13.5707L13.2885 13.2628C13.6892 12.0608 14.8141 11.25 16.0811 11.25H17C17.4142 11.25 17.75 11.5858 17.75 12C17.75 12.4142 17.4142 12.75 17 12.75H16.0811C15.4597 12.75 14.908 13.1476 14.7115 13.7372L14.6089 14.0451C14.2695 15.0632 13.3167 15.75 12.2434 15.75C10.8663 15.75 9.75 14.6337 9.75 13.2566V10.7434C9.75 10.1948 9.30523 9.75 8.75658 9.75C8.32899 9.75 7.94936 10.0236 7.81415 10.4293L7.71151 10.7372C7.31083 11.9392 6.18593 12.75 4.91886 12.75H2.1163C2.32054 13.0916 2.55868 13.4242 2.83226 13.7446L8.17613 20.0025C10.1835 22.3532 13.8165 22.3532 15.8238 20.0025L21.1677 13.7446C25.0368 9.21372 21.8171 2.23047 15.859 2.23047C14.7218 2.23047 13.6365 2.70598 12.8655 3.54195L12.2571 4.20168C12.1186 4.35186 11.8814 4.35186 11.7429 4.20168Z" fill="#020203"/>
</svg>
