<svg width="24" height="24" viewBox="0 0 24 24" fill="none" xmlns="http://www.w3.org/2000/svg">
<path d="M6 22C8 20 11 20 12 20C13 20 16 20 18 22" stroke="#020203" stroke-width="1.5" stroke-linecap="round" stroke-linejoin="round"/>
<path d="M4.5 12.5C4.5 16.6421 7.85786 20 12 20C16.1421 20 19.5 16.6421 19.5 12.5C19.5 8.35786 16.1421 5 12 5C7.85786 5 4.5 8.35786 4.5 12.5Z" stroke="#020203" stroke-width="1.5" stroke-linecap="round"/>
<path d="M12 5L12 13" stroke="#020203" stroke-width="1.5" stroke-linecap="round"/>
<path d="M12 2L12 5" stroke="#020203" stroke-width="1.5" stroke-linecap="round"/>
<path d="M5 13L19 13" stroke="#020203" stroke-width="1.5" stroke-linecap="round"/>
<path d="M3 2C10 2 14 2 21 2" stroke="#020203" stroke-width="1.5" stroke-linecap="round"/>
</svg>
