<svg width="24" height="24" viewBox="0 0 24 24" fill="none" xmlns="http://www.w3.org/2000/svg">
<path fill-rule="evenodd" clip-rule="evenodd" d="M12 20.75C10.972 20.75 8.28506 20.7756 6.53033 22.5303C6.23744 22.8232 5.76256 22.8232 5.46967 22.5303C5.17678 22.2374 5.17678 21.7626 5.46967 21.4697C7.69054 19.2488 10.9561 19.2497 11.9675 19.25C11.9786 19.25 11.9894 19.25 12 19.25C12.0106 19.25 12.0214 19.25 12.0325 19.25C13.0439 19.2497 16.3095 19.2488 18.5303 21.4697C18.8232 21.7626 18.8232 22.2374 18.5303 22.5303C18.2374 22.8232 17.7626 22.8232 17.4697 22.5303C15.7149 20.7756 13.028 20.75 12 20.75Z" fill="#020203"/>
<path fill-rule="evenodd" clip-rule="evenodd" d="M12.0056 1.25C12.4198 1.25131 12.7545 1.58817 12.7532 2.00238L12.75 3.00238C12.7487 3.41659 12.4118 3.75131 11.9976 3.74999C11.5834 3.74868 11.2487 3.41183 11.25 2.99762L11.2532 1.99762C11.2545 1.5834 11.5913 1.24869 12.0056 1.25Z" fill="#020203"/>
<path fill-rule="evenodd" clip-rule="evenodd" d="M2.25 2C2.25 1.58579 2.58579 1.25 3 1.25H21C21.4142 1.25 21.75 1.58579 21.75 2C21.75 2.41421 21.4142 2.75 21 2.75H3C2.58579 2.75 2.25 2.41421 2.25 2Z" fill="#020203"/>
<path d="M3.75372 12.25C3.87842 8.06031 7.12685 4.65519 11.25 4.28363V12.25L3.75372 12.25Z" fill="#020203"/>
<path d="M3.84409 13.75C4.44647 17.7132 7.86859 20.75 12 20.75C16.1314 20.75 19.5535 17.7132 20.1559 13.75H12.0009C12.0006 13.75 12.0011 13.75 12.0009 13.75C12.0006 13.75 11.9994 13.75 11.9992 13.75H3.84409Z" fill="#020203"/>
<path d="M12.75 12.25L20.2463 12.25C20.1216 8.06031 16.8732 4.65519 12.75 4.28363V12.25Z" fill="#020203"/>
</svg>
