<svg width="24" height="24" viewBox="0 0 24 24" fill="none" xmlns="http://www.w3.org/2000/svg">
<path fill-rule="evenodd" clip-rule="evenodd" d="M1.25 12C1.25 17.9371 6.06294 22.75 12 22.75C17.9371 22.75 22.75 17.9371 22.75 12C22.75 6.06294 17.9371 1.25 12 1.25C6.06294 1.25 1.25 6.06294 1.25 12ZM9.43921 7.18945C10.1558 6.55243 11.0902 6.25 11.9999 6.25C13.1605 6.25 14.1034 6.61587 14.7629 7.2341C15.4185 7.84874 15.7499 8.67377 15.7499 9.5C15.7499 10.0836 15.6335 10.5652 15.4189 10.9886C15.2102 11.4006 14.927 11.7189 14.6612 11.9907C14.5713 12.0826 14.4823 12.1708 14.3942 12.258C13.9509 12.6972 13.5329 13.1112 13.1708 13.8354C12.9856 14.2059 12.5351 14.3561 12.1646 14.1708C11.7941 13.9856 11.6439 13.5351 11.8292 13.1646C12.3105 12.2019 12.9146 11.6077 13.3662 11.1635C13.4456 11.0854 13.5203 11.0119 13.5888 10.9419C13.8229 10.7025 13.9772 10.5152 14.081 10.3105C14.1789 10.1174 14.2499 9.87151 14.2499 9.5C14.2499 9.07623 14.0814 8.65127 13.737 8.3284C13.3964 8.00913 12.8394 7.75 11.9999 7.75C11.4098 7.75 10.8441 7.94757 10.4358 8.31055C10.0412 8.66126 9.75 9.20352 9.75 10C9.75 10.4142 9.41421 10.75 9 10.75C8.58579 10.75 8.25 10.4142 8.25 10C8.25 8.79648 8.70878 7.83874 9.43921 7.18945ZM11 17C11 17.5523 11.4477 18 12 18C12.5523 18 13 17.5523 13 17V16.999C13 16.4467 12.5523 15.999 12 15.999C11.4477 15.999 11 16.4467 11 16.999V17Z" fill="#020203"/>
</svg>
