<svg width="24" height="24" viewBox="0 0 24 24" fill="none" xmlns="http://www.w3.org/2000/svg">
<path opacity="0.4" d="M10.5131 22H13.4869C16.7728 22 18.4157 22 19.6213 21.2578C20.2873 20.8478 20.8478 20.2873 21.2578 19.6213C22 18.4157 22 16.7516 22 13.4235C22 11.6392 22 10.7471 21.7645 9.93155C21.6083 9.39055 21.3767 8.87422 21.0766 8.39778C20.6241 7.67956 19.9662 7.09367 18.6503 5.9219C16.1379 3.68467 14.8817 2.56606 13.4408 2.20963C12.4945 1.97553 11.5055 1.97553 10.5592 2.20963C9.11833 2.56606 7.86213 3.68467 5.34974 5.9219C4.03385 7.09367 3.37589 7.67956 2.92342 8.39778C2.62327 8.87422 2.39168 9.39055 2.23548 9.93155C2 10.7471 2 11.6392 2 13.4235C2 16.7516 2 18.4157 2.7422 19.6213C3.15221 20.2873 3.71273 20.8478 4.37872 21.2578C5.58429 22 7.22723 22 10.5131 22Z" stroke="#020203" stroke-width="1.5" stroke-linecap="round"/>
<path d="M8 21.5V16C8 14.3431 9.34315 13 11 13H13C14.6569 13 16 14.3431 16 16V21.5" stroke="#020203" stroke-width="1.5" stroke-linecap="round"/>
</svg>
