<svg width="24" height="24" viewBox="0 0 24 24" fill="none" xmlns="http://www.w3.org/2000/svg">
<path d="M7.61819 3.42588L1 12.1499H23L16.3818 3.42587C14.1809 0.524706 9.81907 0.524712 7.61819 3.42588Z" fill="#020203"/>
<path fill-rule="evenodd" clip-rule="evenodd" d="M3.25 14V13.3999H20.75V14C20.75 16.3266 20.75 17.4899 20.4441 18.4314C19.8259 20.3341 18.3341 21.8259 16.4314 22.4441C15.4899 22.75 14.3266 22.75 12 22.75C9.6734 22.75 8.5101 22.75 7.56864 22.4441C5.66591 21.8259 4.17413 20.3341 3.5559 18.4314C3.25 17.4899 3.25 16.3266 3.25 14ZM9 17.25C8.58579 17.25 8.25 17.5858 8.25 18C8.25 18.4142 8.58579 18.75 9 18.75H15C15.4142 18.75 15.75 18.4142 15.75 18C15.75 17.5858 15.4142 17.25 15 17.25H9Z" fill="#020203"/>
</svg>
