<svg width="24" height="24" viewBox="0 0 24 24" fill="none" xmlns="http://www.w3.org/2000/svg">
<path d="M10.5131 21.9759H13.4869C16.7728 21.9759 18.4157 21.9759 19.6213 21.2337C20.2873 20.8237 20.8478 20.2632 21.2578 19.5972C22 18.3916 22 16.7276 22 13.3994C22 11.6152 22 10.723 21.7645 9.90749C21.6083 9.36648 21.3767 8.85016 21.0766 8.37372C20.6241 7.6555 19.9662 7.06961 18.6503 5.89784C16.1379 3.66061 14.8817 2.542 13.4408 2.18556C12.4945 1.95147 11.5055 1.95147 10.5592 2.18556C9.11833 2.542 7.86213 3.66061 5.34974 5.89784C4.03385 7.06961 3.37589 7.6555 2.92342 8.37372C2.62327 8.85016 2.39168 9.36648 2.23548 9.90749C2 10.723 2 11.6152 2 13.3994C2 16.7276 2 18.3916 2.7422 19.5972C3.15221 20.2632 3.71273 20.8237 4.37872 21.2337C5.58429 21.9759 7.22723 21.9759 10.5131 21.9759Z" stroke="#020203" stroke-width="1.5" stroke-linecap="round"/>
<path d="M8 21.5V16C8 14.3431 9.34315 13 11 13H13C14.6569 13 16 14.3431 16 16V21.5" stroke="#020203" stroke-width="1.5" stroke-linecap="round"/>
</svg>
