<svg width="24" height="24" viewBox="0 0 24 24" fill="none" xmlns="http://www.w3.org/2000/svg">
<path fill-rule="evenodd" clip-rule="evenodd" d="M12 2C12.4142 2 12.75 2.33579 12.75 2.75V4.75C12.75 5.16421 12.4142 5.5 12 5.5C11.5858 5.5 11.25 5.16421 11.25 4.75V2.75C11.25 2.33579 11.5858 2 12 2Z" fill="#020203"/>
<path fill-rule="evenodd" clip-rule="evenodd" d="M12 7.5C12.4142 7.5 12.75 7.83579 12.75 8.25V10.25C12.75 10.6642 12.4142 11 12 11C11.5858 11 11.25 10.6642 11.25 10.25V8.25C11.25 7.83579 11.5858 7.5 12 7.5Z" fill="#020203"/>
<path fill-rule="evenodd" clip-rule="evenodd" d="M12 13C12.4142 13 12.75 13.3358 12.75 13.75V15.75C12.75 16.1642 12.4142 16.5 12 16.5C11.5858 16.5 11.25 16.1642 11.25 15.75V13.75C11.25 13.3358 11.5858 13 12 13Z" fill="#020203"/>
<path fill-rule="evenodd" clip-rule="evenodd" d="M12 18.5C12.4142 18.5 12.75 18.8358 12.75 19.25V21.25C12.75 21.6642 12.4142 22 12 22C11.5858 22 11.25 21.6642 11.25 21.25V19.25C11.25 18.8358 11.5858 18.5 12 18.5Z" fill="#020203"/>
<path opacity="0.4" d="M1.25 14.0257V9.97431C1.25 8.12496 3.35717 7.06532 4.84173 8.16813L7.83877 10.3945C8.91524 11.1942 8.91524 12.8058 7.83877 13.6055L4.84173 15.8319C3.35717 16.9347 1.25 15.875 1.25 14.0257Z" fill="#020203"/>
<path opacity="0.4" d="M22.75 9.97431V14.0257C22.75 15.875 20.6428 16.9347 19.1583 15.8319L16.1612 13.6055C15.0848 12.8058 15.0848 11.1942 16.1612 10.3945L19.1583 8.16813C20.6428 7.06532 22.75 8.12496 22.75 9.97431Z" fill="#020203"/>
</svg>
