<svg width="24" height="24" viewBox="0 0 24 24" fill="none" xmlns="http://www.w3.org/2000/svg">
<path d="M12 2.75V4.75" stroke="#020203" stroke-width="1.5" stroke-linecap="round" stroke-linejoin="round"/>
<path d="M12 8.25V10.25" stroke="#020203" stroke-width="1.5" stroke-linecap="round" stroke-linejoin="round"/>
<path d="M12 13.75V15.75" stroke="#020203" stroke-width="1.5" stroke-linecap="round" stroke-linejoin="round"/>
<path opacity="0.4" d="M2 14.0852V9.91478C2 8.69473 3.37905 7.98504 4.37186 8.69418L7.29116 10.7794C8.12868 11.3776 8.12868 12.6224 7.29116 13.2206L4.37186 15.3058C3.37905 16.015 2 15.3053 2 14.0852Z" stroke="#020203" stroke-width="1.5" stroke-linecap="round"/>
<path opacity="0.4" d="M22 9.91478V14.0852C22 15.3053 20.6209 16.015 19.6281 15.3058L16.7088 13.2206C15.8713 12.6224 15.8713 11.3776 16.7088 10.7794L19.6281 8.69418C20.6209 7.98504 22 8.69473 22 9.91478Z" stroke="#020203" stroke-width="1.5" stroke-linecap="round"/>
<path d="M12 19.25V21.25" stroke="#020203" stroke-width="1.5" stroke-linecap="round" stroke-linejoin="round"/>
</svg>
