<svg width="23" height="24" viewBox="0 0 23 24" fill="none" xmlns="http://www.w3.org/2000/svg">
<path d="M14.2182 2.14626C13.3636 2.28213 12.5425 2.67941 11.8838 3.33809L2.33789 12.884C1.6792 13.5427 1.28193 14.3638 1.14606 15.2184C0.205069 14.1381 0.248744 12.498 1.27708 11.4697L10.4695 2.27728C11.4978 1.24895 13.1379 1.20528 14.2182 2.14626Z" fill="#020203"/>
<path d="M7.78156 21.8539C8.86185 22.7947 10.5019 22.751 11.5301 21.7227L20.7225 12.5303C21.7508 11.5021 21.7945 9.86205 20.8537 8.78175C20.7178 9.63635 20.3205 10.4574 19.6619 11.1161L10.1159 20.6621C9.45724 21.3207 8.63615 21.718 7.78156 21.8539Z" fill="#020203"/>
<path fill-rule="evenodd" clip-rule="evenodd" d="M18.778 4.22183C17.1183 2.5621 14.4273 2.5621 12.7676 4.22183L3.22166 13.7678C1.56194 15.4275 1.56194 18.1184 3.22166 19.7782C4.88139 21.4379 7.57234 21.4379 9.23207 19.7782L18.778 10.2322C20.4377 8.5725 20.4377 5.88155 18.778 4.22183ZM6.79438 17.0421C6.88563 16.3067 7.38697 15.8054 8.12235 15.7141C9.53972 15.5383 10.5783 14.4997 10.7542 13.0823C10.8454 12.3469 11.3468 11.8456 12.0821 11.7543C13.4995 11.5785 14.5381 10.5399 14.714 9.12251C14.8052 8.38713 15.3066 7.8858 16.0419 7.79454C16.453 7.74354 16.7449 7.36896 16.6939 6.95789C16.6429 6.54683 16.2683 6.25495 15.8572 6.30596C14.4399 6.48184 13.4013 7.52042 13.2254 8.93779C13.1341 9.67317 12.6328 10.1745 11.8974 10.2658C10.4801 10.4416 9.44147 11.4802 9.2656 12.8976C9.17435 13.633 8.67301 14.1343 7.93763 14.2256C6.52026 14.4014 5.48168 15.44 5.3058 16.8574C5.25479 17.2685 5.54667 17.643 5.95773 17.694C6.36879 17.745 6.74337 17.4532 6.79438 17.0421Z" fill="#020203"/>
</svg>
