<svg width="23" height="24" viewBox="0 0 23 24" fill="none" xmlns="http://www.w3.org/2000/svg">
<path d="M13.2981 4.75216C14.665 3.38532 16.881 3.38532 18.2479 4.75216C19.6147 6.11899 19.6147 8.33507 18.2479 9.7019L8.70192 19.2478C7.33509 20.6147 5.11901 20.6147 3.75218 19.2478C2.38534 17.881 2.38534 15.6649 3.75218 14.2981L13.2981 4.75216Z" stroke="#020203" stroke-width="1.5"/>
<path opacity="0.4" d="M19.2961 8.65366C19.6244 8.74135 19.9348 8.91398 20.1924 9.17157C20.5511 9.53023 20.745 9.99123 20.7743 10.4606C20.8088 11.0133 20.6148 11.5776 20.1924 12L11 21.1924C10.5776 21.6148 10.0133 21.8087 9.46059 21.7743C8.99125 21.745 8.53026 21.551 8.1716 21.1924C7.91401 20.9348 7.74137 20.6244 7.65369 20.2961" stroke="#020203" stroke-width="1.5" stroke-linecap="round"/>
<path opacity="0.4" d="M14.3463 3.70392C14.2586 3.37557 14.086 3.0652 13.8284 2.80761C13.0474 2.02656 11.781 2.02656 11 2.80761L1.80759 12C1.02654 12.781 1.02654 14.0474 1.80759 14.8284C2.06518 15.086 2.37555 15.2587 2.70389 15.3463" stroke="#020203" stroke-width="1.5" stroke-linecap="round"/>
<path d="M6.05023 16.9497C6.1838 15.8734 6.95376 15.1034 8.03013 14.9698C9.1065 14.8363 9.87647 14.0663 10.01 12.9899C10.1436 11.9136 10.9136 11.1436 11.9899 11.01C13.0663 10.8765 13.8363 10.1065 13.9698 9.03015C14.1034 7.95378 14.8734 7.18382 15.9497 7.05025" stroke="#020203" stroke-width="1.5" stroke-linecap="round" stroke-linejoin="round"/>
</svg>
