<svg width="24" height="24" viewBox="0 0 24 24" fill="none" xmlns="http://www.w3.org/2000/svg">
<path opacity="0.4" d="M2 12C2 8.73646 2 7.10469 2.57265 5.83232C3.22448 4.38401 4.38401 3.22448 5.83232 2.57265C7.10469 2 8.73646 2 12 2C15.2635 2 16.8953 2 18.1677 2.57265C19.616 3.22448 20.7755 4.38401 21.4273 5.83232C22 7.10469 22 8.73646 22 12C22 15.2635 22 16.8953 21.4273 18.1677C20.7755 19.616 19.616 20.7755 18.1677 21.4273C16.8953 22 15.2635 22 12 22C8.73646 22 7.10469 22 5.83232 21.4273C4.38401 20.7755 3.22448 19.616 2.57265 18.1677C2 16.8953 2 15.2635 2 12Z" stroke="#020203" stroke-width="1.5"/>
<path d="M2.5 15.0495C5.84113 14.7309 12.1734 15.8447 14.7441 21.5M12 17C13.0905 15.5979 16.8026 13.4904 21.5 14.8439" stroke="#020203" stroke-width="1.5" stroke-linecap="round"/>
<path d="M8.5 6C7.11929 6 6 7.11929 6 8.5C6 9.88071 7.11929 11 8.5 11C9.88071 11 11 9.88071 11 8.5C11 7.11929 9.88071 6 8.5 6Z" stroke="#020203" stroke-width="1.5" stroke-linecap="round"/>
</svg>
