<svg width="24" height="24" viewBox="0 0 24 24" fill="none" xmlns="http://www.w3.org/2000/svg">
<path d="M6.75 8.5C6.75 9.4665 7.5335 10.25 8.5 10.25C9.4665 10.25 10.25 9.4665 10.25 8.5C10.25 7.5335 9.4665 6.75 8.5 6.75C7.5335 6.75 6.75 7.5335 6.75 8.5Z" fill="#020203"/>
<path fill-rule="evenodd" clip-rule="evenodd" d="M1.76492 5.8165C1.25 7.10885 1.25 8.73923 1.25 12C1.25 13.0967 1.25 14.009 1.26959 14.7861C2.36752 14.4379 3.53682 14.25 4.75 14.25C7.23877 14.25 9.54289 15.0406 11.4249 16.3843C13.414 14.7392 15.9674 13.75 18.75 13.75C20.151 13.75 21.4946 14.0009 22.7374 14.4603C22.75 13.7566 22.75 12.9471 22.75 12C22.75 8.73923 22.75 7.10885 22.2351 5.8165C21.4982 3.96695 20.033 2.50185 18.1835 1.76492C16.8912 1.25 15.2608 1.25 12 1.25C8.73923 1.25 7.10885 1.25 5.8165 1.76492C3.96695 2.50185 2.50185 3.96695 1.76492 5.8165ZM8.5 11.75C6.70507 11.75 5.25 10.2949 5.25 8.5C5.25 6.70507 6.70507 5.25 8.5 5.25C10.2949 5.25 11.75 6.70507 11.75 8.5C11.75 10.2949 10.2949 11.75 8.5 11.75Z" fill="#020203"/>
<path d="M12.6106 17.3558C14.1325 18.7816 15.2665 20.6166 15.8371 22.6852C16.8102 22.6206 17.5389 22.4919 18.1835 22.2351C20.033 21.4982 21.4982 20.033 22.2351 18.1835C22.4731 17.5862 22.6011 16.9167 22.6699 16.0473C21.4668 15.5341 20.1423 15.25 18.75 15.25C16.435 15.25 14.3053 16.0358 12.6106 17.3558Z" fill="#020203"/>
<path d="M14.2891 22.7402C13.0118 18.6881 9.22403 15.75 4.75 15.75C3.55865 15.75 2.41596 15.9583 1.35637 16.3405C1.42994 17.0703 1.5544 17.6551 1.76492 18.1835C2.50185 20.033 3.96695 21.4982 5.8165 22.2351C7.10885 22.75 8.73923 22.75 12 22.75C12.8712 22.75 13.626 22.75 14.2891 22.7402Z" fill="#020203"/>
</svg>
