<svg width="24" height="24" viewBox="0 0 24 24" fill="none" xmlns="http://www.w3.org/2000/svg">
<path d="M2 12C2 8.73646 2 7.10469 2.57265 5.83232C3.22448 4.38401 4.38401 3.22448 5.83232 2.57265C7.10469 2 8.73646 2 12 2C15.2635 2 16.8953 2 18.1677 2.57265C19.616 3.22448 20.7755 4.38401 21.4273 5.83232C22 7.10469 22 8.73646 22 12C22 15.2635 22 16.8953 21.4273 18.1677C20.7755 19.616 19.616 20.7755 18.1677 21.4273C16.8953 22 15.2635 22 12 22C8.73646 22 7.10469 22 5.83232 21.4273C4.38401 20.7755 3.22448 19.616 2.57265 18.1677C2 16.8953 2 15.2635 2 12Z" stroke="#020203" stroke-width="1.5"/>
<path d="M8.5 6C7.11929 6 6 7.11929 6 8.5C6 9.88071 7.11929 11 8.5 11C9.88071 11 11 9.88071 11 8.5C11 7.11929 9.88071 6 8.5 6Z" stroke="#020203" stroke-width="1.5" stroke-linecap="round"/>
<path d="M11.8575 17C13.7236 15.4394 16.1271 14.5 18.75 14.5C19.7005 14.5 20.6222 14.6234 21.5 14.855" stroke="#020203" stroke-width="1.5" stroke-linecap="round"/>
<path d="M14.6272 21.5C12.9799 17.6766 9.17751 15 4.75 15C3.97831 15 3.22561 15.0813 2.5 15.2358" stroke="#020203" stroke-width="1.5" stroke-linecap="round"/>
</svg>
