<svg width="24" height="24" viewBox="0 0 24 24" fill="none" xmlns="http://www.w3.org/2000/svg">
<path d="M12.6106 17.3558C14.1325 18.7816 15.2665 20.6166 15.8371 22.6852C16.8102 22.6206 17.5389 22.4919 18.1835 22.2351C20.0331 21.4982 21.4982 20.033 22.2351 18.1835C22.4731 17.5862 22.6011 16.9167 22.6699 16.0473C21.4668 15.5341 20.1423 15.25 18.75 15.25C16.435 15.25 14.3053 16.0358 12.6106 17.3558Z" fill="#020203"/>
<path d="M14.2891 22.7402C13.0118 18.6881 9.22404 15.75 4.75001 15.75C3.55866 15.75 2.41597 15.9583 1.35638 16.3405C1.42995 17.0703 1.55441 17.6551 1.76493 18.1835C2.50186 20.033 3.96696 21.4982 5.81651 22.2351C7.10886 22.75 8.73924 22.75 12 22.75C12.8712 22.75 13.626 22.75 14.2891 22.7402Z" fill="#020203"/>
<path opacity="0.4" fill-rule="evenodd" clip-rule="evenodd" d="M1.76492 5.8165C1.25 7.10885 1.25 8.73923 1.25 12C1.25 13.0967 1.25 14.009 1.26959 14.7861C2.36752 14.4379 3.53682 14.25 4.75 14.25C7.23877 14.25 9.54289 15.0406 11.4249 16.3843C13.414 14.7392 15.9674 13.75 18.75 13.75C20.151 13.75 21.4946 14.0009 22.7374 14.4603C22.75 13.7566 22.75 12.9471 22.75 12C22.75 8.73923 22.75 7.10885 22.2351 5.8165C21.4982 3.96695 20.033 2.50185 18.1835 1.76492C16.8912 1.25 15.2608 1.25 12 1.25C8.73923 1.25 7.10885 1.25 5.8165 1.76492C3.96695 2.50185 2.50185 3.96695 1.76492 5.8165Z" fill="#020203"/>
<path d="M8.5 6C7.11929 6 6 7.11929 6 8.5C6 9.88071 7.11929 11 8.5 11C9.88071 11 11 9.88071 11 8.5C11 7.11929 9.88071 6 8.5 6Z" fill="#020203"/>
</svg>
