<svg width="24" height="24" viewBox="0 0 24 24" fill="none" xmlns="http://www.w3.org/2000/svg">
<path opacity="0.4" d="M9 22C5.27208 22 2.25 18.9779 2.25 15.25C2.25 11.5221 5.27208 8.5 9 8.5H15C18.7279 8.5 21.75 11.5221 21.75 15.25C21.75 18.9779 18.7279 22 15 22H9Z" fill="#020203"/>
<path fill-rule="evenodd" clip-rule="evenodd" d="M12 1.25C12.4142 1.25 12.75 1.58579 12.75 2L12.75 15.1893L14.4697 13.4697C14.7626 13.1768 15.2374 13.1768 15.5303 13.4697C15.8232 13.7625 15.8232 14.2374 15.5303 14.5303L13.591 16.4697C12.7123 17.3483 11.2877 17.3483 10.409 16.4697L8.46967 14.5303C8.17678 14.2374 8.17678 13.7625 8.46967 13.4697C8.76256 13.1768 9.23744 13.1768 9.53033 13.4697L11.25 15.1893L11.25 2C11.25 1.58579 11.5858 1.25 12 1.25Z" fill="#020203"/>
</svg>
