<svg width="24" height="24" viewBox="0 0 24 24" fill="none" xmlns="http://www.w3.org/2000/svg">
<path fill-rule="evenodd" clip-rule="evenodd" d="M12.75 2C12.75 1.58579 12.4142 1.25 12 1.25C11.5858 1.25 11.25 1.58579 11.25 2V8.5H9C5.27208 8.5 2.25 11.5221 2.25 15.25C2.25 18.9779 5.27208 22 9 22H15C18.7279 22 21.75 18.9779 21.75 15.25C21.75 11.5221 18.7279 8.5 15 8.5H12.75V2ZM12.75 8.5H11.25L11.25 15.1893L9.53033 13.4697C9.23744 13.1768 8.76256 13.1768 8.46967 13.4697C8.17678 13.7625 8.17678 14.2374 8.46967 14.5303L10.409 16.4697C11.2877 17.3483 12.7123 17.3483 13.591 16.4697L15.5303 14.5303C15.8232 14.2374 15.8232 13.7625 15.5303 13.4697C15.2374 13.1768 14.7626 13.1768 14.4697 13.4697L12.75 15.1893L12.75 8.5Z" fill="#020203"/>
</svg>
