<svg width="24" height="24" viewBox="0 0 24 24" fill="none" xmlns="http://www.w3.org/2000/svg">
<path d="M17.5 12.25C14.3244 12.25 11.75 9.67564 11.75 6.5C11.75 4.18544 13.1176 2.19028 15.0887 1.27849C14.2482 1.25 13.2425 1.25 12 1.25C8.73923 1.25 7.10885 1.25 5.8165 1.76492C3.96695 2.50185 2.50185 3.96695 1.76492 5.8165C1.25 7.10885 1.25 8.73923 1.25 12C1.25 12.8541 1.25 13.5964 1.25925 14.25H4.74178C6.32897 14.25 7.90158 14.5529 9.37525 15.1423C11.0602 15.8163 12.9398 15.8163 14.6247 15.1423C16.0984 14.5529 17.671 14.25 19.2582 14.25H22.7407C22.75 13.5964 22.75 12.8541 22.75 12C22.75 10.7575 22.75 9.7518 22.7215 8.91127C21.8097 10.8824 19.8146 12.25 17.5 12.25Z" fill="#020203"/>
<path d="M19.2582 15.75H22.6907C22.6281 16.767 22.4995 17.5198 22.2351 18.1835C21.4982 20.0331 20.0331 21.4982 18.1835 22.2351C16.8912 22.75 15.2608 22.75 12 22.75C8.73923 22.75 7.10885 22.75 5.8165 22.2351C3.96695 21.4982 2.50185 20.0331 1.76492 18.1835C1.50049 17.5198 1.37185 16.767 1.30928 15.75H4.74178C6.13814 15.75 7.52168 16.0164 8.81817 16.535C10.8607 17.3521 13.1393 17.3521 15.1818 16.535C16.4783 16.0164 17.8619 15.75 19.2582 15.75Z" fill="#020203"/>
<path fill-rule="evenodd" clip-rule="evenodd" d="M13 6.5C13 8.98528 15.0147 11 17.5 11C19.9853 11 22 8.98528 22 6.5C22 4.01472 19.9853 2 17.5 2C15.0147 2 13 4.01472 13 6.5ZM19.5303 4.46967C19.8232 4.76256 19.8232 5.23744 19.5303 5.53033L18.5607 6.5L19.5303 7.46967C19.8232 7.76256 19.8232 8.23744 19.5303 8.53033C19.2374 8.82322 18.7626 8.82322 18.4697 8.53033L17.5 7.56066L16.5303 8.53033C16.2374 8.82322 15.7626 8.82322 15.4697 8.53033C15.1768 8.23744 15.1768 7.76256 15.4697 7.46967L16.4393 6.5L15.4697 5.53033C15.1768 5.23744 15.1768 4.76256 15.4697 4.46967C15.7626 4.17678 16.2374 4.17678 16.5303 4.46967L17.5 5.43934L18.4697 4.46967C18.7626 4.17678 19.2374 4.17678 19.5303 4.46967Z" fill="#020203"/>
</svg>
