<svg width="24" height="24" viewBox="0 0 24 24" fill="none" xmlns="http://www.w3.org/2000/svg">
<path d="M22.6907 15.75H19.2582C17.8619 15.75 16.4783 16.0164 15.1818 16.535C13.1393 17.3521 10.8607 17.3521 8.81817 16.535C7.52168 16.0164 6.13814 15.75 4.74178 15.75H1.30928C1.37186 16.767 1.50049 17.5198 1.76492 18.1835C2.50185 20.0331 3.96696 21.4982 5.8165 22.2351C7.10885 22.75 8.73924 22.75 12 22.75C15.2608 22.75 16.8912 22.75 18.1835 22.2351C20.0331 21.4982 21.4982 20.0331 22.2351 18.1835C22.4995 17.5198 22.6282 16.767 22.6907 15.75Z" fill="#020203"/>
<path opacity="0.4" d="M1.76492 5.8165C1.25 7.10885 1.25 8.73923 1.25 12C1.25 12.8541 1.25 13.5964 1.25925 14.25H4.74178C6.32897 14.25 7.90158 14.5529 9.37525 15.1423C11.0602 15.8163 12.9398 15.8163 14.6247 15.1423C16.0984 14.5529 17.671 14.25 19.2582 14.25H22.7407C22.75 13.5964 22.75 12.8541 22.75 12C22.75 8.73923 22.75 7.10885 22.2351 5.8165C21.4982 3.96695 20.0331 2.50185 18.1835 1.76492C16.8912 1.25 15.2608 1.25 12 1.25C8.73923 1.25 7.10885 1.25 5.8165 1.76492C3.96695 2.50185 2.50185 3.96695 1.76492 5.8165Z" fill="#020203"/>
<path fill-rule="evenodd" clip-rule="evenodd" d="M8.25 7C8.25 6.58579 8.58579 6.25 9 6.25H15C15.4142 6.25 15.75 6.58579 15.75 7C15.75 7.41421 15.4142 7.75 15 7.75H9C8.58579 7.75 8.25 7.41421 8.25 7Z" fill="#020203"/>
<path fill-rule="evenodd" clip-rule="evenodd" d="M9.25 11C9.25 10.5858 9.58579 10.25 10 10.25H14C14.4142 10.25 14.75 10.5858 14.75 11C14.75 11.4142 14.4142 11.75 14 11.75H10C9.58579 11.75 9.25 11.4142 9.25 11Z" fill="#020203"/>
</svg>
