<svg width="24" height="24" viewBox="0 0 24 24" fill="none" xmlns="http://www.w3.org/2000/svg">
<path opacity="0.4" d="M10 2.00684C8.00821 2.02998 6.81342 2.13106 5.83232 2.57262C4.38401 3.22445 3.22448 4.38398 2.57265 5.83228C2 7.10466 2 8.73643 2 12C2 15.2635 2 16.8953 2.57265 18.1676C3.22448 19.616 4.38401 20.7755 5.83232 21.4273C7.10469 22 8.73646 22 12 22C15.2635 22 16.8953 22 18.1677 21.4273C19.616 20.7755 20.7755 19.616 21.4273 18.1676C21.9047 17.1071 21.9841 15.7968 21.9974 13.5" stroke="#020203" stroke-width="1.5" stroke-linecap="round"/>
<path d="M13 6.5C13 8.98528 15.0147 11 17.5 11C19.9853 11 22 8.98528 22 6.5C22 4.01472 19.9853 2 17.5 2C15.0147 2 13 4.01472 13 6.5Z" stroke="#020203" stroke-width="1.5" stroke-linecap="round"/>
<path d="M19 5L16 8" stroke="#020203" stroke-width="1.5" stroke-linecap="round" stroke-linejoin="round"/>
<path d="M16 5L19 8" stroke="#020203" stroke-width="1.5" stroke-linecap="round" stroke-linejoin="round"/>
<path d="M2.5 15H4.74178C6.23355 15 7.71163 15.2847 9.09671 15.8387C10.9605 16.5842 13.0395 16.5842 14.9033 15.8387C16.2884 15.2847 17.7664 15 19.2582 15H21.5" stroke="#020203" stroke-width="1.5" stroke-linecap="round"/>
</svg>
