<svg width="24" height="24" viewBox="0 0 24 24" fill="none" xmlns="http://www.w3.org/2000/svg">
<path fill-rule="evenodd" clip-rule="evenodd" d="M1.25 2C1.25 1.58579 1.58579 1.25 2 1.25H22C22.4142 1.25 22.75 1.58579 22.75 2C22.75 2.41421 22.4142 2.75 22 2.75H2C1.58579 2.75 1.25 2.41421 1.25 2Z" fill="#020203"/>
<path fill-rule="evenodd" clip-rule="evenodd" d="M3.63813 6.46967C3.93102 6.17678 4.40589 6.17678 4.69879 6.46967L7.45757 9.22845C7.83528 9.60615 8.15055 9.9214 8.38706 10.2C8.63373 10.4906 8.83847 10.7902 8.95544 11.1502C9.13489 11.7025 9.13489 12.2975 8.95544 12.8498C8.83847 13.2098 8.63373 13.5094 8.38706 13.8C8.15055 14.0786 7.83528 14.3938 7.45757 14.7715L4.69879 17.5303C4.40589 17.8232 3.93102 17.8232 3.63813 17.5303C3.34523 17.2374 3.34523 16.7626 3.63813 16.4697L6.37539 13.7324C6.78015 13.3276 7.05142 13.0555 7.24355 12.8292C7.42999 12.6096 7.49744 12.4829 7.52885 12.3863C7.61042 12.1352 7.61042 11.8648 7.52885 11.6137C7.49744 11.5171 7.42999 11.3904 7.24355 11.1708C7.05142 10.9444 6.78015 10.6724 6.37539 10.2676L3.63813 7.53033C3.34523 7.23744 3.34523 6.76256 3.63813 6.46967Z" fill="#020203"/>
<path fill-rule="evenodd" clip-rule="evenodd" d="M12.25 12C12.25 11.5858 12.5858 11.25 13 11.25H22C22.4142 11.25 22.75 11.5858 22.75 12C22.75 12.4142 22.4142 12.75 22 12.75H13C12.5858 12.75 12.25 12.4142 12.25 12Z" fill="#020203"/>
<path fill-rule="evenodd" clip-rule="evenodd" d="M12.25 17C12.25 16.5858 12.5858 16.25 13 16.25H22C22.4142 16.25 22.75 16.5858 22.75 17C22.75 17.4142 22.4142 17.75 22 17.75H13C12.5858 17.75 12.25 17.4142 12.25 17Z" fill="#020203"/>
<path fill-rule="evenodd" clip-rule="evenodd" d="M12.25 7C12.25 6.58579 12.5858 6.25 13 6.25H22C22.4142 6.25 22.75 6.58579 22.75 7C22.75 7.41421 22.4142 7.75 22 7.75H13C12.5858 7.75 12.25 7.41421 12.25 7Z" fill="#020203"/>
<path fill-rule="evenodd" clip-rule="evenodd" d="M1.25 22C1.25 21.5858 1.58579 21.25 2 21.25H22C22.4142 21.25 22.75 21.5858 22.75 22C22.75 22.4142 22.4142 22.75 22 22.75H2C1.58579 22.75 1.25 22.4142 1.25 22Z" fill="#020203"/>
</svg>
