<svg width="24" height="24" viewBox="0 0 24 24" fill="none" xmlns="http://www.w3.org/2000/svg">
<path fill-rule="evenodd" clip-rule="evenodd" d="M1.25 2C1.25 1.58579 1.58579 1.25 2 1.25H22C22.4142 1.25 22.75 1.58579 22.75 2C22.75 2.41421 22.4142 2.75 22 2.75H2C1.58579 2.75 1.25 2.41421 1.25 2Z" fill="#020203"/>
<path fill-rule="evenodd" clip-rule="evenodd" d="M8.87036 17.5303C8.57746 17.8232 8.10259 17.8232 7.8097 17.5303L5.05091 14.7715C4.6732 14.3939 4.35794 14.0786 4.12143 13.8C3.87476 13.5094 3.67002 13.2098 3.55305 12.8498C3.37359 12.2975 3.37359 11.7025 3.55305 11.1502C3.67002 10.7902 3.87476 10.4906 4.12143 10.2C4.35794 9.9214 4.6732 9.60615 5.05091 9.22846L7.8097 6.46967C8.10259 6.17678 8.57746 6.17678 8.87036 6.46967C9.16325 6.76256 9.16325 7.23744 8.87036 7.53033L6.1331 10.2676C5.72833 10.6724 5.45706 10.9445 5.26494 11.1708C5.0785 11.3904 5.01104 11.5171 4.97963 11.6137C4.89806 11.8648 4.89806 12.1352 4.97963 12.3863C5.01104 12.4829 5.0785 12.6096 5.26494 12.8292C5.45706 13.0556 5.72833 13.3276 6.1331 13.7324L8.87036 16.4697C9.16325 16.7626 9.16325 17.2374 8.87036 17.5303Z" fill="#020203"/>
<path fill-rule="evenodd" clip-rule="evenodd" d="M12.25 12C12.25 11.5858 12.5858 11.25 13 11.25H22C22.4142 11.25 22.75 11.5858 22.75 12C22.75 12.4142 22.4142 12.75 22 12.75H13C12.5858 12.75 12.25 12.4142 12.25 12Z" fill="#020203"/>
<path fill-rule="evenodd" clip-rule="evenodd" d="M12.25 17C12.25 16.5858 12.5858 16.25 13 16.25H22C22.4142 16.25 22.75 16.5858 22.75 17C22.75 17.4142 22.4142 17.75 22 17.75H13C12.5858 17.75 12.25 17.4142 12.25 17Z" fill="#020203"/>
<path fill-rule="evenodd" clip-rule="evenodd" d="M12.25 7C12.25 6.58579 12.5858 6.25 13 6.25H22C22.4142 6.25 22.75 6.58579 22.75 7C22.75 7.41421 22.4142 7.75 22 7.75H13C12.5858 7.75 12.25 7.41421 12.25 7Z" fill="#020203"/>
<path fill-rule="evenodd" clip-rule="evenodd" d="M1.25 22C1.25 21.5858 1.58579 21.25 2 21.25H22C22.4142 21.25 22.75 21.5858 22.75 22C22.75 22.4142 22.4142 22.75 22 22.75H2C1.58579 22.75 1.25 22.4142 1.25 22Z" fill="#020203"/>
</svg>
