<svg width="24" height="24" viewBox="0 0 24 24" fill="none" xmlns="http://www.w3.org/2000/svg">
<path d="M8 7.75C7.0335 7.75 6.25 8.5335 6.25 9.5C6.25 10.4665 7.0335 11.25 8 11.25C8.9665 11.25 9.75 10.4665 9.75 9.5C9.75 8.5335 8.9665 7.75 8 7.75Z" fill="#020203"/>
<path d="M14.25 9.5C14.25 8.5335 15.0335 7.75 16 7.75C16.9665 7.75 17.75 8.5335 17.75 9.5C17.75 10.4665 16.9665 11.25 16 11.25C15.0335 11.25 14.25 10.4665 14.25 9.5Z" fill="#020203"/>
<path fill-rule="evenodd" clip-rule="evenodd" d="M1.76492 5.8165C1.25 7.10885 1.25 8.73923 1.25 12C1.25 15.2608 1.25 16.8912 1.76492 18.1835C2.50185 20.0331 3.96695 21.4982 5.8165 22.2351C7.10885 22.75 8.73923 22.75 12 22.75C15.2608 22.75 16.8912 22.75 18.1835 22.2351C20.0331 21.4982 21.4982 20.0331 22.2351 18.1835C22.75 16.8912 22.75 15.2608 22.75 12C22.75 8.73923 22.75 7.10885 22.2351 5.8165C21.4982 3.96695 20.0331 2.50185 18.1835 1.76492C16.8912 1.25 15.2608 1.25 12 1.25C8.73923 1.25 7.10885 1.25 5.8165 1.76492C3.96695 2.50185 2.50185 3.96695 1.76492 5.8165ZM7.99646 16.5C7.44418 16.5 6.99646 16.9477 6.99646 17.5C6.99646 18.0523 7.44418 18.5 7.99646 18.5H8.00544C8.55773 18.5 9.00544 18.0523 9.00544 17.5C9.00544 16.9477 8.55773 16.5 8.00544 16.5H7.99646ZM10.9965 17.5C10.9965 16.9477 11.4442 16.5 11.9965 16.5H12.0054C12.5577 16.5 13.0054 16.9477 13.0054 17.5C13.0054 18.0523 12.5577 18.5 12.0054 18.5H11.9965C11.4442 18.5 10.9965 18.0523 10.9965 17.5ZM15.9965 16.5C15.4442 16.5 14.9965 16.9477 14.9965 17.5C14.9965 18.0523 15.4442 18.5 15.9965 18.5H16.0054C16.5577 18.5 17.0054 18.0523 17.0054 17.5C17.0054 16.9477 16.5577 16.5 16.0054 16.5H15.9965ZM4.75 9.5C4.75 7.70507 6.20507 6.25 8 6.25C9.79493 6.25 11.25 7.70507 11.25 9.5C11.25 11.2949 9.79493 12.75 8 12.75C6.20507 12.75 4.75 11.2949 4.75 9.5ZM16 6.25C14.2051 6.25 12.75 7.70507 12.75 9.5C12.75 11.2949 14.2051 12.75 16 12.75C17.7949 12.75 19.25 11.2949 19.25 9.5C19.25 7.70507 17.7949 6.25 16 6.25Z" fill="#020203"/>
</svg>
