<svg width="24" height="24" viewBox="0 0 24 24" fill="none" xmlns="http://www.w3.org/2000/svg">
<path opacity="0.4" d="M1.25 12C1.25 8.73923 1.25 7.10885 1.76492 5.8165C2.50185 3.96695 3.96695 2.50185 5.8165 1.76492C7.10885 1.25 8.73923 1.25 12 1.25C15.2608 1.25 16.8912 1.25 18.1835 1.76492C20.0331 2.50185 21.4982 3.96695 22.2351 5.8165C22.75 7.10885 22.75 8.73923 22.75 12C22.75 15.2608 22.75 16.8912 22.2351 18.1835C21.4982 20.0331 20.0331 21.4982 18.1835 22.2351C16.8912 22.75 15.2608 22.75 12 22.75C8.73923 22.75 7.10885 22.75 5.8165 22.2351C3.96695 21.4982 2.50185 20.0331 1.76492 18.1835C1.25 16.8912 1.25 15.2608 1.25 12Z" fill="#020203"/>
<path fill-rule="evenodd" clip-rule="evenodd" d="M6.99646 17.5C6.99646 16.9477 7.44418 16.5 7.99646 16.5H8.00544C8.55773 16.5 9.00544 16.9477 9.00544 17.5C9.00544 18.0523 8.55773 18.5 8.00544 18.5H7.99646C7.44418 18.5 6.99646 18.0523 6.99646 17.5Z" fill="#020203"/>
<path fill-rule="evenodd" clip-rule="evenodd" d="M10.9965 17.5C10.9965 16.9477 11.4442 16.5 11.9965 16.5H12.0054C12.5577 16.5 13.0054 16.9477 13.0054 17.5C13.0054 18.0523 12.5577 18.5 12.0054 18.5H11.9965C11.4442 18.5 10.9965 18.0523 10.9965 17.5Z" fill="#020203"/>
<path fill-rule="evenodd" clip-rule="evenodd" d="M14.9965 17.5C14.9965 16.9477 15.4442 16.5 15.9965 16.5H16.0054C16.5577 16.5 17.0054 16.9477 17.0054 17.5C17.0054 18.0523 16.5577 18.5 16.0054 18.5H15.9965C15.4442 18.5 14.9965 18.0523 14.9965 17.5Z" fill="#020203"/>
<path d="M5.5 9.5C5.5 10.8807 6.61929 12 8 12C9.38071 12 10.5 10.8807 10.5 9.5C10.5 8.11929 9.38071 7 8 7C6.61929 7 5.5 8.11929 5.5 9.5Z" fill="#020203"/>
<path d="M13.5 9.5C13.5 10.8807 14.6193 12 16 12C17.3807 12 18.5 10.8807 18.5 9.5C18.5 8.11929 17.3807 7 16 7C14.6193 7 13.5 8.11929 13.5 9.5Z" fill="#020203"/>
</svg>
