<svg width="24" height="24" viewBox="0 0 24 24" fill="none" xmlns="http://www.w3.org/2000/svg">
<path opacity="0.4" d="M1.25 12C1.25 17.9371 6.06294 22.75 12 22.75C17.9371 22.75 22.75 17.9371 22.75 12C22.75 6.06294 17.9371 1.25 12 1.25C6.06294 1.25 1.25 6.06294 1.25 12Z" fill="#020203"/>
<path fill-rule="evenodd" clip-rule="evenodd" d="M12 11.75C12.4142 11.75 12.75 12.0858 12.75 12.5L12.75 15.5C12.75 15.9142 12.4142 16.25 12 16.25C11.5858 16.25 11.25 15.9142 11.25 15.5L11.25 12.5C11.25 12.0858 11.5858 11.75 12 11.75Z" fill="#020203"/>
<path fill-rule="evenodd" clip-rule="evenodd" d="M12 9.5C11.4477 9.5 11 9.05228 11 8.5L11 8.499C11 7.94672 11.4477 7.499 12 7.499C12.5523 7.499 13 7.94672 13 8.499L13 8.5C13 9.05228 12.5523 9.5 12 9.5Z" fill="#020203"/>
</svg>
