<svg width="24" height="24" viewBox="0 0 24 24" fill="none" xmlns="http://www.w3.org/2000/svg">
<path opacity="0.4" d="M3.77028 9.32972L9.32972 3.77028C10.3031 2.79686 11.6234 2.25 13 2.25C14.3766 2.25 15.6969 2.79686 16.6703 3.77028L22.2297 9.32972C23.2031 10.3031 23.75 11.6234 23.75 13C23.75 14.3766 23.2031 15.6969 22.2297 16.6703L16.6703 22.2297C15.6969 23.2031 14.3766 23.75 13 23.75C11.6234 23.75 10.3031 23.2031 9.32972 22.2297L3.77028 16.6703C2.79686 15.6969 2.25 14.3766 2.25 13C2.25 11.6234 2.79686 10.3031 3.77028 9.32972Z" fill="#020203"/>
</svg>
