<svg width="24" height="24" viewBox="0 0 24 24" fill="none" xmlns="http://www.w3.org/2000/svg">
<path d="M2.77028 8.32972L8.32972 2.77028C9.30314 1.79686 10.6234 1.25 12 1.25C13.3766 1.25 14.6969 1.79686 15.6703 2.77028L21.2297 8.32972C22.2031 9.30314 22.75 10.6234 22.75 12C22.75 13.3766 22.2031 14.6969 21.2297 15.6703L15.6703 21.2297C14.6969 22.2031 13.3766 22.75 12 22.75C10.6234 22.75 9.30314 22.2031 8.32972 21.2297L2.77028 15.6703C1.79686 14.6969 1.25 13.3766 1.25 12C1.25 10.6234 1.79686 9.30314 2.77028 8.32972Z" fill="#020203"/>
</svg>
