<svg width="24" height="24" viewBox="0 0 24 24" fill="none" xmlns="http://www.w3.org/2000/svg">
<path opacity="0.4" d="M3.41421 8.58579L8.58579 3.41421C9.49129 2.50871 10.7194 2 12 2C13.2806 2 14.5087 2.50871 15.4142 3.41421L20.5858 8.58579C21.4913 9.49129 22 10.7194 22 12C22 13.2806 21.4913 14.5087 20.5858 15.4142L15.4142 20.5858C14.5087 21.4913 13.2806 22 12 22C10.7194 22 9.49129 21.4913 8.58579 20.5858L3.41421 15.4142C2.50871 14.5087 2 13.2806 2 12C2 10.7194 2.50871 9.49129 3.41421 8.58579Z" stroke="#020203" stroke-width="1.5"/>
</svg>
