<svg width="24" height="24" viewBox="0 0 24 24" fill="none" xmlns="http://www.w3.org/2000/svg">
<path opacity="0.4" d="M4.25 9C4.25 7.13979 4.25 6.20968 4.46323 5.44867C5.00486 3.51553 6.51553 2.00486 8.44867 1.46323C9.20968 1.25 10.1398 1.25 12 1.25C13.8602 1.25 14.7903 1.25 15.5513 1.46323C17.4845 2.00486 18.9951 3.51553 19.5368 5.44867C19.75 6.20968 19.75 7.13979 19.75 9V15C19.75 16.8602 19.75 17.7903 19.5368 18.5513C18.9951 20.4845 17.4845 21.9951 15.5513 22.5368C14.7903 22.75 13.8602 22.75 12 22.75C10.1398 22.75 9.20968 22.75 8.44867 22.5368C6.51553 21.9951 5.00486 20.4845 4.46323 18.5513C4.25 17.7903 4.25 16.8602 4.25 15V9Z" fill="#020203"/>
<path fill-rule="evenodd" clip-rule="evenodd" d="M10.9945 17.5C10.9945 16.9477 11.4422 16.5 11.9945 16.5H12.0035C12.5558 16.5 13.0035 16.9477 13.0035 17.5C13.0035 18.0523 12.5558 18.5 12.0035 18.5H11.9945C11.4422 18.5 10.9945 18.0523 10.9945 17.5Z" fill="#020203"/>
<path fill-rule="evenodd" clip-rule="evenodd" d="M9.25 6C9.25 5.58579 9.58579 5.25 10 5.25H14C14.4142 5.25 14.75 5.58579 14.75 6C14.75 6.41421 14.4142 6.75 14 6.75H10C9.58579 6.75 9.25 6.41421 9.25 6Z" fill="#020203"/>
</svg>
