<svg width="24" height="24" viewBox="0 0 24 24" fill="none" xmlns="http://www.w3.org/2000/svg">
<path opacity="0.4" d="M5 9C5 7.13872 5 6.20808 5.24472 5.45492C5.73931 3.93273 6.93273 2.73931 8.45492 2.24472C9.20808 2 10.1387 2 12 2C13.8613 2 14.7919 2 15.5451 2.24472C17.0673 2.73931 18.2607 3.93273 18.7553 5.45492C19 6.20808 19 7.13872 19 9V15C19 16.8613 19 17.7919 18.7553 18.5451C18.2607 20.0673 17.0673 21.2607 15.5451 21.7553C14.7919 22 13.8613 22 12 22C10.1387 22 9.20808 22 8.45492 21.7553C6.93273 21.2607 5.73931 20.0673 5.24472 18.5451C5 17.7919 5 16.8613 5 15V9Z" stroke="#020203" stroke-width="1.5"/>
<path d="M9 2.5V3C9 3.93188 9 4.39782 9.15224 4.76537C9.35523 5.25542 9.74458 5.64477 10.2346 5.84776C10.6022 6 11.0681 6 12 6C12.9319 6 13.3978 6 13.7654 5.84776C14.2554 5.64477 14.6448 5.25542 14.8478 4.76537C15 4.39782 15 3.93188 15 3V2.5" stroke="#020203" stroke-width="1.5" stroke-linecap="round"/>
<path d="M11.9945 17.5H12.0035" stroke="#020203" stroke-width="2" stroke-linecap="round" stroke-linejoin="round"/>
</svg>
