<svg width="24" height="24" viewBox="0 0 24 24" fill="none" xmlns="http://www.w3.org/2000/svg">
<path d="M14.25 1.27975C13.6794 1.25 12.9648 1.25 12 1.25C11.0352 1.25 10.3206 1.25 9.75 1.27975V3C9.75 3.4762 9.75041 3.79579 9.76729 4.04326C9.78372 4.28398 9.81319 4.4012 9.84515 4.47835C9.97202 4.78464 10.2154 5.02798 10.5216 5.15485C10.5988 5.18681 10.716 5.21628 10.9567 5.23271C11.2042 5.24959 11.5238 5.25 12 5.25C12.4762 5.25 12.7958 5.24959 13.0433 5.23271C13.284 5.21628 13.4012 5.18681 13.4784 5.15485C13.7846 5.02798 14.028 4.78464 14.1549 4.47835C14.1868 4.4012 14.2163 4.28398 14.2327 4.04326C14.2496 3.79579 14.25 3.4762 14.25 3V1.27975Z" fill="#020203"/>
<path opacity="0.4" d="M8.25 1.52277C6.41239 2.10967 4.98617 3.58227 4.46323 5.44867C4.25 6.20969 4.25 7.13979 4.25 9V15C4.25 16.8602 4.25 17.7903 4.46323 18.5513C5.00486 20.4845 6.51553 21.9951 8.44867 22.5368C9.20968 22.75 10.1398 22.75 12 22.75C13.8602 22.75 14.7903 22.75 15.5513 22.5368C17.4845 21.9951 18.9951 20.4845 19.5368 18.5513C19.75 17.7903 19.75 16.8602 19.75 15V9C19.75 7.13979 19.75 6.20969 19.5368 5.44867C19.0138 3.58227 17.5876 2.10967 15.75 1.52277V3.02526C15.75 3.46972 15.75 3.84076 15.7292 4.14537C15.7076 4.46247 15.661 4.762 15.5407 5.05238C15.2616 5.72621 14.7262 6.26157 14.0524 6.54067C13.762 6.66096 13.4625 6.7076 13.1454 6.72924C12.8408 6.75002 12.4697 6.75001 12.0253 6.75H11.9747C11.5303 6.75001 11.1592 6.75002 10.8546 6.72924C10.5375 6.7076 10.238 6.66096 9.94762 6.54067C9.27379 6.26157 8.73844 5.72621 8.45933 5.05238C8.33905 4.762 8.29241 4.46247 8.27077 4.14537C8.24999 3.84076 8.24999 3.46972 8.25 3.02526L8.25 1.52277Z" fill="#020203"/>
<path fill-rule="evenodd" clip-rule="evenodd" d="M10.9946 17.5C10.9946 16.9477 11.4423 16.5 11.9946 16.5H12.0036C12.5559 16.5 13.0036 16.9477 13.0036 17.5C13.0036 18.0523 12.5559 18.5 12.0036 18.5H11.9946C11.4423 18.5 10.9946 18.0523 10.9946 17.5Z" fill="#020203"/>
</svg>
