<svg width="24" height="24" viewBox="0 0 24 24" fill="none" xmlns="http://www.w3.org/2000/svg">
<path fill-rule="evenodd" clip-rule="evenodd" d="M4.46323 5.44867C4.98617 3.58227 6.41239 2.10967 8.25 1.52276L8.25 3.02525C8.24999 3.46971 8.24999 3.84075 8.27077 4.14536C8.29241 4.46246 8.33905 4.76199 8.45933 5.05238C8.73844 5.72621 9.27379 6.26156 9.94762 6.54067C10.238 6.66095 10.5375 6.70759 10.8546 6.72923C11.1592 6.75001 11.5303 6.75001 11.9747 6.75H12.0253C12.4697 6.75001 12.8408 6.75001 13.1454 6.72923C13.4625 6.70759 13.762 6.66095 14.0524 6.54067C14.7262 6.26156 15.2616 5.72621 15.5407 5.05238C15.661 4.76199 15.7076 4.46246 15.7292 4.14536C15.75 3.84075 15.75 3.46972 15.75 3.02526V1.52276C17.5876 2.10967 19.0138 3.58227 19.5368 5.44867C19.75 6.20968 19.75 7.13979 19.75 9V15C19.75 16.8602 19.75 17.7903 19.5368 18.5513C18.9951 20.4845 17.4845 21.9951 15.5513 22.5368C14.7903 22.75 13.8602 22.75 12 22.75C10.1398 22.75 9.20968 22.75 8.44867 22.5368C6.51553 21.9951 5.00486 20.4845 4.46323 18.5513C4.25 17.7903 4.25 16.8602 4.25 15V9C4.25 7.13979 4.25 6.20968 4.46323 5.44867ZM11.9945 16.5C11.4422 16.5 10.9945 16.9477 10.9945 17.5C10.9945 18.0523 11.4422 18.5 11.9945 18.5H12.0035C12.5558 18.5 13.0035 18.0523 13.0035 17.5C13.0035 16.9477 12.5558 16.5 12.0035 16.5H11.9945Z" fill="#020203"/>
<path d="M12 1.25C12.9648 1.25 13.6794 1.25 14.25 1.27975V3C14.25 3.4762 14.2496 3.79579 14.2327 4.04326C14.2163 4.28398 14.1868 4.4012 14.1549 4.47835C14.028 4.78464 13.7846 5.02798 13.4784 5.15485C13.4012 5.18681 13.284 5.21628 13.0433 5.23271C12.7958 5.24959 12.4762 5.25 12 5.25C11.5238 5.25 11.2042 5.24959 10.9567 5.23271C10.716 5.21628 10.5988 5.18681 10.5216 5.15485C10.2154 5.02798 9.97202 4.78464 9.84515 4.47835C9.81319 4.4012 9.78372 4.28398 9.76729 4.04326C9.75041 3.79579 9.75 3.4762 9.75 3V1.27975C10.3206 1.25 11.0352 1.25 12 1.25Z" fill="#020203"/>
</svg>
