<svg width="24" height="24" viewBox="0 0 24 24" fill="none" xmlns="http://www.w3.org/2000/svg">
<path opacity="0.4" d="M1.25 12C1.25 9.6734 1.25 8.5101 1.5559 7.56864C2.17413 5.66591 3.66591 4.17413 5.56864 3.5559C6.5101 3.25 7.6734 3.25 10 3.25H14C16.3266 3.25 17.4899 3.25 18.4314 3.5559C20.3341 4.17413 21.8259 5.66591 22.4441 7.56864C22.75 8.5101 22.75 9.6734 22.75 12C22.75 14.3266 22.75 15.4899 22.4441 16.4314C21.8259 18.3341 20.3341 19.8259 18.4314 20.4441C17.4899 20.75 16.3266 20.75 14 20.75H10C7.6734 20.75 6.5101 20.75 5.56864 20.4441C3.66591 19.8259 2.17413 18.3341 1.5559 16.4314C1.25 15.4899 1.25 14.3266 1.25 12Z" fill="#020203"/>
<path fill-rule="evenodd" clip-rule="evenodd" d="M6 13C5.44772 13 5 12.5523 5 12L5 11.999C5 11.4467 5.44772 10.999 6 10.999C6.55228 10.999 7 11.4467 7 11.999L7 12C7 12.5523 6.55228 13 6 13Z" fill="#020203"/>
<path fill-rule="evenodd" clip-rule="evenodd" d="M6 9C5.44772 9 5 8.55228 5 8L5 7.999C5 7.44672 5.44772 6.999 6 6.999C6.55228 6.999 7 7.44672 7 7.999L7 8C7 8.55228 6.55228 9 6 9Z" fill="#020203"/>
<path fill-rule="evenodd" clip-rule="evenodd" d="M10 13C9.44772 13 9 12.5523 9 12L9 11.999C9 11.4467 9.44772 10.999 10 10.999C10.5523 10.999 11 11.4467 11 11.999L11 12C11 12.5523 10.5523 13 10 13Z" fill="#020203"/>
<path fill-rule="evenodd" clip-rule="evenodd" d="M10 9C9.44772 9 9 8.55228 9 8L9 7.999C9 7.44672 9.44772 6.999 10 6.999C10.5523 6.999 11 7.44672 11 7.999L11 8C11 8.55228 10.5523 9 10 9Z" fill="#020203"/>
<path fill-rule="evenodd" clip-rule="evenodd" d="M14 13C13.4477 13 13 12.5523 13 12L13 11.999C13 11.4467 13.4477 10.999 14 10.999C14.5523 10.999 15 11.4467 15 11.999L15 12C15 12.5523 14.5523 13 14 13Z" fill="#020203"/>
<path fill-rule="evenodd" clip-rule="evenodd" d="M14 9C13.4477 9 13 8.55228 13 8L13 7.999C13 7.44672 13.4477 6.999 14 6.999C14.5523 6.999 15 7.44672 15 7.999L15 8C15 8.55228 14.5523 9 14 9Z" fill="#020203"/>
<path fill-rule="evenodd" clip-rule="evenodd" d="M18 13C17.4477 13 17 12.5523 17 12L17 11.999C17 11.4467 17.4477 10.999 18 10.999C18.5523 10.999 19 11.4467 19 11.999L19 12C19 12.5523 18.5523 13 18 13Z" fill="#020203"/>
<path fill-rule="evenodd" clip-rule="evenodd" d="M18 9C17.4477 9 17 8.55228 17 8L17 7.999C17 7.44672 17.4477 6.999 18 6.999C18.5523 6.999 19 7.44672 19 7.999L19 8C19 8.55228 18.5523 9 18 9Z" fill="#020203"/>
<path fill-rule="evenodd" clip-rule="evenodd" d="M5.25 16C5.25 15.5858 5.58579 15.25 6 15.25H18C18.4142 15.25 18.75 15.5858 18.75 16C18.75 16.4142 18.4142 16.75 18 16.75H6C5.58579 16.75 5.25 16.4142 5.25 16Z" fill="#020203"/>
</svg>
