<svg width="24" height="24" viewBox="0 0 24 24" fill="none" xmlns="http://www.w3.org/2000/svg">
<path fill-rule="evenodd" clip-rule="evenodd" d="M1.5559 7.56864C1.25 8.5101 1.25 9.6734 1.25 12C1.25 14.3266 1.25 15.4899 1.5559 16.4314C2.17413 18.3341 3.66591 19.8259 5.56864 20.4441C6.5101 20.75 7.6734 20.75 10 20.75H14C16.3266 20.75 17.4899 20.75 18.4314 20.4441C20.3341 19.8259 21.8259 18.3341 22.4441 16.4314C22.75 15.4899 22.75 14.3266 22.75 12C22.75 9.6734 22.75 8.5101 22.4441 7.56864C21.8259 5.66591 20.3341 4.17413 18.4314 3.5559C17.4899 3.25 16.3266 3.25 14 3.25H10C7.6734 3.25 6.5101 3.25 5.56864 3.5559C3.66591 4.17413 2.17413 5.66591 1.5559 7.56864ZM5 12C5 12.5523 5.44772 13 6 13C6.55228 13 7 12.5523 7 12V11.999C7 11.4467 6.55228 10.999 6 10.999C5.44772 10.999 5 11.4467 5 11.999V12ZM6 9C5.44772 9 5 8.55228 5 8C5 7.44772 5.44772 6.999 6 6.999C6.55228 6.999 7 7.44672 7 7.999C7 8.55128 6.55228 9 6 9ZM9 12C9 12.5523 9.44771 13 10 13C10.5523 13 11 12.5523 11 12V11.999C11 11.4467 10.5523 10.999 10 10.999C9.44771 10.999 9 11.4467 9 11.999V12ZM10 9C9.44771 9 9 8.55228 9 8C9 7.44772 9.44771 6.999 10 6.999C10.5523 6.999 11 7.44672 11 7.999C11 8.55128 10.5523 9 10 9ZM13 12C13 12.5523 13.4477 13 14 13C14.5523 13 15 12.5523 15 12V11.999C15 11.4467 14.5523 10.999 14 10.999C13.4477 10.999 13 11.4467 13 11.999V12ZM14 9C13.4477 9 13 8.55228 13 8C13 7.44772 13.4477 6.999 14 6.999C14.5523 6.999 15 7.44672 15 7.999C15 8.55128 14.5523 9 14 9ZM17 12C17 12.5523 17.4477 13 18 13C18.5523 13 19 12.5523 19 12V11.999C19 11.4467 18.5523 10.999 18 10.999C17.4477 10.999 17 11.4467 17 11.999V12ZM18 9C17.4477 9 17 8.55228 17 8C17 7.44772 17.4477 6.999 18 6.999C18.5523 6.999 19 7.44672 19 7.999C19 8.55128 18.5523 9 18 9ZM6 15.25C5.58579 15.25 5.25 15.5858 5.25 16C5.25 16.4142 5.58579 16.75 6 16.75H18C18.4142 16.75 18.75 16.4142 18.75 16C18.75 15.5858 18.4142 15.25 18 15.25H6Z" fill="#020203"/>
</svg>
