<svg width="24" height="24" viewBox="0 0 24 24" fill="none" xmlns="http://www.w3.org/2000/svg">
<path opacity="0.4" d="M1.25 12C1.25 17.9371 6.06294 22.75 12 22.75C17.9371 22.75 22.75 17.9371 22.75 12C22.75 6.06294 17.9371 1.25 12 1.25C6.06294 1.25 1.25 6.06294 1.25 12Z" fill="#020203"/>
<path fill-rule="evenodd" clip-rule="evenodd" d="M15.25 12C15.25 11.5858 15.5858 11.25 16 11.25H17C17.4142 11.25 17.75 11.5858 17.75 12C17.75 12.4142 17.4142 12.75 17 12.75H16C15.5858 12.75 15.25 12.4142 15.25 12Z" fill="#020203"/>
<path fill-rule="evenodd" clip-rule="evenodd" d="M6.25 12C6.25 11.5858 6.58579 11.25 7 11.25H8C8.41421 11.25 8.75 11.5858 8.75 12C8.75 12.4142 8.41421 12.75 8 12.75H7C6.58579 12.75 6.25 12.4142 6.25 12Z" fill="#020203"/>
<path fill-rule="evenodd" clip-rule="evenodd" d="M12 6.25C12.4142 6.25 12.75 6.58579 12.75 7L12.75 8C12.75 8.41421 12.4142 8.75 12 8.75C11.5858 8.75 11.25 8.41421 11.25 8L11.25 7C11.25 6.58579 11.5858 6.25 12 6.25Z" fill="#020203"/>
<path fill-rule="evenodd" clip-rule="evenodd" d="M12 15.25C12.4142 15.25 12.75 15.5858 12.75 16L12.75 17C12.75 17.4142 12.4142 17.75 12 17.75C11.5858 17.75 11.25 17.4142 11.25 17L11.25 16C11.25 15.5858 11.5858 15.25 12 15.25Z" fill="#020203"/>
<path fill-rule="evenodd" clip-rule="evenodd" d="M16.5303 7.46967C16.8232 7.76256 16.8232 8.23744 16.5303 8.53033L15.5303 9.53033C15.2374 9.82322 14.7626 9.82322 14.4697 9.53033C14.1768 9.23744 14.1768 8.76256 14.4697 8.46967L15.4697 7.46967C15.7626 7.17678 16.2374 7.17678 16.5303 7.46967Z" fill="#020203"/>
<path fill-rule="evenodd" clip-rule="evenodd" d="M9.53033 14.4697C9.82322 14.7626 9.82322 15.2374 9.53033 15.5303L8.53033 16.5303C8.23744 16.8232 7.76256 16.8232 7.46967 16.5303C7.17678 16.2374 7.17678 15.7626 7.46967 15.4697L8.46967 14.4697C8.76256 14.1768 9.23744 14.1768 9.53033 14.4697Z" fill="#020203"/>
<path fill-rule="evenodd" clip-rule="evenodd" d="M7.46967 7.46967C7.76256 7.17678 8.23744 7.17678 8.53033 7.46967L9.53033 8.46967C9.82322 8.76256 9.82322 9.23744 9.53033 9.53033C9.23744 9.82322 8.76256 9.82322 8.46967 9.53033L7.46967 8.53033C7.17678 8.23744 7.17678 7.76256 7.46967 7.46967Z" fill="#020203"/>
<path fill-rule="evenodd" clip-rule="evenodd" d="M14.4697 14.4697C14.7626 14.1768 15.2374 14.1768 15.5303 14.4697L16.5303 15.4697C16.8232 15.7626 16.8232 16.2374 16.5303 16.5303C16.2374 16.8232 15.7626 16.8232 15.4697 16.5303L14.4697 15.5303C14.1768 15.2374 14.1768 14.7626 14.4697 14.4697Z" fill="#020203"/>
</svg>
