<svg width="24" height="24" viewBox="0 0 24 24" fill="none" xmlns="http://www.w3.org/2000/svg">
<path fill-rule="evenodd" clip-rule="evenodd" d="M12 12.25C12.4142 12.25 12.75 12.5858 12.75 13V22C12.75 22.4142 12.4142 22.75 12 22.75C11.5858 22.75 11.25 22.4142 11.25 22V13C11.25 12.5858 11.5858 12.25 12 12.25Z" fill="#020203"/>
<path d="M11.264 1.25H12.3964C14.1544 1.25 15.0333 1.25 15.7911 1.49799C16.8256 1.83653 17.7214 2.50339 18.3424 3.39732C18.7973 4.05214 19.0494 4.89419 19.5536 6.5783C20.2833 9.01573 20.6482 10.2344 20.4806 11.2154C20.2518 12.5552 19.396 13.7047 18.1782 14.3082C17.2864 14.75 16.0143 14.75 13.47 14.75H10.1824C7.74537 14.75 6.52685 14.75 5.65609 14.3328C4.44483 13.7525 3.57916 12.6338 3.32139 11.3156C3.13609 10.3681 3.44189 9.18853 4.0535 6.82948C4.50663 5.08169 4.73319 4.20779 5.1764 3.52571C5.79247 2.57758 6.71173 1.86626 7.78413 1.50784C8.55561 1.25 9.4584 1.25 11.264 1.25Z" fill="#020203"/>
<path fill-rule="evenodd" clip-rule="evenodd" d="M6.25 22C6.25 21.5858 6.58579 21.25 7 21.25H17C17.4142 21.25 17.75 21.5858 17.75 22C17.75 22.4142 17.4142 22.75 17 22.75H7C6.58579 22.75 6.25 22.4142 6.25 22Z" fill="#020203"/>
</svg>
