<svg width="24" height="24" viewBox="0 0 24 24" fill="none" xmlns="http://www.w3.org/2000/svg">
<path opacity="0.3" d="M12 13V22" stroke="#020203" stroke-width="1.5" stroke-linecap="round"/>
<path d="M11.435 1H12.2539C14.0422 1 14.9363 1 15.6966 1.28335C16.5082 1.58585 17.2153 2.11616 17.733 2.81062C18.2178 3.46112 18.4682 4.31951 18.9689 6.03627C19.6236 8.2809 19.951 9.40322 19.7409 10.299C19.5177 11.2512 18.9061 12.0666 18.0545 12.5476C17.2534 13 16.0843 13 13.7461 13H9.93432C7.70845 13 6.59552 13 5.81544 12.5774C4.95938 12.1136 4.33521 11.3141 4.09288 10.3711C3.87205 9.51185 4.14198 8.43215 4.68183 6.27274C5.12588 4.49654 5.3479 3.60844 5.81871 2.93124C6.33699 2.18577 7.06865 1.61451 7.91757 1.29251C8.68873 1 9.60416 1 11.435 1Z" stroke="#020203" stroke-width="1.5" stroke-linecap="round"/>
<path d="M7 22H17" stroke="#020203" stroke-width="1.5" stroke-linecap="round"/>
</svg>
