<svg width="24" height="24" viewBox="0 0 24 24" fill="none" xmlns="http://www.w3.org/2000/svg">
<path d="M12 14V22" stroke="#020203" stroke-width="1.5" stroke-linecap="round"/>
<path d="M11.435 2H12.2539C14.0422 2 14.9363 2 15.6966 2.28335C16.5082 2.58585 17.2153 3.11616 17.733 3.81062C18.2178 4.46112 18.4682 5.31951 18.9689 7.03627C19.6236 9.2809 19.951 10.4032 19.7409 11.299C19.5177 12.2512 18.9061 13.0666 18.0545 13.5476C17.2534 14 16.0843 14 13.7461 14H9.93432C7.70845 14 6.59552 14 5.81544 13.5774C4.95938 13.1136 4.33521 12.3141 4.09288 11.3711C3.87205 10.5119 4.14198 9.43215 4.68183 7.27274C5.12588 5.49654 5.3479 4.60844 5.81871 3.93124C6.33699 3.18577 7.06865 2.61451 7.91757 2.29251C8.68873 2 9.60416 2 11.435 2Z" stroke="#020203" stroke-width="1.5" stroke-linecap="round"/>
<path d="M7 22H17" stroke="#020203" stroke-width="1.5" stroke-linecap="round"/>
</svg>
