<svg width="24" height="24" viewBox="0 0 24 24" fill="none" xmlns="http://www.w3.org/2000/svg">
<path fill-rule="evenodd" clip-rule="evenodd" d="M12 22.75C6.06294 22.75 1.25 17.9371 1.25 12C1.25 6.06294 6.06294 1.25 12 1.25C17.9371 1.25 22.75 6.06294 22.75 12C22.75 17.9371 17.9371 22.75 12 22.75ZM16.4685 8.58565C16.792 8.32689 16.8444 7.85493 16.5857 7.53148C16.3269 7.20803 15.8549 7.15559 15.5315 7.41435L14.2516 8.43826C13.2508 9.23891 13.2508 10.7611 14.2516 11.5617L15.5315 12.5857C15.8549 12.8444 16.3269 12.792 16.5857 12.4685C16.8444 12.1451 16.792 11.6731 16.4685 11.4143L15.1886 10.3904C14.9384 10.1903 14.9384 9.80973 15.1886 9.60957L16.4685 8.58565ZM7.41435 12.4685C7.15559 12.1451 7.20803 11.6731 7.53148 11.4143L8.81137 10.3904C9.06157 10.1903 9.06157 9.80973 8.81137 9.60957L7.53148 8.58565C7.20803 8.32689 7.15559 7.85493 7.41435 7.53148C7.67311 7.20803 8.14507 7.15559 8.46852 7.41435L9.74841 8.43826C10.7492 9.23891 10.7492 10.7611 9.74841 11.5617L8.46852 12.5857C8.14507 12.8444 7.67311 12.792 7.41435 12.4685ZM9.33542 15.3291C8.96494 15.1439 8.51443 15.294 8.32919 15.6645C8.14395 16.035 8.29412 16.4855 8.6646 16.6707C10.8757 17.7763 13.1243 17.7763 15.3354 16.6707C15.7059 16.4855 15.8561 16.035 15.6708 15.6645C15.4856 15.294 15.0351 15.1439 14.6646 15.3291C12.8757 16.2235 11.1243 16.2235 9.33542 15.3291Z" fill="#020203"/>
</svg>
