<svg width="24" height="24" viewBox="0 0 24 24" fill="none" xmlns="http://www.w3.org/2000/svg">
<path opacity="0.4" d="M1.25 12C1.25 17.9371 6.06294 22.75 12 22.75C17.9371 22.75 22.75 17.9371 22.75 12C22.75 6.06294 17.9371 1.25 12 1.25C6.06294 1.25 1.25 6.06294 1.25 12Z" fill="#020203"/>
<path d="M16 8L14.7201 9.02391C14.0946 9.52432 14.0946 10.4757 14.7201 10.9761L16 12" stroke="#020203" stroke-width="1.5" stroke-linecap="round" stroke-linejoin="round"/>
<path d="M8 12L9.27989 10.9761C9.9054 10.4757 9.9054 9.52432 9.27989 9.02391L8 8" stroke="#020203" stroke-width="1.5" stroke-linecap="round" stroke-linejoin="round"/>
<path fill-rule="evenodd" clip-rule="evenodd" d="M8.32918 15.6646C8.51442 15.2941 8.96492 15.1439 9.33541 15.3292C11.1243 16.2236 12.8757 16.2236 14.6646 15.3292C15.0351 15.1439 15.4856 15.2941 15.6708 15.6646C15.8561 16.0351 15.7059 16.4856 15.3354 16.6708C13.1243 17.7764 10.8757 17.7764 8.66459 16.6708C8.2941 16.4856 8.14393 16.0351 8.32918 15.6646Z" fill="#020203"/>
</svg>
