<svg width="24" height="24" viewBox="0 0 24 24" fill="none" xmlns="http://www.w3.org/2000/svg">
<path d="M2 12C2 17.5228 6.47715 22 12 22C17.5228 22 22 17.5228 22 12C22 6.47715 17.5228 2 12 2C6.47715 2 2 6.47715 2 12Z" stroke="#020203" stroke-width="1.5" stroke-linecap="round"/>
<path d="M16 8L14.7201 9.02391C14.0946 9.52432 14.0946 10.4757 14.7201 10.9761L16 12" stroke="#020203" stroke-width="1.5" stroke-linecap="round" stroke-linejoin="round"/>
<path d="M8 12L9.27989 10.9761C9.9054 10.4757 9.9054 9.52432 9.27989 9.02391L8 8" stroke="#020203" stroke-width="1.5" stroke-linecap="round" stroke-linejoin="round"/>
<path d="M9 16C11 17 13 17 15 16" stroke="#020203" stroke-width="1.5" stroke-linecap="round"/>
</svg>
