<svg width="24" height="24" viewBox="0 0 24 24" fill="none" xmlns="http://www.w3.org/2000/svg">
<path d="M10.4477 10.3464L4.14164 7.69123C3.52969 7.43357 3.52969 6.56643 4.14164 6.30877L10.4477 3.65357C11.4404 3.23562 12.5596 3.23562 13.5522 3.65357L19.8583 6.30877C20.4703 6.56643 20.4703 7.43357 19.8583 7.69123L13.5522 10.3464C12.5596 10.7644 11.4404 10.7644 10.4477 10.3464Z" stroke="#020203" stroke-width="1.5" stroke-linecap="round" stroke-linejoin="round"/>
<path d="M3 17L10.3754 20.278C11.4097 20.7376 12.5903 20.7376 13.6246 20.278L21 17" stroke="#020203" stroke-width="1.5" stroke-linecap="round"/>
<path d="M3 12L10.3754 15.278C11.4097 15.7376 12.5903 15.7376 13.6246 15.278L21 12" stroke="#020203" stroke-width="1.5" stroke-linecap="round"/>
</svg>
