<svg width="24" height="24" viewBox="0 0 24 24" fill="none" xmlns="http://www.w3.org/2000/svg">
<path opacity="0.4" d="M10.5278 11.1673L4.11068 8.62716C2.63612 8.04349 2.63612 5.95652 4.11067 5.37284L10.5278 2.83275C11.4735 2.45838 12.5264 2.45838 13.4721 2.83274L19.8892 5.37284C21.3638 5.95652 21.3638 8.04349 19.8892 8.62716L13.4721 11.1673C12.5264 11.5416 11.4735 11.5416 10.5278 11.1673Z" fill="#020203"/>
<path fill-rule="evenodd" clip-rule="evenodd" d="M2.31458 16.6954C2.48281 16.3169 2.92603 16.1464 3.30455 16.3146L10.68 19.5926C11.5203 19.9661 12.4796 19.9661 13.3199 19.5926L20.6953 16.3146C21.0739 16.1464 21.5171 16.3169 21.6853 16.6954C21.8535 17.0739 21.6831 17.5171 21.3045 17.6854L13.9291 20.9633C12.7009 21.5092 11.299 21.5092 10.0708 20.9633L2.69534 17.6854C2.31683 17.5171 2.14636 17.0739 2.31458 16.6954Z" fill="#020203"/>
<path fill-rule="evenodd" clip-rule="evenodd" d="M2.31458 11.6954C2.48281 11.3169 2.92603 11.1464 3.30455 11.3146L10.68 14.5926C11.5203 14.9661 12.4796 14.9661 13.3199 14.5926L20.6953 11.3146C21.0739 11.1464 21.5171 11.3169 21.6853 11.6954C21.8535 12.0739 21.6831 12.5171 21.3045 12.6854L13.9291 15.9633C12.7009 16.5092 11.299 16.5092 10.0708 15.9633L2.69534 12.6854C2.31683 12.5171 2.14636 12.0739 2.31458 11.6954Z" fill="#020203"/>
</svg>
