<svg width="24" height="24" viewBox="0 0 24 24" fill="none" xmlns="http://www.w3.org/2000/svg">
<path d="M22.7497 12.75H1.25024C1.25326 15.5188 1.29107 16.9943 1.7649 18.1835C2.50183 20.0331 3.96693 21.4982 5.81648 22.2351C7.10883 22.75 8.73921 22.75 12 22.75C15.2608 22.75 16.8911 22.75 18.1835 22.2351C20.033 21.4982 21.4981 20.0331 22.2351 18.1835C22.7089 16.9943 22.7467 15.5188 22.7497 12.75Z" fill="#020203"/>
<path opacity="0.4" d="M1.25024 11.25H22.7497C22.7467 8.48122 22.7089 7.00574 22.2351 5.8165C21.4981 3.96695 20.033 2.50185 18.1835 1.76492C16.8911 1.25 15.2608 1.25 12 1.25C8.73921 1.25 7.10883 1.25 5.81648 1.76492C3.96693 2.50185 2.50183 3.96695 1.7649 5.8165C1.29107 7.00574 1.25326 8.48122 1.25024 11.25Z" fill="#020203"/>
</svg>
