<svg width="24" height="24" viewBox="0 0 24 24" fill="none" xmlns="http://www.w3.org/2000/svg">
<g opacity="0.4">
<path d="M5.8165 1.76492C6.24224 1.59529 6.70468 1.48154 7.25 1.40526V7.25H1.40526C1.48154 6.70468 1.59529 6.24224 1.76492 5.8165C2.50185 3.96695 3.96695 2.50185 5.8165 1.76492Z" fill="#020203"/>
<path d="M1.28439 8.75H7.25V15.25H1.28439C1.25 14.3775 1.25 13.3229 1.25 12C1.25 10.6771 1.25 9.62251 1.28439 8.75Z" fill="#020203"/>
<path d="M1.40526 16.75H7.25V22.5947C6.70468 22.5185 6.24224 22.4047 5.8165 22.2351C3.96695 21.4982 2.50185 20.0331 1.76492 18.1835C1.59529 17.7578 1.48154 17.2953 1.40526 16.75Z" fill="#020203"/>
</g>
<g opacity="0.4">
<path d="M16.75 15.25V8.75H22.7156C22.75 9.62251 22.75 10.6771 22.75 12C22.75 13.3229 22.75 14.3775 22.7156 15.25H16.75Z" fill="#020203"/>
<path d="M16.75 22.5947V16.75H22.5947C22.5185 17.2953 22.4047 17.7578 22.2351 18.1835C21.4982 20.0331 20.0331 21.4982 18.1835 22.2351C17.7578 22.4047 17.2953 22.5185 16.75 22.5947Z" fill="#020203"/>
<path d="M16.75 7.25V1.40526C17.2953 1.48154 17.7578 1.59529 18.1835 1.76492C20.0331 2.50185 21.4982 3.96695 22.2351 5.8165C22.4047 6.24224 22.5185 6.70468 22.5947 7.25H16.75Z" fill="#020203"/>
</g>
<path d="M15.25 1.28439C14.3775 1.25 13.3229 1.25 12 1.25C10.6771 1.25 9.62251 1.25 8.75 1.28439V7.25H15.25V1.28439Z" fill="#020203"/>
<path d="M15.25 8.75H8.75V15.25H15.25V8.75Z" fill="#020203"/>
<path d="M15.25 16.75H8.75V22.7156C9.62251 22.75 10.6771 22.75 12 22.75C13.3229 22.75 14.3775 22.75 15.25 22.7156V16.75Z" fill="#020203"/>
</svg>
