<svg width="24" height="24" viewBox="0 0 24 24" fill="none" xmlns="http://www.w3.org/2000/svg">
<path d="M11.25 1.25055C8.48122 1.25357 7.00574 1.29137 5.8165 1.76521C3.96695 2.50214 2.50185 3.96724 1.76492 5.81679C1.25 7.10914 1.25 8.73952 1.25 12.0003C1.25 15.2611 1.25 16.8914 1.76492 18.1838C2.50185 20.0333 3.96695 21.4984 5.8165 22.2354C7.00574 22.7092 8.48122 22.747 11.25 22.75L11.25 1.25055Z" fill="#020203"/>
<path d="M12.75 22.75C15.5188 22.747 16.9943 22.7092 18.1835 22.2354C20.0331 21.4984 21.4982 20.0333 22.2351 18.1838C22.75 16.8914 22.75 15.2611 22.75 12.0003C22.75 8.73952 22.75 7.10914 22.2351 5.81679C21.4982 3.96724 20.0331 2.50214 18.1835 1.76521C16.9943 1.29137 15.5188 1.25357 12.75 1.25055L12.75 22.75Z" fill="#020203"/>
</svg>
