<svg width="24" height="24" viewBox="0 0 24 24" fill="none" xmlns="http://www.w3.org/2000/svg">
<path d="M1.25 12C1.25 10.6771 1.25 9.62251 1.28439 8.75H22.7156C22.75 9.62251 22.75 10.6771 22.75 12C22.75 13.3229 22.75 14.3775 22.7156 15.25H1.28439C1.25 14.3775 1.25 13.3229 1.25 12Z" fill="#020203"/>
<path opacity="0.4" d="M1.40527 16.75C1.48155 17.2953 1.5953 17.7578 1.76493 18.1835C2.50186 20.0331 3.96696 21.4982 5.81651 22.2351C7.10886 22.75 8.73924 22.75 12 22.75C15.2608 22.75 16.8912 22.75 18.1835 22.2351C20.0331 21.4982 21.4982 20.0331 22.2351 18.1835C22.4047 17.7578 22.5185 17.2953 22.5948 16.75H1.40527Z" fill="#020203"/>
<path opacity="0.4" d="M22.2351 5.8165C22.4047 6.24224 22.5185 6.70468 22.5948 7.25H1.40527C1.48155 6.70468 1.5953 6.24224 1.76493 5.8165C2.50186 3.96695 3.96696 2.50185 5.81651 1.76492C7.10886 1.25 8.73924 1.25 12 1.25C15.2608 1.25 16.8912 1.25 18.1835 1.76492C20.0331 2.50185 21.4982 3.96695 22.2351 5.8165Z" fill="#020203"/>
</svg>
