<svg width="24" height="24" viewBox="0 0 24 24" fill="none" xmlns="http://www.w3.org/2000/svg">
<path d="M1.25026 11.25H22.7497C22.7467 8.48122 22.7089 7.00574 22.2351 5.8165C21.4982 3.96695 20.033 2.50185 18.1835 1.76492C16.8912 1.25 15.2608 1.25 12 1.25C8.73923 1.25 7.10884 1.25 5.8165 1.76492C3.96695 2.50185 2.50184 3.96695 1.76492 5.8165C1.29108 7.00574 1.25328 8.48122 1.25026 11.25Z" fill="#020203"/>
<path d="M15.25 12.75H8.75V22.7156C9.6225 22.75 10.6771 22.75 12 22.75C13.3229 22.75 14.3775 22.75 15.25 22.7156V12.75Z" fill="#020203"/>
<path d="M16.75 22.5947V12.75H22.7497C22.7467 15.5188 22.7089 16.9943 22.2351 18.1835C21.4982 20.0331 20.033 21.4982 18.1835 22.2351C17.7578 22.4047 17.2953 22.5185 16.75 22.5947Z" fill="#020203"/>
<path d="M1.25026 12.75H7.25V22.5947C6.70467 22.5185 6.24224 22.4047 5.8165 22.2351C3.96695 21.4982 2.50184 20.0331 1.76492 18.1835C1.29108 16.9943 1.25328 15.5188 1.25026 12.75Z" fill="#020203"/>
</svg>
