<svg width="24" height="24" viewBox="0 0 24 24" fill="none" xmlns="http://www.w3.org/2000/svg">
<path opacity="0.4" d="M1.25024 11.25C1.25326 8.48122 1.29107 7.00574 1.7649 5.8165C2.50183 3.96695 3.96693 2.50185 5.81648 1.76492C7.10883 1.25 8.73921 1.25 12 1.25C15.2608 1.25 16.8911 1.25 18.1835 1.76492C20.033 2.50185 21.4981 3.96695 22.2351 5.8165C22.7089 7.00574 22.7467 8.48122 22.7497 11.25H1.25024Z" fill="#020203"/>
<path d="M11.25 12.75H1.25024C1.25326 15.5188 1.29107 16.9943 1.7649 18.1835C2.50183 20.0331 3.96693 21.4982 5.81648 22.2351C7.00572 22.7089 8.48121 22.7467 11.25 22.7497V12.75Z" fill="#020203"/>
<path d="M12.75 22.7497V12.75H22.7497C22.7467 15.5188 22.7089 16.9943 22.2351 18.1835C21.4981 20.0331 20.033 21.4982 18.1835 22.2351C16.9942 22.7089 15.5188 22.7467 12.75 22.7497Z" fill="#020203"/>
</svg>
