<svg width="24" height="24" viewBox="0 0 24 24" fill="none" xmlns="http://www.w3.org/2000/svg">
<path d="M8.25 1.30928C7.233 1.37185 6.48017 1.50049 5.8165 1.76492C3.96695 2.50185 2.50185 3.96695 1.76492 5.8165C1.25 7.10885 1.25 8.73923 1.25 12C1.25 15.2608 1.25 16.8912 1.76492 18.1835C2.50185 20.0331 3.96695 21.4982 5.8165 22.2351C6.48017 22.4995 7.233 22.6281 8.25 22.6907L8.25 1.30928Z" fill="#020203"/>
<path fill-rule="evenodd" clip-rule="evenodd" d="M9.75 22.7407C10.4036 22.75 11.1459 22.75 12 22.75C15.2608 22.75 16.8912 22.75 18.1835 22.2351C20.0331 21.4982 21.4982 20.0331 22.2351 18.1835C22.75 16.8912 22.75 15.2608 22.75 12C22.75 8.73923 22.75 7.10885 22.2351 5.8165C21.4982 3.96695 20.0331 2.50185 18.1835 1.76492C16.8912 1.25 15.2608 1.25 12 1.25C11.1459 1.25 10.4036 1.25 9.75 1.25925L9.75 22.7407ZM17.2191 8.469C17.512 8.76189 17.512 9.23677 17.2191 9.52966L15.2797 11.469C14.9868 11.7619 14.9868 12.2368 15.2797 12.5297L17.2191 14.469C17.512 14.7619 17.512 15.2368 17.2191 15.5297C16.9262 15.8226 16.4513 15.8226 16.1584 15.5297L14.2191 13.5903C13.3404 12.7116 13.3404 11.287 14.2191 10.4083L16.1584 8.469C16.4513 8.17611 16.9262 8.17611 17.2191 8.469Z" fill="#020203"/>
</svg>
