<svg width="24" height="24" viewBox="0 0 24 24" fill="none" xmlns="http://www.w3.org/2000/svg">
<path d="M3.88668 19.0527C2.24436 17.165 1.25 14.6986 1.25 12C1.25 9.3014 2.24436 6.83504 3.88668 4.94734L7.43833 8.499C6.69307 9.46859 6.25 10.6826 6.25 12C6.25 13.3174 6.69307 14.5314 7.43833 15.501L3.88668 19.0527Z" fill="#020203"/>
<path d="M4.94734 20.1133C6.83504 21.7556 9.3014 22.75 12 22.75C14.6986 22.75 17.165 21.7556 19.0527 20.1133L15.501 16.5617C14.5314 17.3069 13.3174 17.75 12 17.75C10.6826 17.75 9.46859 17.3069 8.49899 16.5617L4.94734 20.1133Z" fill="#020203"/>
<path d="M12 6.25C10.6826 6.25 9.46859 6.69307 8.499 7.43833L4.94734 3.88668C6.83504 2.24436 9.3014 1.25 12 1.25C14.6986 1.25 17.165 2.24436 19.0527 3.88668L15.501 7.43833C14.5314 6.69307 13.3174 6.25 12 6.25Z" fill="#020203"/>
<path d="M20.1133 19.0527C21.7556 17.165 22.75 14.6986 22.75 12C22.75 9.3014 21.7556 6.83504 20.1133 4.94734L16.5617 8.49899C17.3069 9.46859 17.75 10.6826 17.75 12C17.75 13.3174 17.3069 14.5314 16.5617 15.501L20.1133 19.0527Z" fill="#020203"/>
<path d="M7.75 12C7.75 9.65279 9.65279 7.75 12 7.75C14.3472 7.75 16.25 9.65279 16.25 12C16.25 14.3472 14.3472 16.25 12 16.25C9.65279 16.25 7.75 14.3472 7.75 12Z" fill="#020203"/>
</svg>
