<svg width="24" height="24" viewBox="0 0 24 24" fill="none" xmlns="http://www.w3.org/2000/svg">
<path d="M2 12C2 6.47715 6.47715 2 12 2C17.5228 2 22 6.47715 22 12C22 17.5228 17.5228 22 12 22C6.47715 22 2 17.5228 2 12Z" stroke="#020203" stroke-width="1.5"/>
<path d="M7 12C7 9.23858 9.23858 7 12 7C14.7614 7 17 9.23858 17 12C17 14.7614 14.7614 17 12 17C9.23858 17 7 14.7614 7 12Z" stroke="#020203" stroke-width="1.5"/>
<path d="M19 5L16 8" stroke="#020203" stroke-width="1.5" stroke-linecap="round"/>
<path d="M19 19L16 16" stroke="#020203" stroke-width="1.5" stroke-linecap="round"/>
<path d="M5 5L8 8" stroke="#020203" stroke-width="1.5" stroke-linecap="round"/>
<path d="M8 16L5 19" stroke="#020203" stroke-width="1.5" stroke-linecap="round"/>
</svg>
