<svg width="24" height="24" viewBox="0 0 24 24" fill="none" xmlns="http://www.w3.org/2000/svg">
<path d="M2 4C2 5.10457 2.89543 6 4 6C5.10457 6 6 5.10457 6 4C6 2.89543 5.10457 2 4 2C2.89543 2 2 2.89543 2 4Z" stroke="#020203" stroke-width="1.5" stroke-linecap="round"/>
<path d="M2 12C2 13.1046 2.89543 14 4 14C5.10457 14 6 13.1046 6 12C6 10.8954 5.10457 10 4 10C2.89543 10 2 10.8954 2 12Z" stroke="#020203" stroke-width="1.5" stroke-linecap="round"/>
<path d="M2 20C2 21.1046 2.89543 22 4 22C5.10457 22 6 21.1046 6 20C6 18.8954 5.10457 18 4 18C2.89543 18 2 18.8954 2 20Z" stroke="#020203" stroke-width="1.5" stroke-linecap="round"/>
<path d="M10 5.5H16" stroke="#020203" stroke-width="1.5" stroke-linecap="round"/>
<path d="M10 2.5H22" stroke="#020203" stroke-width="1.5" stroke-linecap="round"/>
<path d="M10 13.5H16" stroke="#020203" stroke-width="1.5" stroke-linecap="round"/>
<path d="M10 10.5H22" stroke="#020203" stroke-width="1.5" stroke-linecap="round"/>
<path d="M10 21.5H16" stroke="#020203" stroke-width="1.5" stroke-linecap="round"/>
<path d="M10 18.5H22" stroke="#020203" stroke-width="1.5" stroke-linecap="round"/>
</svg>
