<svg width="24" height="24" viewBox="0 0 24 24" fill="none" xmlns="http://www.w3.org/2000/svg">
<path fill-rule="evenodd" clip-rule="evenodd" d="M10.25 5C10.25 4.58579 10.5858 4.25 11 4.25L21 4.25C21.4142 4.25 21.75 4.58579 21.75 5C21.75 5.41421 21.4142 5.75 21 5.75L11 5.75C10.5858 5.75 10.25 5.41421 10.25 5Z" fill="#020203"/>
<path fill-rule="evenodd" clip-rule="evenodd" d="M10.25 12C10.25 11.5858 10.5858 11.25 11 11.25L21 11.25C21.4142 11.25 21.75 11.5858 21.75 12C21.75 12.4142 21.4142 12.75 21 12.75L11 12.75C10.5858 12.75 10.25 12.4142 10.25 12Z" fill="#020203"/>
<path fill-rule="evenodd" clip-rule="evenodd" d="M10.25 19C10.25 18.5858 10.5858 18.25 11 18.25L21 18.25C21.4142 18.25 21.75 18.5858 21.75 19C21.75 19.4142 21.4142 19.75 21 19.75L11 19.75C10.5858 19.75 10.25 19.4142 10.25 19Z" fill="#020203"/>
<path opacity="0.4" d="M2.5 5C2.5 6.38071 3.61929 7.5 5 7.5C6.38071 7.5 7.5 6.38071 7.5 5C7.5 3.61929 6.38071 2.5 5 2.5C3.61929 2.5 2.5 3.61929 2.5 5Z" fill="#020203"/>
<path opacity="0.4" d="M2.5 12C2.5 13.3807 3.61929 14.5 5 14.5C6.38071 14.5 7.5 13.3807 7.5 12C7.5 10.6193 6.38071 9.5 5 9.5C3.61929 9.5 2.5 10.6193 2.5 12Z" fill="#020203"/>
<path opacity="0.4" d="M2.5 19C2.5 20.3807 3.61929 21.5 5 21.5C6.38071 21.5 7.5 20.3807 7.5 19C7.5 17.6193 6.38071 16.5 5 16.5C3.61929 16.5 2.5 17.6193 2.5 19Z" fill="#020203"/>
</svg>
