<svg width="24" height="24" viewBox="0 0 24 24" fill="none" xmlns="http://www.w3.org/2000/svg">
<path d="M1.5 4C1.5 5.38071 2.61929 6.5 4 6.5C5.38071 6.5 6.5 5.38071 6.5 4C6.5 2.61929 5.38071 1.5 4 1.5C2.61929 1.5 1.5 2.61929 1.5 4Z" fill="#020203"/>
<path d="M1.5 12C1.5 13.3807 2.61929 14.5 4 14.5C5.38071 14.5 6.5 13.3807 6.5 12C6.5 10.6193 5.38071 9.5 4 9.5C2.61929 9.5 1.5 10.6193 1.5 12Z" fill="#020203"/>
<path d="M1.5 20C1.5 21.3807 2.61929 22.5 4 22.5C5.38071 22.5 6.5 21.3807 6.5 20C6.5 18.6193 5.38071 17.5 4 17.5C2.61929 17.5 1.5 18.6193 1.5 20Z" fill="#020203"/>
<path fill-rule="evenodd" clip-rule="evenodd" d="M9.25 5.5C9.25 5.08579 9.58579 4.75 10 4.75H16C16.4142 4.75 16.75 5.08579 16.75 5.5C16.75 5.91421 16.4142 6.25 16 6.25H10C9.58579 6.25 9.25 5.91421 9.25 5.5Z" fill="#020203"/>
<path fill-rule="evenodd" clip-rule="evenodd" d="M9.25 2.5C9.25 2.08579 9.58579 1.75 10 1.75H22C22.4142 1.75 22.75 2.08579 22.75 2.5C22.75 2.91421 22.4142 3.25 22 3.25H10C9.58579 3.25 9.25 2.91421 9.25 2.5Z" fill="#020203"/>
<path fill-rule="evenodd" clip-rule="evenodd" d="M9.25 13.5C9.25 13.0858 9.58579 12.75 10 12.75H16C16.4142 12.75 16.75 13.0858 16.75 13.5C16.75 13.9142 16.4142 14.25 16 14.25H10C9.58579 14.25 9.25 13.9142 9.25 13.5Z" fill="#020203"/>
<path fill-rule="evenodd" clip-rule="evenodd" d="M9.25 10.5C9.25 10.0858 9.58579 9.75 10 9.75H22C22.4142 9.75 22.75 10.0858 22.75 10.5C22.75 10.9142 22.4142 11.25 22 11.25H10C9.58579 11.25 9.25 10.9142 9.25 10.5Z" fill="#020203"/>
<path fill-rule="evenodd" clip-rule="evenodd" d="M9.25 21.5C9.25 21.0858 9.58579 20.75 10 20.75H16C16.4142 20.75 16.75 21.0858 16.75 21.5C16.75 21.9142 16.4142 22.25 16 22.25H10C9.58579 22.25 9.25 21.9142 9.25 21.5Z" fill="#020203"/>
<path fill-rule="evenodd" clip-rule="evenodd" d="M9.25 18.5C9.25 18.0858 9.58579 17.75 10 17.75H22C22.4142 17.75 22.75 18.0858 22.75 18.5C22.75 18.9142 22.4142 19.25 22 19.25H10C9.58579 19.25 9.25 18.9142 9.25 18.5Z" fill="#020203"/>
</svg>
