<svg width="24" height="24" viewBox="0 0 24 24" fill="none" xmlns="http://www.w3.org/2000/svg">
<path fill-rule="evenodd" clip-rule="evenodd" d="M9.25 4C9.25 3.58579 9.58579 3.25 10 3.25L22 3.25C22.4142 3.25 22.75 3.58579 22.75 4C22.75 4.41421 22.4142 4.75 22 4.75L10 4.75C9.58579 4.75 9.25 4.41421 9.25 4Z" fill="#020203"/>
<path fill-rule="evenodd" clip-rule="evenodd" d="M9.25 12C9.25 11.5858 9.58579 11.25 10 11.25L22 11.25C22.4142 11.25 22.75 11.5858 22.75 12C22.75 12.4142 22.4142 12.75 22 12.75L10 12.75C9.58579 12.75 9.25 12.4142 9.25 12Z" fill="#020203"/>
<path fill-rule="evenodd" clip-rule="evenodd" d="M9.25 20C9.25 19.5858 9.58579 19.25 10 19.25L22 19.25C22.4142 19.25 22.75 19.5858 22.75 20C22.75 20.4142 22.4142 20.75 22 20.75L10 20.75C9.58579 20.75 9.25 20.4142 9.25 20Z" fill="#020203"/>
<path fill-rule="evenodd" clip-rule="evenodd" d="M6.53033 1.46967C6.82322 1.76256 6.82322 2.23744 6.53033 2.53033L2.53033 6.53033C2.23744 6.82322 1.76256 6.82322 1.46967 6.53033C1.17678 6.23744 1.17678 5.76256 1.46967 5.46967L5.46967 1.46967C5.76256 1.17678 6.23744 1.17678 6.53033 1.46967Z" fill="#020203"/>
<path fill-rule="evenodd" clip-rule="evenodd" d="M6.53033 9.46967C6.82322 9.76256 6.82322 10.2374 6.53033 10.5303L2.53033 14.5303C2.23744 14.8232 1.76256 14.8232 1.46967 14.5303C1.17678 14.2374 1.17678 13.7626 1.46967 13.4697L5.46967 9.46967C5.76256 9.17678 6.23744 9.17678 6.53033 9.46967Z" fill="#020203"/>
<path fill-rule="evenodd" clip-rule="evenodd" d="M6.53033 17.4697C6.82322 17.7626 6.82322 18.2374 6.53033 18.5303L2.53033 22.5303C2.23744 22.8232 1.76256 22.8232 1.46967 22.5303C1.17678 22.2374 1.17678 21.7626 1.46967 21.4697L5.46967 17.4697C5.76256 17.1768 6.23744 17.1768 6.53033 17.4697Z" fill="#020203"/>
<path fill-rule="evenodd" clip-rule="evenodd" d="M1.46967 1.46967C1.76256 1.17678 2.23744 1.17678 2.53033 1.46967L6.53033 5.46967C6.82322 5.76256 6.82322 6.23744 6.53033 6.53033C6.23744 6.82322 5.76256 6.82322 5.46967 6.53033L1.46967 2.53033C1.17678 2.23744 1.17678 1.76256 1.46967 1.46967Z" fill="#020203"/>
<path fill-rule="evenodd" clip-rule="evenodd" d="M1.46967 9.46967C1.76256 9.17678 2.23744 9.17678 2.53033 9.46967L6.53033 13.4697C6.82322 13.7626 6.82322 14.2374 6.53033 14.5303C6.23744 14.8232 5.76256 14.8232 5.46967 14.5303L1.46967 10.5303C1.17678 10.2374 1.17678 9.76256 1.46967 9.46967Z" fill="#020203"/>
<path fill-rule="evenodd" clip-rule="evenodd" d="M1.46967 17.4697C1.76256 17.1768 2.23744 17.1768 2.53033 17.4697L6.53033 21.4697C6.82322 21.7626 6.82322 22.2374 6.53033 22.5303C6.23744 22.8232 5.76256 22.8232 5.46967 22.5303L1.46967 18.5303C1.17678 18.2374 1.17678 17.7626 1.46967 17.4697Z" fill="#020203"/>
</svg>
