<svg width="24" height="24" viewBox="0 0 24 24" fill="none" xmlns="http://www.w3.org/2000/svg">
<path fill-rule="evenodd" clip-rule="evenodd" d="M4.61714 17.0041L7.73853 20.7529C8.79208 22.0183 10.3535 22.75 12 22.75C13.6465 22.75 15.2079 22.0183 16.2615 20.7529L19.3829 17.0041C24.5934 10.746 20.1432 1.25 12 1.25C3.85676 1.25 -0.593395 10.7461 4.61714 17.0041ZM15.5857 9.46852C15.8444 9.14507 15.792 8.67311 15.4685 8.41435C15.1451 8.15559 14.6731 8.20803 14.4143 8.53148L11.6958 11.9296C11.3787 12.326 10.7677 12.2995 10.4861 11.8771L9.62404 10.584C9.39427 10.2393 8.92862 10.1462 8.58397 10.376C8.23933 10.6057 8.1462 11.0714 8.37596 11.416L9.23807 12.7092C10.0828 13.9762 11.9158 14.0558 12.8671 12.8667L15.5857 9.46852Z" fill="#020203"/>
</svg>
