<svg width="24" height="24" viewBox="0 0 24 24" fill="none" xmlns="http://www.w3.org/2000/svg">
<path d="M8.75001 11C8.75001 9.20507 10.2051 7.75 12 7.75C13.7949 7.75 15.25 9.20507 15.25 11C15.25 12.7949 13.7949 14.25 12 14.25C10.2051 14.25 8.75001 12.7949 8.75001 11Z" fill="#020203"/>
<path fill-rule="evenodd" clip-rule="evenodd" d="M4.61714 17.0041L7.73853 20.7529C8.79208 22.0183 10.3535 22.75 12 22.75C13.6465 22.75 15.2079 22.0183 16.2615 20.7529L19.3829 17.0041C24.5934 10.746 20.1432 1.25 12 1.25C3.85676 1.25 -0.593395 10.7461 4.61714 17.0041ZM12 6.25C9.37665 6.25 7.25001 8.37665 7.25001 11C7.25001 13.6234 9.37665 15.75 12 15.75C14.6234 15.75 16.75 13.6234 16.75 11C16.75 8.37665 14.6234 6.25 12 6.25Z" fill="#020203"/>
</svg>
