<svg width="24" height="24" viewBox="0 0 24 24" fill="none" xmlns="http://www.w3.org/2000/svg">
<path opacity="0.4" d="M7.73853 20.7529L4.61714 17.0041C-0.593395 10.7461 3.85676 1.25 12 1.25C20.1432 1.25 24.5934 10.746 19.3829 17.0041L16.2615 20.7529C15.2079 22.0183 13.6465 22.75 12 22.75C10.3535 22.75 8.79208 22.0183 7.73853 20.7529Z" fill="#020203"/>
<path fill-rule="evenodd" clip-rule="evenodd" d="M15.4685 8.41435C15.792 8.6731 15.8444 9.14507 15.5857 9.46852L12.8671 12.8667C11.9158 14.0558 10.0828 13.9762 9.23807 12.7092L8.37597 11.416C8.1462 11.0714 8.23933 10.6057 8.58398 10.376C8.92862 10.1462 9.39428 10.2393 9.62404 10.584L10.4861 11.8771C10.7677 12.2995 11.3787 12.326 11.6958 11.9296L14.4144 8.53148C14.6731 8.20803 15.1451 8.15559 15.4685 8.41435Z" fill="#020203"/>
</svg>
