<svg width="24" height="24" viewBox="0 0 24 24" fill="none" xmlns="http://www.w3.org/2000/svg">
<path opacity="0.4" d="M7.73853 20.7529L4.61714 17.0041C-0.593395 10.7461 3.85676 1.25 12 1.25C20.1432 1.25 24.5934 10.746 19.3829 17.0041L16.2615 20.7529C15.2079 22.0183 13.6465 22.75 12 22.75C10.3535 22.75 8.79208 22.0183 7.73853 20.7529Z" fill="#020203"/>
<path fill-rule="evenodd" clip-rule="evenodd" d="M8.25 11C8.25 10.5858 8.58579 10.25 9 10.25H15C15.4142 10.25 15.75 10.5858 15.75 11C15.75 11.4142 15.4142 11.75 15 11.75H9C8.58579 11.75 8.25 11.4142 8.25 11Z" fill="#020203"/>
</svg>
