<svg width="24" height="24" viewBox="0 0 24 24" fill="none" xmlns="http://www.w3.org/2000/svg">
<path opacity="0.4" d="M7.73853 20.7529L4.61714 17.0041C-0.593395 10.7461 3.85676 1.25 12 1.25C20.1432 1.25 24.5934 10.746 19.3829 17.0041L16.2615 20.7529C15.2079 22.0183 13.6465 22.75 12 22.75C10.3535 22.75 8.79208 22.0183 7.73853 20.7529Z" fill="#020203"/>
<path fill-rule="evenodd" clip-rule="evenodd" d="M15.5303 7.46967C15.8232 7.76256 15.8232 8.23744 15.5303 8.53033L9.53033 14.5303C9.23744 14.8232 8.76256 14.8232 8.46967 14.5303C8.17678 14.2374 8.17678 13.7626 8.46967 13.4697L14.4697 7.46967C14.7626 7.17678 15.2374 7.17678 15.5303 7.46967Z" fill="#020203"/>
<path fill-rule="evenodd" clip-rule="evenodd" d="M8.46967 7.46967C8.76256 7.17678 9.23744 7.17678 9.53033 7.46967L15.5303 13.4697C15.8232 13.7626 15.8232 14.2374 15.5303 14.5303C15.2374 14.8232 14.7626 14.8232 14.4697 14.5303L8.46967 8.53033C8.17678 8.23744 8.17678 7.76256 8.46967 7.46967Z" fill="#020203"/>
</svg>
