<svg width="24" height="24" viewBox="0 0 24 24" fill="none" xmlns="http://www.w3.org/2000/svg">
<path fill-rule="evenodd" clip-rule="evenodd" d="M4.61714 17.0041L7.73853 20.7529C8.79208 22.0183 10.3535 22.75 12 22.75C13.6465 22.75 15.2079 22.0183 16.2615 20.7529L19.3829 17.0041C24.5934 10.746 20.1432 1.25 12 1.25C3.85676 1.25 -0.593395 10.7461 4.61714 17.0041ZM9 10.25C8.58579 10.25 8.25 10.5858 8.25 11C8.25 11.4142 8.58579 11.75 9 11.75H15C15.4142 11.75 15.75 11.4142 15.75 11C15.75 10.5858 15.4142 10.25 15 10.25H9Z" fill="#020203"/>
</svg>
