<svg width="24" height="24" viewBox="0 0 24 24" fill="none" xmlns="http://www.w3.org/2000/svg">
<path opacity="0.4" d="M3.25 15C3.25 13.1398 3.25 12.2097 3.46323 11.4487C4.00486 9.51553 5.51553 8.00486 7.44867 7.46323C8.20968 7.25 9.13979 7.25 11 7.25H13C14.8602 7.25 15.7903 7.25 16.5513 7.46323C18.4845 8.00486 19.9951 9.51553 20.5368 11.4487C20.75 12.2097 20.75 13.1398 20.75 15C20.75 16.8602 20.75 17.7903 20.5368 18.5513C19.9951 20.4845 18.4845 21.9951 16.5513 22.5368C15.7903 22.75 14.8602 22.75 13 22.75H11C9.13979 22.75 8.20968 22.75 7.44867 22.5368C5.51553 21.9951 4.00486 20.4845 3.46323 18.5513C3.25 17.7903 3.25 16.8602 3.25 15Z" fill="#020203"/>
<path fill-rule="evenodd" clip-rule="evenodd" d="M12 2.75C9.65279 2.75 7.75 4.65279 7.75 7V9.5C7.75 9.91421 7.41421 10.25 7 10.25C6.58579 10.25 6.25 9.91421 6.25 9.5V7C6.25 3.82436 8.82436 1.25 12 1.25C15.1756 1.25 17.75 3.82436 17.75 7V9.5C17.75 9.91421 17.4142 10.25 17 10.25C16.5858 10.25 16.25 9.91421 16.25 9.5V7C16.25 4.65279 14.3472 2.75 12 2.75Z" fill="#020203"/>
<path d="M12 12C10.8954 12 10 12.8954 10 14C10 15.1046 10.8954 16 12 16C13.1046 16 14 15.1046 14 14C14 12.8954 13.1046 12 12 12Z" fill="#020203"/>
<path fill-rule="evenodd" clip-rule="evenodd" d="M12 13.25C12.4142 13.25 12.75 13.5858 12.75 14L12.75 18C12.75 18.4142 12.4142 18.75 12 18.75C11.5858 18.75 11.25 18.4142 11.25 18L11.25 14C11.25 13.5858 11.5858 13.25 12 13.25Z" fill="#020203"/>
</svg>
