<svg width="24" height="24" viewBox="0 0 24 24" fill="none" xmlns="http://www.w3.org/2000/svg">
<path d="M4 15C4 13.1387 4 12.2081 4.24472 11.4549C4.73931 9.93273 5.93273 8.73931 7.45492 8.24472C8.20808 8 9.13872 8 11 8H13C14.8613 8 15.7919 8 16.5451 8.24472C18.0673 8.73931 19.2607 9.93273 19.7553 11.4549C20 12.2081 20 13.1387 20 15C20 16.8613 20 17.7919 19.7553 18.5451C19.2607 20.0673 18.0673 21.2607 16.5451 21.7553C15.7919 22 14.8613 22 13 22H11C9.13872 22 8.20808 22 7.45492 21.7553C5.93273 21.2607 4.73931 20.0673 4.24472 18.5451C4 17.7919 4 16.8613 4 15Z" stroke="#020203" stroke-width="1.5"/>
<path d="M7 8V7C7 4.23858 9.23858 2 12 2C14.7614 2 17 4.23858 17 7V8" stroke="#020203" stroke-width="1.5" stroke-linecap="round"/>
<path d="M12 16V18M12 16C10.8954 16 10 15.1046 10 14C10 12.8954 10.8954 12 12 12C13.1046 12 14 12.8954 14 14C14 15.1046 13.1046 16 12 16Z" stroke="#020203" stroke-width="1.5" stroke-linecap="round"/>
</svg>
