<svg width="24" height="24" viewBox="0 0 24 24" fill="none" xmlns="http://www.w3.org/2000/svg">
<path d="M10.75 14C10.75 13.3096 11.3096 12.75 12 12.75C12.6904 12.75 13.25 13.3096 13.25 14C13.25 14.6904 12.6904 15.25 12 15.25C11.3096 15.25 10.75 14.6904 10.75 14Z" fill="#020203"/>
<path fill-rule="evenodd" clip-rule="evenodd" d="M3.46323 11.4487C3.25 12.2097 3.25 13.1398 3.25 15C3.25 16.8602 3.25 17.7903 3.46323 18.5513C4.00486 20.4845 5.51553 21.9951 7.44867 22.5368C8.20968 22.75 9.13979 22.75 11 22.75H13C14.8602 22.75 15.7903 22.75 16.5513 22.5368C18.4845 21.9951 19.9951 20.4845 20.5368 18.5513C20.75 17.7903 20.75 16.8602 20.75 15C20.75 13.1398 20.75 12.2097 20.5368 11.4487C19.9951 9.51553 18.4845 8.00486 16.5513 7.46323C15.7903 7.25 14.8602 7.25 13 7.25H11C9.13979 7.25 8.20968 7.25 7.44867 7.46323C5.51553 8.00486 4.00486 9.51553 3.46323 11.4487ZM12 11.25C10.4812 11.25 9.25 12.4812 9.25 14C9.25 15.2588 10.0957 16.32 11.25 16.6465V18C11.25 18.4142 11.5858 18.75 12 18.75C12.4142 18.75 12.75 18.4142 12.75 18V16.6465C13.9043 16.32 14.75 15.2588 14.75 14C14.75 12.4812 13.5188 11.25 12 11.25Z" fill="#020203"/>
<path fill-rule="evenodd" clip-rule="evenodd" d="M12 2.75C9.65279 2.75 7.75 4.65279 7.75 7V8C7.75 8.41421 7.41421 8.75 7 8.75C6.58579 8.75 6.25 8.41421 6.25 8V7C6.25 3.82436 8.82436 1.25 12 1.25C15.1756 1.25 17.75 3.82436 17.75 7V8C17.75 8.41421 17.4142 8.75 17 8.75C16.5858 8.75 16.25 8.41421 16.25 8V7C16.25 4.65279 14.3472 2.75 12 2.75Z" fill="#020203"/>
</svg>
