<svg width="24" height="24" viewBox="0 0 24 24" fill="none" xmlns="http://www.w3.org/2000/svg">
<path fill-rule="evenodd" clip-rule="evenodd" d="M9.75 15.5C9.75 14.2574 10.7574 13.25 12 13.25C13.2426 13.25 14.25 14.2574 14.25 15.5C14.25 16.7426 13.2426 17.75 12 17.75C10.7574 17.75 9.75 16.7426 9.75 15.5ZM10.9927 15.5C10.9927 14.9477 11.4404 14.5 11.9927 14.5H12.0017C12.5539 14.5 13.0017 14.9477 13.0017 15.5C13.0017 16.0523 12.5539 16.5 12.0017 16.5H11.9927C11.4404 16.5 10.9927 16.0523 10.9927 15.5Z" fill="#020203"/>
<path d="M10.75 7.5C10.75 6.80964 11.3096 6.25 12 6.25C12.6904 6.25 13.25 6.80964 13.25 7.5C13.25 8.19036 12.6904 8.75 12 8.75C11.3096 8.75 10.75 8.19036 10.75 7.5Z" fill="#020203"/>
<path fill-rule="evenodd" clip-rule="evenodd" d="M3.5559 5.56864C3.25 6.5101 3.25 7.6734 3.25 10V14C3.25 16.3266 3.25 17.4899 3.5559 18.4314C4.17413 20.3341 5.66591 21.8259 7.56864 22.4441C8.5101 22.75 9.6734 22.75 12 22.75C14.3266 22.75 15.4899 22.75 16.4314 22.4441C18.3341 21.8259 19.8259 20.3341 20.4441 18.4314C20.75 17.4899 20.75 16.3266 20.75 14V10C20.75 7.6734 20.75 6.5101 20.4441 5.56864C19.8259 3.66591 18.3341 2.17413 16.4314 1.5559C15.4899 1.25 14.3266 1.25 12 1.25C9.6734 1.25 8.5101 1.25 7.56864 1.5559C5.66591 2.17413 4.17413 3.66591 3.5559 5.56864ZM12 11.75C9.92893 11.75 8.25 13.4289 8.25 15.5C8.25 17.5711 9.92893 19.25 12 19.25C14.0711 19.25 15.75 17.5711 15.75 15.5C15.75 13.4289 14.0711 11.75 12 11.75ZM12 4.75C10.4812 4.75 9.25 5.98122 9.25 7.5C9.25 9.01878 10.4812 10.25 12 10.25C13.5188 10.25 14.75 9.01878 14.75 7.5C14.75 5.98122 13.5188 4.75 12 4.75Z" fill="#020203"/>
</svg>
