<svg width="24" height="24" viewBox="0 0 24 24" fill="none" xmlns="http://www.w3.org/2000/svg">
<path opacity="0.4" d="M3.25 10C3.25 7.6734 3.25 6.5101 3.5559 5.56864C4.17413 3.66591 5.66591 2.17413 7.56864 1.5559C8.5101 1.25 9.6734 1.25 12 1.25C14.3266 1.25 15.4899 1.25 16.4314 1.5559C18.3341 2.17413 19.8259 3.66591 20.4441 5.56864C20.75 6.5101 20.75 7.6734 20.75 10V14C20.75 16.3266 20.75 17.4899 20.4441 18.4314C19.8259 20.3341 18.3341 21.8259 16.4314 22.4441C15.4899 22.75 14.3266 22.75 12 22.75C9.6734 22.75 8.5101 22.75 7.56864 22.4441C5.66591 21.8259 4.17413 20.3341 3.5559 18.4314C3.25 17.4899 3.25 16.3266 3.25 14V10Z" fill="#020203"/>
<path fill-rule="evenodd" clip-rule="evenodd" d="M12 19.25C9.92893 19.25 8.25 17.5711 8.25 15.5C8.25 13.4289 9.92893 11.75 12 11.75C14.0711 11.75 15.75 13.4289 15.75 15.5C15.75 17.5711 14.0711 19.25 12 19.25ZM11.9927 14.5C11.4404 14.5 10.9927 14.9477 10.9927 15.5C10.9927 16.0523 11.4404 16.5 11.9927 16.5H12.0017C12.5539 16.5 13.0017 16.0523 13.0017 15.5C13.0017 14.9477 12.5539 14.5 12.0017 14.5H11.9927Z" fill="#020203"/>
<path d="M10 7.5C10 8.60457 10.8954 9.5 12 9.5C13.1046 9.5 14 8.60457 14 7.5C14 6.39543 13.1046 5.5 12 5.5C10.8954 5.5 10 6.39543 10 7.5Z" fill="#020203"/>
</svg>
