<svg width="24" height="24" viewBox="0 0 24 24" fill="none" xmlns="http://www.w3.org/2000/svg">
<path opacity="0.4" d="M4 10C4 7.67179 4 6.50769 4.34678 5.57795C4.90427 4.08326 6.08326 2.90427 7.57795 2.34678C8.50769 2 9.67179 2 12 2C14.3282 2 15.4923 2 16.4221 2.34678C17.9167 2.90427 19.0957 4.08326 19.6532 5.57795C20 6.50769 20 7.67179 20 10V14C20 16.3282 20 17.4923 19.6532 18.4221C19.0957 19.9167 17.9167 21.0957 16.4221 21.6532C15.4923 22 14.3282 22 12 22C9.67179 22 8.50769 22 7.57795 21.6532C6.08326 21.0957 4.90427 19.9167 4.34678 18.4221C4 17.4923 4 16.3282 4 14V10Z" stroke="#020203" stroke-width="1.5"/>
<path d="M9 15.5C9 17.1569 10.3431 18.5 12 18.5C13.6569 18.5 15 17.1569 15 15.5C15 13.8431 13.6569 12.5 12 12.5C10.3431 12.5 9 13.8431 9 15.5Z" stroke="#020203" stroke-width="1.5" stroke-linecap="round"/>
<path d="M11.9927 15.5H12.0017" stroke="#020203" stroke-width="2" stroke-linecap="round" stroke-linejoin="round"/>
<path d="M10 7.5C10 8.60457 10.8954 9.5 12 9.5C13.1046 9.5 14 8.60457 14 7.5C14 6.39543 13.1046 5.5 12 5.5C10.8954 5.5 10 6.39543 10 7.5Z" stroke="#020203" stroke-width="1.5" stroke-linecap="round"/>
</svg>
