<svg width="24" height="24" viewBox="0 0 24 24" fill="none" xmlns="http://www.w3.org/2000/svg">
<path d="M6.35874 9.74784C6.03703 9.3457 6.32334 8.75 6.83832 8.75C7.01887 8.75 7.19027 8.82944 7.30696 8.9672L7.38628 9.06085C7.70754 9.4401 8.29246 9.4401 8.61372 9.06085L8.69304 8.9672C8.80973 8.82944 8.98113 8.75 9.16168 8.75C9.67666 8.75 9.96297 9.3457 9.64126 9.74784L8.47418 11.2067C8.23109 11.5106 7.76891 11.5106 7.52582 11.2067L6.35874 9.74784Z" fill="#020203"/>
<path d="M14.8383 8.75C14.3233 8.75 14.037 9.3457 14.3587 9.74784L15.5258 11.2067C15.7689 11.5106 16.2311 11.5106 16.4742 11.2067L17.6413 9.74784C17.963 9.3457 17.6767 8.75 17.1617 8.75C16.9811 8.75 16.8097 8.82944 16.693 8.9672L16.6137 9.06085C16.2925 9.4401 15.7075 9.4401 15.3863 9.06085L15.307 8.9672C15.1903 8.82944 15.0189 8.75 14.8383 8.75Z" fill="#020203"/>
<path fill-rule="evenodd" clip-rule="evenodd" d="M12 22.75C6.06294 22.75 1.25 17.9371 1.25 12C1.25 6.06294 6.06294 1.25 12 1.25C17.9371 1.25 22.75 6.06294 22.75 12C22.75 17.9371 17.9371 22.75 12 22.75ZM6.83832 7.25C5.06558 7.25 4.08001 9.3006 5.18744 10.6849L6.35451 12.1437C7.1981 13.1982 8.8019 13.1982 9.64549 12.1437L10.8126 10.6849C11.92 9.3006 10.9344 7.25 9.16168 7.25C8.74444 7.25 8.3414 7.37325 8 7.59774C7.6586 7.37325 7.25556 7.25 6.83832 7.25ZM13.1874 10.6849C12.08 9.3006 13.0656 7.25 14.8383 7.25C15.2556 7.25 15.6586 7.37325 16 7.59774C16.3414 7.37325 16.7444 7.25 17.1617 7.25C18.9344 7.25 19.92 9.3006 18.8126 10.6849L17.6455 12.1437C16.8019 13.1982 15.1981 13.1982 14.3545 12.1437L13.1874 10.6849ZM9.33541 15.3292C8.96493 15.1439 8.51442 15.2941 8.32918 15.6646C8.14394 16.0351 8.29411 16.4856 8.66459 16.6708C10.8757 17.7764 13.1243 17.7764 15.3354 16.6708C15.7059 16.4856 15.8561 16.0351 15.6708 15.6646C15.4856 15.2941 15.0351 15.1439 14.6646 15.3292C12.8757 16.2236 11.1243 16.2236 9.33541 15.3292Z" fill="#020203"/>
</svg>
