<svg width="24" height="24" viewBox="0 0 24 24" fill="none" xmlns="http://www.w3.org/2000/svg">
<path d="M2 12C2 17.5228 6.47715 22 12 22C17.5228 22 22 17.5228 22 12C22 6.47715 17.5228 2 12 2C6.47715 2 2 6.47715 2 12Z" stroke="#020203" stroke-width="1.5" stroke-linecap="round"/>
<path d="M7.87927 8.48245L7.95859 8.57609C7.98028 8.60169 8.01977 8.60169 8.04146 8.57609L8.12078 8.48245C8.37997 8.17645 8.76068 8 9.1617 8C10.3056 8 10.9415 9.32315 10.2269 10.2164L9.05986 11.6752C8.51652 12.3544 7.48353 12.3544 6.94019 11.6752L5.77311 10.2164C5.05855 9.32315 5.69448 8 6.83835 8C7.23937 8 7.62008 8.17645 7.87927 8.48245Z" stroke="#020203" stroke-width="1.5" stroke-linecap="round"/>
<path d="M15.8793 8.48245L15.9586 8.57609C15.9803 8.60169 16.0198 8.60169 16.0415 8.57609L16.1208 8.48245C16.38 8.17645 16.7607 8 17.1617 8C18.3056 8 18.9415 9.32315 18.2269 10.2164L17.0599 11.6752C16.5165 12.3544 15.4835 12.3544 14.9402 11.6752L13.7731 10.2164C13.0585 9.32315 13.6945 8 14.8383 8C15.2394 8 15.6201 8.17645 15.8793 8.48245Z" stroke="#020203" stroke-width="1.5" stroke-linecap="round"/>
<path d="M9 16C11 17 13 17 15 16" stroke="#020203" stroke-width="1.5" stroke-linecap="round"/>
</svg>
