<svg width="24" height="24" viewBox="0 0 24 24" fill="none" xmlns="http://www.w3.org/2000/svg">
<path opacity="0.4" d="M1.25 12C1.25 17.9371 6.06294 22.75 12 22.75C17.9371 22.75 22.75 17.9371 22.75 12C22.75 6.06294 17.9371 1.25 12 1.25C6.06294 1.25 1.25 6.06294 1.25 12Z" fill="#020203"/>
<path d="M7.8766 8.19471L7.95236 8.29011C7.97672 8.32078 8.02328 8.32078 8.04763 8.29011L8.1234 8.19471C8.42171 7.81905 8.87518 7.6001 9.35488 7.6001C10.6507 7.6001 11.3904 9.0795 10.6129 10.1162L9.28571 11.8858C8.64286 12.743 7.35714 12.743 6.71428 11.8858L5.38707 10.1162C4.60955 9.0795 5.34926 7.6001 6.64512 7.6001C7.12482 7.6001 7.57829 7.81905 7.8766 8.19471Z" fill="#020203"/>
<path d="M15.8766 8.19471L15.9524 8.29011C15.9767 8.32078 16.0233 8.32078 16.0476 8.29011L16.1234 8.19471C16.4217 7.81905 16.8752 7.6001 17.3549 7.6001C18.6507 7.6001 19.3904 9.0795 18.6129 10.1162L17.2857 11.8858C16.6429 12.743 15.3571 12.743 14.7143 11.8858L13.3871 10.1162C12.6096 9.0795 13.3493 7.6001 14.6451 7.6001C15.1248 7.6001 15.5783 7.81905 15.8766 8.19471Z" fill="#020203"/>
<path fill-rule="evenodd" clip-rule="evenodd" d="M8.32916 15.6646C8.5144 15.2941 8.96491 15.1439 9.33539 15.3292C11.1242 16.2236 12.8757 16.2236 14.6646 15.3292C15.0351 15.1439 15.4856 15.2941 15.6708 15.6646C15.856 16.0351 15.7059 16.4856 15.3354 16.6708C13.1242 17.7764 10.8757 17.7764 8.66457 16.6708C8.29409 16.4856 8.14392 16.0351 8.32916 15.6646Z" fill="#020203"/>
</svg>
