<svg width="24" height="24" viewBox="0 0 24 24" fill="none" xmlns="http://www.w3.org/2000/svg">
<path opacity="0.4" d="M2 12C2 17.5228 6.47715 22 12 22C17.5228 22 22 17.5228 22 12C22 6.47715 17.5228 2 12 2C6.47715 2 2 6.47715 2 12Z" stroke="#020203" stroke-width="1.5" stroke-linecap="round"/>
<path d="M7.87921 8.48245L7.95853 8.57609C7.98022 8.60169 8.01971 8.60169 8.0414 8.57609L8.12072 8.48245C8.37991 8.17645 8.76062 8 9.16164 8C10.3055 8 10.9414 9.32315 10.2269 10.2164L9.0598 11.6752C8.51646 12.3544 7.48347 12.3544 6.94013 11.6752L5.77305 10.2164C5.05848 9.32315 5.69442 8 6.83829 8C7.23931 8 7.62001 8.17645 7.87921 8.48245Z" stroke="#020203" stroke-width="1.5" stroke-linecap="round"/>
<path d="M15.8792 8.48245L15.9585 8.57609C15.9802 8.60169 16.0197 8.60169 16.0414 8.57609L16.1207 8.48245C16.3799 8.17645 16.7606 8 17.1616 8C18.3055 8 18.9414 9.32315 18.2269 10.2164L17.0598 11.6752C16.5165 12.3544 15.4835 12.3544 14.9401 11.6752L13.7731 10.2164C13.0585 9.32315 13.6944 8 14.8383 8C15.2393 8 15.62 8.17645 15.8792 8.48245Z" stroke="#020203" stroke-width="1.5" stroke-linecap="round"/>
<path d="M9 16C11 17 13 17 15 16" stroke="#020203" stroke-width="1.5" stroke-linecap="round"/>
</svg>
