<svg width="24" height="24" viewBox="0 0 24 24" fill="none" xmlns="http://www.w3.org/2000/svg">
<path d="M1.25 11C1.25 8.6734 1.25 7.5101 1.5559 6.56864C2.17413 4.66591 3.66591 3.17413 5.56864 2.5559C6.5101 2.25 7.6734 2.25 10 2.25H14C16.3266 2.25 17.4899 2.25 18.4314 2.5559C20.3341 3.17413 21.8259 4.66591 22.4441 6.56864C22.75 7.5101 22.75 8.6734 22.75 11C22.75 13.3266 22.75 14.4899 22.4441 15.4314C21.8259 17.3341 20.3341 18.8259 18.4314 19.4441C17.4899 19.75 16.3266 19.75 14 19.75H10C7.6734 19.75 6.5101 19.75 5.56864 19.4441C3.66591 18.8259 2.17413 17.3341 1.5559 15.4314C1.25 14.4899 1.25 13.3266 1.25 11Z" fill="#020203"/>
<path fill-rule="evenodd" clip-rule="evenodd" d="M19 1.25C19.4142 1.25 19.75 1.58579 19.75 2L19.75 4C19.75 4.41421 19.4142 4.75 19 4.75C18.5858 4.75 18.25 4.41421 18.25 4L18.25 2C18.25 1.58579 18.5858 1.25 19 1.25Z" fill="#020203"/>
<path fill-rule="evenodd" clip-rule="evenodd" d="M19 16.25C19.4142 16.25 19.75 16.5858 19.75 17L19.75 22C19.75 22.4142 19.4142 22.75 19 22.75C18.5858 22.75 18.25 22.4142 18.25 22L18.25 17C18.25 16.5858 18.5858 16.25 19 16.25Z" fill="#020203"/>
<path fill-rule="evenodd" clip-rule="evenodd" d="M5 1.25C5.41421 1.25 5.75 1.58579 5.75 2L5.75 4C5.75 4.41421 5.41421 4.75 5 4.75C4.58579 4.75 4.25 4.41421 4.25 4L4.25 2C4.25 1.58579 4.58579 1.25 5 1.25Z" fill="#020203"/>
<path fill-rule="evenodd" clip-rule="evenodd" d="M5 16.25C5.41421 16.25 5.75 16.5858 5.75 17L5.75 22C5.75 22.4142 5.41421 22.75 5 22.75C4.58579 22.75 4.25 22.4142 4.25 22L4.25 17C4.25 16.5858 4.58579 16.25 5 16.25Z" fill="#020203"/>
<path fill-rule="evenodd" clip-rule="evenodd" d="M3.25 22C3.25 21.5858 3.58579 21.25 4 21.25H6C6.41421 21.25 6.75 21.5858 6.75 22C6.75 22.4142 6.41421 22.75 6 22.75H4C3.58579 22.75 3.25 22.4142 3.25 22Z" fill="#020203"/>
<path fill-rule="evenodd" clip-rule="evenodd" d="M17.25 22C17.25 21.5858 17.5858 21.25 18 21.25H20C20.4142 21.25 20.75 21.5858 20.75 22C20.75 22.4142 20.4142 22.75 20 22.75H18C17.5858 22.75 17.25 22.4142 17.25 22Z" fill="#020203"/>
</svg>
