<svg width="24" height="24" viewBox="0 0 24 24" fill="none" xmlns="http://www.w3.org/2000/svg">
<path d="M2 11C2 8.67179 2 7.50769 2.34678 6.57795C2.90427 5.08326 4.08326 3.90427 5.57795 3.34678C6.50769 3 7.67179 3 10 3H14C16.3282 3 17.4923 3 18.4221 3.34678C19.9167 3.90427 21.0957 5.08326 21.6532 6.57795C22 7.50769 22 8.67179 22 11C22 13.3282 22 14.4923 21.6532 15.4221C21.0957 16.9167 19.9167 18.0957 18.4221 18.6532C17.4923 19 16.3282 19 14 19H10C7.67179 19 6.50769 19 5.57795 18.6532C4.08326 18.0957 2.90427 16.9167 2.34678 15.4221C2 14.4923 2 13.3282 2 11Z" stroke="#020203" stroke-width="1.5"/>
<path opacity="0.4" d="M19 2L19 3" stroke="#020203" stroke-width="1.5" stroke-linecap="round"/>
<path opacity="0.4" d="M19 19L19 22" stroke="#020203" stroke-width="1.5" stroke-linecap="round"/>
<path opacity="0.4" d="M5 2L5 3" stroke="#020203" stroke-width="1.5" stroke-linecap="round"/>
<path opacity="0.4" d="M5 19L5 22" stroke="#020203" stroke-width="1.5" stroke-linecap="round"/>
<path d="M4 22H6" stroke="#020203" stroke-width="1.5" stroke-linecap="round"/>
<path d="M18 22H20" stroke="#020203" stroke-width="1.5" stroke-linecap="round"/>
</svg>
