<svg width="24" height="24" viewBox="0 0 24 24" fill="none" xmlns="http://www.w3.org/2000/svg">
<path d="M18 22H6C3.79086 22 2 20.2091 2 18C2 15.7909 3.79086 14 6 14H6.4982C7.29463 14 8.07678 14.2115 8.76471 14.6127L9.07151 14.7917C10.8811 15.8473 13.1187 15.8474 14.9283 14.7918L15.235 14.6129C15.923 14.2116 16.7054 14 17.5018 14H18C20.2091 14 22 15.7909 22 18C22 20.2091 20.2091 22 18 22Z" fill="#020203"/>
<path opacity="0.4" d="M2 12C2 6.47715 6.47715 2 12 2C17.5228 2 22 6.47715 22 12C22 12.7498 21.9175 13.4804 21.761 14.183C21.036 13.1644 19.8456 12.5 18.5 12.5H17.7348C16.925 12.5 16.1284 12.7065 15.4204 13.0998L15.0685 13.2953C14.9183 13.3787 14.8432 13.4204 14.7715 13.4578C13.0346 14.3624 10.9654 14.3624 9.2285 13.4578C9.15681 13.4204 9.08164 13.3787 8.93132 13.2952L8.5794 13.0997C7.87149 12.7064 7.07503 12.5 6.26521 12.5H5.5C4.15443 12.5 2.96404 13.1644 2.23899 14.183C2.08252 13.4804 2 12.7498 2 12Z" fill="#020203"/>
</svg>
