<svg width="24" height="24" viewBox="0 0 24 24" fill="none" xmlns="http://www.w3.org/2000/svg">
<path opacity="0.4" d="M2.62961 15.5C2.22255 14.4107 2 13.2313 2 12C2 6.47715 6.47715 2 12 2C17.5228 2 22 6.47715 22 12C22 13.2313 21.7775 14.4107 21.3704 15.5" stroke="#020203" stroke-width="1.5" stroke-linecap="round"/>
<path d="M18 22H6C3.79086 22 2 20.2091 2 18C2 15.7909 3.79086 14 6 14H6.4982C7.29463 14 8.07678 14.2115 8.76471 14.6127L9.07151 14.7917C10.8811 15.8473 13.1187 15.8474 14.9283 14.7918L15.235 14.6129C15.923 14.2116 16.7054 14 17.5018 14H18C20.2091 14 22 15.7909 22 18C22 20.2091 20.2091 22 18 22Z" stroke="#020203" stroke-width="1.5" stroke-linecap="round"/>
</svg>
