<svg width="24" height="24" viewBox="0 0 24 24" fill="none" xmlns="http://www.w3.org/2000/svg">
<path d="M12.75 13.0869V8.31688L17.9928 3.07413C18.9326 3.70635 19.7671 4.48308 20.4644 5.37247L12.75 13.0869Z" fill="#020203"/>
<path d="M12.75 1.27587C14.1367 1.37144 15.451 1.72998 16.6436 2.302L12.75 6.19556V1.27587Z" fill="#020203"/>
<path d="M12.75 21.8508V22.7244C18.3372 22.3393 22.75 17.6851 22.75 12.0001C22.75 11.9506 22.7497 11.9012 22.749 11.8518L12.75 21.8508Z" fill="#020203"/>
<path d="M12.75 19.7295L22.5506 9.92886C22.321 8.75212 21.8993 7.64406 21.3196 6.63861L12.75 15.2082V19.7295Z" fill="#020203"/>
<path d="M11.25 1.27587C5.66285 1.66091 1.25 6.31518 1.25 12.0001C1.25 17.6851 5.66285 22.3393 11.25 22.7244L11.25 1.27587Z" fill="#020203"/>
</svg>
