<svg width="24" height="24" viewBox="0 0 24 24" fill="none" xmlns="http://www.w3.org/2000/svg">
<path opacity="0.4" d="M11.25 1.27587C5.66285 1.66091 1.25 6.31518 1.25 12.0001C1.25 17.6851 5.66285 22.3393 11.25 22.7244L11.25 1.27587Z" fill="#020203"/>
<path d="M12.75 13.0864V8.3164L17.9928 3.07365C18.9326 3.70587 19.7671 4.4826 20.4644 5.37199L12.75 13.0864Z" fill="#020203"/>
<path d="M12.75 1.27539C14.1367 1.37096 15.451 1.7295 16.6436 2.30152L12.75 6.19508V1.27539Z" fill="#020203"/>
<path d="M12.75 21.8503V22.7239C18.3372 22.3388 22.75 17.6846 22.75 11.9996C22.75 11.9501 22.7497 11.9007 22.749 11.8513L12.75 21.8503Z" fill="#020203"/>
<path d="M12.75 19.729L22.5506 9.92838C22.321 8.75164 21.8993 7.64358 21.3196 6.63812L12.75 15.2078V19.729Z" fill="#020203"/>
</svg>
