<svg width="24" height="24" viewBox="0 0 24 24" fill="none" xmlns="http://www.w3.org/2000/svg">
<path opacity="0.4" d="M5 15C5 18.866 8.13401 22 12 22C15.866 22 19 18.866 19 15C19 11.134 15.866 8 12 8C8.13401 8 5 11.134 5 15Z" fill="#020203"/>
<path fill-rule="evenodd" clip-rule="evenodd" d="M12.8943 12.362C13.1154 12.4987 13.25 12.7401 13.25 13V17C13.25 17.4142 12.9142 17.75 12.5 17.75C12.0858 17.75 11.75 17.4142 11.75 17V14.2135L10.8354 14.6708C10.4649 14.8561 10.0144 14.7059 9.82919 14.3354C9.64395 13.9649 9.79412 13.5144 10.1646 13.3292L12.1646 12.3292C12.3971 12.2129 12.6732 12.2254 12.8943 12.362Z" fill="#020203"/>
<path fill-rule="evenodd" clip-rule="evenodd" d="M4.2602 1.8767C4.3283 1.46812 4.71472 1.1921 5.12329 1.2602C8.34312 1.79684 11.6248 3.95669 12.7211 7.79395C12.8349 8.19223 12.6043 8.60734 12.206 8.72114C11.8078 8.83493 11.3926 8.60431 11.2789 8.20604C10.3752 5.0433 7.65687 3.20315 4.8767 2.73979C4.46812 2.67169 4.1921 2.28527 4.2602 1.8767Z" fill="#020203"/>
<path fill-rule="evenodd" clip-rule="evenodd" d="M1.26168 4.86816C1.3345 4.4604 1.72408 4.18887 2.13185 4.26168C3.92978 4.58274 5.50321 5.07608 6.79231 5.93932C8.09926 6.81451 9.06858 8.03933 9.70264 9.73769C9.84751 10.1257 9.65037 10.5578 9.26232 10.7026C8.87427 10.8475 8.44225 10.6504 8.29737 10.2623C7.76476 8.83568 6.98409 7.873 5.9577 7.18569C4.91347 6.48643 3.57023 6.04227 1.86816 5.73833C1.4604 5.66551 1.18887 5.27593 1.26168 4.86816Z" fill="#020203"/>
<path fill-rule="evenodd" clip-rule="evenodd" d="M22.7383 4.86816C22.6655 4.4604 22.2759 4.18887 21.8682 4.26168C20.0702 4.58274 18.4968 5.07608 17.2077 5.93932C15.9007 6.81451 14.9314 8.03933 14.2974 9.73769C14.1525 10.1257 14.3496 10.5578 14.7377 10.7026C15.1257 10.8475 15.5578 10.6504 15.7026 10.2623C16.2352 8.83568 17.0159 7.873 18.0423 7.18569C19.0865 6.48643 20.4298 6.04227 22.1318 5.73833C22.5396 5.66551 22.8111 5.27593 22.7383 4.86816Z" fill="#020203"/>
<path fill-rule="evenodd" clip-rule="evenodd" d="M19.7398 1.8767C19.8079 2.28527 19.5319 2.67169 19.1233 2.73979C16.3431 3.20315 13.6248 5.0433 12.7212 8.20604C12.6074 8.60431 12.1922 8.83493 11.794 8.72114C11.3957 8.60734 11.1651 8.19223 11.2789 7.79395C12.3752 3.95669 15.6569 1.79684 18.8767 1.2602C19.2853 1.1921 19.6717 1.46812 19.7398 1.8767Z" fill="#020203"/>
</svg>
