<svg width="24" height="24" viewBox="0 0 24 24" fill="none" xmlns="http://www.w3.org/2000/svg">
<path d="M5 15C5 18.866 8.13401 22 12 22C15.866 22 19 18.866 19 15C19 11.134 15.866 8 12 8C8.13401 8 5 11.134 5 15Z" stroke="#020203" stroke-width="1.5" stroke-linecap="round"/>
<path opacity="0.4" d="M10.5 14L12.5 13V17" stroke="#020203" stroke-width="1.5" stroke-linecap="round" stroke-linejoin="round"/>
<path d="M12 8C11 4.5 8 2.5 5 2" stroke="#020203" stroke-width="1.5" stroke-linecap="round"/>
<path d="M12 8C13 4.5 16 2.5 19 2" stroke="#020203" stroke-width="1.5" stroke-linecap="round"/>
<path opacity="0.4" d="M2 5C4.87587 5.51355 6.96406 6.44907 8.26457 8.5" stroke="#020203" stroke-width="1.5" stroke-linecap="round"/>
<path opacity="0.4" d="M22 5C19.1241 5.51355 17.0359 6.44907 15.7354 8.5" stroke="#020203" stroke-width="1.5" stroke-linecap="round"/>
</svg>
