<svg width="24" height="24" viewBox="0 0 24 24" fill="none" xmlns="http://www.w3.org/2000/svg">
<path d="M22 11C22 9.14006 22 8.21008 21.7956 7.44709C21.2408 5.37653 19.6235 3.75925 17.5529 3.20445C16.7899 3 15.8599 3 14 3H11C8.20435 3 6.80653 3 5.7039 3.45672C4.23373 4.06569 3.06569 5.23373 2.45672 6.7039C2 7.80653 2 9.20435 2 12V14C2 14.9288 2 15.3933 2.05133 15.7832C2.40579 18.4756 4.52444 20.5942 7.21684 20.9487C7.60674 21 8.07116 21 9 21" stroke="#020203" stroke-width="1.5" stroke-linecap="round"/>
<path d="M13 17.5C13 19.9853 15.0147 22 17.5 22C19.9853 22 22 19.9853 22 17.5C22 15.0147 19.9853 13 17.5 13C15.0147 13 13 15.0147 13 17.5Z" stroke="#020203" stroke-width="1.5" stroke-linecap="round"/>
<path d="M17.5 19L17.5 16" stroke="#020203" stroke-width="1.5" stroke-linecap="round" stroke-linejoin="round"/>
<path d="M16 17.5H19" stroke="#020203" stroke-width="1.5" stroke-linecap="round" stroke-linejoin="round"/>
<path d="M6 8C8.15542 9.59743 10 11 12 11C14 11 15.8446 9.59743 18 8" stroke="#020203" stroke-width="1.5" stroke-linecap="round" stroke-linejoin="round"/>
</svg>
