<svg width="24" height="24" viewBox="0 0 24 24" fill="none" xmlns="http://www.w3.org/2000/svg">
<path opacity="0.4" d="M22 10C22 8.14006 22 7.21008 21.7956 6.44709C21.2408 4.37653 19.6235 2.75925 17.5529 2.20445C16.7899 2 15.8599 2 14 2H11C8.20435 2 6.80653 2 5.7039 2.45672C4.23373 3.06569 3.06569 4.23373 2.45672 5.7039C2 6.80653 2 8.20435 2 11V13C2 13.9288 2 14.3933 2.05133 14.7832C2.40579 17.4756 4.52444 19.5942 7.21684 19.9487C7.60674 20 8.07116 20 9 20" stroke="#020203" stroke-width="1.5" stroke-linecap="round"/>
<path d="M13 17.5C13 19.9853 15.0147 22 17.5 22C19.9853 22 22 19.9853 22 17.5C22 15.0147 19.9853 13 17.5 13C15.0147 13 13 15.0147 13 17.5Z" stroke="#020203" stroke-width="1.5" stroke-linecap="round"/>
<path d="M15.75 17.2598L16.3661 17.8759C16.8543 18.364 17.6457 18.364 18.1339 17.8759L19.25 16.7598" stroke="#020203" stroke-width="1.5" stroke-linecap="round"/>
<path d="M6 7C8.15542 8.59743 10 10 12 10C14 10 15.8446 8.59743 18 7" stroke="#020203" stroke-width="1.5" stroke-linecap="round" stroke-linejoin="round"/>
</svg>
