<svg width="24" height="24" viewBox="0 0 24 24" fill="none" xmlns="http://www.w3.org/2000/svg">
<path opacity="0.4" d="M1.25 12C1.25 9.20653 1.25 7.80979 1.65707 6.69136C2.33949 4.81644 3.81644 3.33949 5.69136 2.65707C6.80979 2.25 8.20653 2.25 11 2.25H13C15.7935 2.25 17.1902 2.25 18.3086 2.65707C20.1836 3.33949 21.6605 4.81644 22.3429 6.69136C22.75 7.80979 22.75 9.20653 22.75 12C22.75 14.7935 22.75 16.1902 22.3429 17.3086C21.6605 19.1836 20.1836 20.6605 18.3086 21.3429C17.1902 21.75 15.7935 21.75 13 21.75H11C8.20653 21.75 6.80979 21.75 5.69136 21.3429C3.81644 20.6605 2.33949 19.1836 1.65707 17.3086C1.25 16.1902 1.25 14.7935 1.25 12Z" fill="#020203"/>
<path fill-rule="evenodd" clip-rule="evenodd" d="M5.39743 7.55343C5.64406 7.22065 6.11377 7.15081 6.44656 7.39744C6.49012 7.42973 6.53347 7.46187 6.57661 7.49385C7.61436 8.26323 8.53248 8.94391 9.42533 9.445C10.3481 9.9629 11.1791 10.25 12 10.25C12.8209 10.25 13.6518 9.9629 14.5746 9.445C15.4675 8.94391 16.3856 8.26323 17.4234 7.49386C17.4665 7.46187 17.5099 7.42973 17.5534 7.39744C17.8862 7.15081 18.3559 7.22065 18.6025 7.55343C18.8492 7.88622 18.7793 8.35593 18.4466 8.60256C18.3922 8.64282 18.338 8.68307 18.2837 8.72328C17.2761 9.47056 16.2873 10.2039 15.3088 10.7531C14.2704 11.3358 13.1791 11.75 12 11.75C10.8209 11.75 9.72954 11.3358 8.69121 10.7531C7.71268 10.2039 6.72386 9.47056 5.71623 8.72328C5.66201 8.68307 5.60774 8.64282 5.55342 8.60256C5.22063 8.35593 5.1508 7.88622 5.39743 7.55343Z" fill="#020203"/>
</svg>
