<svg width="24" height="24" viewBox="0 0 24 24" fill="none" xmlns="http://www.w3.org/2000/svg">
<path fill-rule="evenodd" clip-rule="evenodd" d="M1.25 12C1.25 9.20653 1.25 7.80979 1.65707 6.69136C2.33949 4.81644 3.81644 3.33949 5.69136 2.65707C6.80979 2.25 8.20653 2.25 11 2.25H13C15.7935 2.25 17.1902 2.25 18.3086 2.65707C20.1836 3.33949 21.6605 4.81644 22.3429 6.69136C22.75 7.80979 22.75 9.20653 22.75 12C22.75 13.5263 22.75 14.6356 22.6836 15.5104C21.9144 13.3203 19.8281 11.75 17.375 11.75C14.2684 11.75 11.75 14.2684 11.75 17.375C11.75 19.1418 12.5645 20.7183 13.8386 21.7495C13.5737 21.75 13.2946 21.75 13 21.75H11C8.20653 21.75 6.80979 21.75 5.69136 21.3429C3.81644 20.6605 2.33949 19.1836 1.65707 17.3086C1.25 16.1902 1.25 14.7935 1.25 12ZM5.39744 7.55343C5.64407 7.22065 6.11379 7.15081 6.44657 7.39744L6.57662 7.49385C7.61437 8.26322 8.5325 8.94391 9.42535 9.445C10.3482 9.9629 11.1791 10.25 12 10.25C12.8209 10.25 13.6518 9.9629 14.5747 9.445C15.4675 8.94391 16.3856 8.26323 17.4234 7.49386L17.5534 7.39744C17.8862 7.15081 18.3559 7.22065 18.6026 7.55343C18.8492 7.88621 18.7794 8.35593 18.4466 8.60256L18.2838 8.72328C17.2761 9.47056 16.2873 10.2039 15.3088 10.7531C14.2704 11.3358 13.1791 11.75 12 11.75C10.8209 11.75 9.72955 11.3358 8.69122 10.7531C7.7127 10.2039 6.72387 9.47056 5.71624 8.72328L5.55343 8.60256C5.22065 8.35593 5.15081 7.88621 5.39744 7.55343Z" fill="#020203"/>
<path fill-rule="evenodd" clip-rule="evenodd" d="M17.5 22C15.0147 22 13 19.9853 13 17.5C13 15.0147 15.0147 13 17.5 13C19.9853 13 22 15.0147 22 17.5C22 19.9853 19.9853 22 17.5 22ZM16 18.25C15.5858 18.25 15.25 17.9142 15.25 17.5C15.25 17.0858 15.5858 16.75 16 16.75H19C19.4142 16.75 19.75 17.0858 19.75 17.5C19.75 17.9142 19.4142 18.25 19 18.25H16Z" fill="#020203"/>
</svg>
