<svg width="24" height="24" viewBox="0 0 24 24" fill="none" xmlns="http://www.w3.org/2000/svg">
<path opacity="0.4" d="M1.65707 6.69136C1.25 7.80979 1.25 9.20653 1.25 12C1.25 14.7935 1.25 16.1902 1.65707 17.3086C2.33949 19.1836 3.81644 20.6605 5.69136 21.3429C6.80979 21.75 8.20653 21.75 11 21.75H13C13.2946 21.75 13.5737 21.75 13.8386 21.7495C12.5645 20.7183 11.75 19.1418 11.75 17.375C11.75 14.2684 14.2684 11.75 17.375 11.75C19.8281 11.75 21.9144 13.3203 22.6836 15.5104C22.75 14.6356 22.75 13.5263 22.75 12C22.75 9.20653 22.75 7.80979 22.3429 6.69136C21.6605 4.81644 20.1836 3.33949 18.3086 2.65707C17.1902 2.25 15.7935 2.25 13 2.25H11C8.20653 2.25 6.80979 2.25 5.69136 2.65707C3.81644 3.33949 2.33949 4.81644 1.65707 6.69136Z" fill="#020203"/>
<path fill-rule="evenodd" clip-rule="evenodd" d="M5.39744 7.55343C5.64408 7.22065 6.11379 7.15081 6.44657 7.39744C6.49013 7.42973 6.53348 7.46187 6.57662 7.49385C7.61437 8.26323 8.5325 8.94391 9.42535 9.445C10.3482 9.9629 11.1791 10.25 12 10.25C12.8209 10.25 13.6518 9.9629 14.5747 9.445C15.4675 8.94391 16.3856 8.26323 17.4234 7.49386C17.4665 7.46187 17.5099 7.42973 17.5534 7.39744C17.8862 7.15081 18.3559 7.22065 18.6026 7.55343C18.8492 7.88622 18.7794 8.35593 18.4466 8.60256C18.3922 8.64282 18.338 8.68307 18.2838 8.72328C17.2761 9.47056 16.2873 10.2039 15.3088 10.7531C14.2704 11.3358 13.1791 11.75 12 11.75C10.8209 11.75 9.72956 11.3358 8.69122 10.7531C7.7127 10.2039 6.72387 9.47056 5.71625 8.72328C5.66203 8.68307 5.60776 8.64282 5.55343 8.60256C5.22065 8.35593 5.15081 7.88622 5.39744 7.55343Z" fill="#020203"/>
<path fill-rule="evenodd" clip-rule="evenodd" d="M17.5 22C15.0147 22 13 19.9853 13 17.5C13 15.0147 15.0147 13 17.5 13C19.9853 13 22 15.0147 22 17.5C22 19.9853 19.9853 22 17.5 22ZM19.7803 17.2803C20.0732 16.9874 20.0732 16.5126 19.7803 16.2197C19.4874 15.9268 19.0126 15.9268 18.7197 16.2197L17.6036 17.3358C17.4083 17.531 17.0917 17.531 16.8964 17.3358L16.2803 16.7197C15.9874 16.4268 15.5126 16.4268 15.2197 16.7197C14.9268 17.0126 14.9268 17.4874 15.2197 17.7803L15.8358 18.3964C16.6168 19.1775 17.8832 19.1775 18.6642 18.3964L19.7803 17.2803Z" fill="#020203"/>
</svg>
