<svg width="24" height="24" viewBox="0 0 24 24" fill="none" xmlns="http://www.w3.org/2000/svg">
<path d="M9 21H8C4.68629 21 2 18.3137 2 15V9C2 5.68629 4.68629 3 8 3H16C19.3137 3 22 5.68629 22 9V11" stroke="#020203" stroke-width="1.5" stroke-linecap="round"/>
<path d="M13 17.5C13 19.9853 15.0147 22 17.5 22C19.9853 22 22 19.9853 22 17.5C22 15.0147 19.9853 13 17.5 13C15.0147 13 13 15.0147 13 17.5Z" stroke="#020203" stroke-width="1.5" stroke-linecap="round"/>
<path d="M19 16L16 19" stroke="#020203" stroke-width="1.5" stroke-linecap="round" stroke-linejoin="round"/>
<path d="M16 16L19 19" stroke="#020203" stroke-width="1.5" stroke-linecap="round" stroke-linejoin="round"/>
<path d="M6 8C8.15542 9.59743 10 11 12 11C14 11 15.8446 9.59743 18 8" stroke="#020203" stroke-width="1.5" stroke-linecap="round" stroke-linejoin="round"/>
</svg>
