<svg width="24" height="24" viewBox="0 0 24 24" fill="none" xmlns="http://www.w3.org/2000/svg">
<path fill-rule="evenodd" clip-rule="evenodd" d="M1.65707 6.69136C1.25 7.80979 1.25 9.20653 1.25 12C1.25 14.7935 1.25 16.1902 1.65707 17.3086C2.33949 19.1836 3.81644 20.6605 5.69136 21.3429C6.80979 21.75 8.20653 21.75 11 21.75H13C15.7935 21.75 17.1902 21.75 18.3086 21.3429C20.1836 20.6605 21.6605 19.1836 22.3429 17.3086C22.75 16.1902 22.75 14.7935 22.75 12C22.75 9.20653 22.75 7.80979 22.3429 6.69136C21.6605 4.81644 20.1836 3.33949 18.3086 2.65707C17.1902 2.25 15.7935 2.25 13 2.25H11C8.20653 2.25 6.80979 2.25 5.69136 2.65707C3.81644 3.33949 2.33949 4.81644 1.65707 6.69136ZM6.44657 7.39744C6.11379 7.15081 5.64407 7.22065 5.39744 7.55343C5.15081 7.88621 5.22065 8.35593 5.55343 8.60256L5.71624 8.72328C6.72387 9.47056 7.7127 10.2039 8.69122 10.7531C9.72955 11.3358 10.8209 11.75 12 11.75C13.1791 11.75 14.2704 11.3358 15.3088 10.7531C16.2873 10.2039 17.2761 9.47057 18.2837 8.72328L18.4466 8.60256C18.7794 8.35593 18.8492 7.88621 18.6026 7.55343C18.3559 7.22065 17.8862 7.15081 17.5534 7.39744L17.4234 7.49386C16.3856 8.26323 15.4675 8.94391 14.5747 9.445C13.6518 9.9629 12.8209 10.25 12 10.25C11.1791 10.25 10.3482 9.9629 9.42535 9.445C8.5325 8.94391 7.61437 8.26322 6.57662 7.49385L6.44657 7.39744Z" fill="#020203"/>
</svg>
