<svg width="24" height="24" viewBox="0 0 24 24" fill="none" xmlns="http://www.w3.org/2000/svg">
<path opacity="0.4" d="M7 7C7 4.23858 9.23858 2 12 2C14.7614 2 17 4.23858 17 7V12C17 14.7614 14.7614 17 12 17C9.23858 17 7 14.7614 7 12V7Z" stroke="#020203" stroke-width="1.5"/>
<path d="M15 6.5H16.5" stroke="#020203" stroke-width="1.5" stroke-linecap="round"/>
<path d="M7.5 6.5H9" stroke="#020203" stroke-width="1.5" stroke-linecap="round"/>
<path d="M15 9.5H16.5" stroke="#020203" stroke-width="1.5" stroke-linecap="round"/>
<path d="M7.5 9.5H9" stroke="#020203" stroke-width="1.5" stroke-linecap="round"/>
<path d="M15 12.5H16.5" stroke="#020203" stroke-width="1.5" stroke-linecap="round"/>
<path d="M7.5 12.5H9" stroke="#020203" stroke-width="1.5" stroke-linecap="round"/>
<path opacity="0.4" d="M12 22L12 20" stroke="#020203" stroke-width="1.5" stroke-linecap="round" stroke-linejoin="round"/>
<path d="M20 13C19.7183 16.9441 16.4364 20 12.4822 20H11.5178C7.56364 20 4.28172 16.9441 4 13" stroke="#020203" stroke-width="1.5" stroke-linecap="round"/>
</svg>
