<svg width="24" height="24" viewBox="0 0 24 24" fill="none" xmlns="http://www.w3.org/2000/svg">
<path d="M12 1.25C9.25364 1.25 6.95699 3.17541 6.38625 5.75H9C9.41421 5.75 9.75 6.08579 9.75 6.5C9.75 6.91421 9.41421 7.25 9 7.25H6.25V8.75H9C9.41421 8.75 9.75 9.08579 9.75 9.5C9.75 9.91421 9.41421 10.25 9 10.25H6.25V11.75H9C9.41421 11.75 9.75 12.0858 9.75 12.5C9.75 12.9142 9.41421 13.25 9 13.25H6.38625C6.95699 15.8246 9.25364 17.75 12 17.75C14.7464 17.75 17.043 15.8246 17.6137 13.25H15C14.5858 13.25 14.25 12.9142 14.25 12.5C14.25 12.0858 14.5858 11.75 15 11.75H17.75V10.25H15C14.5858 10.25 14.25 9.91421 14.25 9.5C14.25 9.08579 14.5858 8.75 15 8.75H17.75V7.25H15C14.5858 7.25 14.25 6.91421 14.25 6.5C14.25 6.08579 14.5858 5.75 15 5.75H17.6137C17.043 3.17541 14.7464 1.25 12 1.25Z" fill="#020203"/>
<path fill-rule="evenodd" clip-rule="evenodd" d="M12 19.25C12.4142 19.25 12.75 19.5858 12.75 20L12.75 22C12.75 22.4142 12.4142 22.75 12 22.75C11.5858 22.75 11.25 22.4142 11.25 22L11.25 20C11.25 19.5858 11.5858 19.25 12 19.25Z" fill="#020203"/>
<path fill-rule="evenodd" clip-rule="evenodd" d="M3.94654 12.2519C4.3597 12.2224 4.71855 12.5334 4.74807 12.9466C5.00176 16.4982 7.95709 19.25 11.5178 19.25H12.4821C16.0429 19.25 18.9982 16.4982 19.2519 12.9466C19.2814 12.5334 19.6402 12.2224 20.0534 12.2519C20.4666 12.2814 20.7776 12.6403 20.7481 13.0534C20.4383 17.3901 16.8298 20.75 12.4821 20.75H11.5178C7.17013 20.75 3.56164 17.3901 3.25188 13.0534C3.22237 12.6403 3.53337 12.2814 3.94654 12.2519Z" fill="#020203"/>
</svg>
