<svg width="24" height="24" viewBox="0 0 24 24" fill="none" xmlns="http://www.w3.org/2000/svg">
<path fill-rule="evenodd" clip-rule="evenodd" d="M18 18.25C18.4142 18.25 18.75 18.5858 18.75 19L18.75 21C18.75 21.4142 18.4142 21.75 18 21.75C17.5858 21.75 17.25 21.4142 17.25 21L17.25 19C17.25 18.5858 17.5858 18.25 18 18.25Z" fill="#020203"/>
<path fill-rule="evenodd" clip-rule="evenodd" d="M6 17.75C6.41421 17.75 6.75 18.0858 6.75 18.5L6.75 21C6.75 21.4142 6.41421 21.75 6 21.75C5.58579 21.75 5.25 21.4142 5.25 21L5.25 18.5C5.25 18.0858 5.58579 17.75 6 17.75Z" fill="#020203"/>
<path opacity="0.4" d="M1.25 11.5C1.25 9.17418 1.25 8.01127 1.53357 7.06408C2.18512 4.88774 3.88774 3.18512 6.06408 2.53357C7.01127 2.25 8.17418 2.25 10.5 2.25H13.5C15.8258 2.25 16.9887 2.25 17.9359 2.53357C20.1123 3.18512 21.8149 4.88774 22.4664 7.06408C22.75 8.01127 22.75 9.17418 22.75 11.5C22.75 13.8258 22.75 14.9887 22.4664 15.9359C21.8149 18.1123 20.1123 19.8149 17.9359 20.4664C16.9887 20.75 15.8258 20.75 13.5 20.75H10.5C8.17418 20.75 7.01127 20.75 6.06408 20.4664C3.88774 19.8149 2.18512 18.1123 1.53357 15.9359C1.25 14.9887 1.25 13.8258 1.25 11.5Z" fill="#020203"/>
<path d="M5 11.5C5 10.1022 5 9.40326 5.22836 8.85195C5.53284 8.11687 6.11687 7.53284 6.85195 7.22836C7.40326 7 8.10218 7 9.5 7H10.5C11.8978 7 12.5967 7 13.1481 7.22836C13.8831 7.53284 14.4672 8.11687 14.7716 8.85195C15 9.40326 15 10.1022 15 11.5C15 12.8978 15 13.5967 14.7716 14.1481C14.4672 14.8831 13.8831 15.4672 13.1481 15.7716C12.5967 16 11.8978 16 10.5 16H9.5C8.10218 16 7.40326 16 6.85195 15.7716C6.11687 15.4672 5.53284 14.8831 5.22836 14.1481C5 13.5967 5 12.8978 5 11.5Z" fill="#020203"/>
<path fill-rule="evenodd" clip-rule="evenodd" d="M17.4945 13.5C17.4945 12.9477 17.9422 12.5 18.4945 12.5H18.5035C19.0558 12.5 19.5035 12.9477 19.5035 13.5C19.5035 14.0523 19.0558 14.5 18.5035 14.5H18.4945C17.9422 14.5 17.4945 14.0523 17.4945 13.5Z" fill="#020203"/>
<path fill-rule="evenodd" clip-rule="evenodd" d="M17.4945 9.5C17.4945 8.94772 17.9422 8.5 18.4945 8.5H18.5035C19.0558 8.5 19.5035 8.94772 19.5035 9.5C19.5035 10.0523 19.0558 10.5 18.5035 10.5H18.4945C17.9422 10.5 17.4945 10.0523 17.4945 9.5Z" fill="#020203"/>
</svg>
