<svg width="24" height="24" viewBox="0 0 24 24" fill="none" xmlns="http://www.w3.org/2000/svg">
<path opacity="0.4" d="M2 11.5C2 9.17293 2 8.0094 2.31842 7.07136C2.91801 5.30502 4.30502 3.91801 6.07136 3.31842C7.0094 3 8.17293 3 10.5 3H13.5C15.8271 3 16.9906 3 17.9286 3.31842C19.695 3.91801 21.082 5.30502 21.6816 7.07136C22 8.0094 22 9.17293 22 11.5C22 13.8271 22 14.9906 21.6816 15.9286C21.082 17.695 19.695 19.082 17.9286 19.6816C16.9906 20 15.8271 20 13.5 20H10.5C8.17293 20 7.0094 20 6.07136 19.6816C4.30502 19.082 2.91801 17.695 2.31842 15.9286C2 14.9906 2 13.8271 2 11.5Z" stroke="#020203" stroke-width="1.5"/>
<path d="M5 11.5C5 10.1022 5 9.40326 5.22836 8.85195C5.53284 8.11687 6.11687 7.53284 6.85195 7.22836C7.40326 7 8.10218 7 9.5 7H10.5C11.8978 7 12.5967 7 13.1481 7.22836C13.8831 7.53284 14.4672 8.11687 14.7716 8.85195C15 9.40326 15 10.1022 15 11.5C15 12.8978 15 13.5967 14.7716 14.1481C14.4672 14.8831 13.8831 15.4672 13.1481 15.7716C12.5967 16 11.8978 16 10.5 16H9.5C8.10218 16 7.40326 16 6.85195 15.7716C6.11687 15.4672 5.53284 14.8831 5.22836 14.1481C5 13.5967 5 12.8978 5 11.5Z" stroke="#020203" stroke-width="1.5"/>
<path d="M18.4945 13.5H18.5035" stroke="#020203" stroke-width="2" stroke-linecap="round" stroke-linejoin="round"/>
<path d="M18.4945 9.5H18.5035" stroke="#020203" stroke-width="2" stroke-linecap="round" stroke-linejoin="round"/>
<path d="M18 20L18 21" stroke="#020203" stroke-width="1.5" stroke-linecap="round"/>
<path d="M6 20L6 21" stroke="#020203" stroke-width="1.5" stroke-linecap="round"/>
</svg>
