<svg width="24" height="24" viewBox="0 0 24 24" fill="none" xmlns="http://www.w3.org/2000/svg">
<path fill-rule="evenodd" clip-rule="evenodd" d="M18 18.25C18.4142 18.25 18.75 18.5858 18.75 19L18.75 21C18.75 21.4142 18.4142 21.75 18 21.75C17.5858 21.75 17.25 21.4142 17.25 21L17.25 19C17.25 18.5858 17.5858 18.25 18 18.25Z" fill="#020203"/>
<path fill-rule="evenodd" clip-rule="evenodd" d="M6 17.75C6.41421 17.75 6.75 18.0858 6.75 18.5L6.75 21C6.75 21.4142 6.41421 21.75 6 21.75C5.58579 21.75 5.25 21.4142 5.25 21L5.25 18.5C5.25 18.0858 5.58579 17.75 6 17.75Z" fill="#020203"/>
<path d="M7.13896 7.92127C7.308 7.85125 7.5294 7.80275 7.90959 7.77681C8.29651 7.75041 8.79083 7.75 9.5 7.75H10.5C11.2092 7.75 11.7035 7.75041 12.0904 7.77681C12.4706 7.80275 12.692 7.85125 12.861 7.92127C13.4124 8.14963 13.8504 8.58765 14.0787 9.13896C14.1487 9.308 14.1973 9.5294 14.2232 9.90959C14.2496 10.2965 14.25 10.7908 14.25 11.5C14.25 12.2092 14.2496 12.7035 14.2232 13.0904C14.1973 13.4706 14.1487 13.692 14.0787 13.861C13.8504 14.4124 13.4124 14.8504 12.861 15.0787C12.692 15.1487 12.4706 15.1973 12.0904 15.2232C11.7035 15.2496 11.2092 15.25 10.5 15.25H9.5C8.79083 15.25 8.29651 15.2496 7.90959 15.2232C7.5294 15.1973 7.308 15.1487 7.13896 15.0787C6.58765 14.8504 6.14963 14.4124 5.92127 13.861C5.85125 13.692 5.80275 13.4706 5.77681 13.0904C5.75041 12.7035 5.75 12.2092 5.75 11.5C5.75 10.7908 5.75041 10.2965 5.77681 9.90959C5.80275 9.5294 5.85125 9.308 5.92127 9.13896C6.14963 8.58765 6.58765 8.14963 7.13896 7.92127Z" fill="#020203"/>
<path fill-rule="evenodd" clip-rule="evenodd" d="M1.53357 7.06408C1.25 8.01127 1.25 9.17418 1.25 11.5C1.25 13.8258 1.25 14.9887 1.53357 15.9359C2.18512 18.1123 3.88774 19.8149 6.06408 20.4664C7.01127 20.75 8.17418 20.75 10.5 20.75H13.5C15.8258 20.75 16.9887 20.75 17.9359 20.4664C20.1123 19.8149 21.8149 18.1123 22.4664 15.9359C22.75 14.9887 22.75 13.8258 22.75 11.5C22.75 9.17418 22.75 8.01127 22.4664 7.06408C21.8149 4.88774 20.1123 3.18512 17.9359 2.53357C16.9887 2.25 15.8258 2.25 13.5 2.25H10.5C8.17418 2.25 7.01127 2.25 6.06408 2.53357C3.88774 3.18512 2.18512 4.88774 1.53357 7.06408ZM9.47337 6.25C8.79704 6.24999 8.25149 6.24999 7.80748 6.28028C7.35092 6.31144 6.94721 6.37711 6.56494 6.53545C5.64608 6.91605 4.91605 7.64608 4.53545 8.56494C4.37711 8.94721 4.31144 9.35092 4.28028 9.80748C4.24999 10.2515 4.24999 10.797 4.25 11.4734V11.5266C4.24999 12.203 4.24999 12.7485 4.28028 13.1925C4.31144 13.6491 4.37711 14.0528 4.53545 14.4351C4.91605 15.3539 5.64608 16.0839 6.56494 16.4645C6.94721 16.6229 7.35092 16.6886 7.80748 16.7197C8.25148 16.75 8.79704 16.75 9.47336 16.75H10.5266C11.203 16.75 11.7485 16.75 12.1925 16.7197C12.6491 16.6886 13.0528 16.6229 13.4351 16.4645C14.3539 16.0839 15.0839 15.3539 15.4645 14.4351C15.6229 14.0528 15.6886 13.6491 15.7197 13.1925C15.75 12.7485 15.75 12.203 15.75 11.5266V11.4734C15.75 10.797 15.75 10.2515 15.7197 9.80748C15.6886 9.35092 15.6229 8.94721 15.4645 8.56494C15.0839 7.64608 14.3539 6.91605 13.4351 6.53545C13.0528 6.37711 12.6491 6.31144 12.1925 6.28028C11.7485 6.24999 11.203 6.24999 10.5266 6.25H9.47337ZM17.4945 13.5C17.4945 12.9477 17.9422 12.5 18.4945 12.5H18.5035C19.0558 12.5 19.5035 12.9477 19.5035 13.5C19.5035 14.0523 19.0558 14.5 18.5035 14.5H18.4945C17.9422 14.5 17.4945 14.0523 17.4945 13.5ZM18.4945 8.5C17.9422 8.5 17.4945 8.94772 17.4945 9.5C17.4945 10.0523 17.9422 10.5 18.4945 10.5H18.5035C19.0558 10.5 19.5035 10.0523 19.5035 9.5C19.5035 8.94772 19.0558 8.5 18.5035 8.5H18.4945Z" fill="#020203"/>
</svg>
