<svg width="24" height="24" viewBox="0 0 24 24" fill="none" xmlns="http://www.w3.org/2000/svg">
<path d="M5.24997 13.5181V16.0004C5.24997 17.8621 5.24997 18.793 5.50734 19.5427C5.9831 20.9285 7.07181 22.0173 8.45765 22.493C9.20733 22.7504 10.1382 22.7504 12 22.7504C13.8617 22.7504 14.7926 22.7504 15.5423 22.493C16.9281 22.0173 18.0168 20.9285 18.4926 19.5427C18.75 18.793 18.75 17.8621 18.75 16.0004V13.5181L17.6988 13.8441L17.6713 13.8504C13.8918 14.7171 10.108 14.7171 6.32858 13.8504L6.30103 13.844L5.24997 13.5181Z" fill="#020203"/>
<path opacity="0.4" d="M6.115 10.771C7.00326 9.70109 7.63815 8.45236 7.98153 7.11816C8.48385 7.66078 9.20226 8.00046 10 8.00046H14C14.7978 8.00046 15.5162 7.66078 16.0185 7.11816C16.3619 8.45236 16.9968 9.70109 17.885 10.771C18.19 11.1384 18.4197 11.5576 18.5654 12.0049L17.3087 12.3947C13.7681 13.2025 10.2318 13.2024 6.69125 12.3947L5.4346 12.0049C5.58036 11.5576 5.81002 11.1384 6.115 10.771Z" fill="#020203"/>
<path d="M7.25 4C7.25 2.48122 8.48122 1.25 10 1.25H14C15.5188 1.25 16.75 2.48122 16.75 4C16.75 5.51878 15.5188 6.75 14 6.75H10C8.48122 6.75 7.25 5.51878 7.25 4Z" fill="#020203"/>
</svg>
