<svg width="24" height="24" viewBox="0 0 24 24" fill="none" xmlns="http://www.w3.org/2000/svg">
<path d="M6.11496 10.771C7.00322 9.70101 7.63811 8.45227 7.98149 7.11808C8.48381 7.6607 9.20222 8.00038 9.99997 8.00038H14C14.7977 8.00038 15.5161 7.6607 16.0185 7.11808C16.3618 8.45227 16.9967 9.70101 17.885 10.771C18.19 11.1383 18.4196 11.5576 18.5654 12.0048L17.3087 12.3946C13.7681 13.2024 10.2318 13.2024 6.69121 12.3946L5.43456 12.0048C5.58032 11.5575 5.80998 11.1383 6.11496 10.771Z" fill="#020203"/>
<path d="M5.24997 13.5181V16.0004C5.24997 17.8621 5.24997 18.793 5.50734 19.5427C5.9831 20.9285 7.07181 22.0173 8.45765 22.493C9.20733 22.7504 10.1382 22.7504 12 22.7504C13.8617 22.7504 14.7926 22.7504 15.5423 22.493C16.9281 22.0173 18.0168 20.9285 18.4926 19.5427C18.75 18.793 18.75 17.8621 18.75 16.0004V13.5181L17.6988 13.8441L17.6713 13.8504C13.8918 14.7171 10.108 14.7171 6.32858 13.8504L6.30103 13.844L5.24997 13.5181Z" fill="#020203"/>
<path d="M7.25 4C7.25 2.48122 8.48122 1.25 10 1.25H14C15.5188 1.25 16.75 2.48122 16.75 4C16.75 5.51878 15.5188 6.75 14 6.75H10C8.48122 6.75 7.25 5.51878 7.25 4Z" fill="#020203"/>
</svg>
