<svg width="24" height="24" viewBox="0 0 24 24" fill="none" xmlns="http://www.w3.org/2000/svg">
<path d="M8 4C8 2.89543 8.89543 2 10 2H14C15.1046 2 16 2.89543 16 4C16 5.10457 15.1046 6 14 6H10C8.89543 6 8 5.10457 8 4Z" stroke="#020203" stroke-width="1.5"/>
<path d="M9 6V6.17157C9 7.98258 8.28058 9.71942 7 11C6.35971 11.6403 6 12.5087 6 13.4142V16C6 17.8638 6 18.7956 6.30448 19.5307C6.71046 20.5108 7.48915 21.2895 8.46927 21.6955C9.20435 22 10.1362 22 12 22C13.8638 22 14.7956 22 15.5307 21.6955C16.5108 21.2895 17.2895 20.5108 17.6955 19.5307C18 18.7956 18 17.8638 18 16V13.4142C18 12.5087 17.6403 11.6403 17 11C15.7194 9.71942 15 7.98258 15 6.17157V6" stroke="#020203" stroke-width="1.5" stroke-linecap="round"/>
<path d="M17.5036 13.119C13.8345 13.9604 10.1654 13.9603 6.49622 13.1189" stroke="#020203" stroke-width="1.5" stroke-linecap="round"/>
</svg>
