<svg width="24" height="24" viewBox="0 0 24 24" fill="none" xmlns="http://www.w3.org/2000/svg">
<path fill-rule="evenodd" clip-rule="evenodd" d="M12 20.75C10.972 20.75 8.28506 20.7756 6.53033 22.5303C6.23744 22.8232 5.76256 22.8232 5.46967 22.5303C5.17678 22.2374 5.17678 21.7626 5.46967 21.4697C7.69054 19.2488 10.9561 19.2497 11.9675 19.25C11.9786 19.25 11.9894 19.25 12 19.25C12.0106 19.25 12.0214 19.25 12.0325 19.25C13.0439 19.2497 16.3095 19.2488 18.5303 21.4697C18.8232 21.7626 18.8232 22.2374 18.5303 22.5303C18.2374 22.8232 17.7626 22.8232 17.4697 22.5303C15.7149 20.7756 13.028 20.75 12 20.75Z" fill="#020203"/>
<path fill-rule="evenodd" clip-rule="evenodd" d="M2.25 11C2.25 16.3848 6.61522 20.75 12 20.75C17.3848 20.75 21.75 16.3848 21.75 11C21.75 5.61522 17.3848 1.25 12 1.25C6.61522 1.25 2.25 5.61522 2.25 11ZM13.5303 6.96967C13.8232 7.26256 13.8232 7.73744 13.5303 8.03033L10.5303 11.0303C10.2374 11.3232 9.76256 11.3232 9.46967 11.0303C9.17678 10.7374 9.17678 10.2626 9.46967 9.96967L12.4697 6.96967C12.7626 6.67678 13.2374 6.67678 13.5303 6.96967ZM14.5303 12.0303C14.8232 11.7374 14.8232 11.2626 14.5303 10.9697C14.2374 10.6768 13.7626 10.6768 13.4697 10.9697L10.4697 13.9697C10.1768 14.2626 10.1768 14.7374 10.4697 15.0303C10.7626 15.3232 11.2374 15.3232 11.5303 15.0303L14.5303 12.0303Z" fill="#020203"/>
</svg>
