<svg width="24" height="24" viewBox="0 0 24 24" fill="none" xmlns="http://www.w3.org/2000/svg">
<path d="M2 10C2 7.67179 2 6.50769 2.34678 5.57795C2.90427 4.08326 4.08326 2.90427 5.57795 2.34678C6.50769 2 7.67179 2 10 2H14C16.3282 2 17.4923 2 18.4221 2.34678C19.9167 2.90427 21.0957 4.08326 21.6532 5.57795C22 6.50769 22 7.67179 22 10C22 12.3282 22 13.4923 21.6532 14.4221C21.0957 15.9167 19.9167 17.0957 18.4221 17.6532C17.4923 18 16.3282 18 14 18H10C7.67179 18 6.50769 18 5.57795 17.6532C4.08326 17.0957 2.90427 15.9167 2.34678 14.4221C2 13.4923 2 12.3282 2 10Z" stroke="#020203" stroke-width="1.5"/>
<path opacity="0.4" d="M12 18V22M8 22H16" stroke="#020203" stroke-width="1.5" stroke-linecap="round"/>
</svg>
