<svg width="24" height="24" viewBox="0 0 24 24" fill="none" xmlns="http://www.w3.org/2000/svg">
<path opacity="0.4" d="M1.25 10C1.25 7.6734 1.25 6.5101 1.5559 5.56864C2.17413 3.66591 3.66591 2.17413 5.56864 1.5559C6.5101 1.25 7.6734 1.25 10 1.25H14C16.3266 1.25 17.4899 1.25 18.4314 1.5559C20.3341 2.17413 21.8259 3.66591 22.4441 5.56864C22.75 6.5101 22.75 7.6734 22.75 10C22.75 12.3266 22.75 13.4899 22.4441 14.4314C21.8259 16.3341 20.3341 17.8259 18.4314 18.4441C17.4899 18.75 16.3266 18.75 14 18.75H10C7.6734 18.75 6.5101 18.75 5.56864 18.4441C3.66591 17.8259 2.17413 16.3341 1.5559 14.4314C1.25 13.4899 1.25 12.3266 1.25 10Z" fill="#020203"/>
<path fill-rule="evenodd" clip-rule="evenodd" d="M12 17.25C12.4142 17.25 12.75 17.5858 12.75 18V21.25H16C16.4142 21.25 16.75 21.5858 16.75 22C16.75 22.4142 16.4142 22.75 16 22.75H8C7.58579 22.75 7.25 22.4142 7.25 22C7.25 21.5858 7.58579 21.25 8 21.25H11.25V18C11.25 17.5858 11.5858 17.25 12 17.25Z" fill="#020203"/>
</svg>
