<svg width="24" height="24" viewBox="0 0 24 24" fill="none" xmlns="http://www.w3.org/2000/svg">
<path d="M11.25 1.25C7.3217 1.62786 4.25 4.94314 4.25 8.97705V13.2322L19.75 13.2341V8.97705C19.75 4.94314 16.6783 1.62786 12.75 1.25V4.34672C13.6239 4.65611 14.25 5.49093 14.25 6.47223V8.47557C14.25 9.72028 13.2426 10.7293 12 10.7293C10.7574 10.7293 9.75 9.72028 9.75 8.47557V6.47223C9.75 5.49093 10.3761 4.65611 11.25 4.34672V1.25Z" fill="#020203"/>
<path d="M11.984 5.72115C11.5772 5.72966 11.25 6.06267 11.25 6.47223V8.47557C11.25 8.89047 11.5858 9.22682 12 9.22682C12.4142 9.22682 12.75 8.89047 12.75 8.47557V6.47223C12.75 6.06267 12.4228 5.72966 12.016 5.72115C12.0107 5.72126 12.0053 5.72132 12 5.72132C11.9947 5.72132 11.9893 5.72126 11.984 5.72115Z" fill="#020203"/>
<path d="M4.25 14.9871V14.7347L19.75 14.7366V14.9871C19.75 19.2744 16.2802 22.75 12 22.75C7.71979 22.75 4.25 19.2744 4.25 14.9871Z" fill="#020203"/>
</svg>
