<svg width="24" height="24" viewBox="0 0 24 24" fill="none" xmlns="http://www.w3.org/2000/svg">
<path d="M5 9C5 5.13401 8.13401 2 12 2C15.866 2 19 5.13401 19 9V15C19 18.866 15.866 22 12 22C8.13401 22 5 18.866 5 15V9Z" stroke="#020203" stroke-width="1.5"/>
<path d="M10.5 6.5C10.5 5.67157 11.1716 5 12 5C12.8284 5 13.5 5.67157 13.5 6.5V8.5C13.5 9.32843 12.8284 10 12 10C11.1716 10 10.5 9.32843 10.5 8.5V6.5Z" stroke="#020203" stroke-width="1.5"/>
<path d="M5 14C10 14 14 14 19 14" stroke="#020203" stroke-width="1.5" stroke-linecap="round" stroke-linejoin="round"/>
<path d="M12 2L12 5" stroke="#020203" stroke-width="1.5" stroke-linecap="round"/>
</svg>
