<svg width="24" height="24" viewBox="0 0 24 24" fill="none" xmlns="http://www.w3.org/2000/svg">
<path d="M13.4936 1.25235C13.0367 1.25 12.5408 1.25 12 1.25C11.2321 1.25 10.5546 1.25 9.9507 1.25672L13.837 8.25H17.3606L13.544 1.36346C13.5239 1.32725 13.5072 1.29009 13.4936 1.25235Z" fill="#020203"/>
<path d="M19.0756 8.25L15.2144 1.28301C16.5116 1.33247 17.4084 1.45607 18.1835 1.76492C20.0331 2.50185 21.4982 3.96695 22.2351 5.8165C22.4995 6.48017 22.6282 7.233 22.6907 8.25H19.0756Z" fill="#020203"/>
<path d="M5.8165 1.76492C6.48371 1.49908 7.24101 1.37049 8.26625 1.30828C8.27479 1.32718 8.28418 1.34587 8.29443 1.36432L12.121 8.25H8.60534L5.17323 2.0583C5.38183 1.95059 5.59644 1.8526 5.8165 1.76492Z" fill="#020203"/>
<path d="M3.91558 2.88344C2.97027 3.65509 2.22542 4.66073 1.76492 5.8165C1.50049 6.48017 1.37186 7.233 1.30928 8.25H6.89031L3.91558 2.88344Z" fill="#020203"/>
<path opacity="0.4" d="M18.6266 9.75C18.6318 9.75005 18.6369 9.75005 18.6421 9.75H22.7407C22.75 10.4036 22.75 11.1459 22.75 12C22.75 15.2608 22.75 16.8912 22.2351 18.1835C21.4982 20.0331 20.0331 21.4982 18.1835 22.2351C16.8912 22.75 15.2608 22.75 12 22.75C8.73923 22.75 7.10885 22.75 5.8165 22.2351C3.96695 21.4982 2.50185 20.0331 1.76492 18.1835C1.25 16.8912 1.25 15.2608 1.25 12C1.25 11.1459 1.25 10.4036 1.25925 9.75H8.1499C8.15944 9.75018 8.169 9.75018 8.17856 9.75H13.3822C13.3917 9.75018 13.4012 9.75018 13.4108 9.75H18.6266Z" fill="#020203"/>
</svg>
