<svg width="24" height="24" viewBox="0 0 24 24" fill="none" xmlns="http://www.w3.org/2000/svg">
<path d="M2 12C2 8.73646 2 7.10469 2.57265 5.83232C3.22448 4.38401 4.38401 3.22448 5.83232 2.57265C7.10469 2 8.73646 2 12 2C15.2635 2 16.8953 2 18.1677 2.57265C19.616 3.22448 20.7755 4.38401 21.4273 5.83232C22 7.10469 22 8.73646 22 12C22 15.2635 22 16.8953 21.4273 18.1677C20.7755 19.616 19.616 20.7755 18.1677 21.4273C16.8953 22 15.2635 22 12 22C8.73646 22 7.10469 22 5.83232 21.4273C4.38401 20.7755 3.22448 19.616 2.57265 18.1677C2 16.8953 2 15.2635 2 12Z" stroke="#020203" stroke-width="1.5"/>
<path d="M5 3.2928L8.16355 9" stroke="#020203" stroke-width="1.5" stroke-linecap="round"/>
<path d="M9.70866 2.34327L13.3985 9" stroke="#020203" stroke-width="1.5" stroke-linecap="round"/>
<path d="M18.3564 8.5L14.8831 2.23406" stroke="#020203" stroke-width="1.5" stroke-linecap="round"/>
<path d="M2.25 9H21.75" stroke="#020203" stroke-width="1.5" stroke-linecap="round"/>
</svg>
