<svg width="24" height="24" viewBox="0 0 24 24" fill="none" xmlns="http://www.w3.org/2000/svg">
<path d="M13.4936 1.25235C13.0366 1.25 12.5407 1.25 12 1.25C11.2321 1.25 10.5546 1.25 9.95065 1.25673L13.837 8.25H17.3605L13.544 1.36356C13.5239 1.32731 13.5071 1.29013 13.4936 1.25235Z" fill="#020203"/>
<path d="M18.62 9.75C18.6295 9.75018 18.6391 9.75018 18.6487 9.75H22.7407C22.75 10.4036 22.75 11.1459 22.75 12C22.75 13.2425 22.75 14.2482 22.7215 15.0887C21.8097 13.1176 19.8146 11.75 17.5 11.75C14.3244 11.75 11.75 14.3244 11.75 17.5C11.75 19.8146 13.1176 21.8097 15.0887 22.7215C14.2482 22.75 13.2425 22.75 12 22.75C8.73923 22.75 7.10885 22.75 5.8165 22.2351C3.96695 21.4982 2.50185 20.0331 1.76492 18.1835C1.25 16.8912 1.25 15.2608 1.25 12C1.25 11.1459 1.25 10.4036 1.25925 9.75H8.14985C8.15939 9.75018 8.16894 9.75018 8.1785 9.75H13.3821C13.3916 9.75018 13.4012 9.75018 13.4107 9.75H18.62Z" fill="#020203"/>
<path d="M19.0755 8.25L15.2143 1.283C16.5116 1.33246 17.4083 1.45606 18.1835 1.76492C20.0331 2.50185 21.4982 3.96695 22.2351 5.8165C22.4995 6.48017 22.6281 7.233 22.6907 8.25H19.0755Z" fill="#020203"/>
<path d="M5.8165 1.76492C6.48369 1.49908 7.24098 1.37049 8.2662 1.30829C8.27474 1.32718 8.28413 1.34587 8.29438 1.36432L12.1209 8.25H8.60528L5.17318 2.05833C5.38179 1.9506 5.59642 1.8526 5.8165 1.76492Z" fill="#020203"/>
<path d="M3.91554 2.88347C2.97024 3.65512 2.22541 4.66075 1.76492 5.8165C1.50049 6.48017 1.37185 7.233 1.30928 8.25H6.89025L3.91554 2.88347Z" fill="#020203"/>
<path fill-rule="evenodd" clip-rule="evenodd" d="M13 17.5C13 19.9853 15.0147 22 17.5 22C19.9853 22 22 19.9853 22 17.5C22 15.0147 19.9853 13 17.5 13C15.0147 13 13 15.0147 13 17.5ZM17.5 19.75C17.9142 19.75 18.25 19.4142 18.25 19V18.25H19C19.4142 18.25 19.75 17.9142 19.75 17.5C19.75 17.0858 19.4142 16.75 19 16.75H18.25V16C18.25 15.5858 17.9142 15.25 17.5 15.25C17.0858 15.25 16.75 15.5858 16.75 16V16.75H16C15.5858 16.75 15.25 17.0858 15.25 17.5C15.25 17.9142 15.5858 18.25 16 18.25H16.75V19C16.75 19.4142 17.0858 19.75 17.5 19.75Z" fill="#020203"/>
</svg>
