<svg width="24" height="24" viewBox="0 0 24 24" fill="none" xmlns="http://www.w3.org/2000/svg">
<path d="M13.4935 1.25235C13.0366 1.25 12.5407 1.25 12 1.25C11.2321 1.25 10.5546 1.25 9.95064 1.25673L13.837 8.25H17.3605L13.5439 1.36356C13.5239 1.32731 13.5071 1.29013 13.4935 1.25235Z" fill="#020203"/>
<path d="M19.0754 8.25L15.2143 1.283C16.5115 1.33246 17.4083 1.45606 18.1835 1.76492C20.033 2.50185 21.4981 3.96695 22.2351 5.8165C22.4995 6.48017 22.6281 7.233 22.6907 8.25H19.0754Z" fill="#020203"/>
<path d="M5.81649 1.76492C6.48368 1.49908 7.24097 1.37049 8.26619 1.30829C8.27473 1.32718 8.28412 1.34587 8.29437 1.36432L12.1209 8.25H8.60527L5.17317 2.05833C5.38178 1.9506 5.59641 1.8526 5.81649 1.76492Z" fill="#020203"/>
<path d="M3.91553 2.88347C2.97023 3.65512 2.2254 4.66075 1.76491 5.8165C1.50048 6.48017 1.37184 7.233 1.30927 8.25H6.89024L3.91553 2.88347Z" fill="#020203"/>
<path opacity="0.4" d="M18.62 9.75C18.6295 9.75018 18.6391 9.75018 18.6487 9.75H22.7407C22.75 10.4036 22.75 11.1459 22.75 12C22.75 13.2425 22.75 14.2482 22.7215 15.0887C21.8097 13.1176 19.8146 11.75 17.5 11.75C14.3244 11.75 11.75 14.3244 11.75 17.5C11.75 19.8146 13.1176 21.8097 15.0887 22.7215C14.2482 22.75 13.2425 22.75 12 22.75C8.73923 22.75 7.10885 22.75 5.8165 22.2351C3.96695 21.4982 2.50185 20.0331 1.76492 18.1835C1.25 16.8912 1.25 15.2608 1.25 12C1.25 11.1459 1.25 10.4036 1.25925 9.75H8.14985C8.15939 9.75018 8.16894 9.75018 8.1785 9.75H13.3821C13.3916 9.75018 13.4012 9.75018 13.4107 9.75H18.62Z" fill="#020203"/>
<path fill-rule="evenodd" clip-rule="evenodd" d="M17.5 22C15.0147 22 13 19.9853 13 17.5C13 15.0147 15.0147 13 17.5 13C19.9853 13 22 15.0147 22 17.5C22 19.9853 19.9853 22 17.5 22ZM19.7803 17.2803C20.0732 16.9874 20.0732 16.5126 19.7803 16.2197C19.4874 15.9268 19.0126 15.9268 18.7197 16.2197L17.6036 17.3358C17.4083 17.531 17.0917 17.531 16.8964 17.3358L16.2803 16.7197C15.9874 16.4268 15.5126 16.4268 15.2197 16.7197C14.9268 17.0126 14.9268 17.4874 15.2197 17.7803L15.8358 18.3964C16.6168 19.1775 17.8832 19.1775 18.6642 18.3964L19.7803 17.2803Z" fill="#020203"/>
</svg>
