<svg width="24" height="24" viewBox="0 0 24 24" fill="none" xmlns="http://www.w3.org/2000/svg">
<path d="M21.9993 11C21.9933 8.38888 21.9383 6.96755 21.4273 5.83232C20.7755 4.38401 19.616 3.22448 18.1677 2.57265C16.8953 2 15.2635 2 12 2C8.73646 2 7.10469 2 5.83232 2.57265C4.38401 3.22448 3.22448 4.38401 2.57265 5.83232C2 7.10469 2 8.73646 2 12C2 15.2635 2 16.8953 2.57265 18.1677C3.22448 19.616 4.38401 20.7755 5.83232 21.4273C6.81342 21.8689 8.00821 21.97 10 21.9931" stroke="#020203" stroke-width="1.5" stroke-linecap="round"/>
<path d="M13 17.5C13 19.9853 15.0147 22 17.5 22C19.9853 22 22 19.9853 22 17.5C22 15.0147 19.9853 13 17.5 13C15.0147 13 13 15.0147 13 17.5Z" stroke="#020203" stroke-width="1.5" stroke-linecap="round"/>
<path d="M17.5 19L17.5 16" stroke="#020203" stroke-width="1.5" stroke-linecap="round" stroke-linejoin="round"/>
<path d="M16 17.5H19" stroke="#020203" stroke-width="1.5" stroke-linecap="round" stroke-linejoin="round"/>
<path d="M2.5 9H21.5" stroke="#020203" stroke-width="1.5" stroke-linecap="round"/>
<path d="M5 3.29297L8.16355 9.00017" stroke="#020203" stroke-width="1.5" stroke-linecap="round"/>
<path d="M9.70865 2.34326L13.3985 8.99999" stroke="#020203" stroke-width="1.5" stroke-linecap="round"/>
<path d="M18.3564 8.49983L14.8831 2.23389" stroke="#020203" stroke-width="1.5" stroke-linecap="round"/>
</svg>
