<svg width="24" height="24" viewBox="0 0 24 24" fill="none" xmlns="http://www.w3.org/2000/svg">
<path d="M2 18C2 20.2091 3.79086 22 6 22C8.20914 22 10 20.2091 10 18C10 15.7909 8.20914 14 6 14C3.79086 14 2 15.7909 2 18Z" stroke="#020203" stroke-width="1.5" stroke-linecap="round"/>
<path d="M10 18V8.41839C10 6.68017 10 5.81107 10.2045 5.15609C10.7628 3.3679 12.3705 2.11264 14.2407 2.0047C14.9257 1.96517 15.7689 2.17596 17.4552 2.59754C18.5356 2.86762 19.0757 3.00266 19.5217 3.22695C20.7259 3.83248 21.5952 4.94588 21.8906 6.26093C22 6.74801 22 7.3048 22 8.41839V17" stroke="#020203" stroke-width="1.5" stroke-linecap="round"/>
<path d="M14 17C14 19.2091 15.7909 21 18 21C20.2091 21 22 19.2091 22 17C22 14.7909 20.2091 13 18 13C15.7909 13 14 14.7909 14 17Z" stroke="#020203" stroke-width="1.5" stroke-linecap="round"/>
</svg>
