<svg width="24" height="24" viewBox="0 0 24 24" fill="none" xmlns="http://www.w3.org/2000/svg">
<path d="M2 16.125C2 19.3697 4.63033 22 7.875 22C11.1197 22 13.75 19.3697 13.75 16.125C13.75 12.8803 11.1197 10.25 7.875 10.25C4.63033 10.25 2 12.8803 2 16.125Z" fill="#020203"/>
<path opacity="0.4" fill-rule="evenodd" clip-rule="evenodd" d="M18.5341 1.89181L18.5543 1.89855C18.5846 1.90865 18.6145 1.91862 18.644 1.92847C19.4647 2.20188 19.9907 2.3771 20.4347 2.64217C21.56 3.31392 22.3578 4.42075 22.6392 5.70072C22.7502 6.2058 22.7501 6.76015 22.75 7.6252C22.75 7.65634 22.75 7.68788 22.75 7.71984V7.8377C22.75 8.25191 22.4142 8.5877 22 8.5877C21.5858 8.5877 21.25 8.25191 21.25 7.8377V7.71984C21.25 6.72801 21.2458 6.34839 21.1742 6.02283C20.9816 5.14706 20.4358 4.38976 19.6659 3.93014C19.3796 3.75928 19.0208 3.63521 18.0799 3.32157C17.4592 3.11466 17.0211 2.96891 16.6759 2.87356C16.3316 2.77845 16.132 2.74912 15.9861 2.75002C15.0279 2.75594 14.1785 3.36811 13.8699 4.2753C13.8229 4.41342 13.7876 4.61202 13.769 4.96878C13.7502 5.32644 13.75 5.78809 13.75 6.44239V16C13.75 16.4142 13.4142 16.75 13 16.75C12.5858 16.75 12.25 16.4142 12.25 16L12.25 6.42112C12.25 5.79289 12.25 5.29193 12.271 4.89039C12.2923 4.48342 12.337 4.12394 12.4498 3.79217C12.9642 2.2802 14.3798 1.25991 15.9768 1.25005C16.3273 1.24788 16.6824 1.3192 17.0752 1.42769C17.4628 1.53473 17.9381 1.69315 18.5341 1.89181Z" fill="#020203"/>
</svg>
