<svg width="24" height="24" viewBox="0 0 24 24" fill="none" xmlns="http://www.w3.org/2000/svg">
<path d="M2 18.125C2 20.5412 3.95875 22.5 6.375 22.5C8.79125 22.5 10.75 20.5412 10.75 18.125C10.75 15.7088 8.79125 13.75 6.375 13.75C3.95875 13.75 2 15.7088 2 18.125Z" fill="#020203"/>
<path d="M14 17.125C14 19.5412 15.9588 21.5 18.375 21.5C20.7912 21.5 22.75 19.5412 22.75 17.125C22.75 14.7088 20.7912 12.75 18.375 12.75C15.9588 12.75 14 14.7088 14 17.125Z" fill="#020203"/>
<path opacity="0.4" fill-rule="evenodd" clip-rule="evenodd" d="M17.6172 1.86495L17.6371 1.86993C17.6705 1.87827 17.7035 1.88651 17.736 1.89465C18.7218 2.14094 19.3374 2.29476 19.8587 2.5569C21.2635 3.26336 22.2777 4.56232 22.6223 6.09655C22.7502 6.66583 22.7501 7.3004 22.75 8.31642C22.75 8.34999 22.75 8.38398 22.75 8.41839V17C22.75 17.4142 22.4142 17.75 22 17.75C21.5858 17.75 21.25 17.4142 21.25 17V8.41839C21.25 7.2672 21.2455 6.81138 21.1588 6.42531C20.9126 5.32944 20.1882 4.40161 19.1848 3.89699C18.8313 3.71922 18.3901 3.60435 17.2733 3.32514C16.4228 3.11252 15.8115 2.95991 15.3268 2.86391C14.8439 2.76828 14.5337 2.73904 14.2839 2.75346C12.7254 2.8434 11.3857 3.88945 10.9204 5.37961C10.8458 5.61843 10.799 5.92648 10.7746 6.4181C10.7502 6.91165 10.75 7.54173 10.75 8.41839V18C10.75 18.4142 10.4142 18.75 10 18.75C9.58579 18.75 9.25 18.4142 9.25 18V8.39787C9.25 7.54613 9.25 6.87896 9.27648 6.34395C9.30327 5.80271 9.35865 5.34872 9.48858 4.93256C10.1399 2.84635 12.0156 1.38188 14.1975 1.25595C14.6327 1.23083 15.0866 1.28721 15.6182 1.39249C16.1436 1.49656 16.7909 1.65837 17.6172 1.86495Z" fill="#020203"/>
</svg>
