<svg width="24" height="24" viewBox="0 0 24 24" fill="none" xmlns="http://www.w3.org/2000/svg">
<path d="M2 16.5C2 19.5376 4.46243 22 7.5 22C10.5376 22 13 19.5376 13 16.5C13 13.4624 10.5376 11 7.5 11C4.46243 11 2 13.4624 2 16.5Z" stroke="#020203" stroke-width="1.5" stroke-linecap="round"/>
<path d="M13 16.4977V6.44239C13 5.14989 13 4.50363 13.1599 4.03373C13.5714 2.82415 14.7038 2.00792 15.9815 2.00003C16.4778 1.99697 17.0909 2.20133 18.3171 2.61006C19.2238 2.9123 19.6772 3.06342 20.0503 3.28616C20.9979 3.85184 21.6697 4.7839 21.9067 5.86178C22 6.28619 22 6.76407 22 7.71984V7.8377" stroke="#020203" stroke-width="1.5" stroke-linecap="round"/>
</svg>
