<svg width="24" height="24" viewBox="0 0 24 24" fill="none" xmlns="http://www.w3.org/2000/svg">
<path d="M21.4575 2.54124C19.6025 0.686246 16.595 0.686247 14.74 2.54124L8.90639 8.37487L15.6239 15.0924L21.4575 9.25875C23.3125 7.40376 23.3125 4.39623 21.4575 2.54124Z" fill="#020203"/>
<path d="M14.5632 16.153L10.3635 11.9533V20.3528L14.5632 16.153Z" fill="#020203"/>
<path d="M8.86349 10.4533L7.84573 9.43553L6.12085 11.1604L6.12085 22.8425C7.09596 22.7977 8.05987 22.4539 8.86349 21.8112V10.4533Z" fill="#020203"/>
<path d="M4.62085 22.6727L4.62085 12.6604L2.54243 14.7388C0.687437 16.5938 0.687436 19.6014 2.54243 21.4563C3.14104 22.055 3.85967 22.4604 4.62085 22.6727Z" fill="#020203"/>
</svg>
