<svg width="24" height="24" viewBox="0 0 24 24" fill="none" xmlns="http://www.w3.org/2000/svg">
<path opacity="0.4" d="M4.62085 22.6726L4.62085 12.6604L2.54243 14.7388C0.687437 16.5938 0.687436 19.6014 2.54243 21.4563C3.14104 22.0549 3.85967 22.4604 4.62085 22.6726Z" fill="#020203"/>
<path d="M8.86349 10.4532L7.84572 9.43544L6.12085 11.1603L6.12085 22.8424C7.09595 22.7976 8.05986 22.4538 8.86349 21.8112V10.4532Z" fill="#020203"/>
<path opacity="0.4" d="M14.5632 16.1529L10.3635 11.9532V20.3527L14.5632 16.1529Z" fill="#020203"/>
<path d="M21.4575 2.54115C19.6025 0.686155 16.595 0.686155 14.74 2.54115L8.90637 8.37478L15.6239 15.0923L21.4575 9.25866C23.3125 7.40367 23.3125 4.39614 21.4575 2.54115Z" fill="#020203"/>
</svg>
