<svg width="24" height="24" viewBox="0 0 24 24" fill="none" xmlns="http://www.w3.org/2000/svg">
<path d="M1.25 12L1.25001 11.75H22.75L22.75 12C22.75 15.2608 22.75 16.8912 22.2351 18.1835C21.4982 20.0331 20.0331 21.4982 18.1835 22.2351C16.8912 22.75 15.2608 22.75 12 22.75C8.73923 22.75 7.10885 22.75 5.8165 22.2351C3.96695 21.4982 2.50185 20.0331 1.76492 18.1835C1.25 16.8912 1.25 15.2608 1.25 12Z" fill="#020203"/>
<path fill-rule="evenodd" clip-rule="evenodd" d="M22.2351 5.8165C22.6484 6.8538 22.7299 8.10887 22.746 10.25H1.25396C1.27006 8.10887 1.35162 6.8538 1.76492 5.8165C2.50185 3.96695 3.96695 2.50185 5.8165 1.76492C7.10885 1.25 8.73923 1.25 12 1.25C15.2608 1.25 16.8912 1.25 18.1835 1.76492C20.0331 2.50185 21.4982 3.96695 22.2351 5.8165ZM13 5.75C12.5858 5.75 12.25 6.08579 12.25 6.5C12.25 6.91421 12.5858 7.25 13 7.25H14C14.4142 7.25 14.75 6.91421 14.75 6.5C14.75 6.08579 14.4142 5.75 14 5.75H13ZM16.25 6.5C16.25 6.08579 16.5858 5.75 17 5.75H18C18.4142 5.75 18.75 6.08579 18.75 6.5C18.75 6.91421 18.4142 7.25 18 7.25H17C16.5858 7.25 16.25 6.91421 16.25 6.5ZM6.4955 5.5C5.94322 5.5 5.4955 5.94772 5.4955 6.5C5.4955 7.05228 5.94322 7.5 6.4955 7.5H6.5045C7.05678 7.5 7.5045 7.05228 7.5045 6.5C7.5045 5.94772 7.05678 5.5 6.5045 5.5H6.4955Z" fill="#020203"/>
</svg>
