<svg width="24" height="24" viewBox="0 0 24 24" fill="none" xmlns="http://www.w3.org/2000/svg">
<path opacity="0.32" fill-rule="evenodd" clip-rule="evenodd" d="M17.6074 3.59076C17.9003 3.88366 17.9003 4.35853 17.6074 4.65142L13.6074 8.65142C13.3145 8.94432 12.8397 8.94432 12.5468 8.65142C12.2539 8.35853 12.2539 7.88366 12.5468 7.59076L16.5468 3.59076C16.8397 3.29787 17.3145 3.29787 17.6074 3.59076Z" fill="#020203"/>
<path opacity="0.32" fill-rule="evenodd" clip-rule="evenodd" d="M20.4356 6.42084C20.7285 6.71373 20.7285 7.18861 20.4356 7.4815L16.4356 11.4815C16.1427 11.7744 15.6678 11.7744 15.3749 11.4815C15.082 11.1886 15.082 10.7137 15.3749 10.4208L19.3749 6.42084C19.6678 6.12795 20.1427 6.12795 20.4356 6.42084Z" fill="#020203"/>
<path fill-rule="evenodd" clip-rule="evenodd" d="M14.4252 1.46967C14.7181 1.17678 15.193 1.17678 15.4859 1.46967L22.4859 8.46967C22.7788 8.76256 22.7788 9.23744 22.4859 9.53033C22.193 9.82322 21.7181 9.82322 21.4252 9.53033L14.4252 2.53033C14.1323 2.23744 14.1323 1.76256 14.4252 1.46967Z" fill="#020203"/>
<path fill-rule="evenodd" clip-rule="evenodd" d="M9.01162 4.05561C9.30452 3.76271 9.77939 3.76271 10.0723 4.05561L19.9718 13.9551C20.2647 14.248 20.2647 14.7229 19.9718 15.0158C19.6789 15.3087 19.204 15.3087 18.9111 15.0158L9.01162 5.11627C8.71873 4.82337 8.71873 4.3485 9.01162 4.05561Z" fill="#020203"/>
<path opacity="0.32" d="M5.20671 13.1649C3.60948 14.7621 3.60948 17.3517 5.20671 18.949C6.80394 20.5462 9.39357 20.5462 10.9908 18.949L17.043 12.8968L11.2836 7.08789L5.20671 13.1649Z" fill="#020203"/>
<path d="M8.1539 10.2177L10.5824 12.6865C10.8729 12.9818 11.3477 12.9857 11.643 12.6952C11.9383 12.4047 11.9422 11.9299 11.6518 11.6346L9.2146 9.15696L8.1539 10.2177Z" fill="#020203"/>
<path d="M5.65355 12.718L7.58177 14.6858C7.87168 14.9817 8.34653 14.9865 8.64238 14.6966C8.93823 14.4067 8.94305 13.9319 8.65315 13.636L6.71426 11.6573L5.65355 12.718Z" fill="#020203"/>
<path fill-rule="evenodd" clip-rule="evenodd" d="M6.02825 17.9676C6.32227 18.2594 6.32409 18.7343 6.03232 19.0283L2.57236 22.5149C2.2806 22.8089 1.80573 22.8108 1.51171 22.519C1.2177 22.2272 1.21587 21.7524 1.50764 21.4583L4.9676 17.9717C5.25937 17.6777 5.73424 17.6759 6.02825 17.9676Z" fill="#020203"/>
</svg>
