<svg width="24" height="24" viewBox="0 0 24 24" fill="none" xmlns="http://www.w3.org/2000/svg">
<path fill-rule="evenodd" clip-rule="evenodd" d="M17.6074 3.59076C17.9003 3.88366 17.9003 4.35853 17.6074 4.65142L13.6074 8.65142C13.3145 8.94432 12.8397 8.94432 12.5468 8.65142C12.2539 8.35853 12.2539 7.88366 12.5468 7.59076L16.5468 3.59076C16.8397 3.29787 17.3145 3.29787 17.6074 3.59076Z" fill="#020203"/>
<path fill-rule="evenodd" clip-rule="evenodd" d="M20.4356 6.42084C20.7285 6.71373 20.7285 7.18861 20.4356 7.4815L16.4356 11.4815C16.1427 11.7744 15.6678 11.7744 15.3749 11.4815C15.082 11.1886 15.082 10.7137 15.3749 10.4208L19.3749 6.42084C19.6678 6.12795 20.1427 6.12795 20.4356 6.42084Z" fill="#020203"/>
<path fill-rule="evenodd" clip-rule="evenodd" d="M14.4252 1.46967C14.7181 1.17678 15.193 1.17678 15.4859 1.46967L22.4859 8.46967C22.7788 8.76256 22.7788 9.23744 22.4859 9.53033C22.193 9.82322 21.7181 9.82322 21.4252 9.53033L14.4252 2.53033C14.1323 2.23744 14.1323 1.76256 14.4252 1.46967Z" fill="#020203"/>
<path fill-rule="evenodd" clip-rule="evenodd" d="M9.01162 4.05561C9.30452 3.76271 9.77939 3.76271 10.0723 4.05561L19.9718 13.9551C20.2647 14.248 20.2647 14.7229 19.9718 15.0158C19.6789 15.3087 19.204 15.3087 18.9111 15.0158L9.01162 5.11627C8.71873 4.82337 8.71873 4.3485 9.01162 4.05561Z" fill="#020203"/>
<path d="M5.20671 13.1649C3.60948 14.7621 3.60948 17.3517 5.20671 18.949C6.80394 20.5462 9.39357 20.5462 10.9908 18.949L17.043 12.8968L11.2836 7.08789L9.21459 9.15696L11.6518 11.6346C11.9422 11.9299 11.9383 12.4047 11.643 12.6952C11.3477 12.9857 10.8729 12.9818 10.5824 12.6865L8.1539 10.2177L6.71426 11.6573L8.65315 13.636C8.94306 13.9319 8.93823 14.4067 8.64238 14.6966C8.34653 14.9865 7.87168 14.9817 7.58177 14.6858L5.65355 12.718L5.20671 13.1649Z" fill="#020203"/>
<path fill-rule="evenodd" clip-rule="evenodd" d="M6.52851 17.4679C6.82238 17.7598 6.82398 18.2347 6.53207 18.5285L2.57211 22.5152C2.2802 22.8091 1.80533 22.8106 1.51145 22.5187C1.21758 22.2268 1.21599 21.752 1.50789 21.4581L5.46785 17.4715C5.75976 17.1776 6.23463 17.176 6.52851 17.4679Z" fill="#020203"/>
</svg>
