<svg width="24" height="24" viewBox="0 0 24 24" fill="none" xmlns="http://www.w3.org/2000/svg">
<path d="M3 13C3 10.2044 3 8.80653 3.45672 7.7039C4.06569 6.23373 5.23373 5.06569 6.7039 4.45672C7.80653 4 9.20435 4 12 4C14.7956 4 16.1935 4 17.2961 4.45672C18.7663 5.06569 19.9343 6.23373 20.5433 7.7039C21 8.80653 21 10.2044 21 13C21 15.7956 21 17.1935 20.5433 18.2961C19.9343 19.7663 18.7663 20.9343 17.2961 21.5433C16.1935 22 14.7956 22 12 22C9.20435 22 7.80653 22 6.7039 21.5433C5.23373 20.9343 4.06569 19.7663 3.45672 18.2961C3 17.1935 3 15.7956 3 13Z" stroke="#020203" stroke-width="1.5"/>
<path d="M9 2V5" stroke="#020203" stroke-width="1.5" stroke-linecap="round"/>
<path d="M15 2V5" stroke="#020203" stroke-width="1.5" stroke-linecap="round"/>
<path d="M10.75 9L16.75 9" stroke="#020203" stroke-width="1.5" stroke-linecap="round"/>
<path d="M10.75 13L16.75 13" stroke="#020203" stroke-width="1.5" stroke-linecap="round"/>
<path d="M10.75 17L16.75 17" stroke="#020203" stroke-width="1.5" stroke-linecap="round"/>
<path d="M7.75 8C7.19772 8 6.75 8.44772 6.75 9C6.75 9.55228 7.19772 10 7.75 10C8.30228 10 8.75 9.55228 8.75 9C8.75 8.44772 8.30228 8 7.75 8Z" fill="#020203"/>
<path d="M7.75 12C7.19772 12 6.75 12.4477 6.75 13C6.75 13.5523 7.19772 14 7.75 14C8.30228 14 8.75 13.5523 8.75 13C8.75 12.4477 8.30228 12 7.75 12Z" fill="#020203"/>
<path d="M7.75 16C7.19772 16 6.75 16.4477 6.75 17C6.75 17.5523 7.19772 18 7.75 18C8.30228 18 8.75 17.5523 8.75 17C8.75 16.4477 8.30228 16 7.75 16Z" fill="#020203"/>
</svg>
