<svg width="24" height="24" viewBox="0 0 24 24" fill="none" xmlns="http://www.w3.org/2000/svg">
<path opacity="0.4" d="M3 11C3 7.73081 3 6.09621 3.67277 4.86413C4.17807 3.93873 4.93873 3.17807 5.86413 2.67277C7.09621 2 8.73081 2 12 2C15.2692 2 16.9038 2 18.1359 2.67277C19.0613 3.17807 19.8219 3.93873 20.3272 4.86413C21 6.09621 21 7.73081 21 11V13C21 16.2692 21 17.9038 20.3272 19.1359C19.8219 20.0613 19.0613 20.8219 18.1359 21.3272C16.9038 22 15.2692 22 12 22C8.73081 22 7.09621 22 5.86413 21.3272C4.93873 20.8219 4.17807 20.0613 3.67277 19.1359C3 17.9038 3 16.2692 3 13V11Z" stroke="#020203" stroke-width="1.5"/>
<path d="M8 2.5L8 21.5" stroke="#020203" stroke-width="1.5" stroke-linecap="round"/>
<path d="M16.5 12H17.5" stroke="#020203" stroke-width="1.5" stroke-linecap="round"/>
<path d="M20.5 15H16C14.5136 14.9991 13.0012 14 13 12C12.9988 10 14.5136 9.00091 16 9H20.5" stroke="#020203" stroke-width="1.5" stroke-linecap="round" stroke-linejoin="round"/>
</svg>
