<svg width="24" height="24" viewBox="0 0 24 24" fill="none" xmlns="http://www.w3.org/2000/svg">
<path opacity="0.4" d="M2.25 13C2.25 9.97138 2.25 8.45707 2.74478 7.26256C3.40449 5.66988 4.66988 4.40449 6.26256 3.74478C7.45707 3.25 8.97138 3.25 12 3.25C15.0286 3.25 16.5429 3.25 17.7374 3.74478C19.3301 4.40449 20.5955 5.66988 21.2552 7.26256C21.75 8.45707 21.75 9.97138 21.75 13C21.75 16.0286 21.75 17.5429 21.2552 18.7374C20.5955 20.3301 19.3301 21.5955 17.7374 22.2552C16.5429 22.75 15.0286 22.75 12 22.75C8.97138 22.75 7.45707 22.75 6.26256 22.2552C4.66988 21.5955 3.40449 20.3301 2.74478 18.7374C2.25 17.5429 2.25 16.0286 2.25 13Z" fill="#020203"/>
<path fill-rule="evenodd" clip-rule="evenodd" d="M8.25 13.5C8.25 13.0858 8.58579 12.75 9 12.75H15C15.4142 12.75 15.75 13.0858 15.75 13.5C15.75 13.9142 15.4142 14.25 15 14.25H9C8.58579 14.25 8.25 13.9142 8.25 13.5Z" fill="#020203"/>
<path fill-rule="evenodd" clip-rule="evenodd" d="M12 9.75C12.4142 9.75 12.75 10.0858 12.75 10.5V16.5C12.75 16.9142 12.4142 17.25 12 17.25C11.5858 17.25 11.25 16.9142 11.25 16.5V10.5C11.25 10.0858 11.5858 9.75 12 9.75Z" fill="#020203"/>
<path fill-rule="evenodd" clip-rule="evenodd" d="M9 1.25C9.41421 1.25 9.75 1.58579 9.75 2V5C9.75 5.41421 9.41421 5.75 9 5.75C8.58579 5.75 8.25 5.41421 8.25 5V2C8.25 1.58579 8.58579 1.25 9 1.25Z" fill="#020203"/>
<path fill-rule="evenodd" clip-rule="evenodd" d="M15 1.25C15.4142 1.25 15.75 1.58579 15.75 2V5C15.75 5.41421 15.4142 5.75 15 5.75C14.5858 5.75 14.25 5.41421 14.25 5V2C14.25 1.58579 14.5858 1.25 15 1.25Z" fill="#020203"/>
</svg>
