<svg width="24" height="24" viewBox="0 0 24 24" fill="none" xmlns="http://www.w3.org/2000/svg">
<path fill-rule="evenodd" clip-rule="evenodd" d="M2.25 13C2.25 9.97138 2.25 8.45707 2.74478 7.26256C3.40449 5.66988 4.66988 4.40449 6.26256 3.74478C7.45707 3.25 8.97138 3.25 12 3.25C15.0286 3.25 16.5429 3.25 17.7374 3.74478C19.3301 4.40449 20.5955 5.66988 21.2552 7.26256C21.75 8.45707 21.75 9.97137 21.75 13C21.75 16.0286 21.75 17.5429 21.2552 18.7374C20.5955 20.3301 19.3301 21.5955 17.7374 22.2552C16.5429 22.75 15.0286 22.75 12 22.75C8.97144 22.75 7.45707 22.75 6.26256 22.2552C4.66988 21.5955 3.40449 20.3301 2.74478 18.7374C2.25 17.5429 2.25 16.0286 2.25 13ZM10 9C10 8.58579 10.3358 8.25 10.75 8.25H16.75C17.1642 8.25 17.5 8.58579 17.5 9C17.5 9.41421 17.1642 9.75 16.75 9.75H10.75C10.3358 9.75 10 9.41421 10 9ZM10.75 12.25C10.3358 12.25 10 12.5858 10 13C10 13.4142 10.3358 13.75 10.75 13.75H16.75C17.1642 13.75 17.5 13.4142 17.5 13C17.5 12.5858 17.1642 12.25 16.75 12.25H10.75ZM10 17C10 16.5858 10.3358 16.25 10.75 16.25H16.75C17.1642 16.25 17.5 16.5858 17.5 17C17.5 17.4142 17.1642 17.75 16.75 17.75H10.75C10.3358 17.75 10 17.4142 10 17ZM6.75 9C6.75 8.44772 7.19772 8 7.75 8C8.30228 8 8.75 8.44772 8.75 9C8.75 9.55228 8.30228 10 7.75 10C7.19772 10 6.75 9.55228 6.75 9ZM7.75 12C7.19772 12 6.75 12.4477 6.75 13C6.75 13.5523 7.19772 14 7.75 14C8.30228 14 8.75 13.5523 8.75 13C8.75 12.4477 8.30228 12 7.75 12ZM6.75 17C6.75 16.4477 7.19772 16 7.75 16C8.30228 16 8.75 16.4477 8.75 17C8.75 17.5523 8.30228 18 7.75 18C7.19772 18 6.75 17.5523 6.75 17Z" fill="#020203"/>
<path fill-rule="evenodd" clip-rule="evenodd" d="M9 1.25C9.41421 1.25 9.75 1.58579 9.75 2V5C9.75 5.41421 9.41421 5.75 9 5.75C8.58579 5.75 8.25 5.41421 8.25 5V2C8.25 1.58579 8.58579 1.25 9 1.25Z" fill="#020203"/>
<path fill-rule="evenodd" clip-rule="evenodd" d="M15 1.25C15.4142 1.25 15.75 1.58579 15.75 2V5C15.75 5.41421 15.4142 5.75 15 5.75C14.5858 5.75 14.25 5.41421 14.25 5V2C14.25 1.58579 14.5858 1.25 15 1.25Z" fill="#020203"/>
</svg>
