<svg width="24" height="24" viewBox="0 0 24 24" fill="none" xmlns="http://www.w3.org/2000/svg">
<path fill-rule="evenodd" clip-rule="evenodd" d="M2.74478 7.26256C2.25 8.45707 2.25 9.97138 2.25 13C2.25 16.0286 2.25 17.5429 2.74478 18.7374C3.40449 20.3301 4.66988 21.5955 6.26256 22.2552C7.45707 22.75 8.97137 22.75 12 22.75C15.0286 22.75 16.5429 22.75 17.7374 22.2552C19.3301 21.5955 20.5955 20.3301 21.2552 18.7374C21.75 17.5429 21.75 16.0286 21.75 13C21.75 9.97144 21.75 8.45707 21.2552 7.26256C20.5955 5.66988 19.3301 4.40449 17.7374 3.74478C16.5429 3.25 15.0286 3.25 12 3.25C8.97138 3.25 7.45707 3.25 6.26256 3.74478C4.66988 4.40449 3.40449 5.66988 2.74478 7.26256ZM9 12.75C8.58579 12.75 8.25 13.0858 8.25 13.5C8.25 13.9142 8.58579 14.25 9 14.25H15C15.4142 14.25 15.75 13.9142 15.75 13.5C15.75 13.0858 15.4142 12.75 15 12.75H9ZM8.25 9.5C8.25 9.08579 8.58579 8.75 9 8.75H15C15.4142 8.75 15.75 9.08579 15.75 9.5C15.75 9.91421 15.4142 10.25 15 10.25H9C8.58579 10.25 8.25 9.91421 8.25 9.5ZM9 16.75C8.58579 16.75 8.25 17.0858 8.25 17.5C8.25 17.9142 8.58579 18.25 9 18.25H12.9999C13.4141 18.25 13.7499 17.9142 13.7499 17.5C13.7499 17.0858 13.4141 16.75 12.9999 16.75H9Z" fill="#020203"/>
<path fill-rule="evenodd" clip-rule="evenodd" d="M9 1.25C9.41421 1.25 9.75 1.58579 9.75 2V5C9.75 5.41421 9.41421 5.75 9 5.75C8.58579 5.75 8.25 5.41421 8.25 5V2C8.25 1.58579 8.58579 1.25 9 1.25Z" fill="#020203"/>
<path fill-rule="evenodd" clip-rule="evenodd" d="M15 1.25C15.4142 1.25 15.75 1.58579 15.75 2V5C15.75 5.41421 15.4142 5.75 15 5.75C14.5858 5.75 14.25 5.41421 14.25 5V2C14.25 1.58579 14.5858 1.25 15 1.25Z" fill="#020203"/>
</svg>
