<svg width="24" height="24" viewBox="0 0 24 24" fill="none" xmlns="http://www.w3.org/2000/svg">
<path fill-rule="evenodd" clip-rule="evenodd" d="M21.7485 9.75H16.0003C15.4176 9.7504 14.8507 9.94748 14.4394 10.3118C14.0423 10.6635 13.7495 11.2056 13.75 11.9995C13.7505 12.7941 14.0436 13.3366 14.4405 13.6884C14.8515 14.0526 15.4179 14.2496 16.0005 14.25H21.7485C21.75 13.8617 21.75 13.4461 21.75 13V11C21.75 10.5539 21.75 10.1383 21.7485 9.75ZM15.75 12C15.75 11.5858 16.0858 11.25 16.5 11.25H17.5C17.9142 11.25 18.25 11.5858 18.25 12C18.25 12.4142 17.9142 12.75 17.5 12.75H16.5C16.0858 12.75 15.75 12.4142 15.75 12Z" fill="#020203"/>
<path d="M7.25 1.42989C6.70987 1.518 6.25447 1.64927 5.83888 1.84483C4.5229 2.46408 3.46408 3.5229 2.84483 4.83888C2.25 6.10296 2.25 7.73531 2.25 11V13C2.25 16.2647 2.25 17.897 2.84483 19.1611C3.46408 20.4771 4.5229 21.5359 5.83888 22.1552C6.25447 22.3507 6.70987 22.482 7.25 22.5701L7.25 1.42989Z" fill="#020203"/>
<path opacity="0.4" d="M8.75 22.7104C9.6212 22.75 10.6765 22.75 12 22.75C15.2647 22.75 16.897 22.75 18.1611 22.1552C19.4771 21.5359 20.5359 20.4771 21.1552 19.1611C21.5532 18.3152 21.6849 17.3045 21.7285 15.75H16C15.0962 15.7494 14.1627 15.4465 13.4456 14.8109C12.7144 14.163 12.2507 13.2059 12.25 12.0005C12.2493 10.7944 12.7132 9.83697 13.4448 9.18892C14.1622 8.55347 15.0958 8.25055 15.9995 8.25H21.7285C21.6849 6.69554 21.5532 5.68476 21.1552 4.83888C20.5359 3.5229 19.4771 2.46408 18.1611 1.84483C16.897 1.25 15.2647 1.25 12 1.25C10.6765 1.25 9.62119 1.25 8.75 1.28964L8.75 22.7104Z" fill="#020203"/>
</svg>
