<svg width="24" height="24" viewBox="0 0 24 24" fill="none" xmlns="http://www.w3.org/2000/svg">
<path opacity="0.4" d="M17.5 12.25C14.3244 12.25 11.75 9.67564 11.75 6.5C11.75 4.18544 13.1176 2.19028 15.0887 1.27849C14.2482 1.25 13.2425 1.25 12 1.25C8.73923 1.25 7.10885 1.25 5.8165 1.76492C3.96695 2.50185 2.50185 3.96695 1.76492 5.8165C1.25 7.10885 1.25 8.73923 1.25 12C1.25 15.2608 1.25 16.8912 1.76492 18.1835C2.50185 20.0331 3.96695 21.4982 5.8165 22.2351C7.10885 22.75 8.73923 22.75 12 22.75C15.2608 22.75 16.8912 22.75 18.1835 22.2351C20.0331 21.4982 21.4982 20.0331 22.2351 18.1835C22.75 16.8912 22.75 15.2608 22.75 12C22.75 10.7575 22.75 9.7518 22.7215 8.91127C21.8097 10.8824 19.8146 12.25 17.5 12.25Z" fill="#020203"/>
<path d="M13 6.5C13 8.98528 15.0147 11 17.5 11C19.9853 11 22 8.98528 22 6.5C22 4.01472 19.9853 2 17.5 2C15.0147 2 13 4.01472 13 6.5Z" fill="#020203"/>
</svg>
