<svg width="24" height="24" viewBox="0 0 24 24" fill="none" xmlns="http://www.w3.org/2000/svg">
<path d="M22 14C22 15.3938 22 16.0907 21.8935 16.6717C21.4067 19.3281 19.3281 21.4067 16.6717 21.8935C16.0907 22 15.3938 22 14 22H12C8.73646 22 7.10469 22 5.83232 21.4273C4.38401 20.7755 3.22448 19.616 2.57265 18.1677C2 16.8953 2 15.2635 2 12V10C2 8.60622 2 7.90933 2.10647 7.32834C2.59328 4.67194 4.67194 2.59328 7.32834 2.10647C7.90933 2 8.60622 2 10 2" stroke="#020203" stroke-width="1.5" stroke-linecap="round"/>
<path d="M13 6.5C13 8.98528 15.0147 11 17.5 11C19.9853 11 22 8.98528 22 6.5C22 4.01472 19.9853 2 17.5 2C15.0147 2 13 4.01472 13 6.5Z" stroke="#020203" stroke-width="1.5" stroke-linecap="round"/>
</svg>
