<svg width="24" height="24" viewBox="0 0 24 24" fill="none" xmlns="http://www.w3.org/2000/svg">
<path opacity="0.4" d="M12.4146 22.75H11.5854C7.1279 22.75 3.27948 19.6282 2.36011 15.2665C1.69592 12.1155 3.10554 8.89038 5.8693 7.23763L7.34444 6.35549C8.29648 5.78616 9.19926 5.13823 10.0433 4.41848L10.7459 3.81942C11.4684 3.20327 12.5316 3.20327 13.2541 3.81942L13.9567 4.41848C14.8007 5.13823 15.7035 5.78616 16.6556 6.35549L18.1307 7.23763C20.8945 8.89038 22.3041 12.1155 21.6399 15.2665C20.7205 19.6282 16.8721 22.75 12.4146 22.75Z" fill="#020203"/>
<path fill-rule="evenodd" clip-rule="evenodd" d="M12 12.25C12.4142 12.25 12.75 12.5858 12.75 13L12.75 15C12.75 15.4142 12.4142 15.75 12 15.75C11.5858 15.75 11.25 15.4142 11.25 15L11.25 13C11.25 12.5858 11.5858 12.25 12 12.25Z" fill="#020203"/>
<path fill-rule="evenodd" clip-rule="evenodd" d="M10.2115 9.76283C10.3425 10.1558 10.1301 10.5805 9.73717 10.7115L9.58322 10.7628C8.18984 11.2273 7.25 12.5312 7.25 14C7.25 15.4687 8.18984 16.7727 9.58322 17.2372L9.34605 17.9487L9.58322 17.2372L9.73717 17.2885C10.1301 17.4195 10.3425 17.8442 10.2115 18.2372C10.0805 18.6301 9.65579 18.8425 9.26283 18.7115L9.10888 18.6602C7.10299 17.9916 5.75 16.1144 5.75 14C5.75 11.8856 7.10299 10.0084 9.10888 9.3398L9.26283 9.28848C9.65579 9.1575 10.0805 9.36987 10.2115 9.76283Z" fill="#020203"/>
<path fill-rule="evenodd" clip-rule="evenodd" d="M13.7885 9.76283C13.9195 9.36987 14.3442 9.1575 14.7372 9.28848L14.8911 9.3398L14.654 10.0513L14.8911 9.3398C16.897 10.0084 18.25 11.8856 18.25 14C18.25 16.1144 16.897 17.9916 14.8911 18.6602L14.7372 18.7115C14.3442 18.8425 13.9195 18.6301 13.7885 18.2372C13.6575 17.8442 13.8699 17.4195 14.2628 17.2885L14.4168 17.2372L14.654 17.9487L14.4168 17.2372C15.8102 16.7727 16.75 15.4687 16.75 14C16.75 12.5312 15.8102 11.2273 14.4168 10.7628L14.2628 10.7115C13.8699 10.5805 13.6575 10.1558 13.7885 9.76283Z" fill="#020203"/>
<path fill-rule="evenodd" clip-rule="evenodd" d="M12 1.25C12.4142 1.25 12.75 1.58579 12.75 2L12.75 4C12.75 4.41421 12.4142 4.75 12 4.75C11.5858 4.75 11.25 4.41421 11.25 4L11.25 2C11.25 1.58579 11.5858 1.25 12 1.25Z" fill="#020203"/>
<path fill-rule="evenodd" clip-rule="evenodd" d="M14.5303 1.46967C14.8232 1.76256 14.8232 2.23744 14.5303 2.53033L12.5303 4.53033C12.2374 4.82322 11.7626 4.82322 11.4697 4.53033C11.1768 4.23744 11.1768 3.76256 11.4697 3.46967L13.4697 1.46967C13.7626 1.17678 14.2374 1.17678 14.5303 1.46967Z" fill="#020203"/>
<path fill-rule="evenodd" clip-rule="evenodd" d="M9.46967 1.46967C9.76256 1.17678 10.2374 1.17678 10.5303 1.46967L12.5303 3.46967C12.8232 3.76256 12.8232 4.23744 12.5303 4.53033C12.2374 4.82322 11.7626 4.82322 11.4697 4.53033L9.46967 2.53033C9.17678 2.23744 9.17678 1.76256 9.46967 1.46967Z" fill="#020203"/>
</svg>
