<svg width="24" height="24" viewBox="0 0 24 24" fill="none" xmlns="http://www.w3.org/2000/svg">
<path opacity="0.4" d="M12.6098 22H11.3902C7.36852 22 3.89064 19.1969 3.03632 15.2671C2.41623 12.4147 3.67487 9.48311 6.17002 7.9682L7.48558 7.16947C8.49276 6.55797 9.43744 5.84901 10.306 5.05282L10.8965 4.51154C11.5209 3.93922 12.4791 3.93922 13.1035 4.51154L13.694 5.05282C14.5626 5.84902 15.5072 6.55797 16.5144 7.16947L17.83 7.9682C20.3251 9.48311 21.5838 12.4147 20.9637 15.2671C20.1094 19.1969 16.6315 22 12.6098 22Z" stroke="#020203" stroke-width="1.5" stroke-linecap="round"/>
<path d="M12 13L12 15" stroke="#020203" stroke-width="1.5" stroke-linecap="round"/>
<path d="M9.5 10L9.34605 10.0513C7.64642 10.6179 6.5 12.2084 6.5 14C6.5 15.7916 7.64642 17.3821 9.34605 17.9487L9.5 18" stroke="#020203" stroke-width="1.5" stroke-linecap="round"/>
<path d="M14.5 10L14.6539 10.0513C16.3536 10.6179 17.5 12.2084 17.5 14C17.5 15.7916 16.3536 17.3821 14.6539 17.9487L14.5 18" stroke="#020203" stroke-width="1.5" stroke-linecap="round"/>
<path d="M12 2L12 4" stroke="#020203" stroke-width="1.5" stroke-linecap="round"/>
<path d="M14 2L12 4" stroke="#020203" stroke-width="1.5" stroke-linecap="round"/>
<path d="M10 2L12 4" stroke="#020203" stroke-width="1.5" stroke-linecap="round"/>
</svg>
