<svg width="216" height="72" viewBox="0 0 216 72" fill="none" xmlns="http://www.w3.org/2000/svg">
<g clip-path="url(#clip0_6_10917)">
<path d="M26 39.5C26 35.9101 28.9101 33 32.5 33H39.5C43.0899 33 46 35.9101 46 39.5C46 43.0899 43.0899 46 39.5 46H32.5C28.9101 46 26 43.0899 26 39.5Z" stroke="#020203" stroke-width="1.5"/>
<path d="M33 39.5L33.8621 40.7932C34.4252 41.6379 35.6473 41.6909 36.2815 40.8981L39 37.5" stroke="#020203" stroke-width="1.5" stroke-linecap="round"/>
<path d="M36 26C34.8954 26 34 26.8954 34 28C34 29.1046 34.8954 30 36 30C37.1046 30 38 29.1046 38 28C38 26.8954 37.1046 26 36 26Z" stroke="#020203" stroke-width="1.5" stroke-linecap="round"/>
<path d="M34.7495 29.75L33.6384 32.5" stroke="#020203" stroke-width="1.5" stroke-linecap="round"/>
<path d="M37.25 29.75L38.3611 32.5" stroke="#020203" stroke-width="1.5" stroke-linecap="round"/>
</g>
<g clip-path="url(#clip1_6_10917)">
<path fill-rule="evenodd" clip-rule="evenodd" d="M84 29.25C83.3096 29.25 82.75 28.6904 82.75 28C82.75 27.3096 83.3096 26.75 84 26.75C84.6904 26.75 85.25 27.3096 85.25 28C85.25 28.6904 84.6904 29.25 84 29.25ZM81.25 28C81.25 29.5188 82.4812 30.75 84 30.75C85.5188 30.75 86.75 29.5188 86.75 28C86.75 26.4812 85.5188 25.25 84 25.25C82.4812 25.25 81.25 26.4812 81.25 28Z" fill="#020203"/>
<path fill-rule="evenodd" clip-rule="evenodd" d="M80.5 32.25C76.4959 32.25 73.25 35.4959 73.25 39.5C73.25 43.5041 76.4959 46.75 80.5 46.75H87.5C91.5041 46.75 94.75 43.5041 94.75 39.5C94.75 35.4959 91.5041 32.25 87.5 32.25H80.5ZM87.5857 37.9685C87.8444 37.6451 87.792 37.1731 87.4685 36.9143C87.1451 36.6556 86.6731 36.708 86.4143 37.0315L83.6958 40.4296C83.3787 40.826 82.7677 40.7995 82.4861 40.3771L81.624 39.084C81.3943 38.7393 80.9286 38.6462 80.584 38.876C80.2393 39.1057 80.1462 39.5714 80.376 39.916L81.2381 41.2092C82.0828 42.4762 83.9158 42.5558 84.8671 41.3667L87.5857 37.9685Z" fill="#020203"/>
<path fill-rule="evenodd" clip-rule="evenodd" d="M83.0305 29.0546C83.4145 29.2098 83.6001 29.6469 83.4449 30.0309L81.9465 33.7397C81.7913 34.1237 81.3542 34.3093 80.9701 34.1541C80.5861 33.999 80.4005 33.5618 80.5557 33.1778L82.0541 29.469C82.2093 29.085 82.6464 28.8994 83.0305 29.0546Z" fill="#020203"/>
<path fill-rule="evenodd" clip-rule="evenodd" d="M84.9691 29.0546C85.3531 28.8994 85.7902 29.085 85.9454 29.469L87.4438 33.1778C87.599 33.5618 87.4135 33.999 87.0294 34.1541C86.6454 34.3093 86.2082 34.1237 86.0531 33.7397L84.5546 30.031C84.3995 29.6469 84.585 29.2098 84.9691 29.0546Z" fill="#020203"/>
</g>
<g clip-path="url(#clip2_6_10917)">
<path fill-rule="evenodd" clip-rule="evenodd" d="M132 29.25C131.31 29.25 130.75 28.6904 130.75 28C130.75 27.3096 131.31 26.75 132 26.75C132.69 26.75 133.25 27.3096 133.25 28C133.25 28.6904 132.69 29.25 132 29.25ZM129.25 28C129.25 29.5188 130.481 30.75 132 30.75C133.519 30.75 134.75 29.5188 134.75 28C134.75 26.4812 133.519 25.25 132 25.25C130.481 25.25 129.25 26.4812 129.25 28Z" fill="#020203"/>
<path opacity="0.4" d="M121.25 39.5C121.25 35.4959 124.496 32.25 128.5 32.25H135.5C139.504 32.25 142.75 35.4959 142.75 39.5C142.75 43.5041 139.504 46.75 135.5 46.75H128.5C124.496 46.75 121.25 43.5041 121.25 39.5Z" fill="#020203"/>
<path fill-rule="evenodd" clip-rule="evenodd" d="M135.469 36.9143C135.792 37.1731 135.844 37.6451 135.586 37.9685L132.867 41.3667C131.916 42.5558 130.083 42.4762 129.238 41.2092L128.376 39.916C128.146 39.5714 128.239 39.1057 128.584 38.876C128.929 38.6462 129.394 38.7393 129.624 39.084L130.486 40.3771C130.768 40.7995 131.379 40.826 131.696 40.4296L134.414 37.0315C134.673 36.708 135.145 36.6556 135.469 36.9143Z" fill="#020203"/>
<path fill-rule="evenodd" clip-rule="evenodd" d="M131.03 29.0546C131.415 29.2098 131.6 29.6469 131.445 30.0309L129.946 33.7397C129.791 34.1237 129.354 34.3093 128.97 34.1541C128.586 33.999 128.401 33.5618 128.556 33.1778L130.054 29.469C130.209 29.085 130.646 28.8994 131.03 29.0546Z" fill="#020203"/>
<path fill-rule="evenodd" clip-rule="evenodd" d="M132.969 29.0546C133.353 28.8994 133.79 29.085 133.945 29.469L135.444 33.1778C135.599 33.5618 135.413 33.999 135.029 34.1541C134.645 34.3093 134.208 34.1237 134.053 33.7397L132.555 30.031C132.399 29.6469 132.585 29.2098 132.969 29.0546Z" fill="#020203"/>
</g>
<g clip-path="url(#clip3_6_10917)">
<path opacity="0.4" d="M170 39.5C170 35.9101 172.91 33 176.5 33H183.5C187.09 33 190 35.9101 190 39.5C190 43.0899 187.09 46 183.5 46H176.5C172.91 46 170 43.0899 170 39.5Z" stroke="#020203" stroke-width="1.5"/>
<path d="M177 39.5L177.862 40.7932C178.425 41.6379 179.647 41.6909 180.281 40.8981L183 37.5" stroke="#020203" stroke-width="1.5" stroke-linecap="round"/>
<path d="M180 26C178.895 26 178 26.8954 178 28C178 29.1046 178.895 30 180 30C181.105 30 182 29.1046 182 28C182 26.8954 181.105 26 180 26Z" stroke="#020203" stroke-width="1.5" stroke-linecap="round"/>
<path d="M178.75 29.75L177.638 32.5" stroke="#020203" stroke-width="1.5" stroke-linecap="round"/>
<path d="M181.25 29.75L182.361 32.5" stroke="#020203" stroke-width="1.5" stroke-linecap="round"/>
</g>
<rect x="0.5" y="0.5" width="215" height="71" rx="15.5" stroke="#D9D9D9"/>
<defs>
<clipPath id="clip0_6_10917">
<rect width="24" height="24" fill="white" transform="translate(24 24)"/>
</clipPath>
<clipPath id="clip1_6_10917">
<rect width="24" height="24" fill="white" transform="translate(72 24)"/>
</clipPath>
<clipPath id="clip2_6_10917">
<rect width="24" height="24" fill="white" transform="translate(120 24)"/>
</clipPath>
<clipPath id="clip3_6_10917">
<rect width="24" height="24" fill="white" transform="translate(168 24)"/>
</clipPath>
</defs>
</svg>
