<svg width="24" height="24" viewBox="0 0 24 24" fill="none" xmlns="http://www.w3.org/2000/svg">
<path opacity="0.4" d="M21.25 14C21.25 18.8325 17.1086 22.75 12 22.75C6.89137 22.75 2.75 18.8325 2.75 14C2.75 9.16751 6.89137 5.25 12 5.25C17.1086 5.25 21.25 9.16751 21.25 14Z" fill="#020203"/>
<path fill-rule="evenodd" clip-rule="evenodd" d="M10.9926 17.5C10.9926 16.9477 11.4403 16.5 11.9926 16.5H12.0015C12.5538 16.5 13.0015 16.9477 13.0015 17.5C13.0015 18.0523 12.5538 18.5 12.0015 18.5H11.9926C11.4403 18.5 10.9926 18.0523 10.9926 17.5Z" fill="#020203"/>
<path fill-rule="evenodd" clip-rule="evenodd" d="M6.99451 17.5C6.99451 16.9477 7.44222 16.5 7.99451 16.5H8.00349C8.55577 16.5 9.00349 16.9477 9.00349 17.5C9.00349 18.0523 8.55577 18.5 8.00349 18.5H7.99451C7.44222 18.5 6.99451 18.0523 6.99451 17.5Z" fill="#020203"/>
<path fill-rule="evenodd" clip-rule="evenodd" d="M8.99451 14.5C8.99451 13.9477 9.44222 13.5 9.99451 13.5H10.0035C10.5558 13.5 11.0035 13.9477 11.0035 14.5C11.0035 15.0523 10.5558 15.5 10.0035 15.5H9.99451C9.44222 15.5 8.99451 15.0523 8.99451 14.5Z" fill="#020203"/>
<path fill-rule="evenodd" clip-rule="evenodd" d="M8.52426 2.76252C8.10237 3.85332 8.83393 5.05845 10.0097 5.17602L10.7323 5.24828C10.7366 5.24871 10.7381 5.24815 10.7387 5.24793C10.7401 5.24748 10.7423 5.24637 10.7447 5.2442C10.7471 5.24203 10.7484 5.23992 10.749 5.23862L10.749 5.23859C10.7493 5.23795 10.75 5.23645 10.75 5.23226V4.73031C10.75 3.55393 9.70307 2.63133 8.52426 2.76252ZM8.24894 1.28562C10.3379 0.987204 12.25 2.60098 12.25 4.73031V5.23226C12.25 6.12922 11.4756 6.83009 10.5831 6.74084L9.86044 6.66858C7.65419 6.44795 6.29713 4.14828 7.17054 2.11031L7.8599 2.40575L7.17054 2.11031C7.36214 1.66325 7.77487 1.35335 8.24894 1.28562Z" fill="#020203"/>
<path fill-rule="evenodd" clip-rule="evenodd" d="M11.75 4.43644C11.75 2.45455 13.5417 0.955404 15.4916 1.29929C15.8997 1.37127 16.253 1.62636 16.4493 1.992C17.5171 3.98001 16.2211 6.41488 13.9757 6.63942L13.3534 6.70166C12.4949 6.7875 11.75 6.11337 11.75 5.25063V4.43644ZM15.1605 2.76554C14.155 2.63064 13.25 3.41304 13.25 4.43644V5.20451L13.8264 5.14687C14.9839 5.03112 15.6618 3.79907 15.1605 2.76554ZM13.2041 5.2091C13.2041 5.2091 13.2041 5.2091 13.2042 5.2091L13.2041 5.2091Z" fill="#020203"/>
<path fill-rule="evenodd" clip-rule="evenodd" d="M12 1.25C12.4142 1.25 12.75 1.58579 12.75 2V6C12.75 6.41421 12.4142 6.75 12 6.75C11.5858 6.75 11.25 6.41421 11.25 6V2C11.25 1.58579 11.5858 1.25 12 1.25Z" fill="#020203"/>
</svg>
