<svg width="24" height="24" viewBox="0 0 24 24" fill="none" xmlns="http://www.w3.org/2000/svg">
<path opacity="0.4" d="M20.5 14C20.5 18.4183 16.6944 22 12 22C7.30558 22 3.5 18.4183 3.5 14C3.5 9.58172 7.30558 6 12 6C16.6944 6 20.5 9.58172 20.5 14Z" stroke="#020203" stroke-width="1.5"/>
<path d="M12 6V2" stroke="#020203" stroke-width="1.5" stroke-linecap="round"/>
<path d="M10.6576 5.99453L10.583 6.74081H10.583L10.6576 5.99453ZM9.93496 5.92227L10.0096 5.17599H10.0096L9.93496 5.92227ZM8.35489 2.02805L8.24883 1.28559H8.24883L8.35489 2.02805ZM7.85979 2.40571L7.17043 2.11027L7.17043 2.11027L7.85979 2.40571ZM10.7322 5.24825L10.0096 5.17599L9.86033 6.66854L10.583 6.74081L10.7322 5.24825ZM10.7499 4.73027V5.23223H12.2499V4.73027H10.7499ZM8.46096 2.77051C9.66529 2.59847 10.7499 3.53291 10.7499 4.73027H12.2499C12.2499 2.60095 10.3378 0.98717 8.24883 1.28559L8.46096 2.77051ZM8.54915 2.70115C8.53159 2.74214 8.49768 2.76527 8.46096 2.77051L8.24883 1.28559C7.77476 1.35331 7.36203 1.66322 7.17043 2.11027L8.54915 2.70115ZM10.0096 5.17599C8.81174 5.0562 8.07495 3.80763 8.54915 2.70115L7.17043 2.11027C6.29702 4.14824 7.65409 6.44792 9.86033 6.66854L10.0096 5.17599ZM10.583 6.74081C11.4755 6.83006 12.2499 6.12919 12.2499 5.23223H10.7499C10.7499 5.23649 10.7492 5.23797 10.7489 5.23859C10.7483 5.23988 10.747 5.24199 10.7446 5.24417C10.7422 5.24634 10.74 5.24744 10.7386 5.2479C10.738 5.24812 10.7365 5.24867 10.7322 5.24825L10.583 6.74081Z" fill="#020203"/>
<path d="M13.2787 5.95519L13.2041 5.20891H13.2041L13.2787 5.95519ZM13.9011 5.89296L13.8264 5.14668H13.8264L13.9011 5.89296ZM15.3613 2.0377L15.231 2.7763L15.3613 2.0377ZM15.7886 2.34669L16.4493 1.99181L15.7886 2.34669ZM13.3534 6.70147L13.9757 6.63923L13.8264 5.14668L13.2041 5.20891L13.3534 6.70147ZM11.75 4.43625V5.25044H13.25V4.43625H11.75ZM15.4916 1.2991C13.5417 0.955214 11.75 2.45436 11.75 4.43625H13.25C13.25 3.38896 14.1977 2.59406 15.231 2.7763L15.4916 1.2991ZM16.4493 1.99181C16.253 1.62617 15.8997 1.37108 15.4916 1.2991L15.231 2.7763C15.1872 2.76858 15.1492 2.74128 15.1279 2.70156L16.4493 1.99181ZM13.9757 6.63923C16.2211 6.41469 17.5171 3.97982 16.4493 1.99181L15.1279 2.70156C15.6896 3.7475 15.0078 5.02854 13.8264 5.14668L13.9757 6.63923ZM13.2041 5.20891C13.2287 5.20645 13.25 5.22575 13.25 5.25044H11.75C11.75 6.11318 12.4949 6.78731 13.3534 6.70147L13.2041 5.20891Z" fill="#020203"/>
<path d="M11.9926 17.5H12.0015" stroke="#020203" stroke-width="2" stroke-linecap="round" stroke-linejoin="round"/>
<path d="M7.99451 17.5H8.00349" stroke="#020203" stroke-width="2" stroke-linecap="round" stroke-linejoin="round"/>
<path d="M9.99451 14.5H10.0035" stroke="#020203" stroke-width="2" stroke-linecap="round" stroke-linejoin="round"/>
</svg>
