<svg width="24" height="24" viewBox="0 0 24 24" fill="none" xmlns="http://www.w3.org/2000/svg">
<path fill-rule="evenodd" clip-rule="evenodd" d="M12 22.75C17.1086 22.75 21.25 18.8325 21.25 14C21.25 9.16751 17.1086 5.25 12 5.25C6.89137 5.25 2.75 9.16751 2.75 14C2.75 18.8325 6.89137 22.75 12 22.75ZM11.9926 16.5C11.4403 16.5 10.9926 16.9477 10.9926 17.5C10.9926 18.0523 11.4403 18.5 11.9926 18.5H12.0015C12.5538 18.5 13.0015 18.0523 13.0015 17.5C13.0015 16.9477 12.5538 16.5 12.0015 16.5H11.9926ZM6.99451 17.5C6.99451 16.9477 7.44222 16.5 7.99451 16.5H8.00349C8.55577 16.5 9.00349 16.9477 9.00349 17.5C9.00349 18.0523 8.55577 18.5 8.00349 18.5H7.99451C7.44222 18.5 6.99451 18.0523 6.99451 17.5ZM9.99451 13.5C9.44222 13.5 8.99451 13.9477 8.99451 14.5C8.99451 15.0523 9.44222 15.5 9.99451 15.5H10.0035C10.5558 15.5 11.0035 15.0523 11.0035 14.5C11.0035 13.9477 10.5558 13.5 10.0035 13.5H9.99451Z" fill="#020203"/>
<path fill-rule="evenodd" clip-rule="evenodd" d="M8.52426 2.76249C8.10237 3.85329 8.83393 5.05842 10.0097 5.17599L10.7323 5.24825C10.7366 5.24868 10.7381 5.24812 10.7387 5.2479C10.7401 5.24744 10.7423 5.24634 10.7447 5.24417C10.7471 5.242 10.7484 5.23989 10.749 5.23859L10.749 5.23856C10.7493 5.23791 10.75 5.23642 10.75 5.23223V4.73028C10.75 3.5539 9.70307 2.6313 8.52426 2.76249ZM8.24894 1.28559C10.3379 0.987173 12.25 2.60095 12.25 4.73028V5.23223C12.25 6.12919 11.4756 6.83006 10.5831 6.74081L9.86044 6.66855C7.65419 6.44792 6.29713 4.14825 7.17054 2.11028L7.8599 2.40572L7.17054 2.11028C7.36214 1.66322 7.77487 1.35332 8.24894 1.28559Z" fill="#020203"/>
<path fill-rule="evenodd" clip-rule="evenodd" d="M11.75 4.43625C11.75 2.45436 13.5417 0.955213 15.4916 1.2991C15.8997 1.37108 16.253 1.62617 16.4493 1.99181C17.5171 3.97982 16.2211 6.41469 13.9757 6.63923L13.3534 6.70147C12.4949 6.78731 11.75 6.11318 11.75 5.25044V4.43625ZM15.1605 2.76535C14.155 2.63045 13.25 3.41285 13.25 4.43625V5.20432L13.8264 5.14668C14.9839 5.03093 15.6618 3.79888 15.1605 2.76535ZM13.2041 5.20891C13.2041 5.20891 13.2041 5.20891 13.2042 5.2089L13.2041 5.20891Z" fill="#020203"/>
<path fill-rule="evenodd" clip-rule="evenodd" d="M12 1.25C12.4142 1.25 12.75 1.58579 12.75 2V6C12.75 6.41421 12.4142 6.75 12 6.75C11.5858 6.75 11.25 6.41421 11.25 6V2C11.25 1.58579 11.5858 1.25 12 1.25Z" fill="#020203"/>
</svg>
