<svg width="24" height="24" viewBox="0 0 24 24" fill="none" xmlns="http://www.w3.org/2000/svg">
<path d="M20.5 14C20.5 18.4183 16.6944 22 12 22C7.30558 22 3.5 18.4183 3.5 14C3.5 9.58172 7.30558 6 12 6C16.6944 6 20.5 9.58172 20.5 14Z" stroke="#020203" stroke-width="1.5"/>
<path d="M11.9926 17.5H12.0015" stroke="#020203" stroke-width="2" stroke-linecap="round" stroke-linejoin="round"/>
<path d="M7.99451 17.5H8.00349" stroke="#020203" stroke-width="2" stroke-linecap="round" stroke-linejoin="round"/>
<path d="M9.99451 14.5H10.0035" stroke="#020203" stroke-width="2" stroke-linecap="round" stroke-linejoin="round"/>
<path d="M12 6V2" stroke="#020203" stroke-width="1.5" stroke-linecap="round"/>
<path d="M10.6576 5.99487L10.583 6.74115H10.583L10.6576 5.99487ZM9.93502 5.92261L10.0096 5.17633H10.0096L9.93502 5.92261ZM8.35496 2.02839L8.24889 1.28593H8.24889L8.35496 2.02839ZM7.85985 2.40606L7.1705 2.11062L7.1705 2.11062L7.85985 2.40606ZM10.7323 5.24859L10.0096 5.17633L9.86039 6.66889L10.583 6.74115L10.7323 5.24859ZM10.75 4.73062V5.23257H12.25V4.73062H10.75ZM8.46102 2.77086C9.66535 2.59881 10.75 3.53326 10.75 4.73062H12.25C12.25 2.60129 10.3378 0.987513 8.24889 1.28593L8.46102 2.77086ZM8.54921 2.7015C8.53165 2.74248 8.49774 2.76561 8.46102 2.77086L8.24889 1.28593C7.77482 1.35365 7.36209 1.66356 7.1705 2.11062L8.54921 2.7015ZM10.0096 5.17633C8.8118 5.05655 8.07501 3.80798 8.54921 2.7015L7.1705 2.11062C6.29708 4.14859 7.65415 6.44826 9.86039 6.66889L10.0096 5.17633ZM10.583 6.74115C11.4755 6.8304 12.25 6.12953 12.25 5.23257H10.75C10.75 5.23683 10.7493 5.23831 10.749 5.23893C10.7484 5.24023 10.7471 5.24234 10.7447 5.24451C10.7423 5.24668 10.74 5.24778 10.7387 5.24824C10.7381 5.24846 10.7365 5.24902 10.7323 5.24859L10.583 6.74115Z" fill="#020203"/>
<path d="M13.2787 5.95533L13.2041 5.20905H13.2041L13.2787 5.95533ZM13.9011 5.89309L13.8264 5.14682H13.8264L13.9011 5.89309ZM15.3613 2.03784L15.231 2.77644L15.3613 2.03784ZM15.7886 2.34682L16.4493 1.99195L15.7886 2.34682ZM13.3534 6.7016L13.9757 6.63937L13.8264 5.14682L13.2041 5.20905L13.3534 6.7016ZM11.75 4.43638V5.25058H13.25V4.43638H11.75ZM15.4916 1.29924C13.5417 0.955351 11.75 2.4545 11.75 4.43638H13.25C13.25 3.3891 14.1977 2.5942 15.231 2.77644L15.4916 1.29924ZM16.4493 1.99195C16.253 1.62631 15.8997 1.37122 15.4916 1.29924L15.231 2.77644C15.1872 2.76872 15.1492 2.74141 15.1279 2.7017L16.4493 1.99195ZM13.9757 6.63937C16.2211 6.41483 17.5171 3.97996 16.4493 1.99195L15.1279 2.7017C15.6896 3.74764 15.0078 5.02868 13.8264 5.14682L13.9757 6.63937ZM13.2041 5.20905C13.2287 5.20659 13.25 5.22589 13.25 5.25058H11.75C11.75 6.11332 12.4949 6.78745 13.3534 6.7016L13.2041 5.20905Z" fill="#020203"/>
</svg>
