<svg width="24" height="24" viewBox="0 0 24 24" fill="none" xmlns="http://www.w3.org/2000/svg">
<path fill-rule="evenodd" clip-rule="evenodd" d="M18 19.25C18.4142 19.25 18.75 19.5858 18.75 20L18.75 22C18.75 22.4142 18.4142 22.75 18 22.75C17.5858 22.75 17.25 22.4142 17.25 22L17.25 20C17.25 19.5858 17.5858 19.25 18 19.25Z" fill="#020203"/>
<path fill-rule="evenodd" clip-rule="evenodd" d="M6 19.25C6.41421 19.25 6.75 19.5858 6.75 20L6.75 22C6.75 22.4142 6.41421 22.75 6 22.75C5.58579 22.75 5.25 22.4142 5.25 22L5.25 20C5.25 19.5858 5.58579 19.25 6 19.25Z" fill="#020203"/>
<path d="M9.375 10.75C7.95469 10.75 6.75 11.9594 6.75 13.5C6.75 14.2661 7.04672 14.9517 7.52984 15.4527C8.01252 15.9533 8.6613 16.25 9.375 16.25H14.625C16.0453 16.25 17.25 15.0406 17.25 13.5C17.25 12.7339 16.9533 12.0483 16.4702 11.5473C15.9875 11.0467 15.3387 10.75 14.625 10.75H9.375Z" fill="#020203"/>
<path fill-rule="evenodd" clip-rule="evenodd" d="M1.25 11.5C1.25 8.70762 1.25 7.31142 1.62951 6.18506C2.35288 4.0382 4.0382 2.35288 6.18506 1.62951C7.31142 1.25 8.70762 1.25 11.5 1.25H12.5C15.2924 1.25 16.6886 1.25 17.8149 1.62951C19.9618 2.35288 21.6471 4.0382 22.3705 6.18506C22.75 7.31142 22.75 8.70762 22.75 11.5C22.75 14.2924 22.75 15.6886 22.3705 16.8149C21.6471 18.9618 19.9618 20.6471 17.8149 21.3705C16.6886 21.75 15.2924 21.75 12.5 21.75H11.5C8.70762 21.75 7.31142 21.75 6.18506 21.3705C4.0382 20.6471 2.35288 18.9618 1.62951 16.8149C1.25 15.6886 1.25 14.2924 1.25 11.5ZM5.25 13.5C5.25 11.1828 7.07531 9.25 9.375 9.25H14.625C15.7713 9.25 16.8026 9.73107 17.5499 10.5061C18.2968 11.2806 18.75 12.3372 18.75 13.5C18.75 15.8172 16.9247 17.75 14.625 17.75H9.375C8.2287 17.75 7.1974 17.2689 6.45008 16.4939C5.7032 15.7194 5.25 14.6628 5.25 13.5ZM6.49451 5.5C5.94222 5.5 5.49451 5.94772 5.49451 6.5C5.49451 7.05228 5.94222 7.5 6.49451 7.5H6.50349C7.05577 7.5 7.50349 7.05228 7.50349 6.5C7.50349 5.94772 7.05577 5.5 6.50349 5.5H6.49451ZM9.49451 6.5C9.49451 5.94772 9.94222 5.5 10.4945 5.5H10.5035C11.0558 5.5 11.5035 5.94772 11.5035 6.5C11.5035 7.05228 11.0558 7.5 10.5035 7.5H10.4945C9.94222 7.5 9.49451 7.05228 9.49451 6.5ZM17.4945 5.5C16.9422 5.5 16.4945 5.94772 16.4945 6.5C16.4945 7.05228 16.9422 7.5 17.4945 7.5H17.5035C18.0558 7.5 18.5035 7.05228 18.5035 6.5C18.5035 5.94772 18.0558 5.5 17.5035 5.5H17.4945Z" fill="#020203"/>
</svg>
