<svg width="24" height="24" viewBox="0 0 24 24" fill="none" xmlns="http://www.w3.org/2000/svg">
<path fill-rule="evenodd" clip-rule="evenodd" d="M7.25 1.40526C6.70468 1.48154 6.24224 1.59529 5.8165 1.76492C3.96695 2.50185 2.50185 3.96695 1.76492 5.8165C1.25 7.10885 1.25 8.73923 1.25 12C1.25 15.2608 1.25 16.8912 1.76492 18.1835C2.50185 20.0331 3.96695 21.4982 5.8165 22.2351C7.10885 22.75 8.73923 22.75 12 22.75C15.2608 22.75 16.8912 22.75 18.1835 22.2351C20.0331 21.4982 21.4982 20.0331 22.2351 18.1835C22.75 16.8912 22.75 15.2608 22.75 12C22.75 8.73923 22.75 7.10885 22.2351 5.8165C21.4982 3.96695 20.0331 2.50185 18.1835 1.76492C17.7578 1.59529 17.2953 1.48154 16.75 1.40526V3.75C16.75 5.95914 14.9591 7.75 12.75 7.75H11.25C9.04086 7.75 7.25 5.95914 7.25 3.75V1.40526ZM6.25 18C6.25 17.5858 6.58579 17.25 7 17.25H9C9.41421 17.25 9.75 17.5858 9.75 18C9.75 18.4142 9.41421 18.75 9 18.75H7C6.58579 18.75 6.25 18.4142 6.25 18Z" fill="#020203"/>
<path d="M15.25 1.28439C14.3775 1.25 13.3229 1.25 12 1.25C10.6771 1.25 9.62251 1.25 8.75 1.28439V3.75C8.75 5.13071 9.86929 6.25 11.25 6.25H12.75C14.1307 6.25 15.25 5.13071 15.25 3.75V1.28439Z" fill="#020203"/>
</svg>
