<svg width="24" height="24" viewBox="0 0 24 24" fill="none" xmlns="http://www.w3.org/2000/svg">
<path d="M12 1.25C13.3229 1.25 14.3775 1.25 15.25 1.28439V3C15.25 3.79214 15.238 4.5692 14.8699 5.17129C14.5549 5.68659 13.8527 6.25 12 6.25C10.1626 6.25 9.4578 5.68789 9.13874 5.16943C8.76767 4.56644 8.75 3.78661 8.75 3V1.28439C9.62251 1.25 10.6771 1.25 12 1.25Z" fill="#020203"/>
<path opacity="0.32" d="M5.8165 1.76492C6.24224 1.59529 6.70468 1.48154 7.25 1.40526L7.24998 3.05696C7.24952 3.77704 7.24877 4.96027 7.86126 5.95557C8.52768 7.03851 9.78246 7.72048 11.8629 7.74906L11.8633 7.75H12.1726L12.1728 7.74852C14.2425 7.7129 15.4894 7.03368 16.1497 5.9537C16.7524 4.96782 16.751 3.79611 16.7501 3.07884L16.75 1.40526C17.2953 1.48154 17.7578 1.59529 18.1835 1.76492C20.0331 2.50185 21.4982 3.96695 22.2351 5.8165C22.75 7.10885 22.75 8.73923 22.75 12C22.75 13.2425 22.75 14.2482 22.7215 15.0887C21.8097 13.1176 19.8146 11.75 17.5 11.75C14.3244 11.75 11.75 14.3244 11.75 17.5C11.75 19.8146 13.1176 21.8097 15.0887 22.7215C14.2482 22.75 13.2425 22.75 12 22.75C8.73923 22.75 7.10885 22.75 5.8165 22.2351C3.96695 21.4982 2.50185 20.0331 1.76492 18.1835C1.25 16.8912 1.25 15.2608 1.25 12C1.25 8.73923 1.25 7.10885 1.76492 5.8165C2.50185 3.96695 3.96695 2.50185 5.8165 1.76492Z" fill="#020203"/>
<path fill-rule="evenodd" clip-rule="evenodd" d="M6.25 18C6.25 17.5858 6.58579 17.25 7 17.25H9C9.41421 17.25 9.75 17.5858 9.75 18C9.75 18.4142 9.41421 18.75 9 18.75H7C6.58579 18.75 6.25 18.4142 6.25 18Z" fill="#020203"/>
<path fill-rule="evenodd" clip-rule="evenodd" d="M17.5 22C15.0147 22 13 19.9853 13 17.5C13 15.0147 15.0147 13 17.5 13C19.9853 13 22 15.0147 22 17.5C22 19.9853 19.9853 22 17.5 22ZM19.7803 17.2803C20.0732 16.9874 20.0732 16.5126 19.7803 16.2197C19.4874 15.9268 19.0126 15.9268 18.7197 16.2197L17.6036 17.3358C17.4083 17.531 17.0917 17.531 16.8964 17.3358L16.2803 16.7197C15.9874 16.4268 15.5126 16.4268 15.2197 16.7197C14.9268 17.0126 14.9268 17.4874 15.2197 17.7803L15.8358 18.3964C16.6168 19.1775 17.8832 19.1775 18.6642 18.3964L19.7803 17.2803Z" fill="#020203"/>
</svg>
