<svg width="24" height="24" viewBox="0 0 24 24" fill="none" xmlns="http://www.w3.org/2000/svg">
<path d="M2 17C2 15.6036 2 14.9053 2.19641 14.344C2.5482 13.3387 3.33866 12.5482 4.34402 12.1964C4.90533 12 5.60355 12 7 12C8.39645 12 9.09467 12 9.65598 12.1964C10.6613 12.5482 11.4518 13.3387 11.8036 14.344C12 14.9053 12 15.6036 12 17C12 18.3964 12 19.0947 11.8036 19.656C11.4518 20.6613 10.6613 21.4518 9.65598 21.8036C9.09467 22 8.39645 22 7 22C5.60355 22 4.90533 22 4.34402 21.8036C3.33866 21.4518 2.5482 20.6613 2.19641 19.656C2 19.0947 2 18.3964 2 17Z" stroke="#020203" stroke-width="1.5"/>
<path d="M5 19H6" stroke="#020203" stroke-width="1.5" stroke-linecap="round"/>
<path d="M12 17C12 15.6036 12 14.9053 12.1964 14.344C12.5482 13.3387 13.3387 12.5482 14.344 12.1964C14.9053 12 15.6036 12 17 12C18.3964 12 19.0947 12 19.656 12.1964C20.6613 12.5482 21.4518 13.3387 21.8036 14.344C22 14.9053 22 15.6036 22 17C22 18.3964 22 19.0947 21.8036 19.656C21.4518 20.6613 20.6613 21.4518 19.656 21.8036C19.0947 22 18.3964 22 17 22C15.6036 22 14.9053 22 14.344 21.8036C13.3387 21.4518 12.5482 20.6613 12.1964 19.656C12 19.0947 12 18.3964 12 17Z" stroke="#020203" stroke-width="1.5"/>
<path d="M7 7C7 5.60355 7 4.90533 7.19641 4.34402C7.5482 3.33866 8.33866 2.5482 9.34402 2.19641C9.90533 2 10.6036 2 12 2C13.3964 2 14.0947 2 14.656 2.19641C15.6613 2.5482 16.4518 3.33866 16.8036 4.34402C17 4.90533 17 5.60355 17 7C17 8.39645 17 9.09467 16.8036 9.65598C16.4518 10.6613 15.6613 11.4518 14.656 11.8036C14.0947 12 13.3964 12 12 12C10.6036 12 9.90533 12 9.34402 11.8036C8.33866 11.4518 7.5482 10.6613 7.19641 9.65598C7 9.09467 7 8.39645 7 7Z" stroke="#020203" stroke-width="1.5"/>
<path d="M10 9H11" stroke="#020203" stroke-width="1.5" stroke-linecap="round"/>
<path d="M15 19H16" stroke="#020203" stroke-width="1.5" stroke-linecap="round"/>
</svg>
