<svg width="24" height="24" viewBox="0 0 24 24" fill="none" xmlns="http://www.w3.org/2000/svg">
<path fill-rule="evenodd" clip-rule="evenodd" d="M1.41224 14.3369C1.25 14.9072 1.25 15.6048 1.25 17C1.25 18.3952 1.25 19.0928 1.41224 19.6631C1.81499 21.0786 2.92141 22.185 4.33693 22.5878C4.90715 22.75 5.60477 22.75 7 22.75C8.39523 22.75 9.09285 22.75 9.66307 22.5878C11.0786 22.185 12.185 21.0786 12.5878 19.6631C12.75 19.0928 12.75 18.3952 12.75 17C12.75 15.6048 12.75 14.9072 12.5878 14.3369C12.185 12.9214 11.0786 11.815 9.66307 11.4122C9.09285 11.25 8.39523 11.25 7 11.25C5.60477 11.25 4.90715 11.25 4.33693 11.4122C2.92141 11.815 1.81499 12.9214 1.41224 14.3369ZM5 18.25C4.58579 18.25 4.25 18.5858 4.25 19C4.25 19.4142 4.58579 19.75 5 19.75H6C6.41421 19.75 6.75 19.4142 6.75 19C6.75 18.5858 6.41421 18.25 6 18.25H5Z" fill="#020203"/>
<path fill-rule="evenodd" clip-rule="evenodd" d="M6.41224 4.33693C6.25 4.90715 6.25 5.60477 6.25 7C6.25 8.39523 6.25 9.09285 6.41224 9.66307C6.81499 11.0786 7.92141 12.185 9.33693 12.5878C9.90715 12.75 10.6048 12.75 12 12.75C13.3952 12.75 14.0928 12.75 14.6631 12.5878C16.0786 12.185 17.185 11.0786 17.5878 9.66307C17.75 9.09285 17.75 8.39523 17.75 7C17.75 5.60477 17.75 4.90715 17.5878 4.33693C17.185 2.92141 16.0786 1.81499 14.6631 1.41224C14.0928 1.25 13.3952 1.25 12 1.25C10.6048 1.25 9.90715 1.25 9.33693 1.41224C7.92141 1.81499 6.81499 2.92141 6.41224 4.33693ZM10 8.25C9.58579 8.25 9.25 8.58579 9.25 9C9.25 9.41421 9.58579 9.75 10 9.75H11C11.4142 9.75 11.75 9.41421 11.75 9C11.75 8.58579 11.4142 8.25 11 8.25H10Z" fill="#020203"/>
<path fill-rule="evenodd" clip-rule="evenodd" d="M11.4122 14.3369C11.25 14.9072 11.25 15.6048 11.25 17C11.25 18.3952 11.25 19.0928 11.4122 19.6631C11.815 21.0786 12.9214 22.185 14.3369 22.5878C14.9072 22.75 15.6048 22.75 17 22.75C18.3952 22.75 19.0928 22.75 19.6631 22.5878C21.0786 22.185 22.185 21.0786 22.5878 19.6631C22.75 19.0928 22.75 18.3952 22.75 17C22.75 15.6048 22.75 14.9072 22.5878 14.3369C22.185 12.9214 21.0786 11.815 19.6631 11.4122C19.0928 11.25 18.3952 11.25 17 11.25C15.6048 11.25 14.9072 11.25 14.3369 11.4122C12.9214 11.815 11.815 12.9214 11.4122 14.3369ZM15 18.25C14.5858 18.25 14.25 18.5858 14.25 19C14.25 19.4142 14.5858 19.75 15 19.75H16C16.4142 19.75 16.75 19.4142 16.75 19C16.75 18.5858 16.4142 18.25 16 18.25H15Z" fill="#020203"/>
</svg>
