<svg width="24" height="24" viewBox="0 0 24 24" fill="none" xmlns="http://www.w3.org/2000/svg">
<path d="M4.91303 4.25218L5.82605 3.70436C9.62624 1.42425 14.3738 1.42425 18.174 3.70436L19.087 4.25218C20.8942 5.33652 22 7.28956 22 9.39714V14.6029C22 16.7104 20.8942 18.6635 19.087 19.7478L18.1739 20.2956C14.3738 22.5757 9.62624 22.5757 5.82605 20.2956L4.91303 19.7478C3.10579 18.6635 2 16.7104 2 14.6029V9.39714C2 7.28956 3.10579 5.33652 4.91303 4.25218Z" stroke="#020203" stroke-width="1.5" stroke-linecap="round" stroke-linejoin="round"/>
<path d="M5.06787 12.8301C6.15891 13.6533 6.78718 13.9343 7.93209 14.1703" stroke="#020203" stroke-width="1.5" stroke-linecap="round" stroke-linejoin="round"/>
<path d="M3 6L12 12L21 6" stroke="#020203" stroke-width="1.5" stroke-linecap="round" stroke-linejoin="round"/>
<path d="M7.25 3.25L17.25 8.75V12.25" stroke="#020203" stroke-width="1.5" stroke-linecap="round"/>
<path d="M12 22V11" stroke="#020203" stroke-width="1.5" stroke-linecap="round"/>
</svg>
