<svg width="24" height="24" viewBox="0 0 24 24" fill="none" xmlns="http://www.w3.org/2000/svg">
<path opacity="0.4" d="M21.2498 17.5556L20.5659 17.2477L20.5659 17.2477L21.2498 17.5556ZM21.2498 6.44444L20.5659 6.75227L20.5659 6.75227L21.2498 6.44444ZM2.80176 6.44444L3.4827 6.75879L2.80176 6.44444ZM2.80175 17.5556L3.48574 17.2477L3.4812 17.238L2.80175 17.5556ZM21.9338 17.8634C22.2299 17.2054 22.4285 16.284 22.5563 15.2901C22.6862 14.2805 22.75 13.1369 22.75 12C22.75 10.8631 22.6862 9.71947 22.5563 8.7099C22.4285 7.71601 22.2299 6.79459 21.9338 6.13662L20.5659 6.75227C20.7699 7.20541 20.9463 7.95066 21.0686 8.90122C21.1888 9.83609 21.25 10.9146 21.25 12C21.25 13.0854 21.1888 14.1639 21.0686 15.0988C20.9463 16.0493 20.7699 16.7946 20.5659 17.2477L21.9338 17.8634ZM11.9623 1.25C10.3418 1.25 8.21799 1.80492 6.37155 2.64781C5.44124 3.07249 4.5549 3.58205 3.81928 4.15441C3.09177 4.72045 2.46534 5.38376 2.12081 6.1301L3.4827 6.75879C3.68729 6.31562 4.11019 5.82861 4.74039 5.33828C5.36247 4.85427 6.14219 4.40141 6.99446 4.01236C8.71315 3.22778 10.6205 2.75 11.9623 2.75V1.25ZM2.12081 6.1301C1.81828 6.78546 1.60832 7.69494 1.47 8.67932C1.32967 9.67795 1.25581 10.8086 1.25033 11.938C1.24485 13.0673 1.30767 14.209 1.4454 15.2292C1.58136 16.2363 1.79688 17.1769 2.1223 17.8731L3.4812 17.238C3.25096 16.7454 3.06042 15.9804 2.93191 15.0285C2.80517 14.0896 2.7451 13.0188 2.75031 11.9453C2.75552 10.8719 2.82592 9.80955 2.95541 8.88805C3.0869 7.95228 3.27232 7.21454 3.4827 6.75879L2.12081 6.1301ZM11.9623 2.75C13.3366 2.75 15.2985 3.26397 17.0575 4.07062C17.9291 4.47034 18.7228 4.92934 19.348 5.408C19.9854 5.89604 20.3895 6.36031 20.5659 6.75227L21.9338 6.13662C21.6101 5.41747 20.9829 4.77063 20.2598 4.217C19.5245 3.65399 18.6283 3.14077 17.6828 2.70716C15.8074 1.84714 13.6257 1.25 11.9623 1.25V2.75ZM20.5659 17.2477C20.3895 17.6398 19.9852 18.1041 19.3485 18.5923C18.7241 19.0711 17.9322 19.5301 17.0643 19.9299C15.312 20.737 13.3666 21.25 12.0258 21.25V22.75C13.6592 22.75 15.8258 22.1518 17.6918 21.2923C18.6332 20.8588 19.5271 20.3456 20.2612 19.7827C20.9831 19.2292 21.6101 18.5824 21.9338 17.8634L20.5659 17.2477ZM2.11783 17.8634C2.44075 18.5808 3.06304 19.2273 3.7814 19.7814C4.51159 20.3446 5.40092 20.858 6.33948 21.2919C8.20084 22.1523 10.3674 22.75 12.0258 22.75V21.25C10.6584 21.25 8.71303 20.7366 6.96887 19.9303C6.10467 19.5308 5.31784 19.0721 4.69753 18.5936C4.0654 18.1061 3.66285 17.6414 3.48567 17.2477L2.11783 17.8634Z" fill="#020203"/>
<path d="M5.06787 12.8299C6.15891 13.6531 6.78718 13.9341 7.93209 14.1701" stroke="#020203" stroke-width="1.5" stroke-linecap="round" stroke-linejoin="round"/>
<path d="M12 21V11" stroke="#020203" stroke-width="1.5" stroke-linecap="round"/>
<path d="M3.52832 6.5C4.91335 7.76631 8.76677 11 12.0002 11C15.473 11 19.661 7.26981 20.7379 6.25322" stroke="#020203" stroke-width="1.5" stroke-linecap="round"/>
<path d="M17.25 12.25V8.75L7.5 3.3875" stroke="#020203" stroke-width="1.5" stroke-linecap="round"/>
</svg>
