<svg width="24" height="24" viewBox="0 0 24 24" fill="none" xmlns="http://www.w3.org/2000/svg">
<path d="M12 1.25C13.3229 1.25 14.3775 1.25 15.25 1.28439V3C15.25 3.79214 15.238 4.5692 14.8699 5.17129C14.5549 5.68659 13.8527 6.25 12 6.25C10.1626 6.25 9.4578 5.68789 9.13874 5.16943C8.76767 4.56644 8.75 3.78661 8.75 3V1.28439C9.62251 1.25 10.6771 1.25 12 1.25Z" fill="#020203"/>
<path opacity="0.32" d="M5.8165 1.76471C6.24224 1.59508 6.70468 1.48133 7.25 1.40505L7.24998 3.05676C7.24952 3.77683 7.24877 4.96007 7.86126 5.95537C8.52768 7.03831 9.78246 7.72027 11.8629 7.74886L11.8633 7.74979H12.1726L12.1728 7.74832C14.2425 7.71269 15.4894 7.03347 16.1497 5.9535C16.7524 4.96761 16.751 3.7959 16.7501 3.07863L16.75 1.40505C17.2953 1.48133 17.7578 1.59508 18.1835 1.76471C20.0331 2.50164 21.4982 3.96674 22.2351 5.81629C22.75 7.10864 22.75 8.73902 22.75 11.9998C22.75 13.2422 22.75 14.248 22.7215 15.0885C21.8097 13.1174 19.8146 11.7498 17.5 11.7498C14.3244 11.7498 11.75 14.3242 11.75 17.4998C11.75 19.8144 13.1176 21.8095 15.0887 22.7213C14.2482 22.7498 13.2425 22.7498 12 22.7498C8.73923 22.7498 7.10885 22.7498 5.8165 22.2349C3.96695 21.4979 2.50185 20.0328 1.76492 18.1833C1.25 16.8909 1.25 15.2606 1.25 11.9998C1.25 8.73902 1.25 7.10864 1.76492 5.81629C2.50185 3.96674 3.96695 2.50164 5.8165 1.76471Z" fill="#020203"/>
<path fill-rule="evenodd" clip-rule="evenodd" d="M6.25 18C6.25 17.5858 6.58579 17.25 7 17.25H9C9.41421 17.25 9.75 17.5858 9.75 18C9.75 18.4142 9.41421 18.75 9 18.75H7C6.58579 18.75 6.25 18.4142 6.25 18Z" fill="#020203"/>
<path d="M13.8477 20.1294C13.3143 19.3898 13 18.4816 13 17.5C13 15.0147 15.0147 13 17.5 13C18.4816 13 19.3898 13.3143 20.1294 13.8477C20.0723 13.8803 20.0184 13.9209 19.9697 13.9697L13.9697 19.9697C13.9209 20.0184 13.8803 20.0723 13.8477 20.1294Z" fill="#020203"/>
<path d="M14.8706 21.1523C15.6102 21.6857 16.5184 22 17.5 22C19.9853 22 22 19.9853 22 17.5C22 16.5184 21.6857 15.6102 21.1523 14.8706C21.1197 14.9277 21.0791 14.9816 21.0303 15.0303L15.0303 21.0303C14.9816 21.0791 14.9277 21.1197 14.8706 21.1523Z" fill="#020203"/>
</svg>
