<svg width="24" height="24" viewBox="0 0 24 24" fill="none" xmlns="http://www.w3.org/2000/svg">
<path fill-rule="evenodd" clip-rule="evenodd" d="M3.50452 5.44386C4.17563 4.73111 5.15905 4.07495 6.26032 3.53084L6.86412 3.89312L6.87621 3.90037L6.88855 3.90716L15.992 8.91406C14.6569 9.68604 13.2462 10.25 12 10.25C10.2456 10.25 8.16524 9.13231 6.42859 7.89001C5.58132 7.28391 4.85382 6.67624 4.3379 6.21962C4.08036 5.99169 3.87661 5.80235 3.73819 5.67093C3.669 5.60524 3.61621 5.5541 3.58125 5.51991L3.54239 5.48169L3.53335 5.4727L3.53149 5.47084L3.53032 5.46967L3.50452 5.44386ZM7.98971 2.80089L17.4278 7.99186C17.4759 7.95801 17.5238 7.92406 17.5714 7.89001C18.4187 7.28391 19.1462 6.67624 19.6621 6.21962C19.9196 5.99169 20.1234 5.80235 20.2618 5.67093C20.331 5.60524 20.3838 5.5541 20.4187 5.51991L20.4576 5.48169L20.4666 5.4727L20.4685 5.47084L20.4697 5.46967L20.5112 5.42812C18.6886 3.59176 14.5332 2 11.9623 2C10.8349 2 9.39791 2.29915 7.98971 2.80089Z" fill="#020203"/>
<path opacity="0.32" fill-rule="evenodd" clip-rule="evenodd" d="M12.75 21.9615V11.7021C14.0272 11.5431 15.3243 11.0056 16.5 10.351V12.25C16.5 12.6642 16.8358 13 17.25 13C17.6642 13 18 12.6642 18 12.25V9.42019C18.1522 9.3165 18.3004 9.21283 18.4441 9.10999C19.3443 8.46608 20.1129 7.82376 20.6562 7.34287C20.9283 7.10205 21.145 6.90077 21.2946 6.75875L21.3542 6.7019C22.2487 9.14193 22.214 15.4135 21.2498 17.5555C20.3266 19.6067 15.7829 21.6579 12.75 21.9615Z" fill="#020203"/>
<path opacity="0.32" fill-rule="evenodd" clip-rule="evenodd" d="M11.25 11.7021C9.21102 11.4483 7.12126 10.2298 5.55588 9.11C4.65574 8.46609 3.88712 7.82377 3.34377 7.34288C3.07168 7.10206 2.85501 6.90078 2.70542 6.75876L2.68141 6.73593C1.77095 9.18884 1.73558 15.2744 2.80175 17.5556C3.72082 19.5975 8.18433 21.6395 11.25 21.9573V11.7021Z" fill="#020203"/>
<path fill-rule="evenodd" clip-rule="evenodd" d="M4.46921 12.3781C4.71868 12.0475 5.18897 11.9817 5.51963 12.2312C6.04435 12.627 6.42658 12.8686 6.79563 13.0399C7.16118 13.2096 7.54356 13.3243 8.08353 13.4355C8.48922 13.5192 8.75031 13.9158 8.66669 14.3215C8.58307 14.7272 8.18642 14.9883 7.78073 14.9047C7.17579 14.78 6.67159 14.6361 6.16402 14.4005C5.65994 14.1664 5.18252 13.8559 4.6162 13.4286C4.28554 13.1791 4.21973 12.7088 4.46921 12.3781Z" fill="#020203"/>
</svg>
