<svg width="24" height="24" viewBox="0 0 24 24" fill="none" xmlns="http://www.w3.org/2000/svg">
<path d="M5.87908 3.87985C6.04321 3.78252 6.20907 3.68943 6.37652 3.60056L6.87621 3.90038L15.6001 8.69853L14.3748 9.51543C12.9398 10.4721 11.069 10.4667 9.63954 9.50183L3.5165 5.36877C3.76454 5.16365 4.03019 4.97629 4.31202 4.80916L5.87908 3.87985Z" fill="#020203"/>
<path d="M16.5 12.25V9.90139L15.2068 10.7635C14.4535 11.2657 13.6115 11.5719 12.75 11.6824V23.7752C14.6141 23.6586 16.457 23.1069 18.1209 22.1202L19.688 21.1909C21.5862 20.0652 22.75 18.0219 22.75 15.8151V10.185C22.75 8.8416 22.3187 7.55884 21.5531 6.50678C21.5132 6.55032 21.4674 6.5898 21.416 6.62404L18 8.90139V12.25C18 12.6642 17.6642 13 17.25 13C16.8358 13 16.5 12.6642 16.5 12.25Z" fill="#020203"/>
<path fill-rule="evenodd" clip-rule="evenodd" d="M11.25 23.7752C9.38595 23.6586 7.54304 23.1069 5.87909 22.1202L4.31202 21.1909C2.41384 20.0652 1.25 18.0219 1.25 15.8151V10.185C1.25 8.82725 1.69051 7.53145 2.47152 6.47316L8.80034 10.7451C9.55018 11.2512 10.3898 11.5622 11.25 11.6779V23.7752ZM4.46916 12.3784C4.71864 12.0477 5.18893 11.9819 5.51959 12.2314C6.04431 12.6273 6.42654 12.8688 6.79558 13.0401C7.16113 13.2098 7.54352 13.3245 8.08349 13.4358C8.48918 13.5194 8.75027 13.916 8.66665 14.3217C8.58303 14.7274 8.18637 14.9885 7.78069 14.9049C7.17575 14.7802 6.67155 14.6363 6.16398 14.4007C5.6599 14.1667 5.18248 13.8561 4.61615 13.4288C4.2855 13.1793 4.21969 12.709 4.46916 12.3784Z" fill="#020203"/>
<path d="M8.08987 2.85598L17.0072 7.7605L20.5329 5.41003C20.2708 5.18872 19.9886 4.98743 19.688 4.80916L18.1209 3.87985C15.0557 2.0621 11.3831 1.72081 8.08987 2.85598Z" fill="#020203"/>
</svg>
