<svg width="24" height="24" viewBox="0 0 24 24" fill="none" xmlns="http://www.w3.org/2000/svg">
<path d="M12 1.25C13.3229 1.25 14.3775 1.25 15.25 1.28439V3C15.25 3.79214 15.238 4.5692 14.8699 5.17129C14.5549 5.68659 13.8527 6.25 12 6.25C10.1626 6.25 9.4578 5.68789 9.13874 5.16943C8.76767 4.56644 8.75 3.78661 8.75 3V1.28439C9.62251 1.25 10.6771 1.25 12 1.25Z" fill="#020203"/>
<path opacity="0.32" d="M5.8165 1.76471C6.24224 1.59508 6.70468 1.48133 7.25 1.40505L7.24998 3.05676C7.24952 3.77683 7.24877 4.96007 7.86126 5.95537C8.52768 7.03831 9.78246 7.72027 11.8629 7.74886L11.8633 7.74979H12.1726L12.1728 7.74832C14.2425 7.71269 15.4894 7.03347 16.1497 5.9535C16.7524 4.96761 16.751 3.7959 16.7501 3.07863L16.75 1.40505C17.2953 1.48133 17.7578 1.59508 18.1835 1.76471C20.0331 2.50164 21.4982 3.96674 22.2351 5.81629C22.75 7.10864 22.75 8.73902 22.75 11.9998C22.75 13.2422 22.75 14.248 22.7215 15.0885C21.8097 13.1174 19.8146 11.7498 17.5 11.7498C14.3244 11.7498 11.75 14.3242 11.75 17.4998C11.75 19.8144 13.1176 21.8095 15.0887 22.7213C14.2482 22.7498 13.2425 22.7498 12 22.7498C8.73923 22.7498 7.10885 22.7498 5.8165 22.2349C3.96695 21.4979 2.50185 20.0328 1.76492 18.1833C1.25 16.8909 1.25 15.2606 1.25 11.9998C1.25 8.73902 1.25 7.10864 1.76492 5.81629C2.50185 3.96674 3.96695 2.50164 5.8165 1.76471Z" fill="#020203"/>
<path fill-rule="evenodd" clip-rule="evenodd" d="M6.25 18C6.25 17.5858 6.58579 17.25 7 17.25H9C9.41421 17.25 9.75 17.5858 9.75 18C9.75 18.4142 9.41421 18.75 9 18.75H7C6.58579 18.75 6.25 18.4142 6.25 18Z" fill="#020203"/>
<path fill-rule="evenodd" clip-rule="evenodd" d="M13 17.5C13 19.9853 15.0147 22 17.5 22C19.9853 22 22 19.9853 22 17.5C22 15.0147 19.9853 13 17.5 13C15.0147 13 13 15.0147 13 17.5ZM17.5 19.75C17.9142 19.75 18.25 19.4142 18.25 19V18.25H19C19.4142 18.25 19.75 17.9142 19.75 17.5C19.75 17.0858 19.4142 16.75 19 16.75H18.25V16C18.25 15.5858 17.9142 15.25 17.5 15.25C17.0858 15.25 16.75 15.5858 16.75 16V16.75H16C15.5858 16.75 15.25 17.0858 15.25 17.5C15.25 17.9142 15.5858 18.25 16 18.25H16.75V19C16.75 19.4142 17.0858 19.75 17.5 19.75Z" fill="#020203"/>
</svg>
