<svg width="24" height="24" viewBox="0 0 24 24" fill="none" xmlns="http://www.w3.org/2000/svg">
<path d="M15.25 1.28439C14.3775 1.25 13.3229 1.25 12 1.25C10.6771 1.25 9.62251 1.25 8.75 1.28439V3C8.75 3.78661 8.76767 4.56644 9.13874 5.16943C9.4578 5.68789 10.1626 6.25 12 6.25C13.8527 6.25 14.5549 5.68659 14.8699 5.17129C15.238 4.5692 15.25 3.79214 15.25 3V1.28439Z" fill="#020203"/>
<path fill-rule="evenodd" clip-rule="evenodd" d="M7.25 1.40526C6.70468 1.48154 6.24224 1.59529 5.8165 1.76492C3.96695 2.50185 2.50185 3.96695 1.76492 5.8165C1.25 7.10885 1.25 8.73923 1.25 12C1.25 15.2608 1.25 16.8912 1.76492 18.1835C2.50185 20.0331 3.96695 21.4982 5.8165 22.2351C7.10885 22.75 8.73923 22.75 12 22.75C13.2425 22.75 14.2482 22.75 15.0887 22.7215C13.1176 21.8097 11.75 19.8146 11.75 17.5C11.75 14.3244 14.3244 11.75 17.5 11.75C19.8146 11.75 21.8097 13.1176 22.7215 15.0887C22.75 14.2482 22.75 13.2425 22.75 12C22.75 8.73923 22.75 7.10885 22.2351 5.8165C21.4982 3.96695 20.0331 2.50185 18.1835 1.76492C17.7578 1.59529 17.2953 1.48154 16.75 1.40526L16.7501 3.07884C16.751 3.79611 16.7524 4.96782 16.1497 5.95371C15.4894 7.03368 14.2425 7.7129 12.1728 7.74853L12.1726 7.75H11.8633L11.8629 7.74906C9.78246 7.72048 8.52768 7.03851 7.86126 5.95557C7.24877 4.96028 7.24952 3.77704 7.24998 3.05696L7.25 1.40526ZM7 17.25C6.58579 17.25 6.25 17.5858 6.25 18C6.25 18.4142 6.58579 18.75 7 18.75H9C9.41421 18.75 9.75 18.4142 9.75 18C9.75 17.5858 9.41421 17.25 9 17.25H7Z" fill="#020203"/>
<path fill-rule="evenodd" clip-rule="evenodd" d="M13 17.5C13 19.9853 15.0147 22 17.5 22C19.9853 22 22 19.9853 22 17.5C22 15.0147 19.9853 13 17.5 13C15.0147 13 13 15.0147 13 17.5ZM19.5303 15.4697C19.8232 15.7626 19.8232 16.2374 19.5303 16.5303L18.5607 17.5L19.5303 18.4697C19.8232 18.7626 19.8232 19.2374 19.5303 19.5303C19.2374 19.8232 18.7626 19.8232 18.4697 19.5303L17.5 18.5607L16.5303 19.5303C16.2374 19.8232 15.7626 19.8232 15.4697 19.5303C15.1768 19.2374 15.1768 18.7626 15.4697 18.4697L16.4393 17.5L15.4697 16.5303C15.1768 16.2374 15.1768 15.7626 15.4697 15.4697C15.7626 15.1768 16.2374 15.1768 16.5303 15.4697L17.5 16.4393L18.4697 15.4697C18.7626 15.1768 19.2374 15.1768 19.5303 15.4697Z" fill="#020203"/>
</svg>
