<svg width="24" height="24" viewBox="0 0 24 24" fill="none" xmlns="http://www.w3.org/2000/svg">
<path d="M10 22H8.5C4.91015 22 2 19.0899 2 15.5V8.5C2 4.91015 4.91015 2 8.5 2H15.5C19.0899 2 22 4.91015 22 8.5V11" stroke="#020203" stroke-width="1.5" stroke-linecap="round"/>
<path d="M13 17.5C13 19.9853 15.0147 22 17.5 22C19.9853 22 22 19.9853 22 17.5C22 15.0147 19.9853 13 17.5 13C15.0147 13 13 15.0147 13 17.5Z" stroke="#020203" stroke-width="1.5" stroke-linecap="round"/>
<path d="M15.75 17.26L16.3661 17.8761C16.8543 18.3643 17.6457 18.3643 18.1339 17.8761L19.25 16.76" stroke="#020203" stroke-width="1.5" stroke-linecap="round"/>
<path d="M7 18H9" stroke="#020203" stroke-width="1.5" stroke-linecap="round"/>
<path d="M12 7C8 7 8 4.5 8 3V2.5M12 7C11.5 7 12.5714 7 12 7ZM12 7C16.0261 7 16 4.5 16 3V2.5" stroke="#020203" stroke-width="1.5" stroke-linecap="round"/>
</svg>
