<svg width="24" height="24" viewBox="0 0 24 24" fill="none" xmlns="http://www.w3.org/2000/svg">
<path fill-rule="evenodd" clip-rule="evenodd" d="M2.75 12C2.75 11.5858 3.08579 11.25 3.5 11.25H4.5C4.91421 11.25 5.25 11.5858 5.25 12C5.25 12.4142 4.91421 12.75 4.5 12.75H3.5C3.08579 12.75 2.75 12.4142 2.75 12Z" fill="#020203"/>
<path fill-rule="evenodd" clip-rule="evenodd" d="M6.75 12C6.75 11.5858 7.08579 11.25 7.5 11.25H8.5C8.91421 11.25 9.25 11.5858 9.25 12C9.25 12.4142 8.91421 12.75 8.5 12.75H7.5C7.08579 12.75 6.75 12.4142 6.75 12Z" fill="#020203"/>
<path fill-rule="evenodd" clip-rule="evenodd" d="M10.75 12C10.75 11.5858 11.0858 11.25 11.5 11.25H12.5C12.9142 11.25 13.25 11.5858 13.25 12C13.25 12.4142 12.9142 12.75 12.5 12.75H11.5C11.0858 12.75 10.75 12.4142 10.75 12Z" fill="#020203"/>
<path fill-rule="evenodd" clip-rule="evenodd" d="M14.75 12C14.75 11.5858 15.0858 11.25 15.5 11.25H16.5C16.9142 11.25 17.25 11.5858 17.25 12C17.25 12.4142 16.9142 12.75 16.5 12.75H15.5C15.0858 12.75 14.75 12.4142 14.75 12Z" fill="#020203"/>
<path fill-rule="evenodd" clip-rule="evenodd" d="M18.75 12C18.75 11.5858 19.0858 11.25 19.5 11.25H20.5C20.9142 11.25 21.25 11.5858 21.25 12C21.25 12.4142 20.9142 12.75 20.5 12.75H19.5C19.0858 12.75 18.75 12.4142 18.75 12Z" fill="#020203"/>
<path opacity="0.4" fill-rule="evenodd" clip-rule="evenodd" d="M8 16.75C5.10051 16.75 2.75 19.1005 2.75 22C2.75 22.4142 2.41421 22.75 2 22.75C1.58579 22.75 1.25 22.4142 1.25 22C1.25 18.2721 4.27208 15.25 8 15.25H16C19.7279 15.25 22.75 18.2721 22.75 22C22.75 22.4142 22.4142 22.75 22 22.75C21.5858 22.75 21.25 22.4142 21.25 22C21.25 19.1005 18.8995 16.75 16 16.75H8Z" fill="#020203"/>
<path opacity="0.4" fill-rule="evenodd" clip-rule="evenodd" d="M2 1.25C2.41421 1.25 2.75 1.58579 2.75 2C2.75 4.89949 5.10051 7.25 8 7.25H16C18.8995 7.25 21.25 4.89949 21.25 2C21.25 1.58579 21.5858 1.25 22 1.25C22.4142 1.25 22.75 1.58579 22.75 2C22.75 5.72792 19.7279 8.75 16 8.75H8C4.27208 8.75 1.25 5.72792 1.25 2C1.25 1.58579 1.58579 1.25 2 1.25Z" fill="#020203"/>
</svg>
