<svg width="24" height="24" viewBox="0 0 24 24" fill="none" xmlns="http://www.w3.org/2000/svg">
<path d="M3 22H16" stroke="#020203" stroke-width="1.5" stroke-miterlimit="10" stroke-linecap="round" stroke-linejoin="round"/>
<path d="M9.52705 3.41406L15.5375 9.42447C16.9043 10.7913 16.9043 13.0074 15.5375 14.3742L12.0019 17.9098C10.6351 19.2766 8.41901 19.2766 7.05218 17.9098L3.51664 14.3742C2.14981 13.0074 2.14981 10.7913 3.51664 9.42447L9.52705 3.41406Z" stroke="#020203" stroke-width="1.5"/>
<path d="M15.8909 11.8994H3.16302" stroke="#020203" stroke-width="1.5" stroke-linecap="round"/>
<path d="M10.9413 4.82843L8.11285 2" stroke="#020203" stroke-width="1.5" stroke-linecap="round"/>
<path d="M18.0085 16.9054L19.1553 15.6312C19.3385 15.4276 19.6577 15.4276 19.841 15.6312L20.9878 16.9054C22.1485 18.1951 21.2332 20.2503 19.4981 20.2503C17.763 20.2503 16.8477 18.1951 18.0085 16.9054Z" stroke="#020203" stroke-width="1.5"/>
</svg>
