<svg width="24" height="24" viewBox="0 0 24 24" fill="none" xmlns="http://www.w3.org/2000/svg">
<path fill-rule="evenodd" clip-rule="evenodd" d="M1.25 22C1.25 21.5858 1.58579 21.25 2 21.25H15C15.4142 21.25 15.75 21.5858 15.75 22C15.75 22.4142 15.4142 22.75 15 22.75H2C1.58579 22.75 1.25 22.4142 1.25 22Z" fill="#020203"/>
<path d="M15.0747 8.92462L8.53399 2.38388L1.99325 8.92462C1.33842 9.57945 0.941948 10.3948 0.803833 11.244H16.2641C16.126 10.3948 15.7296 9.57945 15.0747 8.92462Z" fill="#020203"/>
<path d="M16.2412 12.744H0.826735C0.982653 13.5468 1.37149 14.3133 1.99325 14.935L5.52879 18.4706C7.18851 20.1303 9.87947 20.1303 11.5392 18.4706L15.0747 14.935C15.6965 14.3133 16.0853 13.5468 16.2412 12.744Z" fill="#020203"/>
<path fill-rule="evenodd" clip-rule="evenodd" d="M6.59443 1.49488C6.88732 1.20199 7.36219 1.20199 7.65509 1.49488L10.4835 4.32331C10.7764 4.6162 10.7764 5.09108 10.4835 5.38397C10.1906 5.67686 9.71575 5.67686 9.42285 5.38397L6.59443 2.55554C6.30153 2.26265 6.30153 1.78778 6.59443 1.49488Z" fill="#020203"/>
<path d="M16.6482 16.1603L18.0165 14.9336C18.2917 14.6868 18.7085 14.6868 18.9837 14.9336L20.3519 16.1603C22.2469 17.8592 21.0451 21 18.5001 21C15.955 21 14.7532 17.8592 16.6482 16.1603Z" fill="#020203"/>
</svg>
