<svg width="24" height="24" viewBox="0 0 24 24" fill="none" xmlns="http://www.w3.org/2000/svg">
<path d="M3 22H16" stroke="#020203" stroke-width="1.5" stroke-miterlimit="10" stroke-linecap="round" stroke-linejoin="round"/>
<path opacity="0.4" d="M9.52699 3.41406L15.5374 9.42447C16.9042 10.7913 16.9042 13.0074 15.5374 14.3742L12.0019 17.9098C10.635 19.2766 8.41895 19.2766 7.05211 17.9098L3.51658 14.3742C2.14975 13.0074 2.14975 10.7913 3.51658 9.42447L9.52699 3.41406Z" stroke="#020203" stroke-width="1.5"/>
<path d="M15.8909 11.8994H3.16296" stroke="#020203" stroke-width="1.5" stroke-linecap="round"/>
<path d="M10.9412 4.82843L8.11279 2" stroke="#020203" stroke-width="1.5" stroke-linecap="round"/>
<path d="M18.0084 16.9054L19.1552 15.6312C19.3384 15.4276 19.6577 15.4276 19.8409 15.6312L20.9877 16.9054C22.1484 18.1951 21.2332 20.2503 19.4981 20.2503C17.7629 20.2503 16.8477 18.1951 18.0084 16.9054Z" stroke="#020203" stroke-width="1.5"/>
</svg>
