<svg width="24" height="24" viewBox="0 0 24 24" fill="none" xmlns="http://www.w3.org/2000/svg">
<path d="M13.4735 21.6404C12.3996 20.5664 12.3996 18.8252 13.4735 17.7513L17.7162 13.5086C18.7901 12.4347 20.5313 12.4347 21.6053 13.5086C22.6792 14.5826 22.6792 16.3238 21.6053 17.3977L17.3626 21.6404C16.2887 22.7143 14.5475 22.7143 13.4735 21.6404Z" fill="#020203"/>
<path d="M1.70251 6.19538C1.44301 5.12623 1.66303 4.09807 2.19076 3.2827L7.35995 8.45188C6.77479 9.49887 6.92722 10.8472 7.81723 11.7372C8.89118 12.8111 10.6324 12.8111 11.7063 11.7372C12.7803 10.6632 12.7803 8.92202 11.7063 7.84808C10.8162 6.95791 9.46755 6.80559 8.42048 7.3911L3.23795 2.20856C4.0656 1.64234 5.12653 1.39854 6.23121 1.66667L15.5703 3.93344C17.2853 4.34969 18.5248 5.84061 18.6209 7.60272L18.851 11.8204C18.1228 11.801 17.3884 12.0691 16.8327 12.6249L12.59 16.8675C12.0533 17.4043 11.7848 18.1077 11.7846 18.8112L7.63856 18.5851C5.87644 18.4889 4.38553 17.2494 3.96928 15.5345L1.70251 6.19538Z" fill="#020203"/>
<path d="M8.87789 10.6765C8.38974 10.1884 8.38974 9.3969 8.87789 8.90874C9.36605 8.42059 10.1575 8.42059 10.6457 8.90874C11.1338 9.3969 11.1338 10.1884 10.6457 10.6765C10.1575 11.1647 9.36605 11.1647 8.87789 10.6765Z" fill="#020203"/>
</svg>
