<svg width="24" height="24" viewBox="0 0 24 24" fill="none" xmlns="http://www.w3.org/2000/svg">
<path d="M13.4735 21.6415C12.3995 20.5676 12.3995 18.8264 13.4735 17.7524L17.7161 13.5098C18.7901 12.4358 20.5313 12.4358 21.6052 13.5098C22.6792 14.5837 22.6792 16.3249 21.6052 17.3989L17.3626 21.6415C16.2886 22.7155 14.5474 22.7155 13.4735 21.6415Z" fill="#020203"/>
<path opacity="0.4" d="M11.7844 18.8114L7.63844 18.5852C5.87632 18.4891 4.38541 17.2496 3.96916 15.5347L1.70239 6.19556C1.03999 3.46646 3.502 1.00445 6.23109 1.66685L15.5702 3.93362C17.2851 4.34987 18.5247 5.84079 18.6208 7.6029L18.8508 11.8206C18.1227 11.8012 17.3883 12.0693 16.8325 12.6251L12.5899 16.8677C12.0531 17.4045 11.7847 18.1079 11.7844 18.8114Z" fill="#020203"/>
<path d="M3.23653 2.20921L8.8773 7.84998C9.17019 8.14287 9.17019 8.61774 8.8773 8.91064C8.5844 9.20353 8.10953 9.20353 7.81663 8.91064L2.18982 3.28382C2.46372 2.86023 2.82064 2.494 3.23653 2.20921Z" fill="#020203"/>
<path d="M7.27997 9.8098C7.27997 8.42909 8.39926 7.3098 9.77997 7.3098C11.1607 7.3098 12.28 8.42909 12.28 9.8098C12.28 11.1905 11.1607 12.3098 9.77997 12.3098C8.39926 12.3098 7.27997 11.1905 7.27997 9.8098Z" fill="#020203"/>
</svg>
