<svg width="24" height="24" viewBox="0 0 24 24" fill="none" xmlns="http://www.w3.org/2000/svg">
<path d="M14.0219 21.0976C13.2408 20.3165 13.2408 19.0502 14.0219 18.2691L18.2645 14.0265C19.0456 13.2454 20.3119 13.2454 21.0929 14.0265C21.874 14.8075 21.874 16.0739 21.0929 16.8549L16.8503 21.0976C16.0693 21.8786 14.8029 21.8786 14.0219 21.0976Z" stroke="#020203" stroke-width="1.5"/>
<path d="M8.22399 18.0362L14.0216 18.2681L18.2642 14.0254L18.0323 8.22787C17.9604 6.43089 16.6981 4.90282 14.947 4.49299L5.99979 2.39895C3.83322 1.89188 1.88801 3.8371 2.39508 6.00367L4.48911 14.9509C4.89894 16.702 6.42701 17.9643 8.22399 18.0362Z" stroke="#020203" stroke-width="1.5" stroke-linecap="round" stroke-linejoin="round"/>
<path d="M3.41528 3.4202L8.36503 8.36994" stroke="#020203" stroke-width="1.5" stroke-linecap="round" stroke-linejoin="round"/>
<path d="M8.36496 11.1987C7.58391 10.4176 7.58391 9.15129 8.36496 8.37024C9.14601 7.58919 10.4123 7.58919 11.1934 8.37024C11.9744 9.15129 11.9744 10.4176 11.1934 11.1987C10.4123 11.9797 9.14601 11.9797 8.36496 11.1987Z" stroke="#020203" stroke-width="1.5"/>
</svg>
