<svg width="24" height="24" viewBox="0 0 24 24" fill="none" xmlns="http://www.w3.org/2000/svg">
<path opacity="0.4" d="M1.25 12C1.25 17.9371 6.06294 22.75 12 22.75C17.9371 22.75 22.75 17.9371 22.75 12C22.75 6.06294 17.9371 1.25 12 1.25C6.06294 1.25 1.25 6.06294 1.25 12Z" fill="#020203"/>
<path fill-rule="evenodd" clip-rule="evenodd" d="M10 8.25C10.4142 8.25 10.75 8.58579 10.75 9V15C10.75 15.4142 10.4142 15.75 10 15.75C9.58579 15.75 9.25 15.4142 9.25 15V9C9.25 8.58579 9.58579 8.25 10 8.25Z" fill="#020203"/>
<path fill-rule="evenodd" clip-rule="evenodd" d="M14 8.25C14.4142 8.25 14.75 8.58579 14.75 9V15C14.75 15.4142 14.4142 15.75 14 15.75C13.5858 15.75 13.25 15.4142 13.25 15V9C13.25 8.58579 13.5858 8.25 14 8.25Z" fill="#020203"/>
</svg>
