<svg width="24" height="24" viewBox="0 0 24 24" fill="none" xmlns="http://www.w3.org/2000/svg">
<path d="M5 14C5 11.6682 5 10.5024 5.42162 9.59822C5.86873 8.63938 6.63938 7.86873 7.59822 7.42162C8.50237 7 9.66825 7 12 7C14.3318 7 15.4976 7 16.4018 7.42162C17.3606 7.86873 18.1313 8.63938 18.5784 9.59822C19 10.5024 19 11.6682 19 14V15C19 17.3318 19 18.4976 18.5784 19.4018C18.1313 20.3606 17.3606 21.1313 16.4018 21.5784C15.4976 22 14.3318 22 12 22C9.66825 22 8.50237 22 7.59822 21.5784C6.63938 21.1313 5.86873 20.3606 5.42162 19.4018C5 18.4976 5 17.3318 5 15V14Z" stroke="#020203" stroke-width="1.5"/>
<path d="M17 7.5C17 6.10218 17 4.40326 16.7716 3.85195C16.4672 3.11687 15.8831 2.53284 15.1481 2.22836C14.5967 2 13.8978 2 12.5 2H11.5C10.1022 2 9.40326 2 8.85195 2.22836C8.11687 2.53284 7.53284 3.11687 7.22836 3.85195C7 4.40326 7 6.10218 7 7.5" stroke="#020203" stroke-width="1.5" stroke-linecap="round"/>
<path d="M10 5L10 6.5" stroke="#020203" stroke-width="1.5" stroke-linecap="round"/>
<path d="M14 5L14 6.5" stroke="#020203" stroke-width="1.5" stroke-linecap="round"/>
</svg>
