<svg width="24" height="24" viewBox="0 0 24 24" fill="none" xmlns="http://www.w3.org/2000/svg">
<path opacity="0.4" d="M4.25 14C4.25 11.6711 4.25 10.5066 4.61291 9.58196C5.14651 8.22237 6.22237 7.14651 7.58196 6.61291C8.50665 6.25 9.6711 6.25 12 6.25C14.3289 6.25 15.4934 6.25 16.418 6.61291C17.7776 7.14651 18.8535 8.22237 19.3871 9.58196C19.75 10.5066 19.75 11.6711 19.75 14V15C19.75 17.3289 19.75 18.4934 19.3871 19.418C18.8535 20.7776 17.7776 21.8535 16.418 22.3871C15.4934 22.75 14.3289 22.75 12 22.75C9.6711 22.75 8.50665 22.75 7.58196 22.3871C6.22237 21.8535 5.14651 20.7776 4.61291 19.418C4.25 18.4934 4.25 17.3289 4.25 15V14Z" fill="#020203"/>
<path d="M17.747 5.93979C17.7357 4.75209 17.6818 4.04995 17.4258 3.47507C17.0489 2.6285 16.3719 1.95146 15.5253 1.57454C14.7971 1.25034 13.8648 1.25034 12 1.25034C10.1353 1.25034 9.20294 1.25034 8.47476 1.57454C7.62819 1.95146 6.95115 2.6285 6.57423 3.47507C6.31828 4.04995 6.2644 4.75209 6.25305 5.9398C6.53321 5.74501 6.83355 5.57671 7.1506 5.43838C7.70771 5.19532 8.35035 5.08713 9.25004 5.03897V5.00034C9.25004 4.58612 9.58582 4.25034 10 4.25034C10.4142 4.25034 10.75 4.58612 10.75 5.00034V5.00279C11.13 5.00034 11.5448 5.00034 12 5.00034C12.4552 5.00034 12.87 5.00034 13.25 5.00279V5.00034C13.25 4.58612 13.5858 4.25034 14 4.25034C14.4143 4.25034 14.75 4.58612 14.75 5.00034V5.03897C15.6497 5.08713 16.2924 5.19532 16.8495 5.43838C17.1665 5.57671 17.4668 5.745 17.747 5.93979Z" fill="#020203"/>
</svg>
