<svg width="24" height="24" viewBox="0 0 24 24" fill="none" xmlns="http://www.w3.org/2000/svg">
<path d="M19.7778 9.77778C18.5505 9.77778 17.5555 10.7727 17.5555 12C17.5555 13.2273 18.5505 14.2222 19.7778 14.2222C21.0051 14.2222 22 13.2273 22 12C22 10.7727 21.0051 9.77778 19.7778 9.77778Z" stroke="#020203" stroke-width="1.5" stroke-linecap="round"/>
<path opacity="0.3" d="M19.7778 2C18.5505 2 17.5555 2.99492 17.5555 4.22222C17.5555 5.44952 18.5505 6.44444 19.7778 6.44444C21.0051 6.44444 22 5.44952 22 4.22222C22 2.99492 21.0051 2 19.7778 2Z" stroke="#020203" stroke-width="1.5" stroke-linecap="round"/>
<path d="M12.0001 17.5556C10.7728 17.5556 9.77783 18.5505 9.77783 19.7778C9.77783 21.0051 10.7728 22 12.0001 22C13.2274 22 14.2223 21.0051 14.2223 19.7778C14.2223 18.5505 13.2274 17.5556 12.0001 17.5556Z" stroke="#020203" stroke-width="1.5" stroke-linecap="round"/>
<path opacity="0.3" d="M12.0001 9.77778C10.7728 9.77778 9.77783 10.7727 9.77783 12C9.77783 13.2273 10.7728 14.2222 12.0001 14.2222C13.2274 14.2222 14.2223 13.2273 14.2223 12C14.2223 10.7727 13.2274 9.77778 12.0001 9.77778Z" stroke="#020203" stroke-width="1.5" stroke-linecap="round"/>
<path d="M12.0001 2C10.7728 2 9.77783 2.99492 9.77783 4.22222C9.77783 5.44952 10.7728 6.44444 12.0001 6.44444C13.2274 6.44444 14.2223 5.44952 14.2223 4.22222C14.2223 2.99492 13.2274 2 12.0001 2Z" stroke="#020203" stroke-width="1.5" stroke-linecap="round"/>
<path d="M4.22222 9.77778C2.99492 9.77778 2 10.7727 2 12C2 13.2273 2.99492 14.2222 4.22222 14.2222C5.44952 14.2222 6.44444 13.2273 6.44444 12C6.44444 10.7727 5.44952 9.77778 4.22222 9.77778Z" stroke="#020203" stroke-width="1.5" stroke-linecap="round"/>
<path opacity="0.3" d="M4.22222 2C2.99492 2 2 2.99492 2 4.22222C2 5.44952 2.99492 6.44444 4.22222 6.44444C5.44952 6.44444 6.44444 5.44952 6.44444 4.22222C6.44444 2.99492 5.44952 2 4.22222 2Z" stroke="#020203" stroke-width="1.5" stroke-linecap="round"/>
</svg>
