<svg width="24" height="24" viewBox="0 0 24 24" fill="none" xmlns="http://www.w3.org/2000/svg">
<path d="M19.7778 9.77778C18.5505 9.77778 17.5555 10.7727 17.5555 12C17.5555 13.2273 18.5505 14.2222 19.7778 14.2222C21.0051 14.2222 22 13.2273 22 12C22 10.7727 21.0051 9.77778 19.7778 9.77778Z" fill="#020203"/>
<path opacity="0.32" d="M19.7778 2C18.5505 2 17.5555 2.99492 17.5555 4.22222C17.5555 5.44952 18.5505 6.44444 19.7778 6.44444C21.0051 6.44444 22 5.44952 22 4.22222C22 2.99492 21.0051 2 19.7778 2Z" fill="#020203"/>
<path d="M12 17.5556C10.7727 17.5556 9.77777 18.5505 9.77777 19.7778C9.77777 21.0051 10.7727 22 12 22C13.2273 22 14.2222 21.0051 14.2222 19.7778C14.2222 18.5505 13.2273 17.5556 12 17.5556Z" fill="#020203"/>
<path opacity="0.32" d="M12 9.77778C10.7727 9.77778 9.77777 10.7727 9.77777 12C9.77777 13.2273 10.7727 14.2222 12 14.2222C13.2273 14.2222 14.2222 13.2273 14.2222 12C14.2222 10.7727 13.2273 9.77778 12 9.77778Z" fill="#020203"/>
<path d="M12 2C10.7727 2 9.77777 2.99492 9.77777 4.22222C9.77777 5.44952 10.7727 6.44444 12 6.44444C13.2273 6.44444 14.2222 5.44952 14.2222 4.22222C14.2222 2.99492 13.2273 2 12 2Z" fill="#020203"/>
<path d="M4.22222 9.77778C2.99492 9.77778 2 10.7727 2 12C2 13.2273 2.99492 14.2222 4.22222 14.2222C5.44952 14.2222 6.44444 13.2273 6.44444 12C6.44444 10.7727 5.44952 9.77778 4.22222 9.77778Z" fill="#020203"/>
<path opacity="0.32" d="M4.22222 2C2.99492 2 2 2.99492 2 4.22222C2 5.44952 2.99492 6.44444 4.22222 6.44444C5.44952 6.44444 6.44444 5.44952 6.44444 4.22222C6.44444 2.99492 5.44952 2 4.22222 2Z" fill="#020203"/>
</svg>
