<svg width="24" height="24" viewBox="0 0 24 24" fill="none" xmlns="http://www.w3.org/2000/svg">
<path opacity="0.4" d="M16.3025 11.2333L8.01056 19.5253C7.35023 20.1856 6.5061 20.6314 5.58844 20.8045C5.36719 20.8462 5.15493 20.9263 4.96121 21.041L4.82383 21.1224C4.37738 21.3868 4.15416 21.519 4.0484 21.5582C3.04641 21.9294 2.07077 20.9537 2.44204 19.9518C2.48122 19.846 2.61345 19.6228 2.87792 19.1763L2.95922 19.0391C3.07399 18.8454 3.15405 18.6331 3.19578 18.4118C3.36887 17.4942 3.81468 16.6501 4.47499 15.9897L12.767 7.69773" stroke="#020203" stroke-width="1.5" stroke-linecap="round"/>
<path d="M11.8941 6.80243L12.4245 6.2721V6.2721L11.8941 6.80243ZM17.1974 12.1057L16.6671 12.6361L17.1974 12.1057ZM19.4955 8.03987L18.9652 7.50954C18.6723 7.80243 18.6723 8.27731 18.9652 8.5702L19.4955 8.03987ZM20.9098 6.62566L20.3794 6.09533V6.09533L20.9098 6.62566ZM17.3742 3.09012L17.9046 3.62045V3.62045L17.3742 3.09012ZM15.96 4.50434L15.4297 5.03467C15.7226 5.32756 16.1974 5.32756 16.4903 5.03467L15.96 4.50434ZM15.0761 3.62045L14.5458 4.15078L14.5458 4.15078L15.0761 3.62045ZM11.3638 7.33276L16.6671 12.6361L17.7278 11.5754L12.4245 6.2721L11.3638 7.33276ZM20.9098 8.39342L20.0259 7.50954L18.9652 8.5702L19.8491 9.45409L20.9098 8.39342ZM20.0259 8.5702L21.4401 7.15599L20.3794 6.09533L18.9652 7.50954L20.0259 8.5702ZM16.8439 2.55979L15.4297 3.97401L16.4903 5.03467L17.9046 3.62045L16.8439 2.55979ZM16.4903 3.97401L15.6065 3.09012L14.5458 4.15078L15.4297 5.03467L16.4903 3.97401ZM21.4401 2.55979C20.1709 1.29059 18.1131 1.29059 16.8439 2.55979L17.9046 3.62045C18.588 2.93704 19.696 2.93704 20.3794 3.62045L21.4401 2.55979ZM20.9098 12.6361C22.0813 11.4645 22.0813 9.565 20.9098 8.39342L19.8491 9.45409C20.4349 10.0399 20.4349 10.9896 19.8491 11.5754L20.9098 12.6361ZM16.6671 12.6361C17.8387 13.8076 19.7382 13.8076 20.9098 12.6361L19.8491 11.5754C19.2633 12.1612 18.3136 12.1612 17.7278 11.5754L16.6671 12.6361ZM11.3638 3.09012C10.1922 4.2617 10.1922 6.16119 11.3638 7.33276L12.4245 6.2721C11.8387 5.68632 11.8387 4.73657 12.4245 4.15078L11.3638 3.09012ZM21.4401 7.15599C22.7093 5.88678 22.7093 3.829 21.4401 2.55979L20.3794 3.62045C21.0628 4.30387 21.0628 5.41191 20.3794 6.09533L21.4401 7.15599ZM12.4245 4.15078C13.0103 3.565 13.96 3.565 14.5458 4.15078L15.6065 3.09012C14.4349 1.91855 12.5354 1.91855 11.3638 3.09012L12.4245 4.15078Z" fill="#020203"/>
</svg>
