<svg width="24" height="24" viewBox="0 0 24 24" fill="none" xmlns="http://www.w3.org/2000/svg">
<path d="M10.8057 8.60645L4.09627 15.3159C4.04624 15.3659 4.02122 15.3909 3.99699 15.4157C3.199 16.2324 2.65061 17.2598 2.4162 18.3772C2.4091 18.4111 2.40227 18.4456 2.38864 18.5145L2.38334 18.5412C2.34047 18.7521 2.27054 18.9567 2.17528 19.1497L2.16274 19.1749C1.90443 19.6914 1.77527 19.9497 1.73272 20.0878C1.31874 21.431 2.57719 22.6895 3.92041 22.2756C4.05846 22.2331 4.31681 22.1039 4.83352 21.8456L4.85874 21.833C5.05173 21.7378 5.25619 21.6679 5.46708 21.625L5.49297 21.6199C5.56246 21.6061 5.5972 21.5993 5.63118 21.5921C6.7486 21.3577 7.77594 20.8094 8.59256 20.0114C8.61739 19.9872 8.64243 19.9621 8.69252 19.912L15.4019 13.2026L10.8057 8.60645Z" fill="#020203"/>
<path d="M16.6393 12.6717L11.336 7.36843C10.1645 6.19686 10.1645 4.29736 11.336 3.12579C12.5076 1.95421 14.4071 1.95421 15.5787 3.12579L15.9322 3.47934L16.8161 2.59546C18.0853 1.32625 20.1431 1.32625 21.4123 2.59546C22.6815 3.86466 22.6815 5.92245 21.4123 7.19165L20.5284 8.07553L20.882 8.42909C22.0536 9.60066 22.0536 11.5002 20.882 12.6717C19.7104 13.8433 17.8109 13.8433 16.6393 12.6717Z" fill="#020203"/>
</svg>
