<svg width="24" height="24" viewBox="0 0 24 24" fill="none" xmlns="http://www.w3.org/2000/svg">
<path opacity="0.4" fill-rule="evenodd" clip-rule="evenodd" d="M12 13.25C12.4142 13.25 12.75 13.5858 12.75 14V18C12.75 18.4142 12.4142 18.75 12 18.75C11.5858 18.75 11.25 18.4142 11.25 18V14C11.25 13.5858 11.5858 13.25 12 13.25Z" fill="#020203"/>
<path d="M5.625 7.625C5.625 11.1458 8.47918 14 12 14C15.5208 14 18.375 11.1458 18.375 7.625C18.375 4.10418 15.5208 1.25 12 1.25C8.47918 1.25 5.625 4.10418 5.625 7.625Z" fill="#020203"/>
<path opacity="0.4" fill-rule="evenodd" clip-rule="evenodd" d="M6.04033 14.7468C6.18015 15.1367 5.97742 15.5662 5.58752 15.706C4.61705 16.054 3.87746 16.4632 3.39446 16.8859C2.91058 17.3094 2.75 17.6834 2.75 17.9842C2.75 18.2671 2.88967 18.6117 3.30221 19.0034C3.71645 19.3968 4.35595 19.7855 5.20825 20.1278C6.90878 20.8108 9.30963 21.25 12 21.25C14.6904 21.25 17.0912 20.8108 18.7917 20.1278C19.6441 19.7855 20.2836 19.3968 20.6978 19.0034C21.1103 18.6117 21.25 18.2671 21.25 17.9842C21.25 17.6834 21.0894 17.3093 20.6057 16.8857C20.1229 16.4629 19.3836 16.0537 18.4136 15.706C18.0237 15.5662 17.8209 15.1368 17.9607 14.7469C18.1004 14.357 18.5298 14.1542 18.9198 14.294C19.9936 14.6789 20.921 15.168 21.5939 15.7572C22.2659 16.3456 22.75 17.0973 22.75 17.9842C22.75 18.8102 22.3301 19.522 21.7306 20.0912C21.1329 20.6588 20.308 21.1353 19.3508 21.5198C17.4321 22.2903 14.833 22.75 12 22.75C9.16704 22.75 6.56788 22.2903 4.64925 21.5198C3.69197 21.1353 2.8671 20.6588 2.26936 20.0912C1.66991 19.522 1.25 18.8102 1.25 17.9842C1.25 17.0971 1.73437 16.3455 2.40655 15.7572C3.07962 15.1681 4.0072 14.6792 5.08119 14.294C5.47109 14.1542 5.90052 14.3569 6.04033 14.7468Z" fill="#020203"/>
</svg>
