<svg width="24" height="24" viewBox="0 0 24 24" fill="none" xmlns="http://www.w3.org/2000/svg">
<path fill-rule="evenodd" clip-rule="evenodd" d="M15.25 4.5C15.25 4.08579 15.5858 3.75 16 3.75L22 3.75C22.4142 3.75 22.75 4.08579 22.75 4.5C22.75 4.91421 22.4142 5.25 22 5.25L16 5.25C15.5858 5.25 15.25 4.91421 15.25 4.5Z" fill="#020203"/>
<path fill-rule="evenodd" clip-rule="evenodd" d="M15.25 9.5C15.25 9.08579 15.5858 8.75 16 8.75L22 8.75C22.4142 8.75 22.75 9.08579 22.75 9.5C22.75 9.91421 22.4142 10.25 22 10.25L16 10.25C15.5858 10.25 15.25 9.91421 15.25 9.5Z" fill="#020203"/>
<path fill-rule="evenodd" clip-rule="evenodd" d="M15.25 14.5C15.25 14.0858 15.5858 13.75 16 13.75L22 13.75C22.4142 13.75 22.75 14.0858 22.75 14.5C22.75 14.9142 22.4142 15.25 22 15.25L16 15.25C15.5858 15.25 15.25 14.9142 15.25 14.5Z" fill="#020203"/>
<path opacity="0.4" fill-rule="evenodd" clip-rule="evenodd" d="M1.25 19.5C1.25 19.0858 1.58579 18.75 2 18.75L22 18.75C22.4142 18.75 22.75 19.0858 22.75 19.5C22.75 19.9142 22.4142 20.25 22 20.25L2 20.25C1.58579 20.25 1.25 19.9142 1.25 19.5Z" fill="#020203"/>
<path d="M2 10.875C2 13.0151 3.7349 14.75 5.875 14.75C8.0151 14.75 9.75 13.0151 9.75 10.875C9.75 8.7349 8.0151 7 5.875 7C3.7349 7 2 8.7349 2 10.875Z" fill="#020203"/>
<path opacity="0.4" fill-rule="evenodd" clip-rule="evenodd" d="M12 5.25C10.7574 5.25 9.75 6.25736 9.75 7.5V11C9.75 11.4142 9.41421 11.75 9 11.75C8.58579 11.75 8.25 11.4142 8.25 11V7.5C8.25 5.42893 9.92893 3.75 12 3.75C12.4142 3.75 12.75 4.08579 12.75 4.5C12.75 4.91421 12.4142 5.25 12 5.25Z" fill="#020203"/>
</svg>
