<svg width="24" height="24" viewBox="0 0 24 24" fill="none" xmlns="http://www.w3.org/2000/svg">
<path opacity="0.4" fill-rule="evenodd" clip-rule="evenodd" d="M15.25 5C15.25 4.58579 15.5858 4.25 16 4.25L22 4.25C22.4142 4.25 22.75 4.58579 22.75 5C22.75 5.41421 22.4142 5.75 22 5.75L16 5.75C15.5858 5.75 15.25 5.41421 15.25 5Z" fill="#020203"/>
<path fill-rule="evenodd" clip-rule="evenodd" d="M15.25 10C15.25 9.58579 15.5858 9.25 16 9.25L22 9.25C22.4142 9.25 22.75 9.58579 22.75 10C22.75 10.4142 22.4142 10.75 22 10.75L16 10.75C15.5858 10.75 15.25 10.4142 15.25 10Z" fill="#020203"/>
<path opacity="0.4" fill-rule="evenodd" clip-rule="evenodd" d="M15.25 15C15.25 14.5858 15.5858 14.25 16 14.25L22 14.25C22.4142 14.25 22.75 14.5858 22.75 15C22.75 15.4142 22.4142 15.75 22 15.75L16 15.75C15.5858 15.75 15.25 15.4142 15.25 15Z" fill="#020203"/>
<path fill-rule="evenodd" clip-rule="evenodd" d="M1.25 20C1.25 19.5858 1.58579 19.25 2 19.25L22 19.25C22.4142 19.25 22.75 19.5858 22.75 20C22.75 20.4142 22.4142 20.75 22 20.75L2 20.75C1.58579 20.75 1.25 20.4142 1.25 20Z" fill="#020203"/>
<path opacity="0.32" d="M2.1001 12.8616V7.13842C2.1001 4.94201 4.548 3.63193 6.37552 4.85028L10.6679 7.71186C12.3007 8.80037 12.3007 11.1996 10.6679 12.2881L6.37552 15.1497C4.548 16.3681 2.1001 15.058 2.1001 12.8616Z" fill="#020203"/>
</svg>
