<svg width="24" height="24" viewBox="0 0 24 24" fill="none" xmlns="http://www.w3.org/2000/svg">
<path d="M2 17.5L2.10557 17.4472C2.69377 17.1531 3.34237 17 4 17C4.65763 17 5.30623 17.1531 5.89443 17.4472L6.10557 17.5528C6.69377 17.8469 7.34237 18 8 18C8.65763 18 9.30623 17.8469 9.89443 17.5528L10.1056 17.4472C10.6938 17.1531 11.3424 17 12 17C12.6576 17 13.3062 17.1531 13.8944 17.4472L14.1056 17.5528C14.6938 17.8469 15.3424 18 16 18C16.6576 18 17.3062 17.8469 17.8944 17.5528L18.1056 17.4472C18.6938 17.1531 19.3424 17 20 17C20.6576 17 21.3062 17.1531 21.8944 17.4472L22 17.5" stroke="#020203" stroke-width="1.5" stroke-linecap="round"/>
<path d="M2 21.5L2.10557 21.4472C2.69377 21.1531 3.34237 21 4 21C4.65763 21 5.30623 21.1531 5.89443 21.4472L6.10557 21.5528C6.69377 21.8469 7.34237 22 8 22C8.65763 22 9.30623 21.8469 9.89443 21.5528L10.1056 21.4472C10.6938 21.1531 11.3424 21 12 21C12.6576 21 13.3062 21.1531 13.8944 21.4472L14.1056 21.5528C14.6938 21.8469 15.3424 22 16 22C16.6576 22 17.3062 21.8469 17.8944 21.5528L18.1056 21.4472C18.6938 21.1531 19.3424 21 20 21C20.6576 21 21.3062 21.1531 21.8944 21.4472L22 21.5" stroke="#020203" stroke-width="1.5" stroke-linecap="round"/>
<path d="M6 17V4.48274C6 1.17229 11 1.17255 11 4.48272" stroke="#020203" stroke-width="1.5" stroke-linecap="round"/>
<path d="M16 17.5V4.48274C16 1.17229 21 1.17255 21 4.48272" stroke="#020203" stroke-width="1.5" stroke-linecap="round"/>
<path d="M6 9L16 9" stroke="#020203" stroke-width="1.5" stroke-linecap="round"/>
<path d="M6 14L16 14" stroke="#020203" stroke-width="1.5" stroke-linecap="round"/>
</svg>
