<svg width="24" height="24" viewBox="0 0 24 24" fill="none" xmlns="http://www.w3.org/2000/svg">
<path fill-rule="evenodd" clip-rule="evenodd" d="M7.27759 3.18292C6.97732 3.44798 6.75 3.86046 6.75 4.48274V17C6.75 17.4142 6.41421 17.75 6 17.75C5.58579 17.75 5.25 17.4142 5.25 17V4.48274C5.25 3.4498 5.64768 2.62089 6.28491 2.05838C6.90796 1.50839 7.71661 1.24998 8.50002 1.25C9.28342 1.25002 10.0921 1.50847 10.7151 2.05845C11.3523 2.62096 11.75 3.44983 11.75 4.48272C11.75 4.89694 11.4142 5.23272 11 5.23272C10.5858 5.23272 10.25 4.89694 10.25 4.48272C10.25 3.86053 10.0227 3.44806 9.72241 3.18298C9.40794 2.90538 8.96658 2.75001 8.49998 2.75C8.03339 2.74999 7.59204 2.90534 7.27759 3.18292Z" fill="#020203"/>
<path fill-rule="evenodd" clip-rule="evenodd" d="M17.2776 3.18292C16.9773 3.44798 16.75 3.86046 16.75 4.48274V17.5C16.75 17.9142 16.4142 18.25 16 18.25C15.5858 18.25 15.25 17.9142 15.25 17.5V4.48274C15.25 3.4498 15.6477 2.62089 16.2849 2.05838C16.908 1.50839 17.7166 1.24998 18.5 1.25C19.2834 1.25002 20.0921 1.50847 20.7151 2.05845C21.3523 2.62096 21.75 3.44983 21.75 4.48272C21.75 4.89694 21.4142 5.23272 21 5.23272C20.5858 5.23272 20.25 4.89694 20.25 4.48272C20.25 3.86053 20.0227 3.44806 19.7224 3.18298C19.4079 2.90538 18.9666 2.75001 18.5 2.75C18.0334 2.74999 17.592 2.90534 17.2776 3.18292Z" fill="#020203"/>
<path fill-rule="evenodd" clip-rule="evenodd" d="M5.25 9C5.25 8.58579 5.58579 8.25 6 8.25L16 8.25C16.4142 8.25 16.75 8.58579 16.75 9C16.75 9.41421 16.4142 9.75 16 9.75L6 9.75C5.58579 9.75 5.25 9.41421 5.25 9Z" fill="#020203"/>
<path fill-rule="evenodd" clip-rule="evenodd" d="M5.25 14C5.25 13.5858 5.58579 13.25 6 13.25L16 13.25C16.4142 13.25 16.75 13.5858 16.75 14C16.75 14.4142 16.4142 14.75 16 14.75L6 14.75C5.58579 14.75 5.25 14.4142 5.25 14Z" fill="#020203"/>
<path fill-rule="evenodd" clip-rule="evenodd" d="M4.00001 17.75C3.45882 17.75 2.92505 17.876 2.44099 18.118L2.33542 18.1708C1.96494 18.3561 1.51443 18.2059 1.32919 17.8354C1.14395 17.4649 1.29412 17.0144 1.6646 16.8292L1.77017 16.7764C2.46252 16.4302 3.22595 16.25 4.00001 16.25C4.77407 16.25 5.53751 16.4302 6.22985 16.7764L6.441 16.882C6.92505 17.124 7.45882 17.25 8.00001 17.25C8.54121 17.25 9.07497 17.124 9.55903 16.882L9.77017 16.7764C10.4625 16.4302 11.2259 16.25 12 16.25C12.7741 16.25 13.5375 16.4302 14.2298 16.7764L14.441 16.882C14.9251 17.124 15.4588 17.25 16 17.25C16.5412 17.25 17.075 17.124 17.559 16.882L17.7702 16.7764C18.4625 16.4302 19.2259 16.25 20 16.25C20.7741 16.25 21.5375 16.4302 22.2298 16.7764L22.3354 16.8292C22.7059 17.0144 22.8561 17.4649 22.6708 17.8354C22.4856 18.2059 22.0351 18.3561 21.6646 18.1708L21.559 18.118C21.075 17.876 20.5412 17.75 20 17.75C19.4588 17.75 18.9251 17.876 18.441 18.118L18.1056 17.4472L18.441 18.118L18.2298 18.2236C17.5375 18.5698 16.7741 18.75 16 18.75C15.2259 18.75 14.4625 18.5698 13.7702 18.2236L13.559 18.118C13.075 17.876 12.5412 17.75 12 17.75C11.4588 17.75 10.9251 17.876 10.441 18.118L10.2298 18.2236C9.53751 18.5698 8.77407 18.75 8.00001 18.75C7.22595 18.75 6.46252 18.5698 5.77017 18.2236L5.55903 18.118C5.07497 17.876 4.54121 17.75 4.00001 17.75Z" fill="#020203"/>
<path fill-rule="evenodd" clip-rule="evenodd" d="M4.00001 21.75C3.45882 21.75 2.92505 21.876 2.44099 22.118L2.33542 22.1708C1.96494 22.3561 1.51443 22.2059 1.32919 21.8354C1.14395 21.4649 1.29412 21.0144 1.6646 20.8292L1.77017 20.7764C2.46252 20.4302 3.22595 20.25 4.00001 20.25C4.77407 20.25 5.53751 20.4302 6.22985 20.7764L6.441 20.882C6.92505 21.124 7.45882 21.25 8.00001 21.25C8.54121 21.25 9.07497 21.124 9.55903 20.882L9.77017 20.7764C10.4625 20.4302 11.2259 20.25 12 20.25C12.7741 20.25 13.5375 20.4302 14.2298 20.7764L14.441 20.882C14.9251 21.124 15.4588 21.25 16 21.25C16.5412 21.25 17.075 21.124 17.559 20.882L17.7702 20.7764C18.4625 20.4302 19.2259 20.25 20 20.25C20.7741 20.25 21.5375 20.4302 22.2298 20.7764L22.3354 20.8292C22.7059 21.0144 22.8561 21.4649 22.6708 21.8354C22.4856 22.2059 22.0351 22.3561 21.6646 22.1708L21.559 22.118C21.075 21.876 20.5412 21.75 20 21.75C19.4588 21.75 18.9251 21.876 18.441 22.118L18.1056 21.4472L18.441 22.118L18.2298 22.2236C17.5375 22.5698 16.7741 22.75 16 22.75C15.2259 22.75 14.4625 22.5698 13.7702 22.2236L13.559 22.118C13.075 21.876 12.5412 21.75 12 21.75C11.4588 21.75 10.9251 21.876 10.441 22.118L10.2298 22.2236C9.53751 22.5698 8.77407 22.75 8.00001 22.75C7.22595 22.75 6.46252 22.5698 5.77017 22.2236L5.55903 22.118C5.07497 21.876 4.54121 21.75 4.00001 21.75Z" fill="#020203"/>
</svg>
