<svg width="24" height="24" viewBox="0 0 24 24" fill="none" xmlns="http://www.w3.org/2000/svg">
<path fill-rule="evenodd" clip-rule="evenodd" d="M1.25 4C1.25 2.48122 2.48122 1.25 4 1.25H20C21.5188 1.25 22.75 2.48122 22.75 4C22.75 5.51878 21.5188 6.75 20 6.75H4C2.48122 6.75 1.25 5.51878 1.25 4ZM4 2.75C3.30964 2.75 2.75 3.30964 2.75 4C2.75 4.69036 3.30964 5.25 4 5.25H20C20.6904 5.25 21.25 4.69036 21.25 4C21.25 3.30964 20.6904 2.75 20 2.75H4Z" fill="#020203"/>
<path fill-rule="evenodd" clip-rule="evenodd" d="M12 17.25C12.4142 17.25 12.75 17.5858 12.75 18V22C12.75 22.4142 12.4142 22.75 12 22.75C11.5858 22.75 11.25 22.4142 11.25 22V18C11.25 17.5858 11.5858 17.25 12 17.25Z" fill="#020203"/>
<path fill-rule="evenodd" clip-rule="evenodd" d="M3.25 10V6H20.75V10C20.75 12.7966 20.75 14.1949 20.274 15.2908C19.6935 16.6272 18.6272 17.6935 17.2908 18.274C16.1949 18.75 14.7966 18.75 12 18.75C9.20345 18.75 7.80513 18.75 6.70919 18.274C5.37275 17.6935 4.30653 16.6272 3.72603 15.2908C3.25 14.1949 3.25 12.7966 3.25 10ZM10 11.25C9.58579 11.25 9.25 11.5858 9.25 12C9.25 12.4142 9.58579 12.75 10 12.75H14C14.4142 12.75 14.75 12.4142 14.75 12C14.75 11.5858 14.4142 11.25 14 11.25H10Z" fill="#020203"/>
<path fill-rule="evenodd" clip-rule="evenodd" d="M12.6241 19.584C12.8538 19.9286 12.7607 20.3943 12.416 20.624L9.41604 22.624C9.0714 22.8538 8.60575 22.7607 8.37598 22.416C8.14622 22.0714 8.23935 21.6057 8.58399 21.376L11.584 19.376C11.9286 19.1462 12.3943 19.2393 12.6241 19.584Z" fill="#020203"/>
<path fill-rule="evenodd" clip-rule="evenodd" d="M11.376 19.584C11.6057 19.2393 12.0714 19.1462 12.416 19.376L15.416 21.376C15.7607 21.6057 15.8538 22.0714 15.6241 22.416C15.3943 22.7607 14.9286 22.8538 14.584 22.624L11.584 20.624C11.2393 20.3943 11.1462 19.9286 11.376 19.584Z" fill="#020203"/>
</svg>
