<svg width="24" height="24" viewBox="0 0 24 24" fill="none" xmlns="http://www.w3.org/2000/svg">
<path fill-rule="evenodd" clip-rule="evenodd" d="M1.25 4C1.25 2.48122 2.48122 1.25 4 1.25H20C21.5188 1.25 22.75 2.48122 22.75 4C22.75 5.51878 21.5188 6.75 20 6.75H4C2.48122 6.75 1.25 5.51878 1.25 4ZM4 2.75C3.30964 2.75 2.75 3.30964 2.75 4C2.75 4.69036 3.30964 5.25 4 5.25H20C20.6904 5.25 21.25 4.69036 21.25 4C21.25 3.30964 20.6904 2.75 20 2.75H4Z" fill="#020203"/>
<path fill-rule="evenodd" clip-rule="evenodd" d="M12 17.25C12.4142 17.25 12.75 17.5858 12.75 18V22C12.75 22.4142 12.4142 22.75 12 22.75C11.5858 22.75 11.25 22.4142 11.25 22V18C11.25 17.5858 11.5858 17.25 12 17.25Z" fill="#020203"/>
<path fill-rule="evenodd" clip-rule="evenodd" d="M3.25 10V6H20.75V10C20.75 12.7966 20.75 14.1949 20.274 15.2908C19.6935 16.6272 18.6272 17.6935 17.2908 18.274C16.1949 18.75 14.7966 18.75 12 18.75C9.20345 18.75 7.80513 18.75 6.70919 18.274C5.37275 17.6935 4.30653 16.6272 3.72603 15.2908C3.25 14.1949 3.25 12.7966 3.25 10ZM9.75 13C9.75 12.5858 9.41421 12.25 9 12.25C8.58579 12.25 8.25 12.5858 8.25 13V14C8.25 14.4142 8.58579 14.75 9 14.75C9.41421 14.75 9.75 14.4142 9.75 14V13ZM12 10.25C12.4142 10.25 12.75 10.5858 12.75 11V14C12.75 14.4142 12.4142 14.75 12 14.75C11.5858 14.75 11.25 14.4142 11.25 14V11C11.25 10.5858 11.5858 10.25 12 10.25ZM15.75 10C15.75 9.58579 15.4142 9.25 15 9.25C14.5858 9.25 14.25 9.58579 14.25 10V14C14.25 14.4142 14.5858 14.75 15 14.75C15.4142 14.75 15.75 14.4142 15.75 14V10Z" fill="#020203"/>
<path fill-rule="evenodd" clip-rule="evenodd" d="M12.624 19.584C12.8538 19.9286 12.7607 20.3943 12.416 20.624L9.41602 22.624C9.07138 22.8538 8.60573 22.7607 8.37596 22.416C8.1462 22.0714 8.23933 21.6057 8.58397 21.376L11.584 19.376C11.9286 19.1462 12.3943 19.2393 12.624 19.584Z" fill="#020203"/>
<path fill-rule="evenodd" clip-rule="evenodd" d="M11.376 19.584C11.6057 19.2393 12.0714 19.1462 12.416 19.376L15.416 21.376C15.7607 21.6057 15.8538 22.0714 15.624 22.416C15.3943 22.7607 14.9286 22.8538 14.584 22.624L11.584 20.624C11.2393 20.3943 11.1462 19.9286 11.376 19.584Z" fill="#020203"/>
</svg>
