<svg width="24" height="24" viewBox="0 0 24 24" fill="none" xmlns="http://www.w3.org/2000/svg">
<path fill-rule="evenodd" clip-rule="evenodd" d="M1.25 4C1.25 2.48122 2.48122 1.25 4 1.25H20C21.5188 1.25 22.75 2.48122 22.75 4C22.75 5.51878 21.5188 6.75 20 6.75H4C2.48122 6.75 1.25 5.51878 1.25 4ZM4 2.75C3.30964 2.75 2.75 3.30964 2.75 4C2.75 4.69036 3.30964 5.25 4 5.25H20C20.6904 5.25 21.25 4.69036 21.25 4C21.25 3.30964 20.6904 2.75 20 2.75H4Z" fill="#020203"/>
<path fill-rule="evenodd" clip-rule="evenodd" d="M12 17.25C12.4142 17.25 12.75 17.5858 12.75 18V22C12.75 22.4142 12.4142 22.75 12 22.75C11.5858 22.75 11.25 22.4142 11.25 22V18C11.25 17.5858 11.5858 17.25 12 17.25Z" fill="#020203"/>
<path opacity="0.4" d="M3.25 6V10C3.25 12.7966 3.25 14.1949 3.72603 15.2908C4.30653 16.6272 5.37275 17.6935 6.70919 18.274C7.80514 18.75 9.20342 18.75 12 18.75C14.7966 18.75 16.1949 18.75 17.2908 18.274C18.6272 17.6935 19.6935 16.6272 20.274 15.2908C20.75 14.1949 20.75 12.7966 20.75 10V6H3.25Z" fill="#020203"/>
<path fill-rule="evenodd" clip-rule="evenodd" d="M14.5303 9.46967C14.8232 9.76256 14.8232 10.2374 14.5303 10.5303L10.5303 14.5303C10.2374 14.8232 9.76256 14.8232 9.46967 14.5303C9.17678 14.2374 9.17678 13.7626 9.46967 13.4697L13.4697 9.46967C13.7626 9.17678 14.2374 9.17678 14.5303 9.46967Z" fill="#020203"/>
<path fill-rule="evenodd" clip-rule="evenodd" d="M12 9.75C10.7574 9.75 9.75 10.7574 9.75 12C9.75 13.2426 10.7574 14.25 12 14.25C13.2426 14.25 14.25 13.2426 14.25 12C14.25 10.7574 13.2426 9.75 12 9.75ZM8.25 12C8.25 9.92893 9.92893 8.25 12 8.25C14.0711 8.25 15.75 9.92893 15.75 12C15.75 14.0711 14.0711 15.75 12 15.75C9.92893 15.75 8.25 14.0711 8.25 12Z" fill="#020203"/>
<path fill-rule="evenodd" clip-rule="evenodd" d="M12.6241 19.584C12.8538 19.9286 12.7607 20.3943 12.416 20.624L9.41604 22.624C9.0714 22.8538 8.60575 22.7607 8.37598 22.416C8.14622 22.0714 8.23935 21.6057 8.58399 21.376L11.584 19.376C11.9286 19.1462 12.3943 19.2393 12.6241 19.584Z" fill="#020203"/>
<path fill-rule="evenodd" clip-rule="evenodd" d="M11.376 19.584C11.6057 19.2393 12.0714 19.1462 12.416 19.376L15.416 21.376C15.7607 21.6057 15.8538 22.0714 15.6241 22.416C15.3943 22.7607 14.9286 22.8538 14.584 22.624L11.584 20.624C11.2393 20.3943 11.1462 19.9286 11.376 19.584Z" fill="#020203"/>
</svg>
