<svg width="216" height="72" viewBox="0 0 216 72" fill="none" xmlns="http://www.w3.org/2000/svg">
<g clip-path="url(#clip0_6_10949)">
<path d="M34 46H32.5C28.9101 46 26 43.0899 26 39.5V38" stroke="#020203" stroke-width="1.5" stroke-linecap="round"/>
<path d="M26 34V32.5C26 28.9101 28.9101 26 32.5 26H34" stroke="#020203" stroke-width="1.5" stroke-linecap="round"/>
<path d="M38 26H39.5C43.0899 26 46 28.9101 46 32.5V34" stroke="#020203" stroke-width="1.5" stroke-linecap="round"/>
<path d="M46 38V39.5C46 43.0899 43.0899 46 39.5 46H38" stroke="#020203" stroke-width="1.5" stroke-linecap="round"/>
<path d="M33 38C32.4477 38 32 38.4477 32 39C32 39.5523 32.4477 40 33 40C33.5523 40 34 39.5523 34 39C34 38.4477 33.5523 38 33 38Z" fill="#020203"/>
<path d="M36 38C35.4477 38 35 38.4477 35 39C35 39.5523 35.4477 40 36 40C36.5523 40 37 39.5523 37 39C37 38.4477 36.5523 38 36 38Z" fill="#020203"/>
<path d="M42 38C41.4477 38 41 38.4477 41 39C41 39.5523 41.4477 40 42 40C42.5523 40 43 39.5523 43 39C43 38.4477 42.5523 38 42 38Z" fill="#020203"/>
<path d="M30 32V40" stroke="#020203" stroke-width="1.5" stroke-linecap="round"/>
<path d="M33 32V36" stroke="#020203" stroke-width="1.5" stroke-linecap="round"/>
<path d="M36 32V36" stroke="#020203" stroke-width="1.5" stroke-linecap="round"/>
<path d="M39 32V40" stroke="#020203" stroke-width="1.5" stroke-linecap="round"/>
<path d="M42 32V36" stroke="#020203" stroke-width="1.5" stroke-linecap="round"/>
</g>
<g clip-path="url(#clip1_6_10949)">
<path d="M81 38C80.4477 38 80 38.4477 80 39C80 39.5523 80.4477 40 81 40C81.5523 40 82 39.5523 82 39C82 38.4477 81.5523 38 81 38Z" fill="#020203"/>
<path d="M84 38C83.4477 38 83 38.4477 83 39C83 39.5523 83.4477 40 84 40C84.5523 40 85 39.5523 85 39C85 38.4477 84.5523 38 84 38Z" fill="#020203"/>
<path d="M90 38C89.4477 38 89 38.4477 89 39C89 39.5523 89.4477 40 90 40C90.5523 40 91 39.5523 91 39C91 38.4477 90.5523 38 90 38Z" fill="#020203"/>
<path fill-rule="evenodd" clip-rule="evenodd" d="M78 31.25C78.4142 31.25 78.75 31.5858 78.75 32V40C78.75 40.4142 78.4142 40.75 78 40.75C77.5858 40.75 77.25 40.4142 77.25 40V32C77.25 31.5858 77.5858 31.25 78 31.25Z" fill="#020203"/>
<path fill-rule="evenodd" clip-rule="evenodd" d="M81 31.25C81.4142 31.25 81.75 31.5858 81.75 32V36C81.75 36.4142 81.4142 36.75 81 36.75C80.5858 36.75 80.25 36.4142 80.25 36V32C80.25 31.5858 80.5858 31.25 81 31.25Z" fill="#020203"/>
<path fill-rule="evenodd" clip-rule="evenodd" d="M84 31.25C84.4142 31.25 84.75 31.5858 84.75 32V36C84.75 36.4142 84.4142 36.75 84 36.75C83.5858 36.75 83.25 36.4142 83.25 36V32C83.25 31.5858 83.5858 31.25 84 31.25Z" fill="#020203"/>
<path fill-rule="evenodd" clip-rule="evenodd" d="M87 31.25C87.4142 31.25 87.75 31.5858 87.75 32V40C87.75 40.4142 87.4142 40.75 87 40.75C86.5858 40.75 86.25 40.4142 86.25 40V32C86.25 31.5858 86.5858 31.25 87 31.25Z" fill="#020203"/>
<path fill-rule="evenodd" clip-rule="evenodd" d="M90 31.25C90.4142 31.25 90.75 31.5858 90.75 32V36C90.75 36.4142 90.4142 36.75 90 36.75C89.5858 36.75 89.25 36.4142 89.25 36V32C89.25 31.5858 89.5858 31.25 90 31.25Z" fill="#020203"/>
<path fill-rule="evenodd" clip-rule="evenodd" d="M74 37.25C74.4142 37.25 74.75 37.5858 74.75 38V39.5C74.75 42.6756 77.3244 45.25 80.5 45.25H82C82.4142 45.25 82.75 45.5858 82.75 46C82.75 46.4142 82.4142 46.75 82 46.75H80.5C76.4959 46.75 73.25 43.5041 73.25 39.5V38C73.25 37.5858 73.5858 37.25 74 37.25Z" fill="#020203"/>
<path fill-rule="evenodd" clip-rule="evenodd" d="M80.5 26.75C77.3244 26.75 74.75 29.3244 74.75 32.5V34C74.75 34.4142 74.4142 34.75 74 34.75C73.5858 34.75 73.25 34.4142 73.25 34V32.5C73.25 28.4959 76.4959 25.25 80.5 25.25H82C82.4142 25.25 82.75 25.5858 82.75 26C82.75 26.4142 82.4142 26.75 82 26.75H80.5Z" fill="#020203"/>
<path fill-rule="evenodd" clip-rule="evenodd" d="M85.25 26C85.25 25.5858 85.5858 25.25 86 25.25H87.5C91.5041 25.25 94.75 28.4959 94.75 32.5V34C94.75 34.4142 94.4142 34.75 94 34.75C93.5858 34.75 93.25 34.4142 93.25 34V32.5C93.25 29.3244 90.6756 26.75 87.5 26.75H86C85.5858 26.75 85.25 26.4142 85.25 26Z" fill="#020203"/>
<path fill-rule="evenodd" clip-rule="evenodd" d="M94 37.25C94.4142 37.25 94.75 37.5858 94.75 38V39.5C94.75 43.5041 91.5041 46.75 87.5 46.75H86C85.5858 46.75 85.25 46.4142 85.25 46C85.25 45.5858 85.5858 45.25 86 45.25H87.5C90.6756 45.25 93.25 42.6756 93.25 39.5V38C93.25 37.5858 93.5858 37.25 94 37.25Z" fill="#020203"/>
</g>
<g clip-path="url(#clip2_6_10949)">
<path opacity="0.4" d="M129 38C128.448 38 128 38.4477 128 39C128 39.5523 128.448 40 129 40C129.552 40 130 39.5523 130 39C130 38.4477 129.552 38 129 38Z" fill="#020203"/>
<path opacity="0.4" fill-rule="evenodd" clip-rule="evenodd" d="M122 37.25C122.414 37.25 122.75 37.5858 122.75 38V39.5C122.75 42.6756 125.324 45.25 128.5 45.25H130C130.414 45.25 130.75 45.5858 130.75 46C130.75 46.4142 130.414 46.75 130 46.75H128.5C124.496 46.75 121.25 43.5041 121.25 39.5V38C121.25 37.5858 121.586 37.25 122 37.25Z" fill="#020203"/>
<path fill-rule="evenodd" clip-rule="evenodd" d="M128.5 26.75C125.324 26.75 122.75 29.3244 122.75 32.5V34C122.75 34.4142 122.414 34.75 122 34.75C121.586 34.75 121.25 34.4142 121.25 34V32.5C121.25 28.4959 124.496 25.25 128.5 25.25H130C130.414 25.25 130.75 25.5858 130.75 26C130.75 26.4142 130.414 26.75 130 26.75H128.5Z" fill="#020203"/>
<path opacity="0.4" fill-rule="evenodd" clip-rule="evenodd" d="M133.25 26C133.25 25.5858 133.586 25.25 134 25.25H135.5C139.504 25.25 142.75 28.4959 142.75 32.5V34C142.75 34.4142 142.414 34.75 142 34.75C141.586 34.75 141.25 34.4142 141.25 34V32.5C141.25 29.3244 138.676 26.75 135.5 26.75H134C133.586 26.75 133.25 26.4142 133.25 26Z" fill="#020203"/>
<path fill-rule="evenodd" clip-rule="evenodd" d="M142 37.25C142.414 37.25 142.75 37.5858 142.75 38V39.5C142.75 43.5041 139.504 46.75 135.5 46.75H134C133.586 46.75 133.25 46.4142 133.25 46C133.25 45.5858 133.586 45.25 134 45.25H135.5C138.676 45.25 141.25 42.6756 141.25 39.5V38C141.25 37.5858 141.586 37.25 142 37.25Z" fill="#020203"/>
<path d="M132 38C131.448 38 131 38.4477 131 39C131 39.5523 131.448 40 132 40C132.552 40 133 39.5523 133 39C133 38.4477 132.552 38 132 38Z" fill="#020203"/>
<path d="M138 38C137.448 38 137 38.4477 137 39C137 39.5523 137.448 40 138 40C138.552 40 139 39.5523 139 39C139 38.4477 138.552 38 138 38Z" fill="#020203"/>
<path fill-rule="evenodd" clip-rule="evenodd" d="M126 31.25C126.414 31.25 126.75 31.5858 126.75 32V40C126.75 40.4142 126.414 40.75 126 40.75C125.586 40.75 125.25 40.4142 125.25 40V32C125.25 31.5858 125.586 31.25 126 31.25Z" fill="#020203"/>
<path opacity="0.4" fill-rule="evenodd" clip-rule="evenodd" d="M129 31.25C129.414 31.25 129.75 31.5858 129.75 32V36C129.75 36.4142 129.414 36.75 129 36.75C128.586 36.75 128.25 36.4142 128.25 36V32C128.25 31.5858 128.586 31.25 129 31.25Z" fill="#020203"/>
<path fill-rule="evenodd" clip-rule="evenodd" d="M132 31.25C132.414 31.25 132.75 31.5858 132.75 32V36C132.75 36.4142 132.414 36.75 132 36.75C131.586 36.75 131.25 36.4142 131.25 36V32C131.25 31.5858 131.586 31.25 132 31.25Z" fill="#020203"/>
<path opacity="0.4" fill-rule="evenodd" clip-rule="evenodd" d="M135 31.25C135.414 31.25 135.75 31.5858 135.75 32V40C135.75 40.4142 135.414 40.75 135 40.75C134.586 40.75 134.25 40.4142 134.25 40V32C134.25 31.5858 134.586 31.25 135 31.25Z" fill="#020203"/>
<path fill-rule="evenodd" clip-rule="evenodd" d="M138 31.25C138.414 31.25 138.75 31.5858 138.75 32V36C138.75 36.4142 138.414 36.75 138 36.75C137.586 36.75 137.25 36.4142 137.25 36V32C137.25 31.5858 137.586 31.25 138 31.25Z" fill="#020203"/>
</g>
<g clip-path="url(#clip3_6_10949)">
<path d="M178 46H176.5C172.91 46 170 43.0899 170 39.5V38" stroke="#020203" stroke-width="1.5" stroke-linecap="round"/>
<path opacity="0.4" d="M170 34V32.5C170 28.9101 172.91 26 176.5 26H178" stroke="#020203" stroke-width="1.5" stroke-linecap="round"/>
<path d="M182 26H183.5C187.09 26 190 28.9101 190 32.5V34" stroke="#020203" stroke-width="1.5" stroke-linecap="round"/>
<path opacity="0.4" d="M190 38V39.5C190 43.0899 187.09 46 183.5 46H182" stroke="#020203" stroke-width="1.5" stroke-linecap="round"/>
<path d="M177 38C176.448 38 176 38.4477 176 39C176 39.5523 176.448 40 177 40C177.552 40 178 39.5523 178 39C178 38.4477 177.552 38 177 38Z" fill="#020203"/>
<path opacity="0.4" d="M180 38C179.448 38 179 38.4477 179 39C179 39.5523 179.448 40 180 40C180.552 40 181 39.5523 181 39C181 38.4477 180.552 38 180 38Z" fill="#020203"/>
<path opacity="0.4" d="M186 38C185.448 38 185 38.4477 185 39C185 39.5523 185.448 40 186 40C186.552 40 187 39.5523 187 39C187 38.4477 186.552 38 186 38Z" fill="#020203"/>
<path opacity="0.4" d="M174 32V40" stroke="#020203" stroke-width="1.5" stroke-linecap="round"/>
<path d="M177 32V36" stroke="#020203" stroke-width="1.5" stroke-linecap="round"/>
<path opacity="0.4" d="M180 32V36" stroke="#020203" stroke-width="1.5" stroke-linecap="round"/>
<path d="M183 32V40" stroke="#020203" stroke-width="1.5" stroke-linecap="round"/>
<path opacity="0.4" d="M186 32V36" stroke="#020203" stroke-width="1.5" stroke-linecap="round"/>
</g>
<rect x="0.5" y="0.5" width="215" height="71" rx="15.5" stroke="#D9D9D9"/>
<defs>
<clipPath id="clip0_6_10949">
<rect width="24" height="24" fill="white" transform="translate(24 24)"/>
</clipPath>
<clipPath id="clip1_6_10949">
<rect width="24" height="24" fill="white" transform="translate(72 24)"/>
</clipPath>
<clipPath id="clip2_6_10949">
<rect width="24" height="24" fill="white" transform="translate(120 24)"/>
</clipPath>
<clipPath id="clip3_6_10949">
<rect width="24" height="24" fill="white" transform="translate(168 24)"/>
</clipPath>
</defs>
</svg>
