<svg width="24" height="24" viewBox="0 0 24 24" fill="none" xmlns="http://www.w3.org/2000/svg">
<path fill-rule="evenodd" clip-rule="evenodd" d="M12 5.25C12.4142 5.25 12.75 5.58579 12.75 6L12.75 9C12.75 9.41421 12.4142 9.75 12 9.75C11.5858 9.75 11.25 9.41421 11.25 9L11.25 6C11.25 5.58579 11.5858 5.25 12 5.25Z" fill="#020203"/>
<path fill-rule="evenodd" clip-rule="evenodd" d="M2.25 4C2.25 3.58579 2.58579 3.25 3 3.25H10C10.4142 3.25 10.75 3.58579 10.75 4C10.75 4.41421 10.4142 4.75 10 4.75H3C2.58579 4.75 2.25 4.41421 2.25 4Z" fill="#020203"/>
<path fill-rule="evenodd" clip-rule="evenodd" d="M13.25 4C13.25 3.58579 13.5858 3.25 14 3.25L21 3.25C21.4142 3.25 21.75 3.58579 21.75 4C21.75 4.41421 21.4142 4.75 21 4.75L14 4.75C13.5858 4.75 13.25 4.41421 13.25 4Z" fill="#020203"/>
<path fill-rule="evenodd" clip-rule="evenodd" d="M12 5.25C11.3096 5.25 10.75 4.69036 10.75 4C10.75 3.30964 11.3096 2.75 12 2.75C12.6904 2.75 13.25 3.30964 13.25 4C13.25 4.69036 12.6904 5.25 12 5.25ZM9.25 4C9.25 5.51878 10.4812 6.75 12 6.75C13.5188 6.75 14.75 5.51878 14.75 4C14.75 2.48122 13.5188 1.25 12 1.25C10.4812 1.25 9.25 2.48122 9.25 4Z" fill="#020203"/>
<path d="M13.5 8.25C13.7687 8.25 14.0179 8.25 14.25 8.2507V15.25H9.75001L9.75001 8.2507C9.98215 8.25 10.2314 8.25 10.5 8.25H13.5Z" fill="#020203"/>
<path d="M8.25001 15.25L8.25001 8.28254C7.72092 8.31274 7.31656 8.37097 6.95257 8.48324C5.29367 8.99495 3.99499 10.2936 3.48328 11.9525C3.26073 12.674 3.25053 13.5542 3.25006 15.25H8.25001Z" fill="#020203"/>
<path d="M3.25386 16.75H20.7462C20.735 17.8222 20.6908 18.4833 20.5168 19.0475C20.0051 20.7064 18.7064 22.0051 17.0475 22.5168C16.2913 22.75 15.3609 22.75 13.5 22.75H10.5C8.63917 22.75 7.70873 22.75 6.95257 22.5168C5.29367 22.0051 3.99499 20.7064 3.48328 19.0475C3.30927 18.4833 3.26508 17.8222 3.25386 16.75Z" fill="#020203"/>
<path d="M20.75 15.25C20.7495 13.5542 20.7394 12.674 20.5168 11.9525C20.0051 10.2936 18.7064 8.99495 17.0475 8.48324C16.6835 8.37097 16.2791 8.31274 15.75 8.28254V15.25H20.75Z" fill="#020203"/>
</svg>
