<svg width="24" height="24" viewBox="0 0 24 24" fill="none" xmlns="http://www.w3.org/2000/svg">
<path opacity="0.32" d="M1.25 14C1.25 11.6734 1.25 10.5101 1.5559 9.56864C2.17413 7.66591 3.66591 6.17413 5.56864 5.5559C6.5101 5.25 7.6734 5.25 10 5.25H14C16.3266 5.25 17.4899 5.25 18.4314 5.5559C20.3341 6.17413 21.8259 7.66591 22.4441 9.56864C22.75 10.5101 22.75 11.6734 22.75 14C22.75 16.3266 22.75 17.4899 22.4441 18.4314C21.8259 20.3341 20.3341 21.8259 18.4314 22.4441C17.4899 22.75 16.3266 22.75 14 22.75H10C7.6734 22.75 6.5101 22.75 5.56864 22.4441C3.66591 21.8259 2.17413 20.3341 1.5559 18.4314C1.25 17.4899 1.25 16.3266 1.25 14Z" fill="#020203"/>
<path fill-rule="evenodd" clip-rule="evenodd" d="M5.25 12C5.25 11.5858 5.58579 11.25 6 11.25H8C8.41421 11.25 8.75 11.5858 8.75 12C8.75 12.4142 8.41421 12.75 8 12.75H6C5.58579 12.75 5.25 12.4142 5.25 12Z" fill="#020203"/>
<path fill-rule="evenodd" clip-rule="evenodd" d="M5.25 16C5.25 15.5858 5.58579 15.25 6 15.25H8C8.41421 15.25 8.75 15.5858 8.75 16C8.75 16.4142 8.41421 16.75 8 16.75H6C5.58579 16.75 5.25 16.4142 5.25 16Z" fill="#020203"/>
<path d="M12 14C12 15.933 13.567 17.5 15.5 17.5C17.433 17.5 19 15.933 19 14C19 12.067 17.433 10.5 15.5 10.5C13.567 10.5 12 12.067 12 14Z" fill="#020203"/>
<path fill-rule="evenodd" clip-rule="evenodd" d="M10.45 1.40004C10.7814 1.64857 10.8486 2.11867 10.6 2.45004L6.85004 7.45004C6.60152 7.78141 6.13141 7.84857 5.80004 7.60004C5.46867 7.35152 5.40152 6.88142 5.65004 6.55004L9.40004 1.55004C9.64857 1.21867 10.1187 1.15152 10.45 1.40004Z" fill="#020203"/>
</svg>
