<svg width="24" height="24" viewBox="0 0 24 24" fill="none" xmlns="http://www.w3.org/2000/svg">
<path d="M12.75 14C12.75 12.7574 13.7574 11.75 15 11.75C16.2426 11.75 17.25 12.7574 17.25 14C17.25 15.2426 16.2426 16.25 15 16.25C13.7574 16.25 12.75 15.2426 12.75 14Z" fill="#020203"/>
<path fill-rule="evenodd" clip-rule="evenodd" d="M1.5559 9.56864C1.25 10.5101 1.25 11.6734 1.25 14C1.25 16.3266 1.25 17.4899 1.5559 18.4314C2.17413 20.3341 3.66591 21.8259 5.56864 22.4441C6.5101 22.75 7.6734 22.75 10 22.75H14C16.3266 22.75 17.4899 22.75 18.4314 22.4441C20.3341 21.8259 21.8259 20.3341 22.4441 18.4314C22.75 17.4899 22.75 16.3266 22.75 14C22.75 11.6734 22.75 10.5101 22.4441 9.56864C21.8259 7.66591 20.3341 6.17413 18.4314 5.5559C17.4899 5.25 16.3266 5.25 14 5.25H10C7.6734 5.25 6.5101 5.25 5.56864 5.5559C3.66591 6.17413 2.17413 7.66591 1.5559 9.56864ZM6 11.25C5.58579 11.25 5.25 11.5858 5.25 12C5.25 12.4142 5.58579 12.75 6 12.75H8C8.41421 12.75 8.75 12.4142 8.75 12C8.75 11.5858 8.41421 11.25 8 11.25H6ZM5.25 16C5.25 15.5858 5.58579 15.25 6 15.25H8C8.41421 15.25 8.75 15.5858 8.75 16C8.75 16.4142 8.41421 16.75 8 16.75H6C5.58579 16.75 5.25 16.4142 5.25 16ZM15 10.25C12.9289 10.25 11.25 11.9289 11.25 14C11.25 16.0711 12.9289 17.75 15 17.75C17.0711 17.75 18.75 16.0711 18.75 14C18.75 11.9289 17.0711 10.25 15 10.25Z" fill="#020203"/>
<path fill-rule="evenodd" clip-rule="evenodd" d="M10.45 1.40004C10.7814 1.64857 10.8486 2.11867 10.6 2.45004L6.85004 7.45004C6.60152 7.78141 6.13141 7.84857 5.80004 7.60004C5.46867 7.35152 5.40152 6.88142 5.65004 6.55004L9.40004 1.55004C9.64857 1.21867 10.1187 1.15152 10.45 1.40004Z" fill="#020203"/>
</svg>
