<svg width="24" height="24" viewBox="0 0 24 24" fill="none" xmlns="http://www.w3.org/2000/svg">
<path d="M1.5 13.6426V14.0248C1.5 16.4964 3.47231 18.5 5.90527 18.5H7.99985L8.51063 17.9892C8.29497 17.8924 8.09294 17.7555 7.91586 17.5784C7.13482 16.7974 7.13482 15.531 7.91586 14.75L9.33008 13.3358C10.1111 12.5547 11.3775 12.5547 12.1585 13.3358C12.547 13.7243 12.7422 14.2328 12.7443 14.7419L13.25 14.2362C14.031 13.4551 15.2974 13.4551 16.0784 14.2362C16.8595 15.0172 16.8595 16.2836 16.0784 17.0646L15.366 17.777C15.6258 17.8742 15.8695 18.0272 16.0784 18.2362C16.1613 18.319 16.2354 18.4074 16.3006 18.5H18.0947C20.5277 18.5 22.5 16.4964 22.5 14.0248V13.6426C22.5 10.9577 20.1562 9.10001 17.775 9.41541V8.36667C17.775 5.1266 15.1894 2.5 12 2.5C8.81056 2.5 6.225 5.1266 6.225 8.36667V9.41541C3.84376 9.10001 1.5 10.9577 1.5 13.6426Z" fill="#020203"/>
<path fill-rule="evenodd" clip-rule="evenodd" d="M11.2746 14.1396C11.5675 14.4325 11.5675 14.9074 11.2746 15.2003L9.86035 16.6145C9.56745 16.9074 9.09258 16.9074 8.79969 16.6145C8.50679 16.3216 8.50679 15.8467 8.79969 15.5538L10.2139 14.1396C10.5068 13.8467 10.9817 13.8467 11.2746 14.1396Z" fill="#020203"/>
<path fill-rule="evenodd" clip-rule="evenodd" d="M11.2746 18.0537C11.5675 18.3465 11.5675 18.8214 11.2746 19.1143L9.86035 20.5285C9.56745 20.8214 9.09258 20.8214 8.79969 20.5285C8.50679 20.2356 8.50679 19.7608 8.79969 19.4679L10.2139 18.0537C10.5068 17.7608 10.9817 17.7608 11.2746 18.0537Z" fill="#020203"/>
<path fill-rule="evenodd" clip-rule="evenodd" d="M15.1887 15.1396C15.4816 15.4325 15.4816 15.9074 15.1887 16.2003L13.7745 17.6145C13.4816 17.9074 13.0068 17.9074 12.7139 17.6145C12.421 17.3216 12.421 16.8467 12.7139 16.5538L14.1281 15.1396C14.421 14.8467 14.8959 14.8467 15.1887 15.1396Z" fill="#020203"/>
<path fill-rule="evenodd" clip-rule="evenodd" d="M15.1887 19.0537C15.4816 19.3465 15.4816 19.8214 15.1887 20.1143L13.7745 21.5285C13.4816 21.8214 13.0068 21.8214 12.7139 21.5285C12.421 21.2356 12.421 20.7608 12.7139 20.4679L14.1281 19.0537C14.421 18.7608 14.8959 18.7608 15.1887 19.0537Z" fill="#020203"/>
</svg>
