<svg width="24" height="24" viewBox="0 0 24 24" fill="none" xmlns="http://www.w3.org/2000/svg">
<path d="M10 22.75V16.5H14V22.75H10Z" fill="#020203"/>
<path opacity="0.4" fill-rule="evenodd" clip-rule="evenodd" d="M1.25 8C1.25 4.27208 4.27208 1.25 8 1.25H16C19.7279 1.25 22.75 4.27208 22.75 8C22.75 11.7279 19.7279 14.75 16 14.75H8C4.27208 14.75 1.25 11.7279 1.25 8Z" fill="#020203"/>
<path fill-rule="evenodd" clip-rule="evenodd" d="M5.25 8C5.25 7.58579 5.58579 7.25 6 7.25L18 7.25C18.4142 7.25 18.75 7.58579 18.75 8C18.75 8.41421 18.4142 8.75 18 8.75L6 8.75C5.58579 8.75 5.25 8.41421 5.25 8Z" fill="#020203"/>
<path fill-rule="evenodd" clip-rule="evenodd" d="M8 6.25C8.41421 6.25 8.75 6.58579 8.75 7L8.75 9C8.75 9.41421 8.41421 9.75 8 9.75C7.58579 9.75 7.25 9.41421 7.25 9L7.25 7C7.25 6.58579 7.58579 6.25 8 6.25Z" fill="#020203"/>
<path fill-rule="evenodd" clip-rule="evenodd" d="M12 6.25C12.4142 6.25 12.75 6.58579 12.75 7L12.75 9C12.75 9.41421 12.4142 9.75 12 9.75C11.5858 9.75 11.25 9.41421 11.25 9L11.25 7C11.25 6.58579 11.5858 6.25 12 6.25Z" fill="#020203"/>
<path fill-rule="evenodd" clip-rule="evenodd" d="M16 6.25C16.4142 6.25 16.75 6.58579 16.75 7L16.75 9C16.75 9.41421 16.4142 9.75 16 9.75C15.5858 9.75 15.25 9.41421 15.25 9L15.25 7C15.25 6.58579 15.5858 6.25 16 6.25Z" fill="#020203"/>
<path d="M9.04883 16C9.27139 17.112 10.2551 18 12 18C13.7449 18 14.7286 17.112 14.9512 16H9.04883Z" fill="#020203"/>
</svg>
