<svg width="24" height="24" viewBox="0 0 24 24" fill="none" xmlns="http://www.w3.org/2000/svg">
<path d="M15 14V15.5C15 16.8333 14 18 12 18C10 18 9 16.8333 9 15.5V14" stroke="#020203" stroke-width="1.5" stroke-linecap="round"/>
<path d="M10 17.5L10 22" stroke="#020203" stroke-width="1.5" stroke-linecap="round"/>
<path d="M14 17.5L14 22" stroke="#020203" stroke-width="1.5" stroke-linecap="round"/>
<path d="M6 8L18 8" stroke="#020203" stroke-width="1.5" stroke-linecap="round"/>
<path d="M8 7L8 9" stroke="#020203" stroke-width="1.5" stroke-linecap="round"/>
<path d="M12 7L12 9" stroke="#020203" stroke-width="1.5" stroke-linecap="round"/>
<path d="M16 7L16 9" stroke="#020203" stroke-width="1.5" stroke-linecap="round"/>
<path d="M2 8C2 4.68629 4.68629 2 8 2H16C19.3137 2 22 4.68629 22 8C22 11.3137 19.3137 14 16 14H8C4.68629 14 2 11.3137 2 8Z" stroke="#020203" stroke-width="1.5"/>
</svg>
