<svg width="24" height="24" viewBox="0 0 24 24" fill="none" xmlns="http://www.w3.org/2000/svg">
<path d="M7.25 15.23C7.25 14.5396 7.80964 13.98 8.5 13.98C9.19036 13.98 9.75 14.5396 9.75 15.23C9.75 15.9203 9.19036 16.48 8.5 16.48C7.80964 16.48 7.25 15.9203 7.25 15.23Z" fill="#020203"/>
<path d="M16.75 15.23C16.75 14.5396 16.1904 13.98 15.5 13.98C14.8096 13.98 14.25 14.5396 14.25 15.23C14.25 15.9203 14.8096 16.48 15.5 16.48C16.1904 16.48 16.75 15.9203 16.75 15.23Z" fill="#020203"/>
<path fill-rule="evenodd" clip-rule="evenodd" d="M1.76492 5.8165C1.25 7.10885 1.25 8.73923 1.25 12C1.25 15.2608 1.25 16.8912 1.76492 18.1835C2.50185 20.0331 3.96695 21.4982 5.8165 22.2351C7.10885 22.75 8.73923 22.75 12 22.75C15.2608 22.75 16.8912 22.75 18.1835 22.2351C20.0331 21.4982 21.4982 20.0331 22.2351 18.1835C22.75 16.8912 22.75 15.2608 22.75 12C22.75 8.73923 22.75 7.10885 22.2351 5.8165C21.4982 3.96695 20.0331 2.50185 18.1835 1.76492C16.8912 1.25 15.2608 1.25 12 1.25C8.73923 1.25 7.10885 1.25 5.8165 1.76492C3.96695 2.50185 2.50185 3.96695 1.76492 5.8165ZM8.5 12.48C6.98122 12.48 5.75 13.7112 5.75 15.23C5.75 16.7488 6.98122 17.98 8.5 17.98C10.0188 17.98 11.25 16.7488 11.25 15.23C11.25 15.23 11.25 15.23 11.25 15.23V10.5854C11.25 9.71375 11.2511 9.12129 11.2997 8.67608C11.3472 8.24073 11.4314 8.05459 11.5205 7.94214C11.6367 7.79561 11.7843 7.67702 11.9524 7.59509C12.0814 7.53222 12.2813 7.49011 12.7167 7.53739C13.1619 7.58573 13.7407 7.71222 14.5919 7.89984C15.1666 8.02651 15.5483 8.11138 15.8372 8.20339C16.1138 8.29149 16.2425 8.36785 16.3286 8.44406C16.4344 8.53777 16.5236 8.64875 16.5923 8.77228C16.6482 8.87275 16.6951 9.01485 16.7216 9.30394C16.7493 9.60588 16.75 9.99688 16.75 10.5854V12.7798C16.375 12.5881 15.9501 12.48 15.5 12.48C13.9812 12.48 12.75 13.7112 12.75 15.23C12.75 16.7488 13.9812 17.98 15.5 17.98C17.0062 17.98 18.2295 16.7691 18.2497 15.2677C18.2499 15.2612 18.25 15.2546 18.25 15.248V10.552C18.25 10.0057 18.25 9.54554 18.2153 9.16704C18.1788 8.76801 18.0995 8.396 17.9031 8.04303C17.7519 7.77126 17.5557 7.5271 17.3229 7.32095C17.0204 7.05321 16.6742 6.89574 16.2924 6.77413C15.9302 6.65879 15.4809 6.55976 14.9473 6.44217L14.8728 6.42575C14.0741 6.24969 13.415 6.1044 12.8786 6.04615C12.323 5.98582 11.7926 6.00435 11.2953 6.24669C10.9255 6.42692 10.6008 6.68782 10.3452 7.01019C10.0015 7.44364 9.86921 7.95768 9.80854 8.51324C9.74997 9.04958 9.74998 9.72452 9.75 10.5424L9.75 12.7798C9.37497 12.5881 8.95011 12.48 8.5 12.48Z" fill="#020203"/>
</svg>
