<svg width="24" height="24" viewBox="0 0 24 24" fill="none" xmlns="http://www.w3.org/2000/svg">
<path opacity="0.4" d="M1.25 12C1.25 8.73923 1.25 7.10885 1.76492 5.8165C2.50185 3.96695 3.96695 2.50185 5.8165 1.76492C7.10885 1.25 8.73923 1.25 12 1.25C15.2608 1.25 16.8912 1.25 18.1835 1.76492C20.0331 2.50185 21.4982 3.96695 22.2351 5.8165C22.75 7.10885 22.75 8.73923 22.75 12C22.75 15.2608 22.75 16.8912 22.2351 18.1835C21.4982 20.0331 20.0331 21.4982 18.1835 22.2351C16.8912 22.75 15.2608 22.75 12 22.75C8.73923 22.75 7.10885 22.75 5.8165 22.2351C3.96695 21.4982 2.50185 20.0331 1.76492 18.1835C1.25 16.8912 1.25 15.2608 1.25 12Z" fill="#020203"/>
<path fill-rule="evenodd" clip-rule="evenodd" d="M9 10C8.44772 10 8 9.55228 8 9L8 8.999C8 8.44672 8.44772 7.999 9 7.999C9.55228 7.999 10 8.44672 10 8.999L10 9C10 9.55228 9.55228 10 9 10Z" fill="#020203"/>
<path fill-rule="evenodd" clip-rule="evenodd" d="M15 16C14.4477 16 14 15.5523 14 15L14 14.999C14 14.4467 14.4477 13.999 15 13.999C15.5523 13.999 16 14.4467 16 14.999L16 15C16 15.5523 15.5523 16 15 16Z" fill="#020203"/>
<path fill-rule="evenodd" clip-rule="evenodd" d="M15.5303 8.46967C15.8232 8.76256 15.8232 9.23744 15.5303 9.53033L9.53033 15.5303C9.23744 15.8232 8.76256 15.8232 8.46967 15.5303C8.17678 15.2374 8.17678 14.7626 8.46967 14.4697L14.4697 8.46967C14.7626 8.17678 15.2374 8.17678 15.5303 8.46967Z" fill="#020203"/>
</svg>
