<svg width="24" height="24" viewBox="0 0 24 24" fill="none" xmlns="http://www.w3.org/2000/svg">
<path d="M2 12C2 8.73646 2 7.10469 2.57265 5.83232C3.22448 4.38401 4.38401 3.22448 5.83232 2.57265C7.10469 2 8.73646 2 12 2C15.2635 2 16.8953 2 18.1677 2.57265C19.616 3.22448 20.7755 4.38401 21.4273 5.83232C22 7.10469 22 8.73646 22 12C22 15.2635 22 16.8953 21.4273 18.1677C20.7755 19.616 19.616 20.7755 18.1677 21.4273C16.8953 22 15.2635 22 12 22C8.73646 22 7.10469 22 5.83232 21.4273C4.38401 20.7755 3.22448 19.616 2.57265 18.1677C2 16.8953 2 15.2635 2 12Z" stroke="#020203" stroke-width="1.5"/>
<path d="M6.5 15.23C6.5 16.3346 7.39543 17.23 8.5 17.23C9.60457 17.23 10.5 16.3346 10.5 15.23C10.5 14.1254 9.60457 13.23 8.5 13.23C7.39543 13.23 6.5 14.1254 6.5 15.23Z" stroke="#020203" stroke-width="1.5" stroke-linecap="round"/>
<path d="M13.5 15.23C13.5 16.3346 14.3954 17.23 15.5 17.23C16.6046 17.23 17.5 16.3346 17.5 15.23C17.5 14.1254 16.6046 13.23 15.5 13.23C14.3954 13.23 13.5 14.1254 13.5 15.23Z" stroke="#020203" stroke-width="1.5" stroke-linecap="round"/>
<path d="M10.5 15.23V10.5854C10.5 8.87652 10.5 8.02209 10.9329 7.47618C11.1187 7.24173 11.3549 7.05198 11.6238 6.92091C12.2501 6.6157 13.0845 6.79961 14.7533 7.16743C15.8759 7.41486 16.4372 7.53857 16.8257 7.88252C16.9951 8.03245 17.1378 8.21002 17.2477 8.40767C17.5 8.86111 17.5 9.43587 17.5 10.5854V15.248" stroke="#020203" stroke-width="1.5" stroke-linecap="round"/>
</svg>
