<svg width="24" height="24" viewBox="0 0 24 24" fill="none" xmlns="http://www.w3.org/2000/svg">
<path opacity="0.4" d="M1.25 12C1.25 8.73923 1.25 7.10885 1.76492 5.8165C2.50185 3.96695 3.96695 2.50185 5.8165 1.76492C7.10885 1.25 8.73923 1.25 12 1.25C15.2608 1.25 16.8912 1.25 18.1835 1.76492C20.0331 2.50185 21.4982 3.96695 22.2351 5.8165C22.75 7.10885 22.75 8.73923 22.75 12C22.75 15.2608 22.75 16.8912 22.2351 18.1835C21.4982 20.0331 20.0331 21.4982 18.1835 22.2351C16.8912 22.75 15.2608 22.75 12 22.75C8.73923 22.75 7.10885 22.75 5.8165 22.2351C3.96695 21.4982 2.50185 20.0331 1.76492 18.1835C1.25 16.8912 1.25 15.2608 1.25 12Z" fill="#020203"/>
<path d="M7 14.5C7 16.433 8.567 18 10.5 18C12.433 18 14 16.433 14 14.5C14 12.567 12.433 11 10.5 11C8.567 11 7 12.567 7 14.5Z" fill="#020203"/>
<path fill-rule="evenodd" clip-rule="evenodd" d="M16.544 8.72114C15.2691 8.35689 14 9.31415 14 10.6401V14.5C14 14.9142 13.6642 15.25 13.25 15.25C12.8358 15.25 12.5 14.9142 12.5 14.5V10.6401C12.5 8.31759 14.7229 6.64083 16.956 7.27886C17.3543 7.39265 17.5849 7.80776 17.4711 8.20604C17.3573 8.60432 16.9422 8.83494 16.544 8.72114Z" fill="#020203"/>
</svg>
