<svg width="24" height="24" viewBox="0 0 24 24" fill="none" xmlns="http://www.w3.org/2000/svg">
<path d="M12 6.75C10.2051 6.75 8.75 8.20507 8.75 10C8.75 11.7949 10.2051 13.25 12 13.25C13.7949 13.25 15.25 11.7949 15.25 10C15.25 8.20507 13.7949 6.75 12 6.75Z" fill="#020203"/>
<path fill-rule="evenodd" clip-rule="evenodd" d="M1.25 12C1.25 8.73923 1.25 7.10885 1.76492 5.8165C2.50185 3.96695 3.96695 2.50185 5.8165 1.76492C7.10885 1.25 8.73923 1.25 12 1.25C15.2608 1.25 16.8912 1.25 18.1835 1.76492C20.0331 2.50185 21.4982 3.96695 22.2351 5.8165C22.75 7.10885 22.75 8.73923 22.75 12C22.75 15.2608 22.75 16.8912 22.2351 18.1835C21.701 19.524 20.7844 20.6625 19.6161 21.4683C18.5364 18.3561 15.5982 16.25 12.2798 16.25H11.7202C8.4018 16.25 5.46359 18.3561 4.38386 21.4683C3.21562 20.6625 2.29902 19.524 1.76492 18.1835C1.25 16.8912 1.25 15.2608 1.25 12ZM7.25 10C7.25 7.37665 9.37665 5.25 12 5.25C14.6234 5.25 16.75 7.37665 16.75 10C16.75 12.6234 14.6234 14.75 12 14.75C9.37665 14.75 7.25 12.6234 7.25 10Z" fill="#020203"/>
<path d="M5.72383 22.1974C5.75461 22.2102 5.7855 22.2227 5.8165 22.2351C7.10885 22.75 8.73923 22.75 12 22.75C15.2608 22.75 16.8912 22.75 18.1835 22.2351C18.2145 22.2227 18.2454 22.2102 18.2762 22.1974C17.4754 19.5568 15.0407 17.75 12.2798 17.75H11.7202C8.95932 17.75 6.52462 19.5568 5.72383 22.1974Z" fill="#020203"/>
</svg>
