<svg width="24" height="24" viewBox="0 0 24 24" fill="none" xmlns="http://www.w3.org/2000/svg">
<path fill-rule="evenodd" clip-rule="evenodd" d="M11.75 1.99901C11.7509 2.41322 11.4159 2.74977 11.0017 2.75072C8.34289 2.75676 7.09983 2.82465 6.14013 3.25658C4.85894 3.83319 3.83319 4.85894 3.25658 6.14013C3.02125 6.663 2.88812 7.29077 2.81957 8.22439C2.75047 9.16549 2.75 10.3572 2.75 12C2.75 13.6428 2.75047 14.8345 2.81957 15.7756C2.88812 16.7092 3.02125 17.337 3.25658 17.8599C3.83319 19.1411 4.85894 20.1668 6.14013 20.7434C6.663 20.9787 7.29077 21.1119 8.22439 21.1804C9.16549 21.2495 10.3572 21.25 12 21.25C13.6428 21.25 14.8345 21.2495 15.7756 21.1804C16.7092 21.1119 17.337 20.9787 17.8599 20.7434C19.1411 20.1668 20.1668 19.1411 20.7434 17.8599C20.9787 17.337 21.1119 16.7092 21.1804 15.7756C21.2495 14.8345 21.25 13.6428 21.25 12C21.25 11.5858 21.5858 11.25 22 11.25C22.4142 11.25 22.75 11.5858 22.75 12V12.0305C22.75 13.6365 22.75 14.883 22.6764 15.8854C22.6018 16.9017 22.4486 17.726 22.1113 18.4755C21.3842 20.0909 20.0909 21.3842 18.4755 22.1113C17.726 22.4486 16.9017 22.6018 15.8854 22.6764C14.883 22.75 13.6365 22.75 12.0305 22.75H11.9695C10.3635 22.75 9.11697 22.75 8.11456 22.6764C7.09832 22.6018 6.27401 22.4486 5.52451 22.1113C3.90909 21.3842 2.61577 20.0909 1.88873 18.4755C1.5514 17.726 1.39821 16.9017 1.32359 15.8854C1.24999 14.883 1.25 13.6365 1.25 12.0305V11.9695C1.25 10.3635 1.24999 9.11698 1.32359 8.11456C1.39821 7.09832 1.5514 6.27401 1.88873 5.52451C2.61577 3.90909 3.90909 2.61577 5.52451 1.88873C6.83527 1.2988 8.43487 1.25655 10.9983 1.25072C11.4125 1.24978 11.7491 1.5848 11.75 1.99901Z" fill="#020203"/>
<path opacity="0.4" d="M12.7695 4.83017L9.15427 8.44541C8.62861 8.97107 8.36577 9.2339 8.1415 9.51404C7.37159 10.4757 6.89082 11.6364 6.75521 12.8608C6.71571 13.2175 6.71571 13.5892 6.71571 14.3326C6.71572 14.8546 6.71572 15.1159 6.76418 15.332C6.93349 16.087 7.52309 16.6766 8.27807 16.8459C8.49419 16.8944 8.75527 16.8944 9.27738 16.8944C10.0208 16.8944 10.3926 16.8944 10.7492 16.8549C11.9737 16.7193 13.1344 16.2385 14.096 15.4686C14.3762 15.2443 14.639 14.9815 15.1647 14.4558L18.7799 10.8406L12.7695 4.83017Z" fill="#020203"/>
<path d="M13.8302 3.76984L14.4939 3.10612C16.1536 1.4464 18.8446 1.4464 20.5043 3.10612C22.164 4.76585 22.164 7.4568 20.5043 9.11653L19.8406 9.78025L13.8302 3.76984Z" fill="#020203"/>
</svg>
