<svg width="24" height="24" viewBox="0 0 24 24" fill="none" xmlns="http://www.w3.org/2000/svg">
<path fill-rule="evenodd" clip-rule="evenodd" d="M1.25 12C1.25 8.73923 1.25 7.10885 1.76492 5.8165C2.50185 3.96695 3.96695 2.50185 5.8165 1.76492C7.10885 1.25 8.73923 1.25 12 1.25C15.2608 1.25 16.8912 1.25 18.1835 1.76492C20.0331 2.50185 21.4982 3.96695 22.2351 5.8165C22.75 7.10885 22.75 8.73923 22.75 12C22.75 15.2608 22.75 16.8912 22.2351 18.1835C21.4982 20.0331 20.0331 21.4982 18.1835 22.2351C16.8912 22.75 15.2608 22.75 12 22.75C8.73923 22.75 7.10885 22.75 5.8165 22.2351C3.96695 21.4982 2.50185 20.0331 1.76492 18.1835C1.25 16.8912 1.25 15.2608 1.25 12ZM12.75 7.75H14C15.2426 7.75 16.25 8.75736 16.25 10C16.25 10.4142 16.5858 10.75 17 10.75C17.4142 10.75 17.75 10.4142 17.75 10C17.75 7.92893 16.0711 6.25 14 6.25H10C7.92893 6.25 6.25 7.92893 6.25 10C6.25 10.4142 6.58579 10.75 7 10.75C7.41421 10.75 7.75 10.4142 7.75 10C7.75 8.75736 8.75736 7.75 10 7.75H11.25V17C11.25 17.4142 11.5858 17.75 12 17.75C12.4142 17.75 12.75 17.4142 12.75 17V7.75Z" fill="#020203"/>
</svg>
