<svg width="24" height="24" viewBox="0 0 24 24" fill="none" xmlns="http://www.w3.org/2000/svg">
<path opacity="0.4" d="M2 12C2 8.73646 2 7.10469 2.57265 5.83232C3.22448 4.38401 4.38401 3.22448 5.83232 2.57265C7.10469 2 8.73646 2 12 2C15.2635 2 16.8953 2 18.1677 2.57265C19.616 3.22448 20.7755 4.38401 21.4273 5.83232C22 7.10469 22 8.73646 22 12C22 15.2635 22 16.8953 21.4273 18.1677C20.7755 19.616 19.616 20.7755 18.1677 21.4273C16.8953 22 15.2635 22 12 22C8.73646 22 7.10469 22 5.83232 21.4273C4.38401 20.7755 3.22448 19.616 2.57265 18.1677C2 16.8953 2 15.2635 2 12Z" stroke="#020203" stroke-width="1.5"/>
<path d="M14.7 8.86485C13.75 6.06473 9.25005 6.56476 9.25005 9.3848C9.25005 10.4548 9.80005 11.1947 10.34 11.5147C10.96 11.8947 11.3 11.9647 12.25 12.0648M9.25 15.2001C10.2 18.0002 14.7 17.5002 14.7 14.6801C14.7 13.6102 14.15 12.8702 13.61 12.5502C12.99 12.1702 12.65 12.1002 11.7 12.0001" stroke="#020203" stroke-width="1.5" stroke-linecap="round"/>
<path d="M12 17.5V18" stroke="#020203" stroke-width="1.5" stroke-linecap="round" stroke-linejoin="round"/>
<path d="M12 6V6.5" stroke="#020203" stroke-width="1.5" stroke-linecap="round" stroke-linejoin="round"/>
</svg>
