<svg width="24" height="24" viewBox="0 0 24 24" fill="none" xmlns="http://www.w3.org/2000/svg">
<path opacity="0.4" d="M1.25 12C1.25 8.73923 1.25 7.10885 1.76492 5.8165C2.50185 3.96695 3.96695 2.50185 5.8165 1.76492C7.10885 1.25 8.73923 1.25 12 1.25C15.2608 1.25 16.8912 1.25 18.1835 1.76492C20.0331 2.50185 21.4982 3.96695 22.2351 5.8165C22.75 7.10885 22.75 8.73923 22.75 12C22.75 15.2608 22.75 16.8912 22.2351 18.1835C21.4982 20.0331 20.0331 21.4982 18.1835 22.2351C16.8912 22.75 15.2608 22.75 12 22.75C8.73923 22.75 7.10885 22.75 5.8165 22.2351C3.96695 21.4982 2.50185 20.0331 1.76492 18.1835C1.25 16.8912 1.25 15.2608 1.25 12Z" fill="#020203"/>
<path d="M12.75 15.5C12.75 17.0188 13.9812 18.25 15.5 18.25C17.0188 18.25 18.25 17.0188 18.25 15.5C18.25 13.9812 17.0188 12.75 15.5 12.75C13.9812 12.75 12.75 13.9812 12.75 15.5Z" fill="#020203"/>
<path d="M5.75 15.5C5.75 17.0188 6.98122 18.25 8.5 18.25C10.0188 18.25 11.25 17.0188 11.25 15.5C11.25 13.9812 10.0188 12.75 8.5 12.75C6.98122 12.75 5.75 13.9812 5.75 15.5Z" fill="#020203"/>
<path fill-rule="evenodd" clip-rule="evenodd" d="M14.8728 6.6958L14.9473 6.71222C15.4809 6.82981 15.9302 6.92883 16.2924 7.04418C16.6742 7.16579 17.0204 7.32326 17.3229 7.591C17.5557 7.79715 17.7519 8.04131 17.9031 8.31308C18.0995 8.66605 18.1788 9.03805 18.2153 9.43709C18.25 9.81559 18.25 10.2757 18.25 10.8221L18.25 15.5C18.25 15.9142 17.9142 16.25 17.5 16.25C17.0858 16.25 16.75 15.9142 16.75 15.5V10.8554C16.75 10.2669 16.7493 9.87593 16.7216 9.57399C16.6951 9.2849 16.6482 9.1428 16.5923 9.04233C16.5236 8.9188 16.4344 8.80782 16.3286 8.71411C16.2425 8.6379 16.1138 8.56154 15.8372 8.47344C15.5483 8.38143 15.1666 8.29656 14.5919 8.16989C13.7407 7.98227 13.1619 7.85578 12.7167 7.80743C12.2813 7.76016 12.0814 7.80227 11.9524 7.86514C11.7843 7.94706 11.6367 8.06566 11.5205 8.21219C11.4314 8.32464 11.3472 8.51078 11.2997 8.94613C11.2511 9.39134 11.25 9.98379 11.25 10.8554V15.5C11.25 15.9142 10.9142 16.25 10.5 16.25C10.0858 16.25 9.75 15.9142 9.75 15.5L9.75 10.8125C9.74998 9.9946 9.74997 9.31964 9.80854 8.78329C9.86921 8.22772 10.0015 7.71369 10.3452 7.28024C10.6008 6.95787 10.9255 6.69697 11.2953 6.51674C11.7926 6.2744 12.323 6.25587 12.8786 6.3162C13.415 6.37445 14.0741 6.51974 14.8728 6.6958Z" fill="#020203"/>
</svg>
