<svg width="24" height="24" viewBox="0 0 24 24" fill="none" xmlns="http://www.w3.org/2000/svg">
<path opacity="0.4" d="M1.25 12C1.25 8.73923 1.25 7.10885 1.76492 5.8165C2.50185 3.96695 3.96695 2.50185 5.8165 1.76492C7.10885 1.25 8.73923 1.25 12 1.25C15.2608 1.25 16.8912 1.25 18.1835 1.76492C20.0331 2.50185 21.4982 3.96695 22.2351 5.8165C22.75 7.10885 22.75 8.73923 22.75 12C22.75 15.2608 22.75 16.8912 22.2351 18.1835C21.4982 20.0331 20.0331 21.4982 18.1835 22.2351C16.8912 22.75 15.2608 22.75 12 22.75C8.73923 22.75 7.10885 22.75 5.8165 22.2351C3.96695 21.4982 2.50185 20.0331 1.76492 18.1835C1.25 16.8912 1.25 15.2608 1.25 12Z" fill="#020203"/>
<path fill-rule="evenodd" clip-rule="evenodd" d="M11.5423 6.27117C13.0388 6.11776 14.7948 6.80981 15.4103 8.62388C15.5434 9.01613 15.3333 9.442 14.941 9.57508C14.5487 9.70816 14.1229 9.49806 13.9898 9.10581C13.6553 8.11977 12.6862 7.66177 11.6953 7.76335C10.6998 7.86539 10 8.48081 10 9.38479C10 10.1884 10.409 10.6838 10.7224 10.8695L10.732 10.8752L10.732 10.8752C11.0019 11.0407 11.1765 11.1182 11.3706 11.1717C11.493 11.2054 11.632 11.2322 11.8179 11.2584C11.9963 11.2774 12.1615 11.2962 12.317 11.3177C12.3208 11.3182 12.3248 11.3186 12.3287 11.319C12.351 11.3213 12.373 11.3246 12.3946 11.3289C12.6036 11.3598 12.7952 11.3968 12.978 11.4472C13.3449 11.5483 13.6493 11.695 13.9975 11.9081C14.7621 12.3637 15.45 13.3468 15.45 14.6801C15.45 16.5962 13.8998 17.6408 12.4077 17.7938C10.9112 17.9472 9.15522 17.2551 8.53975 15.4411C8.40667 15.0488 8.61677 14.6229 9.00903 14.4899C9.40128 14.3568 9.82715 14.5669 9.96023 14.9591C10.2948 15.9452 11.2638 16.4032 12.2548 16.3016C13.2502 16.1995 13.95 15.5841 13.95 14.6801C13.95 13.8765 13.541 13.3811 13.2276 13.1955L13.218 13.1898L13.2181 13.1897C12.9481 13.0242 12.7735 12.9467 12.5795 12.8933C12.457 12.8595 12.318 12.8327 12.1321 12.8066C11.9537 12.7876 11.7885 12.7687 11.6331 12.7472C11.6292 12.7468 11.6253 12.7464 11.6214 12.746C11.599 12.7436 11.577 12.7403 11.5554 12.7361C11.3464 12.7051 11.1548 12.6681 10.972 12.6178C10.6051 12.5166 10.3007 12.3699 9.95256 12.1569C9.18795 11.7012 8.50004 10.7181 8.50004 9.38479C8.50004 7.46874 10.0502 6.42412 11.5423 6.27117Z" fill="#020203"/>
<path fill-rule="evenodd" clip-rule="evenodd" d="M12 16.75C12.4142 16.75 12.75 17.0858 12.75 17.5V18C12.75 18.4142 12.4142 18.75 12 18.75C11.5858 18.75 11.25 18.4142 11.25 18V17.5C11.25 17.0858 11.5858 16.75 12 16.75Z" fill="#020203"/>
<path fill-rule="evenodd" clip-rule="evenodd" d="M12 5.25C12.4142 5.25 12.75 5.58579 12.75 6V6.5C12.75 6.91421 12.4142 7.25 12 7.25C11.5858 7.25 11.25 6.91421 11.25 6.5V6C11.25 5.58579 11.5858 5.25 12 5.25Z" fill="#020203"/>
</svg>
