<svg width="24" height="24" viewBox="0 0 24 24" fill="none" xmlns="http://www.w3.org/2000/svg">
<path fill-rule="evenodd" clip-rule="evenodd" d="M1.76492 5.8165C1.25 7.10885 1.25 8.73923 1.25 12C1.25 15.2608 1.25 16.8912 1.76492 18.1835C2.50185 20.0331 3.96695 21.4982 5.8165 22.2351C7.10885 22.75 8.73923 22.75 12 22.75C15.2608 22.75 16.8912 22.75 18.1835 22.2351C20.0331 21.4982 21.4982 20.0331 22.2351 18.1835C22.75 16.8912 22.75 15.2608 22.75 12C22.75 8.73923 22.75 7.10885 22.2351 5.8165C21.4982 3.96695 20.0331 2.50185 18.1835 1.76492C16.8912 1.25 15.2608 1.25 12 1.25C8.73923 1.25 7.10885 1.25 5.8165 1.76492C3.96695 2.50185 2.50185 3.96695 1.76492 5.8165ZM11.25 6.31249V6C11.25 5.58579 11.5858 5.25 12 5.25C12.4142 5.25 12.75 5.58579 12.75 6V6.33031C13.8827 6.55877 14.9565 7.28634 15.4103 8.62388C15.5434 9.01614 15.3333 9.442 14.941 9.57508C14.5488 9.70816 14.1229 9.49806 13.9898 9.10581C13.6553 8.11977 12.6863 7.66177 11.6953 7.76335C10.6998 7.8654 10 8.48082 10 9.3848C10 10.1884 10.4091 10.6838 10.7224 10.8695L10.732 10.8752C11.002 11.0407 11.1765 11.1182 11.3706 11.1717C11.493 11.2054 11.632 11.2322 11.8179 11.2584C11.9963 11.2774 12.1615 11.2962 12.317 11.3177L12.3287 11.319C12.351 11.3213 12.373 11.3246 12.3946 11.3289C12.6036 11.3598 12.7952 11.3968 12.978 11.4472C13.3449 11.5483 13.6493 11.695 13.9975 11.9081C14.7621 12.3637 15.45 13.3468 15.45 14.6801C15.45 16.4498 14.1276 17.4761 12.75 17.7431V18C12.75 18.4142 12.4142 18.75 12 18.75C11.5858 18.75 11.25 18.4142 11.25 18V17.7444C10.099 17.5274 9.00022 16.7982 8.53976 15.4411C8.40668 15.0488 8.61678 14.6229 9.00904 14.4899C9.40129 14.3568 9.82716 14.5669 9.96024 14.9591C10.2948 15.9452 11.2638 16.4032 12.2548 16.3016C13.2502 16.1995 13.95 15.5841 13.95 14.6801C13.95 13.8765 13.541 13.3811 13.2276 13.1955L13.218 13.1898C12.948 13.0243 12.7735 12.9468 12.5795 12.8933C12.457 12.8595 12.318 12.8327 12.1321 12.8066C11.9537 12.7876 11.7885 12.7687 11.6331 12.7472L11.6214 12.746C11.599 12.7436 11.577 12.7403 11.5554 12.7361C11.3464 12.7051 11.1549 12.6682 10.972 12.6178C10.6051 12.5166 10.3007 12.3699 9.95257 12.1569C9.18796 11.7012 8.50005 10.7181 8.50005 9.3848C8.50005 7.59374 9.85458 6.56413 11.25 6.31249Z" fill="#020203"/>
</svg>
