<svg width="24" height="24" viewBox="0 0 24 24" fill="none" xmlns="http://www.w3.org/2000/svg">
<path fill-rule="evenodd" clip-rule="evenodd" d="M1.76492 5.8165C1.25 7.10885 1.25 8.73923 1.25 12C1.25 15.2608 1.25 16.8912 1.76492 18.1835C2.50185 20.0331 3.96695 21.4982 5.8165 22.2351C7.10885 22.75 8.73923 22.75 12 22.75C15.2608 22.75 16.8912 22.75 18.1835 22.2351C20.0331 21.4982 21.4982 20.0331 22.2351 18.1835C22.75 16.8912 22.75 15.2608 22.75 12C22.75 8.73923 22.75 7.10885 22.2351 5.8165C21.4982 3.96695 20.0331 2.50185 18.1835 1.76492C16.8912 1.25 15.2608 1.25 12 1.25C8.73923 1.25 7.10885 1.25 5.8165 1.76492C3.96695 2.50185 2.50185 3.96695 1.76492 5.8165ZM13.7115 9.23717C13.8425 8.84421 13.6301 8.41947 13.2372 8.28849C12.8442 8.1575 12.4195 8.36987 12.2885 8.76283L10.2885 14.7628C10.1575 15.1558 10.3699 15.5805 10.7628 15.7115C11.1558 15.8425 11.5805 15.6301 11.7115 15.2372L13.7115 9.23717ZM15.4687 8.469C15.7616 8.17611 16.2365 8.17611 16.5294 8.469L18.4687 10.4083C19.3474 11.287 19.3474 12.7116 18.4687 13.5903L16.5294 15.5297C16.2365 15.8226 15.7616 15.8226 15.4687 15.5297C15.1758 15.2368 15.1758 14.7619 15.4687 14.469L17.408 12.5297C17.7009 12.2368 17.7009 11.7619 17.408 11.469L15.4687 9.52966C15.1758 9.23677 15.1758 8.76189 15.4687 8.469ZM8.52913 9.52966C8.82202 9.23677 8.82202 8.76189 8.52913 8.469C8.23623 8.17611 7.76136 8.17611 7.46847 8.469L5.52913 10.4083C4.65045 11.287 4.65045 12.7116 5.52913 13.5903L7.46847 15.5297C7.76136 15.8226 8.23623 15.8226 8.52913 15.5297C8.82202 15.2368 8.82202 14.7619 8.52913 14.469L6.58979 12.5297C6.29689 12.2368 6.29689 11.7619 6.58979 11.469L8.52913 9.52966Z" fill="#020203"/>
</svg>
