<svg width="24" height="24" viewBox="0 0 24 24" fill="none" xmlns="http://www.w3.org/2000/svg">
<path opacity="0.4" d="M1.25 12C1.25 8.73923 1.25 7.10885 1.76492 5.8165C2.50185 3.96695 3.96695 2.50185 5.8165 1.76492C7.10885 1.25 8.73923 1.25 12 1.25C15.2608 1.25 16.8912 1.25 18.1835 1.76492C20.0331 2.50185 21.4982 3.96695 22.2351 5.8165C22.75 7.10885 22.75 8.73923 22.75 12C22.75 15.2608 22.75 16.8912 22.2351 18.1835C21.4982 20.0331 20.0331 21.4982 18.1835 22.2351C16.8912 22.75 15.2608 22.75 12 22.75C8.73923 22.75 7.10885 22.75 5.8165 22.2351C3.96695 21.4982 2.50185 20.0331 1.76492 18.1835C1.25 16.8912 1.25 15.2608 1.25 12Z" fill="#020203"/>
<path d="M1.25026 11.25C1.25 11.4901 1.25 11.7398 1.25 12C1.25 12.2602 1.25 12.5099 1.25026 12.75H3.91886C5.18593 12.75 6.31083 11.9392 6.71151 10.7372L6.81415 10.4293C6.94936 10.0236 7.32899 9.75 7.75658 9.75C8.30523 9.75 8.75 10.1948 8.75 10.7434V13.2566C8.75 14.6337 9.86634 15.75 11.2434 15.75C12.3167 15.75 13.2695 15.0632 13.6089 14.0451L13.7115 13.7372C13.908 13.1476 14.4597 12.75 15.0811 12.75H17C17.4142 12.75 17.75 12.4142 17.75 12C17.75 11.5858 17.4142 11.25 17 11.25H15.0811C13.8141 11.25 12.6892 12.0608 12.2885 13.2628L12.1859 13.5707C12.0506 13.9764 11.671 14.25 11.2434 14.25C10.6948 14.25 10.25 13.8052 10.25 13.2566V10.7434C10.25 9.36634 9.13366 8.25 7.75658 8.25C6.68334 8.25 5.73051 8.93676 5.39112 9.95493L5.28849 10.2628C5.09198 10.8524 4.54028 11.25 3.91886 11.25H1.25026Z" fill="#020203"/>
</svg>
