<svg width="24" height="24" viewBox="0 0 24 24" fill="none" xmlns="http://www.w3.org/2000/svg">
<path opacity="0.4" d="M2 12C2 8.73646 2 7.10469 2.57265 5.83232C3.22448 4.38401 4.38401 3.22448 5.83232 2.57265C7.10469 2 8.73646 2 12 2C15.2635 2 16.8953 2 18.1677 2.57265C19.616 3.22448 20.7755 4.38401 21.4273 5.83232C22 7.10469 22 8.73646 22 12C22 15.2635 22 16.8953 21.4273 18.1677C20.7755 19.616 19.616 20.7755 18.1677 21.4273C16.8953 22 15.2635 22 12 22C8.73646 22 7.10469 22 5.83232 21.4273C4.38401 20.7755 3.22448 19.616 2.57265 18.1677C2 16.8953 2 15.2635 2 12Z" stroke="#020203" stroke-width="1.5"/>
<path d="M8 10C8 12.2091 9.79086 14 12 14C14.2091 14 16 12.2091 16 10C16 7.79086 14.2091 6 12 6C9.79086 6 8 7.79086 8 10Z" stroke="#020203" stroke-width="1.5" stroke-linecap="round"/>
<path d="M5.5 20.7694C6.69158 18.4848 9.07188 17 11.7202 17H12.2799C14.9282 17 17.3085 18.4848 18.5001 20.7694" stroke="#020203" stroke-width="1.5" stroke-linecap="round" stroke-linejoin="round"/>
</svg>
