<svg width="24" height="24" viewBox="0 0 24 24" fill="none" xmlns="http://www.w3.org/2000/svg">
<path d="M22 12C22 15.2635 22 16.8953 21.4273 18.1677C20.7755 19.616 19.616 20.7755 18.1677 21.4273C16.8953 22 15.2635 22 12 22C8.73646 22 7.10469 22 5.83232 21.4273C4.38401 20.7755 3.22448 19.616 2.57265 18.1677C2 16.8953 2 15.2635 2 12C2 8.73646 2 7.10469 2.57265 5.83232C3.22448 4.38401 4.38401 3.22448 5.83232 2.57265C6.96755 2.06172 8.38888 2.00665 11 2.00072" stroke="#020203" stroke-width="1.5" stroke-linecap="round"/>
<path opacity="0.4" d="M15.0251 3.63503L9.8415 8.81866C9.27526 9.3849 8.99215 9.66801 8.75455 9.9769C8.21813 10.6743 7.84163 11.4811 7.65175 12.3402C7.56764 12.7207 7.53253 13.1195 7.46229 13.9172C7.40901 14.5224 7.38237 14.825 7.44004 15.0639C7.57211 15.6108 7.99913 16.0378 8.54605 16.1699C8.78492 16.2275 9.08751 16.2009 9.6927 16.1476C10.4904 16.0774 10.8892 16.0423 11.2697 15.9582C12.1288 15.7683 12.9356 15.3918 13.633 14.8554C13.9419 14.6178 14.225 14.3346 14.7912 13.7684L19.9749 8.58478C21.3417 7.21794 21.3417 5.00187 19.9749 3.63503C18.608 2.2682 16.392 2.2682 15.0251 3.63503Z" stroke="#020203" stroke-width="1.5"/>
<path d="M14 4.99997L18.6508 9.65076" stroke="#020203" stroke-width="1.5" stroke-linecap="round" stroke-linejoin="round"/>
</svg>
