<svg width="24" height="24" viewBox="0 0 24 24" fill="none" xmlns="http://www.w3.org/2000/svg">
<path fill-rule="evenodd" clip-rule="evenodd" d="M1.25 12C1.25 8.73923 1.25 7.10885 1.76492 5.8165C2.50185 3.96695 3.96695 2.50185 5.8165 1.76492C7.10885 1.25 8.73923 1.25 12 1.25C15.2608 1.25 16.8912 1.25 18.1835 1.76492C20.0331 2.50185 21.4982 3.96695 22.2351 5.8165C22.75 7.10885 22.75 8.73923 22.75 12C22.75 15.2608 22.75 16.8912 22.2351 18.1835C21.4982 20.0331 20.0331 21.4982 18.1835 22.2351C16.8912 22.75 15.2608 22.75 12 22.75C8.73923 22.75 7.10885 22.75 5.8165 22.2351C3.96695 21.4982 2.50185 20.0331 1.76492 18.1835C1.25 16.8912 1.25 15.2608 1.25 12ZM13.4687 8.469C13.7616 8.17611 14.2365 8.17611 14.5294 8.469L16.4687 10.4083C17.3474 11.287 17.3474 12.7116 16.4687 13.5903L14.5294 15.5297C14.2365 15.8226 13.7616 15.8226 13.4687 15.5297C13.1758 15.2368 13.1758 14.7619 13.4687 14.469L15.408 12.5297C15.7009 12.2368 15.7009 11.7619 15.408 11.469L13.4687 9.52966C13.1758 9.23677 13.1758 8.76189 13.4687 8.469ZM10.5291 9.52966C10.822 9.23677 10.822 8.76189 10.5291 8.469C10.2362 8.17611 9.76136 8.17611 9.46847 8.469L7.52913 10.4083C6.65045 11.287 6.65045 12.7116 7.52913 13.5903L9.46847 15.5297C9.76136 15.8226 10.2362 15.8226 10.5291 15.5297C10.822 15.2368 10.822 14.7619 10.5291 14.469L8.58979 12.5297C8.29689 12.2368 8.29689 11.7619 8.58979 11.469L10.5291 9.52966Z" fill="#020203"/>
</svg>
