<svg width="24" height="24" viewBox="0 0 24 24" fill="none" xmlns="http://www.w3.org/2000/svg">
<path d="M1.25 11.2926C1.32814 11.265 1.41221 11.25 1.4998 11.25H3.91866C4.54008 11.25 5.09177 10.8524 5.28828 10.2628L5.39092 9.95493C5.73031 8.93676 6.68314 8.25 7.75638 8.25C9.13346 8.25 10.2498 9.36634 10.2498 10.7434V13.2566C10.2498 13.8052 10.6946 14.25 11.2432 14.25C11.6708 14.25 12.0504 13.9764 12.1857 13.5707L12.2883 13.2628C12.689 12.0608 13.8139 11.25 15.0809 11.25H16.9998C17.414 11.25 17.7498 11.5858 17.7498 12C17.7498 12.4142 17.414 12.75 16.9998 12.75H15.0809C14.4595 12.75 13.9078 13.1476 13.7113 13.7372L13.6087 14.0451C13.2693 15.0632 12.3165 15.75 11.2432 15.75C9.86614 15.75 8.7498 14.6337 8.7498 13.2566V10.7434C8.7498 10.1948 8.30503 9.75 7.75638 9.75C7.32878 9.75 6.94916 10.0236 6.81394 10.4293L6.71131 10.7372C6.31063 11.9392 5.18572 12.75 3.91866 12.75H1.4998C1.41221 12.75 1.32814 12.735 1.25 12.7074C1.25268 15.5037 1.28844 16.9882 1.7647 18.1835C2.50163 20.0331 3.96673 21.4982 5.81628 22.2351C7.10863 22.75 8.73901 22.75 11.9998 22.75C15.2606 22.75 16.8909 22.75 18.1833 22.2351C20.0328 21.4982 21.4979 20.0331 22.2349 18.1835C22.7498 16.8912 22.7498 15.2608 22.7498 12C22.7498 8.73923 22.7498 7.10885 22.2349 5.8165C21.4979 3.96695 20.0328 2.50185 18.1833 1.76492C16.8909 1.25 15.2606 1.25 11.9998 1.25C8.73901 1.25 7.10863 1.25 5.81628 1.76492C3.96673 2.50185 2.50163 3.96695 1.7647 5.8165C1.28844 7.01182 1.25268 8.49633 1.25 11.2926Z" fill="#020203"/>
</svg>
