<svg width="24" height="24" viewBox="0 0 24 24" fill="none" xmlns="http://www.w3.org/2000/svg">
<path d="M10.25 11.75C9.00736 11.75 8 12.7574 8 14C8 15.2426 9.00736 16.25 10.25 16.25C11.4926 16.25 12.5 15.2426 12.5 14C12.5 12.7574 11.4926 11.75 10.25 11.75Z" fill="#020203"/>
<path fill-rule="evenodd" clip-rule="evenodd" d="M1.25 12C1.25 6.06294 6.06294 1.25 12 1.25C17.9371 1.25 22.75 6.06294 22.75 12C22.75 17.9371 17.9371 22.75 12 22.75C6.06294 22.75 1.25 17.9371 1.25 12ZM12.5 10.9997C11.8733 10.529 11.0942 10.25 10.25 10.25C8.17893 10.25 6.5 11.9289 6.5 14C6.5 16.0711 8.17893 17.75 10.25 17.75C12.3211 17.75 14 16.0711 14 14V10.6401C14 9.31416 15.2691 8.35689 16.544 8.72114C16.9422 8.83494 17.3573 8.60432 17.4711 8.20604C17.5849 7.80776 17.3543 7.39265 16.956 7.27886C14.7229 6.64083 12.5 8.31759 12.5 10.6401V10.9997Z" fill="#020203"/>
</svg>
