<svg width="24" height="24" viewBox="0 0 24 24" fill="none" xmlns="http://www.w3.org/2000/svg">
<path opacity="0.4" fill-rule="evenodd" clip-rule="evenodd" d="M21.25 8C21.25 7.58579 20.9142 7.25 20.5 7.25H8.98953C5.32887 7.25 2.25 9.9893 2.25 13.5C2.25 17.0107 5.32887 19.75 8.98953 19.75H17C17.4142 19.75 17.75 19.4142 17.75 19C17.75 18.5858 17.4142 18.25 17 18.25H8.98953C6.03434 18.25 3.75 16.0644 3.75 13.5C3.75 10.9356 6.03434 8.75 8.98953 8.75H20.5C20.9142 8.75 21.25 8.41421 21.25 8Z" fill="#020203"/>
<path fill-rule="evenodd" clip-rule="evenodd" d="M18.4697 4.46967C18.7626 4.17678 19.2374 4.17678 19.5303 4.46967L21.4697 6.40901C22.3483 7.28769 22.3484 8.71231 21.4697 9.59099L19.5303 11.5303C19.2374 11.8232 18.7626 11.8232 18.4697 11.5303C18.1768 11.2374 18.1768 10.7626 18.4697 10.4697L20.409 8.53033C20.7019 8.23744 20.7019 7.76256 20.409 7.46967L18.4697 5.53033C18.1768 5.23744 18.1768 4.76256 18.4697 4.46967Z" fill="#020203"/>
</svg>
