<svg width="24" height="24" viewBox="0 0 24 24" fill="none" xmlns="http://www.w3.org/2000/svg">
<path d="M10.75 7C10.75 6.30964 11.3096 5.75 12 5.75C12.6904 5.75 13.25 6.30964 13.25 7C13.25 7.69036 12.6904 8.25 12 8.25C11.3096 8.25 10.75 7.69036 10.75 7Z" fill="#020203"/>
<path d="M17 10.75C16.3096 10.75 15.75 11.3096 15.75 12C15.75 12.6904 16.3096 13.25 17 13.25C17.6904 13.25 18.25 12.6904 18.25 12C18.25 11.3096 17.6904 10.75 17 10.75Z" fill="#020203"/>
<path d="M10.75 17C10.75 16.3096 11.3096 15.75 12 15.75C12.6904 15.75 13.25 16.3096 13.25 17C13.25 17.6904 12.6904 18.25 12 18.25C11.3096 18.25 10.75 17.6904 10.75 17Z" fill="#020203"/>
<path d="M5.75 12C5.75 11.3096 6.30964 10.75 7 10.75C7.69036 10.75 8.25 11.3096 8.25 12C8.25 12.6904 7.69036 13.25 7 13.25C6.30964 13.25 5.75 12.6904 5.75 12Z" fill="#020203"/>
<path fill-rule="evenodd" clip-rule="evenodd" d="M12 22.75C6.06294 22.75 1.25 17.9371 1.25 12C1.25 6.06294 6.06294 1.25 12 1.25C17.9371 1.25 22.75 6.06294 22.75 12C22.75 17.9371 17.9371 22.75 12 22.75ZM12 4.25C10.4812 4.25 9.25 5.48122 9.25 7C9.25 8.51878 10.4812 9.75 12 9.75C13.5188 9.75 14.75 8.51878 14.75 7C14.75 5.48122 13.5188 4.25 12 4.25ZM14.25 12C14.25 10.4812 15.4812 9.25 17 9.25C18.5188 9.25 19.75 10.4812 19.75 12C19.75 13.5188 18.5188 14.75 17 14.75C15.4812 14.75 14.25 13.5188 14.25 12ZM12 14.25C10.4812 14.25 9.25 15.4812 9.25 17C9.25 18.5188 10.4812 19.75 12 19.75C13.5188 19.75 14.75 18.5188 14.75 17C14.75 15.4812 13.5188 14.25 12 14.25ZM12 11C11.4477 11 11 11.4477 11 12C11 12.5523 11.4477 13 12 13C12.5523 13 13 12.5523 13 12C13 11.4477 12.5523 11 12 11ZM7 9.25C5.48122 9.25 4.25 10.4812 4.25 12C4.25 13.5188 5.48122 14.75 7 14.75C8.51878 14.75 9.75 13.5188 9.75 12C9.75 10.4812 8.51878 9.25 7 9.25Z" fill="#020203"/>
<path fill-rule="evenodd" clip-rule="evenodd" d="M11.25 22C11.25 21.5858 11.5858 21.25 12 21.25L22 21.25C22.4142 21.25 22.75 21.5858 22.75 22C22.75 22.4142 22.4142 22.75 22 22.75L12 22.75C11.5858 22.75 11.25 22.4142 11.25 22Z" fill="#020203"/>
</svg>
