<svg width="24" height="24" viewBox="0 0 24 24" fill="none" xmlns="http://www.w3.org/2000/svg">
<path fill-rule="evenodd" clip-rule="evenodd" d="M22 11.25C22.4142 11.25 22.75 11.5858 22.75 12C22.75 17.9371 17.937 22.75 12 22.75C8.24637 22.75 4.9426 20.8256 3.02097 17.913C2.79286 17.5673 2.88822 17.1021 3.23396 16.874C3.5797 16.6459 4.0449 16.7412 4.27302 17.087C5.92885 19.5966 8.77151 21.25 12 21.25C17.1086 21.25 21.25 17.1086 21.25 12C21.25 11.5858 21.5858 11.25 22 11.25Z" fill="#020203"/>
<path fill-rule="evenodd" clip-rule="evenodd" d="M1.25 12C1.25 6.06294 6.06294 1.25 12 1.25C15.7536 1.25 19.0574 3.17442 20.979 6.08697C21.2071 6.43271 21.1118 6.89791 20.766 7.12602C20.4203 7.35413 19.9551 7.25878 19.727 6.91303C18.0711 4.40335 15.2285 2.75 12 2.75C6.89137 2.75 2.75 6.89137 2.75 12C2.75 12.4142 2.41421 12.75 2 12.75C1.58579 12.75 1.25 12.4142 1.25 12Z" fill="#020203"/>
<path fill-rule="evenodd" clip-rule="evenodd" d="M21.2426 2.25C21.6569 2.25 21.9926 2.58579 21.9926 3V5.74264C21.9926 6.98528 20.9853 7.99264 19.7426 7.99264L17 7.99264C16.5858 7.99264 16.25 7.65685 16.25 7.24264C16.25 6.82843 16.5858 6.49264 17 6.49264L19.7426 6.49264C20.1569 6.49264 20.4926 6.15685 20.4926 5.74264V3C20.4926 2.58579 20.8284 2.25 21.2426 2.25Z" fill="#020203"/>
<path fill-rule="evenodd" clip-rule="evenodd" d="M4.26001 17.5098C3.8458 17.5098 3.51001 17.8456 3.51001 18.2598V21.0024C3.51001 21.4166 3.17422 21.7524 2.76001 21.7524C2.3458 21.7524 2.01001 21.4166 2.01001 21.0024V18.2598C2.01001 17.0171 3.01737 16.0098 4.26001 16.0098L7.00265 16.0098C7.41686 16.0098 7.75265 16.3456 7.75265 16.7598C7.75265 17.174 7.41686 17.5098 7.00265 17.5098L4.26001 17.5098Z" fill="#020203"/>
</svg>
