<svg width="24" height="24" viewBox="0 0 24 24" fill="none" xmlns="http://www.w3.org/2000/svg">
<path fill-rule="evenodd" clip-rule="evenodd" d="M12 22.75C6.06294 22.75 1.25 17.9371 1.25 12C1.25 6.06294 6.06294 1.25 12 1.25C17.9371 1.25 22.75 6.06294 22.75 12C22.75 17.9371 17.9371 22.75 12 22.75ZM9.33541 15.3292C8.96493 15.1439 8.51442 15.2941 8.32918 15.6646C8.14394 16.0351 8.29411 16.4856 8.66459 16.6708C10.8757 17.7764 13.1243 17.7764 15.3354 16.6708C15.7059 16.4856 15.8561 16.0351 15.6708 15.6646C15.4856 15.2941 15.0351 15.1439 14.6646 15.3292C12.8757 16.2236 11.1243 16.2236 9.33541 15.3292ZM9.31968 9.68298L9.32557 9.6719C9.50516 9.30256 9.94916 9.14597 10.3212 9.32224C10.6955 9.4996 10.8551 9.94683 10.6778 10.3212L10.6356 10.403C10.613 10.4443 10.5813 10.499 10.5402 10.5627C10.4589 10.6888 10.3364 10.8568 10.1686 11.0268C9.83431 11.3656 9.27868 11.75 8.5 11.75C7.72132 11.75 7.16569 11.3656 6.83138 11.0268C6.66362 10.8568 6.54106 10.6888 6.45976 10.5627C6.41871 10.499 6.38703 10.4443 6.36441 10.403L6.32224 10.3212C6.14487 9.94683 6.30453 9.4996 6.67885 9.32224C7.05084 9.14597 7.49462 9.30214 7.6742 9.67147L7.68032 9.68298C7.68762 9.69631 7.70098 9.7197 7.72038 9.74979C7.76 9.81123 7.82003 9.89316 7.899 9.97317C8.05815 10.1344 8.25252 10.25 8.5 10.25C8.74748 10.25 8.94185 10.1344 9.101 9.97317C9.17997 9.89316 9.24 9.81123 9.27962 9.74979C9.29902 9.7197 9.31238 9.69631 9.31968 9.68298ZM16.3197 9.68298L16.3256 9.6719C16.5052 9.30256 16.9492 9.14597 17.3212 9.32224C17.6955 9.4996 17.8551 9.94683 17.6778 10.3212L17.6356 10.403C17.613 10.4443 17.5813 10.499 17.5402 10.5627C17.4589 10.6888 17.3364 10.8568 17.1686 11.0268C16.8343 11.3656 16.2787 11.75 15.5 11.75C14.7213 11.75 14.1657 11.3656 13.8314 11.0268C13.6636 10.8568 13.5411 10.6888 13.4598 10.5627C13.4187 10.499 13.387 10.4443 13.3644 10.403L13.3222 10.3212C13.1449 9.94683 13.3045 9.4996 13.6788 9.32224C14.0508 9.14597 14.4952 9.30331 14.6748 9.67264L14.6803 9.68298C14.6876 9.69631 14.701 9.7197 14.7204 9.74979C14.76 9.81123 14.82 9.89316 14.899 9.97317C15.0582 10.1344 15.2525 10.25 15.5 10.25C15.7475 10.25 15.9418 10.1344 16.101 9.97317C16.18 9.89316 16.24 9.81123 16.2796 9.74979C16.299 9.7197 16.3124 9.69631 16.3197 9.68298Z" fill="#020203"/>
</svg>
