<svg width="24" height="24" viewBox="0 0 24 24" fill="none" xmlns="http://www.w3.org/2000/svg">
<path opacity="0.4" d="M1.25 12C1.25 17.9371 6.06294 22.75 12 22.75C17.9371 22.75 22.75 17.9371 22.75 12C22.75 6.06294 17.9371 1.25 12 1.25C6.06294 1.25 1.25 6.06294 1.25 12Z" fill="#020203"/>
<path fill-rule="evenodd" clip-rule="evenodd" d="M8.32918 15.6646C8.51442 15.2941 8.96493 15.1439 9.33541 15.3292C11.1243 16.2236 12.8757 16.2236 14.6646 15.3292C15.0351 15.1439 15.4856 15.2941 15.6708 15.6646C15.8561 16.0351 15.7059 16.4856 15.3354 16.6708C13.1243 17.7764 10.8757 17.7764 8.66459 16.6708C8.29411 16.4856 8.14394 16.0351 8.32918 15.6646Z" fill="#020203"/>
<path fill-rule="evenodd" clip-rule="evenodd" d="M7.6775 9.6783C7.67648 9.67616 7.67545 9.67403 7.67442 9.6719L7.67596 9.67509L7.67678 9.6768L7.6775 9.6783Z" fill="#020203"/>
<path d="M7.67442 9.6719L7.6775 9.6783L7.67678 9.6768L7.67596 9.67509L7.67442 9.6719L7.68031 9.68298C7.68761 9.69631 7.70097 9.7197 7.72037 9.74979C7.75999 9.81123 7.82002 9.89315 7.89899 9.97317C8.05814 10.1344 8.25251 10.25 8.49999 10.25C8.74747 10.25 8.94184 10.1344 9.10099 9.97317C9.17996 9.89315 9.23999 9.81123 9.27961 9.74979C9.29901 9.7197 9.31238 9.69631 9.31967 9.68298L9.32557 9.6719C9.50515 9.30256 9.94915 9.14597 10.3211 9.32224C10.6955 9.4996 10.8551 9.94683 10.6778 10.3212L10.6356 10.403C10.613 10.4443 10.5813 10.499 10.5402 10.5627C10.4589 10.6888 10.3364 10.8568 10.1686 11.0268C9.8343 11.3656 9.27867 11.75 8.49999 11.75C7.72131 11.75 7.16568 11.3656 6.83137 11.0268C6.66361 10.8568 6.54105 10.6888 6.45976 10.5627C6.4187 10.499 6.38703 10.4443 6.3644 10.403L6.32223 10.3212C6.14486 9.94683 6.30452 9.4996 6.67884 9.32224C7.05083 9.14597 7.49483 9.30256 7.67442 9.6719Z" fill="#020203"/>
<path fill-rule="evenodd" clip-rule="evenodd" d="M14.6775 9.6783C14.6765 9.67616 14.6755 9.67403 14.6744 9.6719L14.676 9.67509L14.6768 9.6768L14.6775 9.6783Z" fill="#020203"/>
<path d="M14.6744 9.6719L14.6775 9.6783L14.6768 9.6768L14.676 9.67509L14.6744 9.6719L14.6803 9.68298C14.6876 9.69631 14.701 9.7197 14.7204 9.74979C14.76 9.81123 14.82 9.89315 14.899 9.97317C15.0582 10.1344 15.2525 10.25 15.5 10.25C15.7475 10.25 15.9418 10.1344 16.101 9.97317C16.18 9.89315 16.24 9.81123 16.2796 9.74979C16.299 9.7197 16.3124 9.69631 16.3197 9.68298L16.3256 9.6719C16.5052 9.30256 16.9492 9.14597 17.3212 9.32224C17.6955 9.4996 17.8551 9.94683 17.6778 10.3212L17.6356 10.403C17.613 10.4443 17.5813 10.499 17.5402 10.5627C17.4589 10.6888 17.3364 10.8568 17.1686 11.0268C16.8343 11.3656 16.2787 11.75 15.5 11.75C14.7213 11.75 14.1657 11.3656 13.8314 11.0268C13.6636 10.8568 13.5411 10.6888 13.4598 10.5627C13.4187 10.499 13.387 10.4443 13.3644 10.403L13.3222 10.3212C13.1449 9.94683 13.3045 9.4996 13.6788 9.32224C14.0508 9.14597 14.4948 9.30256 14.6744 9.6719Z" fill="#020203"/>
</svg>
