<svg width="24" height="24" viewBox="0 0 24 24" fill="none" xmlns="http://www.w3.org/2000/svg">
<path fill-rule="evenodd" clip-rule="evenodd" d="M17.6983 7.58424C17.9279 7.2395 18.3935 7.14617 18.7383 7.37579C20.5524 8.58407 21.7501 10.652 21.7501 13C21.7501 16.7267 18.7339 19.75 15.0105 19.75H10C9.58579 19.75 9.25 19.4142 9.25 19C9.25 18.5858 9.58579 18.25 10 18.25H15.0105C17.903 18.25 20.2501 15.9007 20.2501 13C20.2501 11.174 19.3204 9.56578 17.9068 8.62422C17.562 8.3946 17.4687 7.92899 17.6983 7.58424Z" fill="#020203"/>
<path fill-rule="evenodd" clip-rule="evenodd" d="M6.30168 16.4158C6.07206 16.7605 5.60645 16.8538 5.26171 16.6242C3.44761 15.4159 2.24994 13.348 2.24994 11C2.24994 7.27331 5.2661 4.25 8.98947 4.25L14 4.25C14.4142 4.25 14.75 4.58578 14.75 5C14.75 5.41421 14.4142 5.75 14 5.75L8.98947 5.75C6.09699 5.75 3.74994 8.09927 3.74994 11C3.74994 12.826 4.67958 14.4342 6.09322 15.3758C6.43797 15.6054 6.5313 16.071 6.30168 16.4158Z" fill="#020203"/>
<path fill-rule="evenodd" clip-rule="evenodd" d="M11.909 15.4697C12.2019 15.7626 12.2019 16.2374 11.909 16.5303L9.96967 18.4697C9.67678 18.7626 9.67678 19.2374 9.96967 19.5303L11.909 21.4697C12.2019 21.7626 12.2019 22.2374 11.909 22.5303C11.6161 22.8232 11.1412 22.8232 10.8483 22.5303L8.90901 20.591C8.03033 19.7123 8.03033 18.2877 8.90901 17.409L10.8483 15.4697C11.1412 15.1768 11.6161 15.1768 11.909 15.4697Z" fill="#020203"/>
<path fill-rule="evenodd" clip-rule="evenodd" d="M11.4697 1.46967C11.7626 1.17678 12.2374 1.17678 12.5303 1.46967L14.4697 3.40901C15.3483 4.28769 15.3484 5.71231 14.4697 6.59099L12.5303 8.53033C12.2374 8.82322 11.7626 8.82322 11.4697 8.53033C11.1768 8.23744 11.1768 7.76256 11.4697 7.46967L13.409 5.53033C13.7019 5.23744 13.7019 4.76256 13.409 4.46967L11.4697 2.53033C11.1768 2.23744 11.1768 1.76256 11.4697 1.46967Z" fill="#020203"/>
</svg>
