<svg width="24" height="24" viewBox="0 0 24 24" fill="none" xmlns="http://www.w3.org/2000/svg">
<path d="M15.75 22.6907C16.767 22.6281 17.5198 22.4995 18.1835 22.2351C20.0331 21.4982 21.4982 20.033 22.2351 18.1835C22.75 16.8912 22.75 15.2608 22.75 12C22.75 8.73923 22.75 7.10884 22.2351 5.8165C21.4982 3.96695 20.0331 2.50184 18.1835 1.76492C17.5198 1.50048 16.767 1.37185 15.75 1.30927L15.75 22.6907Z" fill="#020203"/>
<path opacity="0.4" d="M14.25 1.25925C13.5964 1.25 12.8541 1.25 12 1.25C8.73923 1.25 7.10885 1.25 5.8165 1.76492C3.96695 2.50185 2.50185 3.96695 1.76492 5.8165C1.25 7.10885 1.25 8.73923 1.25 12C1.25 15.2608 1.25 16.8912 1.76492 18.1835C2.50185 20.0331 3.96695 21.4982 5.8165 22.2351C7.10885 22.75 8.73923 22.75 12 22.75C12.8541 22.75 13.5964 22.75 14.25 22.7407L14.25 1.25925Z" fill="#020203"/>
<path fill-rule="evenodd" clip-rule="evenodd" d="M6.77973 8.469C7.07262 8.17611 7.5475 8.17611 7.84039 8.469L9.77973 10.4083C10.6584 11.287 10.6584 12.7116 9.77973 13.5903L7.84039 15.5297C7.5475 15.8226 7.07262 15.8226 6.77973 15.5297C6.48684 15.2368 6.48684 14.7619 6.77973 14.469L8.71907 12.5297C9.01196 12.2368 9.01196 11.7619 8.71907 11.469L6.77973 9.52966C6.48684 9.23677 6.48684 8.76189 6.77973 8.469Z" fill="#020203"/>
</svg>
