<svg width="24" height="24" viewBox="0 0 24 24" fill="none" xmlns="http://www.w3.org/2000/svg">
<path opacity="0.4" d="M13.75 22.746C15.8911 22.7299 17.1462 22.6484 18.1835 22.2351C20.0331 21.4982 21.4982 20.0331 22.2351 18.1835C22.75 16.8912 22.75 15.2608 22.75 12C22.75 8.73923 22.75 7.10885 22.2351 5.8165C21.4982 3.96695 20.0331 2.50185 18.1835 1.76492C17.1462 1.35162 15.8911 1.27006 13.75 1.25396L13.75 22.746Z" fill="#020203"/>
<path fill-rule="evenodd" clip-rule="evenodd" d="M16.25 6C16.25 5.58579 16.5858 5.25 17 5.25H18C18.4142 5.25 18.75 5.58579 18.75 6C18.75 6.41421 18.4142 6.75 18 6.75H17C16.5858 6.75 16.25 6.41421 16.25 6Z" fill="#020203"/>
<path fill-rule="evenodd" clip-rule="evenodd" d="M16.25 9C16.25 8.58579 16.5858 8.25 17 8.25H18C18.4142 8.25 18.75 8.58579 18.75 9C18.75 9.41421 18.4142 9.75 18 9.75H17C16.5858 9.75 16.25 9.41421 16.25 9Z" fill="#020203"/>
<path fill-rule="evenodd" clip-rule="evenodd" d="M16.25 12C16.25 11.5858 16.5858 11.25 17 11.25H18C18.4142 11.25 18.75 11.5858 18.75 12C18.75 12.4142 18.4142 12.75 18 12.75H17C16.5858 12.75 16.25 12.4142 16.25 12Z" fill="#020203"/>
<path fill-rule="evenodd" clip-rule="evenodd" d="M16.25 15C16.25 14.5858 16.5858 14.25 17 14.25H18C18.4142 14.25 18.75 14.5858 18.75 15C18.75 15.4142 18.4142 15.75 18 15.75H17C16.5858 15.75 16.25 15.4142 16.25 15Z" fill="#020203"/>
<path fill-rule="evenodd" clip-rule="evenodd" d="M16.25 18C16.25 17.5858 16.5858 17.25 17 17.25H18C18.4142 17.25 18.75 17.5858 18.75 18C18.75 18.4142 18.4142 18.75 18 18.75H17C16.5858 18.75 16.25 18.4142 16.25 18Z" fill="#020203"/>
<path d="M12.25 1.25001C12.1677 1.25 12.0844 1.25 12 1.25C8.73923 1.25 7.10885 1.25 5.8165 1.76492C3.96695 2.50185 2.50185 3.96695 1.76492 5.8165C1.25 7.10885 1.25 8.73923 1.25 12C1.25 15.2608 1.25 16.8912 1.76492 18.1835C2.50185 20.0331 3.96695 21.4982 5.8165 22.2351C7.10885 22.75 8.73923 22.75 12 22.75C12.0844 22.75 12.1677 22.75 12.25 22.75L12.25 1.25001Z" fill="#020203"/>
</svg>
