<svg width="24" height="24" viewBox="0 0 24 24" fill="none" xmlns="http://www.w3.org/2000/svg">
<path opacity="0.4" d="M16.4916 21.7563L15.1567 20.0071C13.0443 17.2392 15.0181 13.25 18.5 13.25C21.9818 13.25 23.9556 17.2392 21.8432 20.0071L20.5083 21.7563C20.0304 22.3825 19.2877 22.75 18.5 22.75C17.7122 22.75 16.9695 22.3825 16.4916 21.7563Z" fill="#020203"/>
<path opacity="0.4" d="M3.49163 9.75631L2.15669 8.00709C0.0443344 5.23917 2.0181 1.25 5.49997 1.25C8.98184 1.25 10.9556 5.23917 8.84324 8.00709L7.50831 9.75631C7.0304 10.3825 6.28773 10.75 5.49997 10.75C4.71221 10.75 3.96954 10.3825 3.49163 9.75631Z" fill="#020203"/>
<path fill-rule="evenodd" clip-rule="evenodd" d="M11.2499 6C11.2499 5.58579 11.5857 5.25 11.9999 5.25H13.175C14.597 5.25 15.7499 6.40283 15.7499 7.82492C15.7499 8.43958 15.53 9.03397 15.13 9.50065L10.0087 15.4755C9.84167 15.6704 9.74988 15.9185 9.74988 16.1751C9.74988 16.7687 10.2311 17.25 10.8248 17.25H11.9999C12.4141 17.25 12.7499 17.5858 12.7499 18C12.7499 18.4142 12.4141 18.75 11.9999 18.75H10.8248C9.40271 18.75 8.24988 17.5972 8.24988 16.1751C8.24988 15.5604 8.46976 14.966 8.86977 14.4993L13.9911 8.52447C14.1581 8.32964 14.2499 8.08151 14.2499 7.82492C14.2499 7.23126 13.7686 6.75 13.175 6.75H11.9999C11.5857 6.75 11.2499 6.41421 11.2499 6Z" fill="#020203"/>
<path d="M18.5004 16.2225C17.8219 16.2225 17.2113 16.7639 17.2144 17.5028C17.2162 18.2305 17.8134 18.7775 18.4994 18.7775C19.1793 18.7775 19.7854 18.2356 19.7854 17.5005C19.7854 16.7745 19.1897 16.2225 18.5004 16.2225Z" fill="#020203"/>
<path d="M5.50036 4.22266C4.82186 4.22266 4.21132 4.76405 4.21437 5.50295C4.21616 6.23061 4.81342 6.77766 5.49936 6.77766C6.17933 6.77766 6.78536 6.23577 6.78536 5.50066C6.78536 4.77467 6.18971 4.22266 5.50036 4.22266Z" fill="#020203"/>
</svg>
