<svg width="24" height="24" viewBox="0 0 24 24" fill="none" xmlns="http://www.w3.org/2000/svg">
<path d="M3.89012 9.23471L2.73522 7.81617C0.838806 5.48684 2.49632 2 5.50001 2C8.5037 2 10.1612 5.48684 8.26481 7.81617L7.10991 9.23471C6.71568 9.71894 6.12443 10 5.50001 10C4.8756 10 4.28435 9.71894 3.89012 9.23471Z" stroke="#020203" stroke-width="1.5" stroke-linecap="round" stroke-linejoin="round"/>
<path d="M16.8901 21.2347L15.7352 19.8162C13.8388 17.4868 15.4963 14 18.5 14C21.5037 14 23.1612 17.4868 21.2648 19.8162L20.1099 21.2347C19.7157 21.7189 19.1244 22 18.5 22C17.8756 22 17.2843 21.7189 16.8901 21.2347Z" stroke="#020203" stroke-width="1.5" stroke-linecap="round" stroke-linejoin="round"/>
<path d="M5.5005 5.2225C5.6585 5.2225 5.7855 5.3475 5.7855 5.5005C5.7855 5.6535 5.6575 5.7775 5.4995 5.7775C5.3415 5.7775 5.2145 5.6535 5.2145 5.4995C5.2135 5.3475 5.3415 5.2225 5.5005 5.2225" stroke="#020203" stroke-width="2" stroke-linecap="round" stroke-linejoin="round"/>
<path d="M18.5005 17.2225C18.6585 17.2225 18.7855 17.3475 18.7855 17.5005C18.7855 17.6535 18.6575 17.7775 18.4995 17.7775C18.3415 17.7775 18.2145 17.6535 18.2145 17.4995C18.2135 17.3475 18.3415 17.2225 18.5005 17.2225" stroke="#020203" stroke-width="2" stroke-linecap="round" stroke-linejoin="round"/>
<path d="M12 6H13.1751C14.183 6 15 6.81704 15 7.82492C15 8.26055 14.8442 8.68181 14.5607 9.01256L9.43934 14.9874C9.15583 15.3182 9 15.7395 9 16.1751C9 17.183 9.81704 18 10.8249 18H12" stroke="#020203" stroke-width="1.5" stroke-linecap="round" stroke-linejoin="round"/>
</svg>
