<svg width="24" height="24" viewBox="0 0 24 24" fill="none" xmlns="http://www.w3.org/2000/svg">
<path fill-rule="evenodd" clip-rule="evenodd" d="M15.1567 20.0071L16.4916 21.7563C16.9695 22.3825 17.7122 22.75 18.5 22.75C19.2877 22.75 20.0304 22.3825 20.5083 21.7563L21.8432 20.0071C23.9556 17.2392 21.9818 13.25 18.5 13.25C15.0181 13.25 13.0443 17.2392 15.1567 20.0071ZM17.2145 17.5028C17.2114 16.7639 17.822 16.2225 18.5005 16.2225C19.1898 16.2225 19.7855 16.7745 19.7855 17.5005C19.7855 18.2356 19.1795 18.7775 18.4995 18.7775C17.8135 18.7775 17.2163 18.2305 17.2145 17.5028Z" fill="#020203"/>
<path fill-rule="evenodd" clip-rule="evenodd" d="M2.15669 8.00709L3.49163 9.75631C3.96954 10.3825 4.71221 10.75 5.49997 10.75C6.28773 10.75 7.0304 10.3825 7.50831 9.75631L8.84324 8.00709C10.9556 5.23917 8.98184 1.25 5.49997 1.25C2.0181 1.25 0.0443344 5.23917 2.15669 8.00709ZM4.21449 5.50279C4.21144 4.76389 4.82198 4.2225 5.50048 4.2225C6.18983 4.2225 6.78548 4.77451 6.78548 5.5005C6.78548 6.23562 6.17945 6.7775 5.49948 6.7775C4.81354 6.7775 4.21628 6.23046 4.21449 5.50279Z" fill="#020203"/>
<path fill-rule="evenodd" clip-rule="evenodd" d="M11.25 6C11.25 5.58579 11.5858 5.25 12 5.25H13.1751C14.5972 5.25 15.75 6.40283 15.75 7.82492C15.75 8.43958 15.5301 9.03397 15.1301 9.50065L10.0088 15.4755C9.84179 15.6704 9.75 15.9185 9.75 16.1751C9.75 16.7687 10.2313 17.25 10.8249 17.25H12C12.4142 17.25 12.75 17.5858 12.75 18C12.75 18.4142 12.4142 18.75 12 18.75H10.8249C9.40283 18.75 8.25 17.5972 8.25 16.1751C8.25 15.5604 8.46988 14.966 8.86989 14.4993L13.9912 8.52447C14.1582 8.32964 14.25 8.08151 14.25 7.82492C14.25 7.23126 13.7687 6.75 13.1751 6.75H12C11.5858 6.75 11.25 6.41421 11.25 6Z" fill="#020203"/>
</svg>
