<svg width="24" height="24" viewBox="0 0 24 24" fill="none" xmlns="http://www.w3.org/2000/svg">
<path opacity="0.4" d="M5.41462 7.44001L5.62235 7.19451C6.10204 6.62761 6.62805 6.1016 7.19495 5.62191L7.44046 5.41418C9.69963 3.50257 12.5633 2.4536 15.5227 2.4536C17.1155 2.4536 18.6518 3.09504 19.7782 4.22136C20.9045 5.34769 21.5459 6.88399 21.5459 8.47685C21.5459 11.4363 20.497 14.2999 18.5853 16.5591L18.3776 16.8046C17.8979 17.3715 17.3719 17.8975 16.805 18.3772L16.5595 18.5849C14.3003 20.4965 11.4367 21.5455 8.4773 21.5455C6.88443 21.5455 5.34813 20.904 4.22181 19.7777C3.09548 18.6514 2.45404 17.1151 2.45404 15.5222C2.45404 12.5628 3.50301 9.69919 5.41462 7.44001Z" stroke="#020203" stroke-width="1.5" stroke-linecap="round"/>
<path d="M13.4142 2.80761C14.762 6.4019 17.5981 9.23793 21.1924 10.5858" stroke="#020203" stroke-width="1.5" stroke-linecap="round"/>
<path d="M2.80762 13.4142C6.40191 14.7621 9.23793 17.5981 10.5858 21.1924" stroke="#020203" stroke-width="1.5" stroke-linecap="round"/>
<path d="M14.1212 9.8786L9.87858 14.1212" stroke="#020203" stroke-width="1.5" stroke-linecap="round"/>
<path d="M12.3536 10.2322L13.7678 11.6464" stroke="#020203" stroke-width="1.5" stroke-linecap="round"/>
<path d="M10.2322 12.3535L11.6464 13.7677" stroke="#020203" stroke-width="1.5" stroke-linecap="round"/>
</svg>
