<svg width="24" height="24" viewBox="0 0 24 24" fill="none" xmlns="http://www.w3.org/2000/svg">
<path opacity="0.4" fill-rule="evenodd" clip-rule="evenodd" d="M12.3936 2.10899C10.3873 2.59818 8.50512 3.54584 6.90301 4.89603L6.73348 5.03891C6.12265 5.55369 5.55677 6.11957 5.04199 6.7304L4.89911 6.89993C3.54885 8.50212 2.60118 10.3844 2.112 12.3908L3.0605 12.7069L3.07351 12.7118C6.87061 14.1357 9.86667 17.1317 11.2906 20.9288L11.2955 20.9418L11.6117 21.8904C13.618 21.4012 15.5003 20.4536 17.1025 19.1033L17.272 18.9604C17.8829 18.4457 18.4487 17.8798 18.9635 17.2689L19.1064 17.0994C20.4567 15.4972 21.4043 13.6149 21.8935 11.6086L20.9446 11.2922L20.9316 11.2874C17.1345 9.86344 14.1384 6.86738 12.7145 3.07028L12.7096 3.05727L12.3936 2.10899Z" fill="#020203"/>
<path fill-rule="evenodd" clip-rule="evenodd" d="M14.6515 9.34858C14.9444 9.64147 14.9444 10.1163 14.6515 10.4092L10.4089 14.6519C10.116 14.9448 9.64114 14.9448 9.34825 14.6519C9.05535 14.359 9.05535 13.8841 9.34825 13.5912L13.5909 9.34858C13.8838 9.05568 14.3587 9.05568 14.6515 9.34858Z" fill="#020203"/>
<path fill-rule="evenodd" clip-rule="evenodd" d="M11.8232 9.70209C12.1161 9.4092 12.591 9.4092 12.8838 9.70209L14.2981 11.1163C14.591 11.4092 14.591 11.8841 14.2981 12.177C14.0052 12.4699 13.5303 12.4699 13.2374 12.177L11.8232 10.7628C11.5303 10.4699 11.5303 9.99498 11.8232 9.70209Z" fill="#020203"/>
<path fill-rule="evenodd" clip-rule="evenodd" d="M9.70185 11.8232C9.99474 11.5303 10.4696 11.5303 10.7625 11.8232L12.1767 13.2374C12.4696 13.5303 12.4696 14.0052 12.1767 14.2981C11.8838 14.591 11.409 14.591 11.1161 14.2981L9.70185 12.8838C9.40895 12.591 9.40895 12.1161 9.70185 11.8232Z" fill="#020203"/>
<path d="M22.169 10.1192C22.2472 9.50522 22.2833 8.88354 22.2759 8.25834C22.2559 6.5699 21.5763 4.95624 20.3823 3.76225L20.2402 3.62009C19.0462 2.4261 17.4325 1.7465 15.7441 1.72653C15.1188 1.71913 14.497 1.75528 13.8829 1.83349L14.1238 2.55642C15.396 5.93754 18.0643 8.60593 21.4455 9.87805L22.169 10.1192Z" fill="#020203"/>
<path d="M1.72958 15.741C1.72219 15.1158 1.75832 14.4941 1.8365 13.8801L2.55962 14.1211C5.94075 15.3932 8.60914 18.0616 9.88126 21.4427L10.1223 22.1659C9.5083 22.2441 8.8866 22.2802 8.26139 22.2728C6.57295 22.2529 4.95929 21.5732 3.7653 20.3793L3.62314 20.2371C2.42915 19.0431 1.74955 17.4295 1.72958 15.741Z" fill="#020203"/>
</svg>
