<svg width="24" height="24" viewBox="0 0 24 24" fill="none" xmlns="http://www.w3.org/2000/svg">
<path fill-rule="evenodd" clip-rule="evenodd" d="M12.3936 2.10908C10.3873 2.59828 8.50516 3.54593 6.90305 4.89613L6.73351 5.039C6.12268 5.55379 5.55681 6.11966 5.04203 6.73049L4.89915 6.90003C3.54889 8.50221 2.60122 10.3845 2.11204 12.3908L3.06053 12.707L3.07354 12.7119C6.87065 14.1358 9.86671 17.1318 11.2906 20.9289L11.2955 20.9419L11.6117 21.8905C13.6181 21.4013 15.5003 20.4537 17.1025 19.1034L17.2721 18.9605C17.8829 18.4457 18.4488 17.8799 18.9636 17.269L19.1064 17.0995C20.4567 15.4973 21.4044 13.615 21.8935 11.6087L20.9446 11.2923L20.9316 11.2874C17.1345 9.86353 14.1385 6.86748 12.7145 3.07037L12.7097 3.05736L12.3936 2.10908ZM14.6543 10.4084C14.9472 10.1155 14.9472 9.64067 14.6543 9.34777C14.3614 9.05488 13.8865 9.05488 13.5936 9.34777L13.0633 9.87807L12.8866 9.70129C12.5937 9.40839 12.1188 9.40839 11.8259 9.70129C11.533 9.99418 11.533 10.4691 11.8259 10.7619L12.0027 10.9387L10.942 11.9994L10.7651 11.8224C10.4722 11.5295 9.9973 11.5295 9.7044 11.8224C9.41151 12.1153 9.41151 12.5901 9.7044 12.883L9.88138 13.06L9.35099 13.5904C9.05809 13.8833 9.05809 14.3582 9.35099 14.6511C9.64388 14.944 10.1188 14.944 10.4116 14.6511L10.942 14.1207L11.1186 14.2973C11.4115 14.5901 11.8864 14.5901 12.1793 14.2973C12.4722 14.0044 12.4722 13.5295 12.1793 13.2366L12.0027 13.06L13.0633 11.9994L13.2401 12.1762C13.533 12.4691 14.0079 12.4691 14.3008 12.1762C14.5937 11.8833 14.5937 11.4084 14.3008 11.1155L14.124 10.9387L14.6543 10.4084Z" fill="#020203"/>
<path d="M1.72964 15.7411C1.72225 15.1159 1.75838 14.4942 1.83657 13.8802L2.55968 14.1212C5.94081 15.3933 8.6092 18.0617 9.88132 21.4428L10.1224 22.166C9.50836 22.2442 8.88666 22.2803 8.26145 22.2729C6.57301 22.2529 4.95935 21.5733 3.76536 20.3793L3.62321 20.2372C2.42921 19.0432 1.74961 17.4295 1.72964 15.7411Z" fill="#020203"/>
<path d="M22.169 10.1193C22.2472 9.50531 22.2833 8.88363 22.2759 8.25843C22.256 6.56999 21.5764 4.95633 20.3824 3.76234L20.2402 3.62018C19.0462 2.42619 17.4326 1.74659 15.7441 1.72662C15.1188 1.71923 14.497 1.75537 13.8829 1.83358L14.1239 2.55651C15.396 5.93764 18.0644 8.60602 21.4455 9.87814L22.169 10.1193Z" fill="#020203"/>
</svg>
