<svg width="24" height="24" viewBox="0 0 24 24" fill="none" xmlns="http://www.w3.org/2000/svg">
<path opacity="0.4" d="M2.98439 19.601C1.1294 17.7461 1.1294 14.7385 2.98439 12.8835L12.8839 2.98404C14.7389 1.12905 17.7464 1.12905 19.6014 2.98404L21.0156 4.39825C22.8706 6.25324 22.8706 9.26078 21.0156 11.1158L11.1161 21.0153C9.26113 22.8703 6.25359 22.8703 4.3986 21.0153L2.98439 19.601Z" fill="#020203"/>
<path d="M11.6467 4.2214L12.7074 3.16074L16.0659 6.51923C16.3587 6.81213 16.3587 7.287 16.0659 7.57989C15.773 7.87279 15.2981 7.87279 15.0052 7.57989L11.6467 4.2214Z" fill="#020203"/>
<path d="M3.16139 12.7067L4.22205 11.646L6.87348 14.2975C7.16637 14.5904 7.16637 15.0652 6.87348 15.3581C6.58059 15.651 6.10571 15.651 5.81282 15.3581L3.16139 12.7067Z" fill="#020203"/>
<path d="M5.98966 9.87844L7.05032 8.81778L10.409 12.1765C10.7019 12.4694 10.7019 12.9442 10.409 13.2371C10.1161 13.53 9.64124 13.53 9.34835 13.2371L5.98966 9.87844Z" fill="#020203"/>
<path d="M8.81794 7.05016L9.8786 5.9895L12.5303 8.64123C12.8232 8.93412 12.8232 9.40899 12.5303 9.70189C12.2374 9.99478 11.7626 9.99478 11.4697 9.70189L8.81794 7.05016Z" fill="#020203"/>
</svg>
