<svg width="24" height="24" viewBox="0 0 24 24" fill="none" xmlns="http://www.w3.org/2000/svg">
<path d="M8.81783 7.04925L7.05006 8.81701L10.4088 12.1758C10.7017 12.4687 10.7017 12.9435 10.4088 13.2364C10.1159 13.5293 9.64105 13.5293 9.34816 13.2364L5.9894 9.87767L4.22164 11.6454L6.87329 14.2971C7.16618 14.59 7.16618 15.0649 6.87329 15.3578C6.58039 15.6506 6.10552 15.6506 5.81263 15.3578L3.16098 12.7061L2.9842 12.8829C1.12921 14.7379 1.12921 17.7454 2.9842 19.6004L4.39841 21.0146C6.2534 22.8696 9.26094 22.8696 11.1159 21.0146L21.0154 11.1151C22.8704 9.26012 22.8704 6.25259 21.0154 4.3976L19.6012 2.98338C17.7462 1.12839 14.7387 1.12839 12.8837 2.98338L12.7069 3.16016L16.0657 6.51892C16.3586 6.81181 16.3586 7.28668 16.0657 7.57958C15.7728 7.87247 15.2979 7.87247 15.005 7.57958L11.6463 4.22082L9.87849 5.98859L12.5301 8.64024C12.823 8.93313 12.823 9.408 12.5301 9.7009C12.2372 9.99379 11.7624 9.99379 11.4695 9.7009L8.81783 7.04925Z" fill="#020203"/>
</svg>
