<svg width="24" height="24" viewBox="0 0 24 24" fill="none" xmlns="http://www.w3.org/2000/svg">
<path fill-rule="evenodd" clip-rule="evenodd" d="M12 22.75C6.06294 22.75 1.25 17.9371 1.25 12C1.25 6.06294 6.06294 1.25 12 1.25C17.9371 1.25 22.75 6.06294 22.75 12C22.75 17.9371 17.9371 22.75 12 22.75ZM9.33543 17.4209C11.1243 16.5264 12.8757 16.5263 14.6645 17.4209C15.035 17.6061 15.4855 17.456 15.6708 17.0855C15.8561 16.7151 15.7059 16.2645 15.3355 16.0793C13.1243 14.9735 10.8757 14.9736 8.66457 16.0793C8.29409 16.2645 8.14394 16.715 8.32919 17.0855C8.51444 17.456 8.96495 17.6061 9.33543 17.4209ZM9.32557 11.3281L9.31968 11.317C9.31238 11.3037 9.29902 11.2803 9.27962 11.2502C9.24 11.1888 9.17997 11.1068 9.101 11.0268C8.94185 10.8656 8.74748 10.75 8.5 10.75C8.25252 10.75 8.05815 10.8656 7.899 11.0268C7.82003 11.1068 7.76 11.1888 7.72038 11.2502C7.70098 11.2803 7.68762 11.3037 7.68032 11.317L7.67443 11.3281C7.49484 11.6974 7.05084 11.854 6.67885 11.6778C6.30453 11.5004 6.14487 11.0532 6.32224 10.6788L6.36441 10.597C6.38703 10.5557 6.41871 10.501 6.45976 10.4373C6.54106 10.3112 6.66362 10.1432 6.83138 9.97317C7.16569 9.63443 7.72132 9.25 8.5 9.25C9.27868 9.25 9.83431 9.63443 10.1686 9.97317C10.3364 10.1432 10.4589 10.3112 10.5402 10.4373C10.5813 10.501 10.613 10.5557 10.6356 10.597L10.6778 10.6788C10.8551 11.0532 10.6955 11.5004 10.3212 11.6778C9.94916 11.854 9.50516 11.6974 9.32557 11.3281ZM16.3256 11.3281L16.3197 11.317C16.3124 11.3037 16.299 11.2803 16.2796 11.2502C16.24 11.1888 16.18 11.1068 16.101 11.0268C15.9418 10.8656 15.7475 10.75 15.5 10.75C15.2525 10.75 15.0582 10.8656 14.899 11.0268C14.82 11.1068 14.76 11.1888 14.7204 11.2502C14.701 11.2803 14.6876 11.3037 14.6803 11.317L14.6744 11.3281C14.4948 11.6974 14.0508 11.854 13.6788 11.6778C13.3045 11.5004 13.1449 11.0532 13.3222 10.6788L13.3718 10.5837C13.3937 10.5442 13.423 10.4943 13.4598 10.4373C13.5411 10.3112 13.6636 10.1432 13.8314 9.97317C14.1657 9.63443 14.7213 9.25 15.5 9.25C16.2787 9.25 16.8343 9.63443 17.1686 9.97317C17.3364 10.1432 17.4589 10.3112 17.5402 10.4373C17.5813 10.501 17.613 10.5557 17.6356 10.597L17.6778 10.6788C17.8551 11.0532 17.6955 11.5004 17.3212 11.6778C16.9492 11.854 16.5052 11.6974 16.3256 11.3281Z" fill="#020203"/>
</svg>
