<svg width="24" height="24" viewBox="0 0 24 24" fill="none" xmlns="http://www.w3.org/2000/svg">
<path opacity="0.4" d="M1.25 12C1.25 17.9371 6.06294 22.75 12 22.75C17.9371 22.75 22.75 17.9371 22.75 12C22.75 6.06294 17.9371 1.25 12 1.25C6.06294 1.25 1.25 6.06294 1.25 12Z" fill="#020203"/>
<path d="M6.5 9.5C6.5 8.39543 7.39543 7.5 8.5 7.5C9.60457 7.5 10.5 8.39543 10.5 9.5V10.5C10.5 11.6046 9.60457 12.5 8.5 12.5C7.39543 12.5 6.5 11.6046 6.5 10.5V9.5Z" fill="#020203"/>
<path d="M13.5 9.5C13.5 8.39543 14.3954 7.5 15.5 7.5C16.6046 7.5 17.5 8.39543 17.5 9.5V10.5C17.5 11.6046 16.6046 12.5 15.5 12.5C14.3954 12.5 13.5 11.6046 13.5 10.5V9.5Z" fill="#020203"/>
<path fill-rule="evenodd" clip-rule="evenodd" d="M14.6646 17.4208C12.8758 16.5265 11.1243 16.5265 9.3354 17.4208C8.96491 17.6061 8.51441 17.4559 8.32918 17.0854C8.14395 16.7149 8.29413 16.2644 8.66462 16.0792C10.8758 14.9737 13.1243 14.9737 15.3354 16.0792C15.7059 16.2644 15.8561 16.7149 15.6708 17.0854C15.4856 17.4559 15.0351 17.6061 14.6646 17.4208Z" fill="#020203"/>
</svg>
