<svg width="24" height="24" viewBox="0 0 24 24" fill="none" xmlns="http://www.w3.org/2000/svg">
<path fill-rule="evenodd" clip-rule="evenodd" d="M19 19.25C19.4142 19.25 19.75 19.5858 19.75 20L19.75 22C19.75 22.4142 19.4142 22.75 19 22.75C18.5858 22.75 18.25 22.4142 18.25 22L18.25 20C18.25 19.5858 18.5858 19.25 19 19.25Z" fill="#020203"/>
<path fill-rule="evenodd" clip-rule="evenodd" d="M5 19.25C5.41421 19.25 5.75 19.5858 5.75 20L5.75 22C5.75 22.4142 5.41421 22.75 5 22.75C4.58579 22.75 4.25 22.4142 4.25 22L4.25 20C4.25 19.5858 4.58579 19.25 5 19.25Z" fill="#020203"/>
<path fill-rule="evenodd" clip-rule="evenodd" d="M12 14.75C10.2051 14.75 8.75 13.2949 8.75 11.5C8.75 9.70507 10.2051 8.25 12 8.25C13.7949 8.25 15.25 9.70507 15.25 11.5C15.25 13.2949 13.7949 14.75 12 14.75ZM11.9945 10.5C11.4422 10.5 10.9945 10.9477 10.9945 11.5C10.9945 12.0523 11.4422 12.5 11.9945 12.5H12.0035C12.5558 12.5 13.0035 12.0523 13.0035 11.5C13.0035 10.9477 12.5558 10.5 12.0035 10.5H11.9945Z" fill="#020203"/>
<path opacity="0.4" fill-rule="evenodd" clip-rule="evenodd" d="M1.25 11.5C1.25 8.70762 1.25 7.31142 1.62951 6.18506C2.35288 4.0382 4.0382 2.35288 6.18506 1.62951C7.31142 1.25 8.70762 1.25 11.5 1.25H12.5C15.2924 1.25 16.6886 1.25 17.8149 1.62951C19.9618 2.35288 21.6471 4.0382 22.3705 6.18506C22.75 7.31142 22.75 8.70762 22.75 11.5C22.75 14.2924 22.75 15.6886 22.3705 16.8149C21.6471 18.9618 19.9618 20.6471 17.8149 21.3705C16.6886 21.75 15.2924 21.75 12.5 21.75H11.5C8.70762 21.75 7.31142 21.75 6.18506 21.3705C4.0382 20.6471 2.35288 18.9618 1.62951 16.8149C1.25 15.6886 1.25 14.2924 1.25 11.5ZM16.6911 10.75C16.5718 9.99776 16.2759 9.30431 15.8472 8.71346L16.5303 8.03033C16.8232 7.73744 16.8232 7.26256 16.5303 6.96967C16.2374 6.67678 15.7626 6.67678 15.4697 6.96967L14.7865 7.6528C14.1957 7.22411 13.5022 6.9282 12.75 6.80888V6C12.75 5.58579 12.4142 5.25 12 5.25C11.5858 5.25 11.25 5.58579 11.25 6V6.80888C10.4978 6.9282 9.80431 7.22411 9.21346 7.6528L8.53033 6.96967C8.23744 6.67678 7.76256 6.67678 7.46967 6.96967C7.17678 7.26256 7.17678 7.73744 7.46967 8.03033L8.1528 8.71346C7.72411 9.30431 7.4282 9.99776 7.30888 10.75H6.5C6.08579 10.75 5.75 11.0858 5.75 11.5C5.75 11.9142 6.08579 12.25 6.5 12.25H7.30888C7.4282 13.0022 7.72411 13.6957 8.1528 14.2865L7.46967 14.9697C7.17678 15.2626 7.17678 15.7374 7.46967 16.0303C7.76256 16.3232 8.23744 16.3232 8.53033 16.0303L9.21346 15.3472C9.80431 15.7759 10.4978 16.0718 11.25 16.1911V17C11.25 17.4142 11.5858 17.75 12 17.75C12.4142 17.75 12.75 17.4142 12.75 17V16.1911C13.5022 16.0718 14.1957 15.7759 14.7865 15.3472L15.4697 16.0303C15.7626 16.3232 16.2374 16.3232 16.5303 16.0303C16.8232 15.7374 16.8232 15.2626 16.5303 14.9697L15.8472 14.2865C16.2759 13.6957 16.5718 13.0022 16.6911 12.25H17.5C17.9142 12.25 18.25 11.9142 18.25 11.5C18.25 11.0858 17.9142 10.75 17.5 10.75H16.6911Z" fill="#020203"/>
</svg>
