<svg width="24" height="24" viewBox="0 0 24 24" fill="none" xmlns="http://www.w3.org/2000/svg">
<path d="M2.25 18.5C2.25 20.8472 4.15279 22.75 6.5 22.75C8.84721 22.75 10.75 20.8472 10.75 18.5C10.75 16.1528 8.84721 14.25 6.5 14.25C4.15279 14.25 2.25 16.1528 2.25 18.5Z" fill="#020203"/>
<path d="M13.25 18.5C13.25 20.8472 15.1528 22.75 17.5 22.75C19.8472 22.75 21.75 20.8472 21.75 18.5C21.75 16.1528 19.8472 14.25 17.5 14.25C15.1528 14.25 13.25 16.1528 13.25 18.5Z" fill="#020203"/>
<path opacity="0.4" fill-rule="evenodd" clip-rule="evenodd" d="M19.4697 18.4697C19.7626 18.1768 20.2374 18.1768 20.5303 18.4697L22.5303 20.4697C22.8232 20.7626 22.8232 21.2374 22.5303 21.5303C22.2374 21.8232 21.7626 21.8232 21.4697 21.5303L19.4697 19.5303C19.1768 19.2374 19.1768 18.7626 19.4697 18.4697Z" fill="#020203"/>
<g opacity="0.4">
<path fill-rule="evenodd" clip-rule="evenodd" d="M2.46967 1.46967C2.76256 1.17678 3.23744 1.17678 3.53033 1.46967L17.5303 15.4697C17.8232 15.7626 17.8232 16.2374 17.5303 16.5303C17.2374 16.8232 16.7626 16.8232 16.4697 16.5303L2.46967 2.53033C2.17678 2.23744 2.17678 1.76256 2.46967 1.46967Z" fill="#020203"/>
<path fill-rule="evenodd" clip-rule="evenodd" d="M21.5303 1.46967C21.8232 1.76256 21.8232 2.23744 21.5303 2.53033L7.53033 16.5303C7.23744 16.8232 6.76256 16.8232 6.46967 16.5303C6.17678 16.2374 6.17678 15.7626 6.46967 15.4697L20.4697 1.46967C20.7626 1.17678 21.2374 1.17678 21.5303 1.46967Z" fill="#020203"/>
</g>
<path opacity="0.4" fill-rule="evenodd" clip-rule="evenodd" d="M4.53033 18.4697C4.82322 18.7626 4.82322 19.2374 4.53033 19.5303L2.53033 21.5303C2.23744 21.8232 1.76256 21.8232 1.46967 21.5303C1.17678 21.2374 1.17678 20.7626 1.46967 20.4697L3.46967 18.4697C3.76256 18.1768 4.23744 18.1768 4.53033 18.4697Z" fill="#020203"/>
</svg>
