<svg width="24" height="24" viewBox="0 0 24 24" fill="none" xmlns="http://www.w3.org/2000/svg">
<path d="M14 18.5C14 20.433 15.567 22 17.5 22C19.433 22 21 20.433 21 18.5C21 16.567 19.433 15 17.5 15C15.567 15 14 16.567 14 18.5Z" stroke="#020203" stroke-width="1.5" stroke-linecap="round"/>
<path d="M3 18.5C3 20.433 4.567 22 6.5 22C8.433 22 10 20.433 10 18.5C10 16.567 8.433 15 6.5 15C4.567 15 3 16.567 3 18.5Z" stroke="#020203" stroke-width="1.5" stroke-linecap="round"/>
<path opacity="0.4" d="M21 20L22 21" stroke="#020203" stroke-width="1.5" stroke-linecap="round"/>
<path opacity="0.4" d="M3 2L16 15M8 15L21 2" stroke="#020203" stroke-width="1.5" stroke-linecap="round"/>
<path opacity="0.4" d="M2 21L3 20" stroke="#020203" stroke-width="1.5" stroke-linecap="round"/>
</svg>
