<svg width="22" height="22" viewBox="0 0 22 22" fill="none" xmlns="http://www.w3.org/2000/svg">
<path d="M1.25 17.5C1.25 19.8472 3.15279 21.75 5.5 21.75C7.84721 21.75 9.75 19.8472 9.75 17.5C9.75 15.1528 7.84721 13.25 5.5 13.25C3.15279 13.25 1.25 15.1528 1.25 17.5Z" fill="#020203"/>
<path d="M12.25 17.5C12.25 19.8472 14.1528 21.75 16.5 21.75C18.8472 21.75 20.75 19.8472 20.75 17.5C20.75 15.1528 18.8472 13.25 16.5 13.25C14.1528 13.25 12.25 15.1528 12.25 17.5Z" fill="#020203"/>
<path fill-rule="evenodd" clip-rule="evenodd" d="M1.46967 0.46967C1.76256 0.176777 2.23744 0.176777 2.53033 0.46967L16.5303 14.4697C16.8232 14.7626 16.8232 15.2374 16.5303 15.5303C16.2374 15.8232 15.7626 15.8232 15.4697 15.5303L1.46967 1.53033C1.17678 1.23744 1.17678 0.762563 1.46967 0.46967Z" fill="#020203"/>
<path fill-rule="evenodd" clip-rule="evenodd" d="M18.4697 17.4697C18.7626 17.1768 19.2374 17.1768 19.5303 17.4697L21.5303 19.4697C21.8232 19.7626 21.8232 20.2374 21.5303 20.5303C21.2374 20.8232 20.7626 20.8232 20.4697 20.5303L18.4697 18.5303C18.1768 18.2374 18.1768 17.7626 18.4697 17.4697Z" fill="#020203"/>
<path fill-rule="evenodd" clip-rule="evenodd" d="M20.5303 0.46967C20.8232 0.762563 20.8232 1.23744 20.5303 1.53033L6.53033 15.5303C6.23744 15.8232 5.76256 15.8232 5.46967 15.5303C5.17678 15.2374 5.17678 14.7626 5.46967 14.4697L19.4697 0.46967C19.7626 0.176777 20.2374 0.176777 20.5303 0.46967Z" fill="#020203"/>
<path fill-rule="evenodd" clip-rule="evenodd" d="M3.53033 17.4697C3.82322 17.7626 3.82322 18.2374 3.53033 18.5303L1.53033 20.5303C1.23744 20.8232 0.762563 20.8232 0.46967 20.5303C0.176777 20.2374 0.176777 19.7626 0.46967 19.4697L2.46967 17.4697C2.76256 17.1768 3.23744 17.1768 3.53033 17.4697Z" fill="#020203"/>
</svg>
