<svg width="24" height="24" viewBox="0 0 24 24" fill="none" xmlns="http://www.w3.org/2000/svg">
<path d="M11.25 1.25026C8.48122 1.25328 7.00574 1.29108 5.8165 1.76492C3.96695 2.50184 2.50185 3.96695 1.76492 5.8165C1.42052 6.68088 1.30647 7.69648 1.2687 9.25H8C9.79493 9.25 11.25 7.79492 11.25 6V1.25026Z" fill="#020203"/>
<path d="M1.25132 10.75C1.25 11.1384 1.25 11.5539 1.25 12C1.25 15.2608 1.25 16.8912 1.76492 18.1835C2.50185 20.033 3.96695 21.4982 5.8165 22.2351C7.10885 22.75 8.73923 22.75 12 22.75C15.2608 22.75 16.8912 22.75 18.1835 22.2351C20.0331 21.4982 21.4982 20.033 22.2351 18.1835C22.75 16.8912 22.75 15.2608 22.75 12C22.75 8.73923 22.75 7.10884 22.2351 5.8165C21.4982 3.96695 20.0331 2.50184 18.1835 1.76492C16.9943 1.29108 15.5188 1.25328 12.75 1.25026V6C12.75 8.62335 10.6234 10.75 8 10.75H1.25132Z" fill="#020203"/>
</svg>
