<svg width="24" height="24" viewBox="0 0 24 24" fill="none" xmlns="http://www.w3.org/2000/svg">
<path d="M11.25 1.25026C8.4812 1.25328 7.00571 1.29108 5.81648 1.76492C3.96693 2.50184 2.50182 3.96695 1.7649 5.8165C1.42049 6.68088 1.30644 7.69648 1.26868 9.25H7.99998C9.7949 9.25 11.25 7.79492 11.25 6V1.25026Z" fill="#020203"/>
<path opacity="0.4" d="M1.25132 10.7497C1.25 11.1381 1.25 11.5537 1.25 11.9997C1.25 15.2605 1.25 16.8909 1.76492 18.1832C2.50185 20.0328 3.96695 21.4979 5.8165 22.2348C7.10885 22.7497 8.73923 22.7497 12 22.7497C15.2608 22.7497 16.8912 22.7497 18.1835 22.2348C20.0331 21.4979 21.4982 20.0328 22.2351 18.1832C22.75 16.8909 22.75 15.2605 22.75 11.9997C22.75 8.73897 22.75 7.10859 22.2351 5.81624C21.4982 3.96669 20.0331 2.50158 18.1835 1.76466C16.9943 1.29082 15.5188 1.25302 12.75 1.25V5.99974C12.75 8.62309 10.6234 10.7497 8 10.7497H1.25132Z" fill="#020203"/>
</svg>
