<svg width="24" height="24" viewBox="0 0 24 24" fill="none" xmlns="http://www.w3.org/2000/svg">
<path opacity="0.4" d="M5.04218 6.93062L17.08 3.05402C18.2218 2.68633 19.4733 2.98853 20.3215 3.83671C21.2035 4.7187 21.4922 6.03303 21.061 7.20345L16.7032 19.0317C15.769 21.5674 12.2982 21.8564 10.9575 19.5102L9.189 16.4154C8.85975 15.8392 8.38796 15.3572 7.8189 15.0158L4.35197 12.9356C1.90687 11.4686 2.328 7.80467 5.04218 6.93062Z" fill="#020203"/>
<path d="M9.05134 16.1923C8.78188 15.7871 8.43844 15.4363 8.03906 15.1582C8.07082 15.104 8.10997 15.0528 8.15652 15.0063L10.9849 12.1778C11.2778 11.8849 11.7527 11.8849 12.0456 12.1778C12.3385 12.4707 12.3385 12.9456 12.0456 13.2385L9.21718 16.0669C9.16668 16.1174 9.11078 16.1592 9.05134 16.1923Z" fill="#020203"/>
</svg>
