<svg width="24" height="24" viewBox="0 0 24 24" fill="none" xmlns="http://www.w3.org/2000/svg">
<path d="M17.08 3.05402L5.04218 6.93062C2.328 7.80467 1.90687 11.4686 4.35197 12.9356L7.8189 15.0158C7.88846 15.0575 7.95657 15.1014 8.02315 15.1472L8.14866 15.0141L10.9849 12.1778C11.2778 11.8849 11.7527 11.8849 12.0456 12.1778C12.3385 12.4707 12.3385 12.9456 12.0456 13.2385L9.22498 16.0591L9.07109 16.2223C9.1122 16.2854 9.15152 16.3498 9.189 16.4154L10.9575 19.5102C12.2982 21.8564 15.769 21.5674 16.7032 19.0317L21.061 7.20345C21.4922 6.03303 21.2035 4.7187 20.3215 3.83671C19.4733 2.98853 18.2218 2.68633 17.08 3.05402Z" fill="#020203"/>
</svg>
