<svg width="24" height="24" viewBox="0 0 24 24" fill="none" xmlns="http://www.w3.org/2000/svg">
<path opacity="0.4" fill-rule="evenodd" clip-rule="evenodd" d="M17.5594 21.4906L21.4906 17.5594C22.297 16.753 22.75 15.6593 22.75 14.5189V9.48112C22.75 8.34069 22.297 7.24697 21.4906 6.44056L17.5594 2.50944C16.753 1.70303 15.6593 1.25 14.5189 1.25H9.48112C8.34069 1.25 7.24697 1.70303 6.44056 2.50944L2.50944 6.44056C1.70303 7.24697 1.25 8.34069 1.25 9.48112V14.5189C1.25 15.6593 1.70303 16.753 2.50944 17.5594L6.44056 21.4906C7.24697 22.297 8.34069 22.75 9.48112 22.75H14.5189C15.6593 22.75 16.753 22.297 17.5594 21.4906Z" fill="#020203"/>
<path d="M12 8C9.79086 8 8 9.79086 8 12C8 14.2091 9.79086 16 12 16C14.2091 16 16 14.2091 16 12C16 9.79086 14.2091 8 12 8Z" fill="#020203"/>
</svg>
