<svg width="24" height="24" viewBox="0 0 24 24" fill="none" xmlns="http://www.w3.org/2000/svg">
<path opacity="0.4" d="M20.8284 17.1716L17.1716 20.8284C16.4214 21.5786 15.404 22 14.3431 22H9.65685C8.59599 22 7.57857 21.5786 6.82843 20.8284L3.17157 17.1716C2.42143 16.4214 2 15.404 2 14.3431V9.65685C2 8.59599 2.42143 7.57857 3.17157 6.82843L6.82843 3.17157C7.57857 2.42143 8.59599 2 9.65685 2H14.3431C15.404 2 16.4214 2.42143 17.1716 3.17157L20.8284 6.82843C21.5786 7.57857 22 8.59599 22 9.65685V14.3431C22 15.404 21.5786 16.4214 20.8284 17.1716Z" stroke="#020203" stroke-width="1.5"/>
<path d="M12 8C9.79086 8 8 9.79086 8 12C8 14.2091 9.79086 16 12 16C14.2091 16 16 14.2091 16 12C16 9.79086 14.2091 8 12 8Z" stroke="#020203" stroke-width="1.5" stroke-linecap="round"/>
</svg>
