<svg width="24" height="24" viewBox="0 0 24 24" fill="none" xmlns="http://www.w3.org/2000/svg">
<path d="M9.25 12C9.25 13.5188 10.4812 14.75 12 14.75C13.5188 14.75 14.75 13.5188 14.75 12C14.75 10.4812 13.5188 9.25 12 9.25C10.4812 9.25 9.25 10.4812 9.25 12Z" fill="#020203"/>
<path fill-rule="evenodd" clip-rule="evenodd" d="M14.0007 2.82308C13.4919 0.725639 10.5081 0.725639 9.99931 2.82308C9.66964 4.17878 8.12164 4.82139 6.92719 4.09517C5.08297 2.97239 2.97358 5.08297 4.09636 6.926C4.26514 7.20282 4.36617 7.51557 4.39123 7.83881C4.41629 8.16205 4.36468 8.48664 4.24059 8.78617C4.11649 9.08569 3.92343 9.35168 3.67711 9.56248C3.43079 9.77329 3.13818 9.92296 2.82308 9.99931C0.725639 10.5081 0.725639 13.4919 2.82308 14.0007C3.1379 14.0773 3.4302 14.227 3.67624 14.4378C3.92228 14.6486 4.11511 14.9145 4.23906 15.2138C4.36301 15.5131 4.41458 15.8375 4.38958 16.1605C4.36457 16.4835 4.2637 16.7961 4.09517 17.0728C2.97239 18.917 5.08297 21.0264 6.926 19.9036C7.20282 19.7349 7.51557 19.6338 7.83881 19.6088C8.16205 19.5837 8.48664 19.6353 8.78617 19.7594C9.08569 19.8835 9.35168 20.0766 9.56248 20.3229C9.77329 20.5692 9.92296 20.8618 9.99931 21.1769C10.5081 23.2744 13.4919 23.2744 14.0007 21.1769C14.0773 20.8621 14.227 20.5698 14.4378 20.3238C14.6486 20.0777 14.9145 19.8849 15.2138 19.7609C15.5131 19.637 15.8375 19.5854 16.1605 19.6104C16.4835 19.6354 16.7961 19.7363 17.0728 19.9048C18.917 21.0276 21.0264 18.917 19.9036 17.074C19.7349 16.7972 19.6338 16.4844 19.6088 16.1612C19.5837 15.8379 19.6353 15.5134 19.7594 15.2138C19.8835 14.9143 20.0766 14.6483 20.3229 14.4375C20.5692 14.2267 20.8618 14.077 21.1769 14.0007C23.2744 13.4919 23.2744 10.5081 21.1769 9.99931C20.8621 9.92275 20.5698 9.77299 20.3238 9.5622C20.0777 9.35141 19.8849 9.08554 19.7609 8.7862C19.637 8.48686 19.5854 8.1625 19.6104 7.83948C19.6354 7.51646 19.7363 7.20389 19.9048 6.92719C21.0276 5.08297 18.917 2.97358 17.074 4.09636C16.7972 4.26514 16.4844 4.36617 16.1612 4.39123C15.8379 4.41629 15.5134 4.36468 15.2138 4.24059C14.9143 4.11649 14.6483 3.92343 14.4375 3.67711C14.2267 3.43079 14.077 3.13818 14.0007 2.82308ZM12 16.25C9.65279 16.25 7.75 14.3472 7.75 12C7.75 9.65279 9.65279 7.75 12 7.75C14.3472 7.75 16.25 9.65279 16.25 12C16.25 14.3472 14.3472 16.25 12 16.25Z" fill="#020203"/>
</svg>
