<svg width="24" height="24" viewBox="0 0 24 24" fill="none" xmlns="http://www.w3.org/2000/svg">
<path d="M8.25625 11.75C8.25625 13.6795 9.82046 15.2438 11.75 15.2438C13.6795 15.2438 15.2438 13.6795 15.2438 11.75C15.2438 9.82046 13.6795 8.25625 11.75 8.25625C9.82046 8.25625 8.25625 9.82046 8.25625 11.75Z" fill="#020203"/>
<path fill-rule="evenodd" clip-rule="evenodd" d="M17.3094 21.2406L21.2406 17.3094C22.047 16.503 22.5 15.4093 22.5 14.2689V9.23112C22.5 8.09069 22.047 6.99697 21.2406 6.19056L17.3094 2.25944C16.503 1.45303 15.4093 1 14.2689 1H9.23112C8.09069 1 6.99697 1.45303 6.19056 2.25944L2.25944 6.19056C1.45303 6.99697 1 8.09069 1 9.23112V14.2689C1 15.4093 1.45303 16.503 2.25944 17.3094L6.19056 21.2406C6.99697 22.047 8.09069 22.5 9.23112 22.5H14.2689C15.4093 22.5 16.503 22.047 17.3094 21.2406ZM11.75 16.8563C8.9299 16.8563 6.64375 14.5701 6.64375 11.75C6.64375 8.9299 8.9299 6.64375 11.75 6.64375C14.5701 6.64375 16.8563 8.9299 16.8563 11.75C16.8563 14.5701 14.5701 16.8563 11.75 16.8563Z" fill="#020203"/>
</svg>
