<svg width="24" height="24" viewBox="0 0 24 24" fill="none" xmlns="http://www.w3.org/2000/svg">
<path opacity="0.4" d="M9.99931 2.82308C10.5081 0.725639 13.4919 0.725639 14.0007 2.82308C14.077 3.13818 14.2267 3.43079 14.4375 3.67711C14.6483 3.92343 14.9143 4.11649 15.2138 4.24059C15.5134 4.36468 15.8379 4.41629 16.1612 4.39123C16.4844 4.36617 16.7972 4.26514 17.074 4.09636C18.917 2.97358 21.0276 5.08297 19.9048 6.92719C19.7363 7.20389 19.6354 7.51646 19.6104 7.83948C19.5854 8.1625 19.637 8.48686 19.7609 8.7862C19.8849 9.08554 20.0777 9.35141 20.3238 9.5622C20.5698 9.77299 20.8621 9.92275 21.1769 9.99931C23.2744 10.5081 23.2744 13.4919 21.1769 14.0007C20.8618 14.077 20.5692 14.2267 20.3229 14.4375C20.0766 14.6483 19.8835 14.9143 19.7594 15.2138C19.6353 15.5134 19.5837 15.8379 19.6088 16.1612C19.6338 16.4844 19.7349 16.7972 19.9036 17.074C21.0264 18.917 18.917 21.0276 17.0728 19.9048C16.7961 19.7363 16.4835 19.6354 16.1605 19.6104C15.8375 19.5854 15.5131 19.637 15.2138 19.7609C14.9145 19.8849 14.6486 20.0777 14.4378 20.3238C14.227 20.5698 14.0773 20.8621 14.0007 21.1769C13.4919 23.2744 10.5081 23.2744 9.99931 21.1769C9.92296 20.8618 9.77329 20.5692 9.56248 20.3229C9.35168 20.0766 9.08569 19.8835 8.78617 19.7594C8.48664 19.6353 8.16205 19.5837 7.83881 19.6088C7.51557 19.6338 7.20282 19.7349 6.926 19.9036C5.08297 21.0264 2.97239 18.917 4.09517 17.0728C4.2637 16.7961 4.36457 16.4835 4.38958 16.1605C4.41458 15.8375 4.36301 15.5131 4.23906 15.2138C4.11511 14.9145 3.92228 14.6486 3.67624 14.4378C3.4302 14.227 3.1379 14.0773 2.82308 14.0007C0.725639 13.4919 0.725639 10.5081 2.82308 9.99931C3.13818 9.92296 3.43079 9.77329 3.67711 9.56248C3.92343 9.35168 4.11649 9.08569 4.24059 8.78617C4.36468 8.48664 4.41629 8.16205 4.39123 7.83881C4.36617 7.51557 4.26514 7.20282 4.09636 6.926C2.97358 5.08297 5.08297 2.97239 6.92719 4.09517C8.12164 4.82139 9.66964 4.17878 9.99931 2.82308Z" fill="#020203"/>
<path d="M12 8C9.79086 8 8 9.79086 8 12C8 14.2091 9.79086 16 12 16C14.2091 16 16 14.2091 16 12C16 9.79086 14.2091 8 12 8Z" fill="#020203"/>
</svg>
