<svg width="24" height="24" viewBox="0 0 24 24" fill="none" xmlns="http://www.w3.org/2000/svg">
<path fill-rule="evenodd" clip-rule="evenodd" d="M8 2.25C4.27208 2.25 1.25 5.27208 1.25 9V15C1.25 18.7279 4.27208 21.75 8 21.75C11.7279 21.75 14.75 18.7279 14.75 15V12.75L22 12.75C22.4142 12.75 22.75 12.4142 22.75 12C22.75 11.5858 22.4142 11.25 22 11.25L14.75 11.25V9C14.75 5.27208 11.7279 2.25 8 2.25ZM14.75 11.25H10C9.58579 11.25 9.25 11.5858 9.25 12C9.25 12.4142 9.58579 12.75 10 12.75H14.75V11.25Z" fill="#020203"/>
<path fill-rule="evenodd" clip-rule="evenodd" d="M19.0898 8.46967C19.3827 8.17678 19.8576 8.17678 20.1504 8.46967L22.0898 10.409C22.9685 11.2877 22.9685 12.7123 22.0898 13.591L20.1504 15.5303C19.8576 15.8232 19.3827 15.8232 19.0898 15.5303C18.7969 15.2374 18.7969 14.7626 19.0898 14.4697L21.0291 12.5303C21.322 12.2374 21.322 11.7626 21.0291 11.4697L19.0898 9.53033C18.7969 9.23744 18.7969 8.76256 19.0898 8.46967Z" fill="#020203"/>
</svg>
