<svg width="24" height="24" viewBox="0 0 24 24" fill="none" xmlns="http://www.w3.org/2000/svg">
<path opacity="0.4" d="M9 22C5.27208 22 2.25 18.9779 2.25 15.25C2.25 11.5221 5.27208 8.5 9 8.5H15C18.7279 8.5 21.75 11.5221 21.75 15.25C21.75 18.9779 18.7279 22 15 22H9Z" fill="#020203"/>
<path fill-rule="evenodd" clip-rule="evenodd" d="M12 14.75C11.5858 14.75 11.25 14.4142 11.25 14L11.25 2C11.25 1.58579 11.5858 1.25 12 1.25C12.4142 1.25 12.75 1.58579 12.75 2L12.75 14C12.75 14.4142 12.4142 14.75 12 14.75Z" fill="#020203"/>
<path fill-rule="evenodd" clip-rule="evenodd" d="M12.5303 2.96967C12.2374 2.67678 11.7626 2.67678 11.4697 2.96967L9.53033 4.90901C9.23744 5.2019 8.76256 5.2019 8.46967 4.90901C8.17678 4.61612 8.17678 4.14124 8.46967 3.84835L10.409 1.90901C11.2877 1.03033 12.7123 1.03033 13.591 1.90901L15.5303 3.84835C15.8232 4.14124 15.8232 4.61612 15.5303 4.90901C15.2374 5.2019 14.7626 5.2019 14.4697 4.90901L12.5303 2.96967Z" fill="#020203"/>
</svg>
