<svg width="24" height="24" viewBox="0 0 24 24" fill="none" xmlns="http://www.w3.org/2000/svg">
<path opacity="0.4" d="M6.17803 17.068L5.31521 11.8912C4.95543 9.73246 4.77554 8.65311 4.95691 7.78189C5.28484 6.20668 6.3879 4.90456 7.88777 4.32213C8.71731 4 9.81155 4 12 4C14.1885 4 15.2827 4 16.1123 4.32213C17.6121 4.90456 18.7152 6.20668 19.0431 7.78189C19.2245 8.65311 19.0446 9.73246 18.6848 11.8912L17.822 17.068C17.7034 17.7795 17.6442 18.1352 17.5528 18.4392C16.9843 20.3305 15.3559 21.71 13.3968 21.9598C13.0819 22 12.7213 22 12 22C11.2788 22 10.9182 22 10.6032 21.9598C8.64418 21.71 7.01575 20.3305 6.44728 18.4392C6.35588 18.1352 6.2966 17.7795 6.17803 17.068Z" stroke="#020203" stroke-width="1.5"/>
<path d="M11 18H13" stroke="#020203" stroke-width="1.5" stroke-linecap="round"/>
<path d="M7.5 2L7.5 4" stroke="#020203" stroke-width="1.5" stroke-linecap="round"/>
<path d="M10.5 2L10.5 4" stroke="#020203" stroke-width="1.5" stroke-linecap="round"/>
<path d="M13.5 2L13.5 4" stroke="#020203" stroke-width="1.5" stroke-linecap="round"/>
<path d="M16.5 2L16.5 4" stroke="#020203" stroke-width="1.5" stroke-linecap="round"/>
<path d="M10 11C10 12.1046 10.8954 13 12 13C13.1046 13 14 12.1046 14 11C14 9.89543 13.1046 9 12 9C10.8954 9 10 9.89543 10 11Z" stroke="#020203" stroke-width="1.5" stroke-linecap="round"/>
</svg>
