<svg width="24" height="24" viewBox="0 0 24 24" fill="none" xmlns="http://www.w3.org/2000/svg">
<path d="M6.17796 17.068L5.31515 11.8912C4.95537 9.73246 4.77548 8.65311 4.95685 7.78189C5.28478 6.20668 6.38784 4.90456 7.88771 4.32213C8.71725 4 9.81149 4 12 4C14.1884 4 15.2827 4 16.1122 4.32213C17.6121 4.90456 18.7151 6.20668 19.0431 7.78189C19.2244 8.65311 19.0446 9.73246 18.6848 11.8912L17.822 17.068C17.7034 17.7795 17.6441 18.1352 17.5527 18.4392C16.9842 20.3305 15.3558 21.71 13.3968 21.9598C13.0818 22 12.7212 22 12 22C11.2787 22 10.9181 22 10.6031 21.9598C8.64412 21.71 7.01568 20.3305 6.44722 18.4392C6.35582 18.1352 6.29654 17.7795 6.17796 17.068Z" stroke="#020203" stroke-width="1.5"/>
<path d="M11 18H13" stroke="#020203" stroke-width="1.5" stroke-linecap="round"/>
<path d="M7.5 2L7.5 4" stroke="#020203" stroke-width="1.5" stroke-linecap="round"/>
<path d="M10.5 2L10.5 4" stroke="#020203" stroke-width="1.5" stroke-linecap="round"/>
<path d="M13.5 2L13.5 4" stroke="#020203" stroke-width="1.5" stroke-linecap="round"/>
<path d="M16.5 2L16.5 4" stroke="#020203" stroke-width="1.5" stroke-linecap="round"/>
<path d="M10 11C10 12.1046 10.8954 13 12 13C13.1046 13 14 12.1046 14 11C14 9.89543 13.1046 9 12 9C10.8954 9 10 9.89543 10 11Z" stroke="#020203" stroke-width="1.5" stroke-linecap="round"/>
</svg>
