<svg width="24" height="24" viewBox="0 0 24 24" fill="none" xmlns="http://www.w3.org/2000/svg">
<path opacity="0.4" d="M5.37565 17.0669L4.58048 11.8983C4.21411 9.51682 4.03092 8.3261 4.24344 7.3657C4.62262 5.65216 5.83293 4.24141 7.46888 3.60609C8.3858 3.25 9.59053 3.25 12 3.25C14.4094 3.25 15.6142 3.25 16.5311 3.60609C18.167 4.24141 19.3773 5.65216 19.7565 7.3657C19.969 8.3261 19.7859 9.51682 19.4195 11.8982L18.6243 17.0669C18.4765 18.0279 18.4025 18.5085 18.2732 18.9155C17.6417 20.9028 15.9407 22.3621 13.8805 22.6841C13.4585 22.75 12.9723 22.75 12 22.75C11.0276 22.75 10.5414 22.75 10.1194 22.6841C8.05922 22.3621 6.35821 20.9028 5.72677 18.9155C5.59743 18.5085 5.52351 18.0279 5.37565 17.0669Z" fill="#020203"/>
<path fill-rule="evenodd" clip-rule="evenodd" d="M10.25 18C10.25 17.5858 10.5858 17.25 11 17.25H13C13.4142 17.25 13.75 17.5858 13.75 18C13.75 18.4142 13.4142 18.75 13 18.75H11C10.5858 18.75 10.25 18.4142 10.25 18Z" fill="#020203"/>
<path fill-rule="evenodd" clip-rule="evenodd" d="M7.5 1.25C7.08579 1.25 6.75 1.58579 6.75 2L6.75 5C6.75 5.41421 7.08579 5.75 7.5 5.75C7.91421 5.75 8.25 5.41421 8.25 5L8.25 2C8.25 1.58579 7.91421 1.25 7.5 1.25Z" fill="#020203"/>
<path fill-rule="evenodd" clip-rule="evenodd" d="M10.5 1.25C10.0858 1.25 9.75 1.58579 9.75 2L9.75 5C9.75 5.41421 10.0858 5.75 10.5 5.75C10.9142 5.75 11.25 5.41421 11.25 5L11.25 2C11.25 1.58579 10.9142 1.25 10.5 1.25Z" fill="#020203"/>
<path fill-rule="evenodd" clip-rule="evenodd" d="M13.5 1.25C13.0858 1.25 12.75 1.58579 12.75 2L12.75 5C12.75 5.41421 13.0858 5.75 13.5 5.75C13.9142 5.75 14.25 5.41421 14.25 5L14.25 2C14.25 1.58579 13.9142 1.25 13.5 1.25Z" fill="#020203"/>
<path fill-rule="evenodd" clip-rule="evenodd" d="M16.5 1.25C16.0858 1.25 15.75 1.58579 15.75 2L15.75 5C15.75 5.41421 16.0858 5.75 16.5 5.75C16.9142 5.75 17.25 5.41421 17.25 5L17.25 2C17.25 1.58579 16.9142 1.25 16.5 1.25Z" fill="#020203"/>
<path d="M9.75 11.25C9.75 12.4926 10.7574 13.5 12 13.5C13.2426 13.5 14.25 12.4926 14.25 11.25C14.25 10.0074 13.2426 9 12 9C10.7574 9 9.75 10.0074 9.75 11.25Z" fill="#020203"/>
</svg>
