<svg width="24" height="24" viewBox="0 0 24 24" fill="none" xmlns="http://www.w3.org/2000/svg">
<path opacity="0.4" d="M5.82953 3.07097L7.84317 2.15289C9.1482 1.5579 10.5657 1.25 12 1.25C13.4343 1.25 14.8518 1.5579 16.1568 2.15289L18.1705 3.07097C20.0463 3.92619 21.25 5.79792 21.25 7.8595V12.8456C21.25 15.6768 19.8404 18.3221 17.4904 19.901L14.2876 22.0529C13.6112 22.5073 12.8148 22.75 12 22.75C11.1852 22.75 10.3888 22.5073 9.71244 22.0529L6.50964 19.901C4.15962 18.3221 2.75 15.6768 2.75 12.8456V7.85949C2.75 5.79792 3.95372 3.92619 5.82953 3.07097Z" fill="#020203"/>
<path fill-rule="evenodd" clip-rule="evenodd" d="M15.9429 9.39471C16.2772 9.6393 16.3499 10.1086 16.1053 10.4429L14.3483 12.8442L14.341 12.8535C13.4044 14.0524 12.3237 14.7992 11.0935 14.7475C9.88703 14.6968 8.8305 13.8859 7.90899 12.7063C7.65398 12.3799 7.71186 11.9086 8.03827 11.6536C8.36468 11.3986 8.83601 11.4565 9.09102 11.7829C9.91951 12.8433 10.613 13.226 11.1565 13.2488C11.6748 13.2706 12.3417 12.9729 13.1519 11.9391L14.8947 9.55712C15.1393 9.22283 15.6086 9.15012 15.9429 9.39471Z" fill="#020203"/>
</svg>
