<svg width="24" height="24" viewBox="0 0 24 24" fill="none" xmlns="http://www.w3.org/2000/svg">
<path d="M6.23905 3.73582L8.18408 2.83812C9.38044 2.28595 10.6824 2 12 2C13.3176 2 14.6196 2.28595 15.8159 2.83812L17.761 3.73583C19.4307 4.50648 20.5 6.17768 20.5 8.0167V12.7711C20.5 15.4131 19.1796 17.8803 16.9813 19.3458L13.8321 21.4453C13.2895 21.807 12.6521 22 12 22C11.3479 22 10.7105 21.807 10.168 21.4453L7.01868 19.3458C4.8204 17.8803 3.5 15.4131 3.5 12.7711V8.0167C3.5 6.17768 4.56929 4.50648 6.23905 3.73582Z" stroke="#020203" stroke-width="1.5"/>
<path d="M8.5 12.2446C10.25 14.4846 12 14.6318 13.75 12.3918L15.5 10" stroke="#020203" stroke-width="1.5" stroke-linecap="round"/>
</svg>
