<svg width="24" height="24" viewBox="0 0 24 24" fill="none" xmlns="http://www.w3.org/2000/svg">
<path fill-rule="evenodd" clip-rule="evenodd" d="M7.84317 2.15289L5.82953 3.07097C3.95372 3.92619 2.75 5.79792 2.75 7.85949V12.8456C2.75 15.6768 4.15962 18.3221 6.50964 19.901L9.71244 22.0529C10.3888 22.5073 11.1852 22.75 12 22.75C12.8148 22.75 13.6112 22.5073 14.2876 22.0529L17.4904 19.901C19.8404 18.3221 21.25 15.6768 21.25 12.8456V7.8595C21.25 5.79792 20.0463 3.92619 18.1705 3.07097L16.1568 2.15289C14.8518 1.5579 13.4343 1.25 12 1.25C10.5657 1.25 9.1482 1.5579 7.84317 2.15289ZM16.1053 10.4429C16.3499 10.1086 16.2772 9.63931 15.9429 9.39472C15.6086 9.15013 15.1393 9.22284 14.8947 9.55713L13.1519 11.9391C12.3417 12.9729 11.6748 13.2706 11.1565 13.2488C10.613 13.226 9.9195 12.8433 9.09102 11.7829C8.83601 11.4565 8.36468 11.3986 8.03827 11.6536C7.71186 11.9086 7.65397 12.3799 7.90898 12.7063C8.8305 13.8859 9.88702 14.6968 11.0935 14.7475C12.3237 14.7993 13.4044 14.0524 14.341 12.8535L14.3483 12.8442L16.1053 10.4429Z" fill="#020203"/>
</svg>
