<svg width="24" height="24" viewBox="0 0 24 24" fill="none" xmlns="http://www.w3.org/2000/svg">
<path d="M5.72727 21L3.85048 17.5592C3.29242 16.5361 3 15.3893 3 14.2239C3 11.3388 5.33882 9 8.22391 9H15.7761C18.6612 9 21 11.3388 21 14.2239C21 15.3893 20.7076 16.5361 20.1495 17.5592L18.2727 21" stroke="#020203" stroke-width="1.5" stroke-linecap="round"/>
<path opacity="0.4" d="M8 13.7499C10.5 12.75 13.5 12.75 16 13.7499" stroke="#020203" stroke-width="1.5" stroke-linecap="round"/>
<path d="M18 9.5C18 8.57043 18 8.10564 17.9122 7.72118C17.6131 6.41044 16.5896 5.38692 15.2788 5.08775C14.8944 5 14.4296 5 13.5 5H10.5C9.57043 5 9.10564 5 8.72118 5.08775C7.41044 5.38692 6.38692 6.41044 6.08775 7.72118C6 8.10564 6 8.57043 6 9.5" stroke="#020203" stroke-width="1.5" stroke-linecap="round"/>
<path opacity="0.4" d="M14 5V4C14 3 13.3333 2 12 2C10.6667 2 10 3 10 4V5" stroke="#020203" stroke-width="1.5" stroke-linecap="round"/>
<path d="M2 21.5L2.10557 21.4472C2.69377 21.1531 3.34237 21 4 21C4.65763 21 5.30623 21.1531 5.89443 21.4472L6.10557 21.5528C6.69377 21.8469 7.34237 22 8 22C8.65763 22 9.30623 21.8469 9.89443 21.5528L10.1056 21.4472C10.6938 21.1531 11.3424 21 12 21C12.6576 21 13.3062 21.1531 13.8944 21.4472L14.1056 21.5528C14.6938 21.8469 15.3424 22 16 22C16.6576 22 17.3062 21.8469 17.8944 21.5528L18.1056 21.4472C18.6938 21.1531 19.3424 21 20 21C20.6576 21 21.3062 21.1531 21.8944 21.4472L22 21.5" stroke="#020203" stroke-width="1.5" stroke-linecap="round"/>
</svg>
