<svg width="24" height="24" viewBox="0 0 24 24" fill="none" xmlns="http://www.w3.org/2000/svg">
<path fill-rule="evenodd" clip-rule="evenodd" d="M4.00001 21.75C3.45882 21.75 2.92505 21.876 2.44099 22.118L2.33542 22.1708C1.96494 22.3561 1.51443 22.2059 1.32919 21.8354C1.14395 21.4649 1.29412 21.0144 1.6646 20.8292L1.77017 20.7764C2.46252 20.4302 3.22595 20.25 4.00001 20.25C4.77407 20.25 5.53751 20.4302 6.22985 20.7764L6.441 20.882C6.92505 21.124 7.45882 21.25 8.00001 21.25C8.54121 21.25 9.07497 21.124 9.55903 20.882L9.77017 20.7764C10.4625 20.4302 11.2259 20.25 12 20.25C12.7741 20.25 13.5375 20.4302 14.2298 20.7764L14.441 20.882C14.9251 21.124 15.4588 21.25 16 21.25C16.5412 21.25 17.075 21.124 17.559 20.882L17.7702 20.7764C18.4625 20.4302 19.2259 20.25 20 20.25C20.7741 20.25 21.5375 20.4302 22.2298 20.7764L22.3354 20.8292C22.7059 21.0144 22.8561 21.4649 22.6708 21.8354C22.4856 22.2059 22.0351 22.3561 21.6646 22.1708L21.559 22.118C21.075 21.876 20.5412 21.75 20 21.75C19.4588 21.75 18.9251 21.876 18.441 22.118L18.2298 22.2236C17.5375 22.5698 16.7741 22.75 16 22.75C15.2259 22.75 14.4625 22.5698 13.7702 22.2236L13.559 22.118C13.075 21.876 12.5412 21.75 12 21.75C11.4588 21.75 10.9251 21.876 10.441 22.118L10.2298 22.2236C9.53751 22.5698 8.77407 22.75 8.00001 22.75C7.22595 22.75 6.46252 22.5698 5.77017 22.2236L5.55903 22.118C5.07497 21.876 4.54121 21.75 4.00001 21.75Z" fill="#020203"/>
<path opacity="0.4" d="M8.17611 8.25H15.8239C19.0968 8.25 21.75 10.9032 21.75 14.1761C21.75 15.4562 21.439 16.7171 20.8437 17.8504L20.2369 19.0056C20.1581 19.0019 20.0791 19 20 19C19.2259 19 18.4625 19.1802 17.7702 19.5264L17.559 19.632C17.075 19.874 16.5412 20 16 20C15.4588 20 14.925 19.874 14.441 19.632L14.2298 19.5264C13.5375 19.1802 12.7741 19 12 19C11.2259 19 10.4625 19.1802 9.77016 19.5264L9.55902 19.632C9.07496 19.874 8.54119 20 8 20C7.45881 20 6.92504 19.874 6.44098 19.632L6.22984 19.5264C5.53749 19.1802 4.77406 19 4 19C3.92089 19 3.84189 19.0019 3.76306 19.0056L3.15625 17.8504C2.561 16.7171 2.25 15.4562 2.25 14.1761C2.25 10.9032 4.90321 8.25 8.17611 8.25Z" fill="#020203"/>
<path fill-rule="evenodd" clip-rule="evenodd" d="M15.7215 14.4462C13.4003 13.5179 10.5997 13.5179 8.27849 14.4463C7.89389 14.6001 7.45743 14.413 7.30361 14.0284C7.1498 13.6438 7.33689 13.2073 7.72148 13.0535C10.4003 11.9822 13.5997 11.9821 16.2785 13.0535C16.6631 13.2073 16.8502 13.6438 16.6964 14.0284C16.5425 14.413 16.1061 14.6001 15.7215 14.4462Z" fill="#020203"/>
<path d="M11.25 4.25H12.75C15.0889 4.25 16.2583 4.25 17.1121 4.78647C17.5573 5.06621 17.9338 5.44267 18.2135 5.88789C18.511 6.36131 18.6435 6.9318 18.7026 7.74492C17.8502 7.27035 16.8686 7 15.8239 7H8.1761C7.13135 7 6.14974 7.27035 5.29742 7.74492C5.35646 6.9318 5.48898 6.36132 5.78646 5.88789C6.0662 5.44267 6.44267 5.06621 6.88788 4.78647C7.74166 4.25 8.9111 4.25 11.25 4.25Z" fill="#020203"/>
<path opacity="0.4" d="M14.5682 3.01465C14.172 1.98259 13.1715 1.25 12 1.25C10.8285 1.25 9.82802 1.98259 9.43179 3.01465C9.94735 3 10.5456 3 11.25 3H12.75C13.4543 3 14.0526 3 14.5682 3.01465Z" fill="#020203"/>
</svg>
