<svg width="24" height="24" viewBox="0 0 24 24" fill="none" xmlns="http://www.w3.org/2000/svg">
<path fill-rule="evenodd" clip-rule="evenodd" d="M6.55885 4.79151C6.8351 5.10015 6.80883 5.5743 6.50019 5.85055C4.81118 7.36225 3.75 9.55671 3.75 12C3.75 16.5564 7.44365 20.25 12 20.25C16.5563 20.25 20.25 16.5564 20.25 12C20.25 9.55671 19.1888 7.36225 17.4998 5.85055C17.1912 5.5743 17.1649 5.10015 17.4411 4.79151C17.7174 4.48286 18.1915 4.4566 18.5002 4.73284C20.4937 6.51706 21.75 9.11232 21.75 12C21.75 17.3848 17.3848 21.75 12 21.75C6.61522 21.75 2.25 17.3848 2.25 12C2.25 9.11232 3.50633 6.51706 5.49981 4.73284C5.80846 4.4566 6.28261 4.48286 6.55885 4.79151Z" fill="#020203"/>
<path fill-rule="evenodd" clip-rule="evenodd" d="M12 2.25C12.4142 2.25 12.75 2.58579 12.75 3V11C12.75 11.4142 12.4142 11.75 12 11.75C11.5858 11.75 11.25 11.4142 11.25 11V3C11.25 2.58579 11.5858 2.25 12 2.25Z" fill="#020203"/>
</svg>
