<svg width="24" height="24" viewBox="0 0 24 24" fill="none" xmlns="http://www.w3.org/2000/svg">
<path opacity="0.4" d="M12 3V7" stroke="#020203" stroke-width="1.5" stroke-linecap="round"/>
<path opacity="0.4" d="M12 17V21" stroke="#020203" stroke-width="1.5" stroke-linecap="round"/>
<path d="M10.5092 7H13.5C14.8964 7 15.5947 7 16.156 7.19641C17.1613 7.5482 17.9518 8.33866 18.3036 9.34402C18.5 9.90533 18.5 10.6036 18.5 12C18.5 13.3964 18.5 14.0947 18.3036 14.656C17.9518 15.6613 17.1613 16.4518 16.156 16.8036C15.5947 17 14.8964 17 13.5 17H10.5092C9.46509 17 8.94302 17 8.47355 16.8405C8.16268 16.7348 7.87126 16.5788 7.61092 16.3788C7.21775 16.0767 6.92816 15.6423 6.34898 14.7735C5.63564 13.7035 5.27897 13.1685 5.16297 12.5842C5.08638 12.1985 5.08638 11.8015 5.16297 11.4158C5.27897 10.8315 5.63564 10.2965 6.34898 9.2265C6.92816 8.35773 7.21776 7.92334 7.61092 7.62121C7.87126 7.42116 8.16268 7.26519 8.47355 7.15955C8.94302 7 9.46509 7 10.5092 7Z" stroke="#020203" stroke-width="1.5"/>
</svg>
