<svg width="24" height="24" viewBox="0 0 24 24" fill="none" xmlns="http://www.w3.org/2000/svg">
<path d="M12 2V7" stroke="#020203" stroke-width="1.5" stroke-linecap="round"/>
<path d="M12 17V22" stroke="#020203" stroke-width="1.5" stroke-linecap="round"/>
<path d="M13.4907 17H10.5C9.10355 17 8.40533 17 7.84402 16.8036C6.83866 16.4518 6.0482 15.6613 5.69641 14.656C5.5 14.0947 5.5 13.3964 5.5 12C5.5 10.6036 5.5 9.90533 5.69641 9.34402C6.0482 8.33866 6.83866 7.5482 7.84402 7.19641C8.40533 7 9.10355 7 10.5 7H13.4907C14.5349 7 15.057 7 15.5264 7.15955C15.8373 7.26519 16.1287 7.42116 16.3891 7.62121C16.7822 7.92334 17.0718 8.35773 17.651 9.2265C18.3643 10.2965 18.721 10.8315 18.837 11.4158C18.9136 11.8015 18.9136 12.1985 18.837 12.5842C18.721 13.1685 18.3643 13.7035 17.651 14.7735C17.0718 15.6423 16.7822 16.0767 16.3891 16.3788C16.1287 16.5788 15.8373 16.7348 15.5264 16.8405C15.057 17 14.5349 17 13.4907 17Z" stroke="#020203" stroke-width="1.5"/>
</svg>
