<svg width="24" height="24" viewBox="0 0 24 24" fill="none" xmlns="http://www.w3.org/2000/svg">
<path opacity="0.4" fill-rule="evenodd" clip-rule="evenodd" d="M12 1.25C12.4142 1.25 12.75 1.58579 12.75 2V3C12.75 3.41421 12.4142 3.75 12 3.75C11.5858 3.75 11.25 3.41421 11.25 3V2C11.25 1.58579 11.5858 1.25 12 1.25Z" fill="#020203"/>
<path opacity="0.4" fill-rule="evenodd" clip-rule="evenodd" d="M12 9.25C12.4142 9.25 12.75 9.58579 12.75 10V13C12.75 13.4142 12.4142 13.75 12 13.75C11.5858 13.75 11.25 13.4142 11.25 13V10C11.25 9.58579 11.5858 9.25 12 9.25Z" fill="#020203"/>
<path opacity="0.4" fill-rule="evenodd" clip-rule="evenodd" d="M12 19.25C12.4142 19.25 12.75 19.5858 12.75 20L12.75 22C12.75 22.4142 12.4142 22.75 12 22.75C11.5858 22.75 11.25 22.4142 11.25 22L11.25 20C11.25 19.5858 11.5858 19.25 12 19.25Z" fill="#020203"/>
<path d="M13.6851 10.75H10C9.07025 10.75 8.60538 10.75 8.22222 10.6556C7.04932 10.3665 6.13353 9.45068 5.84444 8.27778C5.75 7.89462 5.75 7.42975 5.75 6.5C5.75 5.57025 5.75 5.10538 5.84444 4.72222C6.13353 3.54932 7.04932 2.63353 8.22222 2.34444C8.60538 2.25 9.07025 2.25 10 2.25H13.6851C14.5242 2.25 14.9438 2.25 15.3303 2.35507C15.7101 2.45834 16.0659 2.63536 16.3774 2.87603C16.6944 3.12091 16.9475 3.45555 17.4537 4.12484C18.0802 4.95329 18.3935 5.36752 18.5215 5.82068C18.6469 6.26487 18.6469 6.73513 18.5215 7.17932C18.3935 7.63248 18.0802 8.04671 17.4537 8.87516C16.9475 9.54445 16.6944 9.87909 16.3774 10.124C16.0659 10.3646 15.7101 10.5417 15.3303 10.6449C14.9438 10.75 14.5242 10.75 13.6851 10.75Z" fill="#020203"/>
<path d="M10.0787 20.75H14C15.1636 20.75 15.7453 20.75 16.2144 20.5908C17.0975 20.291 17.791 19.5975 18.0908 18.7143C18.25 18.2453 18.25 17.6635 18.25 16.5C18.25 15.3365 18.25 14.7547 18.0908 14.2857C17.791 13.4025 17.0975 12.709 16.2144 12.4092C15.7453 12.25 15.1636 12.25 14 12.25H10.0787C9.2266 12.25 8.80057 12.25 8.41417 12.3794C8.19495 12.4528 7.98697 12.5563 7.79618 12.6868C7.4599 12.917 7.20291 13.2568 6.68894 13.9363C5.92486 14.9466 5.54283 15.4518 5.43154 16.0174C5.36885 16.3361 5.36885 16.6639 5.43154 16.9826C5.54283 17.5482 5.92486 18.0534 6.68894 19.0637C7.20291 19.7432 7.4599 20.083 7.79618 20.3132C7.98697 20.4437 8.19495 20.5472 8.41417 20.6206C8.80057 20.75 9.2266 20.75 10.0787 20.75Z" fill="#020203"/>
</svg>
