<svg width="24" height="24" viewBox="0 0 24 24" fill="none" xmlns="http://www.w3.org/2000/svg">
<path opacity="0.4" fill-rule="evenodd" clip-rule="evenodd" d="M12 1.25C12.4142 1.25 12.75 1.58579 12.75 2V7C12.75 7.41421 12.4142 7.75 12 7.75C11.5858 7.75 11.25 7.41421 11.25 7V2C11.25 1.58579 11.5858 1.25 12 1.25Z" fill="#020203"/>
<path opacity="0.4" fill-rule="evenodd" clip-rule="evenodd" d="M12 16.25C12.4142 16.25 12.75 16.5858 12.75 17V22C12.75 22.4142 12.4142 22.75 12 22.75C11.5858 22.75 11.25 22.4142 11.25 22V17C11.25 16.5858 11.5858 16.25 12 16.25Z" fill="#020203"/>
<path d="M13.1549 17.75H10.5C9.10477 17.75 8.40715 17.75 7.83693 17.5878C6.42141 17.185 5.31499 16.0786 4.91224 14.6631C4.75 14.0928 4.75 13.3952 4.75 12C4.75 10.6048 4.75 9.90715 4.91224 9.33693C5.31499 7.92141 6.42141 6.81499 7.83693 6.41224C8.40715 6.25 9.10477 6.25 10.5 6.25H13.1549C14.6107 6.25 15.3387 6.25 15.9783 6.51307C16.2157 6.61071 16.4417 6.73418 16.6521 6.88124C17.219 7.27745 17.6122 7.89006 18.3985 9.11528C19.184 10.3391 19.5768 10.951 19.6617 11.6248C19.6931 11.8739 19.6931 12.1261 19.6617 12.3752C19.5768 13.049 19.184 13.6609 18.3985 14.8847C17.6122 16.1099 17.219 16.7225 16.6521 17.1188C16.4417 17.2658 16.2157 17.3893 15.9783 17.4869C15.3387 17.75 14.6107 17.75 13.1549 17.75Z" fill="#020203"/>
</svg>
