<svg width="24" height="24" viewBox="0 0 24 24" fill="none" xmlns="http://www.w3.org/2000/svg">
<path d="M12 2V3" stroke="#020203" stroke-width="1.5" stroke-linecap="round"/>
<path d="M12 10V13" stroke="#020203" stroke-width="1.5" stroke-linecap="round"/>
<path d="M12 20L12 22" stroke="#020203" stroke-width="1.5" stroke-linecap="round"/>
<path d="M13.9819 10H10C9.06936 10 8.60404 10 8.22746 9.87764C7.46636 9.63035 6.86965 9.03364 6.62236 8.27254C6.5 7.89596 6.5 7.43064 6.5 6.5C6.5 5.56936 6.5 5.10404 6.62236 4.72746C6.86965 3.96636 7.46636 3.36965 8.22746 3.12236C8.60404 3 9.06936 3 10 3H13.9819C14.4464 3 14.6786 3 14.8972 3.03916C15.336 3.11775 15.7457 3.3122 16.084 3.60237C16.2526 3.74699 16.3995 3.92688 16.6932 4.28668C17.1826 4.88616 17.4273 5.1859 17.5648 5.50171C17.8421 6.13835 17.8421 6.86165 17.5648 7.49829C17.4273 7.8141 17.1826 8.11384 16.6932 8.71332C16.3995 9.07312 16.2526 9.25301 16.084 9.39763C15.7457 9.6878 15.336 9.88225 14.8972 9.96084C14.6786 10 14.4464 10 13.9819 10Z" stroke="#020203" stroke-width="1.5"/>
<path d="M10.1182 20H14.1001C15.0307 20 15.496 20 15.8726 19.8776C16.6337 19.6303 17.2304 19.0336 17.4777 18.2725C17.6001 17.896 17.6001 17.4306 17.6001 16.5C17.6001 15.5694 17.6001 15.104 17.4777 14.7275C17.2304 13.9664 16.6337 13.3697 15.8726 13.1224C15.496 13 15.0307 13 14.1001 13H10.1182C9.6537 13 9.42147 13 9.20282 13.0392C8.76409 13.1177 8.35434 13.3122 8.01602 13.6024C7.84741 13.747 7.70056 13.9269 7.40684 14.2867C6.91747 14.8862 6.67279 15.1859 6.53524 15.5017C6.25795 16.1384 6.25795 16.8616 6.53524 17.4983C6.67279 17.8141 6.91747 18.1138 7.40684 18.7133C7.70056 19.0731 7.84741 19.253 8.01602 19.3976C8.35434 19.6878 8.76409 19.8823 9.20282 19.9608C9.42147 20 9.6537 20 10.1182 20Z" stroke="#020203" stroke-width="1.5"/>
</svg>
