<svg width="24" height="24" viewBox="0 0 24 24" fill="none" xmlns="http://www.w3.org/2000/svg">
<path opacity="0.4" fill-rule="evenodd" clip-rule="evenodd" d="M12 2.25C12.4142 2.25 12.75 2.58579 12.75 3V7C12.75 7.41421 12.4142 7.75 12 7.75C11.5858 7.75 11.25 7.41421 11.25 7V3C11.25 2.58579 11.5858 2.25 12 2.25Z" fill="#020203"/>
<path opacity="0.4" fill-rule="evenodd" clip-rule="evenodd" d="M12 16.25C12.4142 16.25 12.75 16.5858 12.75 17V21C12.75 21.4142 12.4142 21.75 12 21.75C11.5858 21.75 11.25 21.4142 11.25 21V17C11.25 16.5858 11.5858 16.25 12 16.25Z" fill="#020203"/>
<path d="M10.963 6.25H13.5C14.8952 6.25 15.5929 6.25 16.1631 6.41224C17.5786 6.81499 18.685 7.92141 19.0878 9.33693C19.25 9.90715 19.25 10.6048 19.25 12C19.25 13.3952 19.25 14.0928 19.0878 14.6631C18.685 16.0786 17.5786 17.185 16.1631 17.5878C15.5929 17.75 14.8952 17.75 13.5 17.75H10.963C9.52632 17.75 8.808 17.75 8.17001 17.5102C7.84066 17.3863 7.53038 17.2168 7.24829 17.0065C6.70184 16.5991 6.31384 15.9946 5.53785 14.7856C4.81453 13.6586 4.45287 13.0951 4.35323 12.4789C4.30193 12.1617 4.30193 11.8383 4.35323 11.5211C4.45287 10.9049 4.81453 10.3414 5.53785 9.21443C6.31384 8.00539 6.70184 7.40086 7.24829 6.99349C7.53038 6.7832 7.84066 6.61365 8.17001 6.48984C8.808 6.25 9.52633 6.25 10.963 6.25Z" fill="#020203"/>
</svg>
