<svg width="24" height="24" viewBox="0 0 24 24" fill="none" xmlns="http://www.w3.org/2000/svg">
<path opacity="0.4" d="M12 2V3" stroke="#020203" stroke-width="1.5" stroke-linecap="round"/>
<path opacity="0.4" d="M12 10V13" stroke="#020203" stroke-width="1.5" stroke-linecap="round"/>
<path opacity="0.4" d="M12 20L12 22" stroke="#020203" stroke-width="1.5" stroke-linecap="round"/>
<path d="M13.9819 10H10C9.06936 10 8.60404 10 8.22746 9.87764C7.46636 9.63035 6.86965 9.03364 6.62236 8.27254C6.5 7.89596 6.5 7.43064 6.5 6.5C6.5 5.56936 6.5 5.10404 6.62236 4.72746C6.86965 3.96636 7.46636 3.36965 8.22746 3.12236C8.60404 3 9.06936 3 10 3H13.9819C14.4464 3 14.6786 3 14.8972 3.03916C15.336 3.11775 15.7457 3.3122 16.084 3.60237C16.2526 3.74699 16.3995 3.92688 16.6932 4.28668C17.1826 4.88616 17.4273 5.1859 17.5648 5.50171C17.8421 6.13835 17.8421 6.86165 17.5648 7.49829C17.4273 7.8141 17.1826 8.11384 16.6932 8.71332C16.3995 9.07312 16.2526 9.25301 16.084 9.39763C15.7457 9.6878 15.336 9.88225 14.8972 9.96084C14.6786 10 14.4464 10 13.9819 10Z" stroke="#020203" stroke-width="1.5"/>
<path d="M10.1181 20H14.1C15.0306 20 15.496 20 15.8725 19.8776C16.6336 19.6303 17.2303 19.0336 17.4776 18.2725C17.6 17.896 17.6 17.4306 17.6 16.5C17.6 15.5694 17.6 15.104 17.4776 14.7275C17.2303 13.9664 16.6336 13.3697 15.8725 13.1224C15.496 13 15.0306 13 14.1 13H10.1181C9.65364 13 9.42141 13 9.20276 13.0392C8.76403 13.1177 8.35428 13.3122 8.01596 13.6024C7.84735 13.747 7.70049 13.9269 7.40678 14.2867C6.91741 14.8862 6.67273 15.1859 6.53518 15.5017C6.25789 16.1384 6.25789 16.8616 6.53518 17.4983C6.67273 17.8141 6.91741 18.1138 7.40678 18.7133C7.70049 19.0731 7.84735 19.253 8.01596 19.3976C8.35428 19.6878 8.76403 19.8823 9.20276 19.9608C9.42141 20 9.65364 20 10.1181 20Z" stroke="#020203" stroke-width="1.5"/>
</svg>
