<svg width="24" height="24" viewBox="0 0 24 24" fill="none" xmlns="http://www.w3.org/2000/svg">
<path d="M9.5 8L14.5 8" stroke="#020203" stroke-width="1.5" stroke-linecap="round"/>
<path d="M9.5 17H14.5" stroke="#020203" stroke-width="1.5" stroke-linecap="round"/>
<path d="M7.75606 5C8.37381 3.25221 10.0407 2 12 2C13.9593 2 15.6262 3.25221 16.2439 5" stroke="#020203" stroke-width="1.5" stroke-linecap="round"/>
<path d="M7.5 10.5V14.5" stroke="#020203" stroke-width="1.5"/>
<path d="M8.0002 19.564C8.74838 21.0109 10.2587 22 12 22C13.7413 22 15.2516 21.0109 15.9998 19.564" stroke="#020203" stroke-width="1.5" stroke-linecap="round"/>
<path d="M16.5 10.5V14.5" stroke="#020203" stroke-width="1.5"/>
<path d="M6 7C6 6.17157 6.67157 5.5 7.5 5.5C8.32843 5.5 9 6.17157 9 7V9C9 9.82843 8.32843 10.5 7.5 10.5C6.67157 10.5 6 9.82843 6 9V7Z" stroke="#020203" stroke-width="1.5"/>
<path d="M6 16C6 15.1716 6.67157 14.5 7.5 14.5C8.32843 14.5 9 15.1716 9 16V18C9 18.8284 8.32843 19.5 7.5 19.5C6.67157 19.5 6 18.8284 6 18V16Z" stroke="#020203" stroke-width="1.5"/>
<path d="M15 7C15 6.17157 15.6716 5.5 16.5 5.5C17.3284 5.5 18 6.17157 18 7V9C18 9.82843 17.3284 10.5 16.5 10.5C15.6716 10.5 15 9.82843 15 9V7Z" stroke="#020203" stroke-width="1.5"/>
<path d="M15 16C15 15.1716 15.6716 14.5 16.5 14.5C17.3284 14.5 18 15.1716 18 16V18C18 18.8284 17.3284 19.5 16.5 19.5C15.6716 19.5 15 18.8284 15 18V16Z" stroke="#020203" stroke-width="1.5"/>
</svg>
