<svg width="24" height="24" viewBox="0 0 24 24" fill="none" xmlns="http://www.w3.org/2000/svg">
<path d="M12 1.25C9.88677 1.25 8.06515 2.49856 7.23261 4.29824C7.39954 4.26663 7.57261 4.25 7.75 4.25C9.13071 4.25 10.25 5.25736 10.25 6.5V7.25H13.75V6.5C13.75 5.25736 14.8693 4.25 16.25 4.25C16.4274 4.25 16.6005 4.26663 16.7674 4.29825C15.9348 2.49857 14.1132 1.25 12 1.25Z" fill="#020203"/>
<path d="M13.75 8.75V9.5C13.75 10.7426 14.8693 11.75 16.25 11.75C16.6056 11.75 16.9438 11.6832 17.25 11.5628V13.4372C16.9438 13.3168 16.6056 13.25 16.25 13.25C14.8693 13.25 13.75 14.2574 13.75 15.5V16.25H10.25V15.5C10.25 14.2574 9.13071 13.25 7.75 13.25C7.39445 13.25 7.05623 13.3168 6.75 13.4372V11.5628C7.05623 11.6832 7.39445 11.75 7.75 11.75C9.13071 11.75 10.25 10.7426 10.25 9.5V8.75H13.75Z" fill="#020203"/>
<path d="M13.75 17.75H10.25V18.5C10.25 19.7051 9.19735 20.6889 7.87446 20.7473C8.83581 21.967 10.3265 22.75 12 22.75C13.6735 22.75 15.1642 21.967 16.1255 20.7473C14.8027 20.6889 13.75 19.7051 13.75 18.5V17.75Z" fill="#020203"/>
<path d="M6 7C6 6.17157 6.67157 5.5 7.5 5.5C8.32843 5.5 9 6.17157 9 7V9C9 9.82843 8.32843 10.5 7.5 10.5C6.67157 10.5 6 9.82843 6 9V7Z" fill="#020203"/>
<path d="M6 16C6 15.1716 6.67157 14.5 7.5 14.5C8.32843 14.5 9 15.1716 9 16V18C9 18.8284 8.32843 19.5 7.5 19.5C6.67157 19.5 6 18.8284 6 18V16Z" fill="#020203"/>
<path d="M15 7C15 6.17157 15.6716 5.5 16.5 5.5C17.3284 5.5 18 6.17157 18 7V9C18 9.82843 17.3284 10.5 16.5 10.5C15.6716 10.5 15 9.82843 15 9V7Z" fill="#020203"/>
<path d="M15 16C15 15.1716 15.6716 14.5 16.5 14.5C17.3284 14.5 18 15.1716 18 16V18C18 18.8284 17.3284 19.5 16.5 19.5C15.6716 19.5 15 18.8284 15 18V16Z" fill="#020203"/>
</svg>
