<svg width="24" height="24" viewBox="0 0 24 24" fill="none" xmlns="http://www.w3.org/2000/svg">
<path d="M14.75 9.55556C14.75 9.39154 14.8175 9.17134 14.9555 9.00271C15.0781 8.85277 15.2478 8.75 15.5 8.75C15.7522 8.75 15.9219 8.85277 16.0445 9.00271C16.1825 9.17134 16.25 9.39154 16.25 9.55556V10.4444C16.25 10.6085 16.1825 10.8287 16.0445 10.9973C15.9219 11.1472 15.7522 11.25 15.5 11.25C15.2478 11.25 15.0781 11.1472 14.9555 10.9973C14.8175 10.8287 14.75 10.6085 14.75 10.4444V9.55556Z" fill="#020203"/>
<path d="M7.95547 9.00271C7.81749 9.17134 7.75 9.39154 7.75 9.55556V10.4444C7.75 10.6085 7.81749 10.8287 7.95547 10.9973C8.07815 11.1472 8.24779 11.25 8.5 11.25C8.75221 11.25 8.92185 11.1472 9.04453 10.9973C9.18251 10.8287 9.25 10.6085 9.25 10.4444L9.25 9.55556C9.25 9.39154 9.18251 9.17134 9.04453 9.00271C8.92185 8.85277 8.75221 8.75 8.5 8.75C8.24779 8.75 8.07815 8.85277 7.95547 9.00271Z" fill="#020203"/>
<path fill-rule="evenodd" clip-rule="evenodd" d="M12 22.75C6.06294 22.75 1.25 17.9371 1.25 12C1.25 6.06294 6.06294 1.25 12 1.25C17.9371 1.25 22.75 6.06294 22.75 12C22.75 17.9371 17.9371 22.75 12 22.75ZM15.5 7.25C14.7522 7.25 14.1719 7.59168 13.7945 8.05285C13.4325 8.49532 13.25 9.0529 13.25 9.55556V10.4444C13.25 10.9471 13.4325 11.5047 13.7945 11.9472C14.1719 12.4083 14.7522 12.75 15.5 12.75C16.2478 12.75 16.8281 12.4083 17.2055 11.9472C17.5675 11.5047 17.75 10.9471 17.75 10.4444V9.55556C17.75 9.0529 17.5675 8.49532 17.2055 8.05285C16.8281 7.59168 16.2478 7.25 15.5 7.25ZM6.79453 8.05285C7.17185 7.59168 7.75221 7.25 8.5 7.25C9.24779 7.25 9.82815 7.59168 10.2055 8.05285C10.5675 8.49532 10.75 9.0529 10.75 9.55556V10.4444C10.75 10.9471 10.5675 11.5047 10.2055 11.9472C9.82815 12.4083 9.24779 12.75 8.5 12.75C7.75221 12.75 7.17185 12.4083 6.79453 11.9472C6.43251 11.5047 6.25 10.9471 6.25 10.4444V9.55556C6.25 9.0529 6.43251 8.49532 6.79453 8.05285ZM16.4939 16.0644C16.8056 15.7917 16.8372 15.3178 16.5644 15.0061C16.2917 14.6944 15.8178 14.6628 15.5061 14.9356C13.4987 16.6921 10.5013 16.6921 8.49388 14.9356C8.18215 14.6628 7.70833 14.6944 7.43557 15.0061C7.16281 15.3178 7.19439 15.7917 7.50612 16.0644C10.0791 18.3158 13.9209 18.3158 16.4939 16.0644Z" fill="#020203"/>
</svg>
