<svg width="24" height="24" viewBox="0 0 24 24" fill="none" xmlns="http://www.w3.org/2000/svg">
<path d="M8 12C8 14.2091 9.79086 16 12 16C14.2091 16 16 14.2091 16 12C16 9.79086 14.2091 8 12 8C9.79086 8 8 9.79086 8 12Z" fill="#020203"/>
<path fill-rule="evenodd" clip-rule="evenodd" d="M15.25 12C15.25 11.5858 15.5858 11.25 16 11.25L22 11.25C22.4142 11.25 22.75 11.5858 22.75 12C22.75 12.4142 22.4142 12.75 22 12.75L16 12.75C15.5858 12.75 15.25 12.4142 15.25 12Z" fill="#020203"/>
<path fill-rule="evenodd" clip-rule="evenodd" d="M1.25 12C1.25 11.5858 1.58579 11.25 2 11.25H8C8.41421 11.25 8.75 11.5858 8.75 12C8.75 12.4142 8.41421 12.75 8 12.75H2C1.58579 12.75 1.25 12.4142 1.25 12Z" fill="#020203"/>
<path fill-rule="evenodd" clip-rule="evenodd" d="M12 1.25C12.4142 1.25 12.75 1.58579 12.75 2L12.75 8C12.75 8.41421 12.4142 8.75 12 8.75C11.5858 8.75 11.25 8.41421 11.25 8L11.25 2C11.25 1.58579 11.5858 1.25 12 1.25Z" fill="#020203"/>
<path fill-rule="evenodd" clip-rule="evenodd" d="M12 15.25C12.4142 15.25 12.75 15.5858 12.75 16L12.75 22C12.75 22.4142 12.4142 22.75 12 22.75C11.5858 22.75 11.25 22.4142 11.25 22L11.25 16C11.25 15.5858 11.5858 15.25 12 15.25Z" fill="#020203"/>
<path fill-rule="evenodd" clip-rule="evenodd" d="M19.5303 4.46967C19.8232 4.76256 19.8232 5.23744 19.5303 5.53033L15.0303 10.0303C14.7374 10.3232 14.2626 10.3232 13.9697 10.0303C13.6768 9.73744 13.6768 9.26256 13.9697 8.96967L18.4697 4.46967C18.7626 4.17678 19.2374 4.17678 19.5303 4.46967Z" fill="#020203"/>
<path fill-rule="evenodd" clip-rule="evenodd" d="M10.0303 13.9697C10.3232 14.2626 10.3232 14.7374 10.0303 15.0303L5.53033 19.5303C5.23744 19.8232 4.76256 19.8232 4.46967 19.5303C4.17678 19.2374 4.17678 18.7626 4.46967 18.4697L8.96967 13.9697C9.26256 13.6768 9.73744 13.6768 10.0303 13.9697Z" fill="#020203"/>
<path fill-rule="evenodd" clip-rule="evenodd" d="M4.46967 4.46967C4.76256 4.17678 5.23744 4.17678 5.53033 4.46967L10.0303 8.96967C10.3232 9.26256 10.3232 9.73744 10.0303 10.0303C9.73744 10.3232 9.26256 10.3232 8.96967 10.0303L4.46967 5.53033C4.17678 5.23744 4.17678 4.76256 4.46967 4.46967Z" fill="#020203"/>
<path opacity="0.4" fill-rule="evenodd" clip-rule="evenodd" d="M7 3.25C7.41421 3.25 7.75 3.58579 7.75 4V7C7.75 7.41421 7.41421 7.75 7 7.75C6.58579 7.75 6.25 7.41421 6.25 7V4C6.25 3.58579 6.58579 3.25 7 3.25Z" fill="#020203"/>
<path opacity="0.4" fill-rule="evenodd" clip-rule="evenodd" d="M3.25 7C3.25 6.58579 3.58579 6.25 4 6.25H7C7.41421 6.25 7.75 6.58579 7.75 7C7.75 7.41421 7.41421 7.75 7 7.75H4C3.58579 7.75 3.25 7.41421 3.25 7Z" fill="#020203"/>
<path fill-rule="evenodd" clip-rule="evenodd" d="M13.9697 13.9697C14.2626 13.6768 14.7374 13.6768 15.0303 13.9697L19.5303 18.4697C19.8232 18.7626 19.8232 19.2374 19.5303 19.5303C19.2374 19.8232 18.7626 19.8232 18.4697 19.5303L13.9697 15.0303C13.6768 14.7374 13.6768 14.2626 13.9697 13.9697Z" fill="#020203"/>
<path opacity="0.4" fill-rule="evenodd" clip-rule="evenodd" d="M9.46967 2.46967C9.76256 2.17678 10.2374 2.17678 10.5303 2.46967L12.5303 4.46967C12.8232 4.76256 12.8232 5.23744 12.5303 5.53033C12.2374 5.82322 11.7626 5.82322 11.4697 5.53033L9.46967 3.53033C9.17678 3.23744 9.17678 2.76256 9.46967 2.46967Z" fill="#020203"/>
<path opacity="0.4" fill-rule="evenodd" clip-rule="evenodd" d="M14.5303 2.46967C14.8232 2.76256 14.8232 3.23744 14.5303 3.53033L12.5303 5.53033C12.2374 5.82322 11.7626 5.82322 11.4697 5.53033C11.1768 5.23744 11.1768 4.76256 11.4697 4.46967L13.4697 2.46967C13.7626 2.17678 14.2374 2.17678 14.5303 2.46967Z" fill="#020203"/>
<path opacity="0.4" fill-rule="evenodd" clip-rule="evenodd" d="M11.4697 18.4697C11.7626 18.1768 12.2374 18.1768 12.5303 18.4697L14.5303 20.4697C14.8232 20.7626 14.8232 21.2374 14.5303 21.5303C14.2374 21.8232 13.7626 21.8232 13.4697 21.5303L11.4697 19.5303C11.1768 19.2374 11.1768 18.7626 11.4697 18.4697Z" fill="#020203"/>
<path opacity="0.4" fill-rule="evenodd" clip-rule="evenodd" d="M12.5303 18.4697C12.8232 18.7626 12.8232 19.2374 12.5303 19.5303L10.5303 21.5303C10.2374 21.8232 9.76256 21.8232 9.46967 21.5303C9.17678 21.2374 9.17678 20.7626 9.46967 20.4697L11.4697 18.4697C11.7626 18.1768 12.2374 18.1768 12.5303 18.4697Z" fill="#020203"/>
<path opacity="0.4" fill-rule="evenodd" clip-rule="evenodd" d="M5.53033 11.4697C5.82322 11.7626 5.82322 12.2374 5.53033 12.5303L3.53033 14.5303C3.23744 14.8232 2.76256 14.8232 2.46967 14.5303C2.17678 14.2374 2.17678 13.7626 2.46967 13.4697L4.46967 11.4697C4.76256 11.1768 5.23744 11.1768 5.53033 11.4697Z" fill="#020203"/>
<path opacity="0.4" fill-rule="evenodd" clip-rule="evenodd" d="M2.46967 9.46967C2.76256 9.17678 3.23744 9.17678 3.53033 9.46967L5.53033 11.4697C5.82322 11.7626 5.82322 12.2374 5.53033 12.5303C5.23744 12.8232 4.76256 12.8232 4.46967 12.5303L2.46967 10.5303C2.17678 10.2374 2.17678 9.76256 2.46967 9.46967Z" fill="#020203"/>
<path opacity="0.4" fill-rule="evenodd" clip-rule="evenodd" d="M21.5303 9.46967C21.8232 9.76256 21.8232 10.2374 21.5303 10.5303L19.5303 12.5303C19.2374 12.8232 18.7626 12.8232 18.4697 12.5303C18.1768 12.2374 18.1768 11.7626 18.4697 11.4697L20.4697 9.46967C20.7626 9.17678 21.2374 9.17678 21.5303 9.46967Z" fill="#020203"/>
<path opacity="0.4" fill-rule="evenodd" clip-rule="evenodd" d="M18.4697 11.4697C18.7626 11.1768 19.2374 11.1768 19.5303 11.4697L21.5303 13.4697C21.8232 13.7626 21.8232 14.2374 21.5303 14.5303C21.2374 14.8232 20.7626 14.8232 20.4697 14.5303L18.4697 12.5303C18.1768 12.2374 18.1768 11.7626 18.4697 11.4697Z" fill="#020203"/>
<path opacity="0.4" fill-rule="evenodd" clip-rule="evenodd" d="M17 3.25C17.4142 3.25 17.75 3.58579 17.75 4V7C17.75 7.41421 17.4142 7.75 17 7.75C16.5858 7.75 16.25 7.41421 16.25 7V4C16.25 3.58579 16.5858 3.25 17 3.25Z" fill="#020203"/>
<path opacity="0.4" fill-rule="evenodd" clip-rule="evenodd" d="M16.25 7C16.25 6.58579 16.5858 6.25 17 6.25H20C20.4142 6.25 20.75 6.58579 20.75 7C20.75 7.41421 20.4142 7.75 20 7.75H17C16.5858 7.75 16.25 7.41421 16.25 7Z" fill="#020203"/>
<path opacity="0.4" fill-rule="evenodd" clip-rule="evenodd" d="M3.25 17C3.25 16.5858 3.58579 16.25 4 16.25H7C7.41421 16.25 7.75 16.5858 7.75 17C7.75 17.4142 7.41421 17.75 7 17.75H4C3.58579 17.75 3.25 17.4142 3.25 17Z" fill="#020203"/>
<path opacity="0.4" fill-rule="evenodd" clip-rule="evenodd" d="M7 16.25C7.41421 16.25 7.75 16.5858 7.75 17V20C7.75 20.4142 7.41421 20.75 7 20.75C6.58579 20.75 6.25 20.4142 6.25 20V17C6.25 16.5858 6.58579 16.25 7 16.25Z" fill="#020203"/>
<path opacity="0.4" fill-rule="evenodd" clip-rule="evenodd" d="M17 16.25C17.4142 16.25 17.75 16.5858 17.75 17V20C17.75 20.4142 17.4142 20.75 17 20.75C16.5858 20.75 16.25 20.4142 16.25 20V17C16.25 16.5858 16.5858 16.25 17 16.25Z" fill="#020203"/>
<path opacity="0.4" fill-rule="evenodd" clip-rule="evenodd" d="M16.25 17C16.25 16.5858 16.5858 16.25 17 16.25H20C20.4142 16.25 20.75 16.5858 20.75 17C20.75 17.4142 20.4142 17.75 20 17.75H17C16.5858 17.75 16.25 17.4142 16.25 17Z" fill="#020203"/>
</svg>
