<svg width="24" height="24" viewBox="0 0 24 24" fill="none" xmlns="http://www.w3.org/2000/svg">
<path d="M7 18H6.19549C3.87839 18 2 16.1216 2 13.8045V13.4462C2 10.367 5.34024 8.44847 8 10M6.5 9V8.5C6.5 5.46243 8.96243 3 12 3C15.0376 3 17.5 5.46243 17.5 8.5V9M17 18H17.8045C20.1216 18 22 16.1216 22 13.8045V13.4462C22 10.367 18.6598 8.44847 16 10" stroke="#020203" stroke-width="1.5" stroke-linecap="round"/>
<path d="M11 18L11 21" stroke="#020203" stroke-width="1.5" stroke-linecap="round"/>
<path d="M14.3595 13L14.3595 16" stroke="#020203" stroke-width="1.5" stroke-linecap="round"/>
<path d="M12.3595 18.8662L9.64057 20.1341" stroke="#020203" stroke-width="1.5" stroke-linecap="round"/>
<path d="M15.7189 13.8662L13 15.1341" stroke="#020203" stroke-width="1.5" stroke-linecap="round"/>
<path d="M9.6405 18.8662L12.3594 20.1341" stroke="#020203" stroke-width="1.5" stroke-linecap="round"/>
<path d="M13 13.8662L15.7189 15.1341" stroke="#020203" stroke-width="1.5" stroke-linecap="round"/>
</svg>
