<svg width="24" height="24" viewBox="0 0 24 24" fill="none" xmlns="http://www.w3.org/2000/svg">
<path opacity="0.4" d="M1.5 13.6426V14.0248C1.5 16.4964 3.47231 18.5 5.90527 18.5H7.67413C7.70443 18.3384 7.7553 18.1779 7.82801 18.022C8.12096 17.3937 8.69869 16.9892 9.33582 16.8903C9.69447 16.3535 10.3059 16 11 16C11.068 16 11.1351 16.0034 11.2014 16.01L11.1872 15.9803C10.9001 15.3646 10.9534 14.6775 11.2698 14.1311C11.2192 13.8011 11.2623 13.4529 11.414 13.1276C11.6394 12.6441 12.0577 12.312 12.5346 12.1802C12.8477 11.4844 13.5469 11 14.3594 11C15.0534 11 15.6649 11.3535 16.0236 11.8903C16.6607 11.9892 17.2384 12.3937 17.5314 13.022C17.8184 13.6374 17.7652 14.3243 17.449 14.8706C17.4998 15.2008 17.4567 15.5491 17.305 15.8746C17.0793 16.3586 16.6604 16.6909 16.183 16.8224C15.8694 17.5168 15.1708 18 14.3594 18C14.291 18 14.2233 17.9966 14.1567 17.9899C14.1619 18.0005 14.167 18.0112 14.172 18.022C14.2447 18.1779 14.2956 18.3384 14.3259 18.5H18.0947C20.5277 18.5 22.5 16.4964 22.5 14.0248V13.6426C22.5 10.9577 20.1562 9.10001 17.775 9.41541V8.36667C17.775 5.1266 15.1894 2.5 12 2.5C8.81056 2.5 6.225 5.1266 6.225 8.36667V9.41541C3.84376 9.10001 1.5 10.9577 1.5 13.6426Z" fill="#020203"/>
<path fill-rule="evenodd" clip-rule="evenodd" d="M11 17.25C11.4142 17.25 11.75 17.5858 11.75 18L11.75 21C11.75 21.4142 11.4142 21.75 11 21.75C10.5858 21.75 10.25 21.4142 10.25 21L10.25 18C10.25 17.5858 10.5858 17.25 11 17.25Z" fill="#020203"/>
<path fill-rule="evenodd" clip-rule="evenodd" d="M14.3594 12.25C14.7736 12.25 15.1094 12.5858 15.1094 13L15.1094 16C15.1094 16.4142 14.7736 16.75 14.3594 16.75C13.9452 16.75 13.6094 16.4142 13.6094 16L13.6094 13C13.6094 12.5858 13.9452 12.25 14.3594 12.25Z" fill="#020203"/>
<path fill-rule="evenodd" clip-rule="evenodd" d="M13.0391 18.5502C13.2142 18.9256 13.0518 19.3719 12.6764 19.5469L9.95744 20.8148C9.58204 20.9898 9.1358 20.8274 8.96075 20.452C8.78569 20.0766 8.94811 19.6304 9.32351 19.4553L12.0424 18.1875C12.4178 18.0124 12.8641 18.1748 13.0391 18.5502Z" fill="#020203"/>
<path fill-rule="evenodd" clip-rule="evenodd" d="M16.3985 13.5502C16.5736 13.9256 16.4111 14.3719 16.0357 14.5469L13.3168 15.8148C12.9414 15.9898 12.4952 15.8274 12.3201 15.452C12.1451 15.0766 12.3075 14.6304 12.6829 14.4553L15.4018 13.1875C15.7772 13.0124 16.2235 13.1748 16.3985 13.5502Z" fill="#020203"/>
<path fill-rule="evenodd" clip-rule="evenodd" d="M8.96088 18.5502C9.13594 18.1748 9.58217 18.0124 9.95758 18.1875L12.6765 19.4553C13.0519 19.6304 13.2143 20.0766 13.0393 20.452C12.8642 20.8274 12.418 20.9898 12.0426 20.8148L9.32365 19.5469C8.94825 19.3719 8.78583 18.9256 8.96088 18.5502Z" fill="#020203"/>
<path fill-rule="evenodd" clip-rule="evenodd" d="M12.3203 13.5502C12.4953 13.1748 12.9415 13.0124 13.317 13.1875L16.0359 14.4553C16.4113 14.6304 16.5737 15.0766 16.3986 15.452C16.2236 15.8274 15.7774 15.9898 15.4019 15.8148L12.683 14.5469C12.3076 14.3719 12.1452 13.9256 12.3203 13.5502Z" fill="#020203"/>
</svg>
