<svg width="24" height="24" viewBox="0 0 24 24" fill="none" xmlns="http://www.w3.org/2000/svg">
<path d="M8 12C8 14.2091 9.79086 16 12 16C14.2091 16 16 14.2091 16 12C16 9.79086 14.2091 8 12 8C9.79086 8 8 9.79086 8 12Z" stroke="#020203" stroke-width="1.5" stroke-linecap="round"/>
<path d="M16 12L22 12" stroke="#020203" stroke-width="1.5" stroke-linecap="round"/>
<path d="M2 12H8" stroke="#020203" stroke-width="1.5" stroke-linecap="round"/>
<path d="M12 2L12 8" stroke="#020203" stroke-width="1.5" stroke-linecap="round"/>
<path d="M12 16L12 22" stroke="#020203" stroke-width="1.5" stroke-linecap="round"/>
<path d="M19 5L15 9" stroke="#020203" stroke-width="1.5" stroke-linecap="round"/>
<path d="M9 15L5 19" stroke="#020203" stroke-width="1.5" stroke-linecap="round"/>
<path d="M5 5L9 9" stroke="#020203" stroke-width="1.5" stroke-linecap="round"/>
<path d="M7 7V4" stroke="#020203" stroke-width="1.5" stroke-linecap="round"/>
<path d="M7 7H4" stroke="#020203" stroke-width="1.5" stroke-linecap="round"/>
<path d="M15 15L19 19" stroke="#020203" stroke-width="1.5" stroke-linecap="round"/>
<path d="M12 5L10 3" stroke="#020203" stroke-width="1.5" stroke-linecap="round"/>
<path d="M12 5L14 3" stroke="#020203" stroke-width="1.5" stroke-linecap="round"/>
<path d="M12 19L14 21" stroke="#020203" stroke-width="1.5" stroke-linecap="round"/>
<path d="M12 19L10 21" stroke="#020203" stroke-width="1.5" stroke-linecap="round"/>
<path d="M5 12L3 14" stroke="#020203" stroke-width="1.5" stroke-linecap="round"/>
<path d="M5 12L3 10" stroke="#020203" stroke-width="1.5" stroke-linecap="round"/>
<path d="M19 12L21 10" stroke="#020203" stroke-width="1.5" stroke-linecap="round"/>
<path d="M19 12L21 14" stroke="#020203" stroke-width="1.5" stroke-linecap="round"/>
<path d="M17 7V4" stroke="#020203" stroke-width="1.5" stroke-linecap="round"/>
<path d="M17 7H20" stroke="#020203" stroke-width="1.5" stroke-linecap="round"/>
<path d="M7 17H4" stroke="#020203" stroke-width="1.5" stroke-linecap="round"/>
<path d="M7 17V20" stroke="#020203" stroke-width="1.5" stroke-linecap="round"/>
<path d="M17 17V20" stroke="#020203" stroke-width="1.5" stroke-linecap="round"/>
<path d="M17 17H20" stroke="#020203" stroke-width="1.5" stroke-linecap="round"/>
</svg>
