<svg width="24" height="24" viewBox="0 0 24 24" fill="none" xmlns="http://www.w3.org/2000/svg">
<path d="M19.5 19.5L19.5 21.5" stroke="#020203" stroke-width="1.5" stroke-linecap="round"/>
<path d="M4.5 19.5L4.5 21.5" stroke="#020203" stroke-width="1.5" stroke-linecap="round"/>
<path d="M2 15C2 13.6193 3.11929 12.5 4.5 12.5C5.88071 12.5 7 13.6193 7 15V17C7 18.3807 5.88071 19.5 4.5 19.5C3.11929 19.5 2 18.3807 2 17V15Z" stroke="#020203" stroke-width="1.5"/>
<path d="M17 15C17 13.6193 18.1193 12.5 19.5 12.5C20.8807 12.5 22 13.6193 22 15V17C22 18.3807 20.8807 19.5 19.5 19.5C18.1193 19.5 17 18.3807 17 17V15Z" stroke="#020203" stroke-width="1.5"/>
<path d="M20 12.5V10.5C20 8.64006 20 7.71008 19.7956 6.94709C19.2408 4.87653 17.6235 3.25925 15.5529 2.70445C14.7899 2.5 13.8599 2.5 12 2.5C10.1401 2.5 9.21008 2.5 8.44709 2.70445C6.37653 3.25925 4.75925 4.87653 4.20445 6.94709C4 7.71008 4 8.64006 4 10.5V12.5" stroke="#020203" stroke-width="1.5" stroke-linecap="round"/>
<path d="M9.99451 6.5H10.0035" stroke="#020203" stroke-width="2" stroke-linecap="round" stroke-linejoin="round"/>
<path d="M9.99451 10.5H10.0035" stroke="#020203" stroke-width="2" stroke-linecap="round" stroke-linejoin="round"/>
<path d="M13.9926 6.5H14.0015" stroke="#020203" stroke-width="2" stroke-linecap="round" stroke-linejoin="round"/>
<path d="M13.9926 10.5H14.0015" stroke="#020203" stroke-width="2" stroke-linecap="round" stroke-linejoin="round"/>
<path d="M7 14.5H17" stroke="#020203" stroke-width="1.5" stroke-linecap="round"/>
<path d="M4 19.5L20 19.5" stroke="#020203" stroke-width="1.5" stroke-linecap="round"/>
</svg>
