<svg width="24" height="24" viewBox="0 0 24 24" fill="none" xmlns="http://www.w3.org/2000/svg">
<path opacity="0.4" fill-rule="evenodd" clip-rule="evenodd" d="M19.5 17.75C19.9142 17.75 20.25 18.0858 20.25 18.5L20.25 21.5C20.25 21.9142 19.9142 22.25 19.5 22.25C19.0858 22.25 18.75 21.9142 18.75 21.5L18.75 18.5C18.75 18.0858 19.0858 17.75 19.5 17.75Z" fill="#020203"/>
<path opacity="0.4" fill-rule="evenodd" clip-rule="evenodd" d="M4.5 17.75C4.91421 17.75 5.25 18.0858 5.25 18.5L5.25 21.5C5.25 21.9142 4.91421 22.25 4.5 22.25C4.08579 22.25 3.75 21.9142 3.75 21.5L3.75 18.5C3.75 18.0858 4.08579 17.75 4.5 17.75Z" fill="#020203"/>
<path opacity="0.4" d="M19.5 10.25C19.9337 10.25 20.3531 10.3114 20.75 10.4259C20.75 8.61585 20.7476 7.70077 20.5681 6.94334C19.9794 4.45974 18.0403 2.52057 15.5567 1.93195C14.789 1.75 13.8593 1.75 12 1.75C10.1407 1.75 9.21104 1.75 8.44334 1.93195C5.95974 2.52057 4.02057 4.45974 3.43195 6.94334C3.25243 7.70077 3.25003 8.61585 3.25 10.4259C3.64686 10.3114 4.06627 10.25 4.5 10.25C6.64159 10.25 8.43376 11.746 8.88849 13.75H15.1115C15.5662 11.746 17.3584 10.25 19.5 10.25Z" fill="#020203"/>
<path fill-rule="evenodd" clip-rule="evenodd" d="M8.99451 6.5C8.99451 5.94772 9.44222 5.5 9.99451 5.5H10.0035C10.5558 5.5 11.0035 5.94772 11.0035 6.5C11.0035 7.05228 10.5558 7.5 10.0035 7.5H9.99451C9.44222 7.5 8.99451 7.05228 8.99451 6.5Z" fill="#020203"/>
<path fill-rule="evenodd" clip-rule="evenodd" d="M8.99451 10.5C8.99451 9.94772 9.44222 9.5 9.99451 9.5H10.0035C10.5558 9.5 11.0035 9.94772 11.0035 10.5C11.0035 11.0523 10.5558 11.5 10.0035 11.5H9.99451C9.44222 11.5 8.99451 11.0523 8.99451 10.5Z" fill="#020203"/>
<path fill-rule="evenodd" clip-rule="evenodd" d="M12.9926 6.5C12.9926 5.94772 13.4403 5.5 13.9926 5.5H14.0015C14.5538 5.5 15.0015 5.94772 15.0015 6.5C15.0015 7.05228 14.5538 7.5 14.0015 7.5H13.9926C13.4403 7.5 12.9926 7.05228 12.9926 6.5Z" fill="#020203"/>
<path fill-rule="evenodd" clip-rule="evenodd" d="M12.9926 10.5C12.9926 9.94772 13.4403 9.5 13.9926 9.5H14.0015C14.5538 9.5 15.0015 9.94772 15.0015 10.5C15.0015 11.0523 14.5538 11.5 14.0015 11.5H13.9926C13.4403 11.5 12.9926 11.0523 12.9926 10.5Z" fill="#020203"/>
<path d="M15 15.25H8.99997V17.25C8.99997 18.4025 8.56669 19.4539 7.85413 20.25H16.1458C15.4332 19.4539 15 18.4025 15 17.25V15.25Z" fill="#020203"/>
<path d="M1.25 15C1.25 13.2051 2.70507 11.75 4.5 11.75C6.29493 11.75 7.75 13.2051 7.75 15V17C7.75 18.7949 6.29493 20.25 4.5 20.25C2.70507 20.25 1.25 18.7949 1.25 17V15Z" fill="#020203"/>
<path d="M16.25 15C16.25 13.2051 17.7051 11.75 19.5 11.75C21.2949 11.75 22.75 13.2051 22.75 15V17C22.75 18.7949 21.2949 20.25 19.5 20.25C17.7051 20.25 16.25 18.7949 16.25 17V15Z" fill="#020203"/>
</svg>
