<svg width="24" height="24" viewBox="0 0 24 24" fill="none" xmlns="http://www.w3.org/2000/svg">
<path fill-rule="evenodd" clip-rule="evenodd" d="M11.25 3C11.25 2.58579 11.5858 2.25 12 2.25H22C22.4142 2.25 22.75 2.58579 22.75 3C22.75 3.41421 22.4142 3.75 22 3.75H12C11.5858 3.75 11.25 3.41421 11.25 3Z" fill="#020203"/>
<path fill-rule="evenodd" clip-rule="evenodd" d="M11.25 15C11.25 14.5858 11.5858 14.25 12 14.25H22C22.4142 14.25 22.75 14.5858 22.75 15C22.75 15.4142 22.4142 15.75 22 15.75H12C11.5858 15.75 11.25 15.4142 11.25 15Z" fill="#020203"/>
<path fill-rule="evenodd" clip-rule="evenodd" d="M11.25 9C11.25 8.58579 11.5858 8.25 12 8.25H22C22.4142 8.25 22.75 8.58579 22.75 9C22.75 9.41421 22.4142 9.75 22 9.75H12C11.5858 9.75 11.25 9.41421 11.25 9Z" fill="#020203"/>
<path fill-rule="evenodd" clip-rule="evenodd" d="M11.25 21C11.25 20.5858 11.5858 20.25 12 20.25H22C22.4142 20.25 22.75 20.5858 22.75 21C22.75 21.4142 22.4142 21.75 22 21.75H12C11.5858 21.75 11.25 21.4142 11.25 21Z" fill="#020203"/>
<path fill-rule="evenodd" clip-rule="evenodd" d="M1.46967 18.0898C1.76256 17.7969 2.23744 17.7969 2.53033 18.0898L4.46967 20.0291C4.76256 20.322 5.23744 20.322 5.53033 20.0291L7.46967 18.0898C7.76256 17.7969 8.23744 17.7969 8.53033 18.0898C8.82322 18.3827 8.82322 18.8576 8.53033 19.1504L6.59099 21.0898C5.71231 21.9685 4.28769 21.9685 3.40901 21.0898L1.46967 19.1504C1.17678 18.8576 1.17678 18.3827 1.46967 18.0898Z" fill="#020203"/>
<path fill-rule="evenodd" clip-rule="evenodd" d="M5 2.25C5.41421 2.25 5.75 2.58579 5.75 3V20C5.75 20.4142 5.41421 20.75 5 20.75C4.58579 20.75 4.25 20.4142 4.25 20V3C4.25 2.58579 4.58579 2.25 5 2.25Z" fill="#020203"/>
</svg>
