<svg width="24" height="24" viewBox="0 0 24 24" fill="none" xmlns="http://www.w3.org/2000/svg">
<path fill-rule="evenodd" clip-rule="evenodd" d="M4.25 7C4.25 6.58579 4.58579 6.25 5 6.25L19 6.25C19.4142 6.25 19.75 6.58579 19.75 7C19.75 7.41421 19.4142 7.75 19 7.75L5 7.75C4.58579 7.75 4.25 7.41421 4.25 7Z" fill="#020203"/>
<path fill-rule="evenodd" clip-rule="evenodd" d="M7.25 12C7.25 11.5858 7.58579 11.25 8 11.25H16C16.4142 11.25 16.75 11.5858 16.75 12C16.75 12.4142 16.4142 12.75 16 12.75H8C7.58579 12.75 7.25 12.4142 7.25 12Z" fill="#020203"/>
<path fill-rule="evenodd" clip-rule="evenodd" d="M10.25 17C10.25 16.5858 10.5858 16.25 11 16.25H13C13.4142 16.25 13.75 16.5858 13.75 17C13.75 17.4142 13.4142 17.75 13 17.75H11C10.5858 17.75 10.25 17.4142 10.25 17Z" fill="#020203"/>
</svg>
