<svg width="24" height="24" viewBox="0 0 24 24" fill="none" xmlns="http://www.w3.org/2000/svg">
<path fill-rule="evenodd" clip-rule="evenodd" d="M11.25 3C11.25 2.58579 11.5858 2.25 12 2.25H22C22.4142 2.25 22.75 2.58579 22.75 3C22.75 3.41421 22.4142 3.75 22 3.75H12C11.5858 3.75 11.25 3.41421 11.25 3Z" fill="#020203"/>
<path fill-rule="evenodd" clip-rule="evenodd" d="M11.25 15C11.25 14.5858 11.5858 14.25 12 14.25H22C22.4142 14.25 22.75 14.5858 22.75 15C22.75 15.4142 22.4142 15.75 22 15.75H12C11.5858 15.75 11.25 15.4142 11.25 15Z" fill="#020203"/>
<path fill-rule="evenodd" clip-rule="evenodd" d="M11.25 9C11.25 8.58579 11.5858 8.25 12 8.25H22C22.4142 8.25 22.75 8.58579 22.75 9C22.75 9.41421 22.4142 9.75 22 9.75H12C11.5858 9.75 11.25 9.41421 11.25 9Z" fill="#020203"/>
<path fill-rule="evenodd" clip-rule="evenodd" d="M11.25 21C11.25 20.5858 11.5858 20.25 12 20.25H22C22.4142 20.25 22.75 20.5858 22.75 21C22.75 21.4142 22.4142 21.75 22 21.75H12C11.5858 21.75 11.25 21.4142 11.25 21Z" fill="#020203"/>
<path fill-rule="evenodd" clip-rule="evenodd" d="M5.53033 3.96967C5.23744 3.67678 4.76256 3.67678 4.46967 3.96967L2.53033 5.90901C2.23744 6.2019 1.76256 6.2019 1.46967 5.90901C1.17678 5.61612 1.17678 5.14124 1.46967 4.84835L3.40901 2.90901C4.28769 2.03033 5.71231 2.03033 6.59099 2.90901L8.53033 4.84835C8.82322 5.14124 8.82322 5.61612 8.53033 5.90901C8.23744 6.2019 7.76256 6.2019 7.46967 5.90901L5.53033 3.96967Z" fill="#020203"/>
<path fill-rule="evenodd" clip-rule="evenodd" d="M5 3.25C5.41421 3.25 5.75 3.58579 5.75 4V21C5.75 21.4142 5.41421 21.75 5 21.75C4.58579 21.75 4.25 21.4142 4.25 21V4C4.25 3.58579 4.58579 3.25 5 3.25Z" fill="#020203"/>
</svg>
