<svg width="24" height="24" viewBox="0 0 24 24" fill="none" xmlns="http://www.w3.org/2000/svg">
<path fill-rule="evenodd" clip-rule="evenodd" d="M1.25 2C1.25 1.58579 1.58579 1.25 2 1.25H22C22.4142 1.25 22.75 1.58579 22.75 2C22.75 2.41421 22.4142 2.75 22 2.75H2C1.58579 2.75 1.25 2.41421 1.25 2Z" fill="#020203"/>
<path d="M2 12C2 10.6036 2 9.90533 2.19641 9.34402C2.5482 8.33866 3.33866 7.5482 4.34402 7.19641C4.90533 7 5.60355 7 7 7C8.39645 7 9.09467 7 9.65598 7.19641C10.6613 7.5482 11.4518 8.33866 11.8036 9.34402C12 9.90533 12 10.6036 12 12C12 13.3964 12 14.0947 11.8036 14.656C11.4518 15.6613 10.6613 16.4518 9.65598 16.8036C9.09467 17 8.39645 17 7 17C5.60355 17 4.90533 17 4.34402 16.8036C3.33866 16.4518 2.5482 15.6613 2.19641 14.656C2 14.0947 2 13.3964 2 12Z" fill="#020203"/>
<path fill-rule="evenodd" clip-rule="evenodd" d="M15.25 12C15.25 11.5858 15.5858 11.25 16 11.25H22C22.4142 11.25 22.75 11.5858 22.75 12C22.75 12.4142 22.4142 12.75 22 12.75H16C15.5858 12.75 15.25 12.4142 15.25 12Z" fill="#020203"/>
<path fill-rule="evenodd" clip-rule="evenodd" d="M15.25 17C15.25 16.5858 15.5858 16.25 16 16.25H22C22.4142 16.25 22.75 16.5858 22.75 17C22.75 17.4142 22.4142 17.75 22 17.75H16C15.5858 17.75 15.25 17.4142 15.25 17Z" fill="#020203"/>
<path fill-rule="evenodd" clip-rule="evenodd" d="M15.25 7C15.25 6.58579 15.5858 6.25 16 6.25H22C22.4142 6.25 22.75 6.58579 22.75 7C22.75 7.41421 22.4142 7.75 22 7.75H16C15.5858 7.75 15.25 7.41421 15.25 7Z" fill="#020203"/>
<path fill-rule="evenodd" clip-rule="evenodd" d="M1.25 22C1.25 21.5858 1.58579 21.25 2 21.25H22C22.4142 21.25 22.75 21.5858 22.75 22C22.75 22.4142 22.4142 22.75 22 22.75H2C1.58579 22.75 1.25 22.4142 1.25 22Z" fill="#020203"/>
</svg>
