<svg width="24" height="24" viewBox="0 0 24 24" fill="none" xmlns="http://www.w3.org/2000/svg">
<path fill-rule="evenodd" clip-rule="evenodd" d="M1.25 2C1.25 1.58579 1.58579 1.25 2 1.25H22C22.4142 1.25 22.75 1.58579 22.75 2C22.75 2.41421 22.4142 2.75 22 2.75H2C1.58579 2.75 1.25 2.41421 1.25 2Z" fill="#020203"/>
<path d="M12 12C12 10.6036 12 9.90533 12.1964 9.34402C12.5482 8.33866 13.3387 7.5482 14.344 7.19641C14.9053 7 15.6036 7 17 7C18.3964 7 19.0947 7 19.656 7.19641C20.6613 7.5482 21.4518 8.33866 21.8036 9.34402C22 9.90533 22 10.6036 22 12C22 13.3964 22 14.0947 21.8036 14.656C21.4518 15.6613 20.6613 16.4518 19.656 16.8036C19.0947 17 18.3964 17 17 17C15.6036 17 14.9053 17 14.344 16.8036C13.3387 16.4518 12.5482 15.6613 12.1964 14.656C12 14.0947 12 13.3964 12 12Z" fill="#020203"/>
<path fill-rule="evenodd" clip-rule="evenodd" d="M1.25 12C1.25 11.5858 1.58579 11.25 2 11.25H8C8.41421 11.25 8.75 11.5858 8.75 12C8.75 12.4142 8.41421 12.75 8 12.75H2C1.58579 12.75 1.25 12.4142 1.25 12Z" fill="#020203"/>
<path fill-rule="evenodd" clip-rule="evenodd" d="M1.25 17C1.25 16.5858 1.58579 16.25 2 16.25H8C8.41421 16.25 8.75 16.5858 8.75 17C8.75 17.4142 8.41421 17.75 8 17.75H2C1.58579 17.75 1.25 17.4142 1.25 17Z" fill="#020203"/>
<path fill-rule="evenodd" clip-rule="evenodd" d="M1.25 7C1.25 6.58579 1.58579 6.25 2 6.25H8C8.41421 6.25 8.75 6.58579 8.75 7C8.75 7.41421 8.41421 7.75 8 7.75H2C1.58579 7.75 1.25 7.41421 1.25 7Z" fill="#020203"/>
<path fill-rule="evenodd" clip-rule="evenodd" d="M1.25 22C1.25 21.5858 1.58579 21.25 2 21.25H22C22.4142 21.25 22.75 21.5858 22.75 22C22.75 22.4142 22.4142 22.75 22 22.75H2C1.58579 22.75 1.25 22.4142 1.25 22Z" fill="#020203"/>
</svg>
