<svg width="24" height="24" viewBox="0 0 24 24" fill="none" xmlns="http://www.w3.org/2000/svg">
<path fill-rule="evenodd" clip-rule="evenodd" d="M1.25 2C1.25 1.58579 1.58579 1.25 2 1.25H22C22.4142 1.25 22.75 1.58579 22.75 2C22.75 2.41421 22.4142 2.75 22 2.75H2C1.58579 2.75 1.25 2.41421 1.25 2Z" fill="#020203"/>
<path fill-rule="evenodd" clip-rule="evenodd" d="M15.25 12C15.25 11.5858 15.5858 11.25 16 11.25H22C22.4142 11.25 22.75 11.5858 22.75 12C22.75 12.4142 22.4142 12.75 22 12.75H16C15.5858 12.75 15.25 12.4142 15.25 12Z" fill="#020203"/>
<path opacity="0.4" fill-rule="evenodd" clip-rule="evenodd" d="M15.25 17C15.25 16.5858 15.5858 16.25 16 16.25H22C22.4142 16.25 22.75 16.5858 22.75 17C22.75 17.4142 22.4142 17.75 22 17.75H16C15.5858 17.75 15.25 17.4142 15.25 17Z" fill="#020203"/>
<path opacity="0.4" fill-rule="evenodd" clip-rule="evenodd" d="M15.25 7C15.25 6.58579 15.5858 6.25 16 6.25H22C22.4142 6.25 22.75 6.58579 22.75 7C22.75 7.41421 22.4142 7.75 22 7.75H16C15.5858 7.75 15.25 7.41421 15.25 7Z" fill="#020203"/>
<path fill-rule="evenodd" clip-rule="evenodd" d="M1.25 22C1.25 21.5858 1.58579 21.25 2 21.25H22C22.4142 21.25 22.75 21.5858 22.75 22C22.75 22.4142 22.4142 22.75 22 22.75H2C1.58579 22.75 1.25 22.4142 1.25 22Z" fill="#020203"/>
<path fill-rule="evenodd" clip-rule="evenodd" d="M7 6.25C7.41421 6.25 7.75 6.58579 7.75 7V17C7.75 17.4142 7.41421 17.75 7 17.75C6.58579 17.75 6.25 17.4142 6.25 17V7C6.25 6.58579 6.58579 6.25 7 6.25Z" fill="#020203"/>
<path fill-rule="evenodd" clip-rule="evenodd" d="M5 7.75C3.75736 7.75 2.75 8.75736 2.75 10C2.75 10.4142 2.41421 10.75 2 10.75C1.58579 10.75 1.25 10.4142 1.25 10C1.25 7.92893 2.92893 6.25 5 6.25H9C11.0711 6.25 12.75 7.92893 12.75 10C12.75 10.4142 12.4142 10.75 12 10.75C11.5858 10.75 11.25 10.4142 11.25 10C11.25 8.75736 10.2426 7.75 9 7.75H5Z" fill="#020203"/>
</svg>
