<svg width="24" height="24" viewBox="0 0 24 24" fill="none" xmlns="http://www.w3.org/2000/svg">
<path d="M8.67294 5.1187C9.6055 3.24952 10.0718 2.31493 10.6549 1.94273C11.4752 1.41909 12.5248 1.41909 13.3451 1.94273C13.9282 2.31493 14.3945 3.24952 15.3271 5.1187L15.3761 5.217C15.6164 5.69876 15.7366 5.93964 15.8936 6.13963C16.2003 6.53038 16.6165 6.82091 17.089 6.97414C17.3308 7.05257 17.5984 7.08236 18.1334 7.14194C19.9922 7.34892 20.9216 7.45241 21.417 7.77322C22.4019 8.41093 22.8108 9.64775 22.4001 10.7468C22.1935 11.2998 21.5089 11.9368 20.1398 13.2109L19.9811 13.3586C19.5589 13.7514 19.3478 13.9479 19.1955 14.1662C18.8417 14.6734 18.6884 15.2938 18.7652 15.9074C18.7983 16.1715 18.8936 16.4437 19.0842 16.988C19.7041 18.7586 20.014 19.6439 19.9602 20.1932C19.8318 21.5019 18.7116 22.4874 17.3972 22.448C16.8455 22.4315 16.0069 22.0112 14.3298 21.1708L13.6652 20.8378C13.1325 20.5709 12.8662 20.4375 12.5904 20.3704C12.2024 20.2761 11.7976 20.2761 11.4096 20.3704C11.1338 20.4375 10.8675 20.5709 10.3348 20.8378L9.67023 21.1708C7.99304 22.0113 7.15445 22.4315 6.60279 22.448C5.28843 22.4874 4.16821 21.5019 4.03984 20.1932C3.98596 19.6439 4.29591 18.7586 4.91582 16.988C5.10639 16.4437 5.20168 16.1715 5.23476 15.9074C5.31163 15.2938 5.15832 14.6734 4.80446 14.1662C4.65214 13.9479 4.44105 13.7514 4.01886 13.3586L3.86018 13.2109C2.49106 11.9368 1.8065 11.2997 1.59989 10.7468C1.18918 9.64775 1.59807 8.41093 2.58295 7.77323C3.07841 7.45241 4.00779 7.34892 5.86654 7.14194C6.40163 7.08236 6.66917 7.05257 6.911 6.97414C7.38353 6.82091 7.79969 6.53038 8.10639 6.13963C8.26336 5.93964 8.38354 5.69876 8.6239 5.217L8.67294 5.1187Z" fill="#020203"/>
</svg>
