<svg width="24" height="24" viewBox="0 0 24 24" fill="none" xmlns="http://www.w3.org/2000/svg">
<path d="M8.85535 5.49907C9.63159 3.9466 10.0197 3.17036 10.4725 2.82088C11.3724 2.12638 12.6275 2.12638 13.5274 2.82089C13.9802 3.17036 14.3684 3.9466 15.1446 5.49907L15.1921 5.59418C15.3863 5.98243 15.4833 6.17655 15.6035 6.34239C15.934 6.79842 16.4088 7.12949 16.951 7.28196C17.1482 7.33741 17.3639 7.36138 17.7953 7.40931C19.2958 7.57604 20.046 7.6594 20.4651 7.88028C21.6544 8.50728 22.1349 9.96268 21.5526 11.1745C21.3474 11.6015 20.7943 12.1151 19.6879 13.1424L19.547 13.2733C19.2131 13.5834 19.0461 13.7384 18.9182 13.905C18.4937 14.4579 18.3194 15.1629 18.4371 15.8499C18.4726 16.0569 18.5481 16.2719 18.699 16.7019C19.1884 18.0968 19.4331 18.7942 19.4307 19.227C19.4226 20.7217 18.1134 21.8754 16.6296 21.6953C16.1999 21.6431 15.5388 21.3126 14.2167 20.6515L13.5718 20.3291C13.1286 20.1075 12.907 19.9967 12.6799 19.9325C12.2353 19.8068 11.7646 19.8068 11.32 19.9325C11.093 19.9967 10.8714 20.1075 10.4281 20.3291L9.78328 20.6515C8.46113 21.3126 7.80006 21.6431 7.37037 21.6953C5.88653 21.8754 4.57731 20.7217 4.56921 19.227C4.56686 18.7942 4.81157 18.0968 5.30099 16.7019C5.45187 16.2719 5.5273 16.0569 5.5628 15.8499C5.68058 15.1629 5.50621 14.4579 5.08175 13.905C4.95382 13.7384 4.78685 13.5834 4.45291 13.2733L4.31202 13.1424C3.20568 12.1151 2.65251 11.6015 2.44737 11.1745C1.86507 9.96267 2.34553 8.50728 3.53489 7.88028C3.95389 7.6594 4.70415 7.57604 6.20467 7.40931C6.63608 7.36138 6.85179 7.33741 7.04896 7.28196C7.59112 7.12949 8.06592 6.79842 8.39642 6.34239C8.51661 6.17655 8.61367 5.98243 8.8078 5.59419L8.85535 5.49907Z" stroke="#020203" stroke-width="1.5" stroke-linecap="round" stroke-linejoin="round"/>
</svg>
