<svg width="24" height="24" viewBox="0 0 24 24" fill="none" xmlns="http://www.w3.org/2000/svg">
<path fill-rule="evenodd" clip-rule="evenodd" d="M1.25 7.5C1.25 4.60051 3.60051 2.25 6.5 2.25C6.91421 2.25 7.25 2.58579 7.25 3C7.25 3.41421 6.91421 3.75 6.5 3.75C4.42893 3.75 2.75 5.42893 2.75 7.5V8.5C2.75 11.1234 4.87665 13.25 7.5 13.25H9.5C12.1234 13.25 14.25 11.1234 14.25 8.5V7C14.25 5.20507 12.7949 3.75 11 3.75C10.5858 3.75 10.25 3.41421 10.25 3C10.25 2.58579 10.5858 2.25 11 2.25C13.6234 2.25 15.75 4.37665 15.75 7V8.5C15.75 11.9518 12.9518 14.75 9.5 14.75H7.5C4.04822 14.75 1.25 11.9518 1.25 8.5V7.5Z" fill="#020203"/>
<path opacity="0.32" fill-rule="evenodd" clip-rule="evenodd" d="M8.5 13.25C8.91421 13.25 9.25 13.5858 9.25 14V17C9.25 19.3472 11.1528 21.25 13.5 21.25H15C16.7949 21.25 18.25 19.7949 18.25 18C18.25 17.5858 18.5858 17.25 19 17.25C19.4142 17.25 19.75 17.5858 19.75 18C19.75 20.6234 17.6234 22.75 15 22.75H13.5C10.3244 22.75 7.75 20.1756 7.75 17V14C7.75 13.5858 8.08579 13.25 8.5 13.25Z" fill="#020203"/>
<path fill-rule="evenodd" clip-rule="evenodd" d="M6.5 1.25C6.91421 1.25 7.25 1.58579 7.25 2L7.25 4C7.25 4.41421 6.91421 4.75 6.5 4.75C6.08579 4.75 5.75 4.41421 5.75 4L5.75 2C5.75 1.58579 6.08579 1.25 6.5 1.25Z" fill="#020203"/>
<path fill-rule="evenodd" clip-rule="evenodd" d="M10.5 1.25C10.9142 1.25 11.25 1.58579 11.25 2L11.25 4C11.25 4.41421 10.9142 4.75 10.5 4.75C10.0858 4.75 9.75 4.41421 9.75 4L9.75 2C9.75 1.58579 10.0858 1.25 10.5 1.25Z" fill="#020203"/>
<path d="M21.1204 12.8796C22.2932 14.0524 22.2932 15.9476 21.1204 17.1204C19.9476 18.2932 18.0524 18.2932 16.8796 17.1204C15.7068 15.9476 15.7068 14.0524 16.8796 12.8796C18.0524 11.7068 19.9476 11.7068 21.1204 12.8796Z" fill="#020203"/>
</svg>
