<svg width="24" height="24" viewBox="0 0 24 24" fill="none" xmlns="http://www.w3.org/2000/svg">
<path d="M11 3C13.2091 3 15 4.79086 15 7V8.5C15 11.5376 12.5376 14 9.5 14H7.5C4.46243 14 2 11.5376 2 8.5V7.5C2 5.01472 4.01472 3 6.5 3" stroke="#020203" stroke-width="1.5" stroke-linecap="round" stroke-linejoin="round"/>
<path opacity="0.32" d="M8.5 14V17C8.5 19.7614 10.7386 22 13.5 22H15C17.2091 22 19 20.2091 19 18" stroke="#020203" stroke-width="1.5" stroke-linecap="round" stroke-linejoin="round"/>
<path d="M6.5 2L6.5 4" stroke="#020203" stroke-width="1.5" stroke-linecap="round"/>
<path d="M10.5 2L10.5 4" stroke="#020203" stroke-width="1.5" stroke-linecap="round"/>
<path d="M21.1204 12.8796C22.2932 14.0524 22.2932 15.9476 21.1204 17.1204C19.9476 18.2932 18.0524 18.2932 16.8796 17.1204C15.7068 15.9476 15.7068 14.0524 16.8796 12.8796C18.0524 11.7068 19.9476 11.7068 21.1204 12.8796Z" stroke="#020203" stroke-width="1.5" stroke-linecap="round" stroke-linejoin="round"/>
</svg>
