<svg width="216" height="72" viewBox="0 0 216 72" fill="none" xmlns="http://www.w3.org/2000/svg">
<g clip-path="url(#clip0_6_11010)">
<path d="M45 33.4999V37C45 39.7957 45 41.1935 44.5433 42.2961C43.9343 43.7663 42.7663 44.9343 41.2961 45.5433C40.1935 46 38.7956 46 36 46C33.2044 46 31.8065 46 30.7039 45.5433C29.2337 44.9343 28.0657 43.7663 27.4567 42.2961C27 41.1935 27 39.7957 27 37V33.4999" stroke="#020203" stroke-width="1.5" stroke-linecap="round"/>
<path d="M39 45.5V41C39 39.3431 37.6569 38 36 38C34.3431 38 33 39.3431 33 41V45.5" stroke="#020203" stroke-width="1.5" stroke-linecap="round"/>
<path d="M32.5 30.4835V30V30.5C32.5 32.433 34.067 34 36 34C37.933 34 39.5 32.433 39.5 30.5V30V30.4835C39.5 32.4256 41.0744 34 43.0165 34C45.1317 34 46.7683 32.1461 46.5059 30.0473L46.4054 29.2435C46.1738 27.3905 44.5987 26 42.7313 26H29.2687C27.4013 26 25.8262 27.3905 25.5946 29.2435L25.4941 30.0473C25.2317 32.1461 26.8683 34 28.9835 34C30.9256 34 32.5 32.4256 32.5 30.4835Z" stroke="#020203" stroke-width="1.5" stroke-linecap="round" stroke-linejoin="round"/>
</g>
<g clip-path="url(#clip1_6_11010)">
<path d="M80.4193 33.5404C79.6789 34.7313 78.3612 35.5001 76.8935 35.5001C75.8833 35.5001 74.9647 35.1415 74.25 34.5499V37.0001C74.25 39.7936 74.25 41.1903 74.6571 42.3087C75.3395 44.1837 76.8164 45.6606 78.6914 46.343C79.1415 46.5069 79.6368 46.6048 80.25 46.6633V41.0001C80.25 38.929 81.9289 37.2501 84 37.2501C86.0711 37.2501 87.75 38.929 87.75 41.0001V46.6633C88.3632 46.6048 88.8585 46.5069 89.3086 46.343C91.1836 45.6606 92.6605 44.1837 93.3429 42.3087C93.75 41.1903 93.75 39.7936 93.75 37.0001V34.5498C93.0353 35.1415 92.1167 35.5001 91.1065 35.5001C89.6388 35.5001 88.3211 34.7313 87.5807 33.5404C86.8252 34.719 85.5038 35.5001 84 35.5001C82.4962 35.5001 81.1748 34.719 80.4193 33.5404Z" fill="#020203"/>
<path d="M84 46.7501C83.1242 46.7501 82.3857 46.7501 81.75 46.7376V41.0001C81.75 39.7575 82.7574 38.7501 84 38.7501C85.2426 38.7501 86.25 39.7575 86.25 41.0001V46.7376C85.6143 46.7501 84.8758 46.7501 84 46.7501Z" fill="#020203"/>
<path d="M77.4061 25H90.5939C92.7827 25 94.6222 26.5942 94.8668 28.7031L94.9741 29.6284C95.2444 31.9594 93.3632 34 90.9438 34C89.5097 34 88.2222 33.2717 87.4987 32.1435C86.7606 33.26 85.4694 34 84 34C82.5306 34 81.2394 33.26 80.5013 32.1435C79.7778 33.2717 78.4903 34 77.0562 34C74.6368 34 72.7556 31.9594 73.0259 29.6284L73.1332 28.7031C73.3778 26.5942 75.2173 25 77.4061 25Z" fill="#020203"/>
</g>
<g clip-path="url(#clip2_6_11010)">
<path d="M125.406 25H138.594C140.783 25 142.622 26.5942 142.867 28.7031L142.974 29.6284C143.244 31.9594 141.363 34 138.944 34C137.51 34 136.222 33.2717 135.499 32.1435C134.761 33.26 133.469 34 132 34C130.531 34 129.239 33.26 128.501 32.1435C127.778 33.2717 126.49 34 125.056 34C122.637 34 120.756 31.9594 121.026 29.6284L121.133 28.7031C121.378 26.5942 123.217 25 125.406 25Z" fill="#020203"/>
<path d="M132 46.7502C131.124 46.7502 130.386 46.7502 129.75 46.7376V41.0002C129.75 39.7575 130.757 38.7502 132 38.7502C133.243 38.7502 134.25 39.7575 134.25 41.0002V46.7376C133.614 46.7502 132.876 46.7502 132 46.7502Z" fill="#020203"/>
<path opacity="0.4" d="M128.419 33.5405C127.679 34.7314 126.361 35.5002 124.894 35.5002C123.883 35.5002 122.965 35.1416 122.25 34.55V37.0002C122.25 39.7937 122.25 41.1904 122.657 42.3088C123.339 44.1838 124.816 45.6607 126.691 46.3431C127.142 46.507 127.637 46.6049 128.25 46.6634V41.0002C128.25 38.9291 129.929 37.2502 132 37.2502C134.071 37.2502 135.75 38.9291 135.75 41.0002V46.6634C136.363 46.6049 136.858 46.507 137.309 46.3431C139.184 45.6607 140.661 44.1838 141.343 42.3088C141.75 41.1904 141.75 39.7937 141.75 37.0002V34.5499C141.035 35.1416 140.117 35.5002 139.106 35.5002C137.639 35.5002 136.321 34.7314 135.581 33.5405C134.825 34.7191 133.504 35.5002 132 35.5002C130.496 35.5002 129.175 34.7191 128.419 33.5405Z" fill="#020203"/>
</g>
<g clip-path="url(#clip3_6_11010)">
<path opacity="0.4" d="M189 33.4999V37C189 39.7957 189 41.1935 188.543 42.2961C187.934 43.7663 186.766 44.9343 185.296 45.5433C184.193 46 182.796 46 180 46C177.204 46 175.807 46 174.704 45.5433C173.234 44.9343 172.066 43.7663 171.457 42.2961C171 41.1935 171 39.7957 171 37V33.4999" stroke="#020203" stroke-width="1.5" stroke-linecap="round"/>
<path d="M176.5 30.4835V30V30.5C176.5 32.433 178.067 34 180 34C181.933 34 183.5 32.433 183.5 30.5V30V30.4835C183.5 32.4256 185.074 34 187.017 34C189.132 34 190.768 32.1461 190.506 30.0473L190.405 29.2435C190.174 27.3905 188.599 26 186.731 26H173.269C171.401 26 169.826 27.3905 169.595 29.2435L169.494 30.0473C169.232 32.1461 170.868 34 172.983 34C174.926 34 176.5 32.4256 176.5 30.4835Z" stroke="#020203" stroke-width="1.5" stroke-linecap="round" stroke-linejoin="round"/>
<path d="M183 45.5V41C183 39.3431 181.657 38 180 38C178.343 38 177 39.3431 177 41V45.5" stroke="#020203" stroke-width="1.5" stroke-linecap="round"/>
</g>
<rect x="0.5" y="0.5" width="215" height="71" rx="15.5" stroke="#D9D9D9"/>
<defs>
<clipPath id="clip0_6_11010">
<rect width="24" height="24" fill="white" transform="translate(24 24)"/>
</clipPath>
<clipPath id="clip1_6_11010">
<rect width="24" height="24" fill="white" transform="translate(72 24)"/>
</clipPath>
<clipPath id="clip2_6_11010">
<rect width="24" height="24" fill="white" transform="translate(120 24)"/>
</clipPath>
<clipPath id="clip3_6_11010">
<rect width="24" height="24" fill="white" transform="translate(168 24)"/>
</clipPath>
</defs>
</svg>
