<svg width="24" height="24" viewBox="0 0 24 24" fill="none" xmlns="http://www.w3.org/2000/svg">
<path d="M5.25 12C5.25 15.7279 8.27208 18.75 12 18.75C15.7279 18.75 18.75 15.7279 18.75 12C18.75 8.27208 15.7279 5.25 12 5.25C8.27208 5.25 5.25 8.27208 5.25 12Z" fill="#020203"/>
<path fill-rule="evenodd" clip-rule="evenodd" d="M20.25 12C20.25 11.5858 20.5858 11.25 21 11.25H22C22.4142 11.25 22.75 11.5858 22.75 12C22.75 12.4142 22.4142 12.75 22 12.75H21C20.5858 12.75 20.25 12.4142 20.25 12Z" fill="#020203"/>
<path fill-rule="evenodd" clip-rule="evenodd" d="M1.25 12C1.25 11.5858 1.58579 11.25 2 11.25H3C3.41421 11.25 3.75 11.5858 3.75 12C3.75 12.4142 3.41421 12.75 3 12.75H2C1.58579 12.75 1.25 12.4142 1.25 12Z" fill="#020203"/>
<path fill-rule="evenodd" clip-rule="evenodd" d="M12 1.25C12.4142 1.25 12.75 1.58579 12.75 2L12.75 3C12.75 3.41421 12.4142 3.75 12 3.75C11.5858 3.75 11.25 3.41421 11.25 3L11.25 2C11.25 1.58579 11.5858 1.25 12 1.25Z" fill="#020203"/>
<path fill-rule="evenodd" clip-rule="evenodd" d="M12 20.25C12.4142 20.25 12.75 20.5858 12.75 21L12.75 22C12.75 22.4142 12.4142 22.75 12 22.75C11.5858 22.75 11.25 22.4142 11.25 22L11.25 21C11.25 20.5858 11.5858 20.25 12 20.25Z" fill="#020203"/>
<path fill-rule="evenodd" clip-rule="evenodd" d="M20.5303 3.46967C20.8232 3.76256 20.8232 4.23744 20.5303 4.53033L19.5303 5.53033C19.2374 5.82322 18.7626 5.82322 18.4697 5.53033C18.1768 5.23744 18.1768 4.76256 18.4697 4.46967L19.4697 3.46967C19.7626 3.17678 20.2374 3.17678 20.5303 3.46967Z" fill="#020203"/>
<path fill-rule="evenodd" clip-rule="evenodd" d="M5.53033 18.4697C5.82322 18.7626 5.82322 19.2374 5.53033 19.5303L4.53033 20.5303C4.23744 20.8232 3.76256 20.8232 3.46967 20.5303C3.17678 20.2374 3.17678 19.7626 3.46967 19.4697L4.46967 18.4697C4.76256 18.1768 5.23744 18.1768 5.53033 18.4697Z" fill="#020203"/>
<path fill-rule="evenodd" clip-rule="evenodd" d="M2.46967 3.46967C2.76256 3.17678 3.23744 3.17678 3.53033 3.46967L4.53033 4.46967C4.82322 4.76256 4.82322 5.23744 4.53033 5.53033C4.23744 5.82322 3.76256 5.82322 3.46967 5.53033L2.46967 4.53033C2.17678 4.23744 2.17678 3.76256 2.46967 3.46967Z" fill="#020203"/>
<path fill-rule="evenodd" clip-rule="evenodd" d="M18.4697 18.4697C18.7626 18.1768 19.2374 18.1768 19.5303 18.4697L20.5303 19.4697C20.8232 19.7626 20.8232 20.2374 20.5303 20.5303C20.2374 20.8232 19.7626 20.8232 19.4697 20.5303L18.4697 19.5303C18.1768 19.2374 18.1768 18.7626 18.4697 18.4697Z" fill="#020203"/>
</svg>
