<svg width="24" height="24" viewBox="0 0 24 24" fill="none" xmlns="http://www.w3.org/2000/svg">
<path opacity="0.4" fill-rule="evenodd" clip-rule="evenodd" d="M4 16.75C3.4588 16.75 2.92504 16.876 2.44098 17.118L2.33541 17.1708C1.96492 17.3561 1.51442 17.2059 1.32918 16.8354C1.14393 16.4649 1.2941 16.0144 1.66459 15.8292L1.77016 15.7764C2.4625 15.4302 3.22593 15.25 4 15.25C4.77406 15.25 5.53749 15.4302 6.22983 15.7764L6.44098 15.882C6.92504 16.124 7.4588 16.25 8 16.25C8.54119 16.25 9.07495 16.124 9.55901 15.882L9.77016 15.7764C10.4625 15.4302 11.2259 15.25 12 15.25C12.7741 15.25 13.5375 15.4302 14.2298 15.7764L14.441 15.882C14.925 16.124 15.4588 16.25 16 16.25C16.5412 16.25 17.075 16.124 17.559 15.882L17.7702 15.7764C18.4625 15.4302 19.2259 15.25 20 15.25C20.7741 15.25 21.5375 15.4302 22.2298 15.7764L22.3354 15.8292C22.7059 16.0144 22.8561 16.4649 22.6708 16.8354C22.4856 17.2059 22.0351 17.3561 21.6646 17.1708L21.559 17.118C21.075 16.876 20.5412 16.75 20 16.75C19.4588 16.75 18.925 16.876 18.441 17.118L18.1056 16.4472L18.441 17.118L18.2298 17.2236C17.5375 17.5698 16.7741 17.75 16 17.75C15.2259 17.75 14.4625 17.5698 13.7702 17.2236L13.559 17.118C13.075 16.876 12.5412 16.75 12 16.75C11.4588 16.75 10.925 16.876 10.441 17.118L10.2298 17.2236C9.53749 17.5698 8.77406 17.75 8 17.75C7.22593 17.75 6.4625 17.5698 5.77016 17.2236L5.55901 17.118C5.07495 16.876 4.54119 16.75 4 16.75Z" fill="#020203"/>
<path fill-rule="evenodd" clip-rule="evenodd" d="M4 20.75C3.4588 20.75 2.92504 20.876 2.44098 21.118L2.33541 21.1708C1.96492 21.3561 1.51442 21.2059 1.32918 20.8354C1.14393 20.4649 1.2941 20.0144 1.66459 19.8292L1.77016 19.7764C2.4625 19.4302 3.22593 19.25 4 19.25C4.77406 19.25 5.53749 19.4302 6.22983 19.7764L6.44098 19.882C6.92504 20.124 7.4588 20.25 8 20.25C8.54119 20.25 9.07495 20.124 9.55901 19.882L9.77016 19.7764C10.4625 19.4302 11.2259 19.25 12 19.25C12.7741 19.25 13.5375 19.4302 14.2298 19.7764L14.441 19.882C14.925 20.124 15.4588 20.25 16 20.25C16.5412 20.25 17.075 20.124 17.559 19.882L17.7702 19.7764C18.4625 19.4302 19.2259 19.25 20 19.25C20.7741 19.25 21.5375 19.4302 22.2298 19.7764L22.3354 19.8292C22.7059 20.0144 22.8561 20.4649 22.6708 20.8354C22.4856 21.2059 22.0351 21.3561 21.6646 21.1708L21.559 21.118C21.075 20.876 20.5412 20.75 20 20.75C19.4588 20.75 18.925 20.876 18.441 21.118L18.1056 20.4472L18.441 21.118L18.2298 21.2236C17.5375 21.5698 16.7741 21.75 16 21.75C15.2259 21.75 14.4625 21.5698 13.7702 21.2236L13.559 21.118C13.075 20.876 12.5412 20.75 12 20.75C11.4588 20.75 10.925 20.876 10.441 21.118L10.2298 21.2236C9.53749 21.5698 8.77406 21.75 8 21.75C7.22593 21.75 6.4625 21.5698 5.77016 21.2236L5.55901 21.118C5.07495 20.876 4.54119 20.75 4 20.75Z" fill="#020203"/>
<path fill-rule="evenodd" clip-rule="evenodd" d="M12 7.75C9.10051 7.75 6.75 10.1005 6.75 13C6.75 13.4142 6.41421 13.75 6 13.75C5.58579 13.75 5.25 13.4142 5.25 13C5.25 9.27208 8.27208 6.25 12 6.25C15.7279 6.25 18.75 9.27208 18.75 13C18.75 13.4142 18.4142 13.75 18 13.75C17.5858 13.75 17.25 13.4142 17.25 13C17.25 10.1005 14.8995 7.75 12 7.75Z" fill="#020203"/>
<path opacity="0.32" fill-rule="evenodd" clip-rule="evenodd" d="M20.25 12C20.25 11.5858 20.5858 11.25 21 11.25H22C22.4142 11.25 22.75 11.5858 22.75 12C22.75 12.4142 22.4142 12.75 22 12.75H21C20.5858 12.75 20.25 12.4142 20.25 12Z" fill="#020203"/>
<path opacity="0.32" fill-rule="evenodd" clip-rule="evenodd" d="M1.25 12C1.25 11.5858 1.58579 11.25 2 11.25H3C3.41421 11.25 3.75 11.5858 3.75 12C3.75 12.4142 3.41421 12.75 3 12.75H2C1.58579 12.75 1.25 12.4142 1.25 12Z" fill="#020203"/>
<path opacity="0.32" fill-rule="evenodd" clip-rule="evenodd" d="M20.3056 4.67999C20.6011 4.97028 20.6053 5.44514 20.315 5.74061L19.755 6.31061C19.4647 6.60609 18.9899 6.61029 18.6944 6.32C18.3989 6.02971 18.3947 5.55485 18.685 5.25938L19.245 4.68938C19.5353 4.39391 20.0101 4.3897 20.3056 4.67999Z" fill="#020203"/>
<path opacity="0.32" fill-rule="evenodd" clip-rule="evenodd" d="M3.69439 4.67999C3.98986 4.3897 4.46471 4.39391 4.755 4.68938L5.315 5.25938C5.60529 5.55485 5.60109 6.02971 5.30562 6.32C5.01014 6.61029 4.53529 6.60609 4.245 6.31061L3.685 5.74061C3.39471 5.44514 3.39891 4.97028 3.69439 4.67999Z" fill="#020203"/>
<path opacity="0.32" fill-rule="evenodd" clip-rule="evenodd" d="M12 2.25C12.4142 2.25 12.75 2.58579 12.75 3L12.75 4C12.75 4.41421 12.4142 4.75 12 4.75C11.5858 4.75 11.25 4.41421 11.25 4L11.25 3C11.25 2.58579 11.5858 2.25 12 2.25Z" fill="#020203"/>
</svg>
