<svg width="24" height="24" viewBox="0 0 24 24" fill="none" xmlns="http://www.w3.org/2000/svg">
<path d="M2 16.5L2.10557 16.4472C2.69377 16.1531 3.34237 16 4 16C4.65763 16 5.30623 16.1531 5.89443 16.4472L6.10557 16.5528C6.69377 16.8469 7.34237 17 8 17C8.65763 17 9.30623 16.8469 9.89443 16.5528L10.1056 16.4472C10.6938 16.1531 11.3424 16 12 16C12.6576 16 13.3062 16.1531 13.8944 16.4472L14.1056 16.5528C14.6938 16.8469 15.3424 17 16 17C16.6576 17 17.3062 16.8469 17.8944 16.5528L18.1056 16.4472C18.6938 16.1531 19.3424 16 20 16C20.6576 16 21.3062 16.1531 21.8944 16.4472L22 16.5" stroke="#020203" stroke-width="1.5" stroke-linecap="round"/>
<path opacity="0.4" d="M2 20.5L2.10557 20.4472C2.69377 20.1531 3.34237 20 4 20C4.65763 20 5.30623 20.1531 5.89443 20.4472L6.10557 20.5528C6.69377 20.8469 7.34237 21 8 21C8.65763 21 9.30623 20.8469 9.89443 20.5528L10.1056 20.4472C10.6938 20.1531 11.3424 20 12 20C12.6576 20 13.3062 20.1531 13.8944 20.4472L14.1056 20.5528C14.6938 20.8469 15.3424 21 16 21C16.6576 21 17.3062 20.8469 17.8944 20.5528L18.1056 20.4472C18.6938 20.1531 19.3424 20 20 20C20.6576 20 21.3062 20.1531 21.8944 20.4472L22 20.5" stroke="#020203" stroke-width="1.5" stroke-linecap="round"/>
<path opacity="0.32" d="M18 13C18 9.68629 15.3137 7 12 7C8.68629 7 6 9.68629 6 13" stroke="#020203" stroke-width="1.5" stroke-linecap="round"/>
<path d="M21 12H22" stroke="#020203" stroke-width="1.5" stroke-linecap="round"/>
<path d="M2 12H3" stroke="#020203" stroke-width="1.5" stroke-linecap="round"/>
<path d="M19.22 5.785L19.78 5.215" stroke="#020203" stroke-width="1.5" stroke-linecap="round" stroke-linejoin="round"/>
<path d="M4.22 5.215L4.78 5.785" stroke="#020203" stroke-width="1.5" stroke-linecap="round" stroke-linejoin="round"/>
<path d="M12 3L12 4" stroke="#020203" stroke-width="1.5" stroke-linecap="round"/>
</svg>
