<svg width="24" height="24" viewBox="0 0 24 24" fill="none" xmlns="http://www.w3.org/2000/svg">
<path d="M8.25 19.5591V20C8.25 21.5188 9.48122 22.75 11 22.75C12.5188 22.75 13.75 21.5188 13.75 20V19.5591C12.8852 19.8452 11.9607 20 11 20C10.0393 20 9.11478 19.8452 8.25 19.5591Z" fill="#020203"/>
<path d="M2.25 10C2.25 5.16751 6.16751 1.25 11 1.25C12.5298 1.25 13.9679 1.64258 15.219 2.33249C13.7476 3.13958 12.75 4.70329 12.75 6.5C12.75 9.12335 14.8766 11.25 17.5 11.25C18.3029 11.25 19.0593 11.0508 19.7225 10.6991C19.6514 11.5977 19.4446 12.4582 19.1225 13.26C19.0827 13.2534 19.0417 13.25 19 13.25H3C2.95827 13.25 2.91733 13.2534 2.87745 13.26C2.47272 12.2525 2.25 11.1522 2.25 10Z" fill="#020203"/>
<path d="M3.65029 14.75C5.20922 17.1572 7.9186 18.75 11 18.75C14.0814 18.75 16.7908 17.1572 18.3497 14.75H3.65029Z" fill="#020203"/>
<path d="M14 6.5C14 8.433 15.567 10 17.5 10C19.433 10 21 8.433 21 6.5C21 4.567 19.433 3 17.5 3C15.567 3 14 4.567 14 6.5Z" fill="#020203"/>
</svg>
