<svg width="24" height="24" viewBox="0 0 24 24" fill="none" xmlns="http://www.w3.org/2000/svg">
<path d="M13 18V20C13 21.1046 12.1046 22 11 22C9.89543 22 9 21.1046 9 20V18" stroke="#020203" stroke-width="1.5" stroke-linecap="round"/>
<path d="M19 10C19 14.4183 15.4183 18 11 18C6.58172 18 3 14.4183 3 10C3 5.58172 6.58172 2 11 2C12.6686 2 14.2179 2.51085 15.5 3.38468" stroke="#020203" stroke-width="1.5" stroke-linecap="round"/>
<path d="M14 6.5C14 8.433 15.567 10 17.5 10C19.433 10 21 8.433 21 6.5C21 4.567 19.433 3 17.5 3C15.567 3 14 4.567 14 6.5Z" stroke="#020203" stroke-width="1.5" stroke-linecap="round"/>
<path d="M4.5 14L17.5 14" stroke="#020203" stroke-width="1.5" stroke-linecap="round"/>
</svg>
