<svg width="24" height="24" viewBox="0 0 24 24" fill="none" xmlns="http://www.w3.org/2000/svg">
<path fill-rule="evenodd" clip-rule="evenodd" d="M2.25 11C2.25 7.73531 2.25 6.10296 2.84483 4.83888C3.46408 3.5229 4.5229 2.46408 5.83888 1.84483C7.10296 1.25 8.73531 1.25 12 1.25C15.2647 1.25 16.897 1.25 18.1611 1.84483C19.4771 2.46408 20.5359 3.5229 21.1552 4.83888C21.75 6.10296 21.75 7.73531 21.75 11V13C21.75 16.2647 21.75 17.897 21.1552 19.1611C20.5359 20.4771 19.4771 21.5359 18.1611 22.1552C16.897 22.75 15.2647 22.75 12 22.75C8.73531 22.75 7.10296 22.75 5.83888 22.1552C4.5229 21.5359 3.46408 20.4771 2.84483 19.1611C2.25 17.897 2.25 16.2647 2.25 13V11ZM8.25 6C8.25 5.58579 8.58579 5.25 9 5.25H15C15.4142 5.25 15.75 5.58579 15.75 6C15.75 6.41421 15.4142 6.75 15 6.75H9C8.58579 6.75 8.25 6.41421 8.25 6ZM11.9945 17.5C11.4422 17.5 10.9945 17.9477 10.9945 18.5C10.9945 19.0523 11.4422 19.5 11.9945 19.5H12.0035C12.5558 19.5 13.0035 19.0523 13.0035 18.5C13.0035 17.9477 12.5558 17.5 12.0035 17.5H11.9945Z" fill="#020203"/>
</svg>
