<svg width="24" height="24" viewBox="0 0 24 24" fill="none" xmlns="http://www.w3.org/2000/svg">
<path fill-rule="evenodd" clip-rule="evenodd" d="M7.11612 20.4144L3.58058 16.8788C1.13981 14.4381 1.13981 10.4808 3.58058 8.04001L8.40357 3.21703C9.34056 2.28004 10.6112 1.75331 11.9363 1.75256L16.4917 1.75C19.6699 1.74821 22.2467 4.32507 22.245 7.50324L22.2424 12.0587C22.2417 13.3838 21.7149 14.6544 20.7779 15.5914L15.955 20.4144C13.5142 22.8552 9.55689 22.8552 7.11612 20.4144ZM11.9823 14.6127C11.43 14.6127 10.9823 15.0605 10.9823 15.6127C10.9823 16.165 11.43 16.6127 11.9823 16.6127H11.9833C12.5356 16.6127 12.9833 16.165 12.9833 15.6127C12.9833 15.0605 12.5356 14.6127 11.9833 14.6127H11.9823ZM10.9823 8.54195C10.9823 7.98966 11.43 7.54195 11.9823 7.54195H11.9833C12.5356 7.54195 12.9833 7.98966 12.9833 8.54195C12.9833 9.09423 12.5356 9.54195 11.9833 9.54195H11.9823C11.43 9.54195 10.9823 9.09423 10.9823 8.54195ZM7.73883 11.3284C7.32462 11.3284 6.98883 11.6642 6.98883 12.0784C6.98883 12.4926 7.32462 12.8284 7.73883 12.8284H16.2241C16.6383 12.8284 16.9741 12.4926 16.9741 12.0784C16.9741 11.6642 16.6383 11.3284 16.2241 11.3284H7.73883Z" fill="#020203"/>
</svg>
