<svg width="24" height="24" viewBox="0 0 24 24" fill="none" xmlns="http://www.w3.org/2000/svg">
<path opacity="0.4" d="M3.58058 16.8788L7.11612 20.4144C9.55689 22.8552 13.5142 22.8552 15.955 20.4144L20.7779 15.5914C21.7149 14.6544 22.2417 13.3838 22.2424 12.0587L22.245 7.50324C22.2467 4.32507 19.6699 1.74821 16.4917 1.75L11.9363 1.75256C10.6112 1.75331 9.34056 2.28004 8.40357 3.21703L3.58058 8.04001C1.13981 10.4808 1.13981 14.4381 3.58058 16.8788Z" fill="#020203"/>
<path fill-rule="evenodd" clip-rule="evenodd" d="M11.6204 7.37317C12.0346 7.37317 12.3704 7.70896 12.3704 8.12317V16.6084C12.3704 17.0227 12.0346 17.3584 11.6204 17.3584C11.2061 17.3584 10.8704 17.0227 10.8704 16.6084V8.12317C10.8704 7.70896 11.2061 7.37317 11.6204 7.37317Z" fill="#020203"/>
<path fill-rule="evenodd" clip-rule="evenodd" d="M6.62769 12.3658C6.62769 11.9516 6.96347 11.6158 7.37769 11.6158H15.863C16.2772 11.6158 16.613 11.9516 16.613 12.3658C16.613 12.78 16.2772 13.1158 15.863 13.1158H7.37769C6.96347 13.1158 6.62769 12.78 6.62769 12.3658Z" fill="#020203"/>
</svg>
