<svg width="24" height="24" viewBox="0 0 24 24" fill="none" xmlns="http://www.w3.org/2000/svg">
<path d="M12.1507 8.66351C13.0294 7.78483 14.454 7.78483 15.3327 8.66351C16.2114 9.54219 16.2114 10.9668 15.3327 11.8455C14.454 12.7242 13.0294 12.7242 12.1507 11.8455C11.272 10.9668 11.272 9.54219 12.1507 8.66351Z" fill="#020203"/>
<path fill-rule="evenodd" clip-rule="evenodd" d="M7.11612 20.4144L3.58058 16.8788C1.13981 14.4381 1.13981 10.4808 3.58058 8.04001L8.40357 3.21703C9.34056 2.28004 10.6112 1.75331 11.9363 1.75256L16.4917 1.75C19.6699 1.74821 22.2467 4.32507 22.245 7.50324L22.2424 12.0587C22.2417 13.3838 21.7149 14.6544 20.7779 15.5914L15.955 20.4144C13.5142 22.8552 9.55689 22.8552 7.11612 20.4144ZM16.3934 7.60285C14.9289 6.13839 12.5545 6.13839 11.0901 7.60285C9.6256 9.06732 9.6256 11.4417 11.0901 12.9062C12.5545 14.3706 14.9289 14.3706 16.3934 12.9062C17.8578 11.4417 17.8578 9.06732 16.3934 7.60285Z" fill="#020203"/>
</svg>
