<svg width="24" height="24" viewBox="0 0 24 24" fill="none" xmlns="http://www.w3.org/2000/svg">
<path opacity="0.4" d="M3.58058 16.8788L7.11612 20.4144C9.55689 22.8552 13.5142 22.8552 15.955 20.4144L20.7779 15.5914C21.7149 14.6544 22.2417 13.3838 22.2424 12.0587L22.245 7.50324C22.2467 4.32507 19.6699 1.74821 16.4917 1.75L11.9363 1.75256C10.6112 1.75331 9.34056 2.28004 8.40357 3.21703L3.58058 8.04001C1.13981 10.4808 1.13981 14.4381 3.58058 16.8788Z" fill="#020203"/>
<path fill-rule="evenodd" clip-rule="evenodd" d="M10.9823 15.6127C10.9823 15.0604 11.43 14.6127 11.9823 14.6127H11.9833C12.5356 14.6127 12.9833 15.0604 12.9833 15.6127C12.9833 16.165 12.5356 16.6127 11.9833 16.6127H11.9823C11.43 16.6127 10.9823 16.165 10.9823 15.6127Z" fill="#020203"/>
<path fill-rule="evenodd" clip-rule="evenodd" d="M10.9823 8.54193C10.9823 7.98965 11.43 7.54193 11.9823 7.54193H11.9833C12.5356 7.54193 12.9833 7.98965 12.9833 8.54193C12.9833 9.09422 12.5356 9.54193 11.9833 9.54193H11.9823C11.43 9.54193 10.9823 9.09422 10.9823 8.54193Z" fill="#020203"/>
<path fill-rule="evenodd" clip-rule="evenodd" d="M6.98883 12.0784C6.98883 11.6642 7.32462 11.3284 7.73883 11.3284H16.2241C16.6383 11.3284 16.9741 11.6642 16.9741 12.0784C16.9741 12.4926 16.6383 12.8284 16.2241 12.8284H7.73883C7.32462 12.8284 6.98883 12.4926 6.98883 12.0784Z" fill="#020203"/>
</svg>
