<svg width="24" height="24" viewBox="0 0 24 24" fill="none" xmlns="http://www.w3.org/2000/svg">
<path opacity="0.4" d="M3.58058 16.8788L7.11612 20.4144C9.55689 22.8552 13.5142 22.8552 15.955 20.4144L20.7779 15.5914C21.7149 14.6544 22.2417 13.3838 22.2424 12.0587L22.245 7.50324C22.2467 4.32507 19.6699 1.74821 16.4917 1.75L11.9363 1.75256C10.6112 1.75331 9.34056 2.28004 8.40357 3.21703L3.58058 8.04001C1.13981 10.4808 1.13981 14.4381 3.58058 16.8788Z" fill="#020203"/>
<path d="M16.4017 7.59835C14.9372 6.13388 12.5628 6.13388 11.0983 7.59835C9.63388 9.06282 9.63388 11.4372 11.0983 12.9017C12.5628 14.3661 14.9372 14.3661 16.4017 12.9017C17.8661 11.4372 17.8661 9.06282 16.4017 7.59835Z" fill="#020203"/>
</svg>
