<svg width="24" height="24" viewBox="0 0 24 24" fill="none" xmlns="http://www.w3.org/2000/svg">
<path fill-rule="evenodd" clip-rule="evenodd" d="M10.25 4.5C10.25 4.08579 10.5858 3.75 11 3.75L22 3.75C22.4142 3.75 22.75 4.08579 22.75 4.5C22.75 4.91421 22.4142 5.25 22 5.25L11 5.25C10.5858 5.25 10.25 4.91421 10.25 4.5Z" fill="#020203"/>
<path fill-rule="evenodd" clip-rule="evenodd" d="M10.25 12C10.25 11.5858 10.5858 11.25 11 11.25L22 11.25C22.4142 11.25 22.75 11.5858 22.75 12C22.75 12.4142 22.4142 12.75 22 12.75L11 12.75C10.5858 12.75 10.25 12.4142 10.25 12Z" fill="#020203"/>
<path fill-rule="evenodd" clip-rule="evenodd" d="M10.25 19.5C10.25 19.0858 10.5858 18.75 11 18.75L22 18.75C22.4142 18.75 22.75 19.0858 22.75 19.5C22.75 19.9142 22.4142 20.25 22 20.25L11 20.25C10.5858 20.25 10.25 19.9142 10.25 19.5Z" fill="#020203"/>
<path opacity="0.4" fill-rule="evenodd" clip-rule="evenodd" d="M7.66852 2.41435C7.99197 2.6731 8.04441 3.14507 7.78565 3.46852L5.86713 5.86667C4.91584 7.05578 3.08277 6.97623 2.23806 5.70918L1.70929 4.91602C1.47953 4.57138 1.57266 4.10572 1.91731 3.87596C2.26195 3.6462 2.72761 3.73933 2.95737 4.08397L3.48614 4.87713C3.76771 5.29948 4.37873 5.32599 4.69583 4.92962L6.61435 2.53148C6.8731 2.20803 7.34507 2.15559 7.66852 2.41435Z" fill="#020203"/>
<path opacity="0.4" fill-rule="evenodd" clip-rule="evenodd" d="M7.66852 9.91438C7.99197 10.1731 8.04441 10.6451 7.78565 10.9685L5.86713 13.3667C4.91584 14.5558 3.08277 14.4763 2.23806 13.2092L1.70929 12.4161C1.47953 12.0714 1.57266 11.6058 1.91731 11.376C2.26195 11.1462 2.72761 11.2394 2.95737 11.584L3.48614 12.3772C3.76771 12.7995 4.37873 12.826 4.69583 12.4297L6.61435 10.0315C6.8731 9.70806 7.34507 9.65562 7.66852 9.91438Z" fill="#020203"/>
<path opacity="0.4" fill-rule="evenodd" clip-rule="evenodd" d="M7.66852 17.4143C7.99197 17.6731 8.04441 18.1451 7.78565 18.4685L5.86713 20.8667C4.91584 22.0558 3.08277 21.9762 2.23806 20.7092L1.70929 19.916C1.47953 19.5714 1.57266 19.1057 1.91731 18.876C2.26195 18.6462 2.72761 18.7393 2.95737 19.084L3.48614 19.8771C3.76771 20.2995 4.37873 20.326 4.69583 19.9296L6.61435 17.5315C6.8731 17.208 7.34507 17.1556 7.66852 17.4143Z" fill="#020203"/>
</svg>
