<svg width="24" height="24" viewBox="0 0 24 24" fill="none" xmlns="http://www.w3.org/2000/svg">
<path d="M2 12C2 17.5228 6.47715 22 12 22C17.5228 22 22 17.5228 22 12C22 6.47715 17.5228 2 12 2C6.47715 2 2 6.47715 2 12Z" stroke="#020203" stroke-width="1.5" stroke-linecap="round"/>
<path d="M12.1402 2.5C12.0482 2.98557 12 3.48667 12 3.99902C12 8.4173 15.5817 11.999 20 11.999C20.5127 11.999 21.0141 11.9508 21.5 11.8586" stroke="#020203" stroke-width="1.5" stroke-linecap="round"/>
<path d="M2.5 12.1394C2.98588 12.0473 3.48731 11.999 4 11.999C8.41828 11.999 12 15.5807 12 19.999C12 20.5121 11.9517 21.0138 11.8594 21.5" stroke="#020203" stroke-width="1.5" stroke-linecap="round"/>
</svg>
