<svg width="24" height="24" viewBox="0 0 24 24" fill="none" xmlns="http://www.w3.org/2000/svg">
<path opacity="0.4" d="M20 12.7498C20.9591 12.7498 21.8821 12.5955 22.7456 12.3104C22.5842 18.0007 18.0008 22.584 12.3106 22.7454C12.5957 21.8819 12.75 20.9589 12.75 19.9998C12.75 15.1673 8.8325 11.2498 4.00001 11.2498C3.04095 11.2498 2.11792 11.4041 1.25441 11.6893C1.41584 5.99901 5.99917 1.41568 11.6894 1.25424C11.4043 2.11776 11.25 3.04078 11.25 3.99984C11.25 8.83233 15.1675 12.7498 20 12.7498Z" fill="#020203"/>
<path d="M10.7398 22.6764C5.80991 22.1008 1.89873 18.1896 1.32308 13.2597C2.15128 12.9305 3.0545 12.7495 4 12.7495C8.00406 12.7495 11.25 15.9954 11.25 19.9995C11.25 20.945 11.069 21.8482 10.7398 22.6764Z" fill="#020203"/>
<path d="M13.2602 1.32259C18.1901 1.89824 22.1013 5.80942 22.6769 10.7393C21.8487 11.0685 20.9455 11.2495 20 11.2495C15.9959 11.2495 12.75 8.00357 12.75 3.99951C12.75 3.05401 12.931 2.15078 13.2602 1.32259Z" fill="#020203"/>
</svg>
