<svg width="23" height="23" viewBox="0 0 23 23" fill="none" xmlns="http://www.w3.org/2000/svg">
<path opacity="0.4" d="M0.25 11C0.25 7.73923 0.25 6.10885 0.764919 4.8165C1.50185 2.96695 2.96695 1.50185 4.8165 0.764919C6.10885 0.25 7.73923 0.25 11 0.25C14.2608 0.25 15.8912 0.25 17.1835 0.764919C19.0331 1.50185 20.4982 2.96695 21.2351 4.8165C21.75 6.10885 21.75 7.73923 21.75 11C21.75 14.2608 21.75 15.8912 21.2351 17.1835C20.4982 19.0331 19.0331 20.4982 17.1835 21.2351C15.8912 21.75 14.2608 21.75 11 21.75C7.73923 21.75 6.10885 21.75 4.8165 21.2351C2.96695 20.4982 1.50185 19.0331 0.764919 17.1835C0.25 15.8912 0.25 14.2608 0.25 11Z" fill="#020203"/>
<path fill-rule="evenodd" clip-rule="evenodd" d="M11.25 14C11.25 13.5858 11.5858 13.25 12 13.25L16 13.25C16.4142 13.25 16.75 13.5858 16.75 14C16.75 14.4142 16.4142 14.75 16 14.75L12 14.75C11.5858 14.75 11.25 14.4142 11.25 14Z" fill="#020203"/>
<path fill-rule="evenodd" clip-rule="evenodd" d="M5.46869 7.469C5.76159 7.17611 6.23646 7.17611 6.52935 7.469L8.46869 9.40834C9.34737 10.287 9.34737 11.7116 8.46869 12.5903L6.52935 14.5297C6.23646 14.8226 5.76159 14.8226 5.46869 14.5297C5.1758 14.2368 5.1758 13.7619 5.46869 13.469L7.40803 11.5297C7.70093 11.2368 7.70093 10.7619 7.40803 10.469L5.46869 8.52966C5.1758 8.23677 5.1758 7.76189 5.46869 7.469Z" fill="#020203"/>
</svg>
