<svg width="24" height="24" viewBox="0 0 24 24" fill="none" xmlns="http://www.w3.org/2000/svg">
<path fill-rule="evenodd" clip-rule="evenodd" d="M1.25 12C1.25 8.73923 1.25 7.10885 1.76492 5.8165C2.50185 3.96695 3.96695 2.50185 5.8165 1.76492C7.10885 1.25 8.73923 1.25 12 1.25C15.2608 1.25 16.8912 1.25 18.1835 1.76492C20.0331 2.50185 21.4982 3.96695 22.2351 5.8165C22.75 7.10885 22.75 8.73923 22.75 12C22.75 15.2608 22.75 16.8912 22.2351 18.1835C21.4982 20.0331 20.0331 21.4982 18.1835 22.2351C16.8912 22.75 15.2608 22.75 12 22.75C8.73923 22.75 7.10885 22.75 5.8165 22.2351C3.96695 21.4982 2.50185 20.0331 1.76492 18.1835C1.25 16.8912 1.25 15.2608 1.25 12ZM12.25 15C12.25 14.5858 12.5858 14.25 13 14.25H17C17.4142 14.25 17.75 14.5858 17.75 15C17.75 15.4142 17.4142 15.75 17 15.75H13C12.5858 15.75 12.25 15.4142 12.25 15ZM7.52935 8.469C7.23646 8.17611 6.76159 8.17611 6.46869 8.469C6.1758 8.76189 6.1758 9.23677 6.46869 9.52966L8.40803 11.469C8.70093 11.7619 8.70093 12.2368 8.40803 12.5297L6.46869 14.469C6.1758 14.7619 6.1758 15.2368 6.46869 15.5297C6.76159 15.8226 7.23646 15.8226 7.52935 15.5297L9.46869 13.5903C10.3474 12.7116 10.3474 11.287 9.46869 10.4083L7.52935 8.469Z" fill="#020203"/>
</svg>
