<svg width="24" height="24" viewBox="0 0 24 24" fill="none" xmlns="http://www.w3.org/2000/svg">
<path opacity="0.4" fill-rule="evenodd" clip-rule="evenodd" d="M2.25 4.5C2.25 4.08579 2.58579 3.75 3 3.75H21C21.4142 3.75 21.75 4.08579 21.75 4.5C21.75 4.91421 21.4142 5.25 21 5.25H3C2.58579 5.25 2.25 4.91421 2.25 4.5Z" fill="#020203"/>
<path opacity="0.4" fill-rule="evenodd" clip-rule="evenodd" d="M2.25 14.5C2.25 14.0858 2.58579 13.75 3 13.75H21C21.4142 13.75 21.75 14.0858 21.75 14.5C21.75 14.9142 21.4142 15.25 21 15.25H3C2.58579 15.25 2.25 14.9142 2.25 14.5Z" fill="#020203"/>
<path fill-rule="evenodd" clip-rule="evenodd" d="M2.25 9.5C2.25 9.08579 2.58579 8.75 3 8.75H21C21.4142 8.75 21.75 9.08579 21.75 9.5C21.75 9.91421 21.4142 10.25 21 10.25H3C2.58579 10.25 2.25 9.91421 2.25 9.5Z" fill="#020203"/>
<path fill-rule="evenodd" clip-rule="evenodd" d="M2.25 19.5C2.25 19.0858 2.58579 18.75 3 18.75H21C21.4142 18.75 21.75 19.0858 21.75 19.5C21.75 19.9142 21.4142 20.25 21 20.25H3C2.58579 20.25 2.25 19.9142 2.25 19.5Z" fill="#020203"/>
</svg>
