<svg width="24" height="24" viewBox="0 0 24 24" fill="none" xmlns="http://www.w3.org/2000/svg">
<path fill-rule="evenodd" clip-rule="evenodd" d="M12 8.25C12.4142 8.25 12.75 8.58579 12.75 9V15C12.75 15.4142 12.4142 15.75 12 15.75C11.5858 15.75 11.25 15.4142 11.25 15V9C11.25 8.58579 11.5858 8.25 12 8.25Z" fill="#020203"/>
<path fill-rule="evenodd" clip-rule="evenodd" d="M11 9.75C10.3096 9.75 9.75 10.3096 9.75 11C9.75 11.4142 9.41421 11.75 9 11.75C8.58579 11.75 8.25 11.4142 8.25 11C8.25 9.48122 9.48122 8.25 11 8.25H13C14.5188 8.25 15.75 9.48122 15.75 11C15.75 11.4142 15.4142 11.75 15 11.75C14.5858 11.75 14.25 11.4142 14.25 11C14.25 10.3096 13.6904 9.75 13 9.75H11Z" fill="#020203"/>
<path d="M2 19C2 20.6569 3.34315 22 5 22C6.65685 22 8 20.6569 8 19C8 17.3431 6.65685 16 5 16C3.34315 16 2 17.3431 2 19Z" fill="#020203"/>
<path d="M1.5 19C1.5 20.933 3.067 22.5 5 22.5C6.933 22.5 8.5 20.933 8.5 19C8.5 17.067 6.933 15.5 5 15.5C3.067 15.5 1.5 17.067 1.5 19Z" fill="#020203"/>
<path d="M15.5 19C15.5 20.933 17.067 22.5 19 22.5C20.933 22.5 22.5 20.933 22.5 19C22.5 17.067 20.933 15.5 19 15.5C17.067 15.5 15.5 17.067 15.5 19Z" fill="#020203"/>
<path d="M15.5 5C15.5 6.933 17.067 8.5 19 8.5C20.933 8.5 22.5 6.933 22.5 5C22.5 3.067 20.933 1.5 19 1.5C17.067 1.5 15.5 3.067 15.5 5Z" fill="#020203"/>
<path d="M1.5 5C1.5 6.933 3.067 8.5 5 8.5C6.933 8.5 8.5 6.933 8.5 5C8.5 3.067 6.933 1.5 5 1.5C3.067 1.5 1.5 3.067 1.5 5Z" fill="#020203"/>
<path fill-rule="evenodd" clip-rule="evenodd" d="M7.25 19C7.25 18.5858 7.58579 18.25 8 18.25L16 18.25C16.4142 18.25 16.75 18.5858 16.75 19C16.75 19.4142 16.4142 19.75 16 19.75L8 19.75C7.58579 19.75 7.25 19.4142 7.25 19Z" fill="#020203"/>
<path fill-rule="evenodd" clip-rule="evenodd" d="M7.25 5C7.25 4.58579 7.58579 4.25 8 4.25L16 4.25C16.4142 4.25 16.75 4.58579 16.75 5C16.75 5.41421 16.4142 5.75 16 5.75L8 5.75C7.58579 5.75 7.25 5.41421 7.25 5Z" fill="#020203"/>
<path fill-rule="evenodd" clip-rule="evenodd" d="M5 7.25C5.41421 7.25 5.75 7.58579 5.75 8L5.75 16C5.75 16.4142 5.41421 16.75 5 16.75C4.58579 16.75 4.25 16.4142 4.25 16L4.25 8C4.25 7.58579 4.58579 7.25 5 7.25Z" fill="#020203"/>
<path fill-rule="evenodd" clip-rule="evenodd" d="M19 7.25C19.4142 7.25 19.75 7.58579 19.75 8L19.75 16C19.75 16.4142 19.4142 16.75 19 16.75C18.5858 16.75 18.25 16.4142 18.25 16L18.25 8C18.25 7.58579 18.5858 7.25 19 7.25Z" fill="#020203"/>
</svg>
