<svg width="24" height="24" viewBox="0 0 24 24" fill="none" xmlns="http://www.w3.org/2000/svg">
<path fill-rule="evenodd" clip-rule="evenodd" d="M12 1.25C12.4142 1.25 12.75 1.58579 12.75 2V22C12.75 22.4142 12.4142 22.75 12 22.75C11.5858 22.75 11.25 22.4142 11.25 22V2C11.25 1.58579 11.5858 1.25 12 1.25Z" fill="#020203"/>
<path fill-rule="evenodd" clip-rule="evenodd" d="M8 2.75C5.10051 2.75 2.75 5.10051 2.75 8C2.75 8.41421 2.41421 8.75 2 8.75C1.58579 8.75 1.25 8.41421 1.25 8C1.25 4.27208 4.27208 1.25 8 1.25H16C19.7279 1.25 22.75 4.27208 22.75 8C22.75 8.41421 22.4142 8.75 22 8.75C21.5858 8.75 21.25 8.41421 21.25 8C21.25 5.10051 18.8995 2.75 16 2.75H8Z" fill="#020203"/>
</svg>
