<svg width="24" height="24" viewBox="0 0 24 24" fill="none" xmlns="http://www.w3.org/2000/svg">
<path opacity="0.4" d="M1.5 14.0248V13.6426C1.5 10.9577 3.84376 9.10001 6.225 9.41541V8.36667C6.225 5.1266 8.81056 2.5 12 2.5C15.1894 2.5 17.775 5.1266 17.775 8.36667V9.41541C20.1562 9.10001 22.5 10.9577 22.5 13.6426V14.0248C22.5 16.4964 20.5277 18.5 18.0947 18.5H14.8702C14.6196 17.8266 14.1376 17.2435 13.4946 16.8834C13.9295 16.0029 13.6598 14.9141 12.8246 14.3461C11.9112 13.725 10.6673 13.962 10.0461 14.8754L9.40852 15.8131C8.82669 16.6687 8.75809 17.6542 9.06009 18.5H5.90527C3.47231 18.5 1.5 16.4964 1.5 14.0248Z" fill="#020203"/>
<path fill-rule="evenodd" clip-rule="evenodd" d="M12.1217 15.3798C12.4642 15.6127 12.5531 16.0792 12.3202 16.4217L11.6825 17.3594C11.5697 17.5254 11.6886 17.75 11.8893 17.75H12C13.452 17.75 14.3121 19.3749 13.4956 20.5756L12.9202 21.4217C12.6873 21.7643 12.2208 21.8531 11.8782 21.6202C11.5357 21.3873 11.4469 20.9208 11.6798 20.5783L12.2552 19.7321C12.3945 19.5272 12.2477 19.25 12 19.25H11.8893C10.4843 19.25 9.65211 17.6778 10.4422 16.516L11.0798 15.5783C11.3127 15.2357 11.7792 15.1469 12.1217 15.3798Z" fill="#020203"/>
</svg>
