<svg width="24" height="24" viewBox="0 0 24 24" fill="none" xmlns="http://www.w3.org/2000/svg">
<path fill-rule="evenodd" clip-rule="evenodd" d="M1.25 11.5C1.25 9.1734 1.25 8.0101 1.5559 7.06864C2.17413 5.16591 3.66591 3.67413 5.56864 3.0559C6.5101 2.75 7.6734 2.75 10 2.75H12C14.3266 2.75 15.4899 2.75 16.4314 3.0559C18.3341 3.67413 19.8259 5.16591 20.4441 7.06864C20.75 8.0101 20.75 9.1734 20.75 11.5C20.75 13.8266 20.75 14.9899 20.4441 15.9314C19.8259 17.8341 18.3341 19.3259 16.4314 19.9441C15.4899 20.25 14.3266 20.25 12 20.25H10C7.6734 20.25 6.5101 20.25 5.56864 19.9441C3.66591 19.3259 2.17413 17.8341 1.5559 15.9314C1.25 14.9899 1.25 13.8266 1.25 11.5ZM5.49451 15C5.49451 14.4477 5.94222 14 6.49451 14H6.50349C7.05577 14 7.50349 14.4477 7.50349 15C7.50349 15.5523 7.05577 16 6.50349 16H6.49451C5.94222 16 5.49451 15.5523 5.49451 15ZM10.4945 14C9.94222 14 9.49451 14.4477 9.49451 15C9.49451 15.5523 9.94222 16 10.4945 16H10.5035C11.0558 16 11.5035 15.5523 11.5035 15C11.5035 14.4477 11.0558 14 10.5035 14H10.4945Z" fill="#020203"/>
<path fill-rule="evenodd" clip-rule="evenodd" d="M18 16.75C18.4142 16.75 18.75 17.0858 18.75 17.5L18.75 20.5C18.75 20.9142 18.4142 21.25 18 21.25C17.5858 21.25 17.25 20.9142 17.25 20.5L17.25 17.5C17.25 17.0858 17.5858 16.75 18 16.75Z" fill="#020203"/>
<path fill-rule="evenodd" clip-rule="evenodd" d="M4 16.75C4.41421 16.75 4.75 17.0858 4.75 17.5L4.75 20.5C4.75 20.9142 4.41421 21.25 4 21.25C3.58579 21.25 3.25 20.9142 3.25 20.5L3.25 17.5C3.25 17.0858 3.58579 16.75 4 16.75Z" fill="#020203"/>
<path fill-rule="evenodd" clip-rule="evenodd" d="M18.25 6.5C18.25 6.08579 18.5858 5.75 19 5.75H22C22.4142 5.75 22.75 6.08579 22.75 6.5C22.75 6.91421 22.4142 7.25 22 7.25H19C18.5858 7.25 18.25 6.91421 18.25 6.5Z" fill="#020203"/>
</svg>
