<svg width="24" height="24" viewBox="0 0 24 24" fill="none" xmlns="http://www.w3.org/2000/svg">
<path d="M18 18.5L18 20.5" stroke="#020203" stroke-width="1.5" stroke-linecap="round"/>
<path d="M4 18.5L4 20.5" stroke="#020203" stroke-width="1.5" stroke-linecap="round"/>
<path d="M2 11.5C2 9.17179 2 8.00769 2.34678 7.07795C2.90427 5.58326 4.08326 4.40427 5.57795 3.84678C6.50769 3.5 7.67179 3.5 10 3.5H12C14.3282 3.5 15.4923 3.5 16.4221 3.84678C17.9167 4.40427 19.0957 5.58326 19.6532 7.07795C20 8.00769 20 9.17179 20 11.5C20 13.8282 20 14.9923 19.6532 15.9221C19.0957 17.4167 17.9167 18.5957 16.4221 19.1532C15.4923 19.5 14.3282 19.5 12 19.5H10C7.67179 19.5 6.50769 19.5 5.57795 19.1532C4.08326 18.5957 2.90427 17.4167 2.34678 15.9221C2 14.9923 2 13.8282 2 11.5Z" stroke="#020203" stroke-width="1.5"/>
<path d="M20 6.5H22" stroke="#020203" stroke-width="1.5" stroke-linecap="round"/>
<path d="M6.49451 15H6.50349" stroke="#020203" stroke-width="2" stroke-linecap="round" stroke-linejoin="round"/>
<path d="M10.4945 15H10.5035" stroke="#020203" stroke-width="2" stroke-linecap="round" stroke-linejoin="round"/>
</svg>
