<svg width="24" height="24" viewBox="0 0 24 24" fill="none" xmlns="http://www.w3.org/2000/svg">
<path opacity="0.4" d="M5.0201 5.11775L5.53138 4.78122C7.24897 3.65067 9.37484 3.32713 11.351 3.89552C11.7751 4.01749 12.2249 4.01749 12.649 3.89552C14.6252 3.32713 16.751 3.65067 18.4686 4.78122L18.9799 5.11775C21.3333 6.6668 22.75 9.2954 22.75 12.1128V12.9053C22.75 18.3424 18.3424 22.75 12.9053 22.75H11.0947C5.65763 22.75 1.25 18.3424 1.25 12.9053V12.1128C1.25 9.2954 2.66672 6.6668 5.0201 5.11775Z" fill="#020203"/>
<path fill-rule="evenodd" clip-rule="evenodd" d="M12 1.25C12.4142 1.25 12.75 1.58579 12.75 2L12.75 4C12.75 4.41421 12.4142 4.75 12 4.75C11.5858 4.75 11.25 4.41421 11.25 4L11.25 2C11.25 1.58579 11.5858 1.25 12 1.25Z" fill="#020203"/>
<path fill-rule="evenodd" clip-rule="evenodd" d="M14.6 2.05C14.8485 2.38137 14.7814 2.85147 14.45 3.1L12.45 4.6C12.1186 4.84853 11.6485 4.78137 11.4 4.45C11.1515 4.11863 11.2186 3.64853 11.55 3.4L13.55 1.9C13.8814 1.65147 14.3515 1.71863 14.6 2.05Z" fill="#020203"/>
<path fill-rule="evenodd" clip-rule="evenodd" d="M9.39998 2.05C9.64851 1.71863 10.1186 1.65147 10.45 1.9L12.45 3.4C12.7814 3.64853 12.8485 4.11863 12.6 4.45C12.3515 4.78137 11.8814 4.84853 11.55 4.6L9.54998 3.1C9.21861 2.85147 9.15145 2.38137 9.39998 2.05Z" fill="#020203"/>
<path fill-rule="evenodd" clip-rule="evenodd" d="M12 11.25C12.4142 11.25 12.75 11.5858 12.75 12L12.75 14C12.75 14.4142 12.4142 14.75 12 14.75C11.5858 14.75 11.25 14.4142 11.25 14L11.25 12C11.25 11.5858 11.5858 11.25 12 11.25Z" fill="#020203"/>
<path fill-rule="evenodd" clip-rule="evenodd" d="M10.7442 8.40698C10.7956 8.81799 10.504 9.19283 10.093 9.24421C8.19449 9.48153 6.75 11.0995 6.75 13C6.75 14.9006 8.19449 16.5185 10.093 16.7558C10.504 16.8072 10.7956 17.182 10.7442 17.593C10.6928 18.004 10.318 18.2956 9.90697 18.2442C7.27049 17.9147 5.25 15.6698 5.25 13C5.25 10.3302 7.27049 8.08535 9.90697 7.75579C10.318 7.70442 10.6928 7.99596 10.7442 8.40698Z" fill="#020203"/>
<path fill-rule="evenodd" clip-rule="evenodd" d="M13.2558 8.40698C13.2044 8.81799 13.496 9.19283 13.907 9.24421C15.8055 9.48153 17.25 11.0995 17.25 13C17.25 14.9006 15.8055 16.5185 13.907 16.7558C13.496 16.8072 13.2044 17.182 13.2558 17.593C13.3072 18.004 13.682 18.2956 14.093 18.2442C16.7295 17.9147 18.75 15.6698 18.75 13C18.75 10.3302 16.7295 8.08535 14.093 7.75579C13.682 7.70442 13.3072 7.99596 13.2558 8.40698Z" fill="#020203"/>
</svg>
