<svg width="24" height="24" viewBox="0 0 24 24" fill="none" xmlns="http://www.w3.org/2000/svg">
<path opacity="0.4" fill-rule="evenodd" clip-rule="evenodd" d="M3.25 10.75V11C3.25 13.5612 3.25 14.8417 3.63456 15.8635C4.24319 17.4806 5.51941 18.7568 7.1365 19.3654C8.15826 19.75 9.43884 19.75 12 19.75C14.5612 19.75 15.8417 19.75 16.8635 19.3654C18.4806 18.7568 19.7568 17.4806 20.3654 15.8635C20.75 14.8417 20.75 13.5612 20.75 11V10.75H12.0155L12 10.7502L11.9845 10.75H3.25Z" fill="#020203"/>
<path fill-rule="evenodd" clip-rule="evenodd" d="M8.49451 14.5C8.49451 13.9477 8.94222 13.5 9.49451 13.5H9.50349C10.0558 13.5 10.5035 13.9477 10.5035 14.5C10.5035 15.0523 10.0558 15.5 9.50349 15.5H9.49451C8.94222 15.5 8.49451 15.0523 8.49451 14.5Z" fill="#020203"/>
<path fill-rule="evenodd" clip-rule="evenodd" d="M13.4926 14.5C13.4926 13.9477 13.9403 13.5 14.4926 13.5H14.5015C15.0538 13.5 15.5015 13.9477 15.5015 14.5C15.5015 15.0523 15.0538 15.5 14.5015 15.5H14.4926C13.9403 15.5 13.4926 15.0523 13.4926 14.5Z" fill="#020203"/>
<path d="M12.75 9.25007H20.7496C20.7459 7.1785 20.7105 6.05335 20.3654 5.13657C19.7568 3.51948 18.4806 2.24327 16.8635 1.63464C15.9467 1.28958 14.8216 1.25413 12.75 1.25049V9.25007Z" fill="#020203"/>
<path d="M7.13649 1.63464C8.05328 1.28958 9.17842 1.25413 11.25 1.25049V9.25007H3.25041C3.25405 7.1785 3.28951 6.05335 3.63456 5.13657C4.24319 3.51948 5.5194 2.24327 7.13649 1.63464Z" fill="#020203"/>
<path opacity="0.4" fill-rule="evenodd" clip-rule="evenodd" d="M9.25 22C9.25 21.5858 9.58579 21.25 10 21.25H14C14.4142 21.25 14.75 21.5858 14.75 22C14.75 22.4142 14.4142 22.75 14 22.75H10C9.58579 22.75 9.25 22.4142 9.25 22Z" fill="#020203"/>
<path fill-rule="evenodd" clip-rule="evenodd" d="M15.584 18.376C15.9286 18.1462 16.3943 18.2393 16.624 18.584L18.624 21.584C18.8538 21.9286 18.7607 22.3943 18.416 22.624C18.0714 22.8538 17.6057 22.7607 17.376 22.416L15.376 19.416C15.1462 19.0714 15.2393 18.6057 15.584 18.376Z" fill="#020203"/>
<path fill-rule="evenodd" clip-rule="evenodd" d="M8.41603 18.376C8.76067 18.6057 8.85381 19.0714 8.62404 19.416L6.62404 22.416C6.39428 22.7607 5.92862 22.8538 5.58398 22.624C5.23933 22.3943 5.1462 21.9286 5.37597 21.584L7.37597 18.584C7.60573 18.2393 8.07138 18.1462 8.41603 18.376Z" fill="#020203"/>
</svg>
