<svg width="24" height="24" viewBox="0 0 24 24" fill="none" xmlns="http://www.w3.org/2000/svg">
<path d="M16 19L18 22" stroke="#020203" stroke-width="1.5" stroke-linecap="round"/>
<path d="M8 19L6 22" stroke="#020203" stroke-width="1.5" stroke-linecap="round"/>
<path d="M4 10C4 7.43639 4 6.15458 4.43805 5.15057C4.96769 3.93661 5.93661 2.96769 7.15057 2.43805C8.15458 2 9.43639 2 12 2C14.5636 2 15.8454 2 16.8494 2.43805C18.0634 2.96769 19.0323 3.93661 19.562 5.15057C20 6.15458 20 7.43639 20 10V11C20 13.5636 20 14.8454 19.562 15.8494C19.0323 17.0634 18.0634 18.0323 16.8494 18.562C15.8454 19 14.5636 19 12 19C9.43639 19 8.15458 19 7.15057 18.562C5.93661 18.0323 4.96769 17.0634 4.43805 15.8494C4 14.8454 4 13.5636 4 11V10Z" stroke="#020203" stroke-width="1.5"/>
<path d="M12 2L12 10" stroke="#020203" stroke-width="1.5" stroke-linecap="round"/>
<path d="M10 22H14" stroke="#020203" stroke-width="1.5" stroke-linecap="round"/>
<path d="M4 10H20" stroke="#020203" stroke-width="1.5" stroke-linecap="round"/>
<path d="M9.49451 14.5H9.50349" stroke="#020203" stroke-width="2" stroke-linecap="round" stroke-linejoin="round"/>
<path d="M14.4926 14.5H14.5015" stroke="#020203" stroke-width="2" stroke-linecap="round" stroke-linejoin="round"/>
</svg>
