<svg width="24" height="24" viewBox="0 0 24 24" fill="none" xmlns="http://www.w3.org/2000/svg">
<path opacity="0.4" d="M7 20.5L7 22" stroke="#020203" stroke-width="1.5" stroke-linecap="round"/>
<path d="M5 12C5 10.1387 5 9.20808 5.24472 8.45492C5.73931 6.93273 6.93273 5.73931 8.45492 5.24472C9.20808 5 10.1387 5 12 5C13.8613 5 14.7919 5 15.5451 5.24472C17.0673 5.73931 18.2607 6.93273 18.7553 8.45492C19 9.20808 19 10.1387 19 12V14C19 15.8613 19 16.7919 18.7553 17.5451C18.2607 19.0673 17.0673 20.2607 15.5451 20.7553C14.7919 21 13.8613 21 12 21C10.1387 21 9.20808 21 8.45492 20.7553C6.93273 20.2607 5.73931 19.0673 5.24472 17.5451C5 16.7919 5 15.8613 5 14V12Z" stroke="#020203" stroke-width="1.5"/>
<path d="M9 17H10" stroke="#020203" stroke-width="1.5" stroke-linecap="round"/>
<path d="M14 17H15" stroke="#020203" stroke-width="1.5" stroke-linecap="round"/>
<path d="M5 13L19 13" stroke="#020203" stroke-width="1.5" stroke-linecap="round"/>
<path opacity="0.4" d="M17 20.5L17 22" stroke="#020203" stroke-width="1.5" stroke-linecap="round"/>
<path opacity="0.4" d="M13 2L15 5" stroke="#020203" stroke-width="1.5" stroke-linecap="round"/>
<path d="M8 2C11.1111 2 12.8889 2 16 2" stroke="#020203" stroke-width="1.5" stroke-linecap="round"/>
<path opacity="0.4" d="M11 2L9 5" stroke="#020203" stroke-width="1.5" stroke-linecap="round"/>
</svg>
