<svg width="24" height="24" viewBox="0 0 24 24" fill="none" xmlns="http://www.w3.org/2000/svg">
<path d="M4.46323 8.44867C4.25 9.20968 4.25 10.1398 4.25 12V12.25H19.75V12C19.75 10.1398 19.75 9.20968 19.5368 8.44867C18.9951 6.51553 17.4845 5.00486 15.5513 4.46323C14.7903 4.25 13.8602 4.25 12 4.25C10.1398 4.25 9.20968 4.25 8.44867 4.46323C6.51553 5.00486 5.00486 6.51553 4.46323 8.44867Z" fill="#020203"/>
<path opacity="0.4" d="M19.75 13.75H4.25V14C4.25 15.8602 4.25 16.7903 4.46323 17.5513C5.00486 19.4845 6.51553 20.9951 8.44867 21.5368C9.20968 21.75 10.1398 21.75 12 21.75C13.8602 21.75 14.7903 21.75 15.5513 21.5368C17.4845 20.9951 18.9951 19.4845 19.5368 17.5513C19.75 16.7903 19.75 15.8602 19.75 14V13.75Z" fill="#020203"/>
<path fill-rule="evenodd" clip-rule="evenodd" d="M8.25 17C8.25 16.5858 8.58579 16.25 9 16.25H10C10.4142 16.25 10.75 16.5858 10.75 17C10.75 17.4142 10.4142 17.75 10 17.75H9C8.58579 17.75 8.25 17.4142 8.25 17Z" fill="#020203"/>
<path fill-rule="evenodd" clip-rule="evenodd" d="M13.25 17C13.25 16.5858 13.5858 16.25 14 16.25H15C15.4142 16.25 15.75 16.5858 15.75 17C15.75 17.4142 15.4142 17.75 15 17.75H14C13.5858 17.75 13.25 17.4142 13.25 17Z" fill="#020203"/>
<path fill-rule="evenodd" clip-rule="evenodd" d="M7 19.25C7.41421 19.25 7.75 19.5858 7.75 20L7.75 22C7.75 22.4142 7.41421 22.75 7 22.75C6.58579 22.75 6.25 22.4142 6.25 22L6.25 20C6.25 19.5858 6.58579 19.25 7 19.25Z" fill="#020203"/>
<path fill-rule="evenodd" clip-rule="evenodd" d="M17 19.25C17.4142 19.25 17.75 19.5858 17.75 20L17.75 22C17.75 22.4142 17.4142 22.75 17 22.75C16.5858 22.75 16.25 22.4142 16.25 22L16.25 20C16.25 19.5858 16.5858 19.25 17 19.25Z" fill="#020203"/>
<path fill-rule="evenodd" clip-rule="evenodd" d="M12.584 1.37597C12.9286 1.1462 13.3943 1.23933 13.624 1.58398L15.6125 4.56666L16.35 5.55C16.5985 5.88137 16.5314 6.35148 16.2 6.6C15.8686 6.84853 15.3985 6.78137 15.15 6.45L14.3875 5.43335L12.376 2.41603C12.1462 2.07138 12.2393 1.60573 12.584 1.37597Z" fill="#020203"/>
<path fill-rule="evenodd" clip-rule="evenodd" d="M7.25 2C7.25 1.58579 7.58579 1.25 8 1.25H16C16.4142 1.25 16.75 1.58579 16.75 2C16.75 2.41421 16.4142 2.75 16 2.75H8C7.58579 2.75 7.25 2.41421 7.25 2Z" fill="#020203"/>
<path fill-rule="evenodd" clip-rule="evenodd" d="M11.416 1.37597C11.7607 1.60573 11.8538 2.07138 11.624 2.41603L9.61249 5.43335L8.85 6.45C8.60147 6.78137 8.13137 6.84853 7.8 6.6C7.46863 6.35148 7.40147 5.88137 7.65 5.55L8.38751 4.56666L10.376 1.58398C10.6057 1.23933 11.0714 1.1462 11.416 1.37597Z" fill="#020203"/>
</svg>
