<svg width="24" height="24" viewBox="0 0 24 24" fill="none" xmlns="http://www.w3.org/2000/svg">
<path fill-rule="evenodd" clip-rule="evenodd" d="M4.57159 8.72911L5.2763 15.9043C5.42241 17.392 5.49547 18.1358 5.72242 18.7452C6.28915 20.2668 7.55944 21.4184 9.12913 21.8337C9.75774 22 10.5051 22 12 22C13.4948 22 14.2422 22 14.8708 21.8337C16.4405 21.4184 17.7108 20.2667 18.2775 18.7452C18.5045 18.1358 18.5775 17.392 18.7236 15.9043L19.4286 8.72593C16.6434 8.24262 14.3475 8.00008 12.039 8H12.0366C9.7284 8.00008 7.40735 8.24256 4.57159 8.72911ZM10.7498 12C10.7498 11.5858 10.414 11.25 9.99982 11.25C9.5856 11.25 9.24982 11.5858 9.24982 12V16C9.24982 16.4142 9.5856 16.75 9.99982 16.75C10.414 16.75 10.7498 16.4142 10.7498 16V12ZM13.9998 11.25C14.414 11.25 14.7498 11.5858 14.7498 12V16C14.7498 16.4142 14.414 16.75 13.9998 16.75C13.5856 16.75 13.2498 16.4142 13.2498 16V12C13.2498 11.5858 13.5856 11.25 13.9998 11.25Z" fill="#020203"/>
<path fill-rule="evenodd" clip-rule="evenodd" d="M18.4527 7.3358C14.1803 6.62374 9.81964 6.62374 5.54734 7.3358L3.12329 7.7398C2.71472 7.8079 2.3283 7.53188 2.2602 7.12331C2.1921 6.71473 2.46812 6.32831 2.8767 6.26021L5.30074 5.85621C9.73632 5.11694 14.2637 5.11694 18.6993 5.85621L21.1233 6.26021C21.5319 6.32831 21.8079 6.71473 21.7398 7.12331C21.6717 7.53188 21.2853 7.8079 20.8767 7.7398L18.4527 7.3358Z" fill="#020203"/>
<path fill-rule="evenodd" clip-rule="evenodd" d="M12 2.75C10.2051 2.75 8.75 4.20507 8.75 6C8.75 6.41421 8.41421 6.75 8 6.75C7.58579 6.75 7.25 6.41421 7.25 6C7.25 3.37665 9.37665 1.25 12 1.25C14.6234 1.25 16.75 3.37665 16.75 6C16.75 6.41421 16.4142 6.75 16 6.75C15.5858 6.75 15.25 6.41421 15.25 6C15.25 4.20507 13.7949 2.75 12 2.75Z" fill="#020203"/>
</svg>
