<svg width="24" height="24" viewBox="0 0 24 24" fill="none" xmlns="http://www.w3.org/2000/svg">
<path d="M11.3958 4.11H12.6042C19.188 4.11 22.5851 11.9789 18.07 16.7705C17.857 16.9965 17.6264 17.2051 17.3802 17.3944L15.4993 18.8414C14.8409 19.3478 14.2997 19.9905 13.9129 20.7256C13.1025 22.2654 10.8976 22.2654 10.0872 20.7256C9.70031 19.9905 9.15916 19.3478 8.50079 18.8414L6.6198 17.3944C6.37367 17.2051 6.14303 16.9965 5.93008 16.7705C1.41493 11.9789 4.81207 4.11 11.3958 4.11Z" stroke="#020203" stroke-width="1.5" stroke-linecap="round"/>
<path d="M12 2.11L12 4.11" stroke="#020203" stroke-width="1.5" stroke-linecap="round"/>
<path d="M14 2.11L12 4.11" stroke="#020203" stroke-width="1.5" stroke-linecap="round"/>
<path d="M10 2.11L12 4.11" stroke="#020203" stroke-width="1.5" stroke-linecap="round"/>
</svg>
