<svg width="24" height="24" viewBox="0 0 24 24" fill="none" xmlns="http://www.w3.org/2000/svg">
<path d="M11.3879 3.36H12.6121C20.2404 3.36 23.7649 12.8393 17.9896 17.823L14.9353 20.6081C14.716 20.808 14.5308 21.0424 14.387 21.3019C13.348 23.1771 10.652 23.1771 9.61301 21.3019C9.46919 21.0424 9.284 20.808 9.06474 20.6081L6.01042 17.823C0.235064 12.8393 3.75958 3.36 11.3879 3.36Z" fill="#020203"/>
<path fill-rule="evenodd" clip-rule="evenodd" d="M12 1.36C12.4142 1.36 12.75 1.69579 12.75 2.11L12.75 4.11C12.75 4.52421 12.4142 4.86 12 4.86C11.5858 4.86 11.25 4.52421 11.25 4.11L11.25 2.11C11.25 1.69579 11.5858 1.36 12 1.36Z" fill="#020203"/>
<path fill-rule="evenodd" clip-rule="evenodd" d="M14.5303 1.57967C14.8232 1.87256 14.8232 2.34744 14.5303 2.64033L12.5303 4.64033C12.2374 4.93322 11.7626 4.93322 11.4697 4.64033C11.1768 4.34744 11.1768 3.87256 11.4697 3.57967L13.4697 1.57967C13.7626 1.28678 14.2374 1.28678 14.5303 1.57967Z" fill="#020203"/>
<path fill-rule="evenodd" clip-rule="evenodd" d="M9.46967 1.57967C9.76256 1.28678 10.2374 1.28678 10.5303 1.57967L12.5303 3.57967C12.8232 3.87256 12.8232 4.34744 12.5303 4.64033C12.2374 4.93322 11.7626 4.93322 11.4697 4.64033L9.46967 2.64033C9.17678 2.34744 9.17678 1.87256 9.46967 1.57967Z" fill="#020203"/>
</svg>
