<svg width="24" height="24" viewBox="0 0 24 24" fill="none" xmlns="http://www.w3.org/2000/svg">
<path fill-rule="evenodd" clip-rule="evenodd" d="M14.5303 1.46967C14.8232 1.76256 14.8232 2.23744 14.5303 2.53033L12.5303 4.53033C12.2374 4.82322 11.7626 4.82322 11.4697 4.53033C11.1768 4.23744 11.1768 3.76256 11.4697 3.46967L13.4697 1.46967C13.7626 1.17678 14.2374 1.17678 14.5303 1.46967Z" fill="#020203"/>
<path fill-rule="evenodd" clip-rule="evenodd" d="M9.46967 1.46967C9.76256 1.17678 10.2374 1.17678 10.5303 1.46967L12.5303 3.46967C12.8232 3.76256 12.8232 4.23744 12.5303 4.53033C12.2374 4.82322 11.7626 4.82322 11.4697 4.53033L9.46967 2.53033C9.17678 2.23744 9.17678 1.76256 9.46967 1.46967Z" fill="#020203"/>
<path fill-rule="evenodd" clip-rule="evenodd" d="M1.25 12.5C1.25 10.1742 1.25 9.01127 1.53357 8.06408C2.18512 5.88774 3.88774 4.18512 6.06408 3.53357C7.01127 3.25 8.17418 3.25 10.5 3.25H13.5C15.8258 3.25 16.9887 3.25 17.9359 3.53357C20.1123 4.18512 21.8149 5.88774 22.4664 8.06408C22.75 9.01127 22.75 10.1742 22.75 12.5C22.75 14.8258 22.75 15.9887 22.4664 16.9359C21.8149 19.1123 20.1123 20.8149 17.9359 21.4664C16.9887 21.75 15.8258 21.75 13.5 21.75H10.5C8.17418 21.75 7.01127 21.75 6.06408 21.4664C3.88774 20.8149 2.18512 19.1123 1.53357 16.9359C1.25 15.9887 1.25 14.8258 1.25 12.5ZM13.5303 8.46967C13.8232 8.76256 13.8232 9.23744 13.5303 9.53033L10.5303 12.5303C10.2374 12.8232 9.76256 12.8232 9.46967 12.5303C9.17678 12.2374 9.17678 11.7626 9.46967 11.4697L12.4697 8.46967C12.7626 8.17678 13.2374 8.17678 13.5303 8.46967ZM14.5303 13.5303C14.8232 13.2374 14.8232 12.7626 14.5303 12.4697C14.2374 12.1768 13.7626 12.1768 13.4697 12.4697L10.4697 15.4697C10.1768 15.7626 10.1768 16.2374 10.4697 16.5303C10.7626 16.8232 11.2374 16.8232 11.5303 16.5303L14.5303 13.5303Z" fill="#020203"/>
<path fill-rule="evenodd" clip-rule="evenodd" d="M18 19.25C18.4142 19.25 18.75 19.5858 18.75 20L18.75 22C18.75 22.4142 18.4142 22.75 18 22.75C17.5858 22.75 17.25 22.4142 17.25 22L17.25 20C17.25 19.5858 17.5858 19.25 18 19.25Z" fill="#020203"/>
<path fill-rule="evenodd" clip-rule="evenodd" d="M6 19.25C6.41421 19.25 6.75 19.5858 6.75 20L6.75 22C6.75 22.4142 6.41421 22.75 6 22.75C5.58579 22.75 5.25 22.4142 5.25 22L5.25 20C5.25 19.5858 5.58579 19.25 6 19.25Z" fill="#020203"/>
</svg>
