<svg width="24" height="24" viewBox="0 0 24 24" fill="none" xmlns="http://www.w3.org/2000/svg">
<path opacity="0.4" fill-rule="evenodd" clip-rule="evenodd" d="M3.25 8C3.25 7.58579 3.58579 7.25 4 7.25H15.0106C18.6713 7.25 21.7502 9.9893 21.7502 13.5C21.7502 17.0107 18.6713 19.75 15.0106 19.75H7C6.58579 19.75 6.25 19.4142 6.25 19C6.25 18.5858 6.58579 18.25 7 18.25H15.0106C17.9658 18.25 20.2502 16.0644 20.2502 13.5C20.2502 10.9356 17.9658 8.75 15.0106 8.75H4C3.58579 8.75 3.25 8.41421 3.25 8Z" fill="#020203"/>
<path fill-rule="evenodd" clip-rule="evenodd" d="M5.90924 4.46967C6.20213 4.76256 6.20213 5.23744 5.90924 5.53033L3.9699 7.46967C3.67701 7.76256 3.67701 8.23744 3.9699 8.53033L5.90924 10.4697C6.20213 10.7626 6.20213 11.2374 5.90924 11.5303C5.61634 11.8232 5.14147 11.8232 4.84858 11.5303L2.90924 9.59099C2.03056 8.71231 2.03056 7.28769 2.90924 6.40901L4.84858 4.46967C5.14147 4.17678 5.61635 4.17678 5.90924 4.46967Z" fill="#020203"/>
</svg>
