<svg width="24" height="24" viewBox="0 0 24 24" fill="none" xmlns="http://www.w3.org/2000/svg">
<path fill-rule="evenodd" clip-rule="evenodd" d="M8.03033 5.96967C7.73744 5.67678 7.26256 5.67678 6.96967 5.96967L5.03033 7.90901C4.73744 8.2019 4.26256 8.2019 3.96967 7.90901C3.67678 7.61612 3.67678 7.14124 3.96967 6.84835L5.90901 4.90901C6.78769 4.03033 8.21231 4.03033 9.09099 4.90901L11.0303 6.84835C11.3232 7.14124 11.3232 7.61612 11.0303 7.90901C10.7374 8.2019 10.2626 8.2019 9.96967 7.90901L8.03033 5.96967Z" fill="#020203"/>
<path fill-rule="evenodd" clip-rule="evenodd" d="M7.5 5.25C7.91421 5.25 8.25 5.58579 8.25 6V19C8.25 19.4142 7.91421 19.75 7.5 19.75C7.08579 19.75 6.75 19.4142 6.75 19V6C6.75 5.58579 7.08579 5.25 7.5 5.25Z" fill="#020203"/>
<path fill-rule="evenodd" clip-rule="evenodd" d="M12.9697 16.0897C13.2626 15.7968 13.7374 15.7968 14.0303 16.0897L15.9697 18.029C16.2626 18.3219 16.7374 18.3219 17.0303 18.029L18.9697 16.0897C19.2626 15.7968 19.7374 15.7968 20.0303 16.0897C20.3232 16.3826 20.3232 16.8574 20.0303 17.1503L18.091 19.0897C17.2123 19.9683 15.7877 19.9683 14.909 19.0897L12.9697 17.1503C12.6768 16.8574 12.6768 16.3826 12.9697 16.0897Z" fill="#020203"/>
<path fill-rule="evenodd" clip-rule="evenodd" d="M16.5 4.25C16.9142 4.25 17.25 4.58579 17.25 5L17.25 18C17.25 18.4142 16.9142 18.75 16.5 18.75C16.0858 18.75 15.75 18.4142 15.75 18L15.75 5C15.75 4.58579 16.0858 4.25 16.5 4.25Z" fill="#020203"/>
</svg>
