<svg width="24" height="24" viewBox="0 0 24 24" fill="none" xmlns="http://www.w3.org/2000/svg">
<path opacity="0.4" fill-rule="evenodd" clip-rule="evenodd" d="M7.38054 7.38044C7.67344 7.08754 8.14831 7.08754 8.4412 7.38044L17.4412 16.3804C17.7341 16.6733 17.7341 17.1482 17.4412 17.4411C17.1483 17.734 16.6734 17.734 16.3805 17.4411L7.38054 8.4411C7.08765 8.1482 7.08765 7.67333 7.38054 7.38044Z" fill="#020203"/>
<path fill-rule="evenodd" clip-rule="evenodd" d="M10.2502 6.32945L14.1517 6.32945C14.5659 6.32945 14.9017 6.66524 14.9017 7.07945C14.9017 7.49367 14.5659 7.82945 14.1517 7.82945L10.2806 7.82945C9.70817 7.82945 9.32396 7.83004 9.02808 7.85421C8.74096 7.87767 8.60368 7.91955 8.51312 7.9657C8.27791 8.08554 8.08669 8.27676 7.96685 8.51196C7.9207 8.60253 7.87882 8.73981 7.85536 9.02693C7.83119 9.32281 7.83061 9.70702 7.83061 10.2795L7.83061 14.1505C7.83061 14.5647 7.49482 14.9005 7.08061 14.9005C6.66639 14.9005 6.33061 14.5647 6.33061 14.1505L6.3306 10.249C6.33059 9.71486 6.33059 9.26902 6.36034 8.90478C6.39138 8.5249 6.45849 8.16824 6.63034 7.83098C6.89399 7.31353 7.31469 6.89284 7.83213 6.62919C8.16939 6.45734 8.52605 6.39023 8.90593 6.35919C9.27017 6.32943 9.71602 6.32944 10.2502 6.32945Z" fill="#020203"/>
</svg>
