<svg width="24" height="24" viewBox="0 0 24 24" fill="none" xmlns="http://www.w3.org/2000/svg">
<path opacity="0.4" fill-rule="evenodd" clip-rule="evenodd" d="M16.6104 7.37992C16.9033 7.67281 16.9033 8.14768 16.6104 8.44058L7.61041 17.4406C7.31752 17.7335 6.84264 17.7335 6.54975 17.4406C6.25685 17.1477 6.25685 16.6728 6.54975 16.3799L15.5497 7.37992C15.8426 7.08702 16.3175 7.08702 16.6104 7.37992Z" fill="#020203"/>
<path fill-rule="evenodd" clip-rule="evenodd" d="M14.9639 7.85476C14.668 7.83059 14.2838 7.83 13.7114 7.83L9.84033 7.83C9.42612 7.83 9.09033 7.49422 9.09033 7.08C9.09033 6.66579 9.42612 6.33 9.84033 6.33L13.7418 6.33C14.276 6.32999 14.7218 6.32998 15.0861 6.35974C15.466 6.39078 15.8226 6.45789 16.1599 6.62973C16.6773 6.89339 17.098 7.31408 17.3617 7.83153C17.5335 8.16879 17.6006 8.52545 17.6317 8.90533C17.6614 9.26957 17.6614 9.71541 17.6614 10.2496V14.1511C17.6614 14.5653 17.3256 14.9011 16.9114 14.9011C16.4972 14.9011 16.1614 14.5653 16.1614 14.1511L16.1614 10.28C16.1614 9.70757 16.1608 9.32336 16.1366 9.02748C16.1132 8.74036 16.0713 8.60308 16.0252 8.51251C15.9053 8.27731 15.7141 8.08609 15.4789 7.96624C15.3883 7.9201 15.251 7.87822 14.9639 7.85476Z" fill="#020203"/>
</svg>
