<svg width="24" height="24" viewBox="0 0 24 24" fill="none" xmlns="http://www.w3.org/2000/svg">
<path d="M4.25 7.5C4.25 10.9518 7.04822 13.75 10.5 13.75C13.9518 13.75 16.75 10.9518 16.75 7.5C16.75 4.04822 13.9518 1.25 10.5 1.25C7.04822 1.25 4.25 4.04822 4.25 7.5Z" fill="#020203"/>
<path d="M12.8334 22.75C11.414 21.6527 10.5 19.9332 10.5 18.0003C10.5 17.0277 10.7314 16.1092 11.1422 15.2968C7.92751 15.6491 5.22022 17.9598 4.40732 21.151L4 22.75H12.8334Z" fill="#020203"/>
<path fill-rule="evenodd" clip-rule="evenodd" d="M11.75 18C11.75 20.6234 13.8766 22.75 16.5 22.75C19.1234 22.75 21.25 20.6234 21.25 18C21.25 15.3766 19.1234 13.25 16.5 13.25C13.8766 13.25 11.75 15.3766 11.75 18ZM18.0303 16.4697C18.3232 16.7626 18.3232 17.2374 18.0303 17.5303L17.5607 18L18.0303 18.4697C18.3232 18.7626 18.3232 19.2374 18.0303 19.5303C17.7374 19.8232 17.2626 19.8232 16.9697 19.5303L16.5 19.0607L16.0303 19.5303C15.7374 19.8232 15.2626 19.8232 14.9697 19.5303C14.6768 19.2374 14.6768 18.7626 14.9697 18.4697L15.4393 18L14.9697 17.5303C14.6768 17.2374 14.6768 16.7626 14.9697 16.4697C15.2626 16.1768 15.7374 16.1768 16.0303 16.4697L16.5 16.9393L16.9697 16.4697C17.2626 16.1768 17.7374 16.1768 18.0303 16.4697Z" fill="#020203"/>
</svg>
