<svg width="24" height="24" viewBox="0 0 24 24" fill="none" xmlns="http://www.w3.org/2000/svg">
<path d="M3.5 7.5C3.5 10.5376 5.96243 13 9 13C12.0376 13 14.5 10.5376 14.5 7.5C14.5 4.46243 12.0376 2 9 2C5.96243 2 3.5 4.46243 3.5 7.5Z" stroke="#020203" stroke-width="1.5" stroke-linecap="round"/>
<path d="M16 2.09069C18.5601 2.56095 20.5 4.80393 20.5 7.5C20.5 10.1961 18.5601 12.4391 16 12.9093" stroke="#020203" stroke-width="1.5" stroke-linecap="round"/>
<path opacity="0.4" d="M2 22L2.16605 21.3358C2.95002 18.1999 5.76761 16 9 16C12.2324 16 15.05 18.1999 15.8339 21.3358L16 22" stroke="#020203" stroke-width="1.5" stroke-linecap="round" stroke-linejoin="round"/>
<path opacity="0.4" d="M22 22L21.8339 21.3358C21.2175 18.8702 19.3439 16.9832 17 16.2892" stroke="#020203" stroke-width="1.5" stroke-linecap="round" stroke-linejoin="round"/>
</svg>
