<svg width="24" height="24" viewBox="0 0 24 24" fill="none" xmlns="http://www.w3.org/2000/svg">
<path d="M5 7.5C5 10.5376 7.46243 13 10.5 13C13.5376 13 16 10.5376 16 7.5C16 4.46243 13.5376 2 10.5 2C7.46243 2 5 4.46243 5 7.5Z" stroke="#020203" stroke-width="1.5" stroke-linecap="round"/>
<path d="M12.5 18C12.5 20.2091 14.2909 22 16.5 22C18.7091 22 20.5 20.2091 20.5 18C20.5 15.7909 18.7091 14 16.5 14C14.2909 14 12.5 15.7909 12.5 18Z" stroke="#020203" stroke-width="1.5" stroke-linecap="round"/>
<path d="M17.5 17L15.5 19" stroke="#020203" stroke-width="1.5" stroke-linecap="round" stroke-linejoin="round"/>
<path d="M15.5 17L17.5 19" stroke="#020203" stroke-width="1.5" stroke-linecap="round" stroke-linejoin="round"/>
<path d="M3.5 22L3.66605 21.3358C4.45002 18.1999 7.26761 16 10.5 16C11.1909 16 11.8628 16.1005 12.5 16.2892" stroke="#020203" stroke-width="1.5" stroke-linecap="round" stroke-linejoin="round"/>
</svg>
