<svg width="24" height="24" viewBox="0 0 24 24" fill="none" xmlns="http://www.w3.org/2000/svg">
<path d="M4.25 7.5C4.25 10.9518 7.04822 13.75 10.5 13.75C13.9518 13.75 16.75 10.9518 16.75 7.5C16.75 4.04822 13.9518 1.25 10.5 1.25C7.04822 1.25 4.25 4.04822 4.25 7.5Z" fill="#020203"/>
<path opacity="0.4" d="M12.8334 22.75C11.414 21.6527 10.5 19.9332 10.5 18.0003C10.5 17.0277 10.7314 16.1092 11.1422 15.2968C7.92751 15.6491 5.22022 17.9598 4.40732 21.151L4 22.75H12.8334Z" fill="#020203"/>
<path fill-rule="evenodd" clip-rule="evenodd" d="M16.5 22.75C13.8766 22.75 11.75 20.6234 11.75 18C11.75 15.3766 13.8766 13.25 16.5 13.25C19.1234 13.25 21.25 15.3766 21.25 18C21.25 20.6234 19.1234 22.75 16.5 22.75ZM18.5303 18.0303C18.8232 17.7374 18.8232 17.2626 18.5303 16.9697C18.2374 16.6768 17.7626 16.6768 17.4697 16.9697L16.6036 17.8358C16.4083 18.031 16.0917 18.031 15.8964 17.8358L15.5303 17.4697C15.2374 17.1768 14.7626 17.1768 14.4697 17.4697C14.1768 17.7626 14.1768 18.2374 14.4697 18.5303L14.8358 18.8964C15.6168 19.6775 16.8832 19.6775 17.6642 18.8964L18.5303 18.0303Z" fill="#020203"/>
</svg>
