<svg width="24" height="24" viewBox="0 0 24 24" fill="none" xmlns="http://www.w3.org/2000/svg">
<path d="M3 7.5C3 10.9518 5.79822 13.75 9.25 13.75C12.7018 13.75 15.5 10.9518 15.5 7.5C15.5 4.04822 12.7018 1.25 9.25 1.25C5.79822 1.25 3 4.04822 3 7.5Z" fill="#020203"/>
<path d="M13.7607 13.6729C15.7177 12.3195 16.9998 10.0595 16.9998 7.5C16.9998 4.94051 15.7177 2.68048 13.7607 1.32708C14.0814 1.27635 14.4102 1.25 14.7451 1.25C18.1969 1.25 20.9951 4.04822 20.9951 7.5C20.9951 10.9518 18.1969 13.75 14.7451 13.75C14.4102 13.75 14.0814 13.7237 13.7607 13.6729Z" fill="#020203"/>
<path d="M1.65732 21.151L1.25 22.75H17.25L16.8425 21.1506C15.9581 17.6794 12.8321 15.25 9.24996 15.25C5.66768 15.25 2.54161 17.6796 1.65732 21.151Z" fill="#020203"/>
<path d="M18.7346 22.75L18.3537 20.9564C17.7858 18.2813 15.8359 16.1932 13.3475 15.3751C13.8026 15.2928 14.2698 15.25 14.7451 15.25C18.3272 15.25 21.4532 17.6794 22.3376 21.1506L22.7451 22.75H18.7346Z" fill="#020203"/>
</svg>
