<svg width="24" height="24" viewBox="0 0 24 24" fill="none" xmlns="http://www.w3.org/2000/svg">
<path fill-rule="evenodd" clip-rule="evenodd" d="M2 12C2 11.5858 2.33579 11.25 2.75 11.25H4.75C5.16421 11.25 5.5 11.5858 5.5 12C5.5 12.4142 5.16421 12.75 4.75 12.75H2.75C2.33579 12.75 2 12.4142 2 12Z" fill="#020203"/>
<path fill-rule="evenodd" clip-rule="evenodd" d="M7.5 12C7.5 11.5858 7.83579 11.25 8.25 11.25H10.25C10.6642 11.25 11 11.5858 11 12C11 12.4142 10.6642 12.75 10.25 12.75H8.25C7.83579 12.75 7.5 12.4142 7.5 12Z" fill="#020203"/>
<path fill-rule="evenodd" clip-rule="evenodd" d="M13 12C13 11.5858 13.3358 11.25 13.75 11.25H15.75C16.1642 11.25 16.5 11.5858 16.5 12C16.5 12.4142 16.1642 12.75 15.75 12.75H13.75C13.3358 12.75 13 12.4142 13 12Z" fill="#020203"/>
<path fill-rule="evenodd" clip-rule="evenodd" d="M18.5 12C18.5 11.5858 18.8358 11.25 19.25 11.25H21.25C21.6642 11.25 22 11.5858 22 12C22 12.4142 21.6642 12.75 21.25 12.75H19.25C18.8358 12.75 18.5 12.4142 18.5 12Z" fill="#020203"/>
<path d="M14.0257 22.75H9.97431C8.12496 22.75 7.06532 20.6428 8.16813 19.1583L10.3945 16.1612C11.1942 15.0848 12.8058 15.0848 13.6055 16.1612L15.8319 19.1583C16.9347 20.6428 15.875 22.75 14.0257 22.75Z" fill="#020203"/>
<path d="M9.97431 1.25H14.0257C15.875 1.25 16.9347 3.35717 15.8319 4.84173L13.6055 7.83877C12.8058 8.91524 11.1942 8.91524 10.3945 7.83877L8.16813 4.84173C7.06532 3.35717 8.12496 1.25 9.97431 1.25Z" fill="#020203"/>
</svg>
