<svg width="24" height="24" viewBox="0 0 24 24" fill="none" xmlns="http://www.w3.org/2000/svg">
<path d="M2.75 12H4.75" stroke="#020203" stroke-width="1.5" stroke-linecap="round"/>
<path d="M8.25 12H10.25" stroke="#020203" stroke-width="1.5" stroke-linecap="round"/>
<path d="M13.75 12H15.75" stroke="#020203" stroke-width="1.5" stroke-linecap="round"/>
<path d="M19.25 12H21.25" stroke="#020203" stroke-width="1.5" stroke-linecap="round"/>
<path d="M14.0852 22H9.91478C8.69473 22 7.98504 20.621 8.69418 19.6281L10.7794 16.7088C11.3776 15.8713 12.6224 15.8713 13.2206 16.7088L15.3058 19.6281C16.015 20.621 15.3053 22 14.0852 22Z" stroke="#020203" stroke-width="1.5" stroke-linecap="round"/>
<path d="M9.91478 2H14.0852C15.3053 2 16.015 3.37905 15.3058 4.37186L13.2206 7.29116C12.6224 8.12868 11.3776 8.12868 10.7794 7.29116L8.69418 4.37186C7.98504 3.37905 8.69473 2 9.91478 2Z" stroke="#020203" stroke-width="1.5" stroke-linecap="round"/>
</svg>
