<svg width="24" height="24" viewBox="0 0 24 24" fill="none" xmlns="http://www.w3.org/2000/svg">
<path opacity="0.4" fill-rule="evenodd" clip-rule="evenodd" d="M5.00438 3.25C5.41859 3.24999 5.75439 3.58577 5.75439 3.99999L5.00439 4L4.25439 4.00001C4.25439 3.5858 4.59017 3.25001 5.00438 3.25ZM5.00439 4L4.25439 4.00001V15.3358C4.25434 16.9216 4.5819 18.3727 5.45606 19.4368C6.35306 20.5288 7.7182 21.0858 9.50462 21.0858H12C12.4142 21.0858 12.75 20.75 12.75 20.3358C12.75 19.9216 12.4142 19.5858 12 19.5858H9.50463C8.04072 19.5858 7.15569 19.1428 6.61513 18.4847C6.05174 17.7989 5.75435 16.7499 5.75439 15.3358V3.99999L5.00439 4Z" fill="#020203"/>
<path fill-rule="evenodd" clip-rule="evenodd" d="M5.53033 4.30994C5.23744 4.01705 4.76256 4.01705 4.46967 4.30994L2.53033 6.24928C2.23744 6.54217 1.76256 6.54217 1.46967 6.24928C1.17678 5.95639 1.17678 5.48151 1.46967 5.18862L3.40901 3.24928C4.28769 2.3706 5.71231 2.3706 6.59099 3.24928L8.53033 5.18862C8.82322 5.48151 8.82322 5.95639 8.53033 6.24928C8.23744 6.54217 7.76256 6.54217 7.46967 6.24928L5.53033 4.30994Z" fill="#020203"/>
<path fill-rule="evenodd" clip-rule="evenodd" d="M11.25 3.66422C11.25 3.25 11.5858 2.91422 12 2.91422H14.5042C16.2906 2.91423 17.6557 3.47121 18.5527 4.56317C19.4269 5.62733 19.7544 7.07839 19.7544 8.66425V19.9997L19.0044 20L18.2544 19.9999V8.6642C18.2544 7.25008 17.9571 6.20114 17.3937 5.5153C16.8531 4.85726 15.9681 4.41423 14.5042 4.41422C14.5042 4.41422 14.5042 4.41422 14.5042 4.41422H12C11.5858 4.41422 11.25 4.07843 11.25 3.66422ZM19.0044 20.75C18.5902 20.75 18.2544 20.4141 18.2544 19.9999L19.0044 20L19.7544 19.9997C19.7544 20.4139 19.4186 20.75 19.0044 20.75Z" fill="#020203"/>
<path fill-rule="evenodd" clip-rule="evenodd" d="M15.4697 17.7497C15.7626 17.4568 16.2374 17.4568 16.5303 17.7497L18.4697 19.689C18.7626 19.9819 19.2374 19.9819 19.5303 19.689L21.4697 17.7497C21.7626 17.4568 22.2374 17.4568 22.5303 17.7497C22.8232 18.0426 22.8232 18.5174 22.5303 18.8103L20.591 20.7497C19.7123 21.6283 18.2877 21.6283 17.409 20.7497L15.4697 18.8103C15.1768 18.5174 15.1768 18.0426 15.4697 17.7497Z" fill="#020203"/>
</svg>
