<svg width="24" height="24" viewBox="0 0 24 24" fill="none" xmlns="http://www.w3.org/2000/svg">
<path fill-rule="evenodd" clip-rule="evenodd" d="M12.5303 5.96967C12.2374 5.67678 11.7626 5.67678 11.4697 5.96967L9.53033 7.90901C9.23744 8.2019 8.76256 8.2019 8.46967 7.90901C8.17678 7.61612 8.17678 7.14124 8.46967 6.84835L10.409 4.90901C11.2877 4.03033 12.7123 4.03033 13.591 4.90901L15.5303 6.84835C15.8232 7.14124 15.8232 7.61612 15.5303 7.90901C15.2374 8.2019 14.7626 8.2019 14.4697 7.90901L12.5303 5.96967Z" fill="#020203"/>
<path fill-rule="evenodd" clip-rule="evenodd" d="M8.46967 16.0897C8.76256 15.7968 9.23744 15.7968 9.53033 16.0897L11.4697 18.029C11.7626 18.3219 12.2374 18.3219 12.5303 18.029L14.4697 16.0897C14.7626 15.7968 15.2374 15.7968 15.5303 16.0897C15.8232 16.3826 15.8232 16.8574 15.5303 17.1503L13.591 19.0897C12.7123 19.9683 11.2877 19.9683 10.409 19.0897L8.46967 17.1503C8.17678 16.8574 8.17678 16.3826 8.46967 16.0897Z" fill="#020203"/>
<path opacity="0.4" fill-rule="evenodd" clip-rule="evenodd" d="M12 5.25C12.4142 5.25 12.75 5.58579 12.75 6L12.75 18C12.75 18.4142 12.4142 18.75 12 18.75C11.5858 18.75 11.25 18.4142 11.25 18L11.25 6C11.25 5.58579 11.5858 5.25 12 5.25Z" fill="#020203"/>
</svg>
