<svg width="24" height="24" viewBox="0 0 24 24" fill="none" xmlns="http://www.w3.org/2000/svg">
<path d="M1.49219 7.25H22.5077C22.4619 7.05377 22.4075 6.86906 22.3429 6.69136C21.6605 4.81644 20.1835 3.33949 18.3086 2.65707C17.1901 2.25 15.7934 2.25 12.9999 2.25H10.9999C8.20647 2.25 6.80974 2.25 5.69131 2.65707C3.81638 3.33949 2.33943 4.81644 1.65702 6.69136C1.59234 6.86906 1.53794 7.05377 1.49219 7.25Z" fill="#020203"/>
<path opacity="0.4" fill-rule="evenodd" clip-rule="evenodd" d="M1.29895 8.75C1.25 9.58273 1.25 10.6212 1.25 12C1.25 14.7935 1.25 16.1902 1.65707 17.3086C2.33949 19.1836 3.81644 20.6605 5.69136 21.3429C6.80979 21.75 8.20653 21.75 11 21.75H13C15.7935 21.75 17.1902 21.75 18.3086 21.3429C20.1836 20.6605 21.6605 19.1836 22.3429 17.3086C22.75 16.1902 22.75 14.7935 22.75 12C22.75 10.6212 22.75 9.58273 22.7011 8.75H1.29895ZM7.5 11.25C5.70507 11.25 4.25 12.7051 4.25 14.5C4.25 16.2949 5.70507 17.75 7.5 17.75H16.5C18.2949 17.75 19.75 16.2949 19.75 14.5C19.75 12.7051 18.2949 11.25 16.5 11.25H7.5Z" fill="#020203"/>
<path d="M16.5 12.75C15.5335 12.75 14.75 13.5335 14.75 14.5C14.75 15.4665 15.5335 16.25 16.5 16.25C17.4665 16.25 18.25 15.4665 18.25 14.5C18.25 13.5335 17.4665 12.75 16.5 12.75Z" fill="#020203"/>
<path d="M10.2391 16.25H13.7609C13.4375 15.7449 13.25 15.1443 13.25 14.5C13.25 13.8557 13.4375 13.2551 13.7609 12.75H10.2391C10.5625 13.2551 10.75 13.8557 10.75 14.5C10.75 15.1443 10.5625 15.7449 10.2391 16.25Z" fill="#020203"/>
<path d="M7.5 16.25C8.4665 16.25 9.25 15.4665 9.25 14.5C9.25 13.5335 8.4665 12.75 7.5 12.75C6.5335 12.75 5.75 13.5335 5.75 14.5C5.75 15.4665 6.5335 16.25 7.5 16.25Z" fill="#020203"/>
</svg>
