<svg width="24" height="24" viewBox="0 0 24 24" fill="none" xmlns="http://www.w3.org/2000/svg">
<path d="M2 12C2 9.19974 2 7.79961 2.54497 6.73005C3.02433 5.78924 3.78924 5.02433 4.73005 4.54497C5.79961 4 7.19974 4 10 4C12.8003 4 14.2004 4 15.27 4.54497C16.2108 5.02433 16.9757 5.78924 17.455 6.73005C18 7.79961 18 9.19974 18 12C18 14.8003 18 16.2004 17.455 17.27C16.9757 18.2108 16.2108 18.9757 15.27 19.455C14.2004 20 12.8003 20 10 20C7.19974 20 5.79961 20 4.73005 19.455C3.78924 18.9757 3.02433 18.2108 2.54497 17.27C2 16.2004 2 14.8003 2 12Z" stroke="#020203" stroke-width="1.5"/>
<path d="M6 10C6 11.1046 6.89543 12 8 12C9.10457 12 10 11.1046 10 10C10 8.89543 9.10457 8 8 8C6.89543 8 6 8.89543 6 10Z" stroke="#020203" stroke-width="1.5" stroke-linecap="round"/>
<path d="M18 14.5L18.94 15.0875C20.2721 15.9201 22 14.9624 22 13.3915V10.6085C22 9.03762 20.2721 8.07994 18.94 8.9125L18 9.5" stroke="#020203" stroke-width="1.5" stroke-linecap="round" stroke-linejoin="round"/>
</svg>
