<svg width="24" height="24" viewBox="0 0 24 24" fill="none" xmlns="http://www.w3.org/2000/svg">
<path fill-rule="evenodd" clip-rule="evenodd" d="M21.5303 2.46967C21.8232 2.76256 21.8232 3.23744 21.5303 3.53033L3.53033 21.5303C3.23744 21.8232 2.76256 21.8232 2.46967 21.5303C2.17678 21.2374 2.17678 20.7626 2.46967 20.4697L20.4697 2.46967C20.7626 2.17678 21.2374 2.17678 21.5303 2.46967Z" fill="#020203"/>
<path fill-rule="evenodd" clip-rule="evenodd" d="M17.9962 10.25C18.4104 10.2485 18.7474 10.5831 18.7489 10.9973C18.75 11.3112 18.75 11.6452 18.75 12V12.0336C18.75 13.4053 18.75 14.4807 18.6794 15.3451C18.6075 16.2252 18.4586 16.9523 18.1233 17.6104C17.572 18.6924 16.6924 19.572 15.6104 20.1233C14.9523 20.4586 14.2252 20.6075 13.3451 20.6794C12.4807 20.75 11.4053 20.75 10.0336 20.75H10C9.64518 20.75 9.31118 20.75 8.99733 20.7489C8.58312 20.7474 8.24853 20.4104 8.25 19.9962C8.25148 19.582 8.58846 19.2474 9.00267 19.2489C9.31336 19.25 9.64457 19.25 10 19.25C11.4125 19.25 12.4268 19.2494 13.2229 19.1844C14.0103 19.12 14.518 18.9964 14.9295 18.7868C15.7291 18.3793 16.3793 17.7291 16.7868 16.9295C16.9964 16.518 17.12 16.0103 17.1844 15.2229C17.2494 14.4268 17.25 13.4125 17.25 12C17.25 11.6446 17.25 11.3134 17.2489 11.0027C17.2474 10.5885 17.582 10.2515 17.9962 10.25Z" fill="#020203"/>
<path d="M6.75 10C6.75 9.30964 7.30964 8.75 8 8.75C8.69036 8.75 9.25 9.30964 9.25 10C9.25 10.6904 8.69036 11.25 8 11.25C7.30964 11.25 6.75 10.6904 6.75 10Z" fill="#020203"/>
<path fill-rule="evenodd" clip-rule="evenodd" d="M1.72603 17.2908C1.25 16.1949 1.25 14.7966 1.25 12C1.25 9.20342 1.25 7.80514 1.72603 6.70919C2.30653 5.37275 3.37275 4.30653 4.70919 3.72603C5.80514 3.25 7.20342 3.25 10 3.25C12.7966 3.25 14.1949 3.25 15.2908 3.72603C16.3812 4.19968 17.2918 4.99669 17.9054 6L4 19.9054C2.99669 19.2918 2.19968 18.3812 1.72603 17.2908ZM8 7.25C6.48122 7.25 5.25 8.48122 5.25 10C5.25 11.5188 6.48122 12.75 8 12.75C9.51878 12.75 10.75 11.5188 10.75 10C10.75 8.48122 9.51878 7.25 8 7.25Z" fill="#020203"/>
<path fill-rule="evenodd" clip-rule="evenodd" d="M22 9.85889C22.4142 9.85889 22.75 10.1947 22.75 10.6089V13.3912L22 13.3919L21.25 13.3919V10.6089C21.25 10.1947 21.5858 9.85889 22 9.85889ZM22.75 13.3912C22.75 15.5511 20.3741 16.8687 18.5425 15.7239L17.6025 15.1364C17.2512 14.9169 17.1444 14.4541 17.364 14.1029C17.5835 13.7516 18.0462 13.6449 18.3975 13.8644L19.3375 14.4519C20.17 14.9722 21.25 14.3737 21.25 13.3919L22 13.3919L22.75 13.3912Z" fill="#020203"/>
</svg>
