<svg width="24" height="24" viewBox="0 0 24 24" fill="none" xmlns="http://www.w3.org/2000/svg">
<path d="M6.75 10C6.75 9.30964 7.30964 8.75 8 8.75C8.69036 8.75 9.25 9.30964 9.25 10C9.25 10.6904 8.69036 11.25 8 11.25C7.30964 11.25 6.75 10.6904 6.75 10Z" fill="#020203"/>
<path fill-rule="evenodd" clip-rule="evenodd" d="M1.72603 6.70919C1.25 7.80514 1.25 9.20342 1.25 12C1.25 14.7966 1.25 16.1949 1.72603 17.2908C2.30653 18.6272 3.37275 19.6935 4.70919 20.274C5.80514 20.75 7.20342 20.75 10 20.75C12.7966 20.75 14.1949 20.75 15.2908 20.274C16.6272 19.6935 17.6935 18.6272 18.274 17.2908C18.75 16.1949 18.75 14.7966 18.75 12C18.75 9.20342 18.75 7.80514 18.274 6.70919C17.6935 5.37275 16.6272 4.30653 15.2908 3.72603C14.1949 3.25 12.7966 3.25 10 3.25C7.20342 3.25 5.80514 3.25 4.70919 3.72603C3.37275 4.30653 2.30653 5.37275 1.72603 6.70919ZM8 7.25C6.48122 7.25 5.25 8.48122 5.25 10C5.25 11.5188 6.48122 12.75 8 12.75C9.51878 12.75 10.75 11.5188 10.75 10C10.75 8.48122 9.51878 7.25 8 7.25Z" fill="#020203"/>
<path d="M20 16.0002C21.4912 16.1097 22.75 15.0174 22.75 13.3813V10.6187C22.75 8.98261 21.4913 7.89039 20 7.99994C20 8.99994 20 10.1197 20 12C20 13.8803 20 15.0002 20 16.0002Z" fill="#020203"/>
</svg>
