<svg width="24" height="24" viewBox="0 0 24 24" fill="none" xmlns="http://www.w3.org/2000/svg">
<path opacity="0.4" d="M1.25 12C1.25 9.20342 1.25 7.80514 1.72603 6.70919C2.30653 5.37275 3.37275 4.30653 4.70919 3.72603C5.80514 3.25 7.20342 3.25 10 3.25C12.7966 3.25 14.1949 3.25 15.2908 3.72603C16.6272 4.30653 17.6935 5.37275 18.274 6.70919C18.75 7.80514 18.75 9.20342 18.75 12C18.75 14.7966 18.75 16.1949 18.274 17.2908C17.6935 18.6272 16.6272 19.6935 15.2908 20.274C14.1949 20.75 12.7966 20.75 10 20.75C7.20342 20.75 5.80514 20.75 4.70919 20.274C3.37275 19.6935 2.30653 18.6272 1.72603 17.2908C1.25 16.1949 1.25 14.7966 1.25 12Z" fill="#020203"/>
<path d="M5.5 10C5.5 11.3807 6.61929 12.5 8 12.5C9.38071 12.5 10.5 11.3807 10.5 10C10.5 8.61929 9.38071 7.5 8 7.5C6.61929 7.5 5.5 8.61929 5.5 10Z" fill="#020203"/>
<path d="M20 16C21.4912 16.1095 22.75 15.0172 22.75 13.3811V10.6185C22.75 8.98241 21.4913 7.89019 20 7.99974C20 8.99974 20 10.1195 20 11.9998C20 13.8801 20 15 20 16Z" fill="#020203"/>
</svg>
