<svg width="24" height="24" viewBox="0 0 24 24" fill="none" xmlns="http://www.w3.org/2000/svg">
<path d="M4 12C4 16.4183 7.58172 20 12 20C16.4183 20 20 16.4183 20 12C20 7.58172 16.4183 4 12 4C7.58172 4 4 7.58172 4 12Z" stroke="#020203" stroke-width="1.5" stroke-linecap="round"/>
<path d="M20 4L18 6" stroke="#020203" stroke-width="1.5" stroke-linecap="round"/>
<path d="M12 20V22" stroke="#020203" stroke-width="1.5" stroke-linecap="round" stroke-linejoin="round"/>
<path d="M12 2V4" stroke="#020203" stroke-width="1.5" stroke-linecap="round" stroke-linejoin="round"/>
<path d="M20 12H22" stroke="#020203" stroke-width="1.5" stroke-linecap="round" stroke-linejoin="round"/>
<path d="M2 12H4" stroke="#020203" stroke-width="1.5" stroke-linecap="round" stroke-linejoin="round"/>
<path d="M6 18L4 20" stroke="#020203" stroke-width="1.5" stroke-linecap="round"/>
<path d="M4 4L6 6" stroke="#020203" stroke-width="1.5" stroke-linecap="round"/>
<path d="M18 18L20 20" stroke="#020203" stroke-width="1.5" stroke-linecap="round"/>
<path d="M8.9906 9H8.99958" stroke="#020203" stroke-width="2" stroke-linecap="round" stroke-linejoin="round"/>
<path d="M9.9906 14H9.99958" stroke="#020203" stroke-width="2" stroke-linecap="round" stroke-linejoin="round"/>
<path d="M13.9906 11H13.9996" stroke="#020203" stroke-width="2" stroke-linecap="round" stroke-linejoin="round"/>
</svg>
