<svg width="24" height="24" viewBox="0 0 24 24" fill="none" xmlns="http://www.w3.org/2000/svg">
<path fill-rule="evenodd" clip-rule="evenodd" d="M20.5303 3.46967C20.8232 3.76256 20.8232 4.23744 20.5303 4.53033L17.5303 7.53033C17.2374 7.82322 16.7626 7.82322 16.4697 7.53033C16.1768 7.23744 16.1768 6.76256 16.4697 6.46967L19.4697 3.46967C19.7626 3.17678 20.2374 3.17678 20.5303 3.46967Z" fill="#020203"/>
<path fill-rule="evenodd" clip-rule="evenodd" d="M12 19.25C12.4142 19.25 12.75 19.5858 12.75 20V22C12.75 22.4142 12.4142 22.75 12 22.75C11.5858 22.75 11.25 22.4142 11.25 22V20C11.25 19.5858 11.5858 19.25 12 19.25Z" fill="#020203"/>
<path fill-rule="evenodd" clip-rule="evenodd" d="M12 1.25C12.4142 1.25 12.75 1.58579 12.75 2V4C12.75 4.41421 12.4142 4.75 12 4.75C11.5858 4.75 11.25 4.41421 11.25 4V2C11.25 1.58579 11.5858 1.25 12 1.25Z" fill="#020203"/>
<path fill-rule="evenodd" clip-rule="evenodd" d="M19.25 12C19.25 11.5858 19.5858 11.25 20 11.25H22C22.4142 11.25 22.75 11.5858 22.75 12C22.75 12.4142 22.4142 12.75 22 12.75H20C19.5858 12.75 19.25 12.4142 19.25 12Z" fill="#020203"/>
<path fill-rule="evenodd" clip-rule="evenodd" d="M1.25 12C1.25 11.5858 1.58579 11.25 2 11.25H4C4.41421 11.25 4.75 11.5858 4.75 12C4.75 12.4142 4.41421 12.75 4 12.75H2C1.58579 12.75 1.25 12.4142 1.25 12Z" fill="#020203"/>
<path fill-rule="evenodd" clip-rule="evenodd" d="M7.53033 16.4697C7.82322 16.7626 7.82322 17.2374 7.53033 17.5303L4.53033 20.5303C4.23744 20.8232 3.76256 20.8232 3.46967 20.5303C3.17678 20.2374 3.17678 19.7626 3.46967 19.4697L6.46967 16.4697C6.76256 16.1768 7.23744 16.1768 7.53033 16.4697Z" fill="#020203"/>
<path fill-rule="evenodd" clip-rule="evenodd" d="M3.46967 3.46967C3.76256 3.17678 4.23744 3.17678 4.53033 3.46967L7.53033 6.46967C7.82322 6.76256 7.82322 7.23744 7.53033 7.53033C7.23744 7.82322 6.76256 7.82322 6.46967 7.53033L3.46967 4.53033C3.17678 4.23744 3.17678 3.76256 3.46967 3.46967Z" fill="#020203"/>
<path fill-rule="evenodd" clip-rule="evenodd" d="M16.4697 16.4697C16.7626 16.1768 17.2374 16.1768 17.5303 16.4697L20.5303 19.4697C20.8232 19.7626 20.8232 20.2374 20.5303 20.5303C20.2374 20.8232 19.7626 20.8232 19.4697 20.5303L16.4697 17.5303C16.1768 17.2374 16.1768 16.7626 16.4697 16.4697Z" fill="#020203"/>
<path fill-rule="evenodd" clip-rule="evenodd" d="M12 20.75C7.16751 20.75 3.25 16.8325 3.25 12C3.25 7.16751 7.16751 3.25 12 3.25C16.8325 3.25 20.75 7.16751 20.75 12C20.75 16.8325 16.8325 20.75 12 20.75ZM8.9906 8C8.43832 8 7.9906 8.44772 7.9906 9C7.9906 9.55228 8.43832 10 8.9906 10H8.99958C9.55187 10 9.99958 9.55228 9.99958 9C9.99958 8.44772 9.55187 8 8.99958 8H8.9906ZM8.9906 14C8.9906 13.4477 9.43832 13 9.9906 13H9.99958C10.5519 13 10.9996 13.4477 10.9996 14C10.9996 14.5523 10.5519 15 9.99958 15H9.9906C9.43832 15 8.9906 14.5523 8.9906 14ZM13.9906 10C13.4383 10 12.9906 10.4477 12.9906 11C12.9906 11.5523 13.4383 12 13.9906 12H13.9996C14.5519 12 14.9996 11.5523 14.9996 11C14.9996 10.4477 14.5519 10 13.9996 10H13.9906Z" fill="#020203"/>
</svg>
