<svg width="24" height="24" viewBox="0 0 24 24" fill="none" xmlns="http://www.w3.org/2000/svg">
<path fill-rule="evenodd" clip-rule="evenodd" d="M3 10.25C3.41421 10.25 3.75 10.5858 3.75 11V14C3.75 14.4142 3.41421 14.75 3 14.75C2.58579 14.75 2.25 14.4142 2.25 14V11C2.25 10.5858 2.58579 10.25 3 10.25Z" fill="#020203"/>
<path fill-rule="evenodd" clip-rule="evenodd" d="M21 10.25C21.4142 10.25 21.75 10.5858 21.75 11V14C21.75 14.4142 21.4142 14.75 21 14.75C20.5858 14.75 20.25 14.4142 20.25 14V11C20.25 10.5858 20.5858 10.25 21 10.25Z" fill="#020203"/>
<path fill-rule="evenodd" clip-rule="evenodd" d="M6 8.25C6.41421 8.25 6.75 8.58579 6.75 9V16C6.75 16.4142 6.41421 16.75 6 16.75C5.58579 16.75 5.25 16.4142 5.25 16V9C5.25 8.58579 5.58579 8.25 6 8.25Z" fill="#020203"/>
<path fill-rule="evenodd" clip-rule="evenodd" d="M9 5.25C9.41421 5.25 9.75 5.58579 9.75 6L9.75 17C9.75 17.4142 9.41421 17.75 9 17.75C8.58579 17.75 8.25 17.4142 8.25 17L8.25 6C8.25 5.58579 8.58579 5.25 9 5.25Z" fill="#020203"/>
<path fill-rule="evenodd" clip-rule="evenodd" d="M15 5.25C15.4142 5.25 15.75 5.58579 15.75 6L15.75 17C15.75 17.4142 15.4142 17.75 15 17.75C14.5858 17.75 14.25 17.4142 14.25 17L14.25 6C14.25 5.58579 14.5858 5.25 15 5.25Z" fill="#020203"/>
<path fill-rule="evenodd" clip-rule="evenodd" d="M18 8.25C18.4142 8.25 18.75 8.58579 18.75 9V16C18.75 16.4142 18.4142 16.75 18 16.75C17.5858 16.75 17.25 16.4142 17.25 16V9C17.25 8.58579 17.5858 8.25 18 8.25Z" fill="#020203"/>
<path fill-rule="evenodd" clip-rule="evenodd" d="M12 4.25C12.4142 4.25 12.75 4.58579 12.75 5V19C12.75 19.4142 12.4142 19.75 12 19.75C11.5858 19.75 11.25 19.4142 11.25 19V5C11.25 4.58579 11.5858 4.25 12 4.25Z" fill="#020203"/>
</svg>
