<svg width="24" height="24" viewBox="0 0 24 24" fill="none" xmlns="http://www.w3.org/2000/svg">
<path d="M14.75 7.4845V16.5155C14.75 18.8541 12.8541 20.75 10.5155 20.75H10.0169C9.05721 20.75 8.14863 20.3175 7.54347 19.5727L7.20594 19.1573C6.98864 18.8899 6.70898 18.6799 6.39153 18.5459L5.28047 18.0768C2.83772 17.0454 1.25 14.6516 1.25 12C1.25 9.34844 2.83772 6.95463 5.28047 5.92325L6.39153 5.45413C6.70898 5.3201 6.98864 5.11013 7.20593 4.8427L7.54347 4.42727C8.14863 3.68246 9.05721 3.25 10.0169 3.25H10.5155C12.8541 3.25 14.75 5.14585 14.75 7.4845Z" fill="#020203"/>
<path fill-rule="evenodd" clip-rule="evenodd" d="M22.5303 9.46967C22.8232 9.76256 22.8232 10.2374 22.5303 10.5303L18.5303 14.5303C18.2374 14.8232 17.7626 14.8232 17.4697 14.5303C17.1768 14.2374 17.1768 13.7626 17.4697 13.4697L21.4697 9.46967C21.7626 9.17678 22.2374 9.17678 22.5303 9.46967Z" fill="#020203"/>
<path fill-rule="evenodd" clip-rule="evenodd" d="M17.4697 9.46967C17.7626 9.17678 18.2374 9.17678 18.5303 9.46967L22.5303 13.4697C22.8232 13.7626 22.8232 14.2374 22.5303 14.5303C22.2374 14.8232 21.7626 14.8232 21.4697 14.5303L17.4697 10.5303C17.1768 10.2374 17.1768 9.76256 17.4697 9.46967Z" fill="#020203"/>
</svg>
