<svg width="24" height="24" viewBox="0 0 24 24" fill="none" xmlns="http://www.w3.org/2000/svg">
<path d="M14.75 7.4845V16.5155C14.75 18.8541 12.8541 20.75 10.5155 20.75H10.0169C9.05721 20.75 8.14863 20.3175 7.54347 19.5727L7.20594 19.1573C6.98864 18.8899 6.70898 18.6799 6.39153 18.5459L5.28047 18.0768C2.83772 17.0454 1.25 14.6516 1.25 12C1.25 9.34844 2.83772 6.95463 5.28047 5.92325L6.39153 5.45413C6.70898 5.3201 6.98864 5.11013 7.20593 4.8427L7.54347 4.42727C8.14863 3.68246 9.05721 3.25 10.0169 3.25H10.5155C12.8541 3.25 14.75 5.14585 14.75 7.4845Z" fill="#020203"/>
<path fill-rule="evenodd" clip-rule="evenodd" d="M17.25 12C17.25 11.5858 17.5858 11.25 18 11.25H22C22.4142 11.25 22.75 11.5858 22.75 12C22.75 12.4142 22.4142 12.75 22 12.75H18C17.5858 12.75 17.25 12.4142 17.25 12Z" fill="#020203"/>
<path fill-rule="evenodd" clip-rule="evenodd" d="M20 9.25C20.4142 9.25 20.75 9.58579 20.75 10V14C20.75 14.4142 20.4142 14.75 20 14.75C19.5858 14.75 19.25 14.4142 19.25 14V10C19.25 9.58579 19.5858 9.25 20 9.25Z" fill="#020203"/>
</svg>
