<svg width="24" height="24" viewBox="0 0 24 24" fill="none" xmlns="http://www.w3.org/2000/svg">
<path d="M14.75 7.4845V16.5155C14.75 18.8541 12.8541 20.75 10.5155 20.75H10.0169C9.05721 20.75 8.14863 20.3175 7.54347 19.5727L7.20594 19.1573C6.98864 18.8899 6.70898 18.6799 6.39153 18.5459L5.28047 18.0768C2.83772 17.0454 1.25 14.6516 1.25 12C1.25 9.34844 2.83772 6.95463 5.28047 5.92325L6.39153 5.45413C6.70898 5.3201 6.98864 5.11013 7.20593 4.8427L7.54347 4.42727C8.14863 3.68246 9.05721 3.25 10.0169 3.25H10.5155C12.8541 3.25 14.75 5.14585 14.75 7.4845Z" fill="#020203"/>
<path fill-rule="evenodd" clip-rule="evenodd" d="M17.1025 15.636C16.7512 15.4165 16.6445 14.9538 16.864 14.6025C17.428 13.7 17.6875 12.8359 17.6875 12C17.6875 11.1641 17.428 10.3 16.864 9.39751C16.6445 9.04625 16.7512 8.58354 17.1025 8.36401C17.4537 8.14447 17.9165 8.25126 18.136 8.60251C18.822 9.70005 19.1875 10.8359 19.1875 12C19.1875 13.1641 18.822 14.3 18.136 15.3975C17.9165 15.7488 17.4537 15.8555 17.1025 15.636Z" fill="#020203"/>
<path fill-rule="evenodd" clip-rule="evenodd" d="M20.5846 6.31064C20.9653 6.14747 21.4062 6.32383 21.5694 6.70455C23.1502 10.3932 23.1502 13.6068 21.5694 17.2954C21.4062 17.6762 20.9653 17.8525 20.5846 17.6894C20.2038 17.5262 20.0275 17.0853 20.1906 16.7046C21.6098 13.3932 21.6098 10.6068 20.1906 7.29543C20.0275 6.91471 20.2038 6.4738 20.5846 6.31064Z" fill="#020203"/>
</svg>
