<svg width="24" height="24" viewBox="0 0 24 24" fill="none" xmlns="http://www.w3.org/2000/svg">
<path d="M14 7.53553V16.4645C14 18.4171 12.4171 20 10.4645 20C9.52678 20 8.62751 19.6275 7.96447 18.9645L7.31746 18.3175C7.108 18.108 6.85818 17.9433 6.58315 17.8333L5.71391 17.4856C3.47084 16.5883 2 14.4159 2 12C2 9.58414 3.47084 7.41167 5.71391 6.51444L6.58315 6.16674C6.85818 6.05673 7.108 5.892 7.31746 5.68254L7.96447 5.03553C8.62751 4.37249 9.52678 4 10.4645 4C12.4171 4 14 5.58291 14 7.53553Z" stroke="#020203" stroke-width="1.5" stroke-linecap="round"/>
<path d="M17.5 15C18.75 13 18.75 11 17.5 9" stroke="#020203" stroke-width="1.5" stroke-linecap="round"/>
<path d="M20.88 17C22.38 13.5 22.38 10.5 20.88 7" stroke="#020203" stroke-width="1.5" stroke-linecap="round"/>
</svg>
