<svg width="24" height="24" viewBox="0 0 24 24" fill="none" xmlns="http://www.w3.org/2000/svg">
<path opacity="0.4" d="M2 12V10C2 7 2 2 9 2H15C21.4434 2 21.9557 6.23651 21.9965 9.25H16.9995C16.0958 9.25055 15.1622 9.55347 14.4448 10.1889C13.7132 10.837 13.2493 11.7944 13.25 13.0005C13.2507 14.2059 13.7144 15.163 14.4456 15.8109C15.1627 16.4465 16.0962 16.7494 17 16.75H21.309C20.5049 18.5536 18.7649 20 15 20H11.6795C12.0451 19.2441 12.25 18.396 12.25 17.5C12.25 14.3244 9.67564 11.75 6.5 11.75C4.70454 11.75 3.10129 12.5729 2.04684 13.8622C2 13.2016 2 12.5653 2 12Z" fill="#020203"/>
<path fill-rule="evenodd" clip-rule="evenodd" d="M22 10.75H17.0003C16.4176 10.7504 15.8507 10.9475 15.4394 11.3118C15.0423 11.6635 14.7495 12.2056 14.75 12.9995C14.7505 13.7941 15.0436 14.3366 15.4405 14.6884C15.8515 15.0526 16.4179 15.2496 17.0005 15.25H21.7736C22 14.1146 22 12.9558 22 12V10.75ZM16.75 13C16.75 12.5858 17.0858 12.25 17.5 12.25H18.5C18.9142 12.25 19.25 12.5858 19.25 13C19.25 13.4142 18.9142 13.75 18.5 13.75H17.5C17.0858 13.75 16.75 13.4142 16.75 13Z" fill="#020203"/>
<path fill-rule="evenodd" clip-rule="evenodd" d="M6.5 22C4.01472 22 2 19.9853 2 17.5C2 15.0147 4.01472 13 6.5 13C8.98528 13 11 15.0147 11 17.5C11 19.9853 8.98528 22 6.5 22ZM5 18.25C4.58579 18.25 4.25 17.9142 4.25 17.5C4.25 17.0858 4.58579 16.75 5 16.75H8C8.41421 16.75 8.75 17.0858 8.75 17.5C8.75 17.9142 8.41421 18.25 8 18.25H5Z" fill="#020203"/>
</svg>
