<svg width="24" height="24" viewBox="0 0 24 24" fill="none" xmlns="http://www.w3.org/2000/svg">
<path d="M15 19.9907C16.537 19.9659 17.4945 19.8753 18.2961 19.5433C19.7662 18.9343 20.9343 17.7663 21.5433 16.2961C22 15.1935 22 13.7956 22 11C22 8.20435 22 6.80653 21.5433 5.7039C20.9343 4.23373 19.7662 3.06569 18.2961 2.45672C17.1935 2 15.7956 2 13 2H11C8.20433 2 6.8065 2 5.70388 2.45672C4.23371 3.06569 3.06566 4.23373 2.4567 5.7039C2.1247 6.50543 2.03403 7.46295 2.00928 9" stroke="#020203" stroke-width="1.5" stroke-linecap="round"/>
<path d="M2 17.5C2 19.9853 4.01472 22 6.5 22C8.98528 22 11 19.9853 11 17.5C11 15.0147 8.98528 13 6.5 13C4.01472 13 2 15.0147 2 17.5Z" stroke="#020203" stroke-width="1.5" stroke-linecap="round"/>
<path d="M4 20L9 15" stroke="#020203" stroke-width="1.5" stroke-linecap="round"/>
<path d="M17.5 13H18.5" stroke="#020203" stroke-width="1.5" stroke-linecap="round"/>
<path d="M21.5 16H17C15.5136 15.9991 14.0012 15 14 13C13.9988 11 15.5136 10.0009 17 10H21.5" stroke="#020203" stroke-width="1.5" stroke-linecap="round" stroke-linejoin="round"/>
</svg>
