<svg width="24" height="24" viewBox="0 0 24 24" fill="none" xmlns="http://www.w3.org/2000/svg">
<path d="M1.65707 5.69136C1.25 6.80979 1.25 8.20653 1.25 11C1.25 12.7806 1.25 13.9937 1.35542 14.929C2.29926 13.044 4.24851 11.75 6.5 11.75C9.67564 11.75 12.25 14.3244 12.25 17.5C12.25 18.7061 11.8787 19.8255 11.2441 20.75H13C15.7935 20.75 17.1902 20.75 18.3086 20.3429C20.0338 19.715 21.4221 18.4144 22.1644 16.75H17C16.0962 16.7494 15.1627 16.4465 14.4456 15.8109C13.7144 15.163 13.2507 14.2059 13.25 13.0005C13.2493 11.7944 13.7132 10.837 14.4448 10.1889C15.1622 9.55347 16.0958 9.25055 16.9995 9.25H22.7447C22.7276 7.56644 22.6545 6.54739 22.3429 5.69136C21.6605 3.81644 20.1836 2.33949 18.3086 1.65707C17.1902 1.25 15.7935 1.25 13 1.25H11C8.20653 1.25 6.80979 1.25 5.69136 1.65707C3.81644 2.33949 2.33949 3.81644 1.65707 5.69136Z" fill="#020203"/>
<path fill-rule="evenodd" clip-rule="evenodd" d="M22.75 11C22.75 12.9914 22.75 14.273 22.6025 15.25H17.0005C16.4179 15.2496 15.8515 15.0526 15.4405 14.6884C15.0436 14.3366 14.7505 13.7941 14.75 12.9995C14.7495 12.2056 15.0423 11.6635 15.4394 11.3118C15.8507 10.9475 16.4176 10.7504 17.0003 10.75H22.75L22.75 11ZM17.5 12.25C17.0858 12.25 16.75 12.5858 16.75 13C16.75 13.4142 17.0858 13.75 17.5 13.75H18.5C18.9142 13.75 19.25 13.4142 19.25 13C19.25 12.5858 18.9142 12.25 18.5 12.25H17.5Z" fill="#020203"/>
<path fill-rule="evenodd" clip-rule="evenodd" d="M2 17.5C2 19.9853 4.01472 22 6.5 22C8.98528 22 11 19.9853 11 17.5C11 15.0147 8.98528 13 6.5 13C4.01472 13 2 15.0147 2 17.5ZM6.5 19.75C6.91421 19.75 7.25 19.4142 7.25 19V18.25H8C8.41421 18.25 8.75 17.9142 8.75 17.5C8.75 17.0858 8.41421 16.75 8 16.75H7.25V16C7.25 15.5858 6.91421 15.25 6.5 15.25C6.08579 15.25 5.75 15.5858 5.75 16V16.75H5C4.58579 16.75 4.25 17.0858 4.25 17.5C4.25 17.9142 4.58579 18.25 5 18.25H5.75V19C5.75 19.4142 6.08579 19.75 6.5 19.75Z" fill="#020203"/>
</svg>
