<svg width="24" height="24" viewBox="0 0 24 24" fill="none" xmlns="http://www.w3.org/2000/svg">
<path opacity="0.4" d="M15 20.9907C16.537 20.9659 17.4945 20.8753 18.2961 20.5433C19.7662 19.9343 20.9343 18.7663 21.5433 17.2961C22 16.1935 22 14.7956 22 12C22 9.20435 22 7.80653 21.5433 6.7039C20.9343 5.23373 19.7662 4.06569 18.2961 3.45672C17.1935 3 15.7956 3 13 3H11C8.20433 3 6.8065 3 5.70388 3.45672C4.23371 4.06569 3.06566 5.23373 2.4567 6.7039C2.1247 7.50543 2.03403 8.46295 2.00928 10" stroke="#020203" stroke-width="1.5" stroke-linecap="round"/>
<path d="M2 17.5C2 19.9853 4.01472 22 6.5 22C8.98528 22 11 19.9853 11 17.5C11 15.0147 8.98528 13 6.5 13C4.01472 13 2 15.0147 2 17.5Z" stroke="#020203" stroke-width="1.5" stroke-linecap="round"/>
<path d="M4 20L9 15" stroke="#020203" stroke-width="1.5" stroke-linecap="round"/>
<path d="M17.5 14H18.5" stroke="#020203" stroke-width="1.5" stroke-linecap="round"/>
<path d="M21.5 17H17C15.5136 16.9991 14.0012 16 14 14C13.9988 12 15.5136 11.0009 17 11H21.5" stroke="#020203" stroke-width="1.5" stroke-linecap="round" stroke-linejoin="round"/>
</svg>
