<svg width="24" height="24" viewBox="0 0 24 24" fill="none" xmlns="http://www.w3.org/2000/svg">
<path d="M1.25 12C1.25 9.20653 1.25 7.80979 1.65707 6.69136C2.33949 4.81644 3.81644 3.33949 5.69136 2.65707C6.80979 2.25 8.20653 2.25 11 2.25H13C15.7935 2.25 17.1902 2.25 18.3086 2.65707C20.1836 3.33949 21.6605 4.81644 22.3429 6.69136C22.657 7.55431 22.7288 8.58294 22.7451 10.291C22.6683 10.2644 22.5858 10.25 22.5 10.25H17C16.0963 10.2506 15.1622 10.5535 14.4448 11.1889C13.7132 11.837 13.2493 12.7944 13.25 14.0005C13.2507 15.2059 13.7144 16.163 14.4456 16.8109C15.1627 17.4465 16.0957 17.7494 16.9995 17.75H22.1644C21.4221 19.4144 20.0338 20.715 18.3086 21.3429C17.1902 21.75 15.7935 21.75 13 21.75H11C8.20653 21.75 6.80979 21.75 5.69136 21.3429C3.81644 20.6605 2.33949 19.1836 1.65707 17.3086C1.25 16.1902 1.25 14.7935 1.25 12Z" fill="#020203"/>
<path fill-rule="evenodd" clip-rule="evenodd" d="M22.6015 16.2568C22.75 15.279 22.75 13.9961 22.75 12C22.75 11.9007 22.75 11.8032 22.75 11.7073C22.6718 11.735 22.5877 11.75 22.5 11.75H17.0003C16.4176 11.7504 15.8507 11.9475 15.4394 12.3118C15.0423 12.6635 14.7495 13.2056 14.75 13.9995C14.7505 14.7941 15.0436 15.3366 15.4405 15.6884C15.8515 16.0526 16.4179 16.2496 17.0005 16.25H22.5C22.5344 16.25 22.5683 16.2523 22.6015 16.2568ZM16.75 14C16.75 13.5858 17.0858 13.25 17.5 13.25H18.5C18.9142 13.25 19.25 13.5858 19.25 14C19.25 14.4142 18.9142 14.75 18.5 14.75H17.5C17.0858 14.75 16.75 14.4142 16.75 14Z" fill="#020203"/>
</svg>
