<svg width="24" height="24" viewBox="0 0 24 24" fill="none" xmlns="http://www.w3.org/2000/svg">
<path fill-rule="evenodd" clip-rule="evenodd" d="M16 19.25C16.4142 19.25 16.75 19.5858 16.75 20L16.75 22C16.75 22.4142 16.4142 22.75 16 22.75C15.5858 22.75 15.25 22.4142 15.25 22L15.25 20C15.25 19.5858 15.5858 19.25 16 19.25Z" fill="#020203"/>
<path fill-rule="evenodd" clip-rule="evenodd" d="M8 19.25C8.41421 19.25 8.75 19.5858 8.75 20L8.75 22C8.75 22.4142 8.41421 22.75 8 22.75C7.58579 22.75 7.25 22.4142 7.25 22L7.25 20C7.25 19.5858 7.58579 19.25 8 19.25Z" fill="#020203"/>
<path fill-rule="evenodd" clip-rule="evenodd" d="M11.25 1.2504C9.87468 1.25421 9.09978 1.28055 8.44867 1.46298C6.51553 2.00462 5.00486 3.51529 4.46323 5.44843C4.25 6.20944 4.25 7.13955 4.25 8.99976V13.9998C4.25 15.86 4.25 16.7901 4.46323 17.5511C5.00486 19.4842 6.51553 20.9949 8.44867 21.5365C9.09978 21.719 9.87468 21.7453 11.25 21.7491L11.25 1.2504ZM8 10.25C7.58579 10.25 7.25 10.5858 7.25 11C7.25 11.4142 7.58579 11.75 8 11.75H9C9.41421 11.75 9.75 11.4142 9.75 11C9.75 10.5858 9.41421 10.25 9 10.25H8Z" fill="#020203"/>
<path fill-rule="evenodd" clip-rule="evenodd" d="M12.75 21.7491C14.1253 21.7453 14.9002 21.719 15.5513 21.5365C17.4845 20.9949 18.9951 19.4842 19.5368 17.5511C19.75 16.7901 19.75 15.86 19.75 13.9998V8.99976C19.75 7.13955 19.75 6.20944 19.5368 5.44843C18.9951 3.51529 17.4845 2.00462 15.5513 1.46298C14.9002 1.28055 14.1253 1.25421 12.75 1.2504L12.75 21.7491ZM14.25 11C14.25 10.5858 14.5858 10.25 15 10.25H16C16.4142 10.25 16.75 10.5858 16.75 11C16.75 11.4142 16.4142 11.75 16 11.75H15C14.5858 11.75 14.25 11.4142 14.25 11Z" fill="#020203"/>
</svg>
