<svg width="24" height="24" viewBox="0 0 24 24" fill="none" xmlns="http://www.w3.org/2000/svg">
<path opacity="0.4" d="M17.5868 22.25H6.41323C2.47416 22.25 -0.0560453 18.0662 1.7733 14.5777L6.87457 4.84967C7.87393 2.94392 9.84813 1.75 12 1.75C14.1519 1.75 16.1261 2.94392 17.1254 4.84967L22.2267 14.5777C24.0561 18.0662 21.5259 22.25 17.5868 22.25Z" fill="#020203"/>
<path fill-rule="evenodd" clip-rule="evenodd" d="M12 7.5C12.4142 7.5 12.75 7.83579 12.75 8.25L12.75 11.25C12.75 11.6642 12.4142 12 12 12C11.5858 12 11.25 11.6642 11.25 11.25L11.25 8.25C11.25 7.83579 11.5858 7.5 12 7.5Z" fill="#020203"/>
<path fill-rule="evenodd" clip-rule="evenodd" d="M12 16.75C11.4477 16.75 11 16.3023 11 15.75L11 15.749C11 15.1967 11.4477 14.749 12 14.749C12.5523 14.749 13 15.1967 13 15.749L13 15.75C13 16.3023 12.5523 16.75 12 16.75Z" fill="#020203"/>
</svg>
