<svg width="24" height="24" viewBox="0 0 24 24" fill="none" xmlns="http://www.w3.org/2000/svg">
<path fill-rule="evenodd" clip-rule="evenodd" d="M17.5868 22.25H6.41323C2.47416 22.25 -0.0560453 18.0662 1.7733 14.5777L6.87457 4.84967C7.87393 2.94392 9.84813 1.75 12 1.75C14.1519 1.75 16.1261 2.94392 17.1254 4.84967L22.2267 14.5777C24.0561 18.0662 21.5259 22.25 17.5868 22.25ZM12 7.5C12.4142 7.5 12.75 7.83579 12.75 8.25V11.25C12.75 11.6642 12.4142 12 12 12C11.5858 12 11.25 11.6642 11.25 11.25V8.25C11.25 7.83579 11.5858 7.5 12 7.5ZM11 15.75C11 16.3023 11.4477 16.75 12 16.75C12.5523 16.75 13 16.3023 13 15.75V15.749C13 15.1967 12.5523 14.749 12 14.749C11.4477 14.749 11 15.1967 11 15.749V15.75Z" fill="#020203"/>
</svg>
