<svg width="24" height="24" viewBox="0 0 24 24" fill="none" xmlns="http://www.w3.org/2000/svg">
<path fill-rule="evenodd" clip-rule="evenodd" d="M18 19.25C18.4142 19.25 18.75 19.5858 18.75 20L18.75 22C18.75 22.4142 18.4142 22.75 18 22.75C17.5858 22.75 17.25 22.4142 17.25 22L17.25 20C17.25 19.5858 17.5858 19.25 18 19.25Z" fill="#020203"/>
<path fill-rule="evenodd" clip-rule="evenodd" d="M6 19.25C6.41421 19.25 6.75 19.5858 6.75 20L6.75 22C6.75 22.4142 6.41421 22.75 6 22.75C5.58579 22.75 5.25 22.4142 5.25 22L5.25 20C5.25 19.5858 5.58579 19.25 6 19.25Z" fill="#020203"/>
<path d="M8.75 13.5C8.75 15.2949 10.2051 16.75 12 16.75C13.7949 16.75 15.25 15.2949 15.25 13.5C15.25 11.7051 13.7949 10.25 12 10.25C10.2051 10.25 8.75 11.7051 8.75 13.5Z" fill="#020203"/>
<path fill-rule="evenodd" clip-rule="evenodd" d="M1.62951 6.18506C1.25 7.31142 1.25 8.70762 1.25 11.5C1.25 14.2924 1.25 15.6886 1.62951 16.8149C2.35288 18.9618 4.0382 20.6471 6.18506 21.3705C7.31142 21.75 8.70762 21.75 11.5 21.75H12.5C15.2924 21.75 16.6886 21.75 17.8149 21.3705C19.9618 20.6471 21.6471 18.9618 22.3705 16.8149C22.75 15.6886 22.75 14.2924 22.75 11.5C22.75 8.70762 22.75 7.31142 22.3705 6.18506C21.6471 4.0382 19.9618 2.35288 17.8149 1.62951C16.6886 1.25 15.2924 1.25 12.5 1.25H11.5C8.70762 1.25 7.31142 1.25 6.18506 1.62951C4.0382 2.35288 2.35288 4.0382 1.62951 6.18506ZM13.4945 5C12.9422 5 12.4945 5.44772 12.4945 6C12.4945 6.55228 12.9422 7 13.4945 7H13.5035C14.0558 7 14.5035 6.55228 14.5035 6C14.5035 5.44772 14.0558 5 13.5035 5H13.4945ZM16.4945 6C16.4945 5.44772 16.9422 5 17.4945 5H17.5035C18.0558 5 18.5035 5.44772 18.5035 6C18.5035 6.55228 18.0558 7 17.5035 7H17.4945C16.9422 7 16.4945 6.55228 16.4945 6ZM12 18.25C9.37665 18.25 7.25 16.1234 7.25 13.5C7.25 10.8766 9.37665 8.75 12 8.75C14.6234 8.75 16.75 10.8766 16.75 13.5C16.75 16.1234 14.6234 18.25 12 18.25Z" fill="#020203"/>
</svg>
