<svg width="24" height="24" viewBox="0 0 24 24" fill="none" xmlns="http://www.w3.org/2000/svg">
<path fill-rule="evenodd" clip-rule="evenodd" d="M12 17.25C12.4142 17.25 12.75 17.5858 12.75 18L12.75 21C12.75 21.4142 12.4142 21.75 12 21.75C11.5858 21.75 11.25 21.4142 11.25 21L11.25 18C11.25 17.5858 11.5858 17.25 12 17.25Z" fill="#020203"/>
<path fill-rule="evenodd" clip-rule="evenodd" d="M9.25 21C9.25 20.5858 9.58579 20.25 10 20.25H14C14.4142 20.25 14.75 20.5858 14.75 21C14.75 21.4142 14.4142 21.75 14 21.75H10C9.58579 21.75 9.25 21.4142 9.25 21Z" fill="#020203"/>
<path d="M8.75 10.5C8.75 8.70507 10.2051 7.25 12 7.25C13.7949 7.25 15.25 8.70507 15.25 10.5C15.25 12.2949 13.7949 13.75 12 13.75C10.2051 13.75 8.75 12.2949 8.75 10.5Z" fill="#020203"/>
<path fill-rule="evenodd" clip-rule="evenodd" d="M1.44636 6.94569C1.25 7.71044 1.25 8.64029 1.25 10.5C1.25 12.3597 1.25 13.2896 1.44636 14.0543C2.0133 16.2624 3.73757 17.9867 5.94569 18.5536C6.71044 18.75 7.64029 18.75 9.5 18.75H14.5C16.3597 18.75 17.2896 18.75 18.0543 18.5536C20.2624 17.9867 21.9867 16.2624 22.5536 14.0543C22.75 13.2896 22.75 12.3597 22.75 10.5C22.75 8.64029 22.75 7.71044 22.5536 6.94569C21.9867 4.73757 20.2624 3.0133 18.0543 2.44636C17.2896 2.25 16.3597 2.25 14.5 2.25H9.5C7.64029 2.25 6.71044 2.25 5.94569 2.44636C3.73757 3.0133 2.0133 4.73757 1.44636 6.94569ZM12 5.75C9.37665 5.75 7.25 7.87665 7.25 10.5C7.25 13.1234 9.37665 15.25 12 15.25C14.6234 15.25 16.75 13.1234 16.75 10.5C16.75 7.87665 14.6234 5.75 12 5.75Z" fill="#020203"/>
</svg>
