<svg width="24" height="24" viewBox="0 0 24 24" fill="none" xmlns="http://www.w3.org/2000/svg">
<path opacity="0.4" d="M1.25 10.5C1.25 8.64029 1.25 7.71044 1.44636 6.94569C2.0133 4.73757 3.73757 3.0133 5.94569 2.44636C6.71044 2.25 7.64029 2.25 9.5 2.25H14.5C16.3597 2.25 17.2896 2.25 18.0543 2.44636C20.2624 3.0133 21.9867 4.73757 22.5536 6.94569C22.75 7.71044 22.75 8.64029 22.75 10.5C22.75 12.3597 22.75 13.2896 22.5536 14.0543C21.9867 16.2624 20.2624 17.9867 18.0543 18.5536C17.2896 18.75 16.3597 18.75 14.5 18.75H9.5C7.64029 18.75 6.71044 18.75 5.94569 18.5536C3.73757 17.9867 2.0133 16.2624 1.44636 14.0543C1.25 13.2896 1.25 12.3597 1.25 10.5Z" fill="#020203"/>
<path d="M8 10.5C8 12.7091 9.79086 14.5 12 14.5C14.2091 14.5 16 12.7091 16 10.5C16 8.29086 14.2091 6.5 12 6.5C9.79086 6.5 8 8.29086 8 10.5Z" fill="#020203"/>
<path fill-rule="evenodd" clip-rule="evenodd" d="M12 17.25C12.4142 17.25 12.75 17.5858 12.75 18L12.75 21C12.75 21.4142 12.4142 21.75 12 21.75C11.5858 21.75 11.25 21.4142 11.25 21L11.25 18C11.25 17.5858 11.5858 17.25 12 17.25Z" fill="#020203"/>
<path fill-rule="evenodd" clip-rule="evenodd" d="M9.25 21C9.25 20.5858 9.58579 20.25 10 20.25H14C14.4142 20.25 14.75 20.5858 14.75 21C14.75 21.4142 14.4142 21.75 14 21.75H10C9.58579 21.75 9.25 21.4142 9.25 21Z" fill="#020203"/>
</svg>
