<svg width="24" height="24" viewBox="0 0 24 24" fill="none" xmlns="http://www.w3.org/2000/svg">
<path d="M2 10.5C2 8.63948 2 7.70922 2.22279 6.95047C2.75011 5.15457 4.15457 3.75011 5.95047 3.22279C6.70922 3 7.63948 3 9.5 3H14.5C16.3605 3 17.2908 3 18.0495 3.22279C19.8454 3.75011 21.2499 5.15457 21.7772 6.95047C22 7.70922 22 8.63948 22 10.5C22 12.3605 22 13.2908 21.7772 14.0495C21.2499 15.8454 19.8454 17.2499 18.0495 17.7772C17.2908 18 16.3605 18 14.5 18H9.5C7.63948 18 6.70922 18 5.95047 17.7772C4.15457 17.2499 2.75011 15.8454 2.22279 14.0495C2 13.2908 2 12.3605 2 10.5Z" stroke="#020203" stroke-width="1.5"/>
<path d="M8 10.5C8 12.7091 9.79086 14.5 12 14.5C14.2091 14.5 16 12.7091 16 10.5C16 8.29086 14.2091 6.5 12 6.5C9.79086 6.5 8 8.29086 8 10.5Z" stroke="#020203" stroke-width="1.5" stroke-linecap="round"/>
<path d="M12 18L12 21" stroke="#020203" stroke-width="1.5" stroke-linecap="round"/>
<path d="M10 21H14" stroke="#020203" stroke-width="1.5" stroke-linecap="round"/>
</svg>
