<svg width="24" height="24" viewBox="0 0 24 24" fill="none" xmlns="http://www.w3.org/2000/svg">
<path opacity="0.4" d="M1.25 12C1.25 8.73923 1.25 7.10885 1.76492 5.8165C2.50185 3.96695 3.96695 2.50185 5.8165 1.76492C7.10885 1.25 8.73923 1.25 12 1.25C15.2608 1.25 16.8912 1.25 18.1835 1.76492C20.0331 2.50185 21.4982 3.96695 22.2351 5.8165C22.75 7.10885 22.75 8.73923 22.75 12C22.75 15.2608 22.75 16.8912 22.2351 18.1835C21.4982 20.0331 20.0331 21.4982 18.1835 22.2351C16.8912 22.75 15.2608 22.75 12 22.75C8.73923 22.75 7.10885 22.75 5.8165 22.2351C3.96695 21.4982 2.50185 20.0331 1.76492 18.1835C1.25 16.8912 1.25 15.2608 1.25 12Z" fill="#020203"/>
<path d="M9.5 5.25C7.15279 5.25 5.25 7.15279 5.25 9.5C5.25 11.8472 7.15279 13.75 9.5 13.75H9.59269C9.61483 13.6875 9.64569 13.6269 9.68558 13.5699L10.3807 12.5769L12.376 9.58397C12.6057 9.23933 13.0714 9.1462 13.416 9.37596C13.7607 9.60573 13.8538 10.0714 13.624 10.416L11.6193 13.4231L11.3905 13.75H14.5C16.8472 13.75 18.75 11.8472 18.75 9.5C18.75 7.15279 16.8472 5.25 14.5 5.25H9.5Z" fill="#020203"/>
</svg>
