<svg width="24" height="24" viewBox="0 0 24 24" fill="none" xmlns="http://www.w3.org/2000/svg">
<path d="M9.375 6.75C7.95469 6.75 6.75 7.95938 6.75 9.5C6.75 10.2661 7.04672 10.9517 7.52984 11.4527C8.01252 11.9533 8.6613 12.25 9.375 12.25H10.5986L12.376 9.58397C12.6057 9.23933 13.0714 9.1462 13.416 9.37596C13.7607 9.60573 13.8538 10.0714 13.624 10.416L12.4014 12.25H14.625C16.0453 12.25 17.25 11.0406 17.25 9.5C17.25 8.73391 16.9533 8.04829 16.4702 7.54727C15.9875 7.04672 15.3387 6.75 14.625 6.75H9.375Z" fill="#020203"/>
<path fill-rule="evenodd" clip-rule="evenodd" d="M1.25 12C1.25 8.73923 1.25 7.10885 1.76492 5.8165C2.50185 3.96695 3.96695 2.50185 5.8165 1.76492C7.10885 1.25 8.73923 1.25 12 1.25C15.2608 1.25 16.8912 1.25 18.1835 1.76492C20.0331 2.50185 21.4982 3.96695 22.2351 5.8165C22.75 7.10885 22.75 8.73923 22.75 12C22.75 15.2608 22.75 16.8912 22.2351 18.1835C21.4982 20.0331 20.0331 21.4982 18.1835 22.2351C16.8912 22.75 15.2608 22.75 12 22.75C8.73923 22.75 7.10885 22.75 5.8165 22.2351C3.96695 21.4982 2.50185 20.0331 1.76492 18.1835C1.25 16.8912 1.25 15.2608 1.25 12ZM11.0102 13.75H14.625C16.9247 13.75 18.75 11.8172 18.75 9.5C18.75 8.3372 18.2968 7.28061 17.5499 6.50607C16.8026 5.73107 15.7713 5.25 14.625 5.25H9.375C7.07531 5.25 5.25 7.18284 5.25 9.5C5.25 10.6628 5.7032 11.7194 6.45008 12.4939C7.1974 13.2689 8.2287 13.75 9.375 13.75H10.9884C10.9957 13.7501 11.003 13.7501 11.0102 13.75Z" fill="#020203"/>
</svg>
