<svg width="24" height="24" viewBox="0 0 24 24" fill="none" xmlns="http://www.w3.org/2000/svg">
<path opacity="0.4" d="M2 12C2 8.73646 2 7.10469 2.57265 5.83232C3.22448 4.38401 4.38401 3.22448 5.83232 2.57265C7.10469 2 8.73646 2 12 2C15.2635 2 16.8953 2 18.1677 2.57265C19.616 3.22448 20.7755 4.38401 21.4273 5.83232C22 7.10469 22 8.73646 22 12C22 15.2635 22 16.8953 21.4273 18.1677C20.7755 19.616 19.616 20.7755 18.1677 21.4273C16.8953 22 15.2635 22 12 22C8.73646 22 7.10469 22 5.83232 21.4273C4.38401 20.7755 3.22448 19.616 2.57265 18.1677C2 16.8953 2 15.2635 2 12Z" stroke="#020203" stroke-width="1.5"/>
<path d="M18 9.5C18 11.4289 16.485 13 14.625 13H9.375C8.445 13 7.60496 12.6111 6.98996 11.9733C6.37496 11.3355 6 10.4644 6 9.5C6 7.57111 7.515 6 9.375 6H14.625C15.555 6 16.395 6.38889 17.01 7.02667C17.625 7.66445 18 8.53556 18 9.5Z" stroke="#020203" stroke-width="1.5" stroke-linecap="round" stroke-linejoin="round"/>
<path d="M13 10L11 13" stroke="#020203" stroke-width="1.5" stroke-linecap="round"/>
</svg>
