<svg width="23" height="24" viewBox="0 0 23 24" fill="none" xmlns="http://www.w3.org/2000/svg">
<path opacity="0.4" d="M1 12C1 17.5228 5.47715 22 11 22C16.5228 22 21 17.5228 21 12C21 6.47715 16.5228 2 11 2C5.47715 2 1 6.47715 1 12Z" stroke="#020203" stroke-width="1.5" stroke-linecap="round"/>
<path d="M11 8V22" stroke="#020203" stroke-width="1.5" stroke-linecap="round"/>
<path d="M7 8V14C7 16.2091 8.79086 18 11 18C13.2091 18 15 16.2091 15 14V8" stroke="#020203" stroke-width="1.5" stroke-linecap="round" stroke-linejoin="round"/>
<path opacity="0.4" d="M11 16C11 14.3431 9.65685 13 8 13C7.64936 13 7.31278 13.0602 7 13.1707" stroke="#020203" stroke-width="1.5" stroke-linecap="round"/>
<path opacity="0.4" d="M11 12C11 10.3431 9.65685 9 8 9C7.64936 9 7.31278 9.06015 7 9.17071" stroke="#020203" stroke-width="1.5" stroke-linecap="round"/>
<path opacity="0.4" d="M11 16C11 14.3431 12.3431 13 14 13C14.3506 13 14.6872 13.0602 15 13.1707" stroke="#020203" stroke-width="1.5" stroke-linecap="round"/>
<path opacity="0.4" d="M11 12C11 10.3431 12.3431 9 14 9C14.3506 9 14.6872 9.06015 15 9.17071" stroke="#020203" stroke-width="1.5" stroke-linecap="round"/>
</svg>
