<svg width="23" height="24" viewBox="0 0 23 24" fill="none" xmlns="http://www.w3.org/2000/svg">
<path d="M0.25 12C0.25 17.6849 4.66285 22.3392 10.25 22.7242V18.6911C7.98301 18.3315 6.25 16.3682 6.25 14V13.1881C6.24973 13.1765 6.24973 13.1649 6.25 13.1533V9.18815C6.24973 9.17649 6.24973 9.16487 6.25 9.15327V8C6.25 7.58579 6.58579 7.25 7 7.25C7.41421 7.25 7.75 7.58579 7.75 8V8.25823C7.83268 8.25277 7.91605 8.25 8 8.25C8.8442 8.25 9.62325 8.52896 10.25 8.99973V8C10.25 7.58579 10.5858 7.25 11 7.25C11.4142 7.25 11.75 7.58579 11.75 8V8.99973C12.3767 8.52896 13.1558 8.25 14 8.25C14.084 8.25 14.1673 8.25277 14.25 8.25823V8C14.25 7.58579 14.5858 7.25 15 7.25C15.4142 7.25 15.75 7.58579 15.75 8V9.15325C15.7503 9.16486 15.7503 9.1765 15.75 9.18816V13.1533C15.7503 13.1649 15.7503 13.1765 15.75 13.1882V14C15.75 16.3682 14.017 18.3315 11.75 18.6911V22.7242C17.3372 22.3392 21.75 17.6849 21.75 12C21.75 6.06294 16.9371 1.25 11 1.25C5.06294 1.25 0.25 6.06294 0.25 12Z" fill="#020203"/>
<path d="M14.25 9.76367C14.1681 9.75464 14.0847 9.75 14 9.75C12.7574 9.75 11.75 10.7574 11.75 12V12.9997C12.3767 12.529 13.1558 12.25 14 12.25C14.084 12.25 14.1673 12.2528 14.25 12.2582V9.76367Z" fill="#020203"/>
<path d="M10.25 12C10.25 10.7574 9.24264 9.75 8 9.75C7.91535 9.75 7.83194 9.75464 7.75 9.76367V12.2582C7.83268 12.2528 7.91605 12.25 8 12.25C8.8442 12.25 9.62325 12.529 10.25 12.9997V12Z" fill="#020203"/>
<path d="M11.75 17.163V16C11.75 14.7574 12.7574 13.75 14 13.75C14.0847 13.75 14.1681 13.7546 14.25 13.7637V14C14.25 15.5368 13.1834 16.8245 11.75 17.163Z" fill="#020203"/>
<path d="M8 13.75C9.24264 13.75 10.25 14.7574 10.25 16V17.163C8.81665 16.8245 7.75 15.5368 7.75 14V13.7637C7.83194 13.7546 7.91535 13.75 8 13.75Z" fill="#020203"/>
</svg>
