<svg width="23" height="24" viewBox="0 0 23 24" fill="none" xmlns="http://www.w3.org/2000/svg">
<path opacity="0.4" d="M0.25 12C0.25 17.9371 5.06294 22.75 11 22.75C16.9371 22.75 21.75 17.9371 21.75 12C21.75 6.06294 16.9371 1.25 11 1.25C5.06294 1.25 0.25 6.06294 0.25 12Z" fill="#020203"/>
<path d="M11.75 22.7242V8C11.75 7.58579 11.4142 7.25 11 7.25C10.5858 7.25 10.25 7.58579 10.25 8V22.7242C10.4978 22.7413 10.7479 22.75 11 22.75C11.2521 22.75 11.5022 22.7413 11.75 22.7242Z" fill="#020203"/>
<path fill-rule="evenodd" clip-rule="evenodd" d="M7 7.25C7.41421 7.25 7.75 7.58579 7.75 8V14C7.75 15.7949 9.20507 17.25 11 17.25C12.7949 17.25 14.25 15.7949 14.25 14V8C14.25 7.58579 14.5858 7.25 15 7.25C15.4142 7.25 15.75 7.58579 15.75 8V14C15.75 16.6234 13.6234 18.75 11 18.75C8.37665 18.75 6.25 16.6234 6.25 14V8C6.25 7.58579 6.58579 7.25 7 7.25Z" fill="#020203"/>
<path fill-rule="evenodd" clip-rule="evenodd" d="M8.00002 13.75C7.7357 13.75 7.48358 13.7953 7.24996 13.8778C6.85942 14.0159 6.43093 13.8112 6.29289 13.4206C6.15486 13.0301 6.35955 12.6016 6.75009 12.4636C7.14202 12.325 7.56307 12.25 8.00002 12.25C10.0711 12.25 11.75 13.9289 11.75 16C11.75 16.4142 11.4142 16.75 11 16.75C10.5858 16.75 10.25 16.4142 10.25 16C10.25 14.7574 9.24266 13.75 8.00002 13.75Z" fill="#020203"/>
<path fill-rule="evenodd" clip-rule="evenodd" d="M8.00002 9.75C7.7357 9.75 7.48358 9.79526 7.24996 9.87784C6.85942 10.0159 6.43093 9.81118 6.29289 9.42064C6.15486 9.0301 6.35955 8.60161 6.75009 8.46358C7.14202 8.32505 7.56307 8.25 8.00002 8.25C10.0711 8.25 11.75 9.92893 11.75 12C11.75 12.4142 11.4142 12.75 11 12.75C10.5858 12.75 10.25 12.4142 10.25 12C10.25 10.7574 9.24266 9.75 8.00002 9.75Z" fill="#020203"/>
<path fill-rule="evenodd" clip-rule="evenodd" d="M14 13.75C12.7574 13.75 11.75 14.7574 11.75 16C11.75 16.4142 11.4142 16.75 11 16.75C10.5858 16.75 10.25 16.4142 10.25 16C10.25 13.9289 11.9289 12.25 14 12.25C14.437 12.25 14.858 12.325 15.2499 12.4636C15.6405 12.6016 15.8452 13.0301 15.7071 13.4206C15.5691 13.8112 15.1406 14.0159 14.7501 13.8778C14.5164 13.7953 14.2643 13.75 14 13.75Z" fill="#020203"/>
<path fill-rule="evenodd" clip-rule="evenodd" d="M14 9.75C12.7574 9.75 11.75 10.7574 11.75 12C11.75 12.4142 11.4142 12.75 11 12.75C10.5858 12.75 10.25 12.4142 10.25 12C10.25 9.92893 11.9289 8.25 14 8.25C14.437 8.25 14.858 8.32505 15.2499 8.46358C15.6405 8.60161 15.8452 9.0301 15.7071 9.42064C15.5691 9.81118 15.1406 10.0159 14.7501 9.87784C14.5164 9.79526 14.2643 9.75 14 9.75Z" fill="#020203"/>
</svg>
