<svg width="24" height="24" viewBox="0 0 24 24" fill="none" xmlns="http://www.w3.org/2000/svg">
<path d="M3 12H10C12.7614 12 15 9.76142 15 7C15 4.23858 12.7313 2 9.96983 2C7.65073 2 5.60541 3.57834 5.04295 5.82821L5 6" stroke="#020203" stroke-width="1.5" stroke-linecap="round"/>
<path opacity="0.4" d="M14 15H18.5C20.433 15 22 16.567 22 18.5V19C22 20.6569 20.6569 22 19 22C17.3431 22 16 20.6569 16 19" stroke="#020203" stroke-width="1.5" stroke-linecap="round"/>
<path opacity="0.4" d="M2 15H7.5C9.433 15 11 16.567 11 18.5V19C11 20.6569 9.65685 22 8 22C6.34315 22 5 20.6569 5 19" stroke="#020203" stroke-width="1.5" stroke-linecap="round"/>
</svg>
