<svg width="24" height="24" viewBox="0 0 24 24" fill="none" xmlns="http://www.w3.org/2000/svg">
<path fill-rule="evenodd" clip-rule="evenodd" d="M4.31534 5.6463C4.9623 3.05849 7.3108 1.25 9.96983 1.25C13.1396 1.25 15.75 3.81851 15.75 7C15.75 10.1756 13.1756 12.75 10 12.75H3C2.58579 12.75 2.25 12.4142 2.25 12C2.25 11.5858 2.58579 11.25 3 11.25H10C12.3472 11.25 14.25 9.34721 14.25 7C14.25 4.65865 12.3229 2.75 9.96983 2.75C7.99065 2.75 6.24853 4.0982 5.77056 6.01011L5.72761 6.1819C5.62715 6.58375 5.21994 6.82807 4.8181 6.72761C4.41625 6.62714 4.17193 6.21994 4.27239 5.8181L4.31534 5.6463Z" fill="#020203"/>
<path fill-rule="evenodd" clip-rule="evenodd" d="M13.25 15C13.25 14.5858 13.5858 14.25 14 14.25H18.5C20.8472 14.25 22.75 16.1528 22.75 18.5V19C22.75 21.0711 21.0711 22.75 19 22.75C16.9289 22.75 15.25 21.0711 15.25 19C15.25 18.5858 15.5858 18.25 16 18.25C16.4142 18.25 16.75 18.5858 16.75 19C16.75 20.2426 17.7574 21.25 19 21.25C20.2426 21.25 21.25 20.2426 21.25 19V18.5C21.25 16.9812 20.0188 15.75 18.5 15.75H14C13.5858 15.75 13.25 15.4142 13.25 15Z" fill="#020203"/>
<path fill-rule="evenodd" clip-rule="evenodd" d="M1.25 15C1.25 14.5858 1.58579 14.25 2 14.25H7.5C9.84721 14.25 11.75 16.1528 11.75 18.5V19C11.75 21.0711 10.0711 22.75 8 22.75C5.92893 22.75 4.25 21.0711 4.25 19C4.25 18.5858 4.58579 18.25 5 18.25C5.41421 18.25 5.75 18.5858 5.75 19C5.75 20.2426 6.75736 21.25 8 21.25C9.24264 21.25 10.25 20.2426 10.25 19V18.5C10.25 16.9812 9.01878 15.75 7.5 15.75H2C1.58579 15.75 1.25 15.4142 1.25 15Z" fill="#020203"/>
</svg>
