<svg width="24" height="24" viewBox="0 0 24 24" fill="none" xmlns="http://www.w3.org/2000/svg">
<path d="M2 12C2 17.5228 6.47715 22 12 22C17.5228 22 22 17.5228 22 12C22 6.47715 17.5228 2 12 2C6.47715 2 2 6.47715 2 12Z" stroke="#020203" stroke-width="1.5" stroke-linecap="round"/>
<path d="M10.1384 2.5C7.06828 8.46812 7.07798 15.5556 10.1245 21.5" stroke="#020203" stroke-width="1.5" stroke-linecap="round"/>
<path d="M13.8616 2.5C16.9317 8.46812 16.922 15.5556 13.8755 21.5" stroke="#020203" stroke-width="1.5" stroke-linecap="round"/>
<path d="M2.5 13.8616C8.46812 16.9317 15.5556 16.922 21.5 13.8755" stroke="#020203" stroke-width="1.5" stroke-linecap="round"/>
<path d="M21.5 10.1245C15.5556 7.07798 8.46812 7.06828 2.5 10.1384" stroke="#020203" stroke-width="1.5" stroke-linecap="round"/>
</svg>
