<svg width="24" height="24" viewBox="0 0 24 24" fill="none" xmlns="http://www.w3.org/2000/svg">
<path d="M12.283 1.25365C12.189 1.25122 12.0946 1.25 12 1.25C11.9054 1.25 11.811 1.25122 11.717 1.25365C10.5169 3.14107 9.66298 5.17796 9.1535 7.27766C11.0431 7.02537 12.9579 7.02457 14.8457 7.27427C14.3361 5.17577 13.4824 3.14006 12.283 1.25365Z" fill="#020203"/>
<path d="M15.1597 8.83559C13.068 8.504 10.9337 8.50483 8.83966 8.83966C8.50483 10.9337 8.504 13.068 8.83559 15.1597C10.9323 15.4954 13.0694 15.4962 15.1638 15.1638C15.4962 13.0694 15.4954 10.9323 15.1597 8.83559Z" fill="#020203"/>
<path d="M7.55303 7.55303C7.99729 5.44876 8.76001 3.39516 9.84258 1.46655C5.63644 2.32345 2.32345 5.63645 1.46655 9.84258C3.39515 8.76001 5.44876 7.9973 7.55303 7.55303Z" fill="#020203"/>
<path d="M1.25365 11.717C3.14107 10.5169 5.17796 9.66298 7.27766 9.1535C7.02537 11.0431 7.02457 12.9579 7.27427 14.8457C5.17576 14.3361 3.14006 13.4824 1.25365 12.283C1.25122 12.189 1.25 12.0946 1.25 12C1.25 11.9054 1.25122 11.811 1.25365 11.717Z" fill="#020203"/>
<path d="M16.7215 9.14714C18.8245 9.65422 20.8618 10.5056 22.7459 11.6997C22.7486 11.7994 22.75 11.8996 22.75 12C22.75 12.1004 22.7486 12.2006 22.7459 12.3003C20.8628 13.4937 18.8267 14.3449 16.7249 14.852C16.9757 12.9601 16.9749 11.0409 16.7215 9.14714Z" fill="#020203"/>
<path d="M22.53 9.82549C20.605 8.74908 18.552 7.98927 16.4458 7.54749C16.0014 5.44516 15.239 3.39346 14.1574 1.46655C18.3579 2.32229 21.6676 5.62748 22.53 9.82549Z" fill="#020203"/>
<path d="M7.54749 16.4458C5.44515 16.0014 3.39346 15.239 1.46655 14.1574C2.32229 18.3579 5.62747 21.6676 9.82549 22.53C8.74907 20.605 7.98927 18.552 7.54749 16.4458Z" fill="#020203"/>
<path d="M14.852 16.7249C12.9601 16.9757 11.0409 16.9749 9.14714 16.7215C9.65422 18.8245 10.5056 20.8618 11.6997 22.7459C11.7994 22.7486 11.8996 22.75 12 22.75C12.1004 22.75 12.2006 22.7486 12.3003 22.7459C13.4937 20.8628 14.3449 18.8267 14.852 16.7249Z" fill="#020203"/>
<path d="M14.1745 22.53C15.25 20.6067 16.0094 18.5556 16.4513 16.4513C18.5556 16.0094 20.6067 15.25 22.53 14.1745C21.6687 18.3668 18.3668 21.6687 14.1745 22.53Z" fill="#020203"/>
</svg>
