<svg width="24" height="24" viewBox="0 0 24 24" fill="none" xmlns="http://www.w3.org/2000/svg">
<path opacity="0.4" d="M2 12C2 17.5228 6.47715 22 12 22C17.5228 22 22 17.5228 22 12C22 6.47715 17.5228 2 12 2C6.47715 2 2 6.47715 2 12Z" stroke="#020203" stroke-width="1.5" stroke-linecap="round"/>
<path d="M10.1383 2.5C7.06822 8.46812 7.07792 15.5556 10.1245 21.5" stroke="#020203" stroke-width="1.5" stroke-linecap="round"/>
<path d="M13.8616 2.5C16.9316 8.46812 16.9219 15.5556 13.8754 21.5" stroke="#020203" stroke-width="1.5" stroke-linecap="round"/>
<path d="M2.5 13.8613C8.46812 16.9314 15.5556 16.9217 21.5 13.8752" stroke="#020203" stroke-width="1.5" stroke-linecap="round"/>
<path d="M21.5 10.1247C15.5556 7.07817 8.46812 7.06846 2.5 10.1385" stroke="#020203" stroke-width="1.5" stroke-linecap="round"/>
</svg>
