<svg width="24" height="24" viewBox="0 0 24 24" fill="none" xmlns="http://www.w3.org/2000/svg">
<path d="M3 13C3 17.9706 7.02944 22 12 22C16.9706 22 21 17.9706 21 13C21 8.02944 16.9706 4 12 4C7.02944 4 3 8.02944 3 13Z" stroke="#020203" stroke-width="1.5" stroke-linecap="round"/>
<path d="M6.45117 6.5C8.0801 7.45349 9.97622 8 12 8C14.0237 8 15.9198 7.45349 17.5488 6.5" stroke="#020203" stroke-width="1.5" stroke-linecap="round"/>
<path d="M4 9.5498C6.00554 11.6741 8.84794 12.9999 12 12.9999C15.1521 12.9999 17.9945 11.6741 20 9.5498" stroke="#020203" stroke-width="1.5" stroke-linecap="round"/>
<path d="M3.19922 14C5.20607 16.4289 8.40123 18 12 18C15.5988 18 18.794 16.4289 20.8008 14" stroke="#020203" stroke-width="1.5" stroke-linecap="round"/>
<path d="M15 4L16 2" stroke="#020203" stroke-width="1.5" stroke-linecap="round" stroke-linejoin="round"/>
<path d="M9 4L8 2" stroke="#020203" stroke-width="1.5" stroke-linecap="round" stroke-linejoin="round"/>
</svg>
