<svg width="24" height="24" viewBox="0 0 24 24" fill="none" xmlns="http://www.w3.org/2000/svg">
<path d="M21.668 11.7302C21.5649 10.9371 21.3664 10.174 21.0845 9.4526C18.9296 12.0764 15.6602 13.75 12 13.75C8.33971 13.75 5.07034 12.0764 2.9154 9.45259C2.63351 10.1739 2.43506 10.9371 2.33191 11.7301C3.71684 14.8876 7.43643 17.25 12 17.25C16.5635 17.25 20.2831 14.8876 21.668 11.7302Z" fill="#020203"/>
<path d="M21.617 14.6141C19.4654 17.1413 15.9101 18.75 12 18.75C8.08983 18.75 4.53447 17.1413 2.38294 14.614C3.15204 19.2307 7.16502 22.75 12 22.75C16.8349 22.75 20.8478 19.2308 21.617 14.6141Z" fill="#020203"/>
<path d="M19.1248 6.34419C19.5844 6.83592 19.9936 7.37527 20.3443 7.95402C18.4853 10.5548 15.4406 12.25 12 12.25C8.55934 12.25 5.51465 10.5548 3.6556 7.95401C4.00633 7.37525 4.41558 6.83591 4.87513 6.34418C6.8516 7.85351 9.32109 8.75 12 8.75C14.6788 8.75 17.1483 7.85352 19.1248 6.34419Z" fill="#020203"/>
<path d="M17.998 5.31272C16.3439 4.02023 14.2619 3.25 12 3.25C9.73806 3.25 7.65605 4.02023 6.00192 5.31271C7.68825 6.53162 9.76022 7.25 12 7.25C14.2397 7.25 16.3117 6.53163 17.998 5.31272Z" fill="#020203"/>
<path fill-rule="evenodd" clip-rule="evenodd" d="M16.3355 1.32918C16.7059 1.51442 16.8561 1.96493 16.6709 2.33541L15.6709 4.33541C15.4856 4.70589 15.0351 4.85606 14.6646 4.67082C14.2941 4.48558 14.144 4.03507 14.3292 3.66459L15.3292 1.66459C15.5145 1.29411 15.965 1.14394 16.3355 1.32918Z" fill="#020203"/>
<path fill-rule="evenodd" clip-rule="evenodd" d="M7.66463 1.32918C8.03512 1.14394 8.48562 1.29411 8.67086 1.66459L9.67086 3.66459C9.8561 4.03507 9.70594 4.48558 9.33545 4.67082C8.96497 4.85606 8.51446 4.70589 8.32922 4.33541L7.32922 2.33541C7.14398 1.96493 7.29415 1.51442 7.66463 1.32918Z" fill="#020203"/>
</svg>
