<svg width="24" height="24" viewBox="0 0 24 24" fill="none" xmlns="http://www.w3.org/2000/svg">
<path opacity="0.4" d="M17.9981 5.31272C16.3439 4.02023 14.2619 3.25 12 3.25C9.7381 3.25 7.65609 4.02023 6.00195 5.31271C7.68829 6.53162 9.76026 7.25 12 7.25C14.2398 7.25 16.3117 6.53163 17.9981 5.31272Z" fill="#020203"/>
<path d="M19.1248 6.34419C19.5844 6.83592 19.9936 7.37527 20.3444 7.95402C18.4853 10.5548 15.4406 12.25 12 12.25C8.55939 12.25 5.5147 10.5548 3.65564 7.95401C4.00637 7.37525 4.41562 6.83591 4.87518 6.34418C6.85164 7.85351 9.32114 8.75 12 8.75C14.6789 8.75 17.1484 7.85351 19.1248 6.34419Z" fill="#020203"/>
<path opacity="0.4" d="M21.6682 11.7302C21.565 10.9371 21.3666 10.174 21.0847 9.4526C18.9297 12.0764 15.6604 13.75 12.0001 13.75C8.33983 13.75 5.07046 12.0764 2.91552 9.45258C2.63363 10.1739 2.43518 10.9371 2.33203 11.7301C3.71696 14.8876 7.43655 17.25 12.0001 17.25C16.5636 17.25 20.2832 14.8876 21.6682 11.7302Z" fill="#020203"/>
<path d="M21.6171 14.6141C19.4656 17.1413 15.9102 18.75 12.0001 18.75C8.08995 18.75 4.53459 17.1413 2.38306 14.614C3.15216 19.2307 7.16513 22.75 12.0001 22.75C16.835 22.75 20.848 19.2307 21.6171 14.6141Z" fill="#020203"/>
<path fill-rule="evenodd" clip-rule="evenodd" d="M16.3355 1.32918C16.7059 1.51442 16.8561 1.96493 16.6709 2.33541L15.6709 4.33541C15.4856 4.70589 15.0351 4.85606 14.6646 4.67082C14.2941 4.48558 14.144 4.03507 14.3292 3.66459L15.3292 1.66459C15.5145 1.29411 15.965 1.14394 16.3355 1.32918Z" fill="#020203"/>
<path fill-rule="evenodd" clip-rule="evenodd" d="M7.66463 1.32918C8.03512 1.14394 8.48562 1.29411 8.67086 1.66459L9.67086 3.66459C9.8561 4.03507 9.70594 4.48558 9.33545 4.67082C8.96497 4.85606 8.51446 4.70589 8.32922 4.33541L7.32922 2.33541C7.14398 1.96493 7.29415 1.51442 7.66463 1.32918Z" fill="#020203"/>
</svg>
