<svg width="24" height="24" viewBox="0 0 24 24" fill="none" xmlns="http://www.w3.org/2000/svg">
<path fill-rule="evenodd" clip-rule="evenodd" d="M11.5 21.75C5.83908 21.75 1.25 17.1609 1.25 11.5C1.25 5.83908 5.83908 1.25 11.5 1.25C17.1609 1.25 21.75 5.83908 21.75 11.5C21.75 17.1609 17.1609 21.75 11.5 21.75ZM8.5 10.75C8.08579 10.75 7.75 11.0858 7.75 11.5C7.75 11.9142 8.08579 12.25 8.5 12.25H14.5C14.9142 12.25 15.25 11.9142 15.25 11.5C15.25 11.0858 14.9142 10.75 14.5 10.75H8.5Z" fill="#020203"/>
<path fill-rule="evenodd" clip-rule="evenodd" d="M16.9697 17.9697C17.2626 17.6768 17.7374 17.6768 18.0303 17.9697L21.5303 21.4697C21.8232 21.7626 21.8232 22.2374 21.5303 22.5303C21.2374 22.8232 20.7626 22.8232 20.4697 22.5303L16.9697 19.0303C16.6768 18.7374 16.6768 18.2626 16.9697 17.9697Z" fill="#020203"/>
</svg>
